<?xml version="1.0" encoding="utf-8"?>
<!-- Generator: Adobe Illustrator 28.4.1, SVG Export Plug-In . SVG Version: 6.00 Build 0)  -->
<svg version="1.1" id="Layer_1" xmlns="http://www.w3.org/2000/svg" xmlns:xlink="http://www.w3.org/1999/xlink" x="0px" y="0px"
	 viewBox="0 0 93.54 85.04" style="enable-background:new 0 0 93.54 85.04;" xml:space="preserve">
<path d="M93.18,12.43c-0.54-0.92-1.89-0.66-2.78-0.65c-1.27,0.02-2.55,0.06-3.82,0.12c-0.77,0.04-1.59-0.06-2.19-0.55
	c-0.89-0.73-0.7-1.88-0.71-2.91c0-0.67,0.1-1.44-0.11-2.09c-0.27-0.85-1.41-1.08-2.17-1.35c-1.24-0.44-2.49-0.84-3.75-1.21
	c-4.07-1.2-8.24-2.12-12.46-2.67c-2.19-0.29-4.4-0.48-6.6-0.55c0,0-19.95-2.37-41.79,2.54c-0.79,0.18-1.61,0.44-2.36,0.73
	c-0.81,0.32-1.92,0.6-2.43,1.37c-0.25,0.38-0.33,0.85-0.37,1.3c-0.02,0.17-0.03,0.34-0.03,0.52c-0.02,0.51-0.01,1.02,0.01,1.52
	c0.02,0.46,0.04,0.94-0.16,1.36c-0.58,1.2-2.17,0.96-3.26,0.95c-1.64-0.01-3.29-0.03-4.93-0.04c-0.48,0-0.99,0-1.39,0.27
	c-0.49,0.33-0.67,0.97-0.68,1.56c-0.03,1.49,0.05,3,0.06,4.49c0,0.65,0,1.14-0.35,1.72c-0.13,0.21-0.26,0.42-0.41,0.62
	c-0.06,0.09-0.13,0.18-0.16,0.28c-0.02,0.07-0.02,0.15-0.02,0.22c0.01,1.85,0.01,3.7,0.02,5.55c0,0.91,0.01,1.82,0.01,2.72
	c0,0.4-0.06,0.86,0,1.26c0.06,0.38,0.29,0.65,0.43,1c0.32,0.81,0.1,2.03,0.1,2.93c0,0.8,0,1.6,0.01,2.4
	c0.01,1.98,0.01,3.96,0.02,5.95c0.01,3.69,0.01,7.37,0.07,11.06c0.01,0.38,0.01,0.76-0.05,1.13c-0.12,0.74-0.83,1.58-0.83,2.31
	c0,1.3,0.01,2.59,0.01,3.89c0.01,1.85-0.13,3.76,0.01,5.6c0.05,0.6,0.32,1.15,0.4,1.74c0.1,0.71,0.14,1.43,0.14,2.14
	c0.01,1.44-0.1,2.88-0.11,4.32c0,0.31,0,0.63,0.1,0.93c0.22,0.67,0.83,1.08,1.35,1.5c0.6,0.48,1.17,0.97,1.82,1.4
	c1.48,0.99,3.09,1.79,4.72,2.5c4.76,2.07,9.9,3.25,15.03,3.99c0.16,0.02,0.34,0.07,0.5,0.07c0,0,4.78,0.91,11.25,0.25
	c0,0,1.09-0.05,1.52-0.73c0,0,0.83-1.41,2.25-1.37c2.32-0.01,4.64-0.01,6.96-0.02c2.99-0.01,5.98-0.02,8.97-0.03
	c0.66,0,1.19,0.19,1.64,0.73c0.25,0.3,0.43,0.67,0.74,0.9c0.67,0.48,1.94,0.49,2.74,0.59c2.47,0.3,4.98,0.31,7.46,0.24
	c0.14,0,0.28,0,0.42-0.01c0.22-0.01,0.45-0.04,0.67-0.06c0.63-0.06,1.25-0.14,1.87-0.23c0.95-0.13,1.9-0.29,2.84-0.47
	c1.19-0.22,2.38-0.48,3.56-0.78c1.36-0.34,2.71-0.72,4.05-1.16c1.45-0.48,2.89-1.01,4.29-1.62c1.47-0.63,2.91-1.34,4.3-2.14
	c1.36-0.78,2.63-1.67,3.89-2.6c0.04-0.03,0.08-0.06,0.11-0.11c0.03-0.05,0.03-0.11,0.03-0.17c-0.02-1.92-0.01-3.84-0.02-5.76
	c-0.01-4.78-0.03-9.56-0.04-14.34c-0.02-5.87-0.04-11.73-0.05-17.6c-0.02-5.24-0.03-10.48-0.05-15.72c-0.01-2.77-0.07-5.55,0-8.32
	C93.47,13.37,93.43,12.85,93.18,12.43z M6.15,19.64c-1.01,0-1.84-0.82-1.84-1.83c0-1.01,0.82-1.84,1.83-1.84
	c1.01,0,1.84,0.82,1.84,1.83C7.98,18.81,7.16,19.63,6.15,19.64z M15.42,68.11c0-1.01,0.82-1.84,1.83-1.84
	c1.01,0,1.84,0.82,1.84,1.83c0,1.01-0.82,1.84-1.83,1.84S15.42,69.12,15.42,68.11z M19.87,78.5c-1.5,0-2.72-1.21-2.73-2.71
	c0-1.5,1.21-2.72,2.71-2.73c1.5,0,2.72,1.21,2.73,2.71C22.58,77.27,21.36,78.49,19.87,78.5z M74.76,78.54
	c-1.5,0-2.72-1.21-2.73-2.71c0-1.5,1.21-2.72,2.71-2.73c1.5,0,2.72,1.21,2.73,2.71C77.47,77.31,76.26,78.53,74.76,78.54z
	 M78.62,70.68l-1.7,0.01c-0.98,0-1.79-0.85-1.79-1.89c0-1.05,0.79-1.9,1.78-1.9l1.7-0.01c0.98,0,1.79,0.85,1.79,1.89
	C80.4,69.82,79.6,70.68,78.62,70.68z M88.8,19.39c-1.01,0-1.84-0.82-1.84-1.83c0-1.01,0.82-1.84,1.83-1.84
	c1.01,0,1.84,0.82,1.84,1.83C90.63,18.56,89.81,19.39,88.8,19.39z"/>
</svg>
