<?xml version="1.0" encoding="UTF-8" standalone="no"?>
<svg
   xmlns:dc="http://purl.org/dc/elements/1.1/"
   xmlns:cc="http://creativecommons.org/ns#"
   xmlns:rdf="http://www.w3.org/1999/02/22-rdf-syntax-ns#"
   xmlns:svg="http://www.w3.org/2000/svg"
   xmlns="http://www.w3.org/2000/svg"
   viewBox="0 0 372.13333 114.52"
   height="114.52"
   width="372.13333"
   xml:space="preserve"
   id="svg2"
   version="1.1"><metadata
     id="metadata8"><rdf:RDF><cc:Work
         rdf:about=""><dc:format>image/svg+xml</dc:format><dc:type
           rdf:resource="http://purl.org/dc/dcmitype/StillImage" /></cc:Work></rdf:RDF></metadata><defs
     id="defs6" /><g
     transform="matrix(1.3333333,0,0,-1.3333333,0,114.52)"
     id="g10"><g
       transform="scale(0.1)"
       id="g12"><path
         id="path14"
         style="fill:#2180c9;fill-opacity:1;fill-rule:nonzero;stroke:none"
         d="m 2299.89,754.633 c 0,57.324 -46.9,104.238 -104.21,104.238 -57.35,0 -104.24,-46.914 -104.24,-104.238 0,-114.649 -93.81,-208.457 -208.47,-208.457 -57.32,0 -104.23,-46.91 -104.23,-104.242 0,-57.325 46.91,-104.235 104.23,-104.235 133.42,0 208.47,-112.562 208.47,-225.136 v -8.336 C 2091.44,46.8945 2138.33,0 2195.68,0 c 57.31,0 104.21,46.8945 104.21,104.227 v 8.336 c 0,129.242 -41.67,242.871 -137.6,329.371 89.66,75.058 137.6,188.66 137.6,312.699 v 0" /><path
         id="path16"
         style="fill:#2180c9;fill-opacity:1;fill-rule:nonzero;stroke:none"
         d="M 892.004,104.227 C 892.004,46.8945 938.887,0 996.234,0 1053.54,0 1100.46,46.8945 1100.46,104.227 v 337.707 c 0,114.671 93.79,208.476 208.45,208.476 114.67,0 208.47,-93.805 208.47,-208.476 V 104.227 C 1517.38,46.8945 1564.29,0 1621.61,0 c 57.34,0 104.24,46.8945 104.24,104.227 v 337.707 c 0,231.402 -186.58,416.937 -416.94,416.937 -230.36,0 -416.906,-185.535 -416.906,-416.937 V 104.227" /><path
         id="path18"
         style="fill:#2180c9;fill-opacity:1;fill-rule:nonzero;stroke:none"
         d="M 2392.27,104.227 C 2392.27,46.8945 2439.17,0 2496.49,0 c 57.33,0 104.25,46.8945 104.25,104.227 v 4.168 646.238 c 0,57.324 -46.92,104.238 -104.25,104.238 -57.32,0 -104.22,-46.914 -104.22,-104.238 V 104.227" /><path
         id="path20"
         style="fill:#2180c9;fill-opacity:1;fill-rule:nonzero;stroke:none"
         d="m 416.938,233.484 c -114.653,0 -208.465,93.805 -208.465,208.45 0,114.671 93.812,208.476 208.465,208.476 114.644,0 208.457,-93.805 208.457,-208.476 0,-114.645 -93.813,-208.45 -208.457,-208.45 z m 0,625.387 C 186.582,858.871 0,672.289 0,441.934 0,211.59 186.582,25.0078 416.938,25.0078 c 77.117,0 149.046,20.8516 211.585,57.3281 C 638.953,35.4453 679.602,0 729.633,0 786.949,0 833.867,46.8945 833.867,104.227 v 337.707 c 0,230.355 -186.578,416.937 -416.929,416.937" /><path
         id="path22"
         style="fill:#2180c9;fill-opacity:1;fill-rule:nonzero;stroke:none"
         d="m 2736.99,729.871 c -29.79,0 -54.02,24.231 -54.02,54.016 0,29.789 24.23,54.019 54.02,54.019 29.79,0 54.02,-24.23 54.02,-54.019 0,-29.785 -24.23,-54.016 -54.02,-54.016 m 0,97.059 c -23.73,0 -43.04,-19.309 -43.04,-43.043 0,-23.735 19.31,-43.043 43.04,-43.043 23.74,0 43.04,19.308 43.04,43.043 0,23.734 -19.3,43.043 -43.04,43.043" /><path
         id="path24"
         style="fill:#2180c9;fill-opacity:1;fill-rule:nonzero;stroke:none"
         d="m 2734,788.301 c 3.07,0 5.24,0.566 6.55,1.699 1.35,1.133 2.02,3.012 2.02,5.613 0,2.567 -0.67,4.422 -2.02,5.52 -1.31,1.117 -3.48,1.683 -6.55,1.683 h -6.14 v -14.515 z m -6.14,-10.071 v -21.398 h -14.56 v 56.531 h 22.26 c 7.45,0 12.9,-1.238 16.36,-3.734 3.48,-2.512 5.22,-6.461 5.22,-11.859 0,-3.735 -0.91,-6.813 -2.73,-9.204 -1.79,-2.406 -4.5,-4.16 -8.14,-5.308 2,-0.445 3.79,-1.488 5.35,-3.098 1.59,-1.594 3.18,-4.015 4.81,-7.273 l 7.91,-16.055 h -15.52 l -6.91,14.055 c -1.38,2.812 -2.79,4.761 -4.23,5.785 -1.41,1.047 -3.3,1.558 -5.68,1.558 h -4.14" /></g></g></svg>