<?xml version="1.0" encoding="utf-8"?>
<!-- Generator: Adobe Illustrator 28.4.1, SVG Export Plug-In . SVG Version: 6.00 Build 0)  -->
<svg version="1.1" id="Layer_1" xmlns="http://www.w3.org/2000/svg" xmlns:xlink="http://www.w3.org/1999/xlink" x="0px" y="0px"
	 viewBox="0 0 93.54 85.04" style="enable-background:new 0 0 93.54 85.04;" xml:space="preserve">
<g>
	<g>
		<g>
			<g>
				<path d="M12.53,47.72c0.14-0.14,0.3-0.21,0.47-0.21c0.21,0,0.38,0.1,0.5,0.29c0.16,0.23,0.24,0.97,0.24,2.21
					c0,1.49,0.13,2.81,0.38,3.95c0.25,1.14,0.57,1.85,0.96,2.13c0.19,0.14,0.39,0.21,0.58,0.21c0.53,0,1.01-0.42,1.45-1.26
					c0.35-0.68,0.64-2.19,0.87-4.5c0.11-1.09,0.24-1.81,0.4-2.16c0.16-0.35,0.42-0.53,0.79-0.53c0.28,0,0.5,0.17,0.66,0.5
					c0.17,0.39,0.26,0.85,0.26,1.4c0,0.46-0.07,1.18-0.21,2.16c-0.39,2.69-1.22,4.52-2.5,5.5c-0.3,0.23-0.53,0.36-0.68,0.41
					s-0.47,0.07-0.92,0.07c-0.49,0-0.82-0.03-0.97-0.08c-0.16-0.05-0.4-0.24-0.74-0.55c-1.3-1.16-1.96-3.34-1.98-6.53v-0.58
					c0-0.81,0.03-1.37,0.09-1.69C12.24,48.14,12.36,47.9,12.53,47.72z"/>
				<path d="M24.07,46.8c0.21-0.19,0.39-0.29,0.55-0.29c0.16,0,0.35,0.09,0.58,0.26c0.47,0.37,0.71,1.13,0.71,2.29
					c0,0.83-0.11,2-0.32,3.53c-0.16,0.97-0.24,1.73-0.24,2.29c0,0.04,0.01,0.08,0.03,0.13v0.08c0.05,0.16,0.22,0.25,0.51,0.29
					c0.29,0.04,1.01,0.07,2.17,0.11c0.97,0.04,1.55,0.07,1.76,0.09c0.21,0.03,0.4,0.13,0.58,0.3c0.25,0.25,0.37,0.52,0.37,0.82
					c0,0.23-0.08,0.42-0.24,0.58c-0.54,0.51-1.57,0.76-3.08,0.76c-1.3,0-2.36-0.2-3.19-0.61c-0.44-0.23-0.8-0.57-1.08-1.03
					c-0.19-0.33-0.31-0.59-0.36-0.76c-0.04-0.17-0.07-0.52-0.07-1.03v-0.74c0.02-1.53,0.16-3.02,0.42-4.46S23.75,47.1,24.07,46.8z"
					/>
				<path d="M36.34,47.17c0.77-0.05,1.43-0.08,1.98-0.08c0.95,0,1.63,0.08,2.04,0.25c0.41,0.17,0.62,0.45,0.62,0.86
					c0,0.49-0.51,0.77-1.53,0.84l-0.97,0.11l0.03,0.63c0,0.11,0.01,0.35,0.03,0.73c0.02,0.38,0.03,0.89,0.04,1.53
					c0.01,0.64,0.02,1.2,0.04,1.67c0.04,1.41,0.05,2.16,0.05,2.27c0,0.7-0.11,1.2-0.32,1.5c-0.23,0.35-0.5,0.53-0.82,0.53
					c-0.25,0-0.47-0.12-0.67-0.36c-0.2-0.24-0.36-0.57-0.46-0.99c-0.12-0.46-0.18-1.82-0.18-4.08c0-1.23,0.04-2.16,0.11-2.79
					l0.08-0.66l-1.13-0.08c-0.7-0.04-1.16-0.18-1.37-0.42c-0.16-0.19-0.24-0.36-0.24-0.5C33.66,47.61,34.55,47.29,36.34,47.17z"/>
				<path d="M46.14,45.22c0.46-0.21,0.89-0.32,1.29-0.32c0.76,0,1.47,0.36,2.13,1.08c0.56,0.61,0.84,1.36,0.84,2.24
					c0,0.05,0,0.13-0.01,0.24c-0.01,0.11-0.01,0.18-0.01,0.24c-0.02,0.67-0.19,1.33-0.53,2l-0.5,0.97l0.5,0.42
					c0.51,0.42,0.97,1.12,1.37,2.11c0.4,0.98,0.61,1.85,0.61,2.61c0,0.37-0.07,0.67-0.21,0.9c-0.16,0.21-0.33,0.32-0.5,0.32
					c-0.3,0-0.61-0.24-0.92-0.72c-0.32-0.48-0.58-1.13-0.79-1.94c-0.23-0.82-0.49-1.42-0.79-1.78c-0.3-0.36-0.69-0.54-1.18-0.54
					c-0.19,0-0.34,0.01-0.45,0.03l-0.45,0.08l-0.08,1.76c-0.07,1.23-0.16,2-0.26,2.32c-0.09,0.35-0.23,0.65-0.43,0.88
					c-0.2,0.24-0.41,0.36-0.62,0.36c-0.3,0-0.54-0.11-0.72-0.34s-0.34-0.62-0.46-1.19c-0.12-0.56-0.18-1.32-0.18-2.27
					c0-0.19,0.02-1.17,0.05-2.92c0.07-2.72,0.17-4.22,0.29-4.5c0.16-0.37,0.44-0.75,0.84-1.16C45.36,45.69,45.75,45.4,46.14,45.22z
					 M48.01,47.75c-0.16-0.18-0.32-0.26-0.47-0.26s-0.32,0.09-0.47,0.26c-0.47,0.56-0.71,1.22-0.71,1.98c0,0.35,0.02,0.57,0.05,0.66
					c0.04,0.09,0.11,0.13,0.24,0.13c0.23,0,0.53-0.18,0.9-0.55c0.39-0.35,0.61-0.76,0.66-1.24c0.02-0.1,0.03-0.23,0.03-0.37
					C48.22,48.09,48.15,47.89,48.01,47.75z"/>
				<path d="M59.44,46.46c0.33-0.3,0.63-0.45,0.89-0.45c0.25,0,0.47,0.11,0.68,0.34c0.4,0.44,1.01,2.16,1.82,5.16
					c0.3,1.19,0.66,2.38,1.08,3.56c0.42,1.26,0.63,1.97,0.63,2.11c-0.02,0.25-0.12,0.46-0.32,0.66c-0.19,0.19-0.41,0.29-0.66,0.29
					c-0.37,0-0.68-0.16-0.92-0.49c-0.25-0.33-0.51-0.94-0.79-1.83c-0.37-1.09-0.65-1.67-0.84-1.74c-0.05-0.04-0.32-0.05-0.79-0.05
					c-0.49,0-0.87,0.01-1.13,0.03l-1.61,0.08l-0.55,1.32c-0.35,0.88-0.63,1.48-0.83,1.82c-0.2,0.33-0.43,0.54-0.67,0.63
					c-0.12,0.05-0.25,0.08-0.37,0.08c-0.33,0-0.5-0.33-0.5-0.97v-0.13c0.04-1.04,0.66-2.86,1.87-5.47
					C57.65,48.79,58.65,47.14,59.44,46.46z M60.52,50.49C60.28,49.37,60.1,48.8,60,48.8c-0.04,0-0.09,0.04-0.16,0.1
					c-0.14,0.18-0.44,0.76-0.91,1.76c-0.47,1-0.7,1.56-0.7,1.69c0,0.16,0.08,0.24,0.24,0.24c0.09,0,0.46-0.04,1.13-0.13
					c0.79-0.11,1.18-0.26,1.18-0.47C60.79,51.73,60.7,51.23,60.52,50.49z"/>
			</g>
		</g>
		<g>
			<g>
				<path d="M19.91,30.19c0.22-0.29,0.48-0.43,0.77-0.43c0.31,0,0.6,0.18,0.87,0.53c0.42,0.56,0.64,2.4,0.64,5.52
					c0,1.07-0.01,1.92-0.03,2.54c-0.07,2.65-0.22,4.16-0.47,4.51c-0.22,0.38-0.55,0.57-0.97,0.57c-0.4,0-0.75-0.2-1.04-0.6
					c-0.2-0.29-0.33-0.61-0.4-0.95c-0.07-0.35-0.11-1.04-0.13-2.09l-0.07-2.47l-0.57-0.07h-0.23c-0.62,0-1.39,0.03-2.31,0.1
					l-2.01,0.13l-0.13,2.68c-0.09,1.78-0.17,2.77-0.23,2.94c-0.11,0.22-0.32,0.42-0.63,0.6c-0.25,0.13-0.42,0.2-0.54,0.2
					c-0.13,0-0.35-0.07-0.64-0.2c-0.4-0.18-0.68-0.51-0.82-0.99c-0.15-0.48-0.22-1.28-0.22-2.39c0-1.52,0.1-3.38,0.3-5.6
					c0.2-2.22,0.39-3.51,0.57-3.86c0.29-0.62,0.61-0.94,0.97-0.94c0.11,0,0.28,0.06,0.5,0.17c0.29,0.18,0.48,0.45,0.57,0.82
					c0.09,0.37,0.15,1.07,0.17,2.12c0.04,1.05,0.1,1.63,0.17,1.74c0.07,0.09,0.33,0.13,0.8,0.13c0.13,0,0.69-0.02,1.67-0.07
					c1.54-0.09,2.36-0.17,2.48-0.23c0.11-0.09,0.21-0.48,0.3-1.17c0.13-1.25,0.23-2.05,0.3-2.39C19.6,30.7,19.73,30.42,19.91,30.19z
					"/>
				<path d="M29.57,28.12c0.94-0.25,1.95-0.37,3.04-0.37c0.87,0,1.48,0.09,1.84,0.27c0.49,0.22,0.74,0.66,0.74,1.3
					c0,0.38-0.22,0.65-0.67,0.82c-0.45,0.17-1.26,0.28-2.44,0.35c-1.47,0.13-2.25,0.22-2.34,0.27c-0.27,0.16-0.49,0.94-0.67,2.34
					l-0.1,0.87h1.37c1.89,0,2.84,0.43,2.84,1.3c0,0.2-0.04,0.4-0.13,0.6c-0.16,0.33-0.42,0.59-0.79,0.77
					c-0.37,0.18-0.97,0.32-1.79,0.43c-0.98,0.16-1.49,0.3-1.54,0.44c-0.05,0.09-0.07,0.27-0.07,0.54c0,0.18,0.02,0.51,0.07,1
					l0.1,1.3h1.1c1.65,0.04,2.64,0.27,2.98,0.67c0.16,0.18,0.23,0.42,0.23,0.74c0,0.42-0.13,0.71-0.4,0.87
					c-0.92,0.56-2.17,0.84-3.78,0.84c-1.2,0-2.05-0.26-2.53-0.79c-0.48-0.52-0.81-1.55-0.99-3.09c-0.07-0.65-0.1-1.34-0.1-2.07
					c0-1.52,0.12-3.03,0.37-4.53s0.57-2.58,0.97-3.23c0.24-0.42,0.56-0.76,0.95-1C28.24,28.51,28.81,28.3,29.57,28.12z"/>
				<path d="M45.02,28.86c0.42-0.38,0.8-0.57,1.14-0.57c0.31,0,0.6,0.15,0.87,0.44c0.51,0.56,1.28,2.74,2.31,6.55
					c0.38,1.52,0.84,3.02,1.37,4.51c0.54,1.6,0.8,2.5,0.8,2.68c-0.02,0.31-0.16,0.59-0.4,0.84c-0.25,0.25-0.52,0.37-0.84,0.37
					c-0.47,0-0.86-0.21-1.17-0.62c-0.31-0.41-0.65-1.19-1-2.32c-0.47-1.38-0.83-2.12-1.07-2.21c-0.07-0.04-0.4-0.07-1-0.07
					c-0.62,0-1.1,0.01-1.44,0.03l-2.04,0.1l-0.7,1.67c-0.45,1.12-0.8,1.88-1.05,2.31c-0.26,0.42-0.54,0.69-0.85,0.8
					c-0.16,0.07-0.31,0.1-0.47,0.1c-0.42,0-0.63-0.41-0.63-1.24v-0.17c0.04-1.32,0.84-3.63,2.37-6.94
					C42.75,31.82,44.02,29.73,45.02,28.86z M46.39,33.97c-0.31-1.43-0.54-2.14-0.67-2.14c-0.05,0-0.11,0.04-0.2,0.13
					c-0.18,0.22-0.56,0.97-1.15,2.24c-0.59,1.27-0.89,1.98-0.89,2.14c0,0.2,0.1,0.3,0.3,0.3c0.11,0,0.59-0.06,1.44-0.17
					c1-0.13,1.5-0.33,1.5-0.6C46.73,35.54,46.61,34.91,46.39,33.97z"/>
				<path d="M57.76,26.65c0.51-0.2,1.16-0.3,1.94-0.3c1.2,0,2.21,0.2,3.01,0.6c1.36,0.67,2.42,1.71,3.18,3.11
					c0.76,1.4,1.14,2.93,1.14,4.58c0,2.1-0.59,3.97-1.77,5.62c-0.69,0.96-1.67,1.75-2.93,2.37c-1.26,0.62-2.54,0.95-3.83,0.97
					c-0.87,0-1.53-0.12-1.97-0.37c-0.45-0.25-0.83-0.69-1.14-1.34c-0.18-0.42-0.29-0.95-0.33-1.59c-0.04-0.64-0.08-2.37-0.1-5.2
					V32.5c0-1.56,0.02-2.54,0.07-2.94c0.04-0.4,0.16-0.75,0.33-1.04C55.82,27.76,56.62,27.14,57.76,26.65z M61.74,30.19
					c-0.51-0.36-1.15-0.53-1.91-0.53c-0.8,0-1.43,0.2-1.87,0.6c-0.18,0.13-0.27,1.76-0.27,4.88v4.62l1.27-0.03
					c1.43-0.02,2.58-0.55,3.44-1.57c0.8-0.94,1.2-2.16,1.2-3.68c0-0.91-0.16-1.76-0.49-2.54C62.81,31.15,62.34,30.57,61.74,30.19z"
					/>
			</g>
		</g>
		<g>
			<g>
				<path d="M75.1,27.3c0.69-0.48,1.39-0.72,2.08-0.72c1.3,0,2.37,0.75,3.23,2.24c0.86,1.49,1.28,3.43,1.28,5.83
					c0,4.69-1.48,9.45-4.44,14.3c-0.74,1.23-1.11,2-1.11,2.32c0,0.21,0.65,0.56,1.94,1.04c0.97,0.32,2,0.99,3.09,2
					c1.09,1.01,1.63,1.81,1.63,2.4c0,0.43-0.23,0.91-0.69,1.44c-0.37,0.37-1.02,0.56-1.94,0.56c-1.2,0-2.78-0.32-4.72-0.96
					c-1.02-0.32-1.78-0.48-2.29-0.48c-0.46,0-0.99,0.08-1.6,0.24c-0.55,0.21-1.02,0.32-1.39,0.32c-0.37,0-0.72-0.19-1.04-0.56
					c-0.46-0.48-0.69-0.96-0.69-1.44c0-0.75,0.55-1.7,1.67-2.88c1.57-1.7,3.05-4.19,4.44-7.47c1.39-3.28,2.24-6.38,2.57-9.31
					c0.14-1.06,0.21-1.92,0.21-2.56c0-1.22-0.21-1.84-0.62-1.84c-0.37,0-0.79,1.6-1.25,4.79c-0.19,1.33-0.36,2.13-0.52,2.4
					c-0.16,0.27-0.5,0.45-1.01,0.56H73.5c-1.16,0-1.74-1.28-1.74-3.83c0-1.49,0.36-3.12,1.08-4.87
					C73.56,29.06,74.31,27.88,75.1,27.3z"/>
			</g>
		</g>
	</g>
</g>
</svg>
