<?xml version="1.0" encoding="UTF-8"?>
<svg id="Layer_1" xmlns="http://www.w3.org/2000/svg" version="1.1" viewBox="0 0 96.4 87.7">
  <!-- Generator: Adobe Illustrator 29.0.1, SVG Export Plug-In . SVG Version: 2.1.0 Build 192)  -->
  <defs>
    <style>
      .st0 {
        fill: none;
        stroke: #f20808;
        stroke-miterlimit: 10;
        stroke-width: .2px;
      }
    </style>
  </defs>
  <path d="M96.1,13c-.6-.9-1.9-.7-2.9-.7-1.3,0-2.6,0-3.9.1-.8,0-1.6,0-2.2-.6-.9-.8-.7-1.9-.7-3s.1-1.5,0-2.2c-.3-.9-1.4-1.1-2.2-1.4-1.3-.5-2.6-.9-3.9-1.3-4.2-1.2-8.5-2.2-12.8-2.8-2.3-.3-4.5-.5-6.8-.6,0,0-20.5-2.5-43.1,2.5-.8.2-1.7.5-2.4.8-.8.3-2,.6-2.5,1.4-.3.4-.3.9-.4,1.3,0,.2,0,.4,0,.5,0,.5,0,1.1,0,1.6,0,.5,0,1-.2,1.4-.6,1.2-2.2,1-3.4,1-1.7,0-3.4,0-5.1,0-.5,0-1,0-1.4.3-.5.3-.7,1-.7,1.6,0,1.5,0,3.1,0,4.6s0,1.2-.4,1.8c-.1.2-.3.4-.4.6,0,0-.1.2-.2.3,0,0,0,.1,0,.2v8.5c0,.4,0,.9,0,1.3,0,.4.3.7.4,1,.3.8.1,2.1.1,3v8.6c0,3.8,0,7.6,0,11.4,0,.4,0,.8,0,1.2-.1.8-.9,1.6-.9,2.4v4c0,1.9-.2,3.9,0,5.8,0,.6.3,1.2.4,1.8,0,.7.1,1.5.1,2.2,0,1.5-.1,3-.1,4.5,0,.3,0,.7.1,1,.2.7.9,1.1,1.4,1.6.6.5,1.2,1,1.9,1.5,1.5,1,3.2,1.8,4.8,2.6,4.9,2.2,10.2,3.4,15.5,4.2.2,0,.4,0,.5,0,0,0,4.9.9,11.6.3,0,0,1.1,0,1.6-.8,0,0,.9-1.4,2.3-1.4h16.4c.7,0,1.2.2,1.7.8.3.3.4.7.8.9.7.5,2,.5,2.8.6,2.5.3,5.1.3,7.7.3.1,0,.3,0,.4,0,.2,0,.5,0,.7,0,.7,0,1.3-.1,1.9-.2,1-.1,1.9-.3,2.9-.5,1.2-.2,2.5-.5,3.7-.8,1.4-.3,2.8-.7,4.2-1.2,1.5-.5,3-1,4.4-1.7,1.5-.7,3-1.4,4.4-2.2,1.4-.8,2.7-1.7,4-2.7,0,0,0,0,.1-.1,0,0,0-.1,0-.2,0-2,0-4,0-5.9V23c0-2.9,0-5.7,0-8.6,0-.5,0-1-.3-1.5h0Z"/>
  <ellipse class="st0" cx="6.4" cy="18.2" rx="1.9" ry="1.9"/>
  <path class="st0" d="M15.8,70.2c0-1,.8-1.9,1.9-1.9s1.9.8,1.9,1.9-.9,1.9-1.9,1.9-1.9-.8-1.9-1.9Z"/>
  <circle class="st0" cx="20.4" cy="78.1" r="2.8"/>
  <circle class="st0" cx="76.9" cy="78.3" r="2.8"/>
  <path class="st0" d="M80.9,73h-1.8c-1,0-1.8-.9-1.8-2s.8-2,1.8-2h1.8c1,0,1.8.9,1.8,2s-.8,2-1.8,2Z"/>
  <ellipse class="st0" cx="91.6" cy="18.2" rx="1.9" ry="1.9"/>
</svg>