<?xml version="1.0" encoding="UTF-8"?>
<svg id="Layer_1" data-name="Layer 1" xmlns="http://www.w3.org/2000/svg" viewBox="0 0 96.38 87.72">
  <defs>
    <style>
      .cls-1 {
        fill: #000;
        stroke-width: 0px;
      }
    </style>
  </defs>
  <path class="cls-1" d="M96.1,12.96c-.55-.95-1.94-.69-2.86-.68-1.31.02-2.63.05-3.94.11-.79.04-1.64-.07-2.25-.57-.92-.76-.72-1.95-.72-3,0-.69.11-1.49-.1-2.16-.28-.88-1.45-1.12-2.23-1.4-1.27-.46-2.56-.87-3.86-1.26-4.19-1.25-8.49-2.21-12.82-2.79-2.26-.3-4.53-.51-6.8-.58,0,0-20.55-2.5-43.06,2.49-.82.18-1.66.45-2.44.75-.84.33-1.98.61-2.51,1.41-.26.39-.34.87-.38,1.34-.02.18-.03.36-.04.53-.02.52-.02,1.05,0,1.57.02.48.04.97-.17,1.4-.6,1.24-2.24.99-3.36.97-1.69-.02-3.39-.04-5.08-.06-.49,0-1.02,0-1.43.27-.51.34-.69,1-.71,1.61-.04,1.54.04,3.09.04,4.63,0,.67,0,1.17-.37,1.77-.13.22-.27.43-.42.63-.07.09-.13.18-.16.29-.02.07-.02.15-.02.23,0,1.91,0,3.82,0,5.73,0,.94,0,1.87,0,2.81,0,.42-.06.89,0,1.3.06.39.3.67.44,1.03.33.84.1,2.1.1,3.02v8.62c0,3.8,0,7.61.03,11.41,0,.39,0,.78-.06,1.17-.13.77-.86,1.62-.86,2.38v4.01c0,1.91-.15,3.88,0,5.78.05.62.32,1.19.41,1.8.1.73.13,1.47.14,2.21,0,1.49-.11,2.97-.13,4.46,0,.32,0,.65.1.96.22.7.85,1.12,1.39,1.55.62.5,1.2,1.01,1.87,1.46,1.53,1.02,3.17,1.85,4.85,2.59,4.9,2.16,10.19,3.38,15.47,4.17.17.02.35.08.52.08,0,0,4.92.95,11.59.29,0,0,1.12-.04,1.56-.75,0,0,.86-1.45,2.32-1.41h7.17c3.08,0,6.16,0,9.24,0,.68,0,1.23.2,1.68.76.26.31.44.69.76.93.69.5,2,.51,2.82.61,2.54.31,5.13.34,7.68.27.14,0,.29,0,.43-.01.23-.01.46-.04.69-.06.65-.06,1.29-.14,1.93-.23.98-.13,1.95-.29,2.92-.47,1.23-.23,2.46-.49,3.67-.79,1.4-.35,2.8-.74,4.17-1.19,1.5-.49,2.98-1.03,4.43-1.65,1.52-.65,3-1.38,4.44-2.2,1.4-.8,2.71-1.72,4.02-2.67.04-.03.09-.06.11-.11.03-.05.03-.12.03-.18-.01-1.98,0-3.96,0-5.94V23.02c0-2.86-.06-5.73.02-8.59.02-.51-.02-1.04-.28-1.48ZM6.4,20.13c-1.04,0-1.89-.85-1.89-1.9s.85-1.9,1.89-1.9,1.89.85,1.89,1.9-.85,1.9-1.89,1.9ZM15.8,70.16c0-1.04.85-1.9,1.89-1.9s1.89.85,1.89,1.9-.85,1.9-1.89,1.9-1.89-.85-1.89-1.9ZM20.36,80.9c-1.54,0-2.8-1.26-2.8-2.8s1.26-2.8,2.8-2.8,2.8,1.26,2.8,2.8-1.26,2.8-2.8,2.8ZM76.92,81.11c-1.54,0-2.8-1.26-2.8-2.8s1.26-2.8,2.8-2.8,2.8,1.26,2.8,2.8-1.26,2.8-2.8,2.8ZM80.91,73.01h-1.75c-1.01,0-1.84-.88-1.84-1.96s.82-1.96,1.84-1.96h1.75c1.01,0,1.84.88,1.84,1.96s-.82,1.96-1.84,1.96ZM91.56,20.13c-1.04,0-1.89-.85-1.89-1.9s.85-1.9,1.89-1.9,1.89.85,1.89,1.9-.85,1.9-1.89,1.9Z"/>
</svg>