G04*
G04 #@! TF.GenerationSoftware,Altium Limited,Altium Designer,24.6.1 (21)*
G04*
G04 Layer_Physical_Order=2*
G04 Layer_Color=6736896*
%FSLAX44Y44*%
%MOMM*%
G71*
G04*
G04 #@! TF.SameCoordinates,46D9000B-954F-446C-B998-76B77EA3697B*
G04*
G04*
G04 #@! TF.FilePolarity,Positive*
G04*
G01*
G75*
%ADD17C,0.1500*%
%ADD68C,1.5240*%
%ADD69C,0.3500*%
%ADD70C,0.4500*%
%ADD71C,0.4000*%
G36*
X166401Y270186D02*
X197581Y269160D01*
X198812Y268983D01*
X198876Y268957D01*
X200111Y269007D01*
X202637Y268785D01*
X202948Y268152D01*
X203041Y267475D01*
X181635Y246068D01*
X180137Y246366D01*
X180089Y246481D01*
X179245Y247325D01*
X178143Y247782D01*
X176949D01*
X175847Y247325D01*
X175003Y246481D01*
X174546Y245379D01*
Y244185D01*
X174594Y244070D01*
X174500Y243702D01*
X173785Y242704D01*
X173588Y242665D01*
X173009Y242278D01*
X149062Y218331D01*
X148675Y217752D01*
X148540Y217069D01*
Y213967D01*
X142307Y207734D01*
X95366D01*
X94684Y207598D01*
X94105Y207212D01*
X78098Y191205D01*
X77712Y190626D01*
X77576Y189944D01*
Y155324D01*
X76817Y154565D01*
X76360Y153462D01*
Y152269D01*
X76817Y151166D01*
X77661Y150322D01*
X78763Y149866D01*
X79957D01*
X81059Y150322D01*
X81903Y151166D01*
X82360Y152269D01*
Y153462D01*
X81903Y154565D01*
X81144Y155324D01*
Y189205D01*
X84466Y192527D01*
X85640Y192041D01*
Y161240D01*
X85775Y160557D01*
X86162Y159978D01*
X92247Y153893D01*
Y150013D01*
X90977Y149164D01*
X90862Y149212D01*
X89669D01*
X88566Y148755D01*
X87722Y147911D01*
X87306Y146906D01*
X86816Y146672D01*
X85996Y146421D01*
X85701Y146715D01*
X84507Y147210D01*
X83214D01*
X82019Y146715D01*
X81105Y145801D01*
X80610Y144607D01*
Y143314D01*
X81105Y142119D01*
X82019Y141205D01*
X83214Y140710D01*
X84507D01*
X85701Y141205D01*
X86615Y142119D01*
X87110Y143314D01*
Y143329D01*
X88380Y143855D01*
X88566Y143669D01*
X89669Y143212D01*
X89945D01*
X90548Y141942D01*
X90186Y141500D01*
X89369D01*
X88175Y141005D01*
X87260Y140091D01*
X86766Y138896D01*
Y137604D01*
X86822Y137468D01*
X85973Y136198D01*
X74350D01*
X69054Y141494D01*
X68475Y141880D01*
X67793Y142016D01*
X38612D01*
X25249Y155379D01*
Y156584D01*
X25113Y157267D01*
X24726Y157846D01*
X24119Y158453D01*
X24380Y159084D01*
Y160377D01*
X23885Y161572D01*
X22971Y162486D01*
X22656Y162616D01*
X22358Y164114D01*
X66009Y207766D01*
X70127D01*
X72438Y205455D01*
Y204381D01*
X72895Y203279D01*
X73739Y202435D01*
X74841Y201978D01*
X76035D01*
X77137Y202435D01*
X77981Y203279D01*
X78438Y204381D01*
Y205575D01*
X77981Y206677D01*
X77137Y207521D01*
X76035Y207978D01*
X74961D01*
X72128Y210812D01*
X71549Y211199D01*
X70866Y211334D01*
X65270D01*
X64587Y211199D01*
X64008Y210812D01*
X29666Y176469D01*
X28396Y176924D01*
X27901Y178119D01*
X26987Y179033D01*
X25793Y179528D01*
X24499D01*
X23353Y179053D01*
X22905Y179261D01*
X22583Y179444D01*
X22225Y179749D01*
Y180940D01*
X21730Y182135D01*
X20816Y183049D01*
X19621Y183544D01*
X18328D01*
X17134Y183049D01*
X16220Y182135D01*
X15725Y180940D01*
Y179647D01*
X16220Y178453D01*
X17134Y177539D01*
X18328Y177044D01*
X19621D01*
X20768Y177519D01*
X21216Y177311D01*
X21538Y177128D01*
X21896Y176823D01*
Y175631D01*
X22391Y174437D01*
X23305Y173522D01*
X24499Y173028D01*
X24954Y171758D01*
X15852Y162656D01*
X15466Y162077D01*
X15330Y161394D01*
Y129339D01*
X9380Y123390D01*
X7879Y123685D01*
X7658Y124214D01*
X7786Y124408D01*
X8379Y125002D01*
X8874Y126196D01*
Y127489D01*
X8379Y128684D01*
X7465Y129598D01*
X6270Y130093D01*
X4978D01*
X3783Y129598D01*
X2869Y128684D01*
X2809Y128541D01*
X1539Y128793D01*
X1540Y149569D01*
X1532Y149607D01*
X1539Y149646D01*
X1193Y160086D01*
X1096Y160502D01*
X1008Y160919D01*
X-249Y163861D01*
X-198Y163939D01*
X-198D01*
X-373Y164362D01*
Y197482D01*
X-240Y198697D01*
X-198Y198799D01*
X-42Y199560D01*
X174Y200002D01*
X176Y200005D01*
X213Y200094D01*
X796Y201122D01*
X1441Y202090D01*
X1608Y202496D01*
X1780Y202900D01*
X3013Y208797D01*
X3015Y209045D01*
X3062Y209290D01*
X2932Y224332D01*
X3007Y225330D01*
X3097Y225547D01*
X3092Y225558D01*
X3507Y226656D01*
X5126Y230327D01*
X9300Y231115D01*
X9444Y230994D01*
X9459Y230988D01*
X9672Y231077D01*
X10885Y231147D01*
X27432Y230951D01*
X27439Y230952D01*
X27447Y230951D01*
X27471D01*
X27473Y230951D01*
X27475Y230951D01*
X33736Y230993D01*
X33933Y231033D01*
X34135Y231030D01*
X34371Y231124D01*
X34620Y231175D01*
X34787Y231288D01*
X34975Y231362D01*
X39424Y234231D01*
X39502Y234306D01*
X39597Y234354D01*
X39824Y234618D01*
X40073Y234859D01*
X40116Y234958D01*
X40186Y235039D01*
X40294Y235369D01*
X40432Y235688D01*
X40434Y235795D01*
X40468Y235897D01*
X40989Y240189D01*
X40978Y240330D01*
X41006Y240468D01*
Y244620D01*
X41020Y244750D01*
X41181Y245954D01*
X41181D01*
X41129Y246930D01*
X41287Y247745D01*
X41287Y247745D01*
X41506Y248948D01*
X42288Y251706D01*
X42312Y251716D01*
X42440Y252025D01*
X44914Y253939D01*
X45164Y254122D01*
X46201Y254778D01*
X47281Y255275D01*
X49535Y256144D01*
X49623Y256177D01*
X50665Y256497D01*
X50675Y256492D01*
X50675Y256492D01*
X50748Y256522D01*
X51843Y256943D01*
X51862Y256949D01*
X57951Y258820D01*
X59158Y259083D01*
X59159Y259083D01*
X60102Y259319D01*
X60522Y259411D01*
X61645Y259583D01*
X115256Y267825D01*
X116520Y267870D01*
D01*
X117725Y268064D01*
X117891Y268086D01*
X163947Y270170D01*
X163954Y270171D01*
X164333Y270138D01*
X165167Y270052D01*
X166003Y270149D01*
X166395Y270186D01*
X166401Y270186D01*
D02*
G37*
G36*
X228276Y256040D02*
X228855Y255653D01*
X229538Y255518D01*
X240299D01*
X240323Y255461D01*
X241237Y254547D01*
X242432Y254052D01*
X243724D01*
X244919Y254547D01*
X245833Y255461D01*
X245964Y255776D01*
X247462Y256074D01*
X248914Y254622D01*
Y215540D01*
X247644Y214813D01*
X247027Y215068D01*
X245734D01*
X244539Y214573D01*
X244365Y214400D01*
X243095Y214925D01*
Y215345D01*
X242600Y216540D01*
X241686Y217454D01*
X240492Y217949D01*
X239199D01*
X238004Y217454D01*
X237090Y216540D01*
X236595Y215346D01*
X235406Y215541D01*
X235406Y216149D01*
X234911Y217343D01*
X233997Y218257D01*
X233368Y219892D01*
X233413Y219999D01*
Y221292D01*
X232918Y222486D01*
X232004Y223400D01*
X230809Y223895D01*
X229516D01*
X228322Y223400D01*
X227407Y222486D01*
X226913Y221292D01*
Y219999D01*
X227407Y218804D01*
X228322Y217890D01*
X228950Y216255D01*
X228906Y216149D01*
Y214856D01*
X229401Y213661D01*
X230310Y212752D01*
X230309Y212650D01*
X230258Y211795D01*
X230145Y211443D01*
X229045Y210987D01*
X228131Y210073D01*
X227636Y208879D01*
Y207586D01*
X228131Y206391D01*
X229045Y205477D01*
X230240Y204982D01*
X231532D01*
X232727Y205477D01*
X233641Y206391D01*
X234136Y207586D01*
Y208879D01*
X233641Y210073D01*
X232732Y210982D01*
X232733Y211085D01*
X232784Y211940D01*
X232897Y212292D01*
X233997Y212747D01*
X234911Y213661D01*
X235406Y214856D01*
X236595Y214660D01*
X236595Y214053D01*
X237090Y212858D01*
X238004Y211944D01*
X239199Y211449D01*
X240492D01*
X241686Y211944D01*
X241860Y212118D01*
X243130Y211592D01*
Y211172D01*
X243625Y209977D01*
X244539Y209063D01*
X245734Y208568D01*
X247027D01*
X247644Y208824D01*
X248914Y208096D01*
Y202280D01*
X248176Y201787D01*
X246884D01*
X245689Y201292D01*
X244775Y200378D01*
X243635Y200772D01*
X242440Y201267D01*
X241147D01*
X239515Y201965D01*
X239483Y202041D01*
X238569Y202955D01*
X237374Y203450D01*
X236082D01*
X234887Y202955D01*
X233973Y202041D01*
X233478Y200847D01*
X232265Y200934D01*
X230973D01*
X229778Y200439D01*
X228864Y199525D01*
X228369Y198331D01*
Y197038D01*
X228864Y195843D01*
X229778Y194929D01*
X230973Y194434D01*
X232265D01*
X233460Y194929D01*
X234374Y195843D01*
X234869Y197038D01*
X236082Y196950D01*
X237374D01*
X239007Y196252D01*
X239039Y196176D01*
X239953Y195262D01*
X241147Y194767D01*
X242440D01*
X243635Y195262D01*
X244549Y196176D01*
X245689Y195782D01*
X246884Y195287D01*
X248177D01*
X249371Y195782D01*
X250285Y196696D01*
X251589Y196672D01*
X252244Y196119D01*
Y192432D01*
X251700Y191686D01*
X251235Y191493D01*
X250505Y191191D01*
X249591Y190277D01*
X249096Y189082D01*
Y187789D01*
X249591Y186595D01*
X250505Y185680D01*
X250900Y184142D01*
X250750Y183780D01*
Y182488D01*
X251245Y181293D01*
X252159Y180379D01*
X253354Y179884D01*
X254646D01*
X255841Y180379D01*
X256755Y181293D01*
X257250Y182488D01*
Y183780D01*
X256755Y184975D01*
X255969Y185762D01*
X255993Y186149D01*
X256471Y186435D01*
X257485Y186453D01*
X263834Y180104D01*
Y156013D01*
X262785Y155313D01*
X261492D01*
X260298Y154818D01*
X259384Y153904D01*
X258889Y152709D01*
Y151521D01*
X258822Y151476D01*
X257529D01*
X256334Y150982D01*
X255420Y150067D01*
X254925Y148873D01*
Y147580D01*
X255420Y146385D01*
X256334Y145471D01*
X257529Y144976D01*
X258822D01*
X260016Y145471D01*
X260931Y146385D01*
X261425Y147580D01*
Y148768D01*
X261492Y148813D01*
X262785D01*
X263302Y148468D01*
Y144558D01*
X263437Y143876D01*
X263824Y143297D01*
X268571Y138550D01*
X268175Y137366D01*
X268108Y137280D01*
X266667D01*
X262735Y141212D01*
X262157Y141598D01*
X261474Y141734D01*
X249949D01*
X249402Y142281D01*
X248480Y142663D01*
X248374Y142987D01*
X248317Y143970D01*
X248759Y144153D01*
X249673Y145067D01*
X250168Y146262D01*
Y147555D01*
X249673Y148749D01*
X248759Y149663D01*
X247564Y150158D01*
X246271D01*
X245956Y150027D01*
X244686Y150876D01*
Y152754D01*
X244550Y153437D01*
X244164Y154016D01*
X233088Y165092D01*
X232509Y165478D01*
X231826Y165614D01*
X219580D01*
X219328Y166884D01*
X220027Y167174D01*
X220941Y168088D01*
X221436Y169283D01*
Y170576D01*
X220941Y171770D01*
X220027Y172684D01*
X218832Y173179D01*
X217540D01*
X216345Y172684D01*
X215832Y172171D01*
X214524Y171924D01*
X214213Y172208D01*
X213817Y173396D01*
X213944Y173703D01*
Y174996D01*
X213450Y176191D01*
X212535Y177105D01*
X211341Y177600D01*
X210048D01*
X208854Y177105D01*
X207939Y176191D01*
X207444Y174996D01*
Y173703D01*
X207939Y172509D01*
X208853Y171595D01*
X209357Y170084D01*
X209230Y169777D01*
Y168484D01*
X209724Y167290D01*
X210130Y166884D01*
X209604Y165614D01*
X206560D01*
X205779Y166884D01*
X205997Y167411D01*
Y168703D01*
X205503Y169898D01*
X204588Y170812D01*
X203394Y171307D01*
X202101D01*
X200906Y170812D01*
X199992Y169898D01*
X199497Y168703D01*
Y167411D01*
X199715Y166884D01*
X198935Y165614D01*
X196980D01*
X196199Y166884D01*
X196418Y167411D01*
Y168703D01*
X195923Y169898D01*
X195009Y170812D01*
X193814Y171307D01*
X192521D01*
X191327Y170812D01*
X191080Y170565D01*
X189513Y170336D01*
X188318Y170830D01*
X187026D01*
X185831Y170336D01*
X185806Y170311D01*
X184932Y169898D01*
X184017Y170812D01*
X182823Y171307D01*
X181530D01*
X180336Y170812D01*
X179974Y170451D01*
X179315Y169951D01*
X178315Y170451D01*
X178117Y170649D01*
X176922Y171144D01*
X175630D01*
X174435Y170649D01*
X173906Y170754D01*
X173697Y171259D01*
X172783Y172173D01*
X171588Y172668D01*
X170296D01*
X169101Y172173D01*
X168187Y171259D01*
X167946Y170677D01*
X167500Y170588D01*
X166305Y171083D01*
X165012D01*
X163818Y170588D01*
X162904Y169674D01*
X162409Y168479D01*
Y167187D01*
X162750Y166362D01*
X162144Y165092D01*
X159757D01*
X158908Y166362D01*
X158956Y166477D01*
Y167671D01*
X158499Y168773D01*
X158002Y169271D01*
X158088Y170576D01*
X158171Y170761D01*
X158939Y171529D01*
X159396Y172631D01*
Y173825D01*
X158939Y174927D01*
X158095Y175771D01*
X156993Y176228D01*
X155799D01*
X154697Y175771D01*
X153853Y174927D01*
X153396Y173825D01*
Y172631D01*
X153853Y171529D01*
X154350Y171031D01*
X154264Y169726D01*
X154181Y169541D01*
X153413Y168773D01*
X152956Y167671D01*
Y166477D01*
X153004Y166362D01*
X152155Y165092D01*
X147264D01*
X146581Y164957D01*
X146002Y164570D01*
X141388Y159955D01*
X140214Y160441D01*
Y163768D01*
X147546Y171100D01*
X147933Y171679D01*
X148069Y172361D01*
X160924Y185216D01*
X160983Y185305D01*
X161450Y185805D01*
X162625Y185894D01*
X163032Y185726D01*
X164324D01*
X165519Y186221D01*
X166233Y186935D01*
X166970D01*
X167980Y187354D01*
X168754Y188127D01*
X169158Y189103D01*
X169735D01*
X170746Y189522D01*
X171519Y190295D01*
X171938Y191306D01*
Y192400D01*
X171519Y193411D01*
X170746Y194184D01*
X169735Y194603D01*
X168641D01*
X167630Y194184D01*
X166857Y193411D01*
X166453Y192435D01*
X165876D01*
X164865Y192017D01*
X164855Y192006D01*
X164324Y192226D01*
X163032D01*
X162716Y192095D01*
X161446Y192944D01*
Y203822D01*
X179084Y221460D01*
X179471Y222039D01*
X179607Y222722D01*
Y226268D01*
X190362Y237024D01*
X191861Y236726D01*
X191919Y236585D01*
X192763Y235741D01*
X193866Y235284D01*
X195059D01*
X196162Y235741D01*
X197006Y236585D01*
X197462Y237687D01*
Y238881D01*
X197006Y239983D01*
X196162Y240827D01*
X196021Y240886D01*
X195723Y242384D01*
X209143Y255804D01*
X209597Y255616D01*
X210889D01*
X212084Y256111D01*
X212998Y257025D01*
X213493Y258220D01*
Y259512D01*
X213433Y259657D01*
X214282Y260927D01*
X223389D01*
X228276Y256040D01*
D02*
G37*
G36*
X279492Y256383D02*
X279622Y256346D01*
X280805Y255994D01*
D01*
X282025Y255695D01*
X293194Y252050D01*
X293249Y252032D01*
X294335Y251590D01*
X294335Y251590D01*
X294373Y251574D01*
X295546Y251237D01*
X296745Y250800D01*
X298459Y250175D01*
X298475Y250104D01*
Y250104D01*
X298683Y250017D01*
X299466Y249362D01*
X301584Y247250D01*
X301598Y247217D01*
X301875Y241250D01*
X301876Y241210D01*
X301756Y240037D01*
X301905Y239084D01*
X301943Y238804D01*
X301955Y237503D01*
X301982Y234625D01*
X301998Y234548D01*
X301989Y234470D01*
X302090Y234109D01*
X302167Y233741D01*
X302211Y233676D01*
X302232Y233601D01*
X304334Y229452D01*
X304384Y229389D01*
X304410Y229314D01*
X304661Y229036D01*
X304892Y228742D01*
X304961Y228703D01*
X305015Y228643D01*
X305353Y228482D01*
X305679Y228299D01*
X305758Y228289D01*
X305830Y228255D01*
X313071Y226421D01*
X313389Y226404D01*
X313704Y226351D01*
X326263Y226701D01*
X327472Y226566D01*
X328192Y226677D01*
X328696Y226751D01*
X330010Y226768D01*
X332604Y226800D01*
X333014Y226631D01*
X333030Y226637D01*
X333045Y226646D01*
X336648Y224693D01*
X337422Y220320D01*
X337292Y220165D01*
Y220165D01*
X337290Y220163D01*
X337374Y219961D01*
X337463Y218740D01*
X337395Y189733D01*
X337395Y189731D01*
X337395Y189730D01*
X337396Y15497D01*
Y-4405D01*
X337329Y-5332D01*
X337299Y-5357D01*
X337133Y-5629D01*
X336307Y-6408D01*
X324179Y-14463D01*
X324128Y-14492D01*
X323067Y-15077D01*
X323067Y-15077D01*
X321996Y-15714D01*
X320966Y-16224D01*
X308731Y-22287D01*
X307579Y-22771D01*
X307471Y-22816D01*
X306329Y-23325D01*
X294292Y-27809D01*
X293102Y-28252D01*
X291968Y-28582D01*
X291052Y-28916D01*
X290773Y-29017D01*
X278437Y-32537D01*
X277267Y-32769D01*
X277266Y-32768D01*
X276353Y-33045D01*
X276048Y-33135D01*
X274806Y-33402D01*
X265567Y-35391D01*
X264324Y-35543D01*
X264323Y-35543D01*
X263385Y-35785D01*
X263090Y-35858D01*
X255238Y-37122D01*
X255222Y-37124D01*
X255016Y-37138D01*
X254019Y-37191D01*
X253974Y-37210D01*
X253472Y-37263D01*
X253471D01*
X252735Y-37338D01*
X247055D01*
Y-19738D01*
X246738Y-18973D01*
X245973Y-18656D01*
X233472D01*
X232707Y-18973D01*
X232390Y-19738D01*
Y-37338D01*
X216381D01*
X216186Y-37257D01*
X216183Y-37256D01*
X214951Y-37133D01*
X206918Y-35396D01*
X206685Y-35299D01*
X204458Y-32574D01*
X204396Y-32523D01*
X204354Y-32455D01*
X204050Y-32237D01*
X203761Y-31999D01*
X203685Y-31976D01*
X203619Y-31929D01*
X198188Y-29473D01*
X198152Y-29464D01*
X198120Y-29443D01*
X197713Y-29362D01*
X197309Y-29268D01*
X197272Y-29274D01*
X197235Y-29267D01*
X139619D01*
X139186Y-29353D01*
X138751Y-29436D01*
X133220Y-31671D01*
X133133Y-31728D01*
X133033Y-31756D01*
X132758Y-31974D01*
X132465Y-32166D01*
X132407Y-32252D01*
X132325Y-32317D01*
X131327Y-33490D01*
X130506Y-34354D01*
X130290Y-34444D01*
X130251Y-34539D01*
X130246Y-34625D01*
X129534Y-35142D01*
X128233Y-36026D01*
X127702Y-36322D01*
X126768Y-36651D01*
X126764Y-36652D01*
X126384Y-36734D01*
X125614Y-36749D01*
X124620Y-36899D01*
X124199Y-36937D01*
X108452Y-37131D01*
X107549Y-36239D01*
Y-19738D01*
X107232Y-18973D01*
X106466Y-18655D01*
X93966D01*
X93200Y-18973D01*
X92883Y-19738D01*
Y-35919D01*
X91934Y-36763D01*
X85949Y-36049D01*
X85906Y-36044D01*
X85898Y-36043D01*
X84703Y-35774D01*
Y-35774D01*
X83477Y-35683D01*
X83375Y-35670D01*
X82895Y-35505D01*
X82895Y-35504D01*
X81653Y-35375D01*
X56376Y-30333D01*
X56227Y-30294D01*
X55039Y-29960D01*
Y-29960D01*
X53836Y-29648D01*
X29447Y-21300D01*
X28479Y-20956D01*
X28449Y-20881D01*
X28282Y-20811D01*
X27171Y-20297D01*
X12484Y-12455D01*
X11453Y-11782D01*
X11267Y-11705D01*
X10263Y-11011D01*
X5886Y-7594D01*
X4998Y-6734D01*
X4971Y-6669D01*
X4880Y-6631D01*
X4084Y-5939D01*
X4046Y-5897D01*
X247Y-1661D01*
X177Y-1493D01*
X-0Y210D01*
X50Y1361D01*
X-1Y1483D01*
Y1483D01*
X-99Y1574D01*
X-95Y2402D01*
X333Y17073D01*
X315Y17180D01*
X329Y17287D01*
X-157Y24956D01*
X-205Y25136D01*
X-210Y25323D01*
X-1310Y30152D01*
X-1438Y31368D01*
X-1544Y31622D01*
X-1614Y32824D01*
Y64494D01*
X-1597Y65669D01*
X-1438Y66052D01*
X-1423Y66066D01*
X-512Y66888D01*
X159Y67038D01*
X281Y66915D01*
X1475Y66421D01*
X2768D01*
X3963Y66915D01*
X4877Y67830D01*
X4955Y68019D01*
X6453Y68317D01*
X7895Y66875D01*
Y64517D01*
X6678Y63301D01*
X6292Y62722D01*
X6156Y62039D01*
Y61086D01*
X5525Y60825D01*
X4611Y59911D01*
X4116Y58716D01*
Y57424D01*
X4611Y56229D01*
X5525Y55315D01*
X6719Y54820D01*
X8012D01*
X9207Y55315D01*
X10121Y56229D01*
X10616Y57424D01*
Y58716D01*
X10121Y59911D01*
X9724Y60308D01*
Y61300D01*
X10941Y62517D01*
X11328Y63096D01*
X11464Y63778D01*
Y67614D01*
X11328Y68297D01*
X11201Y68488D01*
X11714Y69237D01*
X12045Y69510D01*
X12601Y69400D01*
X20086D01*
X20769Y69536D01*
X21348Y69922D01*
X23021Y71595D01*
X29767D01*
X30450Y71731D01*
X31029Y72118D01*
X42750Y83839D01*
X42807Y83816D01*
X44100D01*
X45294Y84310D01*
X46209Y85225D01*
X46703Y86419D01*
Y87712D01*
X46209Y88907D01*
X45294Y89821D01*
X44100Y90316D01*
X42807D01*
X42171Y90052D01*
X40807Y90025D01*
X39893Y90939D01*
X38699Y91434D01*
X37406D01*
X36275Y92140D01*
X35940Y92949D01*
X35026Y93863D01*
X33832Y94358D01*
X32539D01*
X31344Y93863D01*
X30430Y92949D01*
X29567Y93393D01*
X29527Y93433D01*
X28333Y93928D01*
X27039D01*
X25845Y93433D01*
X24931Y92519D01*
X24436Y91325D01*
Y90031D01*
X24931Y88837D01*
X25845Y87923D01*
X27039Y87428D01*
X28333D01*
X29527Y87923D01*
X30441Y88837D01*
X31304Y88393D01*
X31344Y88353D01*
X32539Y87858D01*
X33832D01*
X34962Y87152D01*
X35297Y86343D01*
X36211Y85428D01*
X37120Y85052D01*
X37484Y84121D01*
X37528Y83664D01*
X29028Y75164D01*
X22282D01*
X21599Y75028D01*
X21020Y74641D01*
X19347Y72968D01*
X13340D01*
X12844Y73464D01*
Y74026D01*
X12349Y75220D01*
X11435Y76135D01*
X10240Y76629D01*
X8947D01*
X8632Y76499D01*
X7362Y77347D01*
Y115904D01*
X7809Y116214D01*
X9078Y115548D01*
Y115018D01*
X9535Y113915D01*
X10379Y113071D01*
X11481Y112614D01*
X12675D01*
X13777Y113071D01*
X14621Y113915D01*
X15078Y115018D01*
Y116211D01*
X14621Y117314D01*
X13777Y118158D01*
X12675Y118614D01*
X11481D01*
X11423Y118590D01*
X10704Y119667D01*
X18376Y127339D01*
X18763Y127917D01*
X18898Y128600D01*
Y155763D01*
X20168Y156611D01*
X20484Y156481D01*
X21045D01*
X21680Y155845D01*
Y154640D01*
X21816Y153958D01*
X22203Y153379D01*
X36611Y138970D01*
X37190Y138583D01*
X37873Y138448D01*
X54982D01*
X55830Y137178D01*
X55700Y136862D01*
Y136702D01*
X54818Y135693D01*
X53525D01*
X52330Y135198D01*
X51416Y134284D01*
X50921Y133089D01*
Y131796D01*
X51416Y130602D01*
X52330Y129687D01*
X53525Y129193D01*
X54818D01*
X56012Y129687D01*
X56926Y130602D01*
X57421Y131796D01*
Y131957D01*
X58303Y132966D01*
X59596D01*
X60791Y133461D01*
X61705Y134375D01*
X62200Y135569D01*
Y136733D01*
X62445Y137137D01*
X63071Y137836D01*
X63189Y137826D01*
X63943Y136519D01*
X63732Y136010D01*
Y134717D01*
X64160Y133684D01*
X63893Y132985D01*
X63539Y132414D01*
X63364D01*
X62681Y132278D01*
X62102Y131891D01*
X59659Y129448D01*
X58585D01*
X57483Y128991D01*
X56639Y128147D01*
X56182Y127045D01*
Y125851D01*
X56639Y124749D01*
X57483Y123905D01*
X58585Y123448D01*
X59779D01*
X60881Y123905D01*
X61725Y124749D01*
X62182Y125851D01*
Y126925D01*
X64103Y128846D01*
X74438D01*
X75197Y128087D01*
X76300Y127630D01*
X77493D01*
X78596Y128087D01*
X79440Y128930D01*
X79896Y130033D01*
Y131227D01*
X79841Y131360D01*
X80690Y132630D01*
X87603D01*
X87669Y132585D01*
X88352Y132450D01*
X103439D01*
X115920Y119969D01*
Y119195D01*
X116339Y118184D01*
X117112Y117411D01*
X117325Y115948D01*
X116848Y115472D01*
X116461Y114893D01*
X116326Y114210D01*
Y108854D01*
X115056Y108328D01*
X105624Y117760D01*
Y122033D01*
X106383Y122792D01*
X106840Y123895D01*
Y125088D01*
X106383Y126191D01*
X105539Y127035D01*
X104437Y127492D01*
X103243D01*
X102141Y127035D01*
X101297Y126191D01*
X100840Y125088D01*
Y123895D01*
X101297Y122792D01*
X102056Y122033D01*
Y117946D01*
X100786Y117420D01*
X100759Y117447D01*
X99657Y117903D01*
X98463D01*
X97361Y117447D01*
X96517Y116603D01*
X96060Y115500D01*
Y114307D01*
X96517Y113204D01*
X97361Y112360D01*
X97365Y112358D01*
X97509Y111635D01*
X97015Y110440D01*
Y109147D01*
X97509Y107953D01*
X98424Y107038D01*
X99618Y106544D01*
X100911D01*
X102105Y107038D01*
X103020Y107953D01*
X103514Y109147D01*
Y110440D01*
X103020Y111635D01*
X102425Y112229D01*
X102097Y112618D01*
X101931Y113996D01*
X102060Y114307D01*
Y114481D01*
X103330Y115007D01*
X108232Y110105D01*
X107631Y108910D01*
X106759D01*
X105564Y108415D01*
X104650Y107501D01*
X104156Y106306D01*
Y105014D01*
X104650Y103819D01*
X105564Y102905D01*
X106759Y102410D01*
X108052D01*
X109246Y102905D01*
X110161Y103819D01*
X110655Y105014D01*
Y105609D01*
X111804Y106180D01*
X112599Y105558D01*
Y95498D01*
X112735Y94816D01*
X113122Y94237D01*
X118505Y88854D01*
X118019Y87680D01*
X116258D01*
X115575Y87544D01*
X114996Y87158D01*
X108743Y80905D01*
X108674Y80933D01*
X107382D01*
X106187Y80438D01*
X105273Y79524D01*
X104030Y79843D01*
X103227Y80176D01*
X101934D01*
X100739Y79681D01*
X99825Y78767D01*
X99331Y77572D01*
Y76280D01*
X99825Y75085D01*
X100739Y74171D01*
X101934Y73676D01*
X102836D01*
X103549Y73133D01*
X103881Y72572D01*
Y71587D01*
X104375Y70392D01*
X105290Y69478D01*
X106484Y68983D01*
X107777D01*
X108650Y69345D01*
X109370Y68268D01*
X87130Y46029D01*
X86743Y45450D01*
X86608Y44767D01*
Y37150D01*
X85338Y36357D01*
X84925Y36528D01*
X83731D01*
X82629Y36071D01*
X81785Y35227D01*
X81328Y34125D01*
Y32931D01*
X81785Y31829D01*
X82629Y30985D01*
X83731Y30528D01*
X84925D01*
X85338Y30699D01*
X86608Y29906D01*
Y2198D01*
X86145Y2007D01*
X85231Y1092D01*
X84736Y-102D01*
Y-1395D01*
X85231Y-2590D01*
X86145Y-3504D01*
X87340Y-3999D01*
X88633D01*
X89827Y-3504D01*
X90178Y-3153D01*
X91665Y-3426D01*
X91733Y-3588D01*
X92647Y-4502D01*
X93841Y-4997D01*
X95134D01*
X96329Y-4502D01*
X97243Y-3588D01*
X97738Y-2394D01*
Y-1101D01*
X97243Y94D01*
X96329Y1008D01*
X95134Y1503D01*
X93841D01*
X92647Y1008D01*
X92296Y658D01*
X90809Y930D01*
X90742Y1092D01*
X90176Y1658D01*
Y44028D01*
X119588Y73440D01*
X121086Y73142D01*
X121127Y73043D01*
X121210Y72959D01*
X121403Y71356D01*
X120908Y70161D01*
Y68868D01*
X121403Y67674D01*
X122142Y66935D01*
X122219Y65530D01*
X112376Y55687D01*
X111543Y55605D01*
X111479Y55669D01*
X110285Y56163D01*
X108992D01*
X107797Y55669D01*
X106883Y54754D01*
X106388Y53560D01*
Y52267D01*
X106883Y51072D01*
X107797Y50158D01*
X108351Y49928D01*
X108709Y48490D01*
X104721Y44501D01*
X103279Y44856D01*
X103052Y45405D01*
X102138Y46319D01*
X100944Y46814D01*
X99651D01*
X98456Y46319D01*
X97542Y45405D01*
X97047Y44210D01*
Y42917D01*
X97542Y41723D01*
X98456Y40809D01*
X99041Y40566D01*
X99667Y39471D01*
X99675Y39044D01*
X97617Y36985D01*
X97230Y36406D01*
X97094Y35724D01*
Y26250D01*
X97230Y25568D01*
X97617Y24989D01*
X104250Y18355D01*
X104829Y17968D01*
X105512Y17833D01*
X130840D01*
X131523Y17968D01*
X132102Y18355D01*
X133281Y19535D01*
X133465Y19459D01*
X134759D01*
X135953Y19953D01*
X136867Y20868D01*
X137362Y22062D01*
Y23355D01*
X136867Y24550D01*
X135953Y25464D01*
X134759Y25959D01*
X133465D01*
X132271Y25464D01*
X131357Y24550D01*
X130862Y23355D01*
Y22162D01*
X130101Y21401D01*
X127329D01*
X126481Y22671D01*
X126611Y22986D01*
Y24279D01*
X126116Y25474D01*
X125202Y26388D01*
X124008Y26883D01*
X122715D01*
X121520Y26388D01*
X120408Y27072D01*
X120344Y27227D01*
X119429Y28142D01*
X118235Y28636D01*
X116942D01*
X115747Y28142D01*
X114833Y27227D01*
X114338Y26033D01*
Y24740D01*
X114833Y23545D01*
X115707Y22671D01*
X115698Y22456D01*
X115398Y21401D01*
X106747D01*
X106378Y21886D01*
X107007Y23156D01*
X107074D01*
X107757Y23292D01*
X108335Y23679D01*
X112896Y28239D01*
X113282Y28818D01*
X113418Y29501D01*
Y29608D01*
X116933Y33124D01*
X119665D01*
X120208Y32311D01*
Y31018D01*
X120702Y29824D01*
X121617Y28909D01*
X122811Y28415D01*
X124104D01*
X125038Y28801D01*
X126309Y29051D01*
X127223Y28137D01*
X128418Y27642D01*
X129711D01*
X130905Y28137D01*
X131819Y29051D01*
X132314Y30245D01*
Y30863D01*
X133144Y31863D01*
X133846Y31387D01*
Y30094D01*
X134341Y28900D01*
X135255Y27985D01*
X136449Y27491D01*
X137742D01*
X138937Y27985D01*
X139851Y28900D01*
X140346Y30094D01*
Y31387D01*
X140334Y31415D01*
X141067Y32599D01*
X142082Y32685D01*
X144508Y30258D01*
X145087Y29871D01*
X145770Y29736D01*
X189637D01*
X190123Y28562D01*
X187982Y26422D01*
X187596Y25843D01*
X187460Y25160D01*
Y23863D01*
X184751Y21154D01*
X184695Y21178D01*
X183402D01*
X182207Y20683D01*
X181293Y19769D01*
X180798Y18574D01*
Y17281D01*
X181293Y16087D01*
X182207Y15172D01*
X183402Y14678D01*
X184695D01*
X185651Y15074D01*
X186983Y15177D01*
X187897Y14263D01*
X189091Y13768D01*
X190385D01*
X191579Y14263D01*
X192493Y15177D01*
X192988Y16372D01*
Y17665D01*
X192493Y18859D01*
X191579Y19773D01*
X190613Y20173D01*
X190267Y21005D01*
X190182Y21538D01*
X190506Y21862D01*
X190893Y22441D01*
X191028Y23124D01*
Y24066D01*
X191487Y24521D01*
X191641Y24611D01*
X192838Y23906D01*
Y23445D01*
X193333Y22251D01*
X194247Y21337D01*
X195441Y20842D01*
X196735D01*
X197929Y21337D01*
X198843Y22251D01*
X199338Y23445D01*
Y24738D01*
X198843Y25933D01*
X198826Y25950D01*
X199352Y27220D01*
X218288D01*
X218971Y27355D01*
X219550Y27742D01*
X232094Y40286D01*
X232480Y40865D01*
X232616Y41548D01*
Y56022D01*
X233886Y56718D01*
X234557Y56440D01*
X235851D01*
X237045Y56935D01*
X237959Y57849D01*
X238454Y59043D01*
Y60336D01*
X237959Y61531D01*
X237228Y62263D01*
X237140Y63064D01*
X237244Y63738D01*
X237998Y64492D01*
X238493Y65686D01*
Y66979D01*
X238470Y67036D01*
X240515Y69082D01*
X244795D01*
X245134Y68568D01*
X245431Y67812D01*
X245052Y66897D01*
Y65703D01*
X245509Y64601D01*
X246353Y63757D01*
X247456Y63300D01*
X248649D01*
X249752Y63757D01*
X250596Y64601D01*
X251052Y65703D01*
Y66897D01*
X250673Y67812D01*
X250971Y68568D01*
X251309Y69082D01*
X264160D01*
X264843Y69218D01*
X265422Y69604D01*
X272209Y76392D01*
X272596Y76971D01*
X272732Y77654D01*
Y83636D01*
X272596Y84319D01*
X272209Y84898D01*
X267248Y89860D01*
X267161Y89918D01*
X266713Y90907D01*
X266754Y91524D01*
X267096Y92349D01*
Y93642D01*
X268054Y93897D01*
X268131D01*
X269326Y94391D01*
X270240Y95306D01*
X270735Y96500D01*
Y97793D01*
X270240Y98987D01*
X269326Y99902D01*
X268131Y100396D01*
X266838D01*
X265644Y99902D01*
X264694Y100091D01*
X264689Y100103D01*
X263774Y101018D01*
X262580Y101512D01*
X261287D01*
X260093Y101018D01*
X259178Y100103D01*
X258683Y98909D01*
Y97616D01*
X259178Y96421D01*
X260093Y95507D01*
X260099Y95504D01*
X260721Y93944D01*
X260596Y93642D01*
Y92349D01*
X260884Y91652D01*
X260203Y90382D01*
X255827D01*
X255144Y90246D01*
X254566Y89860D01*
X253810Y89104D01*
X247786D01*
X247066Y89956D01*
X247702Y90700D01*
X248995D01*
X250189Y91195D01*
X251104Y92109D01*
X251598Y93304D01*
Y94597D01*
X252272Y96142D01*
X252534Y96250D01*
X253448Y97165D01*
X253943Y98359D01*
Y98912D01*
X254762Y99838D01*
X255116Y99918D01*
X256126D01*
X257321Y100413D01*
X258235Y101327D01*
X258730Y102522D01*
Y103815D01*
X259235Y105081D01*
X260430Y105576D01*
X261344Y106490D01*
X261839Y107684D01*
Y108977D01*
X261344Y110172D01*
X261281Y110235D01*
X260720Y111084D01*
X261635Y111998D01*
X262129Y113193D01*
Y114486D01*
X261635Y115680D01*
X261056Y116711D01*
X261854Y117510D01*
X262349Y118704D01*
Y119997D01*
X261854Y121192D01*
X260940Y122106D01*
X259746Y122600D01*
X258453D01*
X257258Y122106D01*
X256344Y121192D01*
X256198Y120840D01*
X254700Y120542D01*
X244814Y130428D01*
Y137295D01*
X246084Y137821D01*
X246286Y137619D01*
X247297Y137200D01*
X248391D01*
X249402Y137619D01*
X249949Y138166D01*
X255277D01*
X255879Y136896D01*
X255535Y136064D01*
Y134771D01*
X256029Y133577D01*
X256944Y132663D01*
X258057Y132201D01*
X258159Y132131D01*
X258467Y131583D01*
X258586Y130846D01*
X258409Y130632D01*
X258295D01*
X257101Y130138D01*
X256187Y129223D01*
X255692Y128029D01*
Y126736D01*
X256187Y125542D01*
X257101Y124627D01*
X258295Y124132D01*
X259588D01*
X260783Y124627D01*
X261697Y125542D01*
X262192Y126736D01*
Y128029D01*
X262225Y128079D01*
X263442D01*
X264637Y128574D01*
X265551Y129488D01*
X266046Y130683D01*
Y131976D01*
X265837Y132479D01*
X266669Y133712D01*
X277049D01*
X277073Y133655D01*
X277987Y132741D01*
X279181Y132246D01*
X280474D01*
X280790Y132376D01*
X282060Y131528D01*
Y126665D01*
X282041Y126637D01*
X281906Y125955D01*
Y117486D01*
X280636Y116637D01*
X280320Y116768D01*
X279027D01*
X277833Y116273D01*
X277722Y116163D01*
X276002Y116086D01*
X274807Y116581D01*
X273515D01*
X272320Y116086D01*
X271406Y115172D01*
X270911Y113978D01*
Y112685D01*
X271406Y111490D01*
X272320Y110576D01*
X273515Y110081D01*
X274807D01*
X276002Y110576D01*
X276113Y110687D01*
X277833Y110763D01*
X279027Y110268D01*
X280320D01*
X280636Y110399D01*
X281906Y109550D01*
Y106626D01*
X280636Y106373D01*
X280377Y106997D01*
X279463Y107911D01*
X278269Y108406D01*
X276975D01*
X275781Y107911D01*
X274867Y106997D01*
X274372Y105802D01*
Y104509D01*
X274867Y103315D01*
X275781Y102401D01*
X276975Y101906D01*
X278269D01*
X279463Y102401D01*
X280377Y103315D01*
X280636Y103939D01*
X281906Y103686D01*
Y95959D01*
X281727Y95780D01*
X281401Y95293D01*
X280832Y95167D01*
X280030Y95126D01*
X279299Y95857D01*
X278196Y96314D01*
X277003D01*
X275900Y95857D01*
X275056Y95013D01*
X274599Y93911D01*
Y92717D01*
X275056Y91614D01*
X275900Y90771D01*
X277003Y90314D01*
X278196D01*
X279299Y90771D01*
X279934Y91406D01*
X280918Y91178D01*
X281204Y91017D01*
Y63784D01*
X281340Y63101D01*
X281727Y62522D01*
X286252Y57997D01*
Y53418D01*
X280695Y47861D01*
X279197Y48159D01*
X279149Y48274D01*
X278305Y49118D01*
X277203Y49575D01*
X276009D01*
X274907Y49118D01*
X274063Y48274D01*
X273606Y47172D01*
Y45978D01*
X274063Y44876D01*
X274907Y44032D01*
X274559Y42811D01*
X274253Y42344D01*
X274202Y42337D01*
X273800Y42504D01*
X272507D01*
X271313Y42009D01*
X270399Y41095D01*
X269904Y39900D01*
Y38607D01*
X270399Y37413D01*
X271313Y36499D01*
X272507Y36004D01*
X273004D01*
X273530Y34734D01*
X272574Y33778D01*
X271076Y34076D01*
X270945Y34391D01*
X270031Y35306D01*
X268836Y35800D01*
X267544D01*
X266349Y35306D01*
X266333Y35290D01*
X264541Y35294D01*
X264515Y35320D01*
X263321Y35814D01*
X262027D01*
X260833Y35320D01*
X259919Y34405D01*
X259424Y33211D01*
Y31918D01*
X259919Y30724D01*
X260833Y29809D01*
X262027Y29314D01*
X263321D01*
X264515Y29809D01*
X264531Y29825D01*
X265714Y29823D01*
X266265Y28637D01*
X266255Y28491D01*
X265742Y27881D01*
X265619D01*
X264936Y27745D01*
X264357Y27358D01*
X260827Y23828D01*
X259753D01*
X258651Y23371D01*
X257807Y22527D01*
X257350Y21425D01*
Y20231D01*
X257807Y19129D01*
X258651Y18285D01*
X259753Y17828D01*
X260947D01*
X262049Y18285D01*
X262893Y19129D01*
X263350Y20231D01*
Y21305D01*
X266358Y24312D01*
X267416D01*
X268099Y24448D01*
X268677Y24835D01*
X278069Y34226D01*
X278440Y34152D01*
X279354Y33238D01*
X280548Y32743D01*
X281841D01*
X283036Y33238D01*
X283950Y34152D01*
X284311Y35024D01*
X285299Y35394D01*
X285715Y35417D01*
X285829Y35303D01*
X286931Y34846D01*
X288125D01*
X289227Y35303D01*
X290071Y36147D01*
X290528Y37249D01*
Y38443D01*
X290071Y39545D01*
X289227Y40389D01*
X288125Y40846D01*
X286931D01*
X285829Y40389D01*
X284985Y39545D01*
X284706Y38874D01*
X283538Y38490D01*
X283282Y38502D01*
X283036Y38749D01*
X281841Y39243D01*
X280548D01*
X280233Y39113D01*
X279100Y39870D01*
X279025Y41145D01*
X289298Y51417D01*
X289685Y51996D01*
X289820Y52679D01*
Y58737D01*
X289685Y59419D01*
X289298Y59998D01*
X284773Y64523D01*
Y76947D01*
X286043Y77796D01*
X286358Y77665D01*
X287651D01*
X288846Y78160D01*
X289760Y79074D01*
X290255Y80268D01*
Y81561D01*
X289760Y82756D01*
X288846Y83670D01*
X287651Y84165D01*
X286358D01*
X286043Y84034D01*
X284773Y84883D01*
Y92327D01*
X286043Y92746D01*
X286591Y92199D01*
X287693Y91742D01*
X288887D01*
X289989Y92199D01*
X290833Y93043D01*
X291290Y94145D01*
Y95339D01*
X290833Y96441D01*
X289989Y97285D01*
X288887Y97742D01*
X287693D01*
X286744Y97349D01*
X286065Y97605D01*
X285474Y97965D01*
Y125398D01*
X285492Y125426D01*
X285628Y126109D01*
Y137159D01*
X285492Y137842D01*
X285106Y138421D01*
X282753Y140773D01*
X282174Y141160D01*
X281492Y141296D01*
X278875D01*
X278528Y141839D01*
X278247Y142566D01*
X278594Y143403D01*
Y143885D01*
X278747Y144060D01*
X279798Y144657D01*
X280604Y144323D01*
X281896D01*
X283091Y144818D01*
X284005Y145732D01*
X284500Y146926D01*
Y148219D01*
X284005Y149414D01*
X283091Y150328D01*
X281896Y150823D01*
X280604D01*
X280018Y151955D01*
X279662Y152814D01*
X278748Y153728D01*
X277553Y154223D01*
X276260D01*
X275066Y153728D01*
X274151Y152814D01*
X273657Y151619D01*
Y150326D01*
X274151Y149132D01*
X275066Y148218D01*
X275664Y147970D01*
X275411Y146700D01*
X275297D01*
X274286Y146281D01*
X273513Y145508D01*
X273094Y144497D01*
Y143403D01*
X273441Y142566D01*
X273160Y141839D01*
X272813Y141296D01*
X270872D01*
X268817Y143351D01*
X269343Y144621D01*
X269699D01*
X270801Y145077D01*
X271645Y145921D01*
X272102Y147024D01*
Y148217D01*
X271645Y149320D01*
X270801Y150164D01*
X269699Y150621D01*
X268505D01*
X267939Y150999D01*
Y153726D01*
X267803Y154409D01*
X267416Y154988D01*
X267402Y155002D01*
Y156621D01*
X268673Y157469D01*
X268988Y157339D01*
X270281D01*
X271475Y157833D01*
X272389Y158748D01*
X272884Y159942D01*
Y161235D01*
X272389Y162430D01*
X271475Y163344D01*
X270281Y163839D01*
X268988D01*
X268673Y163708D01*
X267402Y164557D01*
Y180843D01*
X267267Y181525D01*
X266880Y182104D01*
X258189Y190795D01*
X258691Y192065D01*
X259886Y192560D01*
X260800Y193474D01*
X261295Y194668D01*
Y195961D01*
X260800Y197156D01*
X259886Y198070D01*
X258691Y198565D01*
X257398D01*
X256974Y198389D01*
X255871Y198399D01*
X255301Y198964D01*
X255290Y198980D01*
X252482Y201788D01*
Y255361D01*
X252346Y256044D01*
X251960Y256623D01*
X246269Y262313D01*
X246904Y263475D01*
X279492Y256383D01*
D02*
G37*
G36*
X203792Y135463D02*
Y133157D01*
X203506Y132729D01*
X203370Y132046D01*
Y123230D01*
X203506Y122547D01*
X203892Y121969D01*
X206578Y119283D01*
X206386Y117679D01*
X205872Y117367D01*
X205852Y117371D01*
X205008Y118215D01*
X203906Y118672D01*
X202712D01*
X201610Y118215D01*
X200766Y117371D01*
X200309Y116269D01*
Y115075D01*
X200766Y113973D01*
X201610Y113129D01*
X202712Y112672D01*
X203906D01*
X205008Y113129D01*
X206297Y113182D01*
X206959Y112178D01*
X206451Y111412D01*
X206339Y111300D01*
X205920Y110289D01*
Y109195D01*
X206339Y108184D01*
X206451Y108072D01*
X207001Y107242D01*
X206451Y106412D01*
X206339Y106300D01*
X205920Y105289D01*
Y104195D01*
X206339Y103184D01*
X206451Y103072D01*
X206834Y102494D01*
X206516Y102174D01*
X205292Y102001D01*
X204190Y102457D01*
X202996D01*
X202133Y102100D01*
X201588Y102307D01*
X201574Y102330D01*
X201037Y103532D01*
X201378Y104355D01*
Y105449D01*
X200959Y106460D01*
X200186Y107233D01*
X199175Y107652D01*
X199092Y107777D01*
X199452Y108646D01*
Y109939D01*
X198957Y111133D01*
X198043Y112047D01*
X196848Y112542D01*
X195555D01*
X194361Y112047D01*
X193447Y111133D01*
X192952Y109939D01*
Y108646D01*
X193447Y107451D01*
X194361Y106537D01*
X194867Y106327D01*
X195878Y105449D01*
Y104355D01*
X196105Y103807D01*
X196243Y102489D01*
X195329Y101575D01*
X194834Y100381D01*
Y99088D01*
X195329Y97893D01*
X196243Y96979D01*
X197437Y96484D01*
X198717D01*
X205689Y89512D01*
X205712Y89279D01*
X203893Y87460D01*
X203506Y86881D01*
X203370Y86199D01*
Y84715D01*
X202100Y83602D01*
X201739Y83650D01*
X201420Y84195D01*
Y85289D01*
X201001Y86300D01*
X200228Y87073D01*
X199217Y87492D01*
X198123D01*
X197112Y87073D01*
X197000Y86961D01*
X196170Y86412D01*
X195340Y86961D01*
X195228Y87073D01*
X194217Y87492D01*
X193123D01*
X192112Y87073D01*
X192000Y86961D01*
X191170Y86411D01*
X190340Y86961D01*
X190228Y87073D01*
X189217Y87492D01*
X188123D01*
X187113Y87073D01*
X186339Y86300D01*
X185920Y85289D01*
Y84195D01*
X186328Y83210D01*
X186335Y83169D01*
X186062Y82073D01*
X185419Y81882D01*
X185228Y82073D01*
X184217Y82492D01*
X183123D01*
X182112Y82073D01*
X181339Y81299D01*
X180920Y80289D01*
Y79195D01*
X181339Y78184D01*
X181451Y78072D01*
X182001Y77242D01*
X181451Y76412D01*
X181339Y76300D01*
X180920Y75289D01*
Y74195D01*
X181339Y73184D01*
X182112Y72411D01*
X183123Y71992D01*
X184217D01*
X185228Y72411D01*
X186001Y73184D01*
X186420Y74195D01*
Y75289D01*
X186046Y76191D01*
X186071Y76259D01*
X187485Y76642D01*
X187592Y76535D01*
X188787Y76040D01*
X189856D01*
X190385Y75667D01*
X190920Y75014D01*
Y74195D01*
X191339Y73184D01*
X192112Y72411D01*
X193123Y71992D01*
X194217D01*
X194763Y72218D01*
X195883Y71407D01*
X195854Y71259D01*
Y67194D01*
X184378Y55718D01*
X182971Y56106D01*
X182748Y56643D01*
X181904Y57487D01*
X180801Y57944D01*
X179608D01*
X178505Y57487D01*
X177661Y56643D01*
X177205Y55541D01*
Y54467D01*
X175144Y52407D01*
X173971Y52893D01*
Y70027D01*
X173855Y70606D01*
X173888Y70790D01*
X174595Y71858D01*
X175193D01*
X176387Y72353D01*
X177301Y73267D01*
X177796Y74461D01*
Y75754D01*
X177301Y76949D01*
X176387Y77863D01*
X175193Y78358D01*
X174463D01*
X173937Y79628D01*
X174372Y80063D01*
X174759Y80641D01*
X174894Y81324D01*
Y82291D01*
X176164Y83133D01*
X176585Y82959D01*
X177878D01*
X179072Y83454D01*
X179986Y84368D01*
X180481Y85563D01*
X181118Y85989D01*
X181223Y85945D01*
X182516D01*
X183710Y86440D01*
X184624Y87354D01*
X185119Y88549D01*
Y89842D01*
X184624Y91036D01*
X183710Y91951D01*
X182516Y92445D01*
X181223D01*
X180028Y91951D01*
X179114Y91036D01*
X178861Y90427D01*
X177878Y89459D01*
X176585D01*
X176420Y89570D01*
Y90289D01*
X176001Y91299D01*
X175228Y92073D01*
X174217Y92492D01*
X173123D01*
X172112Y92073D01*
X171339Y91299D01*
X170920Y90289D01*
Y89195D01*
X171339Y88184D01*
X171363Y88159D01*
X171335Y87812D01*
X171326Y87768D01*
Y87704D01*
X171261Y86912D01*
X170056Y86107D01*
X169741Y86238D01*
X168448D01*
X168192Y86132D01*
X166611Y86631D01*
X165696Y87545D01*
X164502Y88040D01*
X163209D01*
X162015Y87545D01*
X161100Y86631D01*
X160606Y85436D01*
Y84143D01*
X161100Y82949D01*
X162015Y82035D01*
X163209Y81540D01*
X164502D01*
X164757Y81646D01*
X166339Y81147D01*
X167253Y80232D01*
X167800Y80006D01*
X168476Y79644D01*
X168746Y78744D01*
Y71683D01*
X168882Y71000D01*
X169268Y70422D01*
X170164Y69526D01*
X170093Y68146D01*
X169217Y67492D01*
X168123D01*
X167113Y67073D01*
X167000Y66961D01*
X166170Y66412D01*
X165340Y66961D01*
X165228Y67073D01*
X164217Y67492D01*
X163123D01*
X162112Y67073D01*
X161339Y66300D01*
X160920Y65289D01*
Y64195D01*
X161339Y63184D01*
X162112Y62411D01*
X163123Y61992D01*
X164217D01*
X165228Y62411D01*
X165340Y62523D01*
X166170Y63073D01*
X167000Y62523D01*
X167113Y62411D01*
X168123Y61992D01*
X169217D01*
X170402Y61108D01*
Y50047D01*
X170398Y50043D01*
X169892D01*
X169209Y49907D01*
X168751Y49601D01*
X168092Y49874D01*
X166799D01*
X165604Y49379D01*
X164690Y48465D01*
X164195Y47270D01*
Y45977D01*
X164690Y44783D01*
X165282Y44191D01*
X165282Y42949D01*
X165229Y42800D01*
X164022Y43296D01*
X163935Y43505D01*
X163021Y44419D01*
X161826Y44914D01*
X160534D01*
X159339Y44419D01*
X158425Y43505D01*
X157930Y42310D01*
Y41017D01*
X158061Y40702D01*
X157212Y39432D01*
X150944D01*
X150915Y39501D01*
X150071Y40345D01*
X148969Y40802D01*
X147775D01*
X146673Y40345D01*
X145829Y39501D01*
X145781Y39386D01*
X144283Y39088D01*
X141858Y41514D01*
X141279Y41900D01*
X140596Y42036D01*
X123188D01*
X122339Y43306D01*
X122380Y43405D01*
Y44599D01*
X121923Y45701D01*
X121079Y46545D01*
X119977Y47002D01*
X118783D01*
X117681Y46545D01*
X116837Y45701D01*
X116380Y44599D01*
Y43405D01*
X116433Y43277D01*
X116023Y41900D01*
X115444Y41514D01*
X109833Y35903D01*
X109153Y36157D01*
X108660Y36525D01*
Y37634D01*
X108165Y38829D01*
X107251Y39743D01*
X106936Y39874D01*
X106638Y41372D01*
X114900Y49634D01*
X115287Y50213D01*
X115422Y50896D01*
Y52909D01*
X116127Y53507D01*
X117345Y53662D01*
X118189Y52818D01*
X119291Y52361D01*
X120485D01*
X121587Y52818D01*
X122431Y53662D01*
X122888Y54765D01*
Y55958D01*
X122431Y57061D01*
X121587Y57905D01*
X121481Y57949D01*
X121183Y59447D01*
X125466Y63731D01*
X125815D01*
X126498Y63866D01*
X127077Y64253D01*
X141100Y78276D01*
X141487Y78855D01*
X141622Y79538D01*
Y81241D01*
X142892Y82088D01*
X143123Y81992D01*
X144217D01*
X145228Y82411D01*
X146001Y83184D01*
X146420Y84195D01*
Y85289D01*
X146001Y86300D01*
X145966Y86335D01*
X146772Y87271D01*
X147967Y86776D01*
X149260D01*
X150454Y87271D01*
X151369Y88185D01*
X151863Y89380D01*
Y90673D01*
X151369Y91867D01*
X150454Y92781D01*
X149660Y93111D01*
X149087Y94093D01*
X148991Y94546D01*
X149084Y95014D01*
Y115009D01*
X150201Y115566D01*
X150309Y115579D01*
X162062Y103827D01*
X161764Y102328D01*
X161449Y102198D01*
X160535Y101284D01*
X160040Y100089D01*
Y98796D01*
X160535Y97602D01*
X161449Y96687D01*
X162643Y96193D01*
X163936D01*
X165131Y96687D01*
X166045Y97602D01*
X166176Y97917D01*
X166488Y98107D01*
X167713Y98315D01*
X167871Y98210D01*
X168554Y98074D01*
X176719D01*
X176742Y98017D01*
X177656Y97103D01*
X178851Y96608D01*
X180144D01*
X181338Y97103D01*
X181846Y97611D01*
X182943Y97707D01*
X183397Y97503D01*
X184087Y96813D01*
X185282Y96318D01*
X186574D01*
X187769Y96813D01*
X188683Y97727D01*
X189178Y98922D01*
Y100215D01*
X188968Y100722D01*
X189180Y101803D01*
X189639Y102167D01*
X190228Y102411D01*
X191001Y103184D01*
X191420Y104195D01*
Y105289D01*
X191001Y106300D01*
X190228Y107073D01*
X189217Y107492D01*
X188123D01*
X187113Y107073D01*
X187036Y106996D01*
X186918Y107006D01*
X185746Y107654D01*
X185726Y107916D01*
X186145Y108927D01*
Y110021D01*
X185726Y111032D01*
X184953Y111805D01*
X183942Y112224D01*
X182848D01*
X181913Y111837D01*
X180987Y111613D01*
X180662Y111539D01*
X179818Y112383D01*
X178716Y112839D01*
X177522D01*
X176420Y112383D01*
X175576Y111539D01*
X175535Y111440D01*
X174037Y111142D01*
X170658Y114520D01*
Y122429D01*
X171413Y123184D01*
X171908Y124379D01*
Y125672D01*
X171675Y126232D01*
X172436Y127502D01*
X179842D01*
X180466Y126232D01*
X180136Y125436D01*
Y124143D01*
X180631Y122949D01*
X181545Y122035D01*
X182740Y121540D01*
X184033D01*
X185227Y122035D01*
X186141Y122949D01*
X187113Y122411D01*
X188123Y121992D01*
X189217D01*
X190228Y122411D01*
X190340Y122523D01*
X191170Y123073D01*
X192000Y122523D01*
X192112Y122411D01*
X193123Y121992D01*
X194217D01*
X195228Y122411D01*
X195340Y122523D01*
X196170Y123072D01*
X197000Y122523D01*
X197112Y122411D01*
X198123Y121992D01*
X199217D01*
X200228Y122411D01*
X201001Y123184D01*
X201420Y124195D01*
Y125289D01*
X201001Y126300D01*
X200228Y127073D01*
X199217Y127492D01*
X198123D01*
X197112Y127073D01*
X197000Y126961D01*
X196170Y126411D01*
X195340Y126961D01*
X195228Y127073D01*
X194217Y127492D01*
X193123D01*
X192112Y127073D01*
X192000Y126961D01*
X191170Y126411D01*
X190340Y126961D01*
X190228Y127073D01*
X189217Y127492D01*
X188887D01*
X186311Y130068D01*
X186227Y130124D01*
X185803Y130548D01*
X185224Y130934D01*
X184880Y131003D01*
X185005Y132273D01*
X195997D01*
X196680Y132409D01*
X197259Y132796D01*
X200573Y136109D01*
X200724Y136047D01*
X202017D01*
X202522Y136256D01*
X203792Y135463D01*
D02*
G37*
%LPC*%
G36*
X127851Y261572D02*
X126657D01*
X125555Y261115D01*
X124711Y260271D01*
X124254Y259169D01*
Y257975D01*
X124711Y256873D01*
X125555Y256029D01*
X126657Y255572D01*
X127851D01*
X128953Y256029D01*
X129797Y256873D01*
X130254Y257975D01*
Y259169D01*
X129797Y260271D01*
X128953Y261115D01*
X127851Y261572D01*
D02*
G37*
G36*
X188860Y264664D02*
X187568D01*
X186373Y264169D01*
X185459Y263255D01*
X185102Y262393D01*
X184174Y261616D01*
X182881D01*
X181686Y261121D01*
X180772Y260207D01*
X180278Y259013D01*
Y257720D01*
X180772Y256525D01*
X181686Y255611D01*
X182881Y255116D01*
X184174D01*
X185368Y255611D01*
X186283Y256525D01*
X186640Y257387D01*
X187568Y258164D01*
X188860D01*
X190055Y258659D01*
X190969Y259573D01*
X191464Y260768D01*
Y262061D01*
X190969Y263255D01*
X190055Y264169D01*
X188860Y264664D01*
D02*
G37*
G36*
X170466Y257116D02*
X169173D01*
X167979Y256621D01*
X167065Y255707D01*
X166570Y254513D01*
Y253220D01*
X167065Y252025D01*
X167979Y251111D01*
X169173Y250616D01*
X170466D01*
X171661Y251111D01*
X172575Y252025D01*
X173070Y253220D01*
Y254513D01*
X172575Y255707D01*
X171661Y256621D01*
X170466Y257116D01*
D02*
G37*
G36*
X115709Y249884D02*
X114416D01*
X113221Y249389D01*
X112307Y248475D01*
X111812Y247281D01*
Y245987D01*
X112307Y244793D01*
X113221Y243879D01*
X114416Y243384D01*
X115709D01*
X116903Y243879D01*
X117817Y244793D01*
X118312Y245987D01*
Y247281D01*
X117817Y248475D01*
X116903Y249389D01*
X115709Y249884D01*
D02*
G37*
G36*
X52413Y248618D02*
X51219D01*
X50117Y248161D01*
X49273Y247317D01*
X48816Y246215D01*
Y245021D01*
X49273Y243919D01*
X50117Y243075D01*
X51219Y242618D01*
X52413D01*
X53515Y243075D01*
X54359Y243919D01*
X54816Y245021D01*
Y246215D01*
X54359Y247317D01*
X53515Y248161D01*
X52413Y248618D01*
D02*
G37*
G36*
X92928Y231854D02*
X91735D01*
X90632Y231397D01*
X89788Y230553D01*
X89332Y229451D01*
Y228257D01*
X89788Y227155D01*
X90632Y226311D01*
X91735Y225854D01*
X92928D01*
X94031Y226311D01*
X94875Y227155D01*
X95331Y228257D01*
Y229451D01*
X94875Y230553D01*
X94031Y231397D01*
X92928Y231854D01*
D02*
G37*
G36*
X66940Y232104D02*
X65648D01*
X64453Y231609D01*
X63539Y230695D01*
X63044Y229501D01*
Y228207D01*
X63539Y227013D01*
X64453Y226099D01*
X65648Y225604D01*
X66940D01*
X68135Y226099D01*
X69049Y227013D01*
X69544Y228207D01*
Y229501D01*
X69049Y230695D01*
X68135Y231609D01*
X66940Y232104D01*
D02*
G37*
G36*
X76802Y224440D02*
X75509D01*
X74315Y223945D01*
X73401Y223031D01*
X72906Y221836D01*
Y220543D01*
X73401Y219349D01*
X74315Y218435D01*
X75509Y217940D01*
X76802D01*
X77997Y218435D01*
X78911Y219349D01*
X79406Y220543D01*
Y221836D01*
X78911Y223031D01*
X77997Y223945D01*
X76802Y224440D01*
D02*
G37*
G36*
X56985Y216360D02*
X55791D01*
X54689Y215903D01*
X53845Y215059D01*
X53388Y213957D01*
Y212763D01*
X53845Y211661D01*
X54689Y210817D01*
X55791Y210360D01*
X56985D01*
X58087Y210817D01*
X58931Y211661D01*
X59388Y212763D01*
Y213957D01*
X58931Y215059D01*
X58087Y215903D01*
X56985Y216360D01*
D02*
G37*
G36*
X19634Y214580D02*
X18950Y214422D01*
X18416Y214315D01*
X17674Y214168D01*
X17582Y214106D01*
X17471D01*
X16270Y213608D01*
X16191Y213530D01*
X16082Y213508D01*
X15428Y213071D01*
X15001Y212786D01*
X14406Y212404D01*
X14388Y212396D01*
X14388Y212396D01*
X14264Y212271D01*
X14139Y212147D01*
X14139Y212147D01*
X14130Y212126D01*
X13782Y211567D01*
X13472Y211103D01*
X13060Y210485D01*
X13038Y210377D01*
X12960Y210298D01*
X12462Y209097D01*
Y208986D01*
X12400Y208894D01*
X12253Y208153D01*
X12146Y207618D01*
X11988Y206943D01*
Y206455D01*
X12146Y205894D01*
X12274Y205254D01*
X12400Y204618D01*
X12462Y204526D01*
Y204415D01*
X12960Y203214D01*
X13038Y203135D01*
X13060Y203026D01*
X13782Y201945D01*
X14046Y201475D01*
X14059Y201445D01*
X14059Y201445D01*
X14321Y201184D01*
X14582Y200922D01*
X14582Y200922D01*
X14656Y200891D01*
X14983Y200735D01*
X15573Y200344D01*
X15931Y200105D01*
X16083Y200004D01*
X16191Y199982D01*
X16270Y199904D01*
X17471Y199406D01*
X17582D01*
X17674Y199344D01*
X18199Y199240D01*
X19068Y199045D01*
X19361Y198933D01*
X19362Y198932D01*
X19362Y198932D01*
X20245Y198932D01*
X20564Y199050D01*
X20587Y199055D01*
X21408Y199236D01*
X21950Y199344D01*
X22042Y199406D01*
X22153D01*
X23354Y199904D01*
X23433Y199982D01*
X23542Y200004D01*
X23722Y200124D01*
X24639Y200734D01*
X24996Y200910D01*
X25055Y200935D01*
X25055Y200935D01*
X25294Y201175D01*
X25535Y201414D01*
X25535Y201415D01*
X25545Y201440D01*
X25842Y201945D01*
X26564Y203027D01*
X26586Y203135D01*
X26664Y203214D01*
X27162Y204415D01*
Y204526D01*
X27224Y204618D01*
X27478Y205894D01*
X27636Y206499D01*
Y206900D01*
X27478Y207618D01*
X27378Y208120D01*
X27224Y208894D01*
X27162Y208986D01*
Y209097D01*
X26664Y210298D01*
X26586Y210377D01*
X26564Y210485D01*
X26129Y211137D01*
X25842Y211567D01*
X25463Y212158D01*
X25455Y212177D01*
X25455Y212177D01*
X25351Y212279D01*
X25249Y212383D01*
X25249Y212383D01*
X25231Y212391D01*
X24623Y212786D01*
X24210Y213062D01*
X23542Y213508D01*
X23433Y213530D01*
X23354Y213608D01*
X22153Y214106D01*
X22042D01*
X21950Y214168D01*
X21191Y214319D01*
X20674Y214422D01*
X19972Y214580D01*
X19634D01*
X19634D01*
D02*
G37*
G36*
X25069Y197598D02*
X23776D01*
X22581Y197103D01*
X21667Y196189D01*
X21172Y194994D01*
Y193701D01*
X21667Y192507D01*
X22581Y191593D01*
X23776Y191098D01*
X25069D01*
X26263Y191593D01*
X27177Y192507D01*
X27672Y193701D01*
Y194994D01*
X27177Y196189D01*
X26263Y197103D01*
X25069Y197598D01*
D02*
G37*
G36*
X8267Y164032D02*
X6974D01*
X5779Y163537D01*
X4865Y162623D01*
X4370Y161429D01*
Y160135D01*
X4865Y158941D01*
X5779Y158027D01*
X6974Y157532D01*
X8267D01*
X9461Y158027D01*
X10375Y158941D01*
X10870Y160135D01*
Y161429D01*
X10375Y162623D01*
X9461Y163537D01*
X8267Y164032D01*
D02*
G37*
G36*
X60472Y157893D02*
X59179D01*
X57984Y157398D01*
X57070Y156484D01*
X55672Y156426D01*
X55093Y156666D01*
X53801D01*
X52606Y156171D01*
X51692Y155257D01*
X51197Y154062D01*
Y152769D01*
X51692Y151575D01*
X52606Y150661D01*
X53801Y150166D01*
X55093D01*
X56288Y150661D01*
X57202Y151575D01*
X58601Y151632D01*
X59179Y151393D01*
X60472D01*
X61666Y151888D01*
X62580Y152802D01*
X63075Y153996D01*
Y155289D01*
X62580Y156484D01*
X61666Y157398D01*
X60472Y157893D01*
D02*
G37*
G36*
X215530Y238962D02*
X214237D01*
X213043Y238467D01*
X212129Y237553D01*
X211634Y236359D01*
Y235065D01*
X212129Y233871D01*
X213043Y232957D01*
X214237Y232462D01*
X215530D01*
X216725Y232957D01*
X217639Y233871D01*
X218134Y235065D01*
Y236359D01*
X217639Y237553D01*
X216725Y238467D01*
X215530Y238962D01*
D02*
G37*
G36*
X209920Y228298D02*
X208726D01*
X207624Y227841D01*
X206780Y226997D01*
X206323Y225895D01*
Y224701D01*
X206780Y223599D01*
X207624Y222755D01*
X208726Y222298D01*
X209920D01*
X211022Y222755D01*
X211866Y223599D01*
X212323Y224701D01*
Y225895D01*
X211866Y226997D01*
X211022Y227841D01*
X209920Y228298D01*
D02*
G37*
G36*
X236755Y190702D02*
X235462D01*
X234267Y190207D01*
X233353Y189293D01*
X232255Y189855D01*
X232219Y189891D01*
X231024Y190386D01*
X229732D01*
X228537Y189891D01*
X227623Y188977D01*
X227128Y187782D01*
Y186490D01*
X227623Y185295D01*
X228537Y184381D01*
X229732Y183886D01*
X231024D01*
X232219Y184381D01*
X233133Y185295D01*
X234231Y184733D01*
X234267Y184697D01*
X235462Y184202D01*
X236755D01*
X237949Y184697D01*
X238864Y185611D01*
X239358Y186805D01*
Y188099D01*
X238864Y189293D01*
X237949Y190207D01*
X236755Y190702D01*
D02*
G37*
G36*
X200798Y188186D02*
X199506D01*
X198311Y187691D01*
X197397Y186777D01*
X196902Y185582D01*
Y184289D01*
X197397Y183095D01*
X198311Y182181D01*
X199506Y181686D01*
X200798D01*
X201993Y182181D01*
X202907Y183095D01*
X203402Y184289D01*
Y185582D01*
X202907Y186777D01*
X201993Y187691D01*
X200798Y188186D01*
D02*
G37*
G36*
X184771D02*
X183478D01*
X182284Y187691D01*
X181369Y186777D01*
X180875Y185582D01*
Y184289D01*
X181369Y183095D01*
X182284Y182181D01*
X183478Y181686D01*
X184771D01*
X185966Y182181D01*
X186880Y183095D01*
X187375Y184289D01*
Y185582D01*
X186880Y186777D01*
X185966Y187691D01*
X184771Y188186D01*
D02*
G37*
G36*
X253677Y165341D02*
X252384D01*
X251190Y164846D01*
X250275Y163932D01*
X249781Y162737D01*
Y161444D01*
X250275Y160250D01*
X251190Y159335D01*
X252384Y158841D01*
X253677D01*
X253937Y158948D01*
X254962Y159182D01*
X255469Y158313D01*
X255592Y158018D01*
X256506Y157104D01*
X257701Y156609D01*
X258993D01*
X260188Y157104D01*
X261102Y158018D01*
X261597Y159213D01*
Y160505D01*
X261102Y161700D01*
X260188Y162614D01*
X258993Y163109D01*
X257701D01*
X257441Y163001D01*
X256416Y162768D01*
X255908Y163637D01*
X255786Y163932D01*
X254872Y164846D01*
X253677Y165341D01*
D02*
G37*
G36*
X267600Y249376D02*
X266308D01*
X265113Y248881D01*
X264199Y247967D01*
X263704Y246772D01*
Y245480D01*
X264199Y244285D01*
X265113Y243371D01*
X266308Y242876D01*
X267600D01*
X268795Y243371D01*
X269709Y244285D01*
X270204Y245480D01*
Y246772D01*
X269709Y247967D01*
X268795Y248881D01*
X267600Y249376D01*
D02*
G37*
G36*
X266584Y226262D02*
X265292D01*
X264097Y225767D01*
X263183Y224853D01*
X262688Y223659D01*
Y222365D01*
X263183Y221171D01*
X264097Y220257D01*
X265292Y219762D01*
X266584D01*
X267779Y220257D01*
X268693Y221171D01*
X269188Y222365D01*
Y223659D01*
X268693Y224853D01*
X267779Y225767D01*
X266584Y226262D01*
D02*
G37*
G36*
X287666Y218896D02*
X286374D01*
X285179Y218401D01*
X284265Y217487D01*
X283770Y216292D01*
Y215000D01*
X284265Y213805D01*
X285179Y212891D01*
X286374Y212396D01*
X287666D01*
X288861Y212891D01*
X289775Y213805D01*
X290270Y215000D01*
Y216292D01*
X289775Y217487D01*
X288861Y218401D01*
X287666Y218896D01*
D02*
G37*
G36*
X321310Y214569D02*
X320717Y214411D01*
X320099Y214288D01*
X319441Y214157D01*
X319349Y214096D01*
X319238D01*
X318036Y213598D01*
X317957Y213519D01*
X317849Y213498D01*
X316767Y212775D01*
X316242Y212459D01*
X316218Y212449D01*
X316218Y212449D01*
X316004Y212233D01*
X315788Y212019D01*
X315788Y212019D01*
X315771Y211978D01*
X315550Y211560D01*
X314982Y210708D01*
X314826Y210475D01*
X314804Y210366D01*
X314726Y210288D01*
X314228Y209086D01*
Y208975D01*
X314166Y208883D01*
X314044Y208268D01*
X313908Y207592D01*
X313796Y207231D01*
X313755Y207099D01*
X313755Y207099D01*
X313755Y206299D01*
X314033Y205247D01*
X314037Y205227D01*
X314166Y204608D01*
X314190Y204573D01*
X314227Y204410D01*
X314228Y204405D01*
X314416Y203952D01*
X314726Y203203D01*
X314804Y203125D01*
X314826Y203016D01*
X315124Y202570D01*
X315606Y201805D01*
X315667Y201670D01*
X315723Y201536D01*
X315723Y201536D01*
X316050Y201211D01*
X316376Y200884D01*
X316376Y200883D01*
X316556Y200809D01*
X316642Y200771D01*
X317411Y200285D01*
X317849Y199993D01*
X317957Y199971D01*
X318036Y199893D01*
X319238Y199395D01*
X319349D01*
X319441Y199333D01*
X319530Y199316D01*
X319982Y199224D01*
X320832Y199028D01*
X321089Y198922D01*
X321921D01*
X322397Y199067D01*
X323090Y199209D01*
X323716Y199333D01*
X323808Y199395D01*
X323919D01*
X325121Y199893D01*
X325199Y199971D01*
X325308Y199993D01*
X326389Y200716D01*
X326854Y200975D01*
X326885Y200988D01*
X326885Y200988D01*
X327034Y201138D01*
X327183Y201286D01*
X327184Y201287D01*
X327191Y201304D01*
X327608Y201934D01*
X327867Y202321D01*
X328330Y203016D01*
X328352Y203125D01*
X328431Y203203D01*
X328928Y204405D01*
Y204516D01*
X328990Y204608D01*
X329154Y205431D01*
X329244Y205884D01*
X329402Y206655D01*
Y206745D01*
X329244Y207607D01*
X329171Y207974D01*
X328990Y208883D01*
X328928Y208975D01*
Y209086D01*
X328431Y210288D01*
X328352Y210366D01*
X328330Y210475D01*
X327820Y211239D01*
X327608Y211556D01*
X327125Y212254D01*
X327119Y212269D01*
X327119Y212269D01*
X327080Y212306D01*
X327043Y212345D01*
X327043Y212345D01*
X327026Y212352D01*
X326389Y212775D01*
X326007Y213030D01*
X325308Y213498D01*
X325199Y213519D01*
X325121Y213598D01*
X323919Y214096D01*
X323808D01*
X323716Y214157D01*
X322921Y214315D01*
X322440Y214411D01*
X321700Y214569D01*
X321310D01*
X321310D01*
D02*
G37*
G36*
X287920Y209244D02*
X286628D01*
X285433Y208749D01*
X284519Y207835D01*
X284024Y206640D01*
Y205347D01*
X284519Y204153D01*
X284858Y203813D01*
X284490Y202386D01*
X283909Y202145D01*
X282995Y201231D01*
X282500Y200037D01*
Y198743D01*
X282995Y197549D01*
X283909Y196635D01*
X285103Y196140D01*
X286397D01*
X287591Y196635D01*
X288505Y197549D01*
X289000Y198743D01*
Y200037D01*
X288505Y201231D01*
X288165Y201571D01*
X288534Y202998D01*
X289115Y203239D01*
X290029Y204153D01*
X290524Y205347D01*
Y206640D01*
X290029Y207835D01*
X289115Y208749D01*
X287920Y209244D01*
D02*
G37*
G36*
X285889Y194512D02*
X284596D01*
X283401Y194017D01*
X282487Y193103D01*
X281992Y191908D01*
Y190616D01*
X282487Y189421D01*
X283401Y188507D01*
X284596Y188012D01*
X285889D01*
X287083Y188507D01*
X287997Y189421D01*
X288492Y190616D01*
Y191908D01*
X287997Y193103D01*
X287083Y194017D01*
X285889Y194512D01*
D02*
G37*
G36*
X287159Y184860D02*
X285865D01*
X284671Y184365D01*
X283757Y183451D01*
X283262Y182257D01*
Y180963D01*
X283757Y179769D01*
X284671Y178855D01*
X285865Y178360D01*
X287159D01*
X288353Y178855D01*
X289267Y179769D01*
X289762Y180963D01*
Y182257D01*
X289267Y183451D01*
X288353Y184365D01*
X287159Y184860D01*
D02*
G37*
G36*
X304508Y165179D02*
X303314D01*
X302212Y164722D01*
X301368Y163879D01*
X300911Y162776D01*
Y161583D01*
X301368Y160480D01*
X302212Y159636D01*
X303314Y159179D01*
X304508D01*
X305611Y159636D01*
X306455Y160480D01*
X306911Y161583D01*
Y162776D01*
X306455Y163879D01*
X305611Y164722D01*
X304508Y165179D01*
D02*
G37*
G36*
X281743Y163060D02*
X280549D01*
X279447Y162603D01*
X278603Y161759D01*
X278146Y160657D01*
Y159463D01*
X278603Y158361D01*
X279447Y157517D01*
X280549Y157060D01*
X281743D01*
X282845Y157517D01*
X283689Y158361D01*
X284146Y159463D01*
Y160657D01*
X283689Y161759D01*
X282845Y162603D01*
X281743Y163060D01*
D02*
G37*
G36*
X298843Y153364D02*
X297549D01*
X296355Y152869D01*
X295441Y151955D01*
X294946Y150760D01*
Y149467D01*
X295441Y148273D01*
X296355Y147359D01*
X297549Y146864D01*
X298843D01*
X300037Y147359D01*
X300951Y148273D01*
X301446Y149467D01*
Y150760D01*
X300951Y151955D01*
X300037Y152869D01*
X298843Y153364D01*
D02*
G37*
G36*
X327037Y149554D02*
X325743D01*
X324549Y149059D01*
X323635Y148145D01*
X323140Y146951D01*
Y145658D01*
X323635Y144463D01*
X324549Y143549D01*
X325743Y143054D01*
X327037D01*
X328231Y143549D01*
X329145Y144463D01*
X329640Y145658D01*
Y146951D01*
X329145Y148145D01*
X328231Y149059D01*
X327037Y149554D01*
D02*
G37*
G36*
X306716Y139140D02*
X305424D01*
X304229Y138645D01*
X303315Y137731D01*
X302820Y136537D01*
Y135244D01*
X303315Y134049D01*
X304229Y133135D01*
X305424Y132640D01*
X306716D01*
X307911Y133135D01*
X308825Y134049D01*
X309320Y135244D01*
Y136537D01*
X308825Y137731D01*
X307911Y138645D01*
X306716Y139140D01*
D02*
G37*
G36*
X332370Y135838D02*
X331077D01*
X329883Y135343D01*
X328969Y134429D01*
X328474Y133235D01*
Y131941D01*
X328969Y130747D01*
X329883Y129833D01*
X331077Y129338D01*
X332370D01*
X333565Y129833D01*
X334479Y130747D01*
X334974Y131941D01*
Y133235D01*
X334479Y134429D01*
X333565Y135343D01*
X332370Y135838D01*
D02*
G37*
G36*
X320433D02*
X319139D01*
X317945Y135343D01*
X317031Y134429D01*
X316536Y133235D01*
Y131941D01*
X317031Y130747D01*
X317945Y129833D01*
X319139Y129338D01*
X320433D01*
X321627Y129833D01*
X322541Y130747D01*
X323036Y131941D01*
Y133235D01*
X322541Y134429D01*
X321627Y135343D01*
X320433Y135838D01*
D02*
G37*
G36*
X39545Y128677D02*
X38252D01*
X37058Y128183D01*
X36143Y127268D01*
X35649Y126074D01*
Y124781D01*
X36143Y123586D01*
X37058Y122672D01*
X38252Y122177D01*
X39545D01*
X40739Y122672D01*
X41654Y123586D01*
X42149Y124781D01*
Y126074D01*
X41654Y127268D01*
X40739Y128183D01*
X39545Y128677D01*
D02*
G37*
G36*
X70295Y127346D02*
X69002D01*
X67807Y126851D01*
X66893Y125937D01*
X66398Y124742D01*
Y123449D01*
X66893Y122255D01*
X67807Y121341D01*
X69002Y120846D01*
X70295D01*
X71489Y121341D01*
X72403Y122255D01*
X72898Y123449D01*
Y124742D01*
X72403Y125937D01*
X71489Y126851D01*
X70295Y127346D01*
D02*
G37*
G36*
X52431Y125932D02*
X51137D01*
X49943Y125437D01*
X49029Y124523D01*
X48534Y123329D01*
Y122036D01*
X49029Y120841D01*
X49943Y119927D01*
X51137Y119432D01*
X52431D01*
X53625Y119927D01*
X54539Y120841D01*
X55034Y122036D01*
Y123329D01*
X54539Y124523D01*
X53625Y125437D01*
X52431Y125932D01*
D02*
G37*
G36*
X308774Y127184D02*
X307481D01*
X306287Y126689D01*
X305373Y125775D01*
X304878Y124580D01*
Y123287D01*
X305373Y122093D01*
X305738Y121727D01*
X305636Y121212D01*
X304721Y120297D01*
X304227Y119103D01*
Y117810D01*
X304721Y116615D01*
X305636Y115701D01*
X306830Y115206D01*
X308123D01*
X309318Y115701D01*
X310232Y116615D01*
X310727Y117810D01*
Y119103D01*
X310232Y120297D01*
X309866Y120663D01*
X309969Y121179D01*
X310883Y122093D01*
X311378Y123287D01*
Y124580D01*
X310883Y125775D01*
X309969Y126689D01*
X308774Y127184D01*
D02*
G37*
G36*
X55673Y117550D02*
X54381D01*
X53186Y117055D01*
X52272Y116141D01*
X51777Y114946D01*
Y113653D01*
X52272Y112459D01*
X53186Y111545D01*
X54381Y111050D01*
X55673D01*
X56868Y111545D01*
X57782Y112459D01*
X58277Y113653D01*
Y114946D01*
X57782Y116141D01*
X56868Y117055D01*
X55673Y117550D01*
D02*
G37*
G36*
X320598Y119794D02*
X319305D01*
X318110Y119300D01*
X317196Y118385D01*
X316701Y117191D01*
Y115898D01*
X317196Y114703D01*
X318110Y113789D01*
X319305Y113294D01*
X320597D01*
X321655Y112358D01*
X321886Y111800D01*
X322800Y110885D01*
X323994Y110391D01*
X325287D01*
X326482Y110885D01*
X327396Y111800D01*
X327891Y112994D01*
Y114287D01*
X327396Y115482D01*
X326482Y116396D01*
X325287Y116891D01*
X323994D01*
X322937Y117827D01*
X322706Y118385D01*
X321792Y119300D01*
X320598Y119794D01*
D02*
G37*
G36*
X34308Y114997D02*
X33214D01*
X32203Y114578D01*
X31430Y113805D01*
X31011Y112794D01*
Y112652D01*
X30569Y112356D01*
X29375D01*
X28273Y111899D01*
X27429Y111055D01*
X26972Y109953D01*
Y108759D01*
X26903Y108493D01*
X26197Y107311D01*
X25451Y107002D01*
X24537Y106088D01*
X24042Y104893D01*
Y103600D01*
X24537Y102406D01*
X25451Y101491D01*
X26646Y100997D01*
X27939D01*
X28790Y101349D01*
X29779Y100890D01*
X30060Y100627D01*
X30555Y99433D01*
X31469Y98519D01*
X32664Y98024D01*
X33956D01*
X35151Y98519D01*
X36065Y99433D01*
X36560Y100627D01*
Y101920D01*
X36065Y103115D01*
X35151Y104029D01*
X33956Y104524D01*
X32664D01*
X31812Y104171D01*
X30824Y104631D01*
X30542Y104893D01*
X30462Y105086D01*
X30566Y106328D01*
X31113Y106582D01*
X31671Y106813D01*
X32515Y107657D01*
X32579Y107810D01*
X32881Y107941D01*
X34037Y108011D01*
X34510Y107538D01*
X35521Y107119D01*
X36615D01*
X37626Y107538D01*
X38399Y108311D01*
X39336Y108805D01*
X39795Y108615D01*
X40347Y108386D01*
X41441D01*
X42452Y108805D01*
X43225Y109578D01*
X43644Y110589D01*
Y111683D01*
X43225Y112694D01*
X42452Y113467D01*
X41441Y113886D01*
X40347D01*
X39336Y113467D01*
X38563Y112694D01*
X37626Y112200D01*
X37167Y112390D01*
X36615Y112619D01*
X36511D01*
Y112794D01*
X36092Y113805D01*
X35319Y114578D01*
X34308Y114997D01*
D02*
G37*
G36*
X303414Y114502D02*
X302122D01*
X300927Y114007D01*
X300013Y113093D01*
X299518Y111898D01*
Y110605D01*
X300013Y109411D01*
X300927Y108497D01*
X302122Y108002D01*
X303414D01*
X304609Y108497D01*
X305523Y109411D01*
X306018Y110605D01*
Y111898D01*
X305523Y113093D01*
X304609Y114007D01*
X303414Y114502D01*
D02*
G37*
G36*
X70243Y114459D02*
X68949D01*
X67755Y113964D01*
X66841Y113050D01*
X66346Y111855D01*
Y110562D01*
X66841Y109368D01*
X67755Y108454D01*
X68949Y107959D01*
X70243D01*
X70689Y108144D01*
X71418Y107657D01*
X71837Y106646D01*
X72610Y105873D01*
X73621Y105454D01*
X74715D01*
X75726Y105873D01*
X76454Y106601D01*
X77182Y105873D01*
X78193Y105454D01*
X79287D01*
X80298Y105873D01*
X80347Y105922D01*
X81057Y106267D01*
X81901Y105423D01*
X83004Y104966D01*
X84197D01*
X85300Y105423D01*
X86144Y106267D01*
X86601Y107369D01*
Y108563D01*
X86144Y109665D01*
X85300Y110509D01*
X84197Y110966D01*
X83004D01*
X81901Y110509D01*
X81140Y109748D01*
X81071Y109762D01*
X80298Y110535D01*
X79287Y110954D01*
X78193D01*
X77182Y110535D01*
X76454Y109807D01*
X75726Y110535D01*
X74715Y110954D01*
X73621D01*
X73543Y111006D01*
X72792Y111985D01*
X72351Y113050D01*
X71437Y113964D01*
X70243Y114459D01*
D02*
G37*
G36*
X292443Y110696D02*
X291249D01*
X290147Y110239D01*
X289303Y109395D01*
X288846Y108293D01*
Y107099D01*
X289303Y105997D01*
X290147Y105153D01*
X291249Y104696D01*
X292443D01*
X293545Y105153D01*
X294389Y105997D01*
X294846Y107099D01*
Y108293D01*
X294389Y109395D01*
X293545Y110239D01*
X292443Y110696D01*
D02*
G37*
G36*
X267121Y108844D02*
X265828D01*
X264634Y108349D01*
X263719Y107435D01*
X263225Y106240D01*
Y104947D01*
X263719Y103753D01*
X264634Y102839D01*
X265828Y102344D01*
X267121D01*
X268315Y102839D01*
X269230Y103753D01*
X269724Y104947D01*
Y106240D01*
X269230Y107435D01*
X268315Y108349D01*
X267121Y108844D01*
D02*
G37*
G36*
X322759Y108668D02*
X321466D01*
X320272Y108173D01*
X319357Y107259D01*
X318863Y106065D01*
Y104771D01*
X319357Y103577D01*
X320272Y102663D01*
X321466Y102168D01*
X322759D01*
X323954Y102663D01*
X324868Y103577D01*
X325363Y104771D01*
Y106065D01*
X324868Y107259D01*
X323954Y108173D01*
X322759Y108668D01*
D02*
G37*
G36*
X332266Y107396D02*
X331073D01*
X329970Y106939D01*
X329126Y106095D01*
X328669Y104993D01*
Y103799D01*
X329126Y102697D01*
X329970Y101853D01*
X331073Y101396D01*
X332266D01*
X333369Y101853D01*
X334213Y102697D01*
X334669Y103799D01*
Y104993D01*
X334213Y106095D01*
X333369Y106939D01*
X332266Y107396D01*
D02*
G37*
G36*
X41491Y106886D02*
X40297D01*
X39195Y106429D01*
X38351Y105585D01*
X37894Y104483D01*
Y103289D01*
X38351Y102187D01*
X39195Y101343D01*
X40297Y100886D01*
X41491D01*
X42593Y101343D01*
X43437Y102187D01*
X43894Y103289D01*
Y104483D01*
X43437Y105585D01*
X42593Y106429D01*
X41491Y106886D01*
D02*
G37*
G36*
X325287Y98073D02*
X323994D01*
X322800Y97578D01*
X322687Y97465D01*
X320968Y97429D01*
X319774Y97924D01*
X318481D01*
X317286Y97429D01*
X316372Y96515D01*
X315877Y95320D01*
Y94028D01*
X316372Y92833D01*
X317286Y91919D01*
X318481Y91424D01*
X319774D01*
X320968Y91919D01*
X321082Y92032D01*
X322800Y92068D01*
X323994Y91573D01*
X325287D01*
X326482Y92068D01*
X327396Y92982D01*
X327891Y94176D01*
Y95469D01*
X327396Y96664D01*
X326482Y97578D01*
X325287Y98073D01*
D02*
G37*
G36*
X107299Y98246D02*
X106006D01*
X104812Y97751D01*
X103897Y96837D01*
X103403Y95642D01*
Y94349D01*
X103897Y93155D01*
X104812Y92241D01*
X106006Y91746D01*
X107299D01*
X108493Y92241D01*
X109408Y93155D01*
X109902Y94349D01*
Y95642D01*
X109408Y96837D01*
X108493Y97751D01*
X107299Y98246D01*
D02*
G37*
G36*
X312391Y106700D02*
X311297D01*
X310286Y106281D01*
X309513Y105508D01*
X309094Y104497D01*
Y103403D01*
X308013Y103013D01*
X307992Y103008D01*
X307992D01*
X306797Y102514D01*
X305883Y101600D01*
X305388Y100405D01*
Y99112D01*
X305636Y98512D01*
X305610Y97127D01*
X304696Y96213D01*
X304201Y95018D01*
Y93725D01*
X304696Y92531D01*
X305257Y91970D01*
X305610Y91616D01*
X305331Y90386D01*
X305291Y90288D01*
X303916D01*
X303787Y90599D01*
X302943Y91443D01*
X301841Y91900D01*
X300647D01*
X299545Y91443D01*
X298701Y90599D01*
X298244Y89497D01*
Y88303D01*
X298701Y87201D01*
X299545Y86357D01*
X300647Y85900D01*
X301841D01*
X302943Y86357D01*
X303200Y86614D01*
X304779Y86529D01*
X305247Y85942D01*
X305152Y85088D01*
X304925Y84861D01*
X304430Y83667D01*
Y82374D01*
X304925Y81179D01*
X305839Y80265D01*
X307034Y79770D01*
X308327D01*
X309521Y80265D01*
X310436Y81179D01*
X310930Y82374D01*
Y83667D01*
X310866Y83823D01*
X311550Y85406D01*
X311783Y85487D01*
X313094Y84177D01*
Y83403D01*
X313513Y82392D01*
X314286Y81619D01*
X315297Y81200D01*
X316128D01*
X316744Y80498D01*
X316963Y80062D01*
X316689Y79403D01*
Y78110D01*
X317184Y76915D01*
X318098Y76001D01*
X319293Y75506D01*
X320586D01*
X321780Y76001D01*
X322695Y76915D01*
X323189Y78110D01*
Y79403D01*
X322695Y80597D01*
X321780Y81511D01*
X320586Y82006D01*
X319293D01*
X318438Y83027D01*
X318594Y83403D01*
Y84497D01*
X318175Y85508D01*
X317402Y86281D01*
X316391Y86700D01*
X315617D01*
X313887Y88430D01*
Y90104D01*
X314175Y90392D01*
X314594Y91403D01*
Y92497D01*
X314175Y93508D01*
X313402Y94281D01*
X312391Y94700D01*
X311297D01*
X310454Y95665D01*
X310479Y97003D01*
X311393Y97918D01*
X311888Y99112D01*
Y100405D01*
X311877Y100431D01*
X312391Y101200D01*
X313402Y101619D01*
X314175Y102392D01*
X314594Y103403D01*
Y104497D01*
X314175Y105508D01*
X313402Y106281D01*
X312391Y106700D01*
D02*
G37*
G36*
X58001Y94948D02*
X56807D01*
X55705Y94491D01*
X54861Y93647D01*
X54404Y92545D01*
Y91351D01*
X54861Y90249D01*
X55705Y89405D01*
X56807Y88948D01*
X58001D01*
X59103Y89405D01*
X59947Y90249D01*
X60404Y91351D01*
Y92545D01*
X59947Y93647D01*
X59103Y94491D01*
X58001Y94948D01*
D02*
G37*
G36*
X65567Y92658D02*
X64274D01*
X63080Y92163D01*
X62166Y91249D01*
X61671Y90055D01*
Y88762D01*
X62166Y87567D01*
X63080Y86653D01*
X64274Y86158D01*
X65567D01*
X66762Y86653D01*
X67676Y87567D01*
X68171Y88762D01*
Y90055D01*
X67676Y91249D01*
X66762Y92163D01*
X65567Y92658D01*
D02*
G37*
G36*
X105530Y89868D02*
X104337D01*
X103234Y89411D01*
X102390Y88567D01*
X101933Y87465D01*
Y86271D01*
X102390Y85169D01*
X103234Y84325D01*
X104337Y83868D01*
X105530D01*
X106633Y84325D01*
X107477Y85169D01*
X107934Y86271D01*
Y87465D01*
X107477Y88567D01*
X106633Y89411D01*
X105530Y89868D01*
D02*
G37*
G36*
X325288Y88664D02*
X323995D01*
X322801Y88169D01*
X321886Y87255D01*
X321392Y86061D01*
Y84768D01*
X321886Y83573D01*
X322801Y82659D01*
X323995Y82164D01*
X325288D01*
X326483Y82659D01*
X327397Y83573D01*
X327892Y84768D01*
Y86061D01*
X327397Y87255D01*
X326483Y88169D01*
X325288Y88664D01*
D02*
G37*
G36*
X79608Y92658D02*
X78316D01*
X77121Y92163D01*
X76207Y91249D01*
X75712Y90055D01*
Y88762D01*
X76207Y87567D01*
X76343Y87431D01*
X76045Y85933D01*
X75895Y85871D01*
X75051Y85027D01*
X74594Y83924D01*
Y82731D01*
X75051Y81628D01*
X75895Y80784D01*
X76997Y80328D01*
X78191D01*
X79293Y80784D01*
X80137Y81628D01*
X80594Y82731D01*
Y83924D01*
X80146Y85006D01*
X80138Y85029D01*
X80452Y86508D01*
X80803Y86653D01*
X81717Y87567D01*
X82212Y88762D01*
Y90055D01*
X81717Y91249D01*
X80803Y92163D01*
X79608Y92658D01*
D02*
G37*
G36*
X87306Y84788D02*
X86113D01*
X85010Y84331D01*
X84166Y83487D01*
X83709Y82385D01*
Y81191D01*
X84166Y80089D01*
X85010Y79245D01*
X86113Y78788D01*
X87306D01*
X88409Y79245D01*
X89253Y80089D01*
X89710Y81191D01*
Y82385D01*
X89253Y83487D01*
X88409Y84331D01*
X87306Y84788D01*
D02*
G37*
G36*
X16059Y82966D02*
X14865D01*
X13763Y82509D01*
X12919Y81665D01*
X12462Y80563D01*
Y79369D01*
X12919Y78267D01*
X13763Y77423D01*
X14865Y76966D01*
X16059D01*
X17161Y77423D01*
X18005Y78267D01*
X18462Y79369D01*
Y80563D01*
X18005Y81665D01*
X17161Y82509D01*
X16059Y82966D01*
D02*
G37*
G36*
X60512Y72937D02*
X59219D01*
X58024Y72442D01*
X57110Y71528D01*
X56615Y70333D01*
Y69040D01*
X57110Y67846D01*
X58024Y66932D01*
X59219Y66437D01*
X60512D01*
X61706Y66932D01*
X62621Y67846D01*
X63115Y69040D01*
Y70333D01*
X62621Y71528D01*
X61706Y72442D01*
X60512Y72937D01*
D02*
G37*
G36*
X45094Y71466D02*
X43900D01*
X42798Y71009D01*
X41954Y70165D01*
X41497Y69063D01*
Y67869D01*
X41954Y66767D01*
X42798Y65923D01*
X43900Y65466D01*
X45094D01*
X46197Y65923D01*
X47041Y66767D01*
X47497Y67869D01*
Y69063D01*
X47041Y70165D01*
X46197Y71009D01*
X45094Y71466D01*
D02*
G37*
G36*
X300285Y69756D02*
X299092D01*
X297989Y69300D01*
X297145Y68456D01*
X296689Y67353D01*
Y66160D01*
X297145Y65057D01*
X297989Y64213D01*
X299092Y63756D01*
X300285D01*
X301388Y64213D01*
X302232Y65057D01*
X302689Y66160D01*
Y67353D01*
X302232Y68456D01*
X301388Y69300D01*
X300285Y69756D01*
D02*
G37*
G36*
X276645Y73684D02*
X275551D01*
X274540Y73265D01*
X273767Y72492D01*
X273348Y71481D01*
Y70387D01*
X273767Y69376D01*
X273639Y68134D01*
X273226Y67721D01*
X272732Y66526D01*
Y65234D01*
X273226Y64039D01*
X274141Y63125D01*
X275335Y62630D01*
X276628D01*
X277823Y63125D01*
X278737Y64039D01*
X279232Y65234D01*
Y66526D01*
X278737Y67721D01*
X278653Y67804D01*
X278429Y69376D01*
X278848Y70387D01*
Y71481D01*
X278429Y72492D01*
X277656Y73265D01*
X276645Y73684D01*
D02*
G37*
G36*
X312391Y74700D02*
X311297D01*
X310286Y74281D01*
X309513Y73508D01*
X309094Y72497D01*
Y71403D01*
X309513Y70392D01*
X310286Y69619D01*
X311297Y69200D01*
X311357D01*
X311691Y68408D01*
X311746Y67930D01*
X310935Y67119D01*
X310440Y65925D01*
Y64632D01*
X310935Y63437D01*
X311849Y62523D01*
X313043Y62028D01*
X314336D01*
X315531Y62523D01*
X316445Y63437D01*
X316940Y64632D01*
Y65925D01*
X316445Y67119D01*
X315531Y68033D01*
X314336Y68528D01*
X313970D01*
X313750Y68950D01*
X313581Y69798D01*
X314175Y70392D01*
X314594Y71403D01*
Y72497D01*
X314175Y73508D01*
X313402Y74281D01*
X312391Y74700D01*
D02*
G37*
G36*
X93562Y66702D02*
X92269D01*
X91075Y66207D01*
X90161Y65293D01*
X89666Y64098D01*
Y62806D01*
X90161Y61611D01*
X91075Y60697D01*
X92269Y60202D01*
X93562D01*
X94757Y60697D01*
X95671Y61611D01*
X96166Y62806D01*
Y64098D01*
X95671Y65293D01*
X94757Y66207D01*
X93562Y66702D01*
D02*
G37*
G36*
X22745Y57098D02*
X21451D01*
X20257Y56603D01*
X19343Y55689D01*
X18848Y54495D01*
Y53201D01*
X19343Y52007D01*
X20257Y51093D01*
X21451Y50598D01*
X22745D01*
X23939Y51093D01*
X24853Y52007D01*
X25348Y53201D01*
Y54495D01*
X24853Y55689D01*
X23939Y56603D01*
X22745Y57098D01*
D02*
G37*
G36*
X7250Y53288D02*
X5957D01*
X4763Y52793D01*
X3849Y51879D01*
X3354Y50684D01*
Y49391D01*
X3849Y48197D01*
X4763Y47283D01*
X5957Y46788D01*
X7250D01*
X8445Y47283D01*
X9359Y48197D01*
X9854Y49391D01*
Y50684D01*
X9359Y51879D01*
X8445Y52793D01*
X7250Y53288D01*
D02*
G37*
G36*
X265190Y43841D02*
X263897D01*
X262703Y43346D01*
X261789Y42432D01*
X261294Y41238D01*
Y39945D01*
X261789Y38750D01*
X262703Y37836D01*
X263897Y37341D01*
X265190D01*
X266385Y37836D01*
X267299Y38750D01*
X267794Y39945D01*
Y41238D01*
X267299Y42432D01*
X266385Y43346D01*
X265190Y43841D01*
D02*
G37*
G36*
X320941Y42112D02*
X319648D01*
X318453Y41617D01*
X317539Y40703D01*
X317044Y39509D01*
Y38215D01*
X317539Y37021D01*
X318453Y36107D01*
X319648Y35612D01*
X320941D01*
X322135Y36107D01*
X323049Y37021D01*
X323544Y38215D01*
Y39509D01*
X323049Y40703D01*
X322135Y41617D01*
X320941Y42112D01*
D02*
G37*
G36*
X11813Y39563D02*
X10520D01*
X9326Y39068D01*
X8412Y38154D01*
X7917Y36959D01*
Y35666D01*
X8412Y34472D01*
X9326Y33558D01*
X10520Y33063D01*
X11813D01*
X13008Y33558D01*
X13922Y34472D01*
X14417Y35666D01*
Y36959D01*
X13922Y38154D01*
X13008Y39068D01*
X11813Y39563D01*
D02*
G37*
G36*
X247425Y38610D02*
X246231D01*
X245129Y38154D01*
X244285Y37310D01*
X243828Y36207D01*
Y35014D01*
X244285Y33911D01*
X245129Y33067D01*
X246231Y32611D01*
X247425D01*
X248527Y33067D01*
X249371Y33911D01*
X249828Y35014D01*
Y36207D01*
X249371Y37310D01*
X248527Y38154D01*
X247425Y38610D01*
D02*
G37*
G36*
X234725Y38140D02*
X233432D01*
X232237Y37645D01*
X231323Y36731D01*
X230828Y35537D01*
Y34244D01*
X231323Y33049D01*
X232237Y32135D01*
X233432Y31640D01*
X234725D01*
X235919Y32135D01*
X236833Y33049D01*
X237328Y34244D01*
Y35537D01*
X236833Y36731D01*
X235919Y37645D01*
X234725Y38140D01*
D02*
G37*
G36*
X12330Y31698D02*
X11037D01*
X9843Y31203D01*
X8929Y30289D01*
X8434Y29095D01*
Y27801D01*
X8929Y26607D01*
X9843Y25693D01*
X11037Y25198D01*
X12330D01*
X13525Y25693D01*
X14439Y26607D01*
X14934Y27801D01*
Y29095D01*
X14439Y30289D01*
X13525Y31203D01*
X12330Y31698D01*
D02*
G37*
G36*
X210147Y24747D02*
X208953D01*
X207851Y24291D01*
X207007Y23447D01*
X206590Y22441D01*
X206068Y22244D01*
X205280Y22080D01*
X204759Y22601D01*
X203656Y23058D01*
X202463D01*
X201360Y22601D01*
X200516Y21758D01*
X200060Y20655D01*
Y19696D01*
X199947Y19621D01*
X198654D01*
X197459Y19126D01*
X196545Y18212D01*
X196050Y17017D01*
Y15724D01*
X196545Y14530D01*
X197459Y13615D01*
X198654Y13121D01*
X199947D01*
X201141Y13615D01*
X202056Y14530D01*
X202550Y15724D01*
Y17017D01*
X202578Y17058D01*
X203656D01*
X204362Y17350D01*
X205425Y16737D01*
X205561Y16577D01*
Y15887D01*
X206056Y14692D01*
X206970Y13778D01*
X208165Y13283D01*
X209458D01*
X210652Y13778D01*
X210837Y13962D01*
X212120Y14160D01*
X212412Y13878D01*
X213043Y13247D01*
X214237Y12752D01*
X215530D01*
X216725Y13247D01*
X217639Y14161D01*
X218134Y15355D01*
Y16648D01*
X217639Y17843D01*
X216725Y18757D01*
X215530Y19252D01*
X214237D01*
X213591Y18984D01*
X212239Y19417D01*
X212057Y19567D01*
X211945Y19900D01*
X212093Y20048D01*
X212550Y21151D01*
Y22344D01*
X212093Y23447D01*
X211249Y24291D01*
X210147Y24747D01*
D02*
G37*
G36*
X223821D02*
X222528D01*
X221334Y24253D01*
X220420Y23338D01*
X219925Y22144D01*
Y20851D01*
X220420Y19656D01*
X221334Y18742D01*
X222528Y18247D01*
X223821D01*
X225016Y18742D01*
X225930Y19656D01*
X226425Y20851D01*
Y22144D01*
X225930Y23338D01*
X225016Y24253D01*
X223821Y24747D01*
D02*
G37*
G36*
X168636Y24586D02*
X167344D01*
X166149Y24091D01*
X165235Y23177D01*
X164740Y21983D01*
Y20689D01*
X165235Y19495D01*
X166149Y18581D01*
X167344Y18086D01*
X168636D01*
X169831Y18581D01*
X170745Y19495D01*
X171240Y20689D01*
Y21983D01*
X170745Y23177D01*
X169831Y24091D01*
X168636Y24586D01*
D02*
G37*
G36*
X59383Y30499D02*
X59121Y30391D01*
X58227Y30179D01*
X57770Y30088D01*
X57677Y30026D01*
X57567D01*
X56365Y29528D01*
X56286Y29450D01*
X56178Y29428D01*
X55748Y29141D01*
X54974Y28653D01*
X54712Y28545D01*
X54002Y27834D01*
X54002Y27834D01*
X53890Y27565D01*
X53411Y26789D01*
X53155Y26405D01*
X53133Y26297D01*
X53055Y26218D01*
X52557Y25016D01*
Y24906D01*
X52495Y24813D01*
X52405Y24359D01*
X52195Y23472D01*
X52084Y23202D01*
X52084Y22245D01*
X52354Y21210D01*
X52361Y21177D01*
X52495Y20538D01*
X52519Y20503D01*
X52555Y20343D01*
X52557Y20335D01*
X52739Y19895D01*
X53055Y19133D01*
X53133Y19055D01*
X53155Y18946D01*
X53251Y18802D01*
X53893Y17831D01*
X54023Y17552D01*
X54062Y17457D01*
X54062Y17457D01*
X54315Y17205D01*
X54566Y16952D01*
X54567Y16952D01*
X54593Y16941D01*
X55096Y16646D01*
X56178Y15924D01*
X56286Y15902D01*
X56365Y15823D01*
X57567Y15326D01*
X57677D01*
X57770Y15264D01*
X59046Y15010D01*
X59611Y14852D01*
X59991D01*
X60769Y15010D01*
X61215Y15099D01*
X62045Y15264D01*
X62137Y15326D01*
X62248D01*
X63450Y15823D01*
X63528Y15902D01*
X63637Y15924D01*
X64718Y16646D01*
X64780Y16738D01*
X64882Y16781D01*
X65802Y17701D01*
X65845Y17803D01*
X65937Y17865D01*
X66659Y18946D01*
X66681Y19055D01*
X66760Y19133D01*
X67257Y20335D01*
Y20446D01*
X67319Y20538D01*
X67573Y21814D01*
X67551Y21923D01*
X67594Y22025D01*
Y23326D01*
X67551Y23429D01*
X67573Y23537D01*
X67319Y24813D01*
X67257Y24906D01*
Y25016D01*
X66760Y26218D01*
X66681Y26297D01*
X66659Y26405D01*
X66156Y27159D01*
X65937Y27487D01*
X65465Y28174D01*
X65458Y28189D01*
X65458Y28189D01*
X65345Y28300D01*
X65234Y28413D01*
X65234Y28413D01*
X65206Y28425D01*
X64718Y28705D01*
X64183Y29063D01*
X63637Y29428D01*
X63528Y29450D01*
X63450Y29528D01*
X62586Y29886D01*
X62248Y30026D01*
X62244Y30027D01*
X62081Y30063D01*
X62045Y30088D01*
X61683Y30160D01*
X61362Y30224D01*
X60222Y30499D01*
X59383Y30499D01*
X59383Y30499D01*
D02*
G37*
G36*
X280362Y27452D02*
X280102Y27343D01*
X279207Y27131D01*
X278750Y27040D01*
X278657Y26978D01*
X278547D01*
X277345Y26480D01*
X277266Y26402D01*
X277158Y26380D01*
X276728Y26093D01*
X275954Y25605D01*
X275692Y25497D01*
X274982Y24786D01*
X274982Y24786D01*
X274870Y24517D01*
X274391Y23741D01*
X274135Y23357D01*
X274113Y23249D01*
X274035Y23170D01*
X273537Y21968D01*
Y21858D01*
X273475Y21765D01*
X273385Y21311D01*
X273175Y20424D01*
X273064Y20154D01*
X273064Y19197D01*
X273334Y18162D01*
X273341Y18130D01*
X273475Y17490D01*
X273499Y17455D01*
X273535Y17295D01*
X273537Y17287D01*
X273719Y16847D01*
X274035Y16085D01*
X274113Y16007D01*
X274135Y15898D01*
X274231Y15754D01*
X274873Y14784D01*
X275003Y14504D01*
X275042Y14409D01*
X275042Y14409D01*
X275295Y14157D01*
X275546Y13904D01*
X275547Y13904D01*
X275573Y13893D01*
X276076Y13598D01*
X277158Y12875D01*
X277266Y12854D01*
X277345Y12775D01*
X278547Y12278D01*
X278657D01*
X278750Y12216D01*
X280026Y11962D01*
X280591Y11804D01*
X280970D01*
X281749Y11962D01*
X282195Y12051D01*
X283025Y12216D01*
X283117Y12278D01*
X283228D01*
X284429Y12775D01*
X284508Y12854D01*
X284617Y12875D01*
X285698Y13598D01*
X285760Y13690D01*
X285862Y13733D01*
X286782Y14653D01*
X286825Y14755D01*
X286917Y14817D01*
X287640Y15898D01*
X287661Y16007D01*
X287740Y16085D01*
X288237Y17287D01*
Y17398D01*
X288299Y17490D01*
X288553Y18766D01*
X288531Y18875D01*
X288574Y18977D01*
Y20278D01*
X288531Y20381D01*
X288553Y20489D01*
X288299Y21765D01*
X288237Y21858D01*
Y21968D01*
X287740Y23170D01*
X287661Y23249D01*
X287640Y23357D01*
X287136Y24111D01*
X286917Y24439D01*
X286445Y25126D01*
X286438Y25141D01*
X286438Y25141D01*
X286325Y25252D01*
X286214Y25365D01*
X286214Y25365D01*
X286186Y25377D01*
X285698Y25657D01*
X285163Y26015D01*
X284617Y26380D01*
X284508Y26402D01*
X284429Y26480D01*
X283566Y26838D01*
X283228Y26978D01*
X283224Y26979D01*
X283061Y27015D01*
X283025Y27040D01*
X282663Y27112D01*
X282342Y27176D01*
X281202Y27452D01*
X280363Y27451D01*
X280362Y27452D01*
D02*
G37*
G36*
X176669Y23062D02*
X175376D01*
X174181Y22567D01*
X173267Y21653D01*
X172772Y20459D01*
Y19166D01*
X173267Y17971D01*
X173948Y17290D01*
X174169Y16928D01*
X174053Y15735D01*
X173733Y15415D01*
X173276Y14313D01*
Y13119D01*
X173733Y12017D01*
X174577Y11173D01*
X175679Y10716D01*
X176873D01*
X177975Y11173D01*
X178819Y12017D01*
X179276Y13119D01*
Y14313D01*
X178819Y15415D01*
X178350Y15884D01*
X178061Y16581D01*
X178304Y17498D01*
X178778Y17971D01*
X179272Y19166D01*
Y20459D01*
X178778Y21653D01*
X177863Y22567D01*
X176669Y23062D01*
D02*
G37*
G36*
X19442Y15188D02*
X18149D01*
X16955Y14693D01*
X16041Y13779D01*
X15546Y12585D01*
Y11292D01*
X16041Y10097D01*
X16955Y9183D01*
X18149Y8688D01*
X19442D01*
X20637Y9183D01*
X21551Y10097D01*
X22046Y11292D01*
Y12585D01*
X21551Y13779D01*
X20637Y14693D01*
X19442Y15188D01*
D02*
G37*
G36*
X70332Y5796D02*
X68352D01*
X68250Y5754D01*
X68141Y5776D01*
X66200Y5390D01*
X66108Y5328D01*
X65997D01*
X64168Y4570D01*
X64090Y4492D01*
X63981Y4470D01*
X62335Y3371D01*
X62274Y3279D01*
X62171Y3236D01*
X60772Y1837D01*
X60729Y1734D01*
X60637Y1673D01*
X59538Y27D01*
X59516Y-82D01*
X59437Y-160D01*
X58680Y-1989D01*
Y-2100D01*
X58618Y-2192D01*
X58232Y-4133D01*
X58254Y-4242D01*
X58211Y-4344D01*
Y-6324D01*
X58254Y-6426D01*
X58232Y-6535D01*
X58618Y-8476D01*
X58680Y-8568D01*
Y-8679D01*
X59437Y-10508D01*
X59516Y-10586D01*
X59538Y-10695D01*
X60637Y-12341D01*
X60729Y-12402D01*
X60772Y-12505D01*
X62171Y-13904D01*
X62274Y-13947D01*
X62335Y-14039D01*
X63981Y-15138D01*
X64090Y-15160D01*
X64168Y-15238D01*
X65997Y-15996D01*
X66108D01*
X66200Y-16057D01*
X68141Y-16444D01*
X68250Y-16422D01*
X68352Y-16465D01*
X70332D01*
X70434Y-16422D01*
X70543Y-16444D01*
X72484Y-16057D01*
X72576Y-15996D01*
X72687D01*
X74516Y-15238D01*
X74594Y-15160D01*
X74703Y-15138D01*
X76349Y-14039D01*
X76410Y-13947D01*
X76513Y-13904D01*
X77912Y-12505D01*
X77955Y-12402D01*
X78047Y-12341D01*
X79146Y-10695D01*
X79168Y-10586D01*
X79247Y-10508D01*
X80004Y-8679D01*
Y-8568D01*
X80065Y-8476D01*
X80452Y-6535D01*
X80430Y-6426D01*
X80472Y-6324D01*
Y-4344D01*
X80430Y-4242D01*
X80452Y-4133D01*
X80065Y-2192D01*
X80004Y-2100D01*
Y-1989D01*
X79247Y-160D01*
X79168Y-82D01*
X79146Y27D01*
X78047Y1673D01*
X77955Y1734D01*
X77912Y1837D01*
X76513Y3236D01*
X76410Y3279D01*
X76349Y3371D01*
X74703Y4470D01*
X74594Y4492D01*
X74516Y4570D01*
X72687Y5328D01*
X72576D01*
X72484Y5390D01*
X70543Y5776D01*
X70434Y5754D01*
X70332Y5796D01*
D02*
G37*
G36*
X270484Y5034D02*
X268504D01*
X268402Y4992D01*
X268293Y5014D01*
X266352Y4627D01*
X266260Y4566D01*
X266149D01*
X264320Y3808D01*
X264242Y3730D01*
X264133Y3708D01*
X262487Y2609D01*
X262426Y2517D01*
X262323Y2474D01*
X260924Y1075D01*
X260881Y972D01*
X260789Y911D01*
X259690Y-735D01*
X259668Y-844D01*
X259590Y-922D01*
X258832Y-2751D01*
Y-2862D01*
X258771Y-2954D01*
X258384Y-4895D01*
X258406Y-5004D01*
X258363Y-5106D01*
Y-7086D01*
X258406Y-7188D01*
X258384Y-7297D01*
X258771Y-9238D01*
X258832Y-9330D01*
Y-9441D01*
X259590Y-11270D01*
X259668Y-11348D01*
X259690Y-11457D01*
X260789Y-13103D01*
X260881Y-13164D01*
X260924Y-13267D01*
X262323Y-14666D01*
X262426Y-14709D01*
X262487Y-14801D01*
X264133Y-15900D01*
X264242Y-15922D01*
X264320Y-16000D01*
X266149Y-16758D01*
X266260D01*
X266352Y-16819D01*
X268293Y-17206D01*
X268402Y-17184D01*
X268504Y-17227D01*
X270484D01*
X270586Y-17184D01*
X270695Y-17206D01*
X272636Y-16819D01*
X272728Y-16758D01*
X272839D01*
X274668Y-16000D01*
X274746Y-15922D01*
X274855Y-15900D01*
X276501Y-14801D01*
X276562Y-14709D01*
X276665Y-14666D01*
X278064Y-13267D01*
X278107Y-13164D01*
X278199Y-13103D01*
X279298Y-11457D01*
X279320Y-11348D01*
X279398Y-11270D01*
X280156Y-9441D01*
Y-9330D01*
X280217Y-9238D01*
X280576Y-7439D01*
X280604Y-7297D01*
X280762Y-6189D01*
Y-6096D01*
X280604Y-4895D01*
X280602Y-4890D01*
X280217Y-2954D01*
X280156Y-2862D01*
Y-2751D01*
X279398Y-922D01*
X279320Y-844D01*
X279298Y-735D01*
X278199Y911D01*
X278107Y972D01*
X278064Y1075D01*
X276665Y2474D01*
X276562Y2517D01*
X276501Y2609D01*
X274855Y3708D01*
X274746Y3730D01*
X274668Y3808D01*
X272839Y4566D01*
X272728D01*
X272636Y4627D01*
X270695Y5014D01*
X270586Y4992D01*
X270484Y5034D01*
D02*
G37*
G36*
X41795Y9854D02*
X40501D01*
X39307Y9359D01*
X38393Y8445D01*
X37898Y7250D01*
Y5957D01*
X38393Y4763D01*
X39307Y3849D01*
X40501Y3354D01*
X41795D01*
X42989Y3849D01*
X43903Y4763D01*
X44398Y5957D01*
Y7250D01*
X43903Y8445D01*
X42989Y9359D01*
X41795Y9854D01*
D02*
G37*
G36*
X300977Y8736D02*
X299684D01*
X298489Y8241D01*
X297575Y7327D01*
X297080Y6132D01*
Y4839D01*
X297575Y3645D01*
X298489Y2731D01*
X299684Y2236D01*
X300977D01*
X302171Y2731D01*
X303085Y3645D01*
X303580Y4839D01*
Y6132D01*
X303085Y7327D01*
X302171Y8241D01*
X300977Y8736D01*
D02*
G37*
G36*
X188299Y-6254D02*
X187105D01*
X186003Y-6711D01*
X185159Y-7555D01*
X184702Y-8657D01*
Y-9851D01*
X185159Y-10953D01*
X186003Y-11797D01*
X187105Y-12254D01*
X188299D01*
X189401Y-11797D01*
X190245Y-10953D01*
X190702Y-9851D01*
Y-8657D01*
X190245Y-7555D01*
X189401Y-6711D01*
X188299Y-6254D01*
D02*
G37*
G36*
X115709Y-27484D02*
X114416D01*
X113221Y-27979D01*
X112307Y-28893D01*
X111812Y-30087D01*
Y-31381D01*
X112307Y-32575D01*
X113221Y-33489D01*
X114416Y-33984D01*
X115709D01*
X116903Y-33489D01*
X117817Y-32575D01*
X118312Y-31381D01*
Y-30087D01*
X117817Y-28893D01*
X116903Y-27979D01*
X115709Y-27484D01*
D02*
G37*
G36*
X155233Y87332D02*
X154139D01*
X153128Y86913D01*
X152355Y86140D01*
X151936Y85129D01*
Y84035D01*
X152169Y83471D01*
X152112Y82073D01*
X151339Y81299D01*
X150920Y80289D01*
Y79195D01*
X151339Y78184D01*
X151451Y78072D01*
X152001Y77242D01*
X151451Y76412D01*
X151339Y76300D01*
X150920Y75289D01*
Y74195D01*
X151339Y73184D01*
X152112Y72411D01*
X153123Y71992D01*
X154217D01*
X154452Y72090D01*
X155854Y72025D01*
X156768Y71111D01*
X157962Y70616D01*
X159255D01*
X160450Y71111D01*
X161364Y72025D01*
X161859Y73220D01*
Y74513D01*
X161364Y75707D01*
X160450Y76621D01*
X159255Y77116D01*
X157962D01*
X156768Y76621D01*
X156510Y76710D01*
X156015Y77795D01*
X156001Y78184D01*
X156420Y79195D01*
Y80289D01*
X156187Y80852D01*
X156244Y82251D01*
X157017Y83024D01*
X157436Y84035D01*
Y85129D01*
X157017Y86140D01*
X156244Y86913D01*
X155233Y87332D01*
D02*
G37*
G36*
X149217Y67492D02*
X148123D01*
X147113Y67073D01*
X147000Y66961D01*
X146170Y66412D01*
X145340Y66961D01*
X145228Y67073D01*
X144217Y67492D01*
X143123D01*
X142112Y67073D01*
X141339Y66300D01*
X140920Y65289D01*
Y64195D01*
X141339Y63184D01*
X142112Y62411D01*
X143123Y61992D01*
X144217D01*
X145228Y62411D01*
X145340Y62523D01*
X146170Y63073D01*
X147000Y62523D01*
X147113Y62411D01*
X148123Y61992D01*
X149217D01*
X150228Y62411D01*
X151002Y63184D01*
X151420Y64195D01*
Y65289D01*
X151002Y66300D01*
X150228Y67073D01*
X149217Y67492D01*
D02*
G37*
G36*
X184217D02*
X183123D01*
X182112Y67073D01*
X182000Y66961D01*
X181170Y66411D01*
X180340Y66961D01*
X180228Y67073D01*
X179217Y67492D01*
X178123D01*
X177113Y67073D01*
X176339Y66300D01*
X175920Y65289D01*
Y64195D01*
X176339Y63184D01*
X177113Y62411D01*
X178123Y61992D01*
X179217D01*
X180228Y62411D01*
X180340Y62523D01*
X181170Y63073D01*
X182000Y62523D01*
X182112Y62411D01*
X183123Y61992D01*
X184217D01*
X185228Y62411D01*
X186001Y63184D01*
X186420Y64195D01*
Y65289D01*
X186001Y66300D01*
X185228Y67073D01*
X184217Y67492D01*
D02*
G37*
G36*
X150283Y52912D02*
X148990D01*
X147796Y52417D01*
X146882Y51503D01*
X146387Y50308D01*
Y49016D01*
X146882Y47821D01*
X147796Y46907D01*
X148990Y46412D01*
X150283D01*
X151478Y46907D01*
X152392Y47821D01*
X152887Y49016D01*
Y50308D01*
X152392Y51503D01*
X151478Y52417D01*
X150283Y52912D01*
D02*
G37*
G36*
X131093Y55757D02*
X129800D01*
X128605Y55262D01*
X127691Y54348D01*
X127196Y53154D01*
Y51861D01*
X127323Y51555D01*
X127564Y50585D01*
X126688Y50022D01*
X126415Y49908D01*
X125501Y48994D01*
X125006Y47800D01*
Y46507D01*
X125501Y45312D01*
X126415Y44398D01*
X127610Y43903D01*
X128903D01*
X130097Y44398D01*
X131011Y45312D01*
X131506Y46507D01*
Y47800D01*
X131379Y48106D01*
X131138Y49076D01*
X132014Y49639D01*
X132287Y49752D01*
X133201Y50666D01*
X133696Y51861D01*
Y53154D01*
X133201Y54348D01*
X132287Y55262D01*
X131093Y55757D01*
D02*
G37*
G36*
X136935Y50240D02*
X135642D01*
X134447Y49745D01*
X133533Y48831D01*
X133038Y47636D01*
Y46343D01*
X133533Y45149D01*
X134447Y44235D01*
X135642Y43740D01*
X136935D01*
X138129Y44235D01*
X139044Y45149D01*
X139538Y46343D01*
Y47636D01*
X139044Y48831D01*
X138129Y49745D01*
X136935Y50240D01*
D02*
G37*
%LPD*%
D17*
X232966Y62740D02*
X235204Y60502D01*
X232966Y62740D02*
Y62953D01*
X235204Y59690D02*
Y60502D01*
X201237Y139297D02*
X201370D01*
X195997Y134057D02*
X201237Y139297D01*
X212186Y131198D02*
Y140366D01*
X207170Y145382D02*
X212186Y140366D01*
X207170Y145382D02*
Y146192D01*
X205154Y148207D02*
Y152716D01*
Y148207D02*
X207170Y146192D01*
X235243Y66333D02*
X239776Y70866D01*
X264160D01*
X270948Y77654D01*
X241416Y84352D02*
X253210D01*
X259584Y77978D01*
X228220Y64141D02*
Y79380D01*
X230736Y65183D02*
Y78338D01*
X230450Y61687D02*
Y61911D01*
X228220Y64141D02*
X230450Y61911D01*
X230736Y65183D02*
X232966Y62953D01*
X173110Y81324D02*
Y87768D01*
X170530Y78744D02*
X173110Y81324D01*
X170530Y71683D02*
Y78744D01*
Y71683D02*
X172186Y70027D01*
Y49308D02*
Y70027D01*
X171137Y48258D02*
X172186Y49308D01*
X169892Y48258D02*
X171137D01*
X168257Y46624D02*
X169892Y48258D01*
X167446Y46624D02*
X168257D01*
X108028Y77683D02*
X108045D01*
X116258Y85896D01*
X168658Y125025D02*
X168874Y124809D01*
Y113781D02*
Y124809D01*
X116706Y40252D02*
X140596D01*
X105410Y28956D02*
X116706Y40252D01*
X140596D02*
X146812Y34036D01*
X137338Y86018D02*
Y89777D01*
X88392Y44767D02*
X122117Y78492D01*
X88392Y-343D02*
Y44767D01*
X122117Y78492D02*
X129812D01*
X113638Y50896D02*
Y54425D01*
X139838Y79538D02*
Y87552D01*
X137338Y89777D02*
X143462Y95901D01*
Y115712D01*
X124727Y65515D02*
X125815D01*
X112322Y72233D02*
X121081Y80992D01*
X140946Y96921D02*
Y114670D01*
X134838Y90813D02*
X140946Y96921D01*
X134838Y87054D02*
Y90813D01*
X128776Y80992D02*
X134838Y87054D01*
X129812Y78492D02*
X137338Y86018D01*
X121081Y80992D02*
X128776D01*
X113638Y54425D02*
X124727Y65515D01*
X125815D02*
X139838Y79538D01*
X107131Y72233D02*
X112322D01*
X120154Y93286D02*
X121033Y92407D01*
X123577D02*
X125347Y90637D01*
X121033Y92407D02*
X123577D01*
X125347Y90637D02*
X126024D01*
X101394Y38651D02*
X113638Y50896D01*
X248251Y93950D02*
X248349D01*
X240514Y101686D02*
X248251Y93950D01*
X177913Y104742D02*
X183670D01*
X168874Y113781D02*
X177913Y104742D01*
X179106Y241016D02*
X204464Y266374D01*
X150324Y213228D02*
Y217069D01*
X204464Y266374D02*
X211296D01*
X143046Y205950D02*
X150324Y213228D01*
X174271Y241016D02*
X179106D01*
X150324Y217069D02*
X174271Y241016D01*
X177823Y222722D02*
Y227007D01*
X159662Y204561D02*
X177823Y222722D01*
X159662Y186478D02*
Y204561D01*
X95366Y205950D02*
X143046D01*
X205154Y123230D02*
X220688Y107696D01*
X213670Y104742D02*
X224110D01*
X220688Y107696D02*
X224715D01*
X228642Y103768D01*
X140154Y151552D02*
Y156198D01*
X139904Y151302D02*
X140154Y151552D01*
X144224Y143558D02*
X150955D01*
X139904Y147878D02*
Y151302D01*
Y147878D02*
X144224Y143558D01*
X132975Y132548D02*
Y152578D01*
X127762Y128524D02*
Y143668D01*
X103172Y168258D02*
X127762Y143668D01*
X132975Y152578D02*
X138430Y158032D01*
X130459Y131506D02*
X134874Y127092D01*
X130459Y131506D02*
Y160094D01*
X134176Y163811D01*
X132975Y132548D02*
X137390Y128134D01*
Y114668D02*
X138430Y113628D01*
X137390Y114668D02*
Y128134D01*
X132290Y91800D02*
X133585Y93096D01*
Y93096D02*
X138430Y97941D01*
X134874Y105744D02*
Y127092D01*
X133585Y93096D02*
Y93096D01*
X104178Y134234D02*
X118670Y119742D01*
X73611Y134414D02*
X88172D01*
X90016Y138250D02*
X94031Y142266D01*
X89776Y196802D02*
X145804D01*
X88172Y134414D02*
X88352Y134234D01*
X104178D01*
X87424Y161240D02*
X94031Y154632D01*
Y142266D02*
Y154632D01*
X22282Y73379D02*
X29767D01*
X12601Y71184D02*
X20086D01*
X10406Y73379D02*
X12601Y71184D01*
X9594Y73379D02*
X10406D01*
X20086Y71184D02*
X22282Y73379D01*
X125121Y35681D02*
X125894Y34908D01*
X121794Y35681D02*
X125121D01*
X121021Y34908D02*
X121794Y35681D01*
X125894Y34908D02*
X142382D01*
X116194D02*
X121021D01*
X128900Y99770D02*
X134874Y105744D01*
X128900Y99453D02*
Y99770D01*
X114383Y95498D02*
Y106477D01*
X118110Y125274D02*
X122186Y121199D01*
X118110Y114210D02*
X122186Y118286D01*
X118110Y98541D02*
Y114210D01*
X122186Y118286D02*
Y121199D01*
X122615Y88710D02*
X124448Y86877D01*
X118110Y125274D02*
Y134112D01*
X118110Y98541D02*
X120154Y96497D01*
X91440Y160782D02*
X118110Y134112D01*
X120154Y93286D02*
Y96497D01*
X121172Y88710D02*
X122615D01*
X114383Y95498D02*
X121172Y88710D01*
X232000Y147710D02*
Y152116D01*
X232616Y152733D02*
Y155924D01*
X232000Y152116D02*
X232616Y152733D01*
X107131Y72233D02*
X107131Y72233D01*
X231886Y147596D02*
X232000Y147710D01*
X138430Y97941D02*
Y113628D01*
X247844Y139950D02*
X261474D01*
X234713Y141207D02*
Y143958D01*
X232000Y146671D02*
Y147483D01*
Y146671D02*
X234713Y143958D01*
X261474Y139950D02*
X265928Y135496D01*
X283690Y125955D02*
X283844Y126109D01*
X270133Y139512D02*
X281492D01*
X265928Y135496D02*
X279828D01*
X283844Y126109D02*
Y137159D01*
X265086Y144558D02*
X270133Y139512D01*
X281492D02*
X283844Y137159D01*
X311844Y91950D02*
X312103Y91691D01*
Y87691D02*
X315844Y83950D01*
X312103Y87691D02*
Y91691D01*
X265086Y144558D02*
Y149307D01*
X266155Y150376D01*
Y153726D01*
X265618Y154263D02*
X266155Y153726D01*
X265618Y154263D02*
Y180843D01*
X79360Y152866D02*
Y189944D01*
X67793Y140232D02*
X73611Y134414D01*
X23465Y154640D02*
X37873Y140232D01*
X67793D01*
X145978Y122143D02*
X154843Y131008D01*
X165014Y133524D02*
X166736Y131802D01*
X177949D01*
X154843Y131008D02*
X163972D01*
X177949Y131802D02*
X180204Y134057D01*
X165694Y129286D02*
X184542D01*
X153801Y133524D02*
X165014D01*
X143462Y123185D02*
X153801Y133524D01*
X163972Y131008D02*
X165694Y129286D01*
X132290Y88102D02*
Y91800D01*
X129072Y88382D02*
Y88442D01*
X103840Y117021D02*
Y124492D01*
X127568Y86877D02*
X129072Y88382D01*
X131588Y87339D02*
Y87400D01*
X121871Y85896D02*
X123406Y84361D01*
X103840Y117021D02*
X114383Y106477D01*
X128610Y84361D02*
X131588Y87339D01*
X123406Y84361D02*
X128610D01*
X129072Y88442D02*
X129774Y89144D01*
X116258Y85896D02*
X121871D01*
X131588Y87400D02*
X132290Y88102D01*
X124448Y86877D02*
X127568D01*
X129774Y94648D02*
X134414Y99288D01*
X129774Y89144D02*
Y94648D01*
X134414Y99288D02*
Y99604D01*
X139838Y87552D02*
X147300Y95014D01*
X27743Y68466D02*
X28412D01*
X39208Y79262D01*
X60454D01*
X70772Y89580D01*
Y93124D01*
X75438Y97790D01*
X29767Y73379D02*
X43453Y87066D01*
X260350Y20828D02*
X265619Y26097D01*
X288036Y52679D02*
Y58737D01*
X277179Y41822D02*
X288036Y52679D01*
X267416Y26097D02*
X277179Y35860D01*
X265619Y26097D02*
X267416D01*
X277179Y35860D02*
Y41822D01*
X283690Y95220D02*
Y125955D01*
X282989Y63784D02*
Y94519D01*
X283690Y95220D01*
X282989Y63784D02*
X288036Y58737D01*
X254029Y192432D02*
Y197718D01*
X250698Y201049D02*
X254029Y197718D01*
X250698Y201049D02*
Y255361D01*
X254029Y192432D02*
X265618Y180843D01*
X230832Y41548D02*
Y61305D01*
X230450Y61687D02*
X230832Y61305D01*
X228220Y79380D02*
X230750Y81910D01*
X244741Y261318D02*
X250698Y255361D01*
X234476Y265228D02*
X238386Y261318D01*
X224128Y262712D02*
X229538Y257302D01*
X212442Y265228D02*
X234476D01*
X209681Y258866D02*
X210243D01*
X229538Y257302D02*
X243078D01*
X207774Y263858D02*
X210254D01*
X211400Y262712D02*
X224128D01*
X210254Y263858D02*
X211400Y262712D01*
X238386Y261318D02*
X244741D01*
X177823Y227007D02*
X209681Y258866D01*
X211296Y266374D02*
X212442Y265228D01*
X79360Y189944D02*
X95366Y205950D01*
X165974Y39116D02*
Y39473D01*
X174702Y48201D01*
Y49442D01*
X180205Y54944D01*
X148526Y37648D02*
X163829D01*
X148372Y37802D02*
X148526Y37648D01*
X165298Y39116D02*
X165974D01*
X163829Y37648D02*
X165298Y39116D01*
X215125Y31520D02*
X215903Y32298D01*
X145770Y31520D02*
X215125D01*
X218024Y32298D02*
X227724Y41998D01*
X111634Y30347D02*
X116194Y34908D01*
X142382D02*
X145770Y31520D01*
X193088Y29004D02*
X218288D01*
X189244Y25160D02*
X193088Y29004D01*
X215903Y32298D02*
X218024D01*
X214083Y34036D02*
X220389Y40342D01*
X146812Y34036D02*
X214083D01*
X218288Y29004D02*
X230832Y41548D01*
X107074Y24940D02*
X111634Y29501D01*
Y30347D01*
X222510Y40342D02*
X225208Y43040D01*
X220389Y40342D02*
X222510D01*
X182420Y42024D02*
Y51236D01*
X197638Y66455D01*
Y71259D01*
X184048Y17928D02*
X189244Y23124D01*
X59182Y126448D02*
X63364Y130630D01*
X76896D01*
X149720Y160792D02*
X231306D01*
X231826Y163830D02*
X242902Y152754D01*
X140154Y156198D02*
X147264Y163308D01*
X189079D02*
X189601Y163830D01*
X143670Y154742D02*
X149720Y160792D01*
X147264Y163308D02*
X189079D01*
X189601Y163830D02*
X231826D01*
X231306Y160792D02*
X239540Y152557D01*
X189244Y23124D02*
Y25160D01*
X205576Y132468D02*
Y141284D01*
X201966Y144894D02*
X205576Y141284D01*
X240514Y101686D02*
Y138964D01*
X237998Y98044D02*
Y137922D01*
Y98044D02*
X239228Y96814D01*
Y90099D02*
Y96814D01*
X236712Y89057D02*
X241416Y84352D01*
X242006Y87320D02*
X254549D01*
X239228Y90099D02*
X242006Y87320D01*
X235482Y91922D02*
X236712Y90692D01*
Y89057D02*
Y90692D01*
X235482Y91922D02*
Y100864D01*
X232156Y104191D02*
X235482Y100864D01*
X232156Y104191D02*
Y113113D01*
X223088Y122182D02*
X232156Y113113D01*
X230736Y78338D02*
X233266Y80868D01*
X230750Y81910D02*
Y88392D01*
X225704Y80422D02*
X228234Y82952D01*
Y87349D01*
X233266Y80868D02*
Y90580D01*
X219837Y74027D02*
X225704Y79894D01*
Y80422D01*
X228685Y103768D02*
X232966Y99487D01*
Y90880D02*
Y99487D01*
X228642Y103768D02*
X228685D01*
X224110Y104742D02*
X227600Y101252D01*
X230450Y88691D02*
X230750Y88392D01*
X230450Y88691D02*
Y98445D01*
X227643Y101252D02*
X230450Y98445D01*
X227600Y101252D02*
X227643D01*
X150955Y143558D02*
X153379Y145982D01*
X158220D01*
X138430Y158032D02*
Y164507D01*
X140946Y124227D02*
X158685Y141966D01*
X160154Y156198D02*
X162214Y158258D01*
X162236Y144319D02*
Y151204D01*
X158685Y141966D02*
X159883D01*
X162214Y158258D02*
X174976D01*
X174995Y158276D01*
X160154Y153286D02*
X162236Y151204D01*
X160154Y153286D02*
Y156198D01*
X159883Y141966D02*
X162236Y144319D01*
X174995Y158276D02*
X230264D01*
X243030Y129689D02*
Y145116D01*
X242902Y145245D02*
X243030Y145116D01*
X242902Y145245D02*
Y152754D01*
X243030Y129689D02*
X258879Y113839D01*
X239540Y139938D02*
Y152557D01*
X97282Y162881D02*
Y178097D01*
X105621Y186436D01*
X146304D01*
X149333Y179707D02*
X157146Y187520D01*
X134176Y171894D02*
X141989Y179707D01*
X149333D01*
X145804Y196802D02*
X153630Y188976D01*
X146285Y172361D02*
Y173100D01*
X159662Y186478D01*
X157146Y207446D02*
X169594Y219894D01*
X138430Y164507D02*
X146285Y172361D01*
X157146Y187520D02*
Y207446D01*
X87424Y161240D02*
Y194450D01*
X134176Y163811D02*
Y171894D01*
X87424Y194450D02*
X89776Y196802D01*
X91440Y160782D02*
Y192786D01*
X255827Y88598D02*
X265986D01*
X254549Y87320D02*
X255827Y88598D01*
X265986D02*
X270948Y83636D01*
X148963Y119449D02*
X168554Y99858D01*
X142431Y116743D02*
X143462Y115712D01*
X142431Y122154D02*
X143462Y123185D01*
X144947Y121112D02*
X145978Y122143D01*
Y116755D02*
X145978Y116754D01*
X139915Y115701D02*
X140946Y114670D01*
X145978Y122143D02*
X145978Y122143D01*
X139915Y115701D02*
Y123197D01*
X144947Y117785D02*
Y121112D01*
Y117785D02*
X145978Y116755D01*
X143462Y115712D02*
X143462Y115712D01*
X140946Y114670D02*
X140946Y114670D01*
X139915Y123197D02*
X140946Y124227D01*
X142431Y116743D02*
Y122154D01*
X145978Y116754D02*
X147300Y115433D01*
X103172Y168258D02*
Y178308D01*
X218207Y125177D02*
X220092D01*
X223088Y122182D01*
X87986Y-749D02*
X88392Y-343D01*
X101394Y38239D02*
Y38651D01*
X105410Y36576D02*
Y36988D01*
X98878Y35724D02*
X101394Y38239D01*
X101394Y32560D02*
X105410Y36576D01*
X168554Y99858D02*
X179497D01*
X185050Y128806D02*
X188670Y125185D01*
X184542Y129286D02*
X185022Y128806D01*
X185050D01*
X188670Y124742D02*
Y125185D01*
X169594Y219894D02*
Y225678D01*
X207774Y263858D01*
X203670Y154201D02*
Y154742D01*
X205154Y132046D02*
X205576Y132468D01*
X193670Y154742D02*
X196713Y151698D01*
X200324Y144894D02*
X201966D01*
X196713Y148505D02*
X200324Y144894D01*
X203670Y154201D02*
X205154Y152716D01*
X196713Y148505D02*
Y151698D01*
X205154Y123230D02*
Y132046D01*
X180204Y134057D02*
X195997D01*
X70866Y209550D02*
X75438Y204978D01*
X65270Y209550D02*
X70866D01*
X17114Y161394D02*
X65270Y209550D01*
X17114Y128600D02*
Y161394D01*
X5578Y117064D02*
X17114Y128600D01*
X5578Y71716D02*
Y117064D01*
Y71716D02*
X9679Y67614D01*
X7940Y62039D02*
X9679Y63778D01*
Y67614D01*
X7940Y58644D02*
Y62039D01*
X7366Y58070D02*
X7940Y58644D01*
X21130Y158919D02*
X23465Y156584D01*
X21130Y158919D02*
Y159731D01*
X23465Y154640D02*
Y156584D01*
X234713Y141207D02*
X237998Y137922D01*
X239540Y139938D02*
X240514Y138964D01*
X232966Y90880D02*
X233266Y90580D01*
X270948Y77654D02*
Y83636D01*
X226816Y54850D02*
X227724Y53941D01*
X226816Y54850D02*
Y59642D01*
X226816Y59642D02*
X226816Y59642D01*
X227566Y110524D02*
X228140Y109950D01*
X212186Y131198D02*
X218207Y125177D01*
X225763Y89820D02*
X228234Y87349D01*
X197638Y71259D02*
X201138Y74759D01*
X201005Y76428D02*
X201138Y76295D01*
X201005Y76428D02*
Y79471D01*
X201138Y74759D02*
Y76295D01*
X200431Y80045D02*
X201005Y79471D01*
X192952Y53184D02*
X200154Y60387D01*
Y66198D01*
X192952Y46561D02*
Y53184D01*
X209579Y46820D02*
Y48998D01*
Y46820D02*
X210153Y46246D01*
X208932Y49644D02*
X209579Y48998D01*
X98878Y26250D02*
Y35724D01*
X227566Y110524D02*
Y112382D01*
X221908Y118040D02*
X227566Y112382D01*
X220197Y118040D02*
X221908D01*
X220197Y118040D02*
X220197Y118040D01*
X215372Y118040D02*
X220197D01*
X208670Y124742D02*
X215372Y118040D01*
X200154Y66198D02*
X200154Y66199D01*
X173110Y87768D02*
X173287Y87945D01*
Y89359D01*
X173670Y89742D01*
X147300Y95014D02*
Y115433D01*
X215828Y45991D02*
X216402Y46565D01*
Y49083D02*
X216964Y49644D01*
Y51879D02*
X219317Y54232D01*
X208932Y64185D02*
X218774Y74027D01*
X216964Y49644D02*
Y51879D01*
X216402Y46565D02*
Y49083D01*
X208932Y49644D02*
Y64185D01*
X227724Y41998D02*
Y53941D01*
X222644Y54232D02*
X225208Y51667D01*
Y43040D02*
Y51667D01*
X219317Y54232D02*
X222644D01*
X218774Y74027D02*
X219837D01*
X133932Y22709D02*
X134112D01*
X105512Y19617D02*
X130840D01*
X133932Y22709D01*
X98878Y26250D02*
X105512Y19617D01*
X101394Y27292D02*
Y32560D01*
X212150Y89820D02*
X225763D01*
X230264Y158276D02*
X232616Y155924D01*
X103746Y24940D02*
X107074D01*
X101394Y27292D02*
X103746Y24940D01*
X188100Y39672D02*
X188367Y39940D01*
X184772Y39672D02*
X188100D01*
X182420Y42024D02*
X184772Y39672D01*
X188367Y39940D02*
X216428D01*
X206951Y90774D02*
X211196D01*
X212150Y89820D01*
X205154Y71198D02*
Y86199D01*
X210154Y88258D02*
X213670Y84742D01*
X200154Y66199D02*
X205154Y71198D01*
X198084Y99641D02*
X206951Y90774D01*
X207214Y88258D02*
X210154D01*
X205154Y86199D02*
X207214Y88258D01*
X216428Y39940D02*
X221192Y44704D01*
X198084Y99641D02*
Y99734D01*
D68*
X259386Y-49200D02*
D03*
X85386D02*
D03*
D69*
X276098Y70934D02*
D03*
X183670Y64742D02*
D03*
Y74742D02*
D03*
X123416Y104742D02*
D03*
X251844Y75950D02*
D03*
X275844Y143950D02*
D03*
X183670Y114742D02*
D03*
X123670Y124742D02*
D03*
Y114742D02*
D03*
X247844Y139950D02*
D03*
X311844Y103950D02*
D03*
Y71950D02*
D03*
X315844Y83950D02*
D03*
X311844Y91950D02*
D03*
X203670Y64742D02*
D03*
X173670Y89742D02*
D03*
X208670Y99742D02*
D03*
X198628Y104902D02*
D03*
X208670Y109742D02*
D03*
Y104742D02*
D03*
X213670D02*
D03*
Y109742D02*
D03*
X153670Y74742D02*
D03*
X183670Y144742D02*
D03*
X143670Y64742D02*
D03*
Y84742D02*
D03*
X118670Y119742D02*
D03*
X113670Y129742D02*
D03*
X143670Y154742D02*
D03*
X183670Y104742D02*
D03*
X153670Y79742D02*
D03*
X154686Y84582D02*
D03*
X153670Y89742D02*
D03*
X208670Y114742D02*
D03*
Y129742D02*
D03*
X213670Y124742D02*
D03*
X208670D02*
D03*
X198670D02*
D03*
X193670D02*
D03*
X188670D02*
D03*
X183670Y139742D02*
D03*
X208670Y149742D02*
D03*
Y154742D02*
D03*
X203670D02*
D03*
X198670D02*
D03*
X173670D02*
D03*
X193670D02*
D03*
X188670D02*
D03*
X183670D02*
D03*
X178670D02*
D03*
X168670D02*
D03*
X163670D02*
D03*
X153670D02*
D03*
X208670Y69742D02*
D03*
X213670Y79742D02*
D03*
X208670D02*
D03*
X213670Y84742D02*
D03*
X208670D02*
D03*
X188670Y104742D02*
D03*
X198670Y84742D02*
D03*
X188670D02*
D03*
X193670D02*
D03*
Y74742D02*
D03*
X178670Y64742D02*
D03*
X183670Y79742D02*
D03*
X168670Y64742D02*
D03*
X163670D02*
D03*
X148670D02*
D03*
X40894Y111136D02*
D03*
X33761Y112247D02*
D03*
X36068Y109869D02*
D03*
X153630Y188976D02*
D03*
X78740Y108204D02*
D03*
X74168D02*
D03*
X218741Y121556D02*
D03*
X166423Y189685D02*
D03*
X169188Y191853D02*
D03*
X183395Y109474D02*
D03*
D70*
X196088Y24092D02*
D03*
X235204Y59690D02*
D03*
X234078Y34890D02*
D03*
X201370Y139297D02*
D03*
X235243Y66333D02*
D03*
X289161Y64687D02*
D03*
X275982Y65880D02*
D03*
X287005Y80915D02*
D03*
X259612Y77950D02*
D03*
X174546Y75108D02*
D03*
X169094Y82988D02*
D03*
X163855Y84790D02*
D03*
X108028Y77683D02*
D03*
X107405Y105660D02*
D03*
X100264Y109794D02*
D03*
X129619Y110039D02*
D03*
X168658Y125025D02*
D03*
X163703Y115226D02*
D03*
X124158Y69515D02*
D03*
X109638Y52913D02*
D03*
X130446Y52507D02*
D03*
X281195Y35993D02*
D03*
X243228Y91922D02*
D03*
X264674Y80141D02*
D03*
X248349Y93950D02*
D03*
X302768Y111252D02*
D03*
X176286Y135818D02*
D03*
X208811Y16533D02*
D03*
X218683Y84898D02*
D03*
X218933Y79270D02*
D03*
X220509Y99347D02*
D03*
X127762Y128524D02*
D03*
X90016Y138250D02*
D03*
X169820Y253866D02*
D03*
X123458Y31665D02*
D03*
X258785Y135418D02*
D03*
X233594Y135966D02*
D03*
X107131Y72233D02*
D03*
X307451Y94372D02*
D03*
X308638Y99759D02*
D03*
X148775Y147759D02*
D03*
X232000Y147483D02*
D03*
X308087Y88545D02*
D03*
X324642Y85414D02*
D03*
X83860Y143960D02*
D03*
X148613Y90026D02*
D03*
X273154Y39254D02*
D03*
X268190Y32550D02*
D03*
X210243Y258866D02*
D03*
X331724Y132588D02*
D03*
X161180Y41664D02*
D03*
X189738Y17018D02*
D03*
X184048Y17928D02*
D03*
X54171Y132443D02*
D03*
X55027Y114300D02*
D03*
X58950Y136216D02*
D03*
X66982Y135363D02*
D03*
X38899Y125427D02*
D03*
X163678Y188976D02*
D03*
X322113Y105418D02*
D03*
X308128Y123934D02*
D03*
X279828Y135496D02*
D03*
X167446Y46624D02*
D03*
X176022Y19812D02*
D03*
X230163Y220645D02*
D03*
X246380Y211818D02*
D03*
X281250Y147573D02*
D03*
X276907Y150973D02*
D03*
X232156Y215502D02*
D03*
X264544Y40591D02*
D03*
X279674Y113518D02*
D03*
X255480Y103168D02*
D03*
X250693Y99006D02*
D03*
X226434Y96520D02*
D03*
X250037Y104482D02*
D03*
X158220Y145982D02*
D03*
X170942Y169418D02*
D03*
X165659Y167833D02*
D03*
X134414Y99604D02*
D03*
X128900Y99453D02*
D03*
X142269Y174307D02*
D03*
X262674Y32564D02*
D03*
X274161Y113331D02*
D03*
X24422Y194348D02*
D03*
X69596Y111209D02*
D03*
X188214Y261414D02*
D03*
X25146Y176278D02*
D03*
X18975Y180294D02*
D03*
X78740Y240792D02*
D03*
X66294Y228854D02*
D03*
X115062Y246634D02*
D03*
X307455Y65278D02*
D03*
X313690D02*
D03*
X261112Y84582D02*
D03*
X267485Y97146D02*
D03*
X263846Y92995D02*
D03*
X148963Y119449D02*
D03*
X105410Y36988D02*
D03*
X181869Y89195D02*
D03*
X163290Y99443D02*
D03*
X168510Y95233D02*
D03*
X179497Y99858D02*
D03*
X183386Y124790D02*
D03*
X246918Y146908D02*
D03*
X228600Y154260D02*
D03*
X128256Y47153D02*
D03*
X158609Y73866D02*
D03*
X200729Y150168D02*
D03*
X183528Y258366D02*
D03*
X184125Y184936D02*
D03*
X319951Y116544D02*
D03*
X21130Y159731D02*
D03*
X33310Y101274D02*
D03*
X258175Y148226D02*
D03*
X161956Y20828D02*
D03*
X153924Y21142D02*
D03*
X214884Y16002D02*
D03*
X199300Y16371D02*
D03*
X103172Y178308D02*
D03*
X124009Y176331D02*
D03*
X243078Y257302D02*
D03*
X269634Y160589D02*
D03*
X326390Y146304D02*
D03*
X226816Y59642D02*
D03*
X228140Y109950D02*
D03*
X224218Y85344D02*
D03*
X194917Y79883D02*
D03*
X200431Y80045D02*
D03*
X189433Y79290D02*
D03*
X203423Y55032D02*
D03*
X192952Y46561D02*
D03*
X210153Y46246D02*
D03*
X100297Y43564D02*
D03*
X87986Y-749D02*
D03*
X92916Y63452D02*
D03*
X136288Y46990D02*
D03*
X227719Y123229D02*
D03*
X177231Y86209D02*
D03*
X185928Y99568D02*
D03*
X167990Y21336D02*
D03*
X223175Y21497D02*
D03*
X33185Y91108D02*
D03*
X27686Y90678D02*
D03*
X2122Y69671D02*
D03*
X9594Y73379D02*
D03*
X5663Y65442D02*
D03*
X212948Y51308D02*
D03*
X220980Y50216D02*
D03*
X4318Y121484D02*
D03*
X5624Y126843D02*
D03*
X217669Y67242D02*
D03*
X218237Y61755D02*
D03*
X91440Y192786D02*
D03*
X94488Y-1747D02*
D03*
X115062Y-30734D02*
D03*
X69648Y124096D02*
D03*
X51784Y122682D02*
D03*
X97282Y162881D02*
D03*
X266474Y105594D02*
D03*
X196202Y109292D02*
D03*
X324641Y113641D02*
D03*
X149637Y49662D02*
D03*
X226718Y149075D02*
D03*
X129064Y30892D02*
D03*
X186436Y43688D02*
D03*
X215828Y45991D02*
D03*
X300330Y5486D02*
D03*
X202313Y49139D02*
D03*
X221192Y44704D02*
D03*
X198084Y99734D02*
D03*
X220724Y93836D02*
D03*
X221006Y140706D02*
D03*
X222017Y146129D02*
D03*
X225293Y128183D02*
D03*
X219871Y129193D02*
D03*
X221234Y154161D02*
D03*
X123361Y23633D02*
D03*
X137096Y30741D02*
D03*
X253031Y162091D02*
D03*
X258347Y159859D02*
D03*
X247904Y10958D02*
D03*
X117588Y25386D02*
D03*
X134112Y22709D02*
D03*
X102870Y162881D02*
D03*
X212480Y169130D02*
D03*
X258589Y108331D02*
D03*
X218186Y169929D02*
D03*
X64921Y89408D02*
D03*
X78962D02*
D03*
X258045Y195315D02*
D03*
X286512Y181610D02*
D03*
X202747Y168057D02*
D03*
X229593Y131966D02*
D03*
X11167Y36313D02*
D03*
X7366Y58070D02*
D03*
X6604Y50038D02*
D03*
X59865Y69687D02*
D03*
X22098Y53848D02*
D03*
X11684Y28448D02*
D03*
X193167Y168057D02*
D03*
X182176D02*
D03*
X187672Y167581D02*
D03*
X230378Y187136D02*
D03*
X236108Y187452D02*
D03*
X230886Y208232D02*
D03*
X231619Y197684D02*
D03*
X236728Y200200D02*
D03*
X241794Y198017D02*
D03*
X252346Y188435D02*
D03*
X200152Y184936D02*
D03*
X176276Y167894D02*
D03*
X261933Y98262D02*
D03*
X319939Y78756D02*
D03*
X324641Y94823D02*
D03*
X319127Y94674D02*
D03*
X262139Y152063D02*
D03*
X277622Y105156D02*
D03*
X262796Y131329D02*
D03*
X258942Y127382D02*
D03*
X210695Y174350D02*
D03*
X298196Y150114D02*
D03*
X254000Y183134D02*
D03*
X7620Y160782D02*
D03*
X76156Y221190D02*
D03*
X115824Y258064D02*
D03*
X320294Y38862D02*
D03*
X105410Y28956D02*
D03*
X41148Y6604D02*
D03*
X18796Y11938D02*
D03*
X247530Y198537D02*
D03*
X214884Y235712D02*
D03*
X239845Y214699D02*
D03*
X266954Y246126D02*
D03*
X265938Y223012D02*
D03*
X287020Y215646D02*
D03*
X287274Y205994D02*
D03*
X285750Y199390D02*
D03*
X285242Y191262D02*
D03*
X106653Y94996D02*
D03*
X259099Y119351D02*
D03*
X262926Y123323D02*
D03*
X258879Y113839D02*
D03*
X306070Y135890D02*
D03*
X307680Y83020D02*
D03*
X307477Y118456D02*
D03*
X319786Y132588D02*
D03*
X43453Y87066D02*
D03*
X38052Y88184D02*
D03*
X27292Y104247D02*
D03*
X102580Y76926D02*
D03*
X59825Y154643D02*
D03*
X54447Y153416D02*
D03*
D71*
X33889Y212816D02*
D03*
X56388Y213360D02*
D03*
X246828Y35610D02*
D03*
X303530Y40894D02*
D03*
X277599Y93314D02*
D03*
X248052Y66300D02*
D03*
X40894Y103886D02*
D03*
X119380Y44002D02*
D03*
X119888Y55361D02*
D03*
X123670Y74742D02*
D03*
X126024Y90637D02*
D03*
X299689Y66757D02*
D03*
X287528Y37846D02*
D03*
X288290Y94742D02*
D03*
X301244Y88900D02*
D03*
X203309Y115672D02*
D03*
X178119Y109839D02*
D03*
X192278Y184648D02*
D03*
X209323Y225298D02*
D03*
X177546Y244782D02*
D03*
X209550Y21747D02*
D03*
X203060Y20058D02*
D03*
X136741Y138903D02*
D03*
X143670Y149742D02*
D03*
X90266Y146212D02*
D03*
X15462Y79966D02*
D03*
Y74950D02*
D03*
X303911Y162179D02*
D03*
X194462Y238284D02*
D03*
X79360Y152866D02*
D03*
X83601Y107966D02*
D03*
X157371Y127242D02*
D03*
X127254Y258572D02*
D03*
X104934Y86868D02*
D03*
X86709Y81788D02*
D03*
X99060Y114903D02*
D03*
X75438Y97790D02*
D03*
X44497Y68466D02*
D03*
X27743D02*
D03*
X260350Y20828D02*
D03*
X327079Y123214D02*
D03*
X148372Y37802D02*
D03*
X180205Y54944D02*
D03*
X165974Y39116D02*
D03*
X187702Y-9254D02*
D03*
X59182Y126448D02*
D03*
X76896Y130630D02*
D03*
X77594Y83328D02*
D03*
X57404Y91948D02*
D03*
X29972Y109356D02*
D03*
X12078Y115614D02*
D03*
X8128Y154686D02*
D03*
X155956Y167074D02*
D03*
X331669Y104396D02*
D03*
X301715Y125072D02*
D03*
X173476Y41649D02*
D03*
X176276Y13716D02*
D03*
X126099Y120488D02*
D03*
X131108Y120860D02*
D03*
X291846Y107696D02*
D03*
X92331Y228854D02*
D03*
X146304Y186436D02*
D03*
X156396Y173228D02*
D03*
X152626Y201930D02*
D03*
X101558Y202184D02*
D03*
X154090Y215509D02*
D03*
X276606Y46575D02*
D03*
X51816Y245618D02*
D03*
X103840Y124492D02*
D03*
X84328Y33528D02*
D03*
X130410Y171958D02*
D03*
X281146Y160060D02*
D03*
X173360Y224118D02*
D03*
X154090Y215509D02*
D03*
X154940Y210566D02*
D03*
X75438Y204978D02*
D03*
X220348Y114274D02*
D03*
X203593Y99457D02*
D03*
X269102Y147621D02*
D03*
M02*
