G04*
G04 #@! TF.GenerationSoftware,Altium Limited,Altium Designer,24.6.1 (21)*
G04*
G04 Layer_Physical_Order=8*
G04 Layer_Color=16711680*
%FSLAX44Y44*%
%MOMM*%
G71*
G04*
G04 #@! TF.SameCoordinates,46D9000B-954F-446C-B998-76B77EA3697B*
G04*
G04*
G04 #@! TF.FilePolarity,Positive*
G04*
G01*
G75*
%ADD17C,0.1500*%
%ADD21C,0.6350*%
G04:AMPARAMS|DCode=22|XSize=0.3048mm|YSize=0.3048mm|CornerRadius=0.0229mm|HoleSize=0mm|Usage=FLASHONLY|Rotation=180.000|XOffset=0mm|YOffset=0mm|HoleType=Round|Shape=RoundedRectangle|*
%AMROUNDEDRECTD22*
21,1,0.3048,0.2591,0,0,180.0*
21,1,0.2591,0.3048,0,0,180.0*
1,1,0.0457,-0.1295,0.1295*
1,1,0.0457,0.1295,0.1295*
1,1,0.0457,0.1295,-0.1295*
1,1,0.0457,-0.1295,-0.1295*
%
%ADD22ROUNDEDRECTD22*%
G04:AMPARAMS|DCode=23|XSize=0.8382mm|YSize=0.7112mm|CornerRadius=0.0711mm|HoleSize=0mm|Usage=FLASHONLY|Rotation=90.000|XOffset=0mm|YOffset=0mm|HoleType=Round|Shape=RoundedRectangle|*
%AMROUNDEDRECTD23*
21,1,0.8382,0.5690,0,0,90.0*
21,1,0.6960,0.7112,0,0,90.0*
1,1,0.1422,0.2845,0.3480*
1,1,0.1422,0.2845,-0.3480*
1,1,0.1422,-0.2845,-0.3480*
1,1,0.1422,-0.2845,0.3480*
%
%ADD23ROUNDEDRECTD23*%
G04:AMPARAMS|DCode=25|XSize=0.4572mm|YSize=0.508mm|CornerRadius=0.0343mm|HoleSize=0mm|Usage=FLASHONLY|Rotation=180.000|XOffset=0mm|YOffset=0mm|HoleType=Round|Shape=RoundedRectangle|*
%AMROUNDEDRECTD25*
21,1,0.4572,0.4394,0,0,180.0*
21,1,0.3886,0.5080,0,0,180.0*
1,1,0.0686,-0.1943,0.2197*
1,1,0.0686,0.1943,0.2197*
1,1,0.0686,0.1943,-0.2197*
1,1,0.0686,-0.1943,-0.2197*
%
%ADD25ROUNDEDRECTD25*%
G04:AMPARAMS|DCode=26|XSize=0.508mm|YSize=0.4572mm|CornerRadius=0.0343mm|HoleSize=0mm|Usage=FLASHONLY|Rotation=180.000|XOffset=0mm|YOffset=0mm|HoleType=Round|Shape=RoundedRectangle|*
%AMROUNDEDRECTD26*
21,1,0.5080,0.3886,0,0,180.0*
21,1,0.4394,0.4572,0,0,180.0*
1,1,0.0686,-0.2197,0.1943*
1,1,0.0686,0.2197,0.1943*
1,1,0.0686,0.2197,-0.1943*
1,1,0.0686,-0.2197,-0.1943*
%
%ADD26ROUNDEDRECTD26*%
G04:AMPARAMS|DCode=27|XSize=0.3048mm|YSize=0.3048mm|CornerRadius=0.0229mm|HoleSize=0mm|Usage=FLASHONLY|Rotation=270.000|XOffset=0mm|YOffset=0mm|HoleType=Round|Shape=RoundedRectangle|*
%AMROUNDEDRECTD27*
21,1,0.3048,0.2591,0,0,270.0*
21,1,0.2591,0.3048,0,0,270.0*
1,1,0.0457,-0.1295,-0.1295*
1,1,0.0457,-0.1295,0.1295*
1,1,0.0457,0.1295,0.1295*
1,1,0.0457,0.1295,-0.1295*
%
%ADD27ROUNDEDRECTD27*%
G04:AMPARAMS|DCode=29|XSize=0.4572mm|YSize=0.508mm|CornerRadius=0.0343mm|HoleSize=0mm|Usage=FLASHONLY|Rotation=270.000|XOffset=0mm|YOffset=0mm|HoleType=Round|Shape=RoundedRectangle|*
%AMROUNDEDRECTD29*
21,1,0.4572,0.4394,0,0,270.0*
21,1,0.3886,0.5080,0,0,270.0*
1,1,0.0686,-0.2197,-0.1943*
1,1,0.0686,-0.2197,0.1943*
1,1,0.0686,0.2197,0.1943*
1,1,0.0686,0.2197,-0.1943*
%
%ADD29ROUNDEDRECTD29*%
G04:AMPARAMS|DCode=33|XSize=0.508mm|YSize=0.4572mm|CornerRadius=0.0343mm|HoleSize=0mm|Usage=FLASHONLY|Rotation=90.000|XOffset=0mm|YOffset=0mm|HoleType=Round|Shape=RoundedRectangle|*
%AMROUNDEDRECTD33*
21,1,0.5080,0.3886,0,0,90.0*
21,1,0.4394,0.4572,0,0,90.0*
1,1,0.0686,0.1943,0.2197*
1,1,0.0686,0.1943,-0.2197*
1,1,0.0686,-0.1943,-0.2197*
1,1,0.0686,-0.1943,0.2197*
%
%ADD33ROUNDEDRECTD33*%
G04:AMPARAMS|DCode=42|XSize=0.7874mm|YSize=0.8382mm|CornerRadius=0.0787mm|HoleSize=0mm|Usage=FLASHONLY|Rotation=0.000|XOffset=0mm|YOffset=0mm|HoleType=Round|Shape=RoundedRectangle|*
%AMROUNDEDRECTD42*
21,1,0.7874,0.6807,0,0,0.0*
21,1,0.6299,0.8382,0,0,0.0*
1,1,0.1575,0.3150,-0.3404*
1,1,0.1575,-0.3150,-0.3404*
1,1,0.1575,-0.3150,0.3404*
1,1,0.1575,0.3150,0.3404*
%
%ADD42ROUNDEDRECTD42*%
%ADD68C,1.5240*%
%ADD69C,0.3500*%
%ADD70C,0.4500*%
%ADD71C,0.4000*%
%ADD72R,0.4000X3.5000*%
G04:AMPARAMS|DCode=73|XSize=1.2192mm|YSize=2.0066mm|CornerRadius=0.0914mm|HoleSize=0mm|Usage=FLASHONLY|Rotation=180.000|XOffset=0mm|YOffset=0mm|HoleType=Round|Shape=RoundedRectangle|*
%AMROUNDEDRECTD73*
21,1,1.2192,1.8237,0,0,180.0*
21,1,1.0363,2.0066,0,0,180.0*
1,1,0.1829,-0.5182,0.9119*
1,1,0.1829,0.5182,0.9119*
1,1,0.1829,0.5182,-0.9119*
1,1,0.1829,-0.5182,-0.9119*
%
%ADD73ROUNDEDRECTD73*%
%ADD74R,0.4750X0.2500*%
%ADD75R,0.2500X0.4750*%
%ADD76R,0.5000X0.4500*%
%ADD77R,0.5000X0.4000*%
G04:AMPARAMS|DCode=78|XSize=1.2192mm|YSize=2.0066mm|CornerRadius=0.0914mm|HoleSize=0mm|Usage=FLASHONLY|Rotation=90.000|XOffset=0mm|YOffset=0mm|HoleType=Round|Shape=RoundedRectangle|*
%AMROUNDEDRECTD78*
21,1,1.2192,1.8237,0,0,90.0*
21,1,1.0363,2.0066,0,0,90.0*
1,1,0.1829,0.9119,0.5182*
1,1,0.1829,0.9119,-0.5182*
1,1,0.1829,-0.9119,-0.5182*
1,1,0.1829,-0.9119,0.5182*
%
%ADD78ROUNDEDRECTD78*%
%ADD79R,1.2584X0.3758*%
G04:AMPARAMS|DCode=80|XSize=1.2584mm|YSize=0.3758mm|CornerRadius=0.1879mm|HoleSize=0mm|Usage=FLASHONLY|Rotation=180.000|XOffset=0mm|YOffset=0mm|HoleType=Round|Shape=RoundedRectangle|*
%AMROUNDEDRECTD80*
21,1,1.2584,0.0000,0,0,180.0*
21,1,0.8826,0.3758,0,0,180.0*
1,1,0.3758,-0.4413,0.0000*
1,1,0.3758,0.4413,0.0000*
1,1,0.3758,0.4413,0.0000*
1,1,0.3758,-0.4413,0.0000*
%
%ADD80ROUNDEDRECTD80*%
G04:AMPARAMS|DCode=81|XSize=0.8382mm|YSize=0.7112mm|CornerRadius=0.0711mm|HoleSize=0mm|Usage=FLASHONLY|Rotation=180.000|XOffset=0mm|YOffset=0mm|HoleType=Round|Shape=RoundedRectangle|*
%AMROUNDEDRECTD81*
21,1,0.8382,0.5690,0,0,180.0*
21,1,0.6960,0.7112,0,0,180.0*
1,1,0.1422,-0.3480,0.2845*
1,1,0.1422,0.3480,0.2845*
1,1,0.1422,0.3480,-0.2845*
1,1,0.1422,-0.3480,-0.2845*
%
%ADD81ROUNDEDRECTD81*%
%ADD82R,0.4500X0.5000*%
G36*
X162847Y262472D02*
X154519Y254144D01*
X118160D01*
X117828Y254926D01*
X117770Y255414D01*
X118579Y256223D01*
X119074Y257418D01*
Y258710D01*
X118579Y259905D01*
X117665Y260819D01*
X116470Y261314D01*
X115873D01*
X115347Y262584D01*
X116409Y263646D01*
X162361D01*
X162847Y262472D01*
D02*
G37*
G36*
X154178Y241300D02*
X127000D01*
X126895Y245097D01*
X129857Y248060D01*
X154178D01*
Y241300D01*
D02*
G37*
G36*
X209137Y263231D02*
X209124Y262743D01*
X208608Y261706D01*
X208402Y261621D01*
X207488Y260707D01*
X206993Y259512D01*
Y258220D01*
X207488Y257025D01*
X208402Y256111D01*
X209597Y255616D01*
X210889D01*
X212084Y256111D01*
X212998Y257025D01*
X213493Y258220D01*
Y258485D01*
X214513Y259531D01*
X214666Y259534D01*
X239110D01*
X239959Y258264D01*
X239828Y257948D01*
Y256656D01*
X240323Y255461D01*
X241237Y254547D01*
X242432Y254052D01*
X243724D01*
X244919Y254547D01*
X245354Y254982D01*
X246817Y255044D01*
X246998Y254967D01*
X247192Y254726D01*
X247139Y254601D01*
X247053Y254396D01*
X246898Y254236D01*
X246901Y254028D01*
X246822Y253836D01*
Y244034D01*
X237550Y234762D01*
X224929D01*
X224927Y234762D01*
X224925Y234762D01*
X224545Y234604D01*
X224163Y234445D01*
X224163Y234444D01*
X224161Y234443D01*
X223266Y233542D01*
X223265Y233541D01*
X223263Y233540D01*
X223107Y233157D01*
X222951Y232776D01*
X222952Y232775D01*
X222951Y232773D01*
X222972Y229081D01*
X223015Y228980D01*
X222994Y228873D01*
X223171Y228610D01*
X223201Y228538D01*
X222979Y228001D01*
Y226659D01*
X223296Y225894D01*
X224061Y225577D01*
X228059D01*
X228824Y225894D01*
X229141Y226659D01*
Y226918D01*
X230853D01*
Y226405D01*
X231170Y225640D01*
X231935Y225323D01*
X235933D01*
X236698Y225640D01*
X237015Y226405D01*
Y226918D01*
X238727D01*
Y226405D01*
X239044Y225640D01*
X239809Y225323D01*
X243807D01*
X244572Y225640D01*
X244889Y226405D01*
Y226918D01*
X263589D01*
X263904Y226203D01*
X263978Y225648D01*
X263183Y224853D01*
X262688Y223659D01*
Y222365D01*
X263183Y221171D01*
X264097Y220257D01*
X265292Y219762D01*
X266584D01*
X266641Y219785D01*
X267494Y218933D01*
Y217634D01*
X267279Y217490D01*
X265938D01*
X265173Y217173D01*
X264856Y216408D01*
Y212410D01*
X265173Y211645D01*
X265938Y211328D01*
X266034D01*
Y209870D01*
X265938D01*
X265173Y209553D01*
X264856Y208788D01*
Y204790D01*
X265173Y204025D01*
X265938Y203708D01*
Y202504D01*
X265173Y202187D01*
X264856Y201422D01*
Y197424D01*
X265101Y196832D01*
X265010Y195583D01*
X264693Y194818D01*
X264693Y194438D01*
Y190820D01*
X265010Y189708D01*
X264693Y188943D01*
Y184945D01*
X265010Y184180D01*
X265775Y183863D01*
X267117D01*
X267658Y184087D01*
X268199Y183863D01*
X271813D01*
X272578Y184180D01*
X277371Y188973D01*
X277688Y189738D01*
Y191035D01*
X281992D01*
Y190616D01*
X282487Y189421D01*
X283401Y188507D01*
X284596Y188012D01*
X285889D01*
X286712Y188353D01*
X287982Y187746D01*
Y185729D01*
X287158Y184860D01*
X285865D01*
X284671Y184365D01*
X283757Y183451D01*
X283262Y182257D01*
Y180963D01*
X283757Y179769D01*
X284671Y178855D01*
X285865Y178360D01*
X287159D01*
X288353Y178855D01*
X289267Y179769D01*
X289762Y180963D01*
Y182257D01*
X289739Y182313D01*
X291028Y183603D01*
X291126Y183749D01*
X292396Y183364D01*
Y148450D01*
X292532Y147768D01*
X292918Y147189D01*
X299685Y140422D01*
X300264Y140035D01*
X300947Y139900D01*
X303938D01*
X304212Y138720D01*
X304213Y138630D01*
X303315Y137731D01*
X302820Y136537D01*
Y135244D01*
X303315Y134049D01*
X304229Y133135D01*
X305424Y132640D01*
X306716D01*
X307911Y133135D01*
X308825Y134049D01*
X308956Y134364D01*
X310454Y134662D01*
X313327Y131789D01*
Y113655D01*
X313463Y112972D01*
X313576Y112803D01*
Y103097D01*
X313463Y102928D01*
X313327Y102245D01*
Y93467D01*
X313463Y92784D01*
X313576Y92615D01*
Y91233D01*
X312367Y90024D01*
X311607Y90022D01*
X311257Y90125D01*
X310846Y90376D01*
X310842Y90386D01*
X310282Y90946D01*
X309928Y91300D01*
X310204Y92520D01*
X310217Y92555D01*
X310701Y93725D01*
Y95018D01*
X310453Y95618D01*
X310479Y97003D01*
X311393Y97918D01*
X311888Y99112D01*
Y100405D01*
X311393Y101600D01*
X310479Y102514D01*
X309284Y103008D01*
X307992D01*
X306797Y102514D01*
X305883Y101600D01*
X305388Y100405D01*
Y99112D01*
X305636Y98512D01*
X305610Y97127D01*
X304696Y96213D01*
X304201Y95018D01*
Y93725D01*
X304696Y92531D01*
X305257Y91970D01*
X305610Y91616D01*
X305334Y90397D01*
X305321Y90361D01*
X305291Y90288D01*
X303916D01*
X303787Y90599D01*
X302943Y91443D01*
X301841Y91900D01*
X300647D01*
X300443Y91816D01*
X299173Y92664D01*
Y102153D01*
X299037Y102836D01*
X298651Y103415D01*
X294846Y107219D01*
Y108293D01*
X294389Y109395D01*
X293545Y110239D01*
X292443Y110696D01*
X291249D01*
X290147Y110239D01*
X289303Y109395D01*
X288846Y108293D01*
Y107099D01*
X289303Y105997D01*
X290147Y105153D01*
X291249Y104696D01*
X292323D01*
X295605Y101414D01*
Y88530D01*
X291625D01*
X290995Y88268D01*
X289784Y88212D01*
X289019Y88530D01*
X288625Y88530D01*
X285021D01*
X284945Y88498D01*
X283972Y88277D01*
X282999Y88498D01*
X282923Y88530D01*
X278925D01*
X278295Y88268D01*
X277084Y88212D01*
X276319Y88530D01*
X275925Y88530D01*
X272321D01*
X272245Y88498D01*
X271272Y88277D01*
X270299Y88498D01*
X270223Y88530D01*
X266225D01*
X265460Y88212D01*
X265143Y87447D01*
Y86663D01*
X263873Y86410D01*
X263867Y86423D01*
X262953Y87337D01*
X261758Y87832D01*
X260466D01*
X259271Y87337D01*
X258892Y86959D01*
X258557Y86985D01*
X257938Y87271D01*
X257651Y87513D01*
Y91290D01*
X257225Y92318D01*
X256197Y92744D01*
X255784D01*
Y95269D01*
X257550Y97035D01*
X259048Y96737D01*
X259178Y96421D01*
X260093Y95507D01*
X260099Y95504D01*
X260721Y93944D01*
X260596Y93642D01*
Y92349D01*
X261091Y91154D01*
X262005Y90240D01*
X263199Y89745D01*
X264492D01*
X265687Y90240D01*
X266601Y91154D01*
X267096Y92349D01*
Y93642D01*
X268054Y93897D01*
X268131D01*
X269326Y94391D01*
X270240Y95306D01*
X270735Y96500D01*
Y97793D01*
X271771Y98600D01*
X271944Y98659D01*
X273238Y97365D01*
Y96567D01*
X273374Y95884D01*
X273761Y95306D01*
X274762Y94304D01*
X274599Y93911D01*
Y92717D01*
X275056Y91614D01*
X275900Y90771D01*
X277003Y90314D01*
X278196D01*
X279299Y90771D01*
X280143Y91614D01*
X280599Y92717D01*
Y93911D01*
X280143Y95013D01*
X279299Y95857D01*
X278196Y96314D01*
X277799D01*
X276807Y97306D01*
Y98104D01*
X276671Y98786D01*
X276284Y99365D01*
X273225Y102424D01*
X272646Y102811D01*
X271964Y102947D01*
X270083D01*
X269422Y104217D01*
X269724Y104947D01*
Y106240D01*
X269230Y107435D01*
X268315Y108349D01*
X267121Y108844D01*
X265828D01*
X264634Y108349D01*
X263719Y107435D01*
X263225Y106240D01*
Y104948D01*
X262633Y104063D01*
X260270D01*
X259934Y103996D01*
X259564Y105217D01*
X260430Y105576D01*
X261344Y106490D01*
X261839Y107684D01*
Y108977D01*
X261344Y110172D01*
X261281Y110235D01*
X260720Y111084D01*
X261635Y111998D01*
X262129Y113193D01*
Y114486D01*
X261635Y115680D01*
X261728Y117383D01*
X261854Y117510D01*
X262349Y118704D01*
Y119997D01*
X262400Y120073D01*
X263573D01*
X264767Y120568D01*
X264869Y120670D01*
X265427Y120964D01*
X266192Y120647D01*
X271272D01*
X272037Y120964D01*
X272354Y121729D01*
Y123822D01*
X274000D01*
Y121729D01*
X274317Y120964D01*
X275082Y120647D01*
X280162D01*
X280927Y120964D01*
X281244Y121729D01*
Y123822D01*
X282890D01*
Y121729D01*
X283207Y120964D01*
X283972Y120647D01*
X289052D01*
X289817Y120964D01*
X290134Y121729D01*
Y123822D01*
X292542D01*
Y121983D01*
X292859Y121218D01*
X293624Y120901D01*
X298704D01*
X299469Y121218D01*
X299527Y121358D01*
X300852Y122080D01*
X301056Y122098D01*
X301119Y122073D01*
X302312D01*
X303415Y122529D01*
X303704Y122819D01*
X304908Y122596D01*
X305683Y121451D01*
X305636Y121212D01*
X304721Y120297D01*
X304227Y119103D01*
Y117810D01*
X304721Y116615D01*
X305636Y115701D01*
X306830Y115206D01*
X308123D01*
X309318Y115701D01*
X310232Y116615D01*
X310727Y117810D01*
Y119103D01*
X310232Y120297D01*
X309866Y120663D01*
X309969Y121179D01*
X310883Y122093D01*
X311378Y123287D01*
Y124580D01*
X310883Y125775D01*
X309969Y126689D01*
X308774Y127184D01*
X307481D01*
X306287Y126689D01*
X305849Y126251D01*
X304387Y126462D01*
X304259Y126772D01*
X303415Y127616D01*
X302312Y128073D01*
X301119D01*
X301085Y128059D01*
X299815Y128907D01*
Y129136D01*
X299786Y129204D01*
Y135785D01*
X300040Y136398D01*
X299723Y137163D01*
X298199Y138687D01*
X297434Y139004D01*
X266192D01*
X265427Y138687D01*
X265110Y137922D01*
Y135263D01*
X263840Y134415D01*
X263442Y134579D01*
X263208D01*
X262132Y134755D01*
X262035Y135752D01*
Y136064D01*
X261540Y137259D01*
X260626Y138173D01*
X259431Y138668D01*
X258138D01*
X257656Y138991D01*
Y142207D01*
X257802Y142426D01*
X265691D01*
X266374Y142562D01*
X266953Y142949D01*
X268625Y144621D01*
X269699D01*
X270801Y145077D01*
X271645Y145921D01*
X272102Y147024D01*
Y148217D01*
X271645Y149320D01*
X270801Y150164D01*
X269699Y150621D01*
X268505D01*
X267402Y150164D01*
X266558Y149320D01*
X266102Y148217D01*
Y147144D01*
X264952Y145995D01*
X262143D01*
X261295Y147265D01*
X261425Y147580D01*
Y148768D01*
X261492Y148813D01*
X262785D01*
X263980Y149307D01*
X264894Y150222D01*
X265389Y151416D01*
Y152709D01*
X264894Y153904D01*
X264201Y154596D01*
X264008Y155359D01*
X264949Y156503D01*
X265709D01*
X266650Y156893D01*
X267039Y157833D01*
Y160304D01*
X267178Y160362D01*
X267495Y161127D01*
Y162469D01*
X267178Y163234D01*
X267039Y163292D01*
Y165763D01*
X266650Y166703D01*
X266198Y166890D01*
Y170825D01*
X267372Y171311D01*
X278146Y160537D01*
Y159463D01*
X278603Y158361D01*
X279447Y157517D01*
X280549Y157060D01*
X281743D01*
X282845Y157517D01*
X283689Y158361D01*
X284146Y159463D01*
Y160657D01*
X283689Y161759D01*
X282845Y162603D01*
X281743Y163060D01*
X280669D01*
X262271Y181459D01*
Y185975D01*
X262135Y186657D01*
X261748Y187236D01*
X258189Y190795D01*
X258691Y192065D01*
X259886Y192560D01*
X260800Y193474D01*
X261295Y194668D01*
Y195961D01*
X260800Y197156D01*
X259886Y198070D01*
X258691Y198565D01*
X257398D01*
X256204Y198070D01*
X255289Y197156D01*
X254795Y195961D01*
Y195934D01*
X253525Y195284D01*
X253476Y195317D01*
X252793Y195452D01*
X250838D01*
X250285Y196696D01*
X250780Y197891D01*
Y199184D01*
X250285Y200378D01*
X249371Y201292D01*
X248177Y201787D01*
X246884D01*
X245689Y201292D01*
X244775Y200378D01*
X243635Y200772D01*
X242440Y201267D01*
X241147D01*
X239515Y201965D01*
X239483Y202041D01*
X238569Y202955D01*
X237374Y203450D01*
X236082D01*
X234887Y202955D01*
X233973Y202041D01*
X233478Y200847D01*
X232265Y200934D01*
X230973D01*
X229778Y200439D01*
X228864Y199525D01*
X228369Y198331D01*
Y197038D01*
X228500Y196722D01*
X227651Y195452D01*
X219673D01*
X204275Y210850D01*
X204761Y212024D01*
X204914D01*
X205053Y212081D01*
X205260Y211995D01*
X209146D01*
X210174Y212421D01*
X210600Y213449D01*
Y213862D01*
X229318D01*
X229401Y213661D01*
X230310Y212752D01*
X230309Y212650D01*
X230258Y211795D01*
X230145Y211443D01*
X229045Y210987D01*
X228131Y210073D01*
X227636Y208879D01*
Y207586D01*
X228131Y206391D01*
X229045Y205477D01*
X230240Y204982D01*
X231532D01*
X232727Y205477D01*
X233641Y206391D01*
X234136Y207586D01*
Y208879D01*
X233641Y210073D01*
X232732Y210982D01*
X232733Y211085D01*
X232784Y211940D01*
X232897Y212292D01*
X233997Y212747D01*
X234911Y213661D01*
X235406Y214856D01*
X236595Y214660D01*
X236595Y214053D01*
X237090Y212858D01*
X238004Y211944D01*
X239199Y211449D01*
X240492D01*
X241686Y211944D01*
X241860Y212118D01*
X243130Y211592D01*
Y211172D01*
X243625Y209977D01*
X244539Y209063D01*
X245734Y208568D01*
X247027D01*
X248221Y209063D01*
X249135Y209977D01*
X249630Y211172D01*
Y212465D01*
X249135Y213659D01*
X248221Y214573D01*
X247027Y215068D01*
X245734D01*
X244539Y214573D01*
X244365Y214400D01*
X243095Y214925D01*
Y215345D01*
X242600Y216540D01*
X241686Y217454D01*
X240492Y217949D01*
X239199D01*
X238004Y217454D01*
X237090Y216540D01*
X236595Y215346D01*
X235406Y215541D01*
X235406Y216149D01*
X234911Y217343D01*
X233997Y218257D01*
X233368Y219892D01*
X233413Y219999D01*
Y221292D01*
X232918Y222486D01*
X232004Y223400D01*
X230809Y223895D01*
X229516D01*
X228322Y223400D01*
X227407Y222486D01*
X227384Y222430D01*
X212493D01*
X212093Y223176D01*
X211908Y223699D01*
X212323Y224701D01*
Y225895D01*
X211866Y226997D01*
X211022Y227841D01*
X210593Y228019D01*
X210174Y229031D01*
X209146Y229457D01*
X208270D01*
X207744Y230727D01*
X207942Y230925D01*
X208329Y231504D01*
X208389Y231807D01*
X209146D01*
X210174Y232233D01*
X210600Y233261D01*
Y234244D01*
X211870Y234497D01*
X212129Y233871D01*
X213043Y232957D01*
X214237Y232462D01*
X215530D01*
X216725Y232957D01*
X217639Y233871D01*
X218134Y235065D01*
Y236359D01*
X217639Y237553D01*
X216725Y238467D01*
X215530Y238962D01*
X214237D01*
X214181Y238939D01*
X212094Y241026D01*
X211515Y241412D01*
X210832Y241548D01*
X201262D01*
X200579Y241412D01*
X200000Y241026D01*
X198966Y239991D01*
X198579Y239412D01*
X198519Y239109D01*
X197762D01*
X196734Y238683D01*
X196308Y237655D01*
Y235295D01*
X195135Y234809D01*
X191498Y238445D01*
Y245970D01*
X191362Y246653D01*
X190976Y247232D01*
X184265Y253943D01*
X184678Y255325D01*
X185368Y255611D01*
X186283Y256525D01*
X186640Y257387D01*
X187568Y258164D01*
X188860D01*
X190055Y258659D01*
X190969Y259573D01*
X191464Y260768D01*
Y262061D01*
X191333Y262376D01*
X192182Y263646D01*
X208680D01*
X209137Y263231D01*
D02*
G37*
G36*
X249738Y253991D02*
X250420Y253855D01*
X256112D01*
X256388Y253671D01*
X257071Y253535D01*
X262701D01*
X276860Y239376D01*
Y231140D01*
X273721Y228001D01*
X244784D01*
X244572Y228512D01*
X243807Y228829D01*
X239809D01*
X239044Y228512D01*
X238832Y228001D01*
X236910D01*
X236698Y228512D01*
X235933Y228829D01*
X231935D01*
X231170Y228512D01*
X230958Y228001D01*
X229141D01*
X228824Y228766D01*
X228059Y229083D01*
X224061D01*
X224055Y229087D01*
X224033Y232779D01*
X224929Y233680D01*
X237998D01*
X247904Y243586D01*
Y253836D01*
X249159Y254377D01*
X249738Y253991D01*
D02*
G37*
G36*
X174444Y257972D02*
Y255898D01*
X174580Y255215D01*
X174966Y254636D01*
X185414Y244189D01*
Y232910D01*
X185550Y232227D01*
X185936Y231648D01*
X190899Y226685D01*
Y224094D01*
X183642D01*
X183514Y224041D01*
X182376Y223722D01*
X182376Y223722D01*
X176360D01*
Y224715D01*
X175903Y225818D01*
X175144Y226576D01*
Y228941D01*
X179248D01*
X179916Y229073D01*
X180481Y229452D01*
X180860Y230018D01*
X180993Y230685D01*
Y236375D01*
X180860Y237043D01*
X180481Y237609D01*
X179916Y237987D01*
X179248Y238120D01*
X174823D01*
Y239432D01*
X174687Y240115D01*
X174300Y240693D01*
X171595Y243398D01*
Y250393D01*
X171823Y250620D01*
X172209Y251199D01*
X172324Y251774D01*
X172575Y252025D01*
X173070Y253220D01*
Y254513D01*
X172575Y255707D01*
X171661Y256621D01*
X170466Y257116D01*
X169173D01*
X167979Y256621D01*
X167065Y255707D01*
X166570Y254513D01*
Y253220D01*
X167065Y252025D01*
X167979Y251111D01*
X168027Y251091D01*
Y242659D01*
X168162Y241976D01*
X168549Y241397D01*
X171049Y238897D01*
X171054Y237609D01*
X170676Y237043D01*
X170543Y236375D01*
Y235568D01*
X168547D01*
Y236883D01*
X168414Y237551D01*
X168036Y238117D01*
X167470Y238495D01*
X166802Y238628D01*
X159842D01*
X159174Y238495D01*
X158609Y238117D01*
X158230Y237551D01*
X158097Y236883D01*
Y234262D01*
X156924Y233776D01*
X154380Y236320D01*
Y240301D01*
X154943Y240535D01*
X155260Y241300D01*
Y248060D01*
X156300D01*
X156983Y248195D01*
X157562Y248582D01*
X167593Y258614D01*
X173802D01*
X174444Y257972D01*
D02*
G37*
G36*
X99183Y224105D02*
Y220961D01*
X99132D01*
Y215203D01*
X111193D01*
X120773Y205623D01*
Y196773D01*
X120559Y196629D01*
X119217D01*
X118452Y196312D01*
X118394Y196173D01*
X115923D01*
X114983Y195784D01*
X114796Y195332D01*
X110524D01*
Y195745D01*
X110098Y196773D01*
X109070Y197199D01*
X105184D01*
X104977Y197113D01*
X104838Y197170D01*
X101917D01*
X101779Y197113D01*
X101572Y197199D01*
X98756D01*
X95335Y200620D01*
Y202352D01*
X95424Y202370D01*
X96376Y203006D01*
X97013Y203959D01*
X97236Y205082D01*
X97013Y206206D01*
X96376Y207158D01*
X95424Y207794D01*
X94300Y208018D01*
X85475D01*
X85131Y207949D01*
X83160Y209920D01*
X82581Y210307D01*
X81898Y210443D01*
X79679D01*
X79535Y210658D01*
Y211999D01*
X79679Y212213D01*
X81390D01*
X82073Y212349D01*
X82652Y212736D01*
X85131Y215215D01*
X85475Y215146D01*
X94300D01*
X95424Y215370D01*
X96376Y216006D01*
X97013Y216959D01*
X97236Y218082D01*
X97013Y219205D01*
X96376Y220158D01*
X96335Y220185D01*
Y221472D01*
X96890Y222027D01*
X97277Y222606D01*
X97370Y223075D01*
X97627Y224249D01*
X98968D01*
X99183Y224105D01*
D02*
G37*
G36*
X82607Y205426D02*
X82539Y205082D01*
X82763Y203959D01*
X83399Y203006D01*
X84351Y202370D01*
X85475Y202147D01*
X91766D01*
Y199881D01*
X91902Y199198D01*
X92289Y198619D01*
X96232Y194675D01*
Y191351D01*
X96658Y190323D01*
X97686Y189897D01*
X101572D01*
X101779Y189983D01*
X101917Y189926D01*
X104838D01*
X105343Y188760D01*
Y184232D01*
X105404Y183924D01*
Y182276D01*
X104134Y181427D01*
X103819Y181558D01*
X102526D01*
X101331Y181063D01*
X100417Y180149D01*
X99922Y178955D01*
Y177661D01*
X100417Y176467D01*
X101331Y175553D01*
X102526Y175058D01*
X103819D01*
X104134Y175189D01*
X105404Y174340D01*
Y167938D01*
X103573Y166108D01*
X103517Y166131D01*
X102224D01*
X101029Y165636D01*
X100906Y165513D01*
X100076Y164757D01*
X99246Y165513D01*
X99123Y165636D01*
X97928Y166131D01*
X96636D01*
X95441Y165636D01*
X94527Y164722D01*
X94032Y163528D01*
Y162235D01*
X94163Y161919D01*
X93314Y160649D01*
X93085D01*
X92403Y160513D01*
X91824Y160126D01*
X83533Y151836D01*
X82872Y152080D01*
X82360Y152459D01*
Y153462D01*
X81903Y154565D01*
X81059Y155409D01*
X79957Y155866D01*
X78763D01*
X77661Y155409D01*
X76817Y154565D01*
X76360Y153462D01*
Y153366D01*
X75996Y153003D01*
X73180D01*
X72973Y152917D01*
X72835Y152974D01*
X69914D01*
X69775Y152917D01*
X69568Y153003D01*
X65682D01*
X64654Y152577D01*
X64228Y151549D01*
Y151136D01*
X62711D01*
X62185Y152406D01*
X62580Y152802D01*
X63075Y153996D01*
Y155289D01*
X62804Y155943D01*
X63169Y156094D01*
X63595Y157122D01*
Y161008D01*
X63509Y161215D01*
X63566Y161353D01*
Y164275D01*
X64732Y164779D01*
X65217D01*
X65900Y164915D01*
X66479Y165301D01*
X90737Y189559D01*
X90794Y189536D01*
X92086D01*
X93281Y190031D01*
X94195Y190945D01*
X94690Y192139D01*
Y193433D01*
X94195Y194627D01*
X93281Y195541D01*
X92086Y196036D01*
X90794D01*
X89599Y195541D01*
X88685Y194627D01*
X88190Y193433D01*
Y192139D01*
X88214Y192083D01*
X64798Y168667D01*
X64688Y168653D01*
X63434Y168894D01*
X63169Y169534D01*
X62141Y169960D01*
X57747D01*
X56719Y169534D01*
X56293Y168506D01*
Y164620D01*
X56379Y164413D01*
X56322Y164275D01*
Y161353D01*
X56379Y161215D01*
X56293Y161008D01*
Y157544D01*
X55431Y156779D01*
X55120Y156655D01*
X55093Y156666D01*
X53801D01*
X53492Y156872D01*
X52832Y157640D01*
X52581Y158245D01*
X51816Y158562D01*
X35571D01*
X34564Y159646D01*
Y162983D01*
X50267D01*
X51014Y163132D01*
X51647Y163555D01*
X52070Y164188D01*
X52218Y164935D01*
Y175298D01*
X52070Y176045D01*
X51647Y176678D01*
X51014Y177101D01*
X50267Y177250D01*
X32029D01*
X31282Y177101D01*
X30649Y176678D01*
X30226Y176045D01*
X30078Y175298D01*
Y164935D01*
X30226Y164188D01*
X30649Y163555D01*
X30995Y163323D01*
Y160385D01*
X28087Y157477D01*
X27701Y156898D01*
X27565Y156215D01*
Y143632D01*
X27701Y142949D01*
X28087Y142370D01*
X37114Y133343D01*
Y128206D01*
X37058Y128183D01*
X36143Y127268D01*
X35649Y126074D01*
Y124781D01*
X36143Y123586D01*
X37058Y122672D01*
X38252Y122177D01*
X39545D01*
X40739Y122672D01*
X41654Y123586D01*
X42149Y124781D01*
Y126074D01*
X41654Y127268D01*
X40739Y128183D01*
X40683Y128206D01*
Y134082D01*
X40547Y134765D01*
X40160Y135344D01*
X36790Y138714D01*
X37276Y139888D01*
X51816D01*
X52432Y140143D01*
X55703Y136871D01*
X55700Y136862D01*
Y136702D01*
X54818Y135693D01*
X53525D01*
X52330Y135198D01*
X51416Y134284D01*
X50921Y133089D01*
Y131796D01*
X51416Y130602D01*
X52330Y129687D01*
X53525Y129193D01*
X54818D01*
X56012Y129687D01*
X56926Y130602D01*
X57421Y131796D01*
Y131957D01*
X58303Y132966D01*
X59596D01*
X60791Y133461D01*
X61705Y134375D01*
X62200Y135569D01*
Y136862D01*
X61705Y138057D01*
X60791Y138971D01*
X59596Y139466D01*
X58303D01*
X58198Y139422D01*
X52898Y144722D01*
Y149563D01*
X53801Y150166D01*
X55093D01*
X55150Y150190D01*
X57249Y148090D01*
X57828Y147704D01*
X58511Y147568D01*
X64228D01*
Y147155D01*
X64654Y146127D01*
X65682Y145701D01*
X69568D01*
X69775Y145787D01*
X69914Y145730D01*
X72835D01*
X72973Y145787D01*
X73180Y145701D01*
X76822D01*
X77083Y145685D01*
X78060Y144738D01*
Y141336D01*
X74410Y137687D01*
X74108D01*
X73425Y137551D01*
X73381Y137521D01*
X72111Y138175D01*
Y141191D01*
X71794Y141956D01*
X71029Y142273D01*
X69687D01*
X68922Y141956D01*
X68864Y141817D01*
X66393D01*
X65453Y141428D01*
X65063Y140487D01*
Y138041D01*
X64227Y137204D01*
X63732Y136010D01*
Y134717D01*
X64227Y133522D01*
X65141Y132608D01*
X66335Y132113D01*
X66703D01*
X67750Y131508D01*
X67864Y130940D01*
Y126874D01*
X67807Y126851D01*
X66893Y125937D01*
X66398Y124742D01*
Y123449D01*
X66689Y122748D01*
X66061Y121574D01*
X65945Y121478D01*
X55406D01*
X55034Y122036D01*
Y123329D01*
X54539Y124523D01*
X53625Y125437D01*
X52431Y125932D01*
X51137D01*
X49943Y125437D01*
X49029Y124523D01*
X48534Y123329D01*
Y122036D01*
X48162Y121478D01*
X42070D01*
X42070Y121478D01*
X41305Y121161D01*
X41134Y120990D01*
X40823Y120782D01*
X40455Y120709D01*
X37342D01*
X36975Y120782D01*
X36663Y120990D01*
X36493Y121161D01*
X35727Y121478D01*
X27834D01*
X17807Y131506D01*
X18333Y132776D01*
X19809D01*
X20575Y133093D01*
X20892Y133858D01*
Y138938D01*
X20575Y139703D01*
X19809Y140020D01*
X16889D01*
X16750Y139963D01*
X16543Y140049D01*
X12657D01*
X12332Y140266D01*
Y147708D01*
X13301Y148677D01*
X19482D01*
X20150Y148809D01*
X20715Y149188D01*
X21094Y149754D01*
X21226Y150421D01*
Y156111D01*
X21530Y156481D01*
X21776D01*
X22971Y156975D01*
X23885Y157890D01*
X24380Y159084D01*
Y160377D01*
X23885Y161572D01*
X22971Y162486D01*
X21776Y162980D01*
X20484D01*
X19289Y162486D01*
X18375Y161572D01*
X17880Y160377D01*
Y159084D01*
X17014Y157856D01*
X13301D01*
X10870Y160287D01*
Y161429D01*
X10375Y162623D01*
X9461Y163537D01*
X9404Y163561D01*
Y173879D01*
X14591Y179066D01*
X16089Y178768D01*
X16220Y178453D01*
X17134Y177539D01*
X18328Y177044D01*
X19621D01*
X20768Y177519D01*
X21216Y177311D01*
X21538Y177128D01*
X21896Y176823D01*
Y175631D01*
X22391Y174437D01*
X23305Y173522D01*
X24499Y173028D01*
X25793D01*
X26987Y173522D01*
X27901Y174437D01*
X28396Y175631D01*
Y176924D01*
X28237Y177307D01*
X29359Y178429D01*
X29746Y179008D01*
X29881Y179690D01*
Y180012D01*
X30279Y180409D01*
X51377D01*
X52060Y180545D01*
X52639Y180932D01*
X72902Y201196D01*
X73067Y201443D01*
X73292Y201775D01*
X74641Y202061D01*
X74841Y201978D01*
X76035D01*
X77137Y202435D01*
X77981Y203279D01*
X78438Y204381D01*
Y205575D01*
X78388Y205695D01*
X78563Y206118D01*
X79170Y206874D01*
X81159D01*
X82607Y205426D01*
D02*
G37*
G36*
X190899Y222922D02*
X191035Y222239D01*
X191422Y221660D01*
X191516Y221566D01*
Y203708D01*
X193548Y201676D01*
Y199263D01*
Y196596D01*
X156464D01*
X155448Y197612D01*
Y200903D01*
X155626Y201333D01*
Y202527D01*
X155448Y202957D01*
Y206248D01*
X158750D01*
Y201676D01*
X183642D01*
Y223012D01*
X190899D01*
Y222922D01*
D02*
G37*
G36*
X125422Y241828D02*
X125508Y241259D01*
X125278Y241030D01*
X124892Y240451D01*
X124756Y239768D01*
Y217954D01*
X124892Y217271D01*
X125278Y216692D01*
X136892Y205079D01*
Y203102D01*
X141119D01*
X142066Y202155D01*
Y200646D01*
X142202Y199964D01*
X142588Y199385D01*
X145071Y196902D01*
X145650Y196516D01*
X146333Y196380D01*
X154186D01*
X154869Y196516D01*
X154956Y196574D01*
X155699Y195831D01*
X156464Y195514D01*
X167521D01*
X167773Y194244D01*
X167630Y194184D01*
X166857Y193411D01*
X166453Y192435D01*
X165876D01*
X164865Y192017D01*
X164855Y192006D01*
X164324Y192226D01*
X163032D01*
X161837Y191731D01*
X160923Y190817D01*
X160428Y189622D01*
Y188330D01*
X160923Y187135D01*
X161837Y186221D01*
X163032Y185726D01*
X164324D01*
X165519Y186221D01*
X166233Y186935D01*
X166970D01*
X167980Y187354D01*
X168754Y188127D01*
X169158Y189103D01*
X169735D01*
X170746Y189522D01*
X171519Y190295D01*
X171938Y191306D01*
Y192400D01*
X171519Y193411D01*
X170746Y194184D01*
X170603Y194244D01*
X170855Y195514D01*
X181875D01*
X182340Y195048D01*
Y187715D01*
X182284Y187691D01*
X181369Y186777D01*
X180875Y185582D01*
Y184289D01*
X181369Y183095D01*
X182284Y182181D01*
X183478Y181686D01*
X184771D01*
X185966Y182181D01*
X186880Y183095D01*
X187375Y184289D01*
Y185582D01*
X186880Y186777D01*
X185966Y187691D01*
X185909Y187715D01*
Y195514D01*
X193548D01*
X194313Y195831D01*
X194630Y196596D01*
Y201676D01*
X194548Y201875D01*
Y201985D01*
X194470Y202063D01*
X194313Y202441D01*
X192598Y204156D01*
Y218824D01*
X193772Y219310D01*
X196308Y216773D01*
Y213449D01*
X196734Y212421D01*
X197762Y211995D01*
X198519D01*
X198579Y211692D01*
X198966Y211113D01*
X217672Y192407D01*
X218251Y192020D01*
X218934Y191884D01*
X235249D01*
X235462Y190702D01*
X234267Y190207D01*
X233353Y189293D01*
X232255Y189855D01*
X232219Y189891D01*
X231024Y190386D01*
X229732D01*
X228537Y189891D01*
X227623Y188977D01*
X227128Y187782D01*
Y186490D01*
X227623Y185295D01*
X228537Y184381D01*
X229732Y183886D01*
X231024D01*
X232219Y184381D01*
X233133Y185295D01*
X234231Y184733D01*
X234267Y184697D01*
X235158Y184328D01*
X234989Y183921D01*
Y181331D01*
X235379Y180390D01*
X235830Y180203D01*
Y174774D01*
X234536D01*
X233838Y174635D01*
X233247Y174240D01*
X232852Y173648D01*
X232713Y172951D01*
Y167338D01*
X231443Y166812D01*
X217670Y180586D01*
X217091Y180972D01*
X216408Y181108D01*
X202580D01*
X202396Y181444D01*
X202191Y182378D01*
X202907Y183095D01*
X203402Y184289D01*
Y185582D01*
X202907Y186777D01*
X201993Y187691D01*
X200798Y188186D01*
X199506D01*
X198311Y187691D01*
X197397Y186777D01*
X196902Y185582D01*
Y184289D01*
X197397Y183095D01*
X198113Y182378D01*
X197908Y181444D01*
X197724Y181108D01*
X194641D01*
X194637Y181114D01*
X194251Y182378D01*
X194821Y182948D01*
X195278Y184051D01*
Y185244D01*
X194821Y186347D01*
X193977Y187191D01*
X192875Y187648D01*
X191681D01*
X190579Y187191D01*
X189735Y186347D01*
X189278Y185244D01*
Y184051D01*
X189735Y182948D01*
X190305Y182378D01*
X189919Y181114D01*
X189915Y181108D01*
X187706D01*
X187023Y180972D01*
X186444Y180586D01*
X176979Y171120D01*
X176922Y171144D01*
X175630D01*
X175194Y170964D01*
X173697Y171259D01*
X172783Y172173D01*
X171588Y172668D01*
X170296D01*
X169101Y172173D01*
X168406Y171478D01*
X167500Y170588D01*
X166305Y171083D01*
X165012D01*
X163818Y170588D01*
X162904Y169674D01*
X162409Y168479D01*
Y167187D01*
X162904Y165992D01*
X163818Y165078D01*
X165012Y164583D01*
X166305D01*
X167500Y165078D01*
X168414Y165992D01*
X169925Y166322D01*
X170296Y166168D01*
X171588D01*
X172024Y166348D01*
X173521Y166053D01*
X174435Y165139D01*
X175630Y164644D01*
X176922D01*
X178117Y165139D01*
X178478Y165500D01*
X179137Y166000D01*
X180137Y165500D01*
X180336Y165302D01*
X181530Y164807D01*
X182823D01*
X184017Y165302D01*
X185584Y165072D01*
X185831Y164825D01*
X187026Y164331D01*
X188318D01*
X189513Y164825D01*
X190427Y165740D01*
X191302Y165327D01*
X191327Y165302D01*
X192521Y164807D01*
X193814D01*
X195009Y165302D01*
X195923Y166216D01*
X196418Y167411D01*
Y168703D01*
X195923Y169898D01*
X195009Y170812D01*
X193814Y171307D01*
X192521D01*
X191327Y170812D01*
X190412Y169898D01*
X189538Y170311D01*
X189513Y170336D01*
X188318Y170830D01*
X187026D01*
X185831Y170336D01*
X184264Y170565D01*
X184017Y170812D01*
X183661Y170960D01*
X183363Y172458D01*
X188445Y177540D01*
X207492D01*
X208018Y176270D01*
X207939Y176191D01*
X207444Y174996D01*
Y173703D01*
X207939Y172509D01*
X208853Y171595D01*
X209357Y170084D01*
X209230Y169777D01*
Y168484D01*
X209724Y167290D01*
X210562Y166451D01*
X210531Y166081D01*
X210202Y165182D01*
X208146D01*
X205974Y167354D01*
X205997Y167411D01*
Y168703D01*
X205503Y169898D01*
X204588Y170812D01*
X203394Y171307D01*
X202101D01*
X200906Y170812D01*
X199992Y169898D01*
X199497Y168703D01*
Y167411D01*
X199992Y166216D01*
X200906Y165302D01*
X202101Y164807D01*
X203394D01*
X203451Y164831D01*
X206146Y162136D01*
X206724Y161749D01*
X207407Y161613D01*
X215245D01*
X218099Y158758D01*
X218678Y158371D01*
X219293Y158249D01*
X219365Y158139D01*
X219473Y156949D01*
X219393Y156916D01*
X218479Y156002D01*
X217984Y154807D01*
Y153514D01*
X218479Y152320D01*
X219393Y151405D01*
X220588Y150911D01*
X221880D01*
X222510Y150268D01*
X221636Y149379D01*
X221371D01*
X220176Y148884D01*
X219262Y147970D01*
X218767Y146775D01*
Y145482D01*
X219054Y144790D01*
X219165Y143462D01*
X218251Y142547D01*
X217756Y141353D01*
Y140060D01*
X218251Y138865D01*
X219165Y137951D01*
X220360Y137456D01*
X221653D01*
X222847Y137951D01*
X223762Y138865D01*
X224256Y140060D01*
Y141353D01*
X223970Y142045D01*
X223858Y143374D01*
X224773Y144288D01*
X225020Y144886D01*
X226072Y145825D01*
X227365D01*
X228559Y146319D01*
X229000Y146232D01*
X229244Y145642D01*
X230159Y144727D01*
X231353Y144233D01*
X231853D01*
X232379Y142963D01*
X228308Y138891D01*
X227921Y138312D01*
X227785Y137629D01*
Y134734D01*
X227752Y134721D01*
X226838Y133807D01*
X226343Y132612D01*
Y132606D01*
X225940Y131433D01*
X224647Y131433D01*
X223452Y130938D01*
X222317Y131343D01*
X221712Y131948D01*
X220518Y132443D01*
X219225D01*
X218030Y131948D01*
X217116Y131034D01*
X216985Y130718D01*
X215487Y130421D01*
X214904Y131004D01*
X214391Y131346D01*
X214159Y132218D01*
X214121Y132726D01*
X214379Y133350D01*
Y138430D01*
X214062Y139195D01*
X213509Y139424D01*
X213299Y140391D01*
X213300Y140713D01*
X213617Y141478D01*
Y146558D01*
X213300Y147323D01*
X212535Y147640D01*
X212117D01*
X211302Y148910D01*
X211420Y149195D01*
Y150289D01*
X211001Y151300D01*
X210889Y151412D01*
X210340Y152242D01*
X210889Y153072D01*
X211001Y153184D01*
X211420Y154195D01*
Y155289D01*
X211001Y156300D01*
X210228Y157073D01*
X209217Y157492D01*
X208123D01*
X207112Y157073D01*
X207000Y156960D01*
X206170Y156411D01*
X205340Y156960D01*
X205228Y157073D01*
X204217Y157492D01*
X203123D01*
X202112Y157073D01*
X202000Y156961D01*
X201170Y156411D01*
X200340Y156961D01*
X200228Y157073D01*
X199217Y157492D01*
X198123D01*
X197112Y157073D01*
X197000Y156960D01*
X196170Y156411D01*
X195340Y156960D01*
X195228Y157073D01*
X194217Y157492D01*
X193123D01*
X192112Y157073D01*
X192000Y156961D01*
X191170Y156411D01*
X190340Y156961D01*
X190228Y157073D01*
X189217Y157492D01*
X188123D01*
X187113Y157073D01*
X187000Y156960D01*
X186170Y156411D01*
X185340Y156960D01*
X185228Y157073D01*
X184217Y157492D01*
X183123D01*
X182112Y157073D01*
X182000Y156961D01*
X181170Y156411D01*
X180340Y156961D01*
X180228Y157073D01*
X179217Y157492D01*
X178123D01*
X177113Y157073D01*
X177000Y156960D01*
X176170Y156411D01*
X175340Y156960D01*
X175228Y157073D01*
X174217Y157492D01*
X173123D01*
X172112Y157073D01*
X172000Y156961D01*
X171170Y156411D01*
X170340Y156961D01*
X170228Y157073D01*
X169217Y157492D01*
X168123D01*
X167113Y157073D01*
X167000Y156960D01*
X166170Y156411D01*
X165340Y156960D01*
X165228Y157073D01*
X164217Y157492D01*
X163123D01*
X162644Y157293D01*
X161374Y157994D01*
Y161781D01*
X161057Y162546D01*
X158364Y165239D01*
X158499Y165375D01*
X158956Y166477D01*
Y167671D01*
X158499Y168773D01*
X158002Y169271D01*
X158088Y170576D01*
X158171Y170761D01*
X158939Y171529D01*
X159396Y172631D01*
Y173825D01*
X158939Y174927D01*
X158095Y175771D01*
X156993Y176228D01*
X155799D01*
X154697Y175771D01*
X153853Y174927D01*
X153396Y173825D01*
Y172631D01*
X153853Y171529D01*
X152942Y170660D01*
X152149Y171453D01*
X151384Y171770D01*
X145988D01*
X145262Y173040D01*
X145519Y173660D01*
Y174953D01*
X145024Y176148D01*
X144110Y177062D01*
X142915Y177557D01*
X141622D01*
X140428Y177062D01*
X139513Y176148D01*
X139019Y174953D01*
Y173660D01*
X139275Y173040D01*
X138549Y171770D01*
X133410D01*
Y172555D01*
X132954Y173657D01*
X132110Y174501D01*
X131007Y174958D01*
X129814D01*
X128711Y174501D01*
X127867Y173657D01*
X127410Y172555D01*
Y171770D01*
X122174D01*
X121409Y171453D01*
X121409Y171453D01*
X113027Y163071D01*
X112710Y162306D01*
Y157219D01*
X109839D01*
X106931Y160126D01*
X106607Y160343D01*
X106349Y160526D01*
X105975Y161883D01*
X106120Y162235D01*
Y163528D01*
X106096Y163584D01*
X108450Y165938D01*
X108837Y166516D01*
X108973Y167199D01*
Y184171D01*
X108911Y184478D01*
Y189897D01*
X109070D01*
X110098Y190323D01*
X110524Y191351D01*
Y191764D01*
X114796D01*
X114983Y191312D01*
X115923Y190923D01*
X118394D01*
X118452Y190784D01*
X119217Y190467D01*
X120559D01*
X121324Y190784D01*
X121382Y190923D01*
X123853D01*
X124793Y191312D01*
X125183Y192253D01*
Y194843D01*
X124793Y195784D01*
X124342Y195971D01*
Y206362D01*
X124206Y207045D01*
X123819Y207624D01*
X113716Y217726D01*
Y220961D01*
X102752D01*
Y224907D01*
X103203Y225094D01*
X103593Y226035D01*
Y228625D01*
X103203Y229566D01*
X102263Y229955D01*
X99792D01*
X99734Y230094D01*
X98969Y230411D01*
X97627D01*
X96862Y230094D01*
X96804Y229955D01*
X95123D01*
X94875Y230553D01*
X94031Y231397D01*
X92928Y231854D01*
X91735D01*
X90632Y231397D01*
X89788Y230553D01*
X89332Y229451D01*
Y228257D01*
X89788Y227155D01*
X90632Y226311D01*
X91735Y225854D01*
X92928D01*
X93109Y225779D01*
X93393Y225094D01*
X93551Y223734D01*
X93289Y223473D01*
X92902Y222894D01*
X92767Y222211D01*
Y221017D01*
X85475D01*
X84351Y220794D01*
X83399Y220158D01*
X82763Y219205D01*
X82539Y218082D01*
X82608Y217738D01*
X80651Y215782D01*
X78877D01*
X78690Y216233D01*
X77749Y216623D01*
X75526D01*
X74590Y217301D01*
X75509Y217940D01*
X76802D01*
X77997Y218435D01*
X78911Y219349D01*
X79406Y220543D01*
Y221836D01*
X78911Y223031D01*
X77997Y223945D01*
X77681Y224076D01*
X77383Y225574D01*
X92644Y240834D01*
X121892D01*
X122575Y240970D01*
X123154Y241356D01*
X124069Y242272D01*
X125422Y241828D01*
D02*
G37*
G36*
X276606Y189738D02*
X271813Y184945D01*
X268199D01*
Y188943D01*
X267882Y190055D01*
X268199Y190820D01*
Y194818D01*
X267954Y195410D01*
X268045Y196659D01*
X268362Y197424D01*
X268362Y197804D01*
Y201422D01*
X268044Y202187D01*
X267279Y202504D01*
Y203708D01*
X268044Y204025D01*
X268362Y204790D01*
Y208788D01*
X268044Y209553D01*
X267279Y209870D01*
X267117D01*
Y211328D01*
X267279D01*
X268044Y211645D01*
X268362Y212410D01*
Y216408D01*
X276606D01*
Y189738D01*
D02*
G37*
G36*
X153379Y168693D02*
X152956Y167671D01*
Y166477D01*
X153413Y165375D01*
X154257Y164531D01*
X155359Y164074D01*
X156553D01*
X157575Y164497D01*
X160291Y161781D01*
Y150016D01*
X159021Y149168D01*
X158867Y149232D01*
X157573D01*
X156379Y148737D01*
X155465Y147823D01*
X154970Y146629D01*
Y145336D01*
X155465Y144141D01*
X156379Y143227D01*
X157573Y142732D01*
X158867D01*
X158953Y142768D01*
X159032Y142715D01*
X159987D01*
Y142077D01*
X160304Y141312D01*
X161069Y140995D01*
X165067D01*
X165832Y141312D01*
X166149Y142077D01*
Y142715D01*
X168369D01*
Y142077D01*
X168686Y141312D01*
X169451Y140995D01*
X173449D01*
X174214Y141312D01*
X174319Y141564D01*
X175693D01*
X175798Y141312D01*
X176563Y140995D01*
X179838D01*
X180741Y140406D01*
X180920Y139822D01*
Y139195D01*
X181339Y138184D01*
X182112Y137411D01*
X183123Y136992D01*
X184217D01*
X185228Y137411D01*
X186001Y138184D01*
X186420Y139195D01*
Y139568D01*
X186627Y140369D01*
X187593Y140741D01*
X190721D01*
X191486Y141058D01*
X191803Y141823D01*
Y142715D01*
X193515D01*
Y141823D01*
X193832Y141058D01*
X194597Y140741D01*
X197587D01*
X198120Y139943D01*
Y138650D01*
X198615Y137456D01*
X199333Y136737D01*
X199132Y135812D01*
X198944Y135467D01*
X197425D01*
X197368Y135606D01*
X196602Y135923D01*
X195261D01*
X194496Y135606D01*
X194438Y135467D01*
X191967D01*
X191026Y135078D01*
X190637Y134137D01*
Y133350D01*
X180028D01*
X179687Y133009D01*
X178979Y133302D01*
X177656D01*
Y134719D01*
X177934Y135135D01*
X178070Y135818D01*
X177934Y136501D01*
X177547Y137080D01*
X176968Y137466D01*
X176286Y137602D01*
X175603Y137466D01*
X175024Y137080D01*
X174610Y136665D01*
X174223Y136087D01*
X174087Y135404D01*
Y131130D01*
X173990Y130985D01*
X173854Y130302D01*
X173990Y129619D01*
X174021Y129573D01*
X173368Y128303D01*
X166345D01*
Y132047D01*
X166028Y132812D01*
X165263Y133129D01*
X163922D01*
X163830Y133190D01*
Y134874D01*
X159620D01*
X158991Y135503D01*
X158412Y135890D01*
X157729Y136026D01*
X155000D01*
X154230Y136796D01*
X153577D01*
X153211Y137814D01*
X153074Y137952D01*
X153121Y138066D01*
D01*
X153391Y138717D01*
Y142715D01*
X153074Y143480D01*
X152309Y143797D01*
X151130D01*
Y145518D01*
X151530Y145918D01*
X152025Y147112D01*
Y148405D01*
X151530Y149600D01*
X151130Y150000D01*
Y151597D01*
X151481Y151888D01*
X152400Y152291D01*
X153123Y151992D01*
X154217D01*
X155228Y152411D01*
X156001Y153184D01*
X156420Y154195D01*
Y155289D01*
X156001Y156300D01*
X155228Y157073D01*
X154217Y157492D01*
X153123D01*
X152112Y157073D01*
X151339Y156300D01*
X150986Y155448D01*
X146354D01*
X146001Y156300D01*
X145228Y157073D01*
X144217Y157492D01*
X143123D01*
X142112Y157073D01*
X141339Y156300D01*
X140986Y155448D01*
X134366D01*
X126746Y147828D01*
Y138674D01*
X123200Y135128D01*
X113792D01*
Y151697D01*
X114965Y152183D01*
X117786Y149362D01*
Y147066D01*
X117922Y146383D01*
X118309Y145804D01*
X118888Y145417D01*
X119571Y145282D01*
X120253Y145417D01*
X120832Y145804D01*
X121219Y146383D01*
X121355Y147066D01*
Y150305D01*
X134750Y163700D01*
X135303Y163810D01*
X135882Y164196D01*
X136269Y164775D01*
X136404Y165458D01*
X136269Y166141D01*
X135882Y166720D01*
X135303Y167107D01*
X134620Y167242D01*
X133985D01*
X133302Y167107D01*
X132723Y166720D01*
X119099Y153096D01*
X115499Y156697D01*
X114920Y157083D01*
X114237Y157219D01*
X113792D01*
Y162306D01*
X122174Y170688D01*
X127689D01*
X127867Y170259D01*
X128711Y169415D01*
X129814Y168958D01*
X131007D01*
X132110Y169415D01*
X132954Y170259D01*
X133132Y170688D01*
X151384D01*
X153379Y168693D01*
D02*
G37*
G36*
X250750Y182520D02*
Y182488D01*
X251245Y181293D01*
X252159Y180379D01*
X253354Y179884D01*
X254646D01*
X254703Y179907D01*
X262630Y171981D01*
Y166890D01*
X262178Y166703D01*
X261789Y165763D01*
Y163292D01*
X261650Y163234D01*
X261566Y163032D01*
X260222Y162625D01*
X260132Y162637D01*
X258993Y163109D01*
X257701D01*
X257441Y163001D01*
X256416Y162768D01*
X255908Y163637D01*
X255786Y163932D01*
X254872Y164846D01*
X253677Y165341D01*
X252384D01*
X251190Y164846D01*
X250664Y164320D01*
X243293D01*
X242622Y165296D01*
X242547Y165590D01*
X242657Y166144D01*
Y172951D01*
X242518Y173648D01*
X242123Y174240D01*
X241532Y174635D01*
X240835Y174774D01*
X239399D01*
Y179401D01*
X239613Y179545D01*
X240955D01*
X241720Y179862D01*
X241778Y180001D01*
X244249D01*
X245189Y180390D01*
X245376Y180842D01*
X246537D01*
X247219Y180977D01*
X247798Y181364D01*
X249480Y183046D01*
X250750Y182520D01*
D02*
G37*
G36*
X182000Y152523D02*
X182112Y152411D01*
X183123Y151992D01*
X184217D01*
X185228Y152411D01*
X185340Y152523D01*
X186170Y153072D01*
X187000Y152523D01*
X187113Y152411D01*
X188123Y151992D01*
X189217D01*
X190228Y152411D01*
X190340Y152523D01*
X191170Y153073D01*
X192000Y152523D01*
X192112Y152411D01*
X193123Y151992D01*
X194217D01*
X195228Y152411D01*
X195340Y152523D01*
X196170Y153072D01*
X197000Y152523D01*
X197112Y152411D01*
X197964Y152058D01*
X197974Y152009D01*
X197479Y150815D01*
Y149522D01*
X197974Y148327D01*
X198888Y147413D01*
X200083Y146918D01*
X201376D01*
X202570Y147413D01*
X203485Y148327D01*
X203979Y149522D01*
Y150815D01*
X203769Y151322D01*
X204217Y151992D01*
X205109Y152361D01*
X205733Y152269D01*
X206503Y151770D01*
X206555Y151569D01*
X206451Y151412D01*
X206339Y151300D01*
X205920Y150289D01*
Y149195D01*
X206026Y148939D01*
X205447Y147797D01*
X205250Y147614D01*
X204354Y147243D01*
X203928Y146215D01*
Y143025D01*
X203890Y142972D01*
X202658Y142281D01*
X202017Y142547D01*
X200724D01*
X200716Y142544D01*
X199563Y143441D01*
X199360Y143930D01*
X198595Y144247D01*
X194597D01*
X193832Y143930D01*
X193738Y143705D01*
X193515Y143797D01*
X191803D01*
X191580Y143705D01*
X191486Y143930D01*
X190721Y144247D01*
X187593D01*
X186723Y144247D01*
X186420Y145289D01*
X186001Y146300D01*
X185228Y147073D01*
X184217Y147492D01*
X183123D01*
X182112Y147073D01*
X181339Y146300D01*
X180920Y145289D01*
Y144741D01*
X180561Y144501D01*
X176563D01*
X175798Y144184D01*
X175693Y143932D01*
X174319D01*
X174214Y144184D01*
X173449Y144501D01*
X169451D01*
X168686Y144184D01*
X168503Y143742D01*
X168369Y143797D01*
X166149D01*
X166015Y143742D01*
X165832Y144184D01*
X165067Y144501D01*
X162028D01*
X161470Y145336D01*
Y146629D01*
X160975Y147823D01*
X160784Y148014D01*
X160802Y148198D01*
X161057Y149251D01*
X161178Y149543D01*
X161353Y149805D01*
X161331Y149914D01*
X161374Y150016D01*
Y151490D01*
X162644Y152190D01*
X163123Y151992D01*
X164217D01*
X165228Y152411D01*
X165340Y152523D01*
X166170Y153072D01*
X167000Y152523D01*
X167113Y152411D01*
X168123Y151992D01*
X169217D01*
X170228Y152411D01*
X170340Y152523D01*
X171170Y153073D01*
X172000Y152523D01*
X172112Y152411D01*
X173123Y151992D01*
X174217D01*
X175228Y152411D01*
X175340Y152523D01*
X176170Y153072D01*
X177000Y152523D01*
X177113Y152411D01*
X178123Y151992D01*
X179217D01*
X180228Y152411D01*
X180340Y152523D01*
X181170Y153073D01*
X182000Y152523D01*
D02*
G37*
G36*
X150515Y153556D02*
X150365Y152362D01*
X150234Y152047D01*
X150210Y151997D01*
X150052Y151698D01*
X149073Y151009D01*
X148128D01*
X146934Y150514D01*
X146020Y149600D01*
X145525Y148405D01*
Y147112D01*
X146020Y145918D01*
X146934Y145004D01*
X148128Y144509D01*
X149421D01*
X150190Y143453D01*
X150190Y143452D01*
X149885Y142715D01*
Y138717D01*
X150202Y137952D01*
X150967Y137635D01*
X152074D01*
Y137537D01*
X152209Y137402D01*
X152558Y136430D01*
X152720Y136252D01*
X152812Y136030D01*
X152988Y135957D01*
X153116Y135816D01*
X153355Y135805D01*
X153577Y135713D01*
X153782D01*
X154234Y135260D01*
X155000Y134943D01*
X157622D01*
X157989Y134870D01*
X158301Y134663D01*
X158854Y134109D01*
X159620Y133792D01*
X161849D01*
X162768Y132979D01*
X162944Y132717D01*
X163030Y132508D01*
X162839Y132047D01*
Y128049D01*
X162452Y127469D01*
X160371D01*
Y127839D01*
X159914Y128941D01*
X159070Y129785D01*
X157967Y130242D01*
X156774D01*
X156380Y130079D01*
X156295Y130164D01*
X155717Y130551D01*
X155624Y130569D01*
X154626Y131568D01*
X154569Y131591D01*
X154539Y131645D01*
X154194Y131747D01*
X153861Y131885D01*
X152687Y132243D01*
X152370Y133008D01*
X151605Y133325D01*
X147607D01*
X146842Y133008D01*
X146525Y132243D01*
Y131984D01*
X144499D01*
Y135697D01*
X144363Y136380D01*
X143977Y136959D01*
X140502Y140433D01*
X139923Y140820D01*
X139241Y140955D01*
X138931D01*
X138441Y141446D01*
X137338Y141903D01*
X136145D01*
X135042Y141446D01*
X134551Y140955D01*
X129767D01*
X129084Y140820D01*
X127828Y141508D01*
Y147380D01*
X134814Y154366D01*
X140920D01*
Y154195D01*
X141339Y153184D01*
X142112Y152411D01*
X143123Y151992D01*
X144217D01*
X145228Y152411D01*
X146001Y153184D01*
X146420Y154195D01*
Y154366D01*
X149903D01*
X150515Y153556D01*
D02*
G37*
G36*
X92244Y153841D02*
Y142219D01*
X90974Y141371D01*
X90662Y141500D01*
X89369D01*
X88175Y141005D01*
X87260Y140091D01*
X86766Y138896D01*
Y137604D01*
X87260Y136409D01*
X88175Y135495D01*
X88785Y135242D01*
X89165Y133827D01*
X78119Y122780D01*
X73345D01*
X72898Y123449D01*
Y124742D01*
X72403Y125937D01*
X71489Y126851D01*
X71433Y126874D01*
Y130703D01*
X74847Y134118D01*
X75149D01*
X75832Y134254D01*
X76411Y134641D01*
X81106Y139335D01*
X81492Y139914D01*
X81519Y140046D01*
X82600Y140784D01*
X82898Y140841D01*
X83214Y140710D01*
X84507D01*
X85701Y141205D01*
X86615Y142119D01*
X87110Y143314D01*
Y144607D01*
X86615Y145801D01*
X85701Y146715D01*
X85386Y146846D01*
X85088Y148344D01*
X91071Y154327D01*
X92244Y153841D01*
D02*
G37*
G36*
X51816Y155381D02*
X51692Y155257D01*
X51197Y154062D01*
Y152769D01*
X51692Y151575D01*
X51816Y151451D01*
Y140970D01*
X34534D01*
X31133Y144371D01*
Y155476D01*
X33137Y157480D01*
X51816D01*
Y155381D01*
D02*
G37*
G36*
X107838Y154173D02*
X108417Y153786D01*
X109100Y153651D01*
X112437D01*
Y137947D01*
X112586Y137200D01*
X112710Y137015D01*
Y135128D01*
X113027Y134363D01*
X113792Y134046D01*
X120458D01*
X120944Y132872D01*
X117690Y129618D01*
X116420Y130144D01*
Y130289D01*
X116001Y131300D01*
X115228Y132073D01*
X114217Y132492D01*
X113123D01*
X112112Y132073D01*
X111339Y131300D01*
X110920Y130289D01*
Y129195D01*
X111339Y128184D01*
X111977Y127546D01*
X111882Y126913D01*
X111588Y126276D01*
X106298D01*
X105539Y127035D01*
X104437Y127492D01*
X103243D01*
X102141Y127035D01*
X101297Y126191D01*
X100840Y125088D01*
Y123895D01*
X101297Y122792D01*
X102141Y121948D01*
X103243Y121492D01*
X104437D01*
X105539Y121948D01*
X105825Y122234D01*
X106952Y121756D01*
X107066Y121590D01*
Y114630D01*
X107199Y113962D01*
X107577Y113397D01*
X108143Y113018D01*
X108811Y112886D01*
X113722D01*
X114230Y112377D01*
Y100986D01*
X110833D01*
X110086Y100838D01*
X109453Y100415D01*
X109030Y99782D01*
X108881Y99035D01*
Y98965D01*
X107611Y98117D01*
X107299Y98246D01*
X106006D01*
X104812Y97751D01*
X104225Y97165D01*
X102955Y97628D01*
Y99035D01*
X102806Y99782D01*
X102383Y100415D01*
X101750Y100838D01*
X101003Y100986D01*
X90640D01*
X89893Y100838D01*
X89260Y100415D01*
X88837Y99782D01*
X88688Y99035D01*
Y91192D01*
X81741D01*
X81717Y91249D01*
X80803Y92163D01*
X79608Y92658D01*
X79471D01*
X79138Y93063D01*
Y98753D01*
X79028Y99308D01*
X79054Y99494D01*
X79760Y100578D01*
X83323D01*
X84005Y100714D01*
X84584Y101100D01*
X88628Y105144D01*
X89015Y105723D01*
X89151Y106406D01*
Y106646D01*
X91351D01*
X92379Y107072D01*
X92805Y108100D01*
Y111986D01*
X92719Y112193D01*
X92776Y112331D01*
Y114978D01*
X93944Y115218D01*
X94203Y115394D01*
X94491Y115513D01*
X94535Y115619D01*
X94630Y115683D01*
X94689Y115990D01*
X94808Y116279D01*
Y118364D01*
X94491Y119129D01*
X92459Y121161D01*
X91694Y121478D01*
X83523D01*
X83037Y122652D01*
X95395Y135009D01*
X95781Y135588D01*
X95862Y135996D01*
X104559D01*
X105306Y136144D01*
X105939Y136567D01*
X106362Y137200D01*
X106511Y137947D01*
Y153841D01*
X107684Y154327D01*
X107838Y154173D01*
D02*
G37*
G36*
X134198Y137203D02*
X135042Y136360D01*
X136145Y135903D01*
X137338D01*
X138441Y136360D01*
X138985Y136904D01*
X140931Y134958D01*
Y131495D01*
X140716Y131351D01*
X139375D01*
X138610Y131034D01*
X138293Y130269D01*
Y126271D01*
X138610Y125506D01*
X138834Y125413D01*
X138816Y124046D01*
X138518Y123922D01*
X138201Y123157D01*
Y119159D01*
X138518Y118394D01*
X139283Y118077D01*
X140078D01*
Y115890D01*
X138239D01*
X137474Y115573D01*
X137157Y114808D01*
Y109728D01*
X137474Y108963D01*
X138239Y108646D01*
X141160D01*
X141299Y108703D01*
X141506Y108617D01*
X145392D01*
X145460Y108646D01*
X147373D01*
Y107120D01*
X147116Y107013D01*
X146727Y106073D01*
Y103602D01*
X146588Y103544D01*
X146271Y102779D01*
Y101437D01*
X146588Y100672D01*
X147353Y100355D01*
X151351D01*
X152116Y100672D01*
X152433Y101437D01*
Y102779D01*
X152116Y103544D01*
X151977Y103602D01*
Y106073D01*
X151588Y107013D01*
X150942Y107281D01*
Y115968D01*
X152021Y116634D01*
X152220Y116583D01*
X152512Y116462D01*
X152774Y116286D01*
X152883Y116308D01*
X152985Y116266D01*
X155627D01*
X156489Y115029D01*
Y111031D01*
X156806Y110266D01*
X156806Y109698D01*
X156489Y108933D01*
Y104935D01*
X156806Y104170D01*
Y103348D01*
X156489Y102583D01*
Y98585D01*
X156521Y98509D01*
X156742Y97536D01*
X156521Y96563D01*
X156489Y96487D01*
Y92608D01*
X156180Y92351D01*
X155328Y91972D01*
X155228Y92073D01*
X154217Y92492D01*
X153123D01*
X152578Y92266D01*
X152051Y92092D01*
X150739Y92496D01*
X150454Y92781D01*
X149260Y93276D01*
X148019D01*
X147965Y93278D01*
X146845Y94186D01*
Y94651D01*
X146528Y95416D01*
X145763Y95733D01*
X141765D01*
X141000Y95416D01*
X140683Y94651D01*
Y93309D01*
X139700Y92959D01*
X139121Y92572D01*
X126912Y80363D01*
X126525Y79784D01*
X126390Y79102D01*
Y73483D01*
X125120Y72634D01*
X124804Y72765D01*
X123511D01*
X122317Y72270D01*
X121403Y71356D01*
X121357Y71246D01*
X120087Y71499D01*
Y78846D01*
X121196D01*
X121943Y78994D01*
X122576Y79417D01*
X122999Y80050D01*
X123148Y80797D01*
Y87474D01*
X124325Y88093D01*
X125427Y87637D01*
X126621D01*
X127723Y88093D01*
X128567Y88937D01*
X129024Y90040D01*
Y91234D01*
X128567Y92336D01*
X127723Y93180D01*
X126621Y93637D01*
X125427D01*
X124325Y93180D01*
X123148Y93799D01*
Y99035D01*
X122999Y99782D01*
X122576Y100415D01*
X121943Y100838D01*
X121196Y100986D01*
X117799D01*
Y113116D01*
X117663Y113799D01*
X117276Y114378D01*
X116245Y115409D01*
Y116500D01*
X116457Y116723D01*
X117515Y117244D01*
X118123Y116992D01*
X119217D01*
X120227Y117411D01*
X121001Y118184D01*
X121420Y119195D01*
Y120289D01*
X121001Y121300D01*
X120227Y122073D01*
X119217Y122492D01*
X118123D01*
X118018Y122449D01*
X117343Y122665D01*
X116938Y122958D01*
X116704Y123327D01*
X116744Y123625D01*
X123737Y130618D01*
X124814Y129899D01*
X124512Y129171D01*
Y127878D01*
X125007Y126683D01*
X125921Y125769D01*
X127115Y125274D01*
X128408D01*
X129603Y125769D01*
X130517Y126683D01*
X131012Y127878D01*
Y129171D01*
X130517Y130365D01*
X129603Y131279D01*
X128408Y131774D01*
X127115D01*
X126387Y131472D01*
X125668Y132549D01*
X130506Y137387D01*
X134122D01*
X134198Y137203D01*
D02*
G37*
G36*
X298958Y136398D02*
X298704Y136144D01*
Y125987D01*
X293624D01*
X292859Y125670D01*
X292542Y124904D01*
X290029D01*
X289817Y125416D01*
X289052Y125733D01*
X283972D01*
X283207Y125416D01*
X282995Y124904D01*
X281139D01*
X280927Y125416D01*
X280162Y125733D01*
X275082D01*
X274317Y125416D01*
X274105Y124904D01*
X272249D01*
X272037Y125416D01*
X271272Y125733D01*
X266192D01*
Y137922D01*
X297434D01*
X298958Y136398D01*
D02*
G37*
G36*
X173699Y127273D02*
X174717Y126617D01*
X174777Y126459D01*
Y122461D01*
X175094Y121696D01*
X174321Y121020D01*
X173895Y119992D01*
Y116106D01*
X173981Y115899D01*
X173924Y115760D01*
Y112839D01*
X174241Y112074D01*
X175006Y111757D01*
X180086D01*
X180096Y111761D01*
X180289Y111616D01*
X180942Y110737D01*
X180645Y110021D01*
Y108927D01*
X181064Y107916D01*
X181837Y107143D01*
X181409Y106370D01*
X181339Y106300D01*
X180920Y105289D01*
Y104195D01*
X180937Y104154D01*
X180492Y103568D01*
X179995Y103108D01*
X178851D01*
X177656Y102613D01*
X176742Y101699D01*
X176588Y101327D01*
X175989Y101575D01*
X171991D01*
X171739Y101470D01*
X170998Y102538D01*
X171281Y103223D01*
Y105694D01*
X171420Y105752D01*
X171737Y106517D01*
Y107859D01*
X171420Y108624D01*
X170655Y108941D01*
X166657D01*
X166182Y108744D01*
X164912Y109304D01*
Y112209D01*
X164973Y112234D01*
X166204Y112298D01*
X166969Y111981D01*
X168311D01*
X169076Y112298D01*
X169393Y113063D01*
Y117061D01*
X169076Y117826D01*
X168311Y118143D01*
X166969D01*
X166204Y117826D01*
X164989Y118211D01*
X164350Y118476D01*
X163830D01*
X163095Y119746D01*
X163167Y119921D01*
Y123901D01*
X165497D01*
X165647Y123801D01*
X165902Y123184D01*
X166817Y122270D01*
X168011Y121775D01*
X169304D01*
X170499Y122270D01*
X171413Y123184D01*
X171908Y124379D01*
Y125672D01*
X171792Y125951D01*
X172641Y127221D01*
X173368D01*
X173528Y127287D01*
X173699Y127273D01*
D02*
G37*
G36*
X26096Y118170D02*
Y112601D01*
X25811Y111918D01*
X25450Y111390D01*
X25315Y111274D01*
X25268Y111255D01*
X24502Y111572D01*
X12495D01*
X12115Y111415D01*
X11735Y111261D01*
X11733Y111257D01*
X11730Y111255D01*
X11572Y110876D01*
X11413Y110498D01*
X11365Y103940D01*
X11492Y103629D01*
X11568Y103302D01*
X11734Y103071D01*
X11876Y102983D01*
X11961Y102839D01*
X12097Y102735D01*
Y102136D01*
X12183Y101929D01*
X12126Y101791D01*
Y98869D01*
X12443Y98104D01*
X13208Y97787D01*
X18288D01*
X19053Y98104D01*
X19370Y98869D01*
Y100231D01*
X23205Y100231D01*
X25223Y98214D01*
X25400Y96765D01*
X25344Y96539D01*
X23107Y94301D01*
X9868D01*
X8702Y94805D01*
Y97726D01*
X8645Y97865D01*
X8731Y98072D01*
Y101958D01*
X8305Y102986D01*
X7277Y103412D01*
X2883D01*
X2850Y103398D01*
X1578Y104246D01*
X1542Y117867D01*
X1841Y118142D01*
X2810Y118590D01*
X3672Y118234D01*
X4965D01*
X6159Y118729D01*
X7073Y119643D01*
X7568Y120837D01*
X8824Y120803D01*
Y119444D01*
X9141Y118678D01*
X9906Y118361D01*
X14986D01*
X15751Y118678D01*
X16068Y119444D01*
Y122365D01*
X16011Y122503D01*
X16097Y122710D01*
Y126373D01*
X16715Y126807D01*
X17270Y126996D01*
X26096Y118170D01*
D02*
G37*
G36*
X146842Y130136D02*
X147607Y129819D01*
X151605D01*
X152370Y130136D01*
X152589Y130665D01*
X153861Y130802D01*
X159979Y124684D01*
X159662Y123919D01*
Y119921D01*
X159291D01*
X156718Y117348D01*
X152985D01*
X152137Y118618D01*
X152213Y118802D01*
Y120095D01*
X151718Y121290D01*
X150804Y122204D01*
X149610Y122699D01*
X148317D01*
X147122Y122204D01*
X146208Y121290D01*
X145713Y120095D01*
Y118802D01*
X146208Y117608D01*
X147122Y116694D01*
X147373Y116590D01*
Y109728D01*
X142243D01*
Y114808D01*
X141926Y115573D01*
X141160Y115890D01*
Y118299D01*
X141390Y118394D01*
X141707Y119159D01*
Y123157D01*
X141390Y123922D01*
X141160Y124017D01*
Y125373D01*
X141481Y125506D01*
X141798Y126271D01*
Y130269D01*
X142221Y130901D01*
X146525D01*
X146842Y130136D01*
D02*
G37*
G36*
X326847Y141041D02*
X326832Y141003D01*
Y135923D01*
X327149Y135157D01*
X327914Y134840D01*
X328096D01*
X328613Y133570D01*
X328474Y133235D01*
Y131942D01*
X327939Y130518D01*
X327621Y129753D01*
Y126214D01*
X326483D01*
X325380Y125757D01*
X324536Y124913D01*
X324079Y123811D01*
Y122617D01*
X324536Y121515D01*
X325380Y120671D01*
X326483Y120214D01*
X327621D01*
Y117052D01*
X326968Y116676D01*
X326352Y116450D01*
X325287Y116891D01*
X323994D01*
X322800Y116396D01*
X321886Y115482D01*
X321391Y114287D01*
Y112994D01*
X321886Y111800D01*
X322800Y110885D01*
X323994Y110391D01*
X325287D01*
X326352Y110831D01*
X326968Y110605D01*
X327621Y110229D01*
Y106937D01*
X327939Y106172D01*
X328081Y106113D01*
X328669Y104993D01*
Y103799D01*
X328676Y103782D01*
X328544Y102542D01*
X327939Y102292D01*
X327621Y101526D01*
Y98234D01*
X326968Y97858D01*
X326352Y97632D01*
X325287Y98073D01*
X323994D01*
X322800Y97578D01*
X321886Y96664D01*
X321391Y95469D01*
Y94176D01*
X321886Y92982D01*
X322800Y92068D01*
X323994Y91573D01*
X325287D01*
X326352Y92014D01*
X326968Y91787D01*
X327621Y91411D01*
Y88826D01*
X326970Y88451D01*
X326352Y88224D01*
X325288Y88664D01*
X323995D01*
X322801Y88169D01*
X321886Y87255D01*
X321392Y86061D01*
Y84768D01*
X321886Y83573D01*
X322801Y82659D01*
X323995Y82164D01*
X325288D01*
X326352Y82605D01*
X326970Y82378D01*
X327621Y82002D01*
Y78711D01*
X327939Y77945D01*
X328704Y77628D01*
Y74382D01*
X327939Y74065D01*
X327621Y73300D01*
Y69302D01*
X327939Y68536D01*
X328704Y68219D01*
Y64973D01*
X327939Y64656D01*
X327621Y63891D01*
Y59893D01*
X327939Y59127D01*
X327408Y58597D01*
Y55946D01*
X326643Y55629D01*
X326326Y54864D01*
Y49784D01*
X326643Y49019D01*
X327408Y48702D01*
Y46226D01*
X332232Y41402D01*
Y32766D01*
X329125D01*
Y38673D01*
X328990Y39356D01*
X328603Y39934D01*
X328160Y40378D01*
X327581Y40764D01*
X326898Y40900D01*
X326215Y40764D01*
X325636Y40378D01*
X325249Y39799D01*
X325114Y39116D01*
X325249Y38433D01*
X325557Y37973D01*
Y32766D01*
X315214D01*
Y62392D01*
X315531Y62523D01*
X316445Y63437D01*
X316940Y64632D01*
Y65925D01*
X316445Y67119D01*
X315531Y68033D01*
X315214Y68165D01*
Y81145D01*
X315297Y81200D01*
X316391D01*
X317402Y81619D01*
X318175Y82392D01*
X318594Y83403D01*
Y84497D01*
X318175Y85508D01*
X317402Y86281D01*
X316391Y86700D01*
X315566D01*
X315360Y87970D01*
X316622Y89232D01*
X317008Y89811D01*
X317144Y90494D01*
Y93218D01*
X317008Y93901D01*
X316895Y94070D01*
Y101642D01*
X317008Y101811D01*
X317144Y102494D01*
Y113406D01*
X317008Y114089D01*
X316895Y114258D01*
Y132528D01*
X316760Y133211D01*
X316373Y133790D01*
X315214Y134949D01*
Y142240D01*
X325969D01*
X326847Y141041D01*
D02*
G37*
G36*
X246409Y143617D02*
X246286Y142281D01*
X245513Y141508D01*
X245094Y140497D01*
Y139403D01*
X245513Y138392D01*
X246286Y137619D01*
X246433Y137558D01*
X247276Y136773D01*
X247239Y135998D01*
Y133924D01*
X247142Y133779D01*
X247006Y133096D01*
Y125730D01*
Y119380D01*
Y112014D01*
X247142Y111331D01*
X247529Y110752D01*
X248108Y110365D01*
X248790Y110230D01*
X248934Y110196D01*
X249106Y109728D01*
X248219Y108458D01*
X242665D01*
Y109578D01*
X242239Y110606D01*
X242078Y110673D01*
X242316Y143256D01*
X243332Y144272D01*
X245877D01*
X246409Y143617D01*
D02*
G37*
G36*
X93726Y118364D02*
Y116279D01*
X92459Y116018D01*
X91694Y116335D01*
X86614D01*
X85849Y116018D01*
X85532Y115253D01*
Y113792D01*
X84074D01*
X81534Y111252D01*
Y105918D01*
X79762Y104146D01*
X70540D01*
X69858Y104010D01*
X69279Y103624D01*
X66695Y101040D01*
X66309Y100462D01*
X66219Y100013D01*
X62550D01*
X62233Y100778D01*
X61468Y101095D01*
X56388D01*
X55623Y100778D01*
X55306Y100013D01*
X52539D01*
X52327Y100524D01*
X51562Y100841D01*
X46500D01*
Y105367D01*
X46364Y106050D01*
X45978Y106629D01*
X43709Y108898D01*
X43130Y109284D01*
X42447Y109420D01*
X39341D01*
X38658Y109284D01*
X38079Y108898D01*
X37319Y108137D01*
X36045D01*
X35363Y108001D01*
X34784Y107615D01*
X33253Y106084D01*
X31910Y106094D01*
X31671Y106813D01*
X32515Y107657D01*
X32972Y108759D01*
Y109953D01*
X32515Y111055D01*
X31671Y111899D01*
X30569Y112356D01*
X29375D01*
X28448Y111972D01*
X27718Y112255D01*
X27178Y112601D01*
Y120396D01*
X35727D01*
X35973Y120150D01*
X36552Y119763D01*
X37235Y119627D01*
X40562D01*
X41245Y119763D01*
X41824Y120150D01*
X42070Y120396D01*
X49474D01*
X49943Y119927D01*
X51137Y119432D01*
X52431D01*
X53625Y119927D01*
X54094Y120396D01*
X67337D01*
X67983Y119126D01*
X67948Y119073D01*
X67812Y118390D01*
Y113988D01*
X67755Y113964D01*
X66841Y113050D01*
X66346Y111855D01*
Y110562D01*
X66841Y109368D01*
X67755Y108454D01*
X68949Y107959D01*
X70243D01*
X71437Y108454D01*
X72351Y109368D01*
X72846Y110562D01*
Y111855D01*
X72351Y113050D01*
X71437Y113964D01*
X71380Y113988D01*
Y117651D01*
X72941Y119212D01*
X78858D01*
X79541Y119347D01*
X80120Y119734D01*
X80782Y120396D01*
X91694D01*
X93726Y118364D01*
D02*
G37*
G36*
X30581Y104411D02*
Y103141D01*
X30555Y103115D01*
X30060Y101920D01*
Y101255D01*
X27357Y98552D01*
X26416D01*
X23654Y101313D01*
X19370Y101313D01*
Y101791D01*
X19053Y102556D01*
X18288Y102873D01*
X13710D01*
X12613Y103702D01*
X12448Y103933D01*
X12495Y110490D01*
X24502D01*
X30581Y104411D01*
D02*
G37*
G36*
X190415Y98842D02*
Y97635D01*
X190804Y96695D01*
X191745Y96305D01*
X192022D01*
X192087Y95062D01*
X191322Y94745D01*
X191005Y93980D01*
Y88900D01*
X191322Y88135D01*
X190652Y87146D01*
X190351Y86954D01*
X190340Y86961D01*
X190228Y87073D01*
X189217Y87492D01*
X188123D01*
X187113Y87073D01*
X186339Y86300D01*
X185920Y85289D01*
Y84195D01*
X186328Y83210D01*
X186335Y83169D01*
X186062Y82073D01*
X185419Y81882D01*
X185228Y82073D01*
X184217Y82492D01*
X183123D01*
X182112Y82073D01*
X181339Y81299D01*
X180920Y80289D01*
Y79195D01*
X181339Y78184D01*
X181451Y78072D01*
X182001Y77242D01*
X181451Y76412D01*
X181339Y76300D01*
X180920Y75289D01*
Y74195D01*
X181339Y73184D01*
X182112Y72411D01*
X183123Y71992D01*
X184217D01*
X185228Y72411D01*
X186001Y73184D01*
X186420Y74195D01*
Y75289D01*
X186046Y76191D01*
X186071Y76259D01*
X187485Y76642D01*
X187592Y76535D01*
X188787Y76040D01*
X189856D01*
X190385Y75667D01*
X190920Y75014D01*
Y74195D01*
X191339Y73184D01*
X191809Y72714D01*
Y70805D01*
X191483Y70587D01*
X187485D01*
X186720Y70270D01*
X186403Y69505D01*
Y68163D01*
X186720Y67398D01*
X185700Y66758D01*
X185589Y66712D01*
X185228Y67073D01*
X184217Y67492D01*
X183123D01*
X182112Y67073D01*
X182000Y66961D01*
X181170Y66411D01*
X180340Y66961D01*
X180228Y67073D01*
X179217Y67492D01*
X178123D01*
X177113Y67073D01*
X177016Y66977D01*
X175506Y67027D01*
X175072Y67488D01*
Y71055D01*
X175193Y71858D01*
X176387Y72353D01*
X177301Y73267D01*
X177796Y74461D01*
Y75754D01*
X177301Y76949D01*
X176387Y77863D01*
X175193Y78358D01*
X173900D01*
X172787Y79251D01*
X172022Y79568D01*
X171541Y80838D01*
X171849Y81147D01*
X172344Y82341D01*
Y83634D01*
X171849Y84829D01*
X170935Y85743D01*
X169741Y86238D01*
X168448D01*
X168192Y86132D01*
X166611Y86631D01*
X165696Y87545D01*
X164852Y87895D01*
X164912Y88040D01*
Y92439D01*
X166182Y92965D01*
X166669Y92478D01*
X167863Y91983D01*
X169156D01*
X169848Y92270D01*
X171086Y91787D01*
X171276Y91608D01*
X171339Y91299D01*
X171337Y91296D01*
X170920Y90289D01*
Y89195D01*
X171339Y88184D01*
X172112Y87410D01*
X173123Y86992D01*
X173890D01*
X173981Y86856D01*
Y85563D01*
X174476Y84368D01*
X175390Y83454D01*
X176585Y82959D01*
X177878D01*
X179072Y83454D01*
X179986Y84368D01*
X180239Y84978D01*
X181223Y85945D01*
X182516D01*
X183710Y86440D01*
X184624Y87354D01*
X185119Y88549D01*
Y89842D01*
X184624Y91036D01*
X183710Y91951D01*
X182516Y92445D01*
X181223D01*
X180028Y91951D01*
X179114Y91036D01*
X178861Y90427D01*
X177878Y89459D01*
X176585D01*
X176420Y89570D01*
Y90289D01*
X176001Y91299D01*
X175614Y91686D01*
Y94663D01*
X176226Y94917D01*
X176615Y95857D01*
Y96348D01*
X177052Y96665D01*
X177885Y97008D01*
X178851Y96608D01*
X180144D01*
X181338Y97103D01*
X181846Y97611D01*
X182943Y97707D01*
X183397Y97503D01*
X184087Y96813D01*
X185282Y96318D01*
X186574D01*
X187769Y96813D01*
X188683Y97727D01*
X189178Y98922D01*
X190415Y98842D01*
D02*
G37*
G36*
X232496Y130085D02*
X233585Y129792D01*
Y127790D01*
X233671Y127583D01*
X233614Y127444D01*
Y124523D01*
X233931Y123758D01*
X234696Y123441D01*
X239776D01*
X239819Y123459D01*
X241083Y122640D01*
X240996Y110680D01*
X241078Y110477D01*
X241078Y110258D01*
X241228Y110109D01*
X241307Y109913D01*
X241364Y109888D01*
X241582Y109363D01*
Y108458D01*
X241899Y107693D01*
X242665Y107376D01*
X246538D01*
X246860Y106920D01*
X247191Y106106D01*
X246787Y105129D01*
Y103836D01*
X247281Y102641D01*
X247609Y102314D01*
X247926Y100900D01*
X247801Y100516D01*
X247443Y99652D01*
Y98359D01*
X246770Y96814D01*
X246507Y96705D01*
X245593Y95791D01*
X243949Y95141D01*
X243874Y95172D01*
X242581D01*
X241387Y94677D01*
X240472Y93763D01*
X239978Y92569D01*
Y91276D01*
X240472Y90081D01*
X241387Y89167D01*
X242581Y88672D01*
X243874D01*
X245069Y89167D01*
X245983Y90081D01*
X247627Y90731D01*
X247702Y90700D01*
X248995D01*
X249079Y90735D01*
X250349Y89886D01*
Y87404D01*
X250435Y87197D01*
X250378Y87058D01*
Y84137D01*
X250435Y83999D01*
X250349Y83792D01*
Y79906D01*
X250775Y78878D01*
X251803Y78452D01*
X252768D01*
Y78192D01*
X252904Y77509D01*
X253291Y76930D01*
X253560Y76661D01*
Y75239D01*
X252738Y74418D01*
X252351Y73839D01*
X252216Y73156D01*
Y67407D01*
X250946Y67154D01*
X250596Y67999D01*
X249752Y68843D01*
X248649Y69300D01*
X247456D01*
X246353Y68843D01*
X245509Y67999D01*
X245052Y66897D01*
X244767Y65820D01*
X243879Y65820D01*
X241824D01*
X241027Y66616D01*
Y67990D01*
X240891Y68673D01*
X240505Y69251D01*
X238162Y71595D01*
X237583Y71981D01*
X237090Y72080D01*
X236671Y72628D01*
X236332Y73387D01*
X236435Y73635D01*
Y76225D01*
X236045Y77166D01*
X235105Y77555D01*
X232634D01*
X232576Y77694D01*
X231811Y78011D01*
X230469D01*
X229704Y77694D01*
X229646Y77555D01*
X227175D01*
X226235Y77166D01*
X226048Y76714D01*
X224184D01*
X223501Y76578D01*
X222922Y76192D01*
X221080Y74350D01*
X220694Y73771D01*
X220624Y73421D01*
X217695Y70492D01*
X217022D01*
X215828Y69997D01*
X214914Y69083D01*
X214419Y67888D01*
Y66596D01*
X214914Y65401D01*
X215828Y64487D01*
X215361Y63305D01*
X215170Y62844D01*
X213813Y62800D01*
X213791Y62854D01*
X212763Y63280D01*
X212350D01*
Y67305D01*
X212215Y67988D01*
X211828Y68566D01*
X211355Y69039D01*
X211420Y69195D01*
Y70289D01*
X211001Y71300D01*
X210228Y72073D01*
X209217Y72492D01*
X208123D01*
X207297Y72150D01*
X206546Y72444D01*
X206027Y72784D01*
Y72807D01*
X205710Y73572D01*
X205571Y73630D01*
Y76101D01*
X205182Y77041D01*
X204241Y77431D01*
X204072D01*
X203392Y78701D01*
X203681Y79399D01*
Y80692D01*
X203186Y81886D01*
X202272Y82800D01*
X202225Y82820D01*
X201420Y84195D01*
Y85289D01*
X201001Y86300D01*
X200404Y86897D01*
X200268Y88215D01*
X200694Y89243D01*
X201709Y90195D01*
X205707D01*
X206472Y90512D01*
X207551Y90449D01*
X211549D01*
X212314Y90766D01*
X212628Y90766D01*
X213393Y90449D01*
X217391D01*
X218156Y90766D01*
X219548Y90806D01*
X220077Y90586D01*
X221370D01*
X222565Y91081D01*
X223479Y91995D01*
X223819Y92815D01*
X223869Y92877D01*
X224164Y93029D01*
X225713Y92541D01*
X225727Y92506D01*
X226667Y92117D01*
X229138D01*
X229196Y91978D01*
X229961Y91661D01*
X231303D01*
X231792Y91333D01*
Y89949D01*
X230469D01*
X229704Y89632D01*
X229646Y89493D01*
X227175D01*
X226235Y89104D01*
X225854Y88184D01*
X224864Y88594D01*
X223571D01*
X222377Y88099D01*
X221463Y87185D01*
X220549Y87628D01*
X220524Y87653D01*
X219330Y88148D01*
X218037D01*
X216842Y87653D01*
X215928Y86739D01*
X215259Y87042D01*
X215228Y87073D01*
X214217Y87492D01*
X213123D01*
X212112Y87073D01*
X212000Y86961D01*
X211170Y86411D01*
X210340Y86961D01*
X210228Y87073D01*
X209217Y87492D01*
X208123D01*
X207112Y87073D01*
X206339Y86300D01*
X205920Y85289D01*
Y84195D01*
X206339Y83184D01*
X206451Y83072D01*
X207001Y82242D01*
X206451Y81412D01*
X206339Y81299D01*
X205920Y80289D01*
Y79195D01*
X206339Y78184D01*
X207112Y77410D01*
X208123Y76992D01*
X209217D01*
X210228Y77410D01*
X210340Y77523D01*
X211170Y78072D01*
X212000Y77523D01*
X212112Y77410D01*
X213123Y76992D01*
X214217D01*
X214872Y77263D01*
X216178Y77429D01*
X217092Y76515D01*
X218286Y76020D01*
X219579D01*
X220774Y76515D01*
X221688Y77429D01*
X222183Y78624D01*
Y79917D01*
X221688Y81111D01*
X221508Y81292D01*
X222017Y82578D01*
X222377Y82589D01*
X223571Y82094D01*
X224864D01*
X226059Y82589D01*
X226973Y83503D01*
X227280Y84243D01*
X229646D01*
X229704Y84104D01*
X230469Y83787D01*
X231811D01*
X232576Y84104D01*
X232634Y84243D01*
X235105D01*
X236045Y84632D01*
X236435Y85573D01*
Y88163D01*
X236045Y89104D01*
X235361Y89387D01*
Y92433D01*
X235537Y92506D01*
X235927Y93447D01*
Y94844D01*
X237823Y96740D01*
X241211D01*
X242239Y97166D01*
X242665Y98194D01*
Y102080D01*
X242579Y102287D01*
X242636Y102425D01*
Y105346D01*
X242319Y106112D01*
X241554Y106429D01*
X236474D01*
X235709Y106112D01*
X235675Y106031D01*
X234787Y105458D01*
X234037Y105588D01*
X233329Y106678D01*
X233366Y106821D01*
X233467Y107099D01*
X233804Y107604D01*
X233940Y108287D01*
Y111614D01*
X233804Y112296D01*
X233418Y112875D01*
X232790Y113503D01*
X232743Y114858D01*
X233133Y115799D01*
Y118389D01*
X232743Y119330D01*
X231803Y119719D01*
X230602D01*
X230076Y120989D01*
X230475Y121388D01*
X230969Y122583D01*
Y123876D01*
X230475Y125070D01*
X229560Y125984D01*
X229317Y126085D01*
X228543Y127537D01*
Y127542D01*
X228947Y128716D01*
X230240Y128716D01*
X231434Y129211D01*
X232315Y130092D01*
X232496Y130085D01*
D02*
G37*
G36*
X304779Y86529D02*
X305247Y85942D01*
X305152Y85088D01*
X304925Y84861D01*
X304430Y83667D01*
Y82374D01*
X304925Y81179D01*
X305839Y80265D01*
X306155Y80135D01*
X306453Y78636D01*
X302177Y74361D01*
X301790Y73782D01*
X301654Y73099D01*
Y70564D01*
X300384Y69715D01*
X300285Y69756D01*
X299092D01*
X297989Y69300D01*
X297145Y68456D01*
X296689Y67353D01*
Y66160D01*
X296738Y66041D01*
X296081Y64462D01*
X296032Y64441D01*
X295985Y64328D01*
X294610D01*
X294563Y64441D01*
X293535Y64867D01*
X292411D01*
Y65333D01*
X291916Y66528D01*
X291002Y67442D01*
X289807Y67937D01*
X288515D01*
X287320Y67442D01*
X286406Y66528D01*
X285911Y65333D01*
Y65327D01*
X285706Y64826D01*
X281312D01*
X280284Y64401D01*
X280263Y64405D01*
X279232Y65234D01*
Y66526D01*
X278737Y67721D01*
X277823Y68635D01*
X276628Y69130D01*
X275335D01*
X274141Y68635D01*
X273226Y67721D01*
X272732Y66526D01*
Y65234D01*
X272958Y64687D01*
X272189Y63417D01*
X271250D01*
X271088Y63484D01*
X268497D01*
X268336Y63417D01*
X268069D01*
X267386Y63281D01*
X266807Y62894D01*
X266785Y62871D01*
X265424Y62840D01*
X264652Y63160D01*
X264099Y64403D01*
X274112Y74416D01*
X291129D01*
X291811Y74552D01*
X292390Y74938D01*
X298651Y81199D01*
X299037Y81778D01*
X299173Y82460D01*
Y85136D01*
X300443Y85984D01*
X300647Y85900D01*
X301841D01*
X302943Y86357D01*
X303200Y86614D01*
X304779Y86529D01*
D02*
G37*
G36*
X291625Y85024D02*
X295605D01*
Y83200D01*
X290389Y77984D01*
X273373D01*
X272690Y77849D01*
X272111Y77462D01*
X271103Y76454D01*
X267331D01*
X266602Y77473D01*
X267429Y78300D01*
X267924Y79495D01*
Y80788D01*
X267429Y81982D01*
X266515Y82897D01*
X266213Y83022D01*
X266221Y85021D01*
X266225Y85024D01*
X270223D01*
X270299Y85055D01*
X271272Y85276D01*
X272245Y85055D01*
X272321Y85024D01*
X276319D01*
X277084Y85341D01*
X278160Y85341D01*
X278925Y85024D01*
X282923D01*
X282999Y85055D01*
X283972Y85276D01*
X284945Y85055D01*
X285021Y85024D01*
X289019D01*
X289784Y85341D01*
X290860Y85341D01*
X291625Y85024D01*
D02*
G37*
G36*
X148336Y67492D02*
X148123D01*
X147113Y67073D01*
X147000Y66961D01*
X146170Y66412D01*
X145340Y66961D01*
X145228Y67073D01*
X144217Y67492D01*
X143123D01*
X142112Y67073D01*
X141339Y66300D01*
X140920Y65289D01*
Y64516D01*
X138176D01*
Y66990D01*
X139382D01*
X140148Y67307D01*
X140465Y68072D01*
Y73152D01*
X140148Y73917D01*
X140402Y74927D01*
X140719Y75692D01*
Y80772D01*
X140402Y81537D01*
X139636Y81854D01*
X138176D01*
Y84836D01*
X140920D01*
Y84195D01*
X141339Y83184D01*
X142112Y82411D01*
X143123Y81992D01*
X144217D01*
X145228Y82411D01*
X146001Y83184D01*
X146420Y84195D01*
Y84836D01*
X148336D01*
Y67492D01*
D02*
G37*
G36*
X75712Y90054D02*
Y88762D01*
X76207Y87567D01*
X77121Y86653D01*
X78316Y86158D01*
X79608D01*
X80803Y86653D01*
X81717Y87567D01*
X81741Y87624D01*
X88688D01*
Y80797D01*
X88837Y80050D01*
X88883Y79980D01*
X88206Y78710D01*
X70807D01*
X69742Y79776D01*
Y86040D01*
X70199Y86497D01*
X70586Y87076D01*
X70721Y87759D01*
Y91057D01*
X70936Y91318D01*
X74861D01*
X75712Y90054D01*
D02*
G37*
G36*
X37622Y76796D02*
X38387Y76479D01*
X42385D01*
X43329Y75665D01*
X43360Y74348D01*
X41402Y72390D01*
X32905D01*
X32009Y73291D01*
X32028Y76473D01*
X32037Y76479D01*
X36035D01*
X36800Y76796D01*
X37622D01*
D02*
G37*
G36*
X24922Y76796D02*
X25687Y76479D01*
X29685D01*
X30508Y75445D01*
Y74196D01*
X28448Y72136D01*
X19951D01*
X19055Y73037D01*
X19077Y76729D01*
X19083Y76733D01*
X23081D01*
X23846Y77050D01*
X24922Y76796D01*
D02*
G37*
G36*
X163797Y115029D02*
X163830Y115015D01*
Y88040D01*
X163209D01*
X162015Y87545D01*
X161100Y86631D01*
X160606Y85436D01*
Y84143D01*
X161100Y82949D01*
X162015Y82035D01*
X163209Y81540D01*
X163830D01*
Y78486D01*
X172022D01*
Y77179D01*
X171791Y76949D01*
X171296Y75754D01*
Y74461D01*
X171791Y73267D01*
X171837Y73221D01*
X171541Y72926D01*
Y68235D01*
X171260Y67798D01*
X170228Y67073D01*
X169217Y67492D01*
X168123D01*
X167113Y67073D01*
X167000Y66961D01*
X166170Y66412D01*
X165340Y66961D01*
X165228Y67073D01*
X164217Y67492D01*
X163123D01*
X162112Y67073D01*
X161339Y66300D01*
X160920Y65289D01*
Y64195D01*
X161339Y63184D01*
X162112Y62411D01*
X163123Y61992D01*
X164217D01*
X165228Y62411D01*
X165340Y62523D01*
X166170Y63073D01*
X167000Y62523D01*
X167113Y62411D01*
X168123Y61992D01*
X169217D01*
X170228Y62411D01*
X171001Y63184D01*
X171420Y64195D01*
Y65109D01*
X171943Y65661D01*
X172482Y66044D01*
X172649Y65975D01*
X173801D01*
X175992Y63784D01*
Y50833D01*
X175605D01*
X174840Y50516D01*
X174523Y49751D01*
Y45753D01*
X174494Y45683D01*
X173606Y44649D01*
X172879D01*
X171777Y44192D01*
X170933Y43348D01*
X170476Y42246D01*
Y41052D01*
X170752Y40386D01*
X170191Y39281D01*
X168974Y39673D01*
Y39713D01*
X168517Y40815D01*
X167673Y41659D01*
X166571Y42116D01*
X165377D01*
X164275Y41659D01*
X164180Y41565D01*
X163983Y41581D01*
X162884Y42065D01*
X162830Y42339D01*
Y44193D01*
X160176Y44210D01*
X159995Y44483D01*
Y48481D01*
X159678Y49246D01*
X158913Y49563D01*
X157571D01*
X157226Y49420D01*
X155956Y50056D01*
Y50096D01*
X155448Y50604D01*
Y61722D01*
X157571Y63845D01*
Y64471D01*
X157709Y64803D01*
Y68801D01*
X157571Y69133D01*
Y70355D01*
X157962Y70616D01*
X159255D01*
X160450Y71111D01*
X161364Y72025D01*
X161859Y73220D01*
Y74513D01*
X161364Y75707D01*
X160450Y76621D01*
X160450Y76621D01*
X159255Y77116D01*
X157962D01*
X157571Y77377D01*
Y91407D01*
X158913D01*
X159678Y91724D01*
X159995Y92489D01*
Y96487D01*
X159963Y96563D01*
X159742Y97536D01*
X159963Y98509D01*
X159995Y98585D01*
Y102583D01*
X159678Y103348D01*
Y104170D01*
X159995Y104935D01*
Y108933D01*
X159963Y109009D01*
X159742Y109982D01*
X159963Y110955D01*
X159995Y111031D01*
Y115029D01*
X163797D01*
D02*
G37*
G36*
X53591Y83312D02*
X53908Y82547D01*
X54674Y82230D01*
Y80330D01*
X53908Y80013D01*
X53591Y79248D01*
Y74168D01*
X53908Y73403D01*
X54674Y73086D01*
X55756D01*
X57212Y71630D01*
X57110Y71528D01*
X56615Y70333D01*
Y69040D01*
X57110Y67846D01*
X58024Y66932D01*
X59219Y66437D01*
X60512D01*
X61706Y66932D01*
X62593Y67818D01*
X65186D01*
X67310Y65694D01*
Y49022D01*
X74168Y42164D01*
X88138D01*
Y17018D01*
X66661Y16836D01*
X66374Y17243D01*
X66095Y18101D01*
X66659Y18946D01*
X66681Y19055D01*
X66760Y19133D01*
X67257Y20335D01*
Y20446D01*
X67319Y20538D01*
X67573Y21814D01*
X67551Y21923D01*
X67594Y22025D01*
Y23326D01*
X67551Y23429D01*
X67573Y23537D01*
X67319Y24813D01*
X67257Y24906D01*
Y25016D01*
X66760Y26218D01*
X66681Y26297D01*
X66659Y26405D01*
X66156Y27159D01*
X65937Y27487D01*
X65465Y28174D01*
X65458Y28189D01*
X65458Y28189D01*
X65345Y28300D01*
X65234Y28413D01*
X65234Y28413D01*
X65206Y28425D01*
X64718Y28705D01*
X64183Y29063D01*
X63637Y29428D01*
X63528Y29450D01*
X63450Y29528D01*
X62586Y29886D01*
X62248Y30026D01*
X62244Y30027D01*
X62081Y30063D01*
X62045Y30088D01*
X61683Y30160D01*
X61362Y30224D01*
X60222Y30499D01*
X59383Y30499D01*
X59383Y30499D01*
X59121Y30391D01*
X58227Y30179D01*
X57770Y30088D01*
X57677Y30026D01*
X57567D01*
X56365Y29528D01*
X56286Y29450D01*
X56178Y29428D01*
X55748Y29141D01*
X54974Y28653D01*
X54712Y28545D01*
X54002Y27834D01*
X54002Y27834D01*
X53890Y27565D01*
X53411Y26789D01*
X53155Y26405D01*
X53133Y26297D01*
X53055Y26218D01*
X52557Y25016D01*
Y24906D01*
X52495Y24813D01*
X52405Y24359D01*
X52195Y23472D01*
X52084Y23202D01*
X52084Y22245D01*
X52354Y21210D01*
X52361Y21177D01*
X52495Y20538D01*
X52519Y20503D01*
X52555Y20343D01*
X52557Y20335D01*
X52739Y19895D01*
X53055Y19133D01*
X53133Y19055D01*
X53155Y18946D01*
X53251Y18802D01*
X53788Y17991D01*
X53637Y17385D01*
X53184Y16782D01*
X53103Y16721D01*
X29096Y16518D01*
X28194Y17412D01*
Y64262D01*
Y65466D01*
X28340D01*
X29443Y65923D01*
X30287Y66767D01*
X30744Y67869D01*
Y68278D01*
X31496Y69088D01*
X41480D01*
X41497Y69063D01*
Y67869D01*
X41954Y66767D01*
X42798Y65923D01*
X43900Y65466D01*
X45094D01*
X46197Y65923D01*
X47041Y66767D01*
X47497Y67869D01*
Y69063D01*
X47041Y70165D01*
X46197Y71009D01*
X46149Y72346D01*
X46990Y73187D01*
X46990Y82400D01*
X48731Y84141D01*
X49118Y84719D01*
X49254Y85402D01*
Y88392D01*
X53591D01*
Y83312D01*
D02*
G37*
G36*
X187272Y63149D02*
X187757Y62776D01*
X187836Y62381D01*
X188222Y61802D01*
X188854Y61171D01*
Y53637D01*
X186143Y50927D01*
X185545Y50808D01*
X184966Y50421D01*
X181228Y46683D01*
X180841Y46104D01*
X180815Y45971D01*
X178277Y43433D01*
X177025D01*
X176947Y44671D01*
X177712Y44988D01*
X178029Y45753D01*
Y49751D01*
X177712Y50516D01*
X177056Y50788D01*
X177074Y50833D01*
Y61052D01*
X178123Y61992D01*
X179217D01*
X180228Y62411D01*
X180340Y62523D01*
X181170Y63073D01*
X182000Y62523D01*
X182112Y62411D01*
X183123Y61992D01*
X184217D01*
X185228Y62411D01*
X186001Y63184D01*
X187272Y63149D01*
D02*
G37*
G36*
X267794Y56436D02*
X271792D01*
X271868Y56468D01*
X272841Y56689D01*
X273813Y56468D01*
X273890Y56436D01*
X277888D01*
X278653Y56753D01*
X279886Y56412D01*
Y56221D01*
X280203Y55455D01*
X280969Y55138D01*
X286049D01*
X286814Y55455D01*
X288033Y55496D01*
X288798Y55179D01*
X293878D01*
X294643Y55496D01*
X295951Y55496D01*
X296717Y55179D01*
X301778D01*
Y51895D01*
X294477Y44593D01*
X280407D01*
X279558Y45863D01*
X279606Y45978D01*
Y47172D01*
X279149Y48274D01*
X278305Y49118D01*
X277203Y49575D01*
X276129D01*
X274735Y50970D01*
X274156Y51356D01*
X273473Y51492D01*
X258168D01*
X257454Y52762D01*
X257651Y53236D01*
Y53993D01*
X257954Y54053D01*
X258533Y54440D01*
X260431Y56338D01*
X260514Y56462D01*
X261190Y56182D01*
X265188D01*
X265953Y56499D01*
X267028Y56753D01*
X267794Y56436D01*
D02*
G37*
G36*
X66173Y85753D02*
Y79037D01*
X66309Y78354D01*
X66695Y77776D01*
X68807Y75664D01*
X69386Y75278D01*
X70068Y75142D01*
X99802D01*
X99825Y75085D01*
X100739Y74171D01*
X100796Y74147D01*
Y71104D01*
X100932Y70421D01*
X101319Y69842D01*
X105007Y66154D01*
X105586Y65767D01*
X106269Y65631D01*
X106833D01*
X106859Y65550D01*
X105936Y64280D01*
X96091D01*
X95671Y65293D01*
X94757Y66207D01*
X93562Y66702D01*
X92269D01*
X91075Y66207D01*
X90161Y65293D01*
X89666Y64098D01*
Y62806D01*
X90161Y61611D01*
X91075Y60697D01*
X92269Y60202D01*
X93562D01*
X94757Y60697D01*
X94772Y60712D01*
X120919D01*
X121267Y60234D01*
X121495Y59491D01*
X120365Y58361D01*
X119291D01*
X118189Y57905D01*
X117345Y57061D01*
X116888Y55958D01*
Y54765D01*
X117345Y53662D01*
X118189Y52818D01*
X119291Y52361D01*
X120485D01*
X121587Y52818D01*
X122431Y53662D01*
X122888Y54765D01*
Y55838D01*
X131920Y64870D01*
X132306Y65448D01*
X132436Y66097D01*
X133300Y66961D01*
X136116D01*
X137094Y66158D01*
Y64516D01*
X137411Y63751D01*
X138176Y63434D01*
X140920D01*
X141189Y63545D01*
X141339Y63184D01*
X142112Y62411D01*
X143123Y61992D01*
X144217D01*
X145228Y62411D01*
X145340Y62523D01*
X146170Y63073D01*
X147000Y62523D01*
X147113Y62411D01*
X148123Y61992D01*
X149217D01*
X150228Y62411D01*
X151002Y63184D01*
X151420Y64195D01*
Y65289D01*
X151002Y66300D01*
X150228Y67073D01*
X149389Y67421D01*
X149418Y67492D01*
Y82628D01*
X150713Y83923D01*
X150877Y83938D01*
X152137Y83551D01*
X152169Y83471D01*
X152112Y82073D01*
X151339Y81299D01*
X150920Y80289D01*
Y79195D01*
X151339Y78184D01*
X151451Y78072D01*
X152001Y77242D01*
X151451Y76412D01*
X151339Y76300D01*
X150920Y75289D01*
Y74195D01*
X151339Y73184D01*
X152112Y72411D01*
X153123Y71992D01*
X154217D01*
X154452Y72090D01*
X155031Y72063D01*
X156049Y70848D01*
X155944Y70182D01*
X155504Y69883D01*
X155285D01*
X154520Y69566D01*
X154203Y68801D01*
Y64803D01*
X154520Y64038D01*
X154759Y62564D01*
X154683Y62487D01*
X154366Y61722D01*
Y50604D01*
X154683Y49839D01*
X154683Y49839D01*
X155162Y49360D01*
X155191Y49290D01*
X155355Y49222D01*
X155472Y49088D01*
X156523Y48562D01*
X156489Y48481D01*
Y44483D01*
X156806Y43718D01*
X156749Y42427D01*
X156673Y42259D01*
X154714D01*
X154507Y42173D01*
X154368Y42230D01*
X151447D01*
X150682Y41913D01*
X150365Y41148D01*
Y36068D01*
X150682Y35303D01*
X151447Y34986D01*
X153913D01*
X154183Y34193D01*
X153364Y33086D01*
X150940D01*
X150174Y32769D01*
X149857Y32004D01*
Y26943D01*
X146573D01*
X142896Y30620D01*
Y32404D01*
X142760Y33087D01*
X142373Y33666D01*
X140021Y36019D01*
X139442Y36405D01*
X138759Y36541D01*
X136975D01*
X134916Y38600D01*
X134654Y38775D01*
X134337Y38986D01*
X134337Y38986D01*
X134337Y38986D01*
X134087Y39036D01*
X133654Y39122D01*
X120650D01*
X119967Y38986D01*
X119388Y38600D01*
X109930Y29141D01*
X108660Y29602D01*
X108165Y30797D01*
X107251Y31711D01*
X106056Y32206D01*
X104763D01*
X103569Y31711D01*
X102655Y30797D01*
X102160Y29602D01*
Y28310D01*
X102655Y27115D01*
X103569Y26201D01*
X103850Y26084D01*
X104375Y24533D01*
X104139Y24102D01*
X103560Y23716D01*
X99294Y19449D01*
X98363D01*
X97680Y19314D01*
X97101Y18927D01*
X91134Y12960D01*
X45720D01*
X45037Y12824D01*
X44458Y12438D01*
X41851Y9830D01*
X41795Y9854D01*
X40501D01*
X39307Y9359D01*
X38393Y8445D01*
X37898Y7250D01*
Y5957D01*
X38393Y4763D01*
X39307Y3849D01*
X40501Y3354D01*
X41795D01*
X42989Y3849D01*
X43903Y4763D01*
X44398Y5957D01*
Y7250D01*
X44374Y7307D01*
X46459Y9392D01*
X89464D01*
X89950Y8218D01*
X87130Y5398D01*
X86743Y4820D01*
X86608Y4137D01*
Y2198D01*
X86145Y2007D01*
X85231Y1092D01*
X84736Y-102D01*
Y-1395D01*
X85231Y-2590D01*
X86145Y-3504D01*
X87340Y-3999D01*
X88633D01*
X89827Y-3504D01*
X90178Y-3153D01*
X91665Y-3426D01*
X91733Y-3588D01*
X92647Y-4502D01*
X93841Y-4997D01*
X95134D01*
X96329Y-4502D01*
X97243Y-3588D01*
X97738Y-2394D01*
Y-1101D01*
X97243Y94D01*
X96329Y1008D01*
X96272Y1032D01*
Y5935D01*
X101186Y10849D01*
X102117D01*
X102800Y10984D01*
X103379Y11371D01*
X106987Y14980D01*
X122451D01*
X124011Y13420D01*
X123686Y12150D01*
X122686D01*
X122416Y12150D01*
X116686D01*
Y-24850D01*
X116686D01*
X117153Y-26120D01*
X115765Y-27508D01*
X115709Y-27484D01*
X114416D01*
X113221Y-27979D01*
X112307Y-28893D01*
X111812Y-30087D01*
Y-31381D01*
X112307Y-32575D01*
X112498Y-32766D01*
X111972Y-34036D01*
X107549D01*
Y-19738D01*
X107232Y-18973D01*
X106466Y-18655D01*
X93966D01*
X93200Y-18973D01*
X92883Y-19738D01*
Y-34036D01*
X74943D01*
X56376Y-30333D01*
X56227Y-30294D01*
X55039Y-29960D01*
Y-29960D01*
X53836Y-29648D01*
X29583Y-21346D01*
X28449Y-20881D01*
X28282Y-20811D01*
X27171Y-20297D01*
X12484Y-12455D01*
X11453Y-11782D01*
X11267Y-11705D01*
X10263Y-11011D01*
X5886Y-7594D01*
X4998Y-6734D01*
X4971Y-6669D01*
X4880Y-6631D01*
X4084Y-5939D01*
X4046Y-5897D01*
X247Y-1661D01*
X177Y-1493D01*
X-0Y210D01*
X50Y1361D01*
X-1Y1483D01*
Y1483D01*
X-99Y1574D01*
X-95Y2402D01*
X333Y17073D01*
X315Y17180D01*
X329Y17287D01*
X-157Y24956D01*
X-205Y25136D01*
X-210Y25323D01*
X-1310Y30152D01*
X-1438Y31368D01*
X-1544Y31622D01*
X-1614Y32824D01*
Y64494D01*
X-1597Y65669D01*
X-1438Y66052D01*
X-1423Y66066D01*
X-512Y66888D01*
X159Y67038D01*
X281Y66915D01*
X1475Y66421D01*
X2192D01*
X2413Y66088D01*
Y64795D01*
X2908Y63601D01*
X3823Y62687D01*
X5017Y62192D01*
X5506D01*
X5758Y60922D01*
X5525Y60825D01*
X4611Y59911D01*
X4116Y58716D01*
Y57424D01*
X4611Y56229D01*
X5525Y55315D01*
X6719Y54820D01*
X8012D01*
X8868Y55175D01*
X9845Y54723D01*
X10138Y54450D01*
Y52896D01*
X8868Y52370D01*
X8445Y52793D01*
X7250Y53288D01*
X5957D01*
X4763Y52793D01*
X3849Y51879D01*
X3354Y50684D01*
Y49391D01*
X3849Y48197D01*
X4763Y47283D01*
X5957Y46788D01*
X7250D01*
X8445Y47283D01*
X8868Y47706D01*
X10138Y47180D01*
Y46761D01*
X10287Y46014D01*
X10710Y45381D01*
X11343Y44958D01*
X12090Y44809D01*
X22454D01*
X23201Y44958D01*
X23834Y45381D01*
X24257Y46014D01*
X24406Y46761D01*
Y51559D01*
X24853Y52007D01*
X25348Y53201D01*
Y54495D01*
X24853Y55689D01*
X24406Y56137D01*
Y64999D01*
X24257Y65746D01*
X23834Y66379D01*
X23201Y66802D01*
X22454Y66950D01*
X16454D01*
X16075Y67724D01*
X16009Y68221D01*
X18343Y70554D01*
X19185Y71371D01*
X19568Y71212D01*
X19948Y71054D01*
X19949Y71054D01*
X19951Y71054D01*
X24298D01*
X24548Y70808D01*
X25042Y69784D01*
X24743Y69063D01*
Y67869D01*
X25200Y66767D01*
X26044Y65923D01*
X27117Y65479D01*
X27112Y65466D01*
Y64262D01*
Y17412D01*
X27113Y17410D01*
X27112Y17407D01*
X27271Y17027D01*
X27429Y16646D01*
X27431Y16646D01*
X27432Y16643D01*
X28334Y15749D01*
X28336Y15748D01*
X28337Y15746D01*
X28717Y15592D01*
X29100Y15435D01*
X29103Y15436D01*
X29105Y15435D01*
X53112Y15639D01*
X53302Y15719D01*
X53336Y15711D01*
X53450Y15778D01*
X53758Y15859D01*
X53839Y15921D01*
X53859Y15955D01*
X53875Y15962D01*
X53881Y15977D01*
X53882Y15979D01*
X53980Y16091D01*
X54049Y16132D01*
Y16132D01*
X54930Y16565D01*
X55634Y16287D01*
X56178Y15924D01*
X56286Y15902D01*
X56365Y15823D01*
X57567Y15326D01*
X57677D01*
X57770Y15264D01*
X59046Y15010D01*
X59611Y14852D01*
X59991D01*
X60769Y15010D01*
X61215Y15099D01*
X62045Y15264D01*
X62137Y15326D01*
X62248D01*
X63450Y15823D01*
X63528Y15902D01*
X63637Y15924D01*
X64254Y16336D01*
X65036Y16516D01*
X65570Y16297D01*
X65902Y16064D01*
X66202Y15943D01*
X66475Y15770D01*
X66575Y15792D01*
X66670Y15754D01*
X88147Y15936D01*
X88524Y16096D01*
X88903Y16253D01*
X88905Y16257D01*
X88910Y16259D01*
X89063Y16639D01*
X89220Y17018D01*
Y42164D01*
X88903Y42929D01*
X88138Y43246D01*
X74616D01*
X68392Y49470D01*
Y63032D01*
X68544Y63095D01*
X69662Y63393D01*
X70088Y63108D01*
X70771Y62972D01*
X73321D01*
Y47269D01*
X73470Y46522D01*
X73893Y45889D01*
X74526Y45466D01*
X75273Y45318D01*
X85636D01*
X86383Y45466D01*
X87016Y45889D01*
X87439Y46522D01*
X87588Y47269D01*
Y65507D01*
X87439Y66254D01*
X87016Y66887D01*
X86383Y67310D01*
X85636Y67459D01*
X75273D01*
X74526Y67310D01*
X73893Y66887D01*
X73662Y66541D01*
X71510D01*
X67102Y70949D01*
X66741Y71190D01*
X66523Y71335D01*
X65840Y71471D01*
X63399D01*
X62800Y72187D01*
X62854Y73483D01*
X63280Y74511D01*
Y78905D01*
X62854Y79933D01*
X61826Y80359D01*
X61667D01*
Y82201D01*
X61826D01*
X62854Y82627D01*
X63280Y83655D01*
Y85493D01*
X64274Y86158D01*
X65567D01*
X66173Y85753D01*
D02*
G37*
G36*
X190550Y41735D02*
X190161Y40795D01*
Y38324D01*
X190022Y38266D01*
X189705Y37501D01*
Y36159D01*
X189929Y35618D01*
X189409Y34348D01*
X162154D01*
X162153Y34348D01*
X162153Y34348D01*
X161854Y34288D01*
X161471Y34212D01*
X161471Y34212D01*
X161471Y34212D01*
X161199Y34030D01*
X160892Y33825D01*
X160892Y33825D01*
X160892Y33825D01*
X159651Y32583D01*
X159120Y32689D01*
X158187Y33075D01*
Y34957D01*
X158600D01*
X159628Y35383D01*
X160054Y36411D01*
Y38093D01*
X160534Y38414D01*
X161826D01*
X163021Y38909D01*
X163935Y39823D01*
X164214Y40497D01*
X164525Y40626D01*
X164630Y40659D01*
X164689D01*
X165592Y41034D01*
X166355D01*
X167060Y40742D01*
X167600Y40202D01*
X167974Y39299D01*
X168003Y39269D01*
X168010Y39180D01*
X168142Y39068D01*
X168209Y38908D01*
X168446Y38810D01*
X168559Y38713D01*
X168560Y38713D01*
X168560D01*
X168641Y38643D01*
X169858Y38251D01*
X170192Y38277D01*
X170527Y38252D01*
X170595Y38310D01*
X170684Y38317D01*
X170723Y38363D01*
X171777Y39106D01*
X172879Y38649D01*
X174073D01*
X175175Y39106D01*
X175935Y39865D01*
X179016D01*
X179699Y40001D01*
X180278Y40387D01*
X182140Y42249D01*
X183638Y41951D01*
X183681Y41847D01*
X184595Y40933D01*
X185790Y40438D01*
X187083D01*
X188277Y40933D01*
X189191Y41847D01*
X189363Y42262D01*
X190477Y42654D01*
X190550Y41735D01*
D02*
G37*
G36*
X202471Y35331D02*
X206469D01*
X206762Y35452D01*
X207645Y35586D01*
X208528Y35452D01*
X208821Y35331D01*
X212819D01*
X213112Y35452D01*
X213995Y35586D01*
X214878Y35452D01*
X215171Y35331D01*
X219169D01*
X219710Y34181D01*
Y31750D01*
X197720D01*
X196351Y33119D01*
X196366Y35071D01*
X196375Y35077D01*
X200373D01*
X201138Y35394D01*
X201706Y35648D01*
X202471Y35331D01*
D02*
G37*
G36*
X279492Y256383D02*
X279622Y256346D01*
X280805Y255994D01*
D01*
X282025Y255695D01*
X293194Y252050D01*
X293249Y252032D01*
X294335Y251590D01*
X294335Y251590D01*
X294373Y251574D01*
X295546Y251237D01*
X296745Y250800D01*
X298459Y250175D01*
X298475Y250104D01*
Y250104D01*
X298683Y250017D01*
X299466Y249362D01*
X301584Y247250D01*
X301598Y247217D01*
X301875Y241250D01*
X301876Y241210D01*
X301756Y240037D01*
X301905Y239084D01*
X301943Y238804D01*
X301955Y237503D01*
X301982Y234625D01*
X301998Y234548D01*
X301989Y234470D01*
X302090Y234109D01*
X302167Y233741D01*
X302211Y233676D01*
X302232Y233601D01*
X304334Y229452D01*
X304384Y229389D01*
X304410Y229314D01*
X304661Y229036D01*
X304892Y228742D01*
X304961Y228703D01*
X305015Y228643D01*
X305353Y228482D01*
X305679Y228299D01*
X305758Y228289D01*
X305830Y228255D01*
X313071Y226421D01*
X313389Y226404D01*
X313704Y226351D01*
X326263Y226701D01*
X327472Y226566D01*
X328192Y226677D01*
X328696Y226751D01*
X330010Y226768D01*
X332604Y226800D01*
X333014Y226631D01*
X333030Y226637D01*
X333045Y226646D01*
X336648Y224693D01*
X337422Y220320D01*
X337292Y220165D01*
Y220165D01*
X337290Y220163D01*
X337374Y219961D01*
X337463Y218740D01*
X337395Y189733D01*
X337395Y189731D01*
X337395Y189730D01*
X337396Y15497D01*
Y-4405D01*
X337329Y-5332D01*
X337299Y-5357D01*
X337133Y-5629D01*
X336307Y-6408D01*
X324179Y-14463D01*
X324128Y-14492D01*
X323067Y-15077D01*
X323067Y-15077D01*
X321996Y-15714D01*
X320966Y-16224D01*
X308731Y-22287D01*
X307579Y-22771D01*
X307471Y-22816D01*
X306329Y-23325D01*
X294292Y-27809D01*
X293102Y-28252D01*
X291968Y-28582D01*
X291052Y-28916D01*
X290773Y-29017D01*
X278437Y-32537D01*
X277267Y-32769D01*
X277266Y-32768D01*
X276353Y-33045D01*
X276048Y-33135D01*
X274806Y-33402D01*
X271861Y-34036D01*
X247055D01*
Y-19738D01*
X246738Y-18973D01*
X245973Y-18656D01*
X241686D01*
Y12150D01*
X235686D01*
Y12150D01*
X234686D01*
X234304Y12433D01*
X234167Y13966D01*
X235038Y14836D01*
X244846D01*
X245529Y14972D01*
X246108Y15359D01*
X252328Y21579D01*
X252715Y22158D01*
X252851Y22841D01*
Y36845D01*
X252715Y37528D01*
X252328Y38106D01*
X250336Y40099D01*
Y43811D01*
X251509Y44297D01*
X252110Y43696D01*
X252689Y43309D01*
X253372Y43174D01*
X260871D01*
X261570Y41904D01*
X261294Y41238D01*
Y39945D01*
X261789Y38750D01*
X262703Y37836D01*
X263897Y37341D01*
X265190D01*
X266385Y37836D01*
X267299Y38750D01*
X267794Y39945D01*
Y41238D01*
X267518Y41904D01*
X268217Y43174D01*
X270818D01*
X271150Y42393D01*
X271208Y41904D01*
X270399Y41095D01*
X269904Y39900D01*
Y38607D01*
X270399Y37413D01*
X271313Y36499D01*
X272507Y36004D01*
X273800D01*
X274995Y36499D01*
X275909Y37413D01*
X276404Y38607D01*
Y39900D01*
X276376Y39969D01*
X277081Y41025D01*
X284446D01*
X285025Y39903D01*
X284487Y38802D01*
X283538Y38490D01*
X283282Y38502D01*
X283036Y38749D01*
X281841Y39243D01*
X280548D01*
X279354Y38749D01*
X278440Y37834D01*
X277945Y36640D01*
Y35347D01*
X278440Y34152D01*
X279354Y33238D01*
X280548Y32743D01*
X281841D01*
X283036Y33238D01*
X283950Y34152D01*
X284311Y35024D01*
X285299Y35394D01*
X285715Y35417D01*
X285829Y35303D01*
X286931Y34846D01*
X288125D01*
X288510Y35006D01*
X289780Y34196D01*
Y34125D01*
X290206Y33097D01*
X291234Y32671D01*
X295120D01*
X295327Y32757D01*
X295466Y32700D01*
X298386D01*
X298525Y32757D01*
X298732Y32671D01*
X302618D01*
X303646Y33097D01*
X304072Y34125D01*
Y37894D01*
X304127D01*
X305229Y38351D01*
X306073Y39195D01*
X306530Y40297D01*
Y41491D01*
X306073Y42593D01*
X305229Y43437D01*
X304127Y43894D01*
X302933D01*
X301831Y43437D01*
X300987Y42593D01*
X300530Y41491D01*
Y40297D01*
X300313Y39973D01*
X298732D01*
X298525Y39887D01*
X298386Y39944D01*
X296670D01*
X295966Y41122D01*
X295979Y41214D01*
X296478Y41547D01*
X304824Y49894D01*
X305211Y50473D01*
X305347Y51156D01*
Y61259D01*
X306617Y62107D01*
X306808Y62028D01*
X308101D01*
X309296Y62523D01*
X309750Y62978D01*
X310572Y63296D01*
X311394Y62978D01*
X311849Y62523D01*
X313043Y62028D01*
X314132D01*
Y32766D01*
X314449Y32001D01*
X315214Y31684D01*
X324635D01*
X325331Y30414D01*
X325159Y29998D01*
Y27407D01*
X325549Y26467D01*
X326489Y26077D01*
X328960D01*
X329018Y25938D01*
X329783Y25621D01*
X331125D01*
X331890Y25938D01*
X332207Y26703D01*
Y30701D01*
X332231Y31631D01*
X332997Y32001D01*
X333314Y32766D01*
Y41402D01*
X332997Y42167D01*
X328491Y46674D01*
Y48702D01*
X330330D01*
X331095Y49019D01*
X331412Y49784D01*
Y54864D01*
X331095Y55629D01*
X330330Y55946D01*
X328491D01*
Y58149D01*
X328704Y58362D01*
X328786Y58561D01*
X328939Y58713D01*
Y58811D01*
X330045D01*
X330810Y59127D01*
X331128Y59893D01*
Y63891D01*
X330810Y64656D01*
X330045Y64973D01*
X329786D01*
Y68219D01*
X330045D01*
X330810Y68536D01*
X331128Y69302D01*
Y73300D01*
X330810Y74065D01*
X330045Y74382D01*
X329786D01*
Y77628D01*
X330045D01*
X330810Y77945D01*
X331128Y78711D01*
Y82709D01*
X330810Y83474D01*
X330045Y83791D01*
X328862D01*
X328159Y84446D01*
X327892Y84768D01*
Y86060D01*
X328159Y86382D01*
X328862Y87037D01*
X330045D01*
X330810Y87354D01*
X331128Y88119D01*
Y92118D01*
X330810Y92883D01*
X330045Y93200D01*
X328861D01*
X328160Y93854D01*
X327891Y94176D01*
Y95469D01*
X328161Y95794D01*
X328861Y96446D01*
X330045D01*
X330810Y96763D01*
X331128Y97528D01*
Y101396D01*
X332266D01*
X333369Y101853D01*
X334213Y102697D01*
X334669Y103799D01*
Y104993D01*
X334213Y106095D01*
X333369Y106939D01*
X332266Y107396D01*
X331128D01*
Y110935D01*
X330810Y111701D01*
X330045Y112018D01*
X328861D01*
X328160Y112671D01*
X327891Y112994D01*
Y114287D01*
X328161Y114611D01*
X328861Y115264D01*
X330045D01*
X330810Y115581D01*
X331128Y116346D01*
Y120344D01*
X330810Y121110D01*
X330079Y122587D01*
X330079Y122617D01*
Y123811D01*
X330811Y124990D01*
X331128Y125755D01*
Y129338D01*
X332370D01*
X333565Y129833D01*
X334479Y130747D01*
X334974Y131941D01*
Y133235D01*
X334479Y134429D01*
X333565Y135343D01*
X332370Y135838D01*
X331974D01*
X331917Y135923D01*
Y141003D01*
X331600Y141768D01*
X330835Y142085D01*
X327914D01*
X327776Y142028D01*
X327569Y142114D01*
X327403D01*
X326843Y142879D01*
X326768Y142925D01*
X326735Y143005D01*
X326423Y143134D01*
X326135Y143310D01*
X326050Y143289D01*
X325969Y143322D01*
X315214D01*
X314449Y143005D01*
X314132Y142240D01*
Y137691D01*
X312958Y137205D01*
X307217Y142945D01*
X306639Y143332D01*
X305956Y143468D01*
X301686D01*
X299424Y145730D01*
X299722Y147228D01*
X300037Y147359D01*
X300951Y148273D01*
X301446Y149467D01*
Y150760D01*
X300951Y151955D01*
X300037Y152869D01*
X298843Y153364D01*
X297549D01*
X297234Y153233D01*
X295964Y154082D01*
Y202509D01*
X299966Y206510D01*
X300352Y207089D01*
X300488Y207772D01*
Y220056D01*
X300352Y220738D01*
X299966Y221317D01*
X264702Y256581D01*
X264123Y256968D01*
X263440Y257103D01*
X257709D01*
X257434Y257288D01*
X256751Y257423D01*
X251159D01*
X246269Y262313D01*
X246904Y263475D01*
X279492Y256383D01*
D02*
G37*
G36*
X183557Y29873D02*
Y27402D01*
X183418Y27344D01*
X183101Y26579D01*
Y25237D01*
X183418Y24472D01*
X184183Y24155D01*
X188181D01*
X188946Y24472D01*
X189263Y25237D01*
Y26579D01*
X189407Y26793D01*
X190864D01*
X192862Y24795D01*
X192838Y24738D01*
Y23445D01*
X193333Y22251D01*
X194247Y21337D01*
X195441Y20842D01*
X196735D01*
X197929Y21337D01*
X198843Y22251D01*
X199078Y22819D01*
X200318Y22937D01*
X200516Y21758D01*
X200060Y20655D01*
Y19696D01*
X199947Y19621D01*
X198654D01*
X197459Y19126D01*
X196545Y18212D01*
X196050Y17017D01*
Y15724D01*
X196545Y14530D01*
X197459Y13615D01*
X198654Y13121D01*
X199947D01*
X201141Y13615D01*
X202056Y14530D01*
X202550Y15724D01*
Y17017D01*
X202578Y17058D01*
X203656D01*
X204362Y17350D01*
X205425Y16737D01*
X205561Y16577D01*
Y15887D01*
X206056Y14692D01*
X206970Y13778D01*
X207835Y13420D01*
X207686Y12150D01*
X206686D01*
X206416Y12150D01*
X200686D01*
Y-24850D01*
X206416D01*
X206686Y-24850D01*
X207686D01*
X207956Y-24850D01*
X213416D01*
X213686Y-24850D01*
X214686D01*
X214956Y-24850D01*
X220686D01*
Y-24850D01*
X221686D01*
Y-24850D01*
X227686D01*
Y-24850D01*
X228686D01*
Y-24850D01*
X232390D01*
Y-34036D01*
X205653D01*
X204458Y-32574D01*
X204396Y-32523D01*
X204354Y-32455D01*
X204050Y-32237D01*
X203761Y-31999D01*
X203685Y-31976D01*
X203619Y-31929D01*
X198188Y-29473D01*
X198152Y-29464D01*
X198120Y-29443D01*
X197713Y-29362D01*
X197309Y-29268D01*
X197272Y-29274D01*
X197235Y-29267D01*
X139619D01*
X139186Y-29353D01*
X138751Y-29436D01*
X133220Y-31671D01*
X133133Y-31728D01*
X133033Y-31756D01*
X132758Y-31974D01*
X132465Y-32166D01*
X132407Y-32252D01*
X132325Y-32317D01*
X130862Y-34036D01*
X118152D01*
X117626Y-32766D01*
X117817Y-32575D01*
X118312Y-31381D01*
Y-30087D01*
X118288Y-30031D01*
X120948Y-27372D01*
X121334Y-26793D01*
X121470Y-26110D01*
Y-25748D01*
X121795Y-25424D01*
X122686Y-24850D01*
X123686D01*
X123956Y-24850D01*
X129686D01*
Y-24850D01*
X130686D01*
Y-24850D01*
X136686D01*
Y-24850D01*
X137686D01*
Y-24850D01*
X143686D01*
Y-24850D01*
X144686D01*
Y-24850D01*
X150686D01*
Y-24850D01*
X151686D01*
Y-24850D01*
X157686D01*
Y-24850D01*
X158686D01*
Y-24850D01*
X164686D01*
Y-24850D01*
X165686D01*
Y-24850D01*
X171686D01*
Y-24850D01*
X172686D01*
Y-24850D01*
X178686D01*
Y-24850D01*
X179686D01*
Y-24850D01*
X185686D01*
Y12150D01*
X180249D01*
X179354Y13042D01*
X179276Y13250D01*
Y14313D01*
X178819Y15415D01*
X178350Y15884D01*
X178061Y16581D01*
X178304Y17498D01*
X178778Y17971D01*
X179272Y19166D01*
Y20459D01*
X178778Y21653D01*
X177863Y22567D01*
X176669Y23062D01*
X176510D01*
X175350Y23439D01*
X175294Y24235D01*
Y25512D01*
X178760D01*
Y30779D01*
X182951D01*
X183557Y29873D01*
D02*
G37*
%LPC*%
G36*
X277553Y154223D02*
X276260D01*
X275066Y153728D01*
X274151Y152814D01*
X273657Y151619D01*
Y150326D01*
X274151Y149132D01*
X275066Y148218D01*
X276260Y147723D01*
X277553D01*
X278139Y146591D01*
X278495Y145732D01*
X279409Y144818D01*
X280604Y144323D01*
X281896D01*
X283091Y144818D01*
X284005Y145732D01*
X284500Y146926D01*
Y148219D01*
X284005Y149414D01*
X283091Y150328D01*
X281896Y150823D01*
X280604D01*
X280156Y151122D01*
Y151619D01*
X279662Y152814D01*
X278748Y153728D01*
X277553Y154223D01*
D02*
G37*
G36*
X280320Y116768D02*
X279027D01*
X277833Y116273D01*
X277722Y116163D01*
X276002Y116086D01*
X274807Y116581D01*
X273515D01*
X272320Y116086D01*
X271406Y115172D01*
X270911Y113978D01*
Y112685D01*
X271406Y111490D01*
X272320Y110576D01*
X273515Y110081D01*
X274807D01*
X276002Y110576D01*
X276113Y110687D01*
X277833Y110763D01*
X279027Y110268D01*
X280320D01*
X281515Y110763D01*
X282429Y111677D01*
X282924Y112872D01*
Y114165D01*
X282429Y115359D01*
X281515Y116273D01*
X280320Y116768D01*
D02*
G37*
G36*
X303414Y114502D02*
X302122D01*
X300927Y114007D01*
X300013Y113093D01*
X299518Y111898D01*
Y110605D01*
X300013Y109411D01*
X300927Y108497D01*
X302122Y108002D01*
X303414D01*
X304609Y108497D01*
X305523Y109411D01*
X306018Y110605D01*
Y111898D01*
X305523Y113093D01*
X304609Y114007D01*
X303414Y114502D01*
D02*
G37*
G36*
X278269Y108406D02*
X276975D01*
X275781Y107911D01*
X274867Y106997D01*
X274372Y105802D01*
Y104509D01*
X274867Y103315D01*
X275781Y102401D01*
X276975Y101906D01*
X278269D01*
X279463Y102401D01*
X280377Y103315D01*
X280872Y104509D01*
Y105802D01*
X280377Y106997D01*
X279463Y107911D01*
X278269Y108406D01*
D02*
G37*
G36*
X154177Y191726D02*
X153083D01*
X152072Y191307D01*
X151299Y190534D01*
X150880Y189523D01*
Y188429D01*
X151299Y187418D01*
X152072Y186645D01*
X153083Y186226D01*
X154177D01*
X155188Y186645D01*
X155961Y187418D01*
X156380Y188429D01*
Y189523D01*
X155961Y190534D01*
X155188Y191307D01*
X154177Y191726D01*
D02*
G37*
G36*
X146901Y189436D02*
X145707D01*
X144605Y188979D01*
X143761Y188135D01*
X143304Y187033D01*
Y185839D01*
X143761Y184737D01*
X144605Y183893D01*
X145707Y183436D01*
X146901D01*
X148003Y183893D01*
X148847Y184737D01*
X149304Y185839D01*
Y187033D01*
X148847Y188135D01*
X148003Y188979D01*
X146901Y189436D01*
D02*
G37*
G36*
X124656Y179581D02*
X123363D01*
X122168Y179087D01*
X121254Y178172D01*
X120759Y176978D01*
Y175685D01*
X121254Y174490D01*
X122168Y173576D01*
X123363Y173081D01*
X124656D01*
X125850Y173576D01*
X126765Y174490D01*
X127259Y175685D01*
Y176978D01*
X126765Y178172D01*
X125850Y179087D01*
X124656Y179581D01*
D02*
G37*
G36*
X100911Y113043D02*
X99618D01*
X98424Y112549D01*
X97509Y111635D01*
X97015Y110440D01*
Y109147D01*
X97509Y107953D01*
X98424Y107038D01*
X99618Y106544D01*
X100911D01*
X102105Y107038D01*
X103020Y107953D01*
X103514Y109147D01*
Y110440D01*
X103020Y111635D01*
X102105Y112549D01*
X100911Y113043D01*
D02*
G37*
G36*
X108052Y108910D02*
X106759D01*
X105564Y108415D01*
X104650Y107501D01*
X104156Y106306D01*
Y105014D01*
X104650Y103819D01*
X105564Y102905D01*
X106759Y102410D01*
X108052D01*
X109246Y102905D01*
X110161Y103819D01*
X110655Y105014D01*
Y106306D01*
X110161Y107501D01*
X109246Y108415D01*
X108052Y108910D01*
D02*
G37*
G36*
X131705Y123860D02*
X130511D01*
X129409Y123403D01*
X129274Y123269D01*
X127798Y123031D01*
X126695Y123488D01*
X125502D01*
X124399Y123031D01*
X123555Y122187D01*
X123099Y121084D01*
Y119891D01*
X123555Y118788D01*
X124399Y117944D01*
X125502Y117488D01*
X126695D01*
X127798Y117944D01*
X127932Y118079D01*
X129409Y118317D01*
X130511Y117860D01*
X131705D01*
X132807Y118317D01*
X133651Y119161D01*
X134108Y120263D01*
Y121457D01*
X133651Y122559D01*
X132807Y123403D01*
X131705Y123860D01*
D02*
G37*
G36*
X130265Y113289D02*
X128972D01*
X127778Y112794D01*
X126863Y111880D01*
X126369Y110685D01*
Y109392D01*
X126863Y108198D01*
X127778Y107284D01*
X128972Y106789D01*
X129301D01*
X129565Y106393D01*
Y102716D01*
X129546Y102703D01*
X128254D01*
X127059Y102209D01*
X126145Y101294D01*
X125650Y100100D01*
Y98807D01*
X126145Y97612D01*
X127059Y96698D01*
X128254Y96203D01*
X129546D01*
X130741Y96698D01*
X130856Y96813D01*
X132573Y96849D01*
X133768Y96354D01*
X135061D01*
X136255Y96849D01*
X137169Y97763D01*
X137664Y98958D01*
Y100251D01*
X137169Y101445D01*
X136291Y102323D01*
X136613Y103099D01*
Y105689D01*
X136223Y106630D01*
X135523Y106920D01*
Y107118D01*
X135387Y107801D01*
X135000Y108379D01*
X133975Y109405D01*
X133396Y109791D01*
X133153Y109840D01*
X132869Y110124D01*
Y110685D01*
X132374Y111880D01*
X131460Y112794D01*
X130265Y113289D01*
D02*
G37*
G36*
X322759Y108668D02*
X321466D01*
X320272Y108173D01*
X319357Y107259D01*
X318863Y106065D01*
Y104771D01*
X319357Y103577D01*
X320272Y102663D01*
X321466Y102168D01*
X322759D01*
X323954Y102663D01*
X324868Y103577D01*
X325363Y104771D01*
Y106065D01*
X324868Y107259D01*
X323954Y108173D01*
X322759Y108668D01*
D02*
G37*
G36*
X55673Y117550D02*
X54381D01*
X53186Y117055D01*
X52272Y116141D01*
X51777Y114946D01*
Y113653D01*
X52272Y112459D01*
X53186Y111545D01*
X54381Y111050D01*
X55673D01*
X56868Y111545D01*
X57782Y112459D01*
X58277Y113653D01*
Y114946D01*
X57782Y116141D01*
X56868Y117055D01*
X55673Y117550D01*
D02*
G37*
G36*
X168092Y49874D02*
X166799D01*
X165604Y49379D01*
X164690Y48465D01*
X164195Y47270D01*
Y45977D01*
X164690Y44783D01*
X165604Y43868D01*
X166799Y43374D01*
X168092D01*
X169286Y43868D01*
X170201Y44783D01*
X170695Y45977D01*
Y47270D01*
X170201Y48465D01*
X169286Y49379D01*
X168092Y49874D01*
D02*
G37*
G36*
X83162Y38106D02*
X82479Y37970D01*
X81901Y37584D01*
X81514Y37005D01*
X81378Y36322D01*
Y23622D01*
X81514Y22939D01*
X81901Y22360D01*
X82479Y21974D01*
X83162Y21838D01*
X83845Y21974D01*
X84424Y22360D01*
X84811Y22939D01*
X84946Y23622D01*
Y36322D01*
X84811Y37005D01*
X84424Y37584D01*
X83845Y37970D01*
X83162Y38106D01*
D02*
G37*
G36*
X110285Y56163D02*
X108992D01*
X107797Y55669D01*
X106883Y54754D01*
X106388Y53560D01*
Y52267D01*
X106883Y51072D01*
X107797Y50158D01*
X108992Y49663D01*
X110285D01*
X111479Y50158D01*
X112393Y51072D01*
X112888Y52267D01*
Y53560D01*
X112393Y54754D01*
X111479Y55669D01*
X110285Y56163D01*
D02*
G37*
G36*
X150283Y52912D02*
X148990D01*
X147796Y52417D01*
X146882Y51503D01*
X146387Y50308D01*
Y49016D01*
X146882Y47821D01*
X147796Y46907D01*
X148990Y46412D01*
X150283D01*
X151478Y46907D01*
X152392Y47821D01*
X152887Y49016D01*
Y50308D01*
X152392Y51503D01*
X151478Y52417D01*
X150283Y52912D01*
D02*
G37*
G36*
X131093Y55757D02*
X129800D01*
X128605Y55262D01*
X127691Y54348D01*
X127196Y53154D01*
Y51861D01*
X127323Y51555D01*
X127564Y50585D01*
X126688Y50022D01*
X126415Y49908D01*
X125501Y48994D01*
X125006Y47800D01*
Y46507D01*
X125501Y45312D01*
X126415Y44398D01*
X127610Y43903D01*
X128903D01*
X130097Y44398D01*
X131011Y45312D01*
X131506Y46507D01*
Y47800D01*
X131379Y48106D01*
X131138Y49076D01*
X132014Y49639D01*
X132287Y49752D01*
X133201Y50666D01*
X133696Y51861D01*
Y53154D01*
X133201Y54348D01*
X132287Y55262D01*
X131093Y55757D01*
D02*
G37*
G36*
X136935Y50240D02*
X135642D01*
X134447Y49745D01*
X133533Y48831D01*
X133038Y47636D01*
Y46343D01*
X133533Y45149D01*
X134447Y44235D01*
X135642Y43740D01*
X136935D01*
X138129Y44235D01*
X139044Y45149D01*
X139538Y46343D01*
Y47636D01*
X139044Y48831D01*
X138129Y49745D01*
X136935Y50240D01*
D02*
G37*
G36*
X100944Y46814D02*
X99651D01*
X98456Y46319D01*
X97542Y45405D01*
X97047Y44210D01*
Y42917D01*
X97542Y41723D01*
X98456Y40809D01*
X99651Y40314D01*
X100944D01*
X102138Y40809D01*
X103052Y41723D01*
X103547Y42917D01*
Y44210D01*
X103052Y45405D01*
X102138Y46319D01*
X100944Y46814D01*
D02*
G37*
G36*
X106056Y40238D02*
X104763D01*
X103569Y39743D01*
X102655Y38829D01*
X102160Y37634D01*
Y36342D01*
X102655Y35147D01*
X103569Y34233D01*
X104763Y33738D01*
X106056D01*
X107251Y34233D01*
X108165Y35147D01*
X108660Y36342D01*
Y37634D01*
X108165Y38829D01*
X107251Y39743D01*
X106056Y40238D01*
D02*
G37*
G36*
X11813Y39563D02*
X10520D01*
X9326Y39068D01*
X8412Y38154D01*
X7917Y36959D01*
Y35666D01*
X8412Y34472D01*
X9326Y33558D01*
X10520Y33063D01*
X11813D01*
X13008Y33558D01*
X13922Y34472D01*
X14417Y35666D01*
Y36959D01*
X13922Y38154D01*
X13008Y39068D01*
X11813Y39563D01*
D02*
G37*
G36*
X12330Y31698D02*
X11037D01*
X9843Y31203D01*
X8929Y30289D01*
X8434Y29095D01*
Y27801D01*
X8929Y26607D01*
X9843Y25693D01*
X11037Y25198D01*
X12330D01*
X13525Y25693D01*
X14439Y26607D01*
X14934Y27801D01*
Y29095D01*
X14439Y30289D01*
X13525Y31203D01*
X12330Y31698D01*
D02*
G37*
G36*
X19442Y15188D02*
X18149D01*
X16955Y14693D01*
X16041Y13779D01*
X15546Y12585D01*
Y11292D01*
X16041Y10097D01*
X16955Y9183D01*
X18149Y8688D01*
X19442D01*
X20637Y9183D01*
X21551Y10097D01*
X22046Y11292D01*
Y12585D01*
X21551Y13779D01*
X20637Y14693D01*
X19442Y15188D01*
D02*
G37*
G36*
X70332Y5796D02*
X68352D01*
X68250Y5754D01*
X68141Y5776D01*
X66200Y5390D01*
X66108Y5328D01*
X65997D01*
X64168Y4570D01*
X64090Y4492D01*
X63981Y4470D01*
X62335Y3371D01*
X62274Y3279D01*
X62171Y3236D01*
X60772Y1837D01*
X60729Y1734D01*
X60637Y1673D01*
X59538Y27D01*
X59516Y-82D01*
X59437Y-160D01*
X58680Y-1989D01*
Y-2100D01*
X58618Y-2192D01*
X58232Y-4133D01*
X58254Y-4242D01*
X58211Y-4344D01*
Y-6324D01*
X58254Y-6426D01*
X58232Y-6535D01*
X58618Y-8476D01*
X58680Y-8568D01*
Y-8679D01*
X59437Y-10508D01*
X59516Y-10586D01*
X59538Y-10695D01*
X60637Y-12341D01*
X60729Y-12402D01*
X60772Y-12505D01*
X62171Y-13904D01*
X62274Y-13947D01*
X62335Y-14039D01*
X63981Y-15138D01*
X64090Y-15160D01*
X64168Y-15238D01*
X65997Y-15996D01*
X66108D01*
X66200Y-16057D01*
X68141Y-16444D01*
X68250Y-16422D01*
X68352Y-16465D01*
X70332D01*
X70434Y-16422D01*
X70543Y-16444D01*
X72484Y-16057D01*
X72576Y-15996D01*
X72687D01*
X74516Y-15238D01*
X74594Y-15160D01*
X74703Y-15138D01*
X76349Y-14039D01*
X76410Y-13947D01*
X76513Y-13904D01*
X77912Y-12505D01*
X77955Y-12402D01*
X78047Y-12341D01*
X79146Y-10695D01*
X79168Y-10586D01*
X79247Y-10508D01*
X80004Y-8679D01*
Y-8568D01*
X80065Y-8476D01*
X80452Y-6535D01*
X80430Y-6426D01*
X80472Y-6324D01*
Y-4344D01*
X80430Y-4242D01*
X80452Y-4133D01*
X80065Y-2192D01*
X80004Y-2100D01*
Y-1989D01*
X79247Y-160D01*
X79168Y-82D01*
X79146Y27D01*
X78047Y1673D01*
X77955Y1734D01*
X77912Y1837D01*
X76513Y3236D01*
X76410Y3279D01*
X76349Y3371D01*
X74703Y4470D01*
X74594Y4492D01*
X74516Y4570D01*
X72687Y5328D01*
X72576D01*
X72484Y5390D01*
X70543Y5776D01*
X70434Y5754D01*
X70332Y5796D01*
D02*
G37*
G36*
X321310Y214569D02*
X320717Y214411D01*
X320099Y214288D01*
X319441Y214157D01*
X319349Y214096D01*
X319238D01*
X318036Y213598D01*
X317957Y213519D01*
X317849Y213498D01*
X316767Y212775D01*
X316242Y212459D01*
X316218Y212449D01*
X316218Y212449D01*
X316004Y212233D01*
X315788Y212019D01*
X315788Y212019D01*
X315771Y211978D01*
X315550Y211560D01*
X314982Y210708D01*
X314826Y210475D01*
X314804Y210366D01*
X314726Y210288D01*
X314228Y209086D01*
Y208975D01*
X314166Y208883D01*
X314044Y208268D01*
X313908Y207592D01*
X313796Y207231D01*
X313755Y207099D01*
X313755Y207099D01*
X313755Y206299D01*
X314019Y205313D01*
X314142Y204730D01*
X314166Y204608D01*
X314190Y204572D01*
X314227Y204408D01*
X314228Y204405D01*
X314386Y204024D01*
X314726Y203203D01*
X314804Y203125D01*
X314826Y203016D01*
X315124Y202570D01*
X315606Y201805D01*
X315667Y201670D01*
X315723Y201536D01*
X315723Y201536D01*
X316050Y201211D01*
X316376Y200884D01*
X316376Y200883D01*
X316556Y200809D01*
X316642Y200771D01*
X317411Y200285D01*
X317849Y199993D01*
X317957Y199971D01*
X318036Y199893D01*
X319238Y199395D01*
X319349D01*
X319441Y199333D01*
X319530Y199316D01*
X319982Y199224D01*
X320832Y199028D01*
X321089Y198922D01*
X321921D01*
X322397Y199067D01*
X323090Y199209D01*
X323716Y199333D01*
X323808Y199395D01*
X323919D01*
X325121Y199893D01*
X325199Y199971D01*
X325308Y199993D01*
X326389Y200716D01*
X326854Y200975D01*
X326885Y200988D01*
X326885Y200988D01*
X327034Y201138D01*
X327183Y201286D01*
X327184Y201287D01*
X327191Y201304D01*
X327608Y201934D01*
X327867Y202321D01*
X328330Y203016D01*
X328352Y203125D01*
X328431Y203203D01*
X328928Y204405D01*
Y204516D01*
X328990Y204608D01*
X329154Y205431D01*
X329244Y205884D01*
X329402Y206655D01*
Y206745D01*
X329244Y207607D01*
X329171Y207974D01*
X328990Y208883D01*
X328928Y208975D01*
Y209086D01*
X328431Y210288D01*
X328352Y210366D01*
X328330Y210475D01*
X327820Y211239D01*
X327608Y211556D01*
X327125Y212254D01*
X327119Y212269D01*
X327119Y212269D01*
X327080Y212306D01*
X327043Y212345D01*
X327043Y212345D01*
X327026Y212352D01*
X326389Y212775D01*
X326007Y213030D01*
X325308Y213498D01*
X325199Y213519D01*
X325121Y213598D01*
X323919Y214096D01*
X323808D01*
X323716Y214157D01*
X322921Y214315D01*
X322440Y214411D01*
X321700Y214569D01*
X321310D01*
X321310D01*
D02*
G37*
G36*
X304508Y165179D02*
X303314D01*
X302212Y164722D01*
X301368Y163879D01*
X300911Y162776D01*
Y161583D01*
X301368Y160480D01*
X302212Y159636D01*
X303314Y159179D01*
X304508D01*
X305611Y159636D01*
X306455Y160480D01*
X306911Y161583D01*
Y162776D01*
X306455Y163879D01*
X305611Y164722D01*
X304508Y165179D01*
D02*
G37*
G36*
X263321Y35814D02*
X262027D01*
X260833Y35320D01*
X259919Y34405D01*
X259424Y33211D01*
Y31918D01*
X259919Y30724D01*
X260833Y29809D01*
X262027Y29314D01*
X263321D01*
X264515Y29809D01*
X264531Y29825D01*
X266323Y29821D01*
X266349Y29795D01*
X267544Y29300D01*
X268836D01*
X270031Y29795D01*
X270945Y30710D01*
X271440Y31904D01*
Y33197D01*
X270945Y34391D01*
X270031Y35306D01*
X268836Y35800D01*
X267544D01*
X266349Y35306D01*
X266333Y35290D01*
X264541Y35294D01*
X264515Y35320D01*
X263321Y35814D01*
D02*
G37*
G36*
X260947Y23828D02*
X259753D01*
X258651Y23371D01*
X257807Y22527D01*
X257350Y21425D01*
Y20231D01*
X257807Y19129D01*
X258651Y18285D01*
X259753Y17828D01*
X260947D01*
X262049Y18285D01*
X262893Y19129D01*
X263350Y20231D01*
Y21425D01*
X262893Y22527D01*
X262049Y23371D01*
X260947Y23828D01*
D02*
G37*
G36*
X280362Y27452D02*
X280102Y27343D01*
X279207Y27131D01*
X278750Y27040D01*
X278657Y26978D01*
X278547D01*
X277345Y26480D01*
X277266Y26402D01*
X277158Y26380D01*
X276728Y26093D01*
X275954Y25605D01*
X275692Y25497D01*
X274982Y24786D01*
X274982Y24786D01*
X274870Y24517D01*
X274391Y23741D01*
X274135Y23357D01*
X274113Y23249D01*
X274035Y23170D01*
X273537Y21968D01*
Y21858D01*
X273475Y21765D01*
X273385Y21311D01*
X273175Y20424D01*
X273064Y20154D01*
X273064Y19197D01*
X273334Y18162D01*
X273341Y18130D01*
X273475Y17490D01*
X273499Y17455D01*
X273535Y17295D01*
X273537Y17287D01*
X273719Y16847D01*
X274035Y16085D01*
X274113Y16007D01*
X274135Y15898D01*
X274231Y15754D01*
X274873Y14784D01*
X275003Y14504D01*
X275042Y14409D01*
X275042Y14409D01*
X275295Y14157D01*
X275546Y13904D01*
X275547Y13904D01*
X275573Y13893D01*
X276076Y13598D01*
X277158Y12875D01*
X277266Y12854D01*
X277345Y12775D01*
X278547Y12278D01*
X278657D01*
X278750Y12216D01*
X280026Y11962D01*
X280591Y11804D01*
X280970D01*
X281749Y11962D01*
X282195Y12051D01*
X283025Y12216D01*
X283117Y12278D01*
X283228D01*
X284429Y12775D01*
X284508Y12854D01*
X284617Y12875D01*
X285698Y13598D01*
X285760Y13690D01*
X285862Y13733D01*
X286782Y14653D01*
X286825Y14755D01*
X286917Y14817D01*
X287640Y15898D01*
X287661Y16007D01*
X287740Y16085D01*
X288237Y17287D01*
Y17398D01*
X288299Y17490D01*
X288553Y18766D01*
X288531Y18875D01*
X288574Y18977D01*
Y20278D01*
X288531Y20381D01*
X288553Y20489D01*
X288299Y21765D01*
X288237Y21858D01*
Y21968D01*
X287740Y23170D01*
X287661Y23249D01*
X287640Y23357D01*
X287136Y24111D01*
X286917Y24439D01*
X286445Y25126D01*
X286438Y25141D01*
X286438Y25141D01*
X286325Y25252D01*
X286214Y25365D01*
X286214Y25365D01*
X286186Y25377D01*
X285698Y25657D01*
X285163Y26015D01*
X284617Y26380D01*
X284508Y26402D01*
X284429Y26480D01*
X283566Y26838D01*
X283228Y26978D01*
X283224Y26979D01*
X283061Y27015D01*
X283025Y27040D01*
X282663Y27112D01*
X282342Y27176D01*
X281202Y27452D01*
X280363Y27451D01*
X280362Y27452D01*
D02*
G37*
G36*
X248550Y14208D02*
X247257D01*
X246063Y13713D01*
X245149Y12799D01*
X244654Y11604D01*
Y10312D01*
X245149Y9117D01*
X246063Y8203D01*
X247257Y7708D01*
X248550D01*
X249745Y8203D01*
X250659Y9117D01*
X251154Y10312D01*
Y11604D01*
X250659Y12799D01*
X249745Y13713D01*
X248550Y14208D01*
D02*
G37*
G36*
X270484Y5034D02*
X268504D01*
X268402Y4992D01*
X268293Y5014D01*
X266352Y4627D01*
X266260Y4566D01*
X266149D01*
X264320Y3808D01*
X264242Y3730D01*
X264133Y3708D01*
X262487Y2609D01*
X262426Y2517D01*
X262323Y2474D01*
X260924Y1075D01*
X260881Y972D01*
X260789Y911D01*
X259690Y-735D01*
X259668Y-844D01*
X259590Y-922D01*
X258832Y-2751D01*
Y-2862D01*
X258771Y-2954D01*
X258384Y-4895D01*
X258406Y-5004D01*
X258363Y-5106D01*
Y-7086D01*
X258406Y-7188D01*
X258384Y-7297D01*
X258771Y-9238D01*
X258832Y-9330D01*
Y-9441D01*
X259590Y-11270D01*
X259668Y-11348D01*
X259690Y-11457D01*
X260789Y-13103D01*
X260881Y-13164D01*
X260924Y-13267D01*
X262323Y-14666D01*
X262426Y-14709D01*
X262487Y-14801D01*
X264133Y-15900D01*
X264242Y-15922D01*
X264320Y-16000D01*
X266149Y-16758D01*
X266260D01*
X266352Y-16819D01*
X268293Y-17206D01*
X268402Y-17184D01*
X268504Y-17227D01*
X270484D01*
X270586Y-17184D01*
X270695Y-17206D01*
X272636Y-16819D01*
X272728Y-16758D01*
X272839D01*
X274668Y-16000D01*
X274746Y-15922D01*
X274855Y-15900D01*
X276501Y-14801D01*
X276562Y-14709D01*
X276665Y-14666D01*
X278064Y-13267D01*
X278107Y-13164D01*
X278199Y-13103D01*
X279298Y-11457D01*
X279320Y-11348D01*
X279398Y-11270D01*
X280156Y-9441D01*
Y-9330D01*
X280217Y-9238D01*
X280576Y-7439D01*
X280604Y-7297D01*
X280762Y-6189D01*
Y-6096D01*
X280604Y-4895D01*
X280602Y-4890D01*
X280217Y-2954D01*
X280156Y-2862D01*
Y-2751D01*
X279398Y-922D01*
X279320Y-844D01*
X279298Y-735D01*
X278199Y911D01*
X278107Y972D01*
X278064Y1075D01*
X276665Y2474D01*
X276562Y2517D01*
X276501Y2609D01*
X274855Y3708D01*
X274746Y3730D01*
X274668Y3808D01*
X272839Y4566D01*
X272728D01*
X272636Y4627D01*
X270695Y5014D01*
X270586Y4992D01*
X270484Y5034D01*
D02*
G37*
G36*
X300977Y8736D02*
X299684D01*
X298489Y8241D01*
X297575Y7327D01*
X297080Y6132D01*
Y4839D01*
X297575Y3645D01*
X298489Y2731D01*
X299684Y2236D01*
X300977D01*
X302171Y2731D01*
X303085Y3645D01*
X303580Y4839D01*
Y6132D01*
X303085Y7327D01*
X302171Y8241D01*
X300977Y8736D01*
D02*
G37*
G36*
X184695Y21178D02*
X183402D01*
X182207Y20683D01*
X181293Y19769D01*
X180798Y18574D01*
Y17281D01*
X181293Y16087D01*
X182207Y15172D01*
X183402Y14678D01*
X184695D01*
X185651Y15074D01*
X186983Y15177D01*
X187897Y14263D01*
X189091Y13768D01*
X190385D01*
X191579Y14263D01*
X192493Y15177D01*
X192988Y16372D01*
Y17665D01*
X192493Y18859D01*
X191579Y19773D01*
X190385Y20268D01*
X189091D01*
X188135Y19872D01*
X186803Y19769D01*
X185889Y20683D01*
X184695Y21178D01*
D02*
G37*
%LPD*%
D17*
X191603Y28577D02*
X196088Y24092D01*
X186182Y28577D02*
X191603D01*
X196088Y24092D02*
Y24092D01*
X195152Y113921D02*
X203454D01*
X203835Y89405D02*
X215265D01*
X177477Y110482D02*
X177546Y110551D01*
X177199Y110204D02*
X177477Y110482D01*
X177477D02*
X178119Y109839D01*
X178946Y56041D02*
X181615Y58710D01*
X178946Y47752D02*
Y56041D01*
X165481Y36639D02*
X175133D01*
X148372Y37802D02*
X149682Y39112D01*
X49149Y94676D02*
X58801D01*
X234865Y66711D02*
X235243Y66333D01*
X275022Y96567D02*
Y98104D01*
X277599Y93314D02*
Y93990D01*
X275022Y96567D02*
X277599Y93990D01*
X291129Y76200D02*
X297389Y82460D01*
X273373Y76200D02*
X291129D01*
X259169Y61997D02*
X273373Y76200D01*
X230560Y66711D02*
X234865D01*
X44716Y91732D02*
Y105367D01*
X36045Y106353D02*
X38058D01*
X42447Y107636D02*
X44716Y105367D01*
X39341Y107636D02*
X42447D01*
X38058Y106353D02*
X39341Y107636D01*
X44716Y91732D02*
X47469Y88979D01*
X123590Y104568D02*
X128475D01*
X128649Y104394D01*
X123416Y104742D02*
X123590Y104568D01*
X129619Y110039D02*
X130430D01*
X168316Y125366D02*
X168658Y125025D01*
X166454Y125366D02*
X168316D01*
X163691Y119226D02*
X163835D01*
Y121671D01*
X164084Y121920D01*
X133739Y104643D02*
Y107118D01*
X132326Y108143D02*
X132713D01*
X130430Y110039D02*
X132326Y108143D01*
X133739Y104643D02*
X133988Y104394D01*
X132713Y108143D02*
X133739Y107118D01*
X103747Y41004D02*
X110834D01*
X123638Y53808D01*
Y53819D01*
X127223Y57404D01*
X119888Y55361D02*
X130658Y66131D01*
Y66843D01*
X121120Y62496D02*
X123602Y64979D01*
X94684Y62496D02*
X121120D01*
X93728Y63452D02*
X94684Y62496D01*
X92916Y63452D02*
X93728D01*
X130658Y66843D02*
X130674Y66859D01*
Y66859D01*
X123602Y64979D02*
X125279D01*
X130674Y66859D02*
X134173Y70358D01*
X128174Y67874D02*
Y79102D01*
X125279Y64979D02*
X128174Y67874D01*
X127223Y57404D02*
X146408D01*
X240780Y63959D02*
Y64340D01*
Y63959D02*
X242501Y62238D01*
X242882D01*
X233810Y71311D02*
Y74930D01*
X230182Y67089D02*
X230560Y66711D01*
X239243Y65877D02*
Y67990D01*
X234787Y70333D02*
X236900D01*
X233810Y71311D02*
X234787Y70333D01*
X236900D02*
X239243Y67990D01*
Y65877D02*
X240780Y64340D01*
X232387Y71009D02*
X233577Y72200D01*
X242697Y62550D02*
X253873D01*
X242570Y62423D02*
X242697Y62550D01*
X253873D02*
X254000Y62677D01*
X288006Y37368D02*
X292131D01*
X287528Y37846D02*
X288006Y37368D01*
X292131D02*
X293177Y36322D01*
X255344Y74500D02*
Y77400D01*
X254552Y78192D02*
Y81835D01*
X254000Y62677D02*
Y73156D01*
X255344Y74500D01*
X254552Y78192D02*
X255344Y77400D01*
X254000Y82388D02*
X254552Y81835D01*
X254000Y96009D02*
X260270Y102278D01*
X254000Y89347D02*
Y96009D01*
X291846Y107696D02*
X297389Y102153D01*
Y82460D02*
Y102153D01*
X178766Y119269D02*
X197421D01*
X177477Y110482D02*
X177477D01*
X175639Y130302D02*
X175871Y130535D01*
Y135404D01*
X176286Y135818D01*
X192684Y222922D02*
X199705Y215900D01*
X187198Y232910D02*
Y244928D01*
Y232910D02*
X192684Y227425D01*
Y222922D02*
Y227425D01*
X175584Y262914D02*
X178744Y259754D01*
Y256940D02*
Y259754D01*
X176228Y255898D02*
Y258711D01*
X178744Y256940D02*
X189714Y245970D01*
X176228Y255898D02*
X187198Y244928D01*
X189714Y237706D02*
Y245970D01*
X213360Y25557D02*
Y26924D01*
X209550Y21747D02*
X213360Y25557D01*
X217170Y30734D02*
Y34415D01*
X213360Y26924D02*
X217170Y30734D01*
X202638Y20479D02*
X203060Y20058D01*
X192786Y34160D02*
X202638Y24308D01*
Y20479D02*
Y24308D01*
X194917Y79072D02*
Y79883D01*
X197358Y71249D02*
Y76631D01*
X194917Y79072D02*
X197358Y76631D01*
X200089Y66143D02*
X201123Y67178D01*
Y67643D01*
X197358Y65911D02*
X197591Y66143D01*
X200089D01*
X201123Y67643D02*
X202946Y69467D01*
X175989Y69057D02*
X182957D01*
X185404Y71504D01*
X189484D01*
X129767Y139171D02*
X136473D01*
X136832Y138812D01*
X115087Y124492D02*
X129767Y139171D01*
X143082Y121158D02*
Y127903D01*
Y112635D02*
Y121158D01*
X137351Y139171D02*
X139241D01*
X15432Y79966D02*
X15462D01*
X9906Y82743D02*
X10429Y82220D01*
X13177D01*
X15432Y79966D01*
X5080Y92517D02*
X23846D01*
X32602Y101274D01*
X189714Y237706D02*
X196268Y231152D01*
X205646D01*
X165804Y255529D02*
X168156Y257882D01*
X171483D02*
X173712Y255653D01*
X170394Y252049D02*
X170561Y251882D01*
X169820Y253866D02*
X170394Y253292D01*
X163322Y247038D02*
X165804Y249520D01*
X173712Y254856D02*
Y255653D01*
X165804Y249520D02*
Y255529D01*
X170394Y252049D02*
Y253292D01*
X175768Y246530D02*
Y252800D01*
X173712Y254856D02*
X175768Y252800D01*
X168156Y257882D02*
X171483D01*
X123458Y30853D02*
Y31665D01*
X125048Y29228D02*
Y29263D01*
Y29228D02*
X128464Y25812D01*
X123458Y30853D02*
X125048Y29263D01*
X128174Y79102D02*
X140383Y91311D01*
X102580Y71104D02*
X106269Y67416D01*
X110191D01*
X102580Y71104D02*
Y76926D01*
X110191Y67416D02*
X110805Y66802D01*
X315111Y93467D02*
Y102245D01*
X315360Y102494D02*
Y113406D01*
X315111Y102245D02*
X315360Y102494D01*
X315111Y113655D02*
Y132528D01*
Y113655D02*
X315360Y113406D01*
X305956Y141684D02*
X315111Y132528D01*
X103840Y124492D02*
X115087D01*
X142715Y128270D02*
Y135697D01*
X139241Y139171D02*
X142715Y135697D01*
X248790Y125730D02*
Y133096D01*
Y119380D02*
Y125730D01*
Y112014D02*
Y119380D01*
X249023Y135998D02*
X253233Y140208D01*
X249023Y133329D02*
Y135998D01*
X248790Y133096D02*
X249023Y133329D01*
X246918Y146523D02*
X253233Y140208D01*
X246918Y146523D02*
Y146908D01*
X311912Y87122D02*
X313224Y88434D01*
X315360Y90494D02*
Y93218D01*
X313300Y88434D02*
X315360Y90494D01*
X315111Y93467D02*
X315360Y93218D01*
X313224Y88434D02*
X313300D01*
X311912Y81573D02*
Y87122D01*
X303439Y73099D02*
X311912Y81573D01*
X114237Y155435D02*
X119571Y150101D01*
X79844Y145623D02*
X93085Y158865D01*
X78882Y152387D02*
X79360Y152866D01*
X75123Y149606D02*
X77904Y152387D01*
X78882D01*
X70540Y102362D02*
X83323D01*
X87367Y108507D02*
X88903Y110043D01*
X89154D01*
X83323Y102362D02*
X87367Y106406D01*
Y108507D01*
X149606Y134242D02*
X157729D01*
X161922Y130048D01*
X149606Y128903D02*
X155034D01*
X156694Y127242D01*
X157371D01*
X143031Y128586D02*
X149290D01*
X142715Y128270D02*
X143031Y128586D01*
X149290D02*
X149606Y128903D01*
X143082Y112635D02*
X143449Y112268D01*
X142715Y128270D02*
X143082Y127903D01*
X144289Y80022D02*
X153670Y89403D01*
Y89742D01*
X40386Y75563D02*
X44019Y71930D01*
Y68944D02*
Y71930D01*
Y68944D02*
X44497Y68466D01*
X27686Y75563D02*
X27715Y75534D01*
Y68495D02*
Y75534D01*
Y68495D02*
X27743Y68466D01*
X295216Y42809D02*
X303563Y51156D01*
X275046Y42809D02*
X295216D01*
X303563Y51156D02*
Y64287D01*
X75123Y149352D02*
Y149606D01*
X335740Y130925D02*
Y135593D01*
X333124Y138209D02*
Y138463D01*
X332044Y127754D02*
X332818Y128528D01*
X333343D01*
X335740Y130925D01*
X333124Y138209D02*
X335740Y135593D01*
X161046Y41798D02*
X161180Y41664D01*
X149682Y39112D02*
Y41880D01*
X160912Y46482D02*
X161046Y46348D01*
Y41798D02*
Y46348D01*
X148082Y36576D02*
Y37531D01*
X148560Y36038D02*
X148590Y36068D01*
X148905Y29718D02*
Y35077D01*
X148560Y35421D02*
Y36038D01*
Y35421D02*
X148905Y35077D01*
X148651Y29464D02*
X148905Y29718D01*
X149682Y41880D02*
X151389Y43587D01*
X152677D02*
X155573Y46482D01*
X151389Y43587D02*
X152677D01*
X178946Y56041D02*
X180042Y54944D01*
X184010Y58710D02*
X185316Y57404D01*
X181615Y58710D02*
X184010D01*
X180042Y54944D02*
X180205D01*
X75438Y204978D02*
X75916Y205456D01*
Y208121D02*
X76454Y208659D01*
X75916Y205456D02*
Y208121D01*
X72795Y139425D02*
Y141923D01*
X62966Y129156D02*
Y139881D01*
X72795Y139425D02*
X73028Y139192D01*
X62966Y139881D02*
X66042Y142957D01*
X71760D02*
X72795Y141923D01*
X62484Y128674D02*
X62966Y129156D01*
X58882Y136216D02*
X58950D01*
X66042Y142957D02*
X71760D01*
X69648Y124096D02*
Y131442D01*
X66982Y135363D02*
X67335Y135716D01*
Y138839D02*
X67688Y139192D01*
X69648Y131442D02*
X74108Y135902D01*
X67335Y135716D02*
Y138839D01*
X31496Y128928D02*
X32077D01*
X34883Y126122D01*
Y123764D02*
X37235Y121411D01*
X40562D01*
X43295Y124144D01*
Y126376D01*
X46101Y129182D01*
X46736D01*
X34883Y123764D02*
Y126122D01*
X29349Y143632D02*
X38899Y134082D01*
Y125427D02*
Y134082D01*
X22098Y136144D02*
X26508Y131734D01*
X28690D02*
X31496Y128928D01*
X22098Y136144D02*
Y136398D01*
X26508Y131734D02*
X28690D01*
X233577Y87101D02*
Y94467D01*
Y87101D02*
X233810Y86868D01*
X234531Y87590D01*
X226266Y71009D02*
X232387D01*
X225076Y69819D02*
X226266Y71009D01*
X225076Y67322D02*
Y69819D01*
X224843Y67089D02*
X225076Y67322D01*
X259169Y57599D02*
Y61997D01*
X257271Y55701D02*
X259169Y57599D01*
X281273Y61722D02*
X299005D01*
X268069Y61632D02*
X281184D01*
X299005Y61722D02*
X299257Y61470D01*
X281184Y61632D02*
X281273Y61722D01*
X267041Y60604D02*
X268069Y61632D01*
X263189Y60604D02*
X267041D01*
X215265Y89405D02*
X215392Y89532D01*
X203708Y89278D02*
X203835Y89405D01*
X173476Y41649D02*
X179016D01*
X175133Y36639D02*
X175260Y36512D01*
X165354Y36766D02*
X165481Y36639D01*
X96162Y36322D02*
Y36419D01*
X98968Y39225D01*
X101968D01*
X103747Y41004D01*
X150127Y61226D02*
X152513Y63612D01*
Y66028D02*
X153287Y66802D01*
X146408Y57404D02*
Y58039D01*
X149595Y61226D01*
X150127D01*
X152513Y63612D02*
Y66028D01*
X175686Y-6350D02*
X182686D01*
X168686D02*
X175686D01*
X161686D02*
X168686D01*
X175981Y13421D02*
X176276Y13716D01*
X175686Y-6350D02*
X175981Y-6055D01*
X172006Y17986D02*
Y21953D01*
X175981Y-6055D02*
Y13421D01*
X172006Y17986D02*
X176276Y13716D01*
X202117Y220645D02*
X230163D01*
X206680Y216169D02*
X207203Y215646D01*
X232156Y215502D02*
X232300Y215646D01*
X207203D02*
X232300D01*
X42200Y90690D02*
X42879Y90011D01*
X42200Y90690D02*
Y91973D01*
X33310Y101274D02*
X33884Y101848D01*
Y104192D02*
X36045Y106353D01*
X42879Y87640D02*
Y90011D01*
X41160Y81676D02*
X43743D01*
X47469Y85402D01*
Y88979D01*
X39370Y94803D02*
X42200Y91973D01*
X42879Y87640D02*
X43453Y87066D01*
X40386Y80901D02*
X41160Y81676D01*
X33884Y101848D02*
Y104192D01*
X95628Y223288D02*
Y227330D01*
X89888Y218082D02*
X93508D01*
X94551Y219125D01*
Y222211D01*
X95628Y223288D01*
X76454Y213997D02*
X81390D01*
X85475Y218082D01*
X89888D01*
X110837D02*
X122557Y206362D01*
Y193548D02*
Y206362D01*
X156392Y200370D02*
Y202102D01*
X146333Y198164D02*
X154186D01*
X156392Y202102D02*
X156892Y202602D01*
X143850Y200646D02*
X146333Y198164D01*
X154186D02*
X156392Y200370D01*
X156892Y202602D02*
X157392Y202102D01*
X161039Y199580D02*
X179832D01*
X158517Y202102D02*
X161039Y199580D01*
X157392Y202102D02*
X158517D01*
X156892Y202602D02*
Y203727D01*
X179959Y199707D02*
X189865D01*
X179832Y199580D02*
X179959Y199707D01*
X189865D02*
X189992Y199834D01*
X252348Y49708D02*
X273473D01*
X249694Y52362D02*
X252348Y49708D01*
X242570Y54925D02*
X247360D01*
X272897Y44958D02*
X275046Y42809D01*
X249694Y52362D02*
Y52591D01*
X253372Y44958D02*
X272897D01*
X254522Y55701D02*
X257271D01*
X254000Y55179D02*
X254522Y55701D01*
X247360Y54925D02*
X249694Y52591D01*
X273473Y49708D02*
X276606Y46575D01*
X226679Y48759D02*
X249571D01*
X253372Y44958D01*
X223734Y47841D02*
X225762D01*
X221359Y50216D02*
X223734Y47841D01*
X220980Y50216D02*
X221359D01*
X225762Y47841D02*
X226679Y48759D01*
X182490Y45122D02*
Y45421D01*
X186228Y49160D01*
X179016Y41649D02*
X182490Y45122D01*
X162154Y32563D02*
X191189D01*
X192786Y34160D01*
X186899Y49160D02*
X190638Y52898D01*
X186228Y49160D02*
X186899D01*
X190638Y52898D02*
Y61910D01*
X189484Y63064D02*
X190638Y61910D01*
X189484Y63064D02*
Y66164D01*
X118303Y66802D02*
Y87627D01*
X116014Y89916D02*
X118303Y87627D01*
X24996Y196862D02*
X25648Y197514D01*
X26086Y190332D02*
X28438Y192684D01*
X24422Y194348D02*
X24996Y194922D01*
X28438Y195436D02*
X35388Y202386D01*
X25764Y187816D02*
X27128D01*
X7620Y174618D02*
X23333Y190332D01*
X28438Y192684D02*
Y195436D01*
X18975Y181027D02*
X25764Y187816D01*
X29367Y190056D02*
X41148D01*
X24996Y194922D02*
Y196862D01*
X27128Y187816D02*
X29367Y190056D01*
X23333Y190332D02*
X26086D01*
X69596Y111209D02*
Y118390D01*
X169811Y242659D02*
Y251132D01*
X170561Y251882D01*
X174541Y260398D02*
X176228Y258711D01*
X166854Y260398D02*
X174541D01*
X106437Y256197D02*
X115669Y265430D01*
X155258Y252360D02*
X165812Y262914D01*
X115669Y265430D02*
X210403D01*
X214515Y261318D01*
X156300Y249844D02*
X166854Y260398D01*
X165812Y262914D02*
X175584D01*
X51816Y245618D02*
X62395Y256197D01*
X214515Y261318D02*
X244741D01*
X250420Y255639D01*
X256751D02*
X257071Y255319D01*
X263440D01*
X298704Y220056D01*
X250420Y255639D02*
X256751D01*
X62395Y256197D02*
X106437D01*
X298704Y207772D02*
Y220056D01*
X29349Y216540D02*
X65168Y252360D01*
X155258D01*
X29349Y200037D02*
Y216540D01*
X7620Y160782D02*
Y174618D01*
X35388Y202386D02*
X51377D01*
X26826Y197514D02*
X29349Y200037D01*
X25648Y197514D02*
X26826D01*
X28097Y179690D02*
Y180751D01*
X18975Y180294D02*
Y181027D01*
X25146Y176739D02*
X28097Y179690D01*
X25146Y176278D02*
Y176739D01*
X91904Y242618D02*
X121892D01*
X72807Y241046D02*
X78486D01*
X71641Y222354D02*
X91904Y242618D01*
X78486Y241046D02*
X78740Y240792D01*
X61568Y229807D02*
X72807Y241046D01*
X66294Y217304D02*
Y228854D01*
X51377Y202387D02*
X66294Y217304D01*
X61568Y226731D02*
Y229807D01*
X121892Y242618D02*
X129118Y249844D01*
X45085Y210249D02*
X61568Y226731D01*
X294180Y203248D02*
X298704Y207772D01*
X294180Y148450D02*
Y203248D01*
Y148450D02*
X300947Y141684D01*
X305956D01*
X303439Y64411D02*
Y73099D01*
Y64411D02*
X303563Y64287D01*
X67957Y99779D02*
X70540Y102362D01*
X265226Y101162D02*
X271964D01*
X264110Y102278D02*
X265226Y101162D01*
X271964D02*
X275022Y98104D01*
X260270Y102278D02*
X264110D01*
X149158Y104972D02*
Y119254D01*
X148963Y119449D02*
X149158Y119254D01*
X222273Y119989D02*
X225168Y117094D01*
X220092Y125177D02*
X222273Y122996D01*
Y119989D02*
Y122996D01*
X83162Y23622D02*
Y36322D01*
X163290Y98631D02*
Y99443D01*
X161686Y97027D02*
X163290Y98631D01*
X166135Y125685D02*
X166454Y125366D01*
X260486Y180720D02*
X281146Y160060D01*
X252793Y193668D02*
X260486Y185975D01*
Y180720D02*
Y185975D01*
X200228Y212374D02*
X218934Y193668D01*
X200228Y212374D02*
Y215124D01*
X218934Y193668D02*
X252793D01*
X199705Y215646D02*
X200228Y215124D01*
X254000Y183134D02*
X264414Y172720D01*
Y164468D02*
Y172720D01*
X286512Y181610D02*
X289766Y184864D01*
Y202691D01*
X287274Y205182D02*
X289766Y202691D01*
X160012Y125685D02*
X166135D01*
X246918Y146908D02*
X247004Y146994D01*
X252364D02*
X255148Y144210D01*
X247004Y146994D02*
X252364D01*
X134173Y70358D02*
Y70612D01*
X134300Y70739D02*
Y78105D01*
X134173Y70612D02*
X134300Y70739D01*
Y78105D02*
X134427Y78232D01*
X143461Y80022D02*
X144289D01*
X141925Y78486D02*
X143461Y80022D01*
X141925Y78232D02*
Y78486D01*
X143717Y91264D02*
X143764Y91311D01*
X143670Y84742D02*
X143717Y84789D01*
Y91264D01*
X140383Y91311D02*
X143764D01*
X146892Y203727D02*
X151892D01*
X175514Y233784D02*
X175768Y233530D01*
X173038Y236260D02*
X175514Y233784D01*
X173360Y231122D02*
X175768Y233530D01*
X173360Y224118D02*
Y231122D01*
X156892Y218033D02*
X157856Y217069D01*
X154940Y210566D02*
Y210744D01*
X156892Y218033D02*
Y221977D01*
X157856Y213660D02*
Y217069D01*
X154940Y210744D02*
X157856Y213660D01*
X151892Y217708D02*
Y221977D01*
Y217708D02*
X154090Y215509D01*
X184125Y184936D02*
Y195787D01*
X158745Y121920D02*
X158978Y122153D01*
Y124650D02*
X160012Y125685D01*
X158978Y122153D02*
Y124650D01*
X177546Y118049D02*
X178766Y119269D01*
X197421D02*
X197655Y119502D01*
X193066Y111835D02*
X195152Y113921D01*
X189230Y111313D02*
X189753Y111835D01*
X193066D01*
X202680Y107809D02*
X203454Y108582D01*
X201535Y107809D02*
X202680D01*
X198628Y104902D02*
X201535Y107809D01*
X71641Y202457D02*
Y222354D01*
X51377Y182194D02*
X71641Y202457D01*
X32602Y101274D02*
X33310D01*
X59883Y85852D02*
Y86106D01*
X62611Y88834D01*
X64347D01*
X64921Y89408D01*
X59883Y76708D02*
Y85852D01*
X70068Y76926D02*
X102580D01*
X58801Y94676D02*
X58928Y94803D01*
X49022Y94549D02*
X49149Y94676D01*
X10548Y133327D02*
X12446Y131429D01*
X10548Y133327D02*
Y148447D01*
X12446Y124653D02*
Y131429D01*
X10548Y148447D02*
X15367Y153266D01*
X22098Y136398D02*
Y146721D01*
X25146Y149769D01*
Y162560D01*
X18097Y164171D02*
X23535D01*
X16002Y166266D02*
X18097Y164171D01*
X23535D02*
X25146Y162560D01*
X29349Y143632D02*
Y156215D01*
X32779Y159646D01*
Y164783D01*
X232156Y108287D02*
Y111614D01*
X230886Y103632D02*
Y107016D01*
X232156Y108287D01*
X230508Y113262D02*
X232156Y111614D01*
X230508Y113262D02*
Y117094D01*
X233829Y103632D02*
X234708Y102753D01*
Y101694D02*
Y102753D01*
X230886Y103632D02*
X233829D01*
X234708Y101694D02*
X235742Y100660D01*
X238491D01*
X239014Y100137D01*
X237478Y98601D02*
X239014Y100137D01*
X233302Y94742D02*
X237160Y98601D01*
X237478D01*
X233302Y94742D02*
X233577Y94467D01*
X173038Y236260D02*
Y239432D01*
X169811Y242659D02*
X173038Y239432D01*
X107188Y167199D02*
Y184171D01*
X229569Y131990D02*
Y137629D01*
X235548Y143609D01*
X229569Y131990D02*
X229593Y131966D01*
X225780Y103865D02*
Y106778D01*
X228140Y109138D02*
Y109950D01*
X225780Y106778D02*
X228140Y109138D01*
X224218Y85344D02*
X225030D01*
X225780Y86094D01*
X227696D01*
X156657Y38862D02*
X158877Y41082D01*
X156657Y38608D02*
Y38862D01*
X192869Y46478D02*
X192952Y46561D01*
X192869Y39582D02*
Y46478D01*
X192786Y39499D02*
X192869Y39582D01*
X210140Y46259D02*
X210153Y46246D01*
X208057Y46259D02*
X210140D01*
X87986Y-749D02*
X88392Y-343D01*
Y4137D01*
X139791Y27055D02*
Y27233D01*
Y27055D02*
X141495Y25351D01*
X142083D01*
X135776Y26725D02*
X147686Y14814D01*
X132908Y26725D02*
X135776D01*
X147686Y-6350D02*
Y14814D01*
X173670Y89742D02*
X173830Y89902D01*
X160912Y106934D02*
X163327Y104518D01*
X172006Y21953D02*
X173510Y23457D01*
X169003Y110204D02*
X170310Y111511D01*
X168656Y109858D02*
X169003Y110204D01*
X170310Y111511D02*
Y115062D01*
X169003Y110204D02*
X177199D01*
X163327Y104518D02*
X168656D01*
X160912Y94488D02*
X161686Y95262D01*
Y97027D01*
X173830Y96992D02*
X173990Y97153D01*
X173830Y89902D02*
Y96992D01*
X208670Y69201D02*
X210566Y67305D01*
Y59883D02*
Y67305D01*
X208670Y69201D02*
Y69742D01*
X221577Y17016D02*
X225596D01*
X217686Y-6350D02*
Y13125D01*
X221577Y17016D01*
X226638Y14500D02*
X231950Y19812D01*
X225786Y14500D02*
X226638D01*
X225596Y17016D02*
X227978Y19398D01*
X224686Y13400D02*
X225786Y14500D01*
X227978Y19398D02*
Y24395D01*
X231950Y19812D02*
X238127D01*
X227978Y24395D02*
X230378Y26795D01*
X224686Y-6350D02*
Y13400D01*
X231686Y-6350D02*
Y14008D01*
X234299Y16621D02*
X244846D01*
X231686Y14008D02*
X234299Y16621D01*
X238127Y19812D02*
X245364Y27048D01*
X33759Y88111D02*
X34036Y87834D01*
X33185Y91108D02*
X33759Y90534D01*
Y88111D02*
Y90534D01*
X27686Y80901D02*
Y90678D01*
X3302Y74921D02*
Y83262D01*
X2552Y70101D02*
Y74170D01*
X2122Y69671D02*
X2552Y70101D01*
X5663Y65442D02*
X9585Y69363D01*
X14629D01*
X2552Y74170D02*
X3302Y74921D01*
X14629Y69363D02*
X21082Y75816D01*
X202186Y122695D02*
X206172Y118710D01*
X198601Y133350D02*
X204702Y127249D01*
X188670Y124742D02*
X188698D01*
X204702Y123738D02*
X207214Y121226D01*
X206172Y118710D02*
X211137D01*
X188698Y124742D02*
X192214Y128258D01*
X211629Y119202D02*
X214126D01*
X204702Y123738D02*
Y127249D01*
X202186Y122695D02*
Y126198D01*
X210587Y121718D02*
X210646D01*
X210095Y121226D02*
X210587Y121718D01*
X210646D02*
X213670Y124742D01*
X214126Y119202D02*
X214359Y119435D01*
X200126Y128258D02*
X202186Y126198D01*
X207214Y121226D02*
X210095D01*
X211137Y118710D02*
X211629Y119202D01*
X192214Y128258D02*
X200126D01*
X41148Y149923D02*
X45174D01*
X58882Y136216D01*
X38113Y170117D02*
X41148D01*
X32779Y164783D02*
X38113Y170117D01*
X207847Y140746D02*
X208087Y140507D01*
X207847Y140746D02*
Y143496D01*
X208087Y135890D02*
Y140507D01*
X207325Y144018D02*
X207847Y143496D01*
X149158Y104972D02*
X149352Y104777D01*
X220980Y50216D02*
Y52385D01*
X28097Y180751D02*
X29539Y182194D01*
X51377Y202387D02*
X51377D01*
X51377Y202386D02*
X51377Y202387D01*
X41148Y210249D02*
X45085D01*
X227696Y86094D02*
X228470Y86868D01*
X217669Y67943D02*
X222342Y72616D01*
Y73088D02*
X224184Y74930D01*
X228470D01*
X222342Y72616D02*
Y73088D01*
X217669Y67242D02*
Y67943D01*
X225547Y103632D02*
X225780Y103865D01*
X326898Y39116D02*
X327341Y38673D01*
Y29145D02*
X327784Y28702D01*
X327341Y29145D02*
Y38673D01*
X208670Y129742D02*
X213642D01*
X218207Y125177D02*
X220092D01*
X213642Y129742D02*
X218207Y125177D01*
X265691Y144210D02*
X269102Y147621D01*
X255148Y144210D02*
X265691D01*
X107127Y184232D02*
X107188Y184171D01*
X102870Y162881D02*
X107188Y167199D01*
X107127Y184232D02*
Y193548D01*
X59944Y166563D02*
X65217D01*
X91440Y192786D01*
X180332Y199580D02*
X184125Y195787D01*
X179832Y199580D02*
X180332D01*
X143850Y200646D02*
Y202894D01*
X141392Y205352D02*
X143850Y202894D01*
X140267Y205352D02*
X141392D01*
X139142D02*
X140267D01*
X126540Y217954D02*
Y239768D01*
X130556Y243784D01*
Y244034D01*
X126540Y217954D02*
X139142Y205352D01*
X130556Y244034D02*
X130810Y244288D01*
X140462D01*
X163322Y234038D02*
X163576Y233784D01*
X175514D01*
X199705Y215646D02*
Y215900D01*
X200228Y222535D02*
Y225283D01*
Y222535D02*
X202117Y220645D01*
X199705Y225806D02*
X200228Y225283D01*
X129118Y249844D02*
X156300D01*
X29539Y182194D02*
X51377D01*
X205646Y231152D02*
X206681Y232187D01*
Y234935D01*
X207203Y235458D01*
X201262Y239764D02*
X210832D01*
X200228Y238729D02*
X201262Y239764D01*
X199705Y235458D02*
X200228Y235981D01*
Y238729D01*
X210832Y239764D02*
X214884Y235712D01*
X209550Y94872D02*
X215392D01*
X200475D02*
X209550D01*
X197297Y91440D02*
Y91694D01*
X200475Y94872D01*
X88392Y4137D02*
X99404Y15149D01*
X94488Y-1747D02*
Y6674D01*
X115062Y-30734D02*
X119686Y-26110D01*
Y-6350D01*
X128464Y22677D02*
X132897Y18244D01*
X128464Y22677D02*
Y25812D01*
X132897Y18244D02*
X137922D01*
X129064Y30569D02*
Y30892D01*
Y30569D02*
X132908Y26725D01*
X210820Y39753D02*
X215254Y44188D01*
X204470Y42672D02*
X208057Y46259D01*
X198374Y39499D02*
Y45199D01*
X202313Y49139D01*
X217170Y39753D02*
X220618Y43201D01*
X204470Y39753D02*
Y42672D01*
X138759Y34757D02*
X141112Y32404D01*
Y29881D02*
X145834Y25158D01*
X141112Y29881D02*
Y32404D01*
X137096Y29929D02*
X139791Y27233D01*
X133654Y37338D02*
X136236Y34757D01*
X138759D01*
X137096Y29929D02*
Y30741D01*
X233196Y162536D02*
X252585D01*
X253031Y162091D01*
X99404Y15149D02*
X101075D01*
X100033Y17665D02*
X104822Y22454D01*
X98363Y17665D02*
X100033D01*
X102117Y12633D02*
X106248Y16764D01*
X100447Y12633D02*
X102117D01*
X106248Y16764D02*
X123190D01*
X101075Y15149D02*
X105864Y19938D01*
X142083Y25351D02*
X144792Y22642D01*
X120650Y37338D02*
X133654D01*
X156149Y29464D02*
X156403Y29718D01*
X145834Y25158D02*
X158966D01*
X156403Y29718D02*
Y38354D01*
X144792Y22642D02*
X145506D01*
X160560Y30969D02*
X162154Y32563D01*
X158966Y25158D02*
X160560Y26752D01*
X145506Y22642D02*
X154686Y13462D01*
X156403Y38354D02*
X156657Y38608D01*
X160560Y26752D02*
Y30969D01*
X119571Y150101D02*
Y151044D01*
Y147066D02*
Y150101D01*
Y151044D02*
X133985Y165458D01*
X134620D01*
X79844Y140597D02*
Y145623D01*
X75149Y135902D02*
X79844Y140597D01*
X74108Y135902D02*
X75149D01*
X93085Y158865D02*
X105670D01*
X109100Y155435D01*
X114237D01*
X154686Y-6350D02*
Y13462D01*
X126686Y-6350D02*
Y13268D01*
X123190Y16764D02*
X126686Y13268D01*
X116877Y19938D02*
X117534Y19280D01*
X127278D01*
X133686Y12872D01*
X105864Y19938D02*
X116877D01*
X133686Y-6350D02*
Y12872D01*
X140686Y-6350D02*
Y15481D01*
X137922Y18244D02*
X140686Y15481D01*
X173510Y23457D02*
Y27262D01*
X174760Y28512D01*
X175260D01*
X94488Y6674D02*
X100447Y12633D01*
X104822Y22454D02*
X105766D01*
X45720Y11176D02*
X91873D01*
X98363Y17665D01*
X193593Y62124D02*
Y74665D01*
Y62124D02*
X196342Y59375D01*
X193593Y74665D02*
X193670Y74742D01*
X196342Y59375D02*
X196596D01*
X219361Y160020D02*
X241878D01*
X215984Y163397D02*
X219361Y160020D01*
X207407Y163397D02*
X215984D01*
X202747Y168057D02*
X207407Y163397D01*
X176276Y167894D02*
X187706Y179324D01*
X216408D01*
X233196Y162536D01*
X241878Y160020D02*
X243388Y158510D01*
X235548Y143609D02*
X237409D01*
X243388Y149587D02*
Y158510D01*
X237409Y143609D02*
X243388Y149587D01*
X105766Y22454D02*
X120650Y37338D01*
X41148Y6604D02*
X45720Y11176D01*
X287274Y205182D02*
Y205994D01*
X276838Y214409D02*
X278075Y215646D01*
X287020D01*
X269278Y214409D02*
X276838D01*
X269295Y199407D02*
X285734D01*
X269278Y199423D02*
X269295Y199407D01*
X285734D02*
X285750Y199390D01*
X284430Y191262D02*
X285242D01*
X269116Y192819D02*
X282873D01*
X284430Y191262D01*
X116014Y89916D02*
Y113116D01*
X111656Y117475D02*
X116014Y113116D01*
X111656Y117475D02*
Y118110D01*
X75121Y64757D02*
X80455Y59423D01*
X70771Y64757D02*
X75121D01*
X65840Y69687D02*
X70771Y64757D01*
X80455Y56388D02*
Y59423D01*
X59865Y69687D02*
X65840D01*
X72202Y120996D02*
X78858D01*
X94133Y136271D01*
Y141821D01*
X99377Y147066D01*
X69596Y118390D02*
X72202Y120996D01*
X67957Y86779D02*
X68937Y87759D01*
Y91057D01*
X67957Y92037D02*
Y99779D01*
Y92037D02*
X68937Y91057D01*
X67957Y79037D02*
X70068Y76926D01*
X67957Y79037D02*
Y86779D01*
X78962Y89408D02*
X95314D01*
X95822Y89916D01*
X107127Y193548D02*
X117219D01*
X15123Y131666D02*
Y135875D01*
Y131666D02*
X30861Y115928D01*
X34036Y80901D02*
Y87834D01*
X265938Y223012D02*
X269278Y219672D01*
Y214409D02*
Y219672D01*
X242953Y182626D02*
X246537D01*
X252346Y188435D01*
X261487Y156201D02*
X264414Y159129D01*
X260598Y156201D02*
X261487D01*
X258445Y154049D02*
X260598Y156201D01*
X251773Y154049D02*
X258445D01*
X14600Y136398D02*
X15123Y135875D01*
X30861Y115928D02*
X31496D01*
X7851Y160782D02*
X15367Y153266D01*
X7620Y160782D02*
X7851D01*
X6835Y86795D02*
X15443D01*
X21082Y81156D01*
X3302Y83262D02*
X6835Y86795D01*
X39116Y94803D02*
X39370D01*
X54447Y153416D02*
X58511Y149352D01*
X67625D01*
X59825Y154643D02*
X59885Y154702D01*
Y159005D01*
X59944Y159065D01*
X178756Y220352D02*
X178876Y220472D01*
X163517Y220352D02*
X178756D01*
X175133Y28639D02*
X175260Y28512D01*
X165481Y28639D02*
X175133D01*
X165354Y28766D02*
X165481Y28639D01*
X244846Y16621D02*
X251067Y22841D01*
Y36845D01*
X245364Y42547D02*
X251067Y36845D01*
X245364Y42547D02*
Y42801D01*
X230632Y42547D02*
X245110D01*
X230378Y42294D02*
X230632Y42547D01*
X245364Y27048D02*
Y27302D01*
X106425Y218082D02*
X110837D01*
X100968Y219211D02*
Y227330D01*
Y219211D02*
X102097Y218082D01*
X106425D01*
X93550Y199881D02*
X99629Y193802D01*
X89888Y205082D02*
X92507D01*
X93550Y204039D01*
Y199881D02*
Y204039D01*
X99629Y193548D02*
Y193802D01*
X85475Y205082D02*
X89888D01*
X81898Y208659D02*
X85475Y205082D01*
X76454Y208659D02*
X81898D01*
X134318Y232522D02*
X141112D01*
X130556Y236284D02*
X134318Y232522D01*
X141112D02*
X146892Y226742D01*
Y221977D02*
Y226742D01*
X151892Y221977D02*
Y228346D01*
X140462Y236788D02*
X141096Y236154D01*
X144083D02*
X151892Y228346D01*
X141096Y236154D02*
X144083D01*
X151130Y237046D02*
X156892Y231284D01*
X151130Y237046D02*
Y237296D01*
X156892Y221977D02*
Y231284D01*
X130556Y236284D02*
Y236534D01*
X237614Y169618D02*
X237685Y169548D01*
X237614Y169618D02*
Y182626D01*
D21*
X26924Y103378D02*
D03*
X326898Y39116D02*
D03*
D22*
X228470Y86868D02*
D03*
X233810D02*
D03*
X193040Y98931D02*
D03*
Y104270D02*
D03*
X203454Y108582D02*
D03*
Y113921D02*
D03*
X203708Y89278D02*
D03*
Y94618D02*
D03*
X209550Y89532D02*
D03*
Y94872D02*
D03*
X173990Y102492D02*
D03*
Y97153D02*
D03*
X168656Y109858D02*
D03*
Y104518D02*
D03*
X197655Y119502D02*
D03*
Y114163D02*
D03*
X149606Y134242D02*
D03*
Y128903D02*
D03*
X163068Y145417D02*
D03*
Y140078D02*
D03*
X171450D02*
D03*
Y145417D02*
D03*
X178562D02*
D03*
Y140078D02*
D03*
X188722Y145163D02*
D03*
Y139824D02*
D03*
X196596Y145163D02*
D03*
Y139824D02*
D03*
X215392Y94872D02*
D03*
Y89532D02*
D03*
X224843Y67089D02*
D03*
X230182D02*
D03*
X233810Y74930D02*
D03*
X228470D02*
D03*
X233302Y94742D02*
D03*
X227962D02*
D03*
X230886Y103632D02*
D03*
X225547D02*
D03*
X193262Y132842D02*
D03*
X198601D02*
D03*
X230508Y117094D02*
D03*
X225168D02*
D03*
X143764Y96650D02*
D03*
Y91311D02*
D03*
X226060Y224660D02*
D03*
Y230000D02*
D03*
X233934Y224407D02*
D03*
Y229746D02*
D03*
X241808Y224407D02*
D03*
Y229746D02*
D03*
X263189Y55265D02*
D03*
Y60604D02*
D03*
X269793Y55519D02*
D03*
Y60858D02*
D03*
X275889Y55519D02*
D03*
Y60858D02*
D03*
X268224Y89446D02*
D03*
Y84107D02*
D03*
X274320Y89446D02*
D03*
Y84107D02*
D03*
X280924Y89446D02*
D03*
Y84107D02*
D03*
X287020Y89446D02*
D03*
Y84107D02*
D03*
X293624Y89446D02*
D03*
Y84107D02*
D03*
X100968Y227330D02*
D03*
X95628D02*
D03*
X149352Y99438D02*
D03*
Y104777D02*
D03*
X237614Y182626D02*
D03*
X242953D02*
D03*
D23*
X111656Y118110D02*
D03*
X98656D02*
D03*
X159408Y57404D02*
D03*
X146408D02*
D03*
X239880Y249682D02*
D03*
X252880D02*
D03*
X21186Y35560D02*
D03*
X34186D02*
D03*
X19916Y21336D02*
D03*
X32916D02*
D03*
X96162Y23622D02*
D03*
X83162D02*
D03*
X96162Y36322D02*
D03*
X83162D02*
D03*
X185316Y57404D02*
D03*
X172316D02*
D03*
D25*
X52385Y85852D02*
D03*
X59883D02*
D03*
Y76708D02*
D03*
X52385D02*
D03*
X300675Y36322D02*
D03*
X293177D02*
D03*
X134427Y78232D02*
D03*
X141925D02*
D03*
X141671Y70612D02*
D03*
X134173D02*
D03*
X110805Y66802D02*
D03*
X118303D02*
D03*
X75123Y149352D02*
D03*
X67625D02*
D03*
X99629Y193548D02*
D03*
X107127D02*
D03*
X199705Y215646D02*
D03*
X207203D02*
D03*
Y225806D02*
D03*
X199705D02*
D03*
X207203Y235458D02*
D03*
X199705D02*
D03*
D26*
X299257Y53973D02*
D03*
Y61470D02*
D03*
X283509Y53932D02*
D03*
Y61430D02*
D03*
X291338Y53973D02*
D03*
Y61470D02*
D03*
X189230Y118811D02*
D03*
Y111313D02*
D03*
X239014Y100137D02*
D03*
Y107635D02*
D03*
X15748Y96581D02*
D03*
Y104079D02*
D03*
X12446Y117155D02*
D03*
Y124653D02*
D03*
X49022Y102047D02*
D03*
Y94549D02*
D03*
X58928Y102301D02*
D03*
Y94803D02*
D03*
X237236Y129733D02*
D03*
Y122235D02*
D03*
X177546Y118049D02*
D03*
Y110551D02*
D03*
X286512Y119441D02*
D03*
Y126939D02*
D03*
X268732Y119441D02*
D03*
Y126939D02*
D03*
X277622Y119441D02*
D03*
Y126939D02*
D03*
X296164Y119695D02*
D03*
Y127193D02*
D03*
D27*
X186182Y23238D02*
D03*
Y28577D02*
D03*
X175639Y130221D02*
D03*
X180977D02*
D03*
X155573Y113030D02*
D03*
X160912D02*
D03*
X173860Y124460D02*
D03*
X179200D02*
D03*
X333123Y28702D02*
D03*
X327784D02*
D03*
X158745Y121920D02*
D03*
X164084D02*
D03*
X161922Y130048D02*
D03*
X167262D02*
D03*
X155573Y106934D02*
D03*
X160912D02*
D03*
X155573Y100584D02*
D03*
X160912D02*
D03*
X155573Y94488D02*
D03*
X160912D02*
D03*
X133988Y104394D02*
D03*
X128649D02*
D03*
X142715Y128270D02*
D03*
X137376D02*
D03*
X142624Y121158D02*
D03*
X137284D02*
D03*
X154307Y140716D02*
D03*
X148968D02*
D03*
X40386Y80901D02*
D03*
Y75563D02*
D03*
X27686Y80901D02*
D03*
Y75563D02*
D03*
X34036Y80901D02*
D03*
Y75563D02*
D03*
X21082Y81156D02*
D03*
Y75816D02*
D03*
X214359Y114095D02*
D03*
Y119435D02*
D03*
X153287Y66802D02*
D03*
X158625D02*
D03*
X175989Y69057D02*
D03*
X170650D02*
D03*
X258572Y140208D02*
D03*
X253233D02*
D03*
X254130Y133096D02*
D03*
X248790D02*
D03*
X254130Y125730D02*
D03*
X248790D02*
D03*
X254130Y119380D02*
D03*
X248790D02*
D03*
X254130Y112014D02*
D03*
X248790D02*
D03*
X73028Y139192D02*
D03*
X67688D02*
D03*
X76454Y213997D02*
D03*
Y208659D02*
D03*
X117219Y193548D02*
D03*
X122557D02*
D03*
X263776Y186944D02*
D03*
X269116D02*
D03*
X263776Y192819D02*
D03*
X269116D02*
D03*
X263939Y199423D02*
D03*
X269278D02*
D03*
X178946Y47752D02*
D03*
X173606D02*
D03*
X155573Y46482D02*
D03*
X160912D02*
D03*
X326705Y127754D02*
D03*
X332044D02*
D03*
X326705Y118345D02*
D03*
X332044D02*
D03*
X326705Y108936D02*
D03*
X332044D02*
D03*
X326705Y99527D02*
D03*
X332044D02*
D03*
X326705Y90119D02*
D03*
X332044D02*
D03*
X326705Y80709D02*
D03*
X332044D02*
D03*
X326705Y71301D02*
D03*
X332044D02*
D03*
X326705Y61892D02*
D03*
X332044D02*
D03*
X197358Y71249D02*
D03*
Y65911D02*
D03*
X164970Y115062D02*
D03*
X170310D02*
D03*
X269278Y206789D02*
D03*
X263939D02*
D03*
X189484Y71504D02*
D03*
Y66164D02*
D03*
X198374Y39499D02*
D03*
Y34160D02*
D03*
X204470Y39753D02*
D03*
Y34415D02*
D03*
X264414Y159129D02*
D03*
Y164468D02*
D03*
X217170Y39753D02*
D03*
Y34415D02*
D03*
X202946Y69467D02*
D03*
Y74805D02*
D03*
X192786Y34160D02*
D03*
Y39499D02*
D03*
X210820Y39753D02*
D03*
Y34415D02*
D03*
X263939Y214409D02*
D03*
X269278D02*
D03*
D29*
X196596Y51877D02*
D03*
Y59375D02*
D03*
X5080Y92517D02*
D03*
Y100015D02*
D03*
X39116Y102301D02*
D03*
Y94803D02*
D03*
X89154Y117541D02*
D03*
Y110043D02*
D03*
X9906Y82743D02*
D03*
Y75245D02*
D03*
X210566Y59883D02*
D03*
Y52385D02*
D03*
X220980Y59883D02*
D03*
Y52385D02*
D03*
X254000Y81849D02*
D03*
Y89347D02*
D03*
X242570Y62423D02*
D03*
Y54925D02*
D03*
X254000Y62677D02*
D03*
Y55179D02*
D03*
X59944Y159065D02*
D03*
Y166563D02*
D03*
D33*
X14600Y136398D02*
D03*
X22098D02*
D03*
X156657Y38608D02*
D03*
X149159D02*
D03*
X156149Y29464D02*
D03*
X148651D02*
D03*
X333124Y138463D02*
D03*
X325625D02*
D03*
X215585Y135890D02*
D03*
X208087D02*
D03*
X214823Y144018D02*
D03*
X207325D02*
D03*
X143449Y112268D02*
D03*
X135951D02*
D03*
X197297Y91440D02*
D03*
X189799D02*
D03*
X325120Y52324D02*
D03*
X332618D02*
D03*
D42*
X237685Y169548D02*
D03*
Y154049D02*
D03*
X251773D02*
D03*
Y169548D02*
D03*
X230378Y42294D02*
D03*
Y26795D02*
D03*
X245364Y27302D02*
D03*
Y42801D02*
D03*
D68*
X259386Y-49200D02*
D03*
X85386D02*
D03*
D69*
X276098Y70934D02*
D03*
X183670Y64742D02*
D03*
Y74742D02*
D03*
X123416Y104742D02*
D03*
X251844Y75950D02*
D03*
X275844Y143950D02*
D03*
X183670Y114742D02*
D03*
X123670Y124742D02*
D03*
Y114742D02*
D03*
X247844Y139950D02*
D03*
X311844Y103950D02*
D03*
Y71950D02*
D03*
X315844Y83950D02*
D03*
X311844Y91950D02*
D03*
X203670Y64742D02*
D03*
X173670Y89742D02*
D03*
X208670Y99742D02*
D03*
X198628Y104902D02*
D03*
X208670Y109742D02*
D03*
Y104742D02*
D03*
X213670D02*
D03*
Y109742D02*
D03*
X153670Y74742D02*
D03*
X183670Y144742D02*
D03*
X143670Y64742D02*
D03*
Y84742D02*
D03*
X118670Y119742D02*
D03*
X113670Y129742D02*
D03*
X143670Y154742D02*
D03*
X183670Y104742D02*
D03*
X153670Y79742D02*
D03*
X154686Y84582D02*
D03*
X153670Y89742D02*
D03*
X208670Y114742D02*
D03*
Y129742D02*
D03*
X213670Y124742D02*
D03*
X208670D02*
D03*
X198670D02*
D03*
X193670D02*
D03*
X188670D02*
D03*
X183670Y139742D02*
D03*
X208670Y149742D02*
D03*
Y154742D02*
D03*
X203670D02*
D03*
X198670D02*
D03*
X173670D02*
D03*
X193670D02*
D03*
X188670D02*
D03*
X183670D02*
D03*
X178670D02*
D03*
X168670D02*
D03*
X163670D02*
D03*
X153670D02*
D03*
X208670Y69742D02*
D03*
X213670Y79742D02*
D03*
X208670D02*
D03*
X213670Y84742D02*
D03*
X208670D02*
D03*
X188670Y104742D02*
D03*
X198670Y84742D02*
D03*
X188670D02*
D03*
X193670D02*
D03*
Y74742D02*
D03*
X178670Y64742D02*
D03*
X183670Y79742D02*
D03*
X168670Y64742D02*
D03*
X163670D02*
D03*
X148670D02*
D03*
X40894Y111136D02*
D03*
X33761Y112247D02*
D03*
X36068Y109869D02*
D03*
X153630Y188976D02*
D03*
X78740Y108204D02*
D03*
X74168D02*
D03*
X218741Y121556D02*
D03*
X166423Y189685D02*
D03*
X169188Y191853D02*
D03*
X183395Y109474D02*
D03*
D70*
X196088Y24092D02*
D03*
X235204Y59690D02*
D03*
X234078Y34890D02*
D03*
X201370Y139297D02*
D03*
X235243Y66333D02*
D03*
X289161Y64687D02*
D03*
X275982Y65880D02*
D03*
X287005Y80915D02*
D03*
X259612Y77950D02*
D03*
X174546Y75108D02*
D03*
X169094Y82988D02*
D03*
X163855Y84790D02*
D03*
X108028Y77683D02*
D03*
X107405Y105660D02*
D03*
X100264Y109794D02*
D03*
X129619Y110039D02*
D03*
X168658Y125025D02*
D03*
X163703Y115226D02*
D03*
X124158Y69515D02*
D03*
X109638Y52913D02*
D03*
X130446Y52507D02*
D03*
X281195Y35993D02*
D03*
X243228Y91922D02*
D03*
X264674Y80141D02*
D03*
X248349Y93950D02*
D03*
X302768Y111252D02*
D03*
X176286Y135818D02*
D03*
X208811Y16533D02*
D03*
X218683Y84898D02*
D03*
X218933Y79270D02*
D03*
X220509Y99347D02*
D03*
X127762Y128524D02*
D03*
X90016Y138250D02*
D03*
X169820Y253866D02*
D03*
X123458Y31665D02*
D03*
X258785Y135418D02*
D03*
X233594Y135966D02*
D03*
X107131Y72233D02*
D03*
X307451Y94372D02*
D03*
X308638Y99759D02*
D03*
X148775Y147759D02*
D03*
X232000Y147483D02*
D03*
X308087Y88545D02*
D03*
X324642Y85414D02*
D03*
X83860Y143960D02*
D03*
X148613Y90026D02*
D03*
X273154Y39254D02*
D03*
X268190Y32550D02*
D03*
X210243Y258866D02*
D03*
X331724Y132588D02*
D03*
X161180Y41664D02*
D03*
X189738Y17018D02*
D03*
X184048Y17928D02*
D03*
X54171Y132443D02*
D03*
X55027Y114300D02*
D03*
X58950Y136216D02*
D03*
X66982Y135363D02*
D03*
X38899Y125427D02*
D03*
X163678Y188976D02*
D03*
X322113Y105418D02*
D03*
X308128Y123934D02*
D03*
X279828Y135496D02*
D03*
X167446Y46624D02*
D03*
X176022Y19812D02*
D03*
X230163Y220645D02*
D03*
X246380Y211818D02*
D03*
X281250Y147573D02*
D03*
X276907Y150973D02*
D03*
X232156Y215502D02*
D03*
X264544Y40591D02*
D03*
X279674Y113518D02*
D03*
X255480Y103168D02*
D03*
X250693Y99006D02*
D03*
X226434Y96520D02*
D03*
X250037Y104482D02*
D03*
X158220Y145982D02*
D03*
X170942Y169418D02*
D03*
X165659Y167833D02*
D03*
X134414Y99604D02*
D03*
X128900Y99453D02*
D03*
X142269Y174307D02*
D03*
X262674Y32564D02*
D03*
X274161Y113331D02*
D03*
X24422Y194348D02*
D03*
X69596Y111209D02*
D03*
X188214Y261414D02*
D03*
X25146Y176278D02*
D03*
X18975Y180294D02*
D03*
X78740Y240792D02*
D03*
X66294Y228854D02*
D03*
X115062Y246634D02*
D03*
X307455Y65278D02*
D03*
X313690D02*
D03*
X261112Y84582D02*
D03*
X267485Y97146D02*
D03*
X263846Y92995D02*
D03*
X148963Y119449D02*
D03*
X105410Y36988D02*
D03*
X181869Y89195D02*
D03*
X163290Y99443D02*
D03*
X168510Y95233D02*
D03*
X179497Y99858D02*
D03*
X183386Y124790D02*
D03*
X246918Y146908D02*
D03*
X228600Y154260D02*
D03*
X128256Y47153D02*
D03*
X158609Y73866D02*
D03*
X200729Y150168D02*
D03*
X183528Y258366D02*
D03*
X184125Y184936D02*
D03*
X319951Y116544D02*
D03*
X21130Y159731D02*
D03*
X33310Y101274D02*
D03*
X258175Y148226D02*
D03*
X161956Y20828D02*
D03*
X153924Y21142D02*
D03*
X214884Y16002D02*
D03*
X199300Y16371D02*
D03*
X103172Y178308D02*
D03*
X124009Y176331D02*
D03*
X243078Y257302D02*
D03*
X269634Y160589D02*
D03*
X326390Y146304D02*
D03*
X226816Y59642D02*
D03*
X228140Y109950D02*
D03*
X224218Y85344D02*
D03*
X194917Y79883D02*
D03*
X200431Y80045D02*
D03*
X189433Y79290D02*
D03*
X203423Y55032D02*
D03*
X192952Y46561D02*
D03*
X210153Y46246D02*
D03*
X100297Y43564D02*
D03*
X87986Y-749D02*
D03*
X92916Y63452D02*
D03*
X136288Y46990D02*
D03*
X227719Y123229D02*
D03*
X177231Y86209D02*
D03*
X185928Y99568D02*
D03*
X167990Y21336D02*
D03*
X223175Y21497D02*
D03*
X33185Y91108D02*
D03*
X27686Y90678D02*
D03*
X2122Y69671D02*
D03*
X9594Y73379D02*
D03*
X5663Y65442D02*
D03*
X212948Y51308D02*
D03*
X220980Y50216D02*
D03*
X4318Y121484D02*
D03*
X5624Y126843D02*
D03*
X217669Y67242D02*
D03*
X218237Y61755D02*
D03*
X91440Y192786D02*
D03*
X94488Y-1747D02*
D03*
X115062Y-30734D02*
D03*
X69648Y124096D02*
D03*
X51784Y122682D02*
D03*
X97282Y162881D02*
D03*
X266474Y105594D02*
D03*
X196202Y109292D02*
D03*
X324641Y113641D02*
D03*
X149637Y49662D02*
D03*
X226718Y149075D02*
D03*
X129064Y30892D02*
D03*
X186436Y43688D02*
D03*
X215828Y45991D02*
D03*
X300330Y5486D02*
D03*
X202313Y49139D02*
D03*
X221192Y44704D02*
D03*
X198084Y99734D02*
D03*
X220724Y93836D02*
D03*
X221006Y140706D02*
D03*
X222017Y146129D02*
D03*
X225293Y128183D02*
D03*
X219871Y129193D02*
D03*
X221234Y154161D02*
D03*
X123361Y23633D02*
D03*
X137096Y30741D02*
D03*
X253031Y162091D02*
D03*
X258347Y159859D02*
D03*
X247904Y10958D02*
D03*
X117588Y25386D02*
D03*
X134112Y22709D02*
D03*
X102870Y162881D02*
D03*
X212480Y169130D02*
D03*
X258589Y108331D02*
D03*
X218186Y169929D02*
D03*
X64921Y89408D02*
D03*
X78962D02*
D03*
X258045Y195315D02*
D03*
X286512Y181610D02*
D03*
X202747Y168057D02*
D03*
X229593Y131966D02*
D03*
X11167Y36313D02*
D03*
X7366Y58070D02*
D03*
X6604Y50038D02*
D03*
X59865Y69687D02*
D03*
X22098Y53848D02*
D03*
X11684Y28448D02*
D03*
X193167Y168057D02*
D03*
X182176D02*
D03*
X187672Y167581D02*
D03*
X230378Y187136D02*
D03*
X236108Y187452D02*
D03*
X230886Y208232D02*
D03*
X231619Y197684D02*
D03*
X236728Y200200D02*
D03*
X241794Y198017D02*
D03*
X252346Y188435D02*
D03*
X200152Y184936D02*
D03*
X176276Y167894D02*
D03*
X261933Y98262D02*
D03*
X319939Y78756D02*
D03*
X324641Y94823D02*
D03*
X319127Y94674D02*
D03*
X262139Y152063D02*
D03*
X277622Y105156D02*
D03*
X262796Y131329D02*
D03*
X258942Y127382D02*
D03*
X210695Y174350D02*
D03*
X298196Y150114D02*
D03*
X254000Y183134D02*
D03*
X7620Y160782D02*
D03*
X76156Y221190D02*
D03*
X115824Y258064D02*
D03*
X320294Y38862D02*
D03*
X105410Y28956D02*
D03*
X41148Y6604D02*
D03*
X18796Y11938D02*
D03*
X247530Y198537D02*
D03*
X214884Y235712D02*
D03*
X239845Y214699D02*
D03*
X266954Y246126D02*
D03*
X265938Y223012D02*
D03*
X287020Y215646D02*
D03*
X287274Y205994D02*
D03*
X285750Y199390D02*
D03*
X285242Y191262D02*
D03*
X106653Y94996D02*
D03*
X259099Y119351D02*
D03*
X262926Y123323D02*
D03*
X258879Y113839D02*
D03*
X306070Y135890D02*
D03*
X307680Y83020D02*
D03*
X307477Y118456D02*
D03*
X319786Y132588D02*
D03*
X43453Y87066D02*
D03*
X38052Y88184D02*
D03*
X27292Y104247D02*
D03*
X102580Y76926D02*
D03*
X59825Y154643D02*
D03*
X54447Y153416D02*
D03*
D71*
X33889Y212816D02*
D03*
X56388Y213360D02*
D03*
X246828Y35610D02*
D03*
X303530Y40894D02*
D03*
X277599Y93314D02*
D03*
X248052Y66300D02*
D03*
X40894Y103886D02*
D03*
X119380Y44002D02*
D03*
X119888Y55361D02*
D03*
X123670Y74742D02*
D03*
X126024Y90637D02*
D03*
X299689Y66757D02*
D03*
X287528Y37846D02*
D03*
X288290Y94742D02*
D03*
X301244Y88900D02*
D03*
X203309Y115672D02*
D03*
X178119Y109839D02*
D03*
X192278Y184648D02*
D03*
X209323Y225298D02*
D03*
X177546Y244782D02*
D03*
X209550Y21747D02*
D03*
X203060Y20058D02*
D03*
X136741Y138903D02*
D03*
X143670Y149742D02*
D03*
X90266Y146212D02*
D03*
X15462Y79966D02*
D03*
Y74950D02*
D03*
X303911Y162179D02*
D03*
X194462Y238284D02*
D03*
X79360Y152866D02*
D03*
X83601Y107966D02*
D03*
X157371Y127242D02*
D03*
X127254Y258572D02*
D03*
X104934Y86868D02*
D03*
X86709Y81788D02*
D03*
X99060Y114903D02*
D03*
X75438Y97790D02*
D03*
X44497Y68466D02*
D03*
X27743D02*
D03*
X260350Y20828D02*
D03*
X327079Y123214D02*
D03*
X148372Y37802D02*
D03*
X180205Y54944D02*
D03*
X165974Y39116D02*
D03*
X187702Y-9254D02*
D03*
X59182Y126448D02*
D03*
X76896Y130630D02*
D03*
X77594Y83328D02*
D03*
X57404Y91948D02*
D03*
X29972Y109356D02*
D03*
X12078Y115614D02*
D03*
X8128Y154686D02*
D03*
X155956Y167074D02*
D03*
X331669Y104396D02*
D03*
X301715Y125072D02*
D03*
X173476Y41649D02*
D03*
X176276Y13716D02*
D03*
X126099Y120488D02*
D03*
X131108Y120860D02*
D03*
X291846Y107696D02*
D03*
X92331Y228854D02*
D03*
X146304Y186436D02*
D03*
X156396Y173228D02*
D03*
X152626Y201930D02*
D03*
X101558Y202184D02*
D03*
X154090Y215509D02*
D03*
X276606Y46575D02*
D03*
X51816Y245618D02*
D03*
X103840Y124492D02*
D03*
X84328Y33528D02*
D03*
X130410Y171958D02*
D03*
X281146Y160060D02*
D03*
X173360Y224118D02*
D03*
X154090Y215509D02*
D03*
X154940Y210566D02*
D03*
X75438Y204978D02*
D03*
X220348Y114274D02*
D03*
X203593Y99457D02*
D03*
X269102Y147621D02*
D03*
D72*
X161686Y-6350D02*
D03*
X203686D02*
D03*
X210686D02*
D03*
X224686D02*
D03*
X231686D02*
D03*
X238686D02*
D03*
X217686D02*
D03*
X196686D02*
D03*
X189686D02*
D03*
X182686D02*
D03*
X175686D02*
D03*
X168686D02*
D03*
X154686D02*
D03*
X119686D02*
D03*
X112686D02*
D03*
X147686D02*
D03*
X140686D02*
D03*
X133686D02*
D03*
X126686D02*
D03*
X105686D02*
D03*
D73*
X95822Y89916D02*
D03*
X116014D02*
D03*
X37465Y55880D02*
D03*
X17272D02*
D03*
X60262Y56388D02*
D03*
X80455D02*
D03*
X99377Y147066D02*
D03*
X119571D02*
D03*
D74*
X163517Y220352D02*
D03*
Y215352D02*
D03*
Y210352D02*
D03*
Y205352D02*
D03*
X140267D02*
D03*
Y210352D02*
D03*
Y215352D02*
D03*
Y220352D02*
D03*
D75*
X156892Y203727D02*
D03*
X151892D02*
D03*
X146892D02*
D03*
Y221977D02*
D03*
X151892D02*
D03*
X156892D02*
D03*
D76*
X186376Y220472D02*
D03*
X178876D02*
D03*
D77*
X179832Y191580D02*
D03*
Y199580D02*
D03*
X189992Y191834D02*
D03*
Y199834D02*
D03*
X175260Y36512D02*
D03*
Y28512D02*
D03*
X165354Y36766D02*
D03*
Y28766D02*
D03*
D78*
X41148Y170117D02*
D03*
Y149923D02*
D03*
Y190056D02*
D03*
Y210249D02*
D03*
D79*
X106425Y218082D02*
D03*
D80*
Y211582D02*
D03*
Y205082D02*
D03*
X89888D02*
D03*
Y218082D02*
D03*
D81*
X16002Y166266D02*
D03*
Y153266D02*
D03*
X163322Y234038D02*
D03*
Y247038D02*
D03*
X175768Y233530D02*
D03*
Y246530D02*
D03*
X252730Y219052D02*
D03*
Y232052D02*
D03*
X46736Y129182D02*
D03*
Y116182D02*
D03*
X76708Y115674D02*
D03*
Y128674D02*
D03*
X62484Y115674D02*
D03*
Y128674D02*
D03*
X31496Y115928D02*
D03*
Y128928D02*
D03*
X73914Y82908D02*
D03*
Y95908D02*
D03*
X134620Y165458D02*
D03*
Y178458D02*
D03*
D82*
X130556Y244034D02*
D03*
Y236534D02*
D03*
X140462Y244288D02*
D03*
Y236788D02*
D03*
X151130Y244796D02*
D03*
Y237296D02*
D03*
M02*
