G04*
G04 #@! TF.GenerationSoftware,Altium Limited,Altium Designer,24.6.1 (21)*
G04*
G04 Layer_Physical_Order=1*
G04 Layer_Color=255*
%FSLAX44Y44*%
%MOMM*%
G71*
G04*
G04 #@! TF.SameCoordinates,46D9000B-954F-446C-B998-76B77EA3697B*
G04*
G04*
G04 #@! TF.FilePolarity,Positive*
G04*
G01*
G75*
%ADD11C,0.2000*%
%ADD17C,0.1500*%
%ADD18C,0.1000*%
%ADD21C,0.6350*%
G04:AMPARAMS|DCode=22|XSize=0.3048mm|YSize=0.3048mm|CornerRadius=0.0229mm|HoleSize=0mm|Usage=FLASHONLY|Rotation=180.000|XOffset=0mm|YOffset=0mm|HoleType=Round|Shape=RoundedRectangle|*
%AMROUNDEDRECTD22*
21,1,0.3048,0.2591,0,0,180.0*
21,1,0.2591,0.3048,0,0,180.0*
1,1,0.0457,-0.1295,0.1295*
1,1,0.0457,0.1295,0.1295*
1,1,0.0457,0.1295,-0.1295*
1,1,0.0457,-0.1295,-0.1295*
%
%ADD22ROUNDEDRECTD22*%
G04:AMPARAMS|DCode=23|XSize=0.8382mm|YSize=0.7112mm|CornerRadius=0.0711mm|HoleSize=0mm|Usage=FLASHONLY|Rotation=90.000|XOffset=0mm|YOffset=0mm|HoleType=Round|Shape=RoundedRectangle|*
%AMROUNDEDRECTD23*
21,1,0.8382,0.5690,0,0,90.0*
21,1,0.6960,0.7112,0,0,90.0*
1,1,0.1422,0.2845,0.3480*
1,1,0.1422,0.2845,-0.3480*
1,1,0.1422,-0.2845,-0.3480*
1,1,0.1422,-0.2845,0.3480*
%
%ADD23ROUNDEDRECTD23*%
G04:AMPARAMS|DCode=24|XSize=1.09mm|YSize=1.29mm|CornerRadius=0.1363mm|HoleSize=0mm|Usage=FLASHONLY|Rotation=90.000|XOffset=0mm|YOffset=0mm|HoleType=Round|Shape=RoundedRectangle|*
%AMROUNDEDRECTD24*
21,1,1.0900,1.0175,0,0,90.0*
21,1,0.8175,1.2900,0,0,90.0*
1,1,0.2725,0.5088,0.4088*
1,1,0.2725,0.5088,-0.4088*
1,1,0.2725,-0.5088,-0.4088*
1,1,0.2725,-0.5088,0.4088*
%
%ADD24ROUNDEDRECTD24*%
G04:AMPARAMS|DCode=25|XSize=0.4572mm|YSize=0.508mm|CornerRadius=0.0343mm|HoleSize=0mm|Usage=FLASHONLY|Rotation=180.000|XOffset=0mm|YOffset=0mm|HoleType=Round|Shape=RoundedRectangle|*
%AMROUNDEDRECTD25*
21,1,0.4572,0.4394,0,0,180.0*
21,1,0.3886,0.5080,0,0,180.0*
1,1,0.0686,-0.1943,0.2197*
1,1,0.0686,0.1943,0.2197*
1,1,0.0686,0.1943,-0.2197*
1,1,0.0686,-0.1943,-0.2197*
%
%ADD25ROUNDEDRECTD25*%
G04:AMPARAMS|DCode=26|XSize=0.508mm|YSize=0.4572mm|CornerRadius=0.0343mm|HoleSize=0mm|Usage=FLASHONLY|Rotation=180.000|XOffset=0mm|YOffset=0mm|HoleType=Round|Shape=RoundedRectangle|*
%AMROUNDEDRECTD26*
21,1,0.5080,0.3886,0,0,180.0*
21,1,0.4394,0.4572,0,0,180.0*
1,1,0.0686,-0.2197,0.1943*
1,1,0.0686,0.2197,0.1943*
1,1,0.0686,0.2197,-0.1943*
1,1,0.0686,-0.2197,-0.1943*
%
%ADD26ROUNDEDRECTD26*%
G04:AMPARAMS|DCode=27|XSize=0.3048mm|YSize=0.3048mm|CornerRadius=0.0229mm|HoleSize=0mm|Usage=FLASHONLY|Rotation=270.000|XOffset=0mm|YOffset=0mm|HoleType=Round|Shape=RoundedRectangle|*
%AMROUNDEDRECTD27*
21,1,0.3048,0.2591,0,0,270.0*
21,1,0.2591,0.3048,0,0,270.0*
1,1,0.0457,-0.1295,-0.1295*
1,1,0.0457,-0.1295,0.1295*
1,1,0.0457,0.1295,0.1295*
1,1,0.0457,0.1295,-0.1295*
%
%ADD27ROUNDEDRECTD27*%
%ADD28R,1.1000X1.9000*%
G04:AMPARAMS|DCode=29|XSize=0.4572mm|YSize=0.508mm|CornerRadius=0.0343mm|HoleSize=0mm|Usage=FLASHONLY|Rotation=270.000|XOffset=0mm|YOffset=0mm|HoleType=Round|Shape=RoundedRectangle|*
%AMROUNDEDRECTD29*
21,1,0.4572,0.4394,0,0,270.0*
21,1,0.3886,0.5080,0,0,270.0*
1,1,0.0686,-0.2197,-0.1943*
1,1,0.0686,-0.2197,0.1943*
1,1,0.0686,0.2197,0.1943*
1,1,0.0686,0.2197,-0.1943*
%
%ADD29ROUNDEDRECTD29*%
%ADD30R,0.2000X0.9000*%
%ADD31R,0.9000X0.2000*%
%ADD32C,0.2000*%
G04:AMPARAMS|DCode=33|XSize=0.508mm|YSize=0.4572mm|CornerRadius=0.0343mm|HoleSize=0mm|Usage=FLASHONLY|Rotation=90.000|XOffset=0mm|YOffset=0mm|HoleType=Round|Shape=RoundedRectangle|*
%AMROUNDEDRECTD33*
21,1,0.5080,0.3886,0,0,90.0*
21,1,0.4394,0.4572,0,0,90.0*
1,1,0.0686,0.1943,0.2197*
1,1,0.0686,0.1943,-0.2197*
1,1,0.0686,-0.1943,-0.2197*
1,1,0.0686,-0.1943,0.2197*
%
%ADD33ROUNDEDRECTD33*%
%ADD34R,0.5500X1.0000*%
%ADD35R,0.3000X1.4000*%
%ADD36R,0.7000X3.7000*%
%ADD37R,1.5000X2.3000*%
%ADD38C,0.2900*%
%ADD39R,1.7000X1.1000*%
%ADD40R,0.8000X0.2000*%
%ADD41R,0.2000X0.8000*%
G04:AMPARAMS|DCode=42|XSize=0.7874mm|YSize=0.8382mm|CornerRadius=0.0787mm|HoleSize=0mm|Usage=FLASHONLY|Rotation=0.000|XOffset=0mm|YOffset=0mm|HoleType=Round|Shape=RoundedRectangle|*
%AMROUNDEDRECTD42*
21,1,0.7874,0.6807,0,0,0.0*
21,1,0.6299,0.8382,0,0,0.0*
1,1,0.1575,0.3150,-0.3404*
1,1,0.1575,-0.3150,-0.3404*
1,1,0.1575,-0.3150,0.3404*
1,1,0.1575,0.3150,0.3404*
%
%ADD42ROUNDEDRECTD42*%
%ADD68C,1.5240*%
%ADD69C,0.3500*%
%ADD70C,0.4500*%
%ADD71C,0.4000*%
G36*
X166401Y270186D02*
X197581Y269160D01*
X198812Y268983D01*
X198876Y268957D01*
X200111Y269007D01*
X211446Y268012D01*
X211447Y268012D01*
X211449Y268012D01*
X234281Y266065D01*
X234376Y266049D01*
X235530Y265819D01*
X236776Y265679D01*
X279492Y256383D01*
X279622Y256346D01*
X280805Y255994D01*
D01*
X282025Y255695D01*
X293194Y252050D01*
X293249Y252032D01*
X294335Y251590D01*
X294335Y251590D01*
X294373Y251574D01*
X295546Y251237D01*
X296745Y250800D01*
X298459Y250175D01*
X298475Y250104D01*
Y250104D01*
X298683Y250017D01*
X299466Y249362D01*
X301584Y247250D01*
X301598Y247217D01*
X301875Y241250D01*
X301876Y241210D01*
X301756Y240037D01*
X301905Y239084D01*
X301943Y238804D01*
X301955Y237503D01*
X301982Y234625D01*
X301998Y234548D01*
X301989Y234470D01*
X302090Y234109D01*
X302167Y233741D01*
X302211Y233676D01*
X302232Y233601D01*
X304334Y229452D01*
X304384Y229389D01*
X304410Y229314D01*
X304661Y229036D01*
X304892Y228742D01*
X304961Y228703D01*
X305015Y228643D01*
X305353Y228482D01*
X305679Y228299D01*
X305758Y228289D01*
X305830Y228255D01*
X313071Y226421D01*
X313389Y226404D01*
X313704Y226351D01*
X326263Y226701D01*
X327472Y226566D01*
X328192Y226677D01*
X328696Y226751D01*
X330010Y226768D01*
X332604Y226800D01*
X333014Y226631D01*
X333030Y226637D01*
X333045Y226646D01*
X336648Y224693D01*
X337422Y220320D01*
X337292Y220165D01*
Y220165D01*
X337290Y220163D01*
X337374Y219961D01*
X337463Y218740D01*
X337395Y189733D01*
X337395Y189731D01*
X337395Y189730D01*
X337395Y129113D01*
X336125Y128504D01*
X335559Y128739D01*
X334130D01*
X333904Y129177D01*
X333741Y130009D01*
X334479Y130747D01*
X334974Y131941D01*
Y133235D01*
X334479Y134429D01*
X333565Y135343D01*
X332370Y135838D01*
X331077D01*
X329883Y135343D01*
X328969Y134429D01*
X328474Y133235D01*
Y132673D01*
X327467Y131667D01*
X326318D01*
X325635Y131531D01*
X325056Y131144D01*
X321703Y127791D01*
X321267Y127704D01*
X320688Y127318D01*
X315232Y121861D01*
X314711Y121645D01*
X314674Y121608D01*
X314273Y121423D01*
X313986Y121710D01*
X313540Y122817D01*
X313844Y123552D01*
Y124348D01*
X313540Y125083D01*
X313502Y125120D01*
X313118Y125950D01*
X313502Y126780D01*
X313540Y126817D01*
X313844Y127552D01*
Y128348D01*
X313540Y129083D01*
X312977Y129646D01*
X312242Y129950D01*
X311446D01*
X311079Y129798D01*
X309876Y130344D01*
X309617Y131004D01*
X309844Y131552D01*
Y132348D01*
X309540Y133083D01*
X309379Y133243D01*
X309379Y133245D01*
X309533Y133637D01*
X309855Y133806D01*
X311066Y134107D01*
X311232Y134039D01*
X313933Y131338D01*
X314148Y130817D01*
X314711Y130254D01*
X315446Y129950D01*
X316242D01*
X316763Y130166D01*
X317612D01*
X317945Y129833D01*
X319139Y129338D01*
X320433D01*
X321627Y129833D01*
X322541Y130747D01*
X323036Y131941D01*
Y133235D01*
X322541Y134429D01*
X321627Y135343D01*
X320433Y135838D01*
X319139D01*
X317945Y135343D01*
X317031Y134429D01*
X315724Y134593D01*
X313755Y136562D01*
X313540Y137083D01*
X312977Y137646D01*
X312456Y137861D01*
X309755Y140562D01*
X309540Y141083D01*
X308977Y141645D01*
X308242Y141950D01*
X307446D01*
X306711Y141645D01*
X306674Y141608D01*
X305809Y142150D01*
X305539Y142817D01*
X305844Y143552D01*
Y144348D01*
X305539Y145083D01*
X304977Y145646D01*
X304242Y145950D01*
X303446D01*
X302711Y145646D01*
X302674Y145608D01*
X301844Y145224D01*
X301014Y145608D01*
X300977Y145646D01*
X300242Y145950D01*
X299954D01*
X299702Y147220D01*
X300037Y147359D01*
X300951Y148273D01*
X301446Y149467D01*
Y150760D01*
X300951Y151955D01*
X300037Y152869D01*
X298843Y153364D01*
X298693D01*
X297539Y153762D01*
X297519Y154537D01*
Y155732D01*
X297975Y156906D01*
X299974D01*
X300739Y157223D01*
X301056Y157988D01*
Y158619D01*
X301459D01*
X302142Y158755D01*
X302721Y159142D01*
X302921Y159342D01*
X303314Y159179D01*
X304508D01*
X305611Y159636D01*
X306455Y160480D01*
X306911Y161583D01*
Y162776D01*
X307772Y164017D01*
X309664D01*
X310830Y163512D01*
Y160592D01*
X311147Y159826D01*
X311912Y159509D01*
X316992D01*
X317757Y159826D01*
X318074Y160592D01*
Y163512D01*
X318017Y163651D01*
X318103Y163858D01*
Y167744D01*
X317677Y168772D01*
X316649Y169198D01*
X312255D01*
X311227Y168772D01*
X310801Y167744D01*
Y167585D01*
X305793D01*
X305596Y167783D01*
Y170853D01*
X305170Y171881D01*
X304142Y172307D01*
X303983D01*
Y177564D01*
X313284D01*
Y190564D01*
X294284D01*
Y177564D01*
X300415D01*
Y173444D01*
X299911Y172278D01*
X296989D01*
X296851Y172221D01*
X296644Y172307D01*
X292758D01*
X291730Y171881D01*
X291304Y170853D01*
Y170440D01*
X280223D01*
X279540Y170305D01*
X278961Y169918D01*
X276463Y167420D01*
X274463D01*
X272178Y169705D01*
X271679Y170768D01*
Y179910D01*
X271760Y180795D01*
X272797Y181134D01*
X281791D01*
Y181350D01*
X283262D01*
Y180963D01*
X283757Y179769D01*
X284671Y178855D01*
X285865Y178360D01*
X287159D01*
X288353Y178855D01*
X289267Y179769D01*
X289762Y180963D01*
Y182257D01*
X289267Y183451D01*
X288353Y184365D01*
X287159Y184860D01*
X285865D01*
X285674Y184781D01*
X285671Y184783D01*
X284988Y184918D01*
X282897D01*
X281791Y185314D01*
Y188321D01*
X283061Y188847D01*
X283401Y188507D01*
X284596Y188012D01*
X285889D01*
X287083Y188507D01*
X287997Y189421D01*
X288492Y190616D01*
Y191908D01*
X287997Y193103D01*
X287280Y193820D01*
Y196506D01*
X287591Y196635D01*
X288505Y197549D01*
X289000Y198743D01*
Y200037D01*
X288505Y201231D01*
X288165Y201571D01*
X288534Y202998D01*
X289115Y203239D01*
X290029Y204153D01*
X290524Y205347D01*
Y206640D01*
X290029Y207835D01*
X289115Y208749D01*
X287920Y209244D01*
X286628D01*
X286571Y209221D01*
X286319Y209473D01*
X285740Y209859D01*
X285057Y209995D01*
X282897D01*
X281791Y210390D01*
Y214390D01*
X282897Y214785D01*
X283859D01*
X284265Y213805D01*
X285179Y212891D01*
X286374Y212396D01*
X287666D01*
X288861Y212891D01*
X289775Y213805D01*
X290270Y215000D01*
Y216292D01*
X289775Y217487D01*
X288861Y218401D01*
X287666Y218896D01*
X286374D01*
X285212Y218415D01*
X285082Y218416D01*
X284226Y218544D01*
X283876Y219551D01*
X283838Y219763D01*
X285725Y221651D01*
X286112Y222230D01*
X286248Y222912D01*
Y227601D01*
X286112Y228284D01*
X285725Y228862D01*
X284218Y230370D01*
X283639Y230756D01*
X282956Y230892D01*
X281791D01*
Y231108D01*
X272797D01*
X271760Y231448D01*
X271679Y232332D01*
Y241474D01*
X267679Y241474D01*
X267628Y241617D01*
X267600Y242876D01*
X268795Y243371D01*
X269709Y244285D01*
X270204Y245480D01*
Y246772D01*
X269709Y247967D01*
X268795Y248881D01*
X267600Y249376D01*
X266308D01*
X265113Y248881D01*
X264199Y247967D01*
X263704Y246772D01*
Y245480D01*
X263820Y245200D01*
X263715Y244671D01*
Y242580D01*
X263320Y241474D01*
X262229Y241474D01*
X259320Y241474D01*
X258050Y241474D01*
X255140Y241474D01*
X253870Y241474D01*
X250961Y241474D01*
X249691Y241474D01*
X246781D01*
Y241474D01*
X246602D01*
Y241474D01*
X242602D01*
Y241474D01*
X242423D01*
X242423Y241474D01*
X238423Y241474D01*
X237777Y242477D01*
Y247010D01*
X238429Y247280D01*
X238855Y248308D01*
Y252194D01*
X238769Y252401D01*
X238826Y252540D01*
Y254272D01*
X240093Y255469D01*
X240323Y255461D01*
X241237Y254547D01*
X242432Y254052D01*
X243724D01*
X244919Y254547D01*
X245833Y255461D01*
X246328Y256656D01*
Y257948D01*
X245833Y259143D01*
X244919Y260057D01*
X243724Y260552D01*
X242432D01*
X241237Y260057D01*
X240713Y259533D01*
X238855D01*
Y259692D01*
X238429Y260720D01*
X237401Y261146D01*
X233007D01*
X231979Y260720D01*
X231553Y259692D01*
Y255806D01*
X231639Y255599D01*
X231582Y255460D01*
Y252540D01*
X231639Y252401D01*
X231553Y252194D01*
Y249463D01*
X230283Y248937D01*
X225332Y253889D01*
Y257213D01*
X224906Y258241D01*
X223878Y258667D01*
X219992D01*
X219785Y258581D01*
X219646Y258638D01*
X216726D01*
X216587Y258581D01*
X216380Y258667D01*
X213564D01*
X213493Y258737D01*
Y259512D01*
X212998Y260707D01*
X212084Y261621D01*
X210889Y262116D01*
X209597D01*
X208402Y261621D01*
X207488Y260707D01*
X206993Y259512D01*
Y258220D01*
X207488Y257025D01*
X208402Y256111D01*
X209597Y255616D01*
X210889D01*
X211040Y255515D01*
Y252819D01*
X211466Y251791D01*
X212494Y251365D01*
X216380D01*
X216587Y251451D01*
X216726Y251394D01*
X219646D01*
X219785Y251451D01*
X219992Y251365D01*
X222767D01*
X223534Y250421D01*
X222995Y249368D01*
X209279D01*
X203996Y254651D01*
Y257975D01*
X203570Y259003D01*
X202542Y259429D01*
X198656D01*
X198449Y259343D01*
X198311Y259400D01*
X195389D01*
X195251Y259343D01*
X195044Y259429D01*
X192228D01*
X191296Y260361D01*
X191464Y260768D01*
Y262061D01*
X190969Y263255D01*
X190055Y264169D01*
X188860Y264664D01*
X187568D01*
X186373Y264169D01*
X185459Y263255D01*
X185102Y262393D01*
X184174Y261616D01*
X182881D01*
X181686Y261121D01*
X180772Y260207D01*
X180323Y259122D01*
X179793Y258871D01*
X179007Y258641D01*
X171199Y266449D01*
X170434Y266766D01*
X162560D01*
X161795Y266449D01*
X161478Y265684D01*
Y259080D01*
X161795Y258315D01*
X161795Y258315D01*
X166570Y253539D01*
Y253220D01*
X167065Y252025D01*
X167487Y251602D01*
X166961Y250332D01*
X117788D01*
X117105Y250196D01*
X116526Y249810D01*
X116339Y249623D01*
X115709Y249884D01*
X114416D01*
X113221Y249389D01*
X112307Y248475D01*
X111812Y247281D01*
Y245987D01*
X111835Y245931D01*
X109602Y243697D01*
X108135D01*
X106601Y243061D01*
X105448Y241909D01*
X89532D01*
X89525Y241915D01*
X88790Y242220D01*
X87994D01*
X87259Y241915D01*
X87222Y241878D01*
X86392Y241494D01*
X85562Y241878D01*
X85525Y241915D01*
X84790Y242220D01*
X83994D01*
X83704Y242100D01*
X81716D01*
X81495Y242633D01*
X80667Y243461D01*
Y245806D01*
X81223D01*
X82251Y246232D01*
X82677Y247260D01*
Y247419D01*
X99597D01*
X100280Y247554D01*
X100859Y247941D01*
X103745Y250828D01*
X104326Y250587D01*
X105986D01*
X107521Y251223D01*
X108695Y252397D01*
X108936Y252978D01*
X112522D01*
X113205Y253113D01*
X113784Y253500D01*
X115121Y254837D01*
X115177Y254814D01*
X116470D01*
X117665Y255309D01*
X118579Y256223D01*
X119074Y257418D01*
Y258710D01*
X118579Y259905D01*
X117665Y260819D01*
X116470Y261314D01*
X115177D01*
X113983Y260819D01*
X113069Y259905D01*
X112574Y258710D01*
Y257418D01*
X111753Y256546D01*
X108936D01*
X108695Y257127D01*
X107521Y258301D01*
X105986Y258937D01*
X104326D01*
X102791Y258301D01*
X101617Y257127D01*
X100981Y255592D01*
Y253932D01*
X101222Y253351D01*
X98858Y250987D01*
X83814D01*
X82648Y251492D01*
Y254412D01*
X82331Y255178D01*
X81566Y255495D01*
X76486D01*
X75721Y255178D01*
X75404Y254412D01*
Y251492D01*
X75461Y251353D01*
X75375Y251146D01*
Y247260D01*
X75801Y246232D01*
X76829Y245806D01*
X77099D01*
Y243630D01*
X76899Y243547D01*
X75985Y242633D01*
X75490Y241439D01*
Y240145D01*
X75713Y239607D01*
X75574Y239293D01*
X74747Y238621D01*
X74331Y238793D01*
X72989D01*
X72224Y238476D01*
X72166Y238337D01*
X69695D01*
X68755Y237948D01*
X68365Y237007D01*
Y235610D01*
X65032Y232277D01*
X64646Y231698D01*
X64644Y231688D01*
X64453Y231609D01*
X63539Y230695D01*
X63044Y229501D01*
Y228207D01*
X63539Y227013D01*
X64453Y226099D01*
X65648Y225604D01*
X66940D01*
X68135Y226099D01*
X69049Y227013D01*
X69544Y228207D01*
Y229501D01*
X69049Y230695D01*
X68773Y230971D01*
X70889Y233087D01*
X72166D01*
X72224Y232948D01*
X72989Y232631D01*
X74331D01*
X75096Y232948D01*
X75154Y233087D01*
X77625D01*
X78565Y233476D01*
X78752Y233928D01*
X80916D01*
X81442Y232658D01*
X81424Y232640D01*
X81037Y232061D01*
X80901Y231378D01*
Y231087D01*
X80217Y230804D01*
X79827Y229863D01*
Y227273D01*
X80217Y226332D01*
X80652Y226152D01*
Y224680D01*
X80185Y224486D01*
X79998Y224034D01*
X77781D01*
X76802Y224440D01*
X75509D01*
X74315Y223945D01*
X73401Y223031D01*
X72906Y221836D01*
Y220543D01*
X73312Y219563D01*
Y216508D01*
X71803Y215883D01*
X70629Y214709D01*
X69993Y213174D01*
Y211514D01*
X70629Y209979D01*
X71803Y208805D01*
X72809Y208388D01*
X73194Y207062D01*
X73181Y206964D01*
X72895Y206677D01*
X72438Y205575D01*
Y204381D01*
X72895Y203279D01*
X73739Y202435D01*
X74841Y201978D01*
X76035D01*
X77137Y202435D01*
X77981Y203279D01*
X78438Y204381D01*
Y205575D01*
X77981Y206677D01*
X77137Y207521D01*
X76945Y207601D01*
X76808Y208002D01*
X76775Y209046D01*
X77707Y209979D01*
X78343Y211514D01*
Y213174D01*
X77707Y214709D01*
X76880Y215536D01*
Y217972D01*
X77997Y218435D01*
X78911Y219349D01*
X78998Y219560D01*
X80185Y220014D01*
X81125Y219625D01*
X83596D01*
X83654Y219486D01*
X84419Y219169D01*
X85761D01*
X86526Y219486D01*
X86843Y220251D01*
Y224249D01*
X86526Y225014D01*
X86558Y225804D01*
X86696Y226138D01*
X86875Y226569D01*
Y230567D01*
X86558Y231332D01*
X85945Y232306D01*
X86081Y232989D01*
Y235080D01*
X86088Y235087D01*
X86392Y235822D01*
Y236618D01*
X86088Y237353D01*
X86050Y237390D01*
X86592Y238255D01*
X87259Y238524D01*
X87994Y238220D01*
X88790D01*
X89080Y238340D01*
X104937D01*
X105427Y237157D01*
X106601Y235983D01*
X108135Y235347D01*
X109796D01*
X111331Y235983D01*
X112505Y237157D01*
X113141Y238692D01*
Y240352D01*
X112603Y241652D01*
X114359Y243407D01*
X114416Y243384D01*
X115709D01*
X116903Y243879D01*
X117817Y244793D01*
X118312Y245987D01*
Y246549D01*
X118527Y246764D01*
X178367D01*
X181067Y244064D01*
X180581Y242890D01*
X178206D01*
X178143Y242864D01*
X176949D01*
X176887Y242890D01*
X174636D01*
X174635Y242890D01*
X174634Y242890D01*
X174335Y242766D01*
X173074D01*
Y241772D01*
X172973Y241671D01*
X172973Y241670D01*
X172971Y241669D01*
X172816Y241289D01*
X172658Y240905D01*
X172659Y240903D01*
X172658Y240902D01*
X172730Y227104D01*
X171661Y226661D01*
X170817Y225818D01*
X170360Y224715D01*
Y223521D01*
X170817Y222419D01*
X171661Y221575D01*
X172763Y221118D01*
X173074D01*
Y203766D01*
X175790D01*
Y196093D01*
X172957Y193260D01*
X171519Y193411D01*
X170746Y194184D01*
X169735Y194603D01*
X168641D01*
X167630Y194184D01*
X167313Y193868D01*
X166861Y193689D01*
X166014Y193558D01*
X165609Y193718D01*
X165412Y193848D01*
X165306Y193827D01*
X165205Y193868D01*
X151892D01*
X151127Y193551D01*
X151127Y193551D01*
X148333Y190757D01*
X148142Y190297D01*
X147005Y189488D01*
X146901Y189436D01*
X145707D01*
X144605Y188979D01*
X143761Y188135D01*
X143304Y187033D01*
Y185839D01*
X143761Y184737D01*
X144605Y183893D01*
X145707Y183436D01*
X146901D01*
X148016Y182523D01*
Y182372D01*
X148333Y181607D01*
X149098Y181290D01*
X171704D01*
X171704Y181290D01*
X172469Y181607D01*
X183645Y192783D01*
X183962Y193548D01*
Y239509D01*
X185136Y239995D01*
X187853Y237277D01*
X187871Y237186D01*
X188258Y236607D01*
X198672Y226193D01*
X199251Y225806D01*
X199934Y225670D01*
X201285D01*
X201472Y225219D01*
X201924Y225032D01*
Y222504D01*
X202059Y221821D01*
X202446Y221242D01*
X208381Y215308D01*
X208960Y214921D01*
X209643Y214785D01*
X210233D01*
X211339Y214390D01*
X211339Y213300D01*
Y210390D01*
X211339D01*
Y210211D01*
X211339D01*
Y206211D01*
X211339D01*
Y206031D01*
X211339D01*
Y202032D01*
X211339D01*
Y201852D01*
X211339D01*
Y197852D01*
X211339D01*
Y197672D01*
X211339D01*
Y193673D01*
X211339D01*
Y193493D01*
X211339D01*
Y189493D01*
X221339D01*
X221339Y189493D01*
Y189493D01*
X221339Y189493D01*
X222506Y189245D01*
X225302Y186448D01*
X225881Y186062D01*
X226564Y185926D01*
X227362D01*
X227623Y185295D01*
X228537Y184381D01*
X228765Y184286D01*
X229063Y182788D01*
X228036Y181761D01*
X227649Y181182D01*
X227618Y181025D01*
X227361Y180768D01*
X225884D01*
Y180768D01*
X225705D01*
Y180768D01*
X223628D01*
X223455Y180802D01*
X223282Y180768D01*
X222613Y180768D01*
X222403Y180786D01*
X221615Y181044D01*
X221357Y181832D01*
X221339Y182042D01*
X221339Y182224D01*
Y185134D01*
X211339D01*
Y181134D01*
X220249Y181134D01*
X220431Y181134D01*
X220641Y181116D01*
X221429Y180858D01*
X221687Y180070D01*
X221705Y179860D01*
X221705Y179678D01*
Y179190D01*
X221671Y179018D01*
X221705Y178846D01*
Y172802D01*
X220435Y172276D01*
X220027Y172684D01*
X218832Y173179D01*
X217540D01*
X216345Y172684D01*
X215832Y172171D01*
X214524Y171924D01*
X214213Y172208D01*
X213817Y173396D01*
X213944Y173703D01*
Y174996D01*
X213450Y176191D01*
X212535Y177105D01*
X211341Y177600D01*
X210048D01*
X208854Y177105D01*
X207939Y176191D01*
X207444Y174996D01*
Y173975D01*
X207410Y173941D01*
X207023Y173362D01*
X206887Y172679D01*
Y171661D01*
X206815Y171553D01*
X206680Y170870D01*
Y170375D01*
X205842Y170036D01*
X205410Y169991D01*
X204588Y170812D01*
X203394Y171307D01*
X202101D01*
X200906Y170812D01*
X200238Y170144D01*
X199088Y170459D01*
X198968Y170533D01*
Y181031D01*
X199622Y181686D01*
X200798D01*
X201993Y182181D01*
X202907Y183095D01*
X203402Y184289D01*
Y185582D01*
X202907Y186777D01*
X201993Y187691D01*
X200798Y188186D01*
X199506D01*
X198311Y187691D01*
X197397Y186777D01*
X196902Y185582D01*
Y184746D01*
X196548Y184442D01*
X195293Y185018D01*
X195278Y185040D01*
Y185244D01*
X194821Y186347D01*
X193977Y187191D01*
X192875Y187648D01*
X191681D01*
X190579Y187191D01*
X189735Y186347D01*
X189278Y185244D01*
Y184051D01*
X189441Y183657D01*
X189088Y183305D01*
X188702Y182726D01*
X188566Y182043D01*
Y180739D01*
X187505D01*
X186838Y180606D01*
X186272Y180228D01*
X185893Y179662D01*
X185761Y178994D01*
Y172034D01*
X185844Y171618D01*
X185542Y171142D01*
X184570Y170520D01*
X184264Y170565D01*
X184017Y170812D01*
X182823Y171307D01*
X182674D01*
X181526Y172033D01*
X181523Y172480D01*
Y178994D01*
X181391Y179662D01*
X181012Y180228D01*
X180813Y180361D01*
Y181846D01*
X181545Y182578D01*
X181887D01*
X182284Y182181D01*
X183478Y181686D01*
X184771D01*
X185966Y182181D01*
X186880Y183095D01*
X187375Y184289D01*
Y185582D01*
X186880Y186777D01*
X185966Y187691D01*
X184771Y188186D01*
X183478D01*
X182284Y187691D01*
X181369Y186777D01*
X181108Y186146D01*
X180806D01*
X180123Y186010D01*
X179544Y185623D01*
X177767Y183846D01*
X177380Y183268D01*
X177245Y182585D01*
Y180739D01*
X174089D01*
X173421Y180606D01*
X172855Y180228D01*
X172477Y179662D01*
X172344Y178994D01*
Y173173D01*
X171588Y172668D01*
X170296D01*
X169101Y172173D01*
X168406Y171478D01*
X167500Y170588D01*
X166305Y171083D01*
X165012D01*
X163818Y170588D01*
X162904Y169674D01*
X162409Y168479D01*
Y167187D01*
X162644Y166618D01*
X158218Y162192D01*
X158183D01*
X157282Y161819D01*
X156967Y161504D01*
X156619Y161397D01*
X155454Y162147D01*
Y163373D01*
X156156Y164074D01*
X156553D01*
X157655Y164531D01*
X158499Y165375D01*
X158956Y166477D01*
Y167671D01*
X158499Y168773D01*
X158002Y169271D01*
X158088Y170576D01*
X158171Y170761D01*
X158939Y171529D01*
X159396Y172631D01*
Y173825D01*
X158939Y174927D01*
X158095Y175771D01*
X156993Y176228D01*
X155799D01*
X154697Y175771D01*
X153853Y174927D01*
X153690Y174534D01*
X153575D01*
X152892Y174398D01*
X152313Y174011D01*
X151615Y173313D01*
X150338D01*
X150280Y173452D01*
X149515Y173769D01*
X148173D01*
X147408Y173452D01*
X147091Y172687D01*
Y168689D01*
X147408Y167924D01*
X148173Y167607D01*
X149515D01*
X150280Y167924D01*
X150338Y168063D01*
X151783D01*
X152854Y167705D01*
X152956Y166889D01*
Y166477D01*
X153119Y166084D01*
X152408Y165373D01*
X152022Y164795D01*
X151886Y164112D01*
Y162147D01*
X150721Y161397D01*
X150373Y161504D01*
X150058Y161819D01*
X149158Y162192D01*
X148744D01*
X142026Y168909D01*
Y168947D01*
X142406Y169327D01*
X142793Y169906D01*
X142929Y170589D01*
Y171063D01*
X144110Y171551D01*
X145024Y172466D01*
X145519Y173660D01*
Y174953D01*
X145024Y176148D01*
X144110Y177062D01*
X142915Y177557D01*
X141622D01*
X140428Y177062D01*
X139513Y176148D01*
X139019Y174953D01*
Y173660D01*
X139360Y172835D01*
Y172653D01*
X138090Y172127D01*
X132625Y177593D01*
X132046Y177980D01*
X131363Y178116D01*
X126788D01*
X126765Y178172D01*
X125850Y179087D01*
X124656Y179581D01*
X123363D01*
X122168Y179087D01*
X121254Y178172D01*
X120759Y176978D01*
Y175685D01*
X120917Y175304D01*
X120992Y173960D01*
X120675Y173195D01*
Y169197D01*
X120992Y168432D01*
X121757Y168115D01*
X123099D01*
X123864Y168432D01*
X123922Y168571D01*
X125199D01*
X127726Y166044D01*
Y163902D01*
X127862Y163219D01*
X127339Y161854D01*
X127313Y161832D01*
X127282Y161819D01*
X126967Y161504D01*
X126170Y161260D01*
X125373Y161504D01*
X125058Y161819D01*
X124157Y162192D01*
X123183D01*
X122282Y161819D01*
X121967Y161504D01*
X121170Y161259D01*
X120373Y161504D01*
X120058Y161819D01*
X119157Y162192D01*
X118182D01*
X117282Y161819D01*
X116593Y161130D01*
X116220Y160229D01*
Y159255D01*
X116593Y158354D01*
X116765Y158182D01*
X116717Y156848D01*
X115753Y156387D01*
X115373Y156504D01*
X115058Y156819D01*
X114157Y157192D01*
X113183D01*
X112282Y156819D01*
X111593Y156130D01*
X111220Y155229D01*
Y154255D01*
X111593Y153354D01*
X111908Y153039D01*
X112153Y152242D01*
X111908Y151445D01*
X111593Y151130D01*
X111220Y150230D01*
Y149255D01*
X111593Y148354D01*
X111909Y148039D01*
X112153Y147242D01*
X111909Y146445D01*
X111593Y146130D01*
X111220Y145229D01*
Y144255D01*
X111593Y143354D01*
X111908Y143039D01*
X112153Y142242D01*
X111908Y141445D01*
X111593Y141130D01*
X111220Y140230D01*
Y139255D01*
X111593Y138354D01*
X111909Y138039D01*
X112153Y137242D01*
X111909Y136445D01*
X111593Y136130D01*
X111220Y135229D01*
Y134255D01*
X111593Y133354D01*
X111679Y133268D01*
X112043Y132263D01*
X111663Y131624D01*
X111339Y131300D01*
X111190Y130941D01*
X109920Y131194D01*
Y157040D01*
X109784Y157723D01*
X109398Y158302D01*
X105928Y161771D01*
X106120Y162235D01*
Y163528D01*
X105625Y164722D01*
X104711Y165636D01*
X103517Y166131D01*
X102224D01*
X101029Y165636D01*
X100906Y165513D01*
X100076Y164757D01*
X99246Y165513D01*
X99123Y165636D01*
X97928Y166131D01*
X96636D01*
X95441Y165636D01*
X94527Y164722D01*
X94032Y163528D01*
Y162235D01*
X94056Y162178D01*
X90695Y158817D01*
X88862D01*
X87696Y159321D01*
Y162243D01*
X87379Y163008D01*
X86614Y163325D01*
X81534D01*
X80769Y163008D01*
X80452Y162243D01*
Y159321D01*
X80509Y159183D01*
X80423Y158976D01*
Y156177D01*
X79957Y155866D01*
X78763D01*
X78571Y155994D01*
Y158018D01*
X78710Y158076D01*
X79027Y158841D01*
Y160183D01*
X78710Y160948D01*
X77945Y161265D01*
X73947D01*
X73182Y160948D01*
X72865Y160183D01*
Y159867D01*
X72038Y158837D01*
X71691Y158835D01*
X69566D01*
X69508Y158974D01*
X68743Y159291D01*
X67401D01*
X66636Y158974D01*
X66319Y158209D01*
Y154211D01*
X66636Y153446D01*
X67401Y153129D01*
X68742D01*
X69810Y152196D01*
Y149482D01*
X65594D01*
Y138482D01*
X65141Y138118D01*
X64227Y137204D01*
X63732Y136010D01*
Y134717D01*
X64160Y133682D01*
X63897Y132988D01*
X63541Y132412D01*
X61401D01*
X61269Y132640D01*
X61012Y133682D01*
X61705Y134375D01*
X62200Y135569D01*
Y136862D01*
X62007Y137328D01*
X61594Y138482D01*
X61594Y138482D01*
X61594Y138482D01*
Y149482D01*
X61494D01*
Y151816D01*
X61666Y151888D01*
X62580Y152802D01*
X63075Y153996D01*
Y155289D01*
X62580Y156484D01*
X61666Y157398D01*
X60472Y157893D01*
X59179D01*
X57984Y157398D01*
X57070Y156484D01*
X55672Y156426D01*
X55093Y156666D01*
X53801D01*
X52606Y156171D01*
X51692Y155257D01*
X51431Y154626D01*
X49972D01*
X49665Y154565D01*
X49035Y155732D01*
X54079Y160776D01*
X60696D01*
X61379Y160912D01*
X61958Y161298D01*
X62625Y161966D01*
X71324D01*
Y182966D01*
X66554D01*
Y189472D01*
X67006Y189659D01*
X67395Y190599D01*
Y193070D01*
X67534Y193128D01*
X67851Y193893D01*
Y195235D01*
X67534Y196000D01*
X66769Y196317D01*
X62771D01*
X62006Y196000D01*
X61689Y195235D01*
Y193893D01*
X62006Y193128D01*
X62145Y193070D01*
Y190599D01*
X62534Y189659D01*
X62986Y189472D01*
Y182966D01*
X58324D01*
Y164344D01*
X53340D01*
X52657Y164209D01*
X52078Y163822D01*
X42648Y154392D01*
X41402Y154830D01*
X41378Y154849D01*
Y161966D01*
X46324D01*
Y182966D01*
X42116D01*
Y187799D01*
X43840Y189523D01*
X45237D01*
X46178Y189913D01*
X46567Y190853D01*
Y193324D01*
X46706Y193382D01*
X47023Y194147D01*
Y195489D01*
X46706Y196254D01*
X45941Y196571D01*
X41943D01*
X41178Y196254D01*
X40861Y195489D01*
Y194147D01*
X41178Y193382D01*
X41317Y193324D01*
Y192047D01*
X39070Y189800D01*
X38684Y189221D01*
X38548Y188539D01*
Y182966D01*
X33324D01*
Y161966D01*
X37810D01*
Y153700D01*
X37786Y153681D01*
X36540Y153243D01*
X31337Y158446D01*
Y161516D01*
X31251Y161723D01*
X31308Y161861D01*
Y164783D01*
X31251Y164921D01*
X31337Y165128D01*
Y169014D01*
X30911Y170042D01*
X29883Y170468D01*
X25489D01*
X24461Y170042D01*
X24035Y169014D01*
Y168257D01*
X23732Y168197D01*
X23153Y167810D01*
X20874Y165531D01*
X11019D01*
X10337Y165395D01*
X9758Y165008D01*
X8631Y163881D01*
X8267Y164032D01*
X6974D01*
X5779Y163537D01*
X5606Y163364D01*
X4336Y163890D01*
Y166281D01*
X11416Y173360D01*
X12787Y172935D01*
X13225Y171879D01*
X14399Y170705D01*
X15934Y170069D01*
X17594D01*
X19129Y170705D01*
X20303Y171879D01*
X20544Y172460D01*
X22301D01*
X22983Y172596D01*
X23562Y172982D01*
X23869Y173289D01*
X24499Y173028D01*
X25793D01*
X26987Y173522D01*
X27901Y174437D01*
X28396Y175631D01*
Y176924D01*
X27901Y178119D01*
X26987Y179033D01*
X25793Y179528D01*
X24499D01*
X23353Y179053D01*
X22905Y179261D01*
X22583Y179444D01*
X22225Y179749D01*
Y180940D01*
X21730Y182135D01*
X20816Y183049D01*
X19850Y183449D01*
X19561Y184311D01*
X19522Y184814D01*
X20303Y185595D01*
X20939Y187129D01*
Y188790D01*
X20884Y188922D01*
X23270Y191307D01*
X23776Y191098D01*
X25069D01*
X26263Y191593D01*
X27177Y192507D01*
X27672Y193701D01*
Y194994D01*
X27177Y196189D01*
X26263Y197103D01*
X25069Y197598D01*
X23776D01*
X22581Y197103D01*
X21667Y196189D01*
X21172Y194994D01*
Y194256D01*
X18624Y191709D01*
X17594Y192135D01*
X15934D01*
X14399Y191499D01*
X13225Y190325D01*
X12589Y188790D01*
Y187129D01*
X13225Y185595D01*
X14399Y184421D01*
X15472Y183976D01*
X15969Y182795D01*
X15979Y182515D01*
X15524Y181932D01*
X15036Y181835D01*
X14457Y181448D01*
X1290Y168281D01*
X904Y167703D01*
X897Y167668D01*
X-373Y167793D01*
Y197482D01*
X-240Y198697D01*
X-198Y198799D01*
X-42Y199560D01*
X174Y200002D01*
X176Y200005D01*
X213Y200094D01*
X796Y201122D01*
X1441Y202090D01*
X1608Y202496D01*
X1780Y202900D01*
X3013Y208797D01*
X3015Y209045D01*
X3062Y209290D01*
X2932Y224332D01*
X3007Y225330D01*
X3097Y225547D01*
X3092Y225558D01*
X3507Y226656D01*
X5126Y230327D01*
X9300Y231115D01*
X9444Y230994D01*
X9459Y230988D01*
X9672Y231077D01*
X10885Y231147D01*
X27432Y230951D01*
X27439Y230952D01*
X27447Y230951D01*
X27471D01*
X27473Y230951D01*
X27475Y230951D01*
X33736Y230993D01*
X33933Y231033D01*
X34135Y231030D01*
X34371Y231124D01*
X34620Y231175D01*
X34787Y231288D01*
X34975Y231362D01*
X39424Y234231D01*
X39502Y234306D01*
X39597Y234354D01*
X39824Y234618D01*
X40073Y234859D01*
X40116Y234958D01*
X40186Y235039D01*
X40294Y235369D01*
X40432Y235688D01*
X40434Y235795D01*
X40468Y235897D01*
X40989Y240189D01*
X40978Y240330D01*
X41006Y240468D01*
Y244620D01*
X41020Y244750D01*
X41181Y245954D01*
X41181D01*
X41129Y246930D01*
X41287Y247745D01*
X41287Y247745D01*
X41506Y248948D01*
X42288Y251706D01*
X42312Y251716D01*
X42440Y252025D01*
X44914Y253939D01*
X45164Y254122D01*
X46201Y254778D01*
X47281Y255275D01*
X49535Y256144D01*
X49623Y256177D01*
X50665Y256497D01*
X50675Y256492D01*
X50675Y256492D01*
X50748Y256522D01*
X51843Y256943D01*
X51862Y256949D01*
X57951Y258820D01*
X59158Y259083D01*
X59159Y259083D01*
X60102Y259319D01*
X60522Y259411D01*
X61645Y259583D01*
X115256Y267825D01*
X116520Y267870D01*
D01*
X117725Y268064D01*
X117891Y268086D01*
X163947Y270170D01*
X163954Y270171D01*
X164333Y270138D01*
X165167Y270052D01*
X166003Y270149D01*
X166395Y270186D01*
X166401Y270186D01*
D02*
G37*
G36*
X182626Y253492D02*
Y249211D01*
X181453Y248725D01*
X180368Y249810D01*
X179789Y250196D01*
X179106Y250332D01*
X171308D01*
X162560Y259080D01*
Y265684D01*
X170434D01*
X182626Y253492D01*
D02*
G37*
G36*
X182880Y193548D02*
X171704Y182372D01*
X149098D01*
Y185342D01*
X149304Y185839D01*
Y187033D01*
X149098Y187530D01*
Y189992D01*
X151892Y192786D01*
X165205D01*
X165880Y191786D01*
X165740Y191334D01*
X165413Y191115D01*
X163678D01*
X162995Y190979D01*
X162668Y190760D01*
X153630D01*
X152947Y190625D01*
X152368Y190238D01*
X151981Y189659D01*
X151846Y188976D01*
X151981Y188293D01*
X152368Y187714D01*
X152947Y187327D01*
X153630Y187192D01*
X163678D01*
X164361Y187327D01*
X164688Y187546D01*
X166068D01*
X166603Y187653D01*
X167005Y187573D01*
X171577D01*
X172260Y187708D01*
X172839Y188095D01*
X178836Y194092D01*
X179222Y194671D01*
X179358Y195354D01*
Y223266D01*
X179222Y223949D01*
X178836Y224528D01*
X178257Y224914D01*
X177574Y225050D01*
X176919Y224920D01*
X176460Y225380D01*
X175881Y225767D01*
X175198Y225902D01*
X173818D01*
X173741Y240908D01*
X174636Y241808D01*
X176887D01*
X176949Y241782D01*
X178143D01*
X178206Y241808D01*
X182880D01*
Y193548D01*
D02*
G37*
G36*
X221705Y241100D02*
Y232226D01*
X221429Y231384D01*
X220586Y231108D01*
X216668D01*
Y232933D01*
X216725Y232957D01*
X217639Y233871D01*
X218134Y235065D01*
Y236359D01*
X217639Y237553D01*
X216725Y238467D01*
X215530Y238962D01*
X214237D01*
X213043Y238467D01*
X212129Y237553D01*
X211634Y236359D01*
Y235065D01*
X212129Y233871D01*
X213043Y232957D01*
X213100Y232933D01*
Y231108D01*
X211339D01*
Y229085D01*
X210069Y228236D01*
X209920Y228298D01*
X208726D01*
X207624Y227841D01*
X207603Y227821D01*
X207364Y227920D01*
X206472Y228688D01*
X206789Y229453D01*
Y230795D01*
X206472Y231560D01*
X205707Y231877D01*
X201709D01*
X200944Y231560D01*
X200711Y230997D01*
X199932Y230664D01*
X199357Y230555D01*
X191187Y238725D01*
X191168Y238817D01*
X191100Y238919D01*
X191694Y240165D01*
X191723Y240189D01*
X194790D01*
X194997Y240275D01*
X195135Y240218D01*
X198057D01*
X198195Y240275D01*
X198402Y240189D01*
X202288D01*
X203316Y240615D01*
X203742Y241643D01*
Y242056D01*
X220749D01*
X221705Y241100D01*
D02*
G37*
G36*
X236122Y182661D02*
Y181353D01*
X236008Y181182D01*
X235977Y181025D01*
X235720Y180768D01*
X234243D01*
Y170768D01*
X238243D01*
X238243Y170768D01*
X238423D01*
Y170768D01*
X239513Y170768D01*
X242423D01*
Y170768D01*
X242602D01*
X242602Y170768D01*
X246602Y170768D01*
X247872Y170768D01*
X250781Y170768D01*
X252051Y170768D01*
X253871D01*
X254961Y170768D01*
Y170768D01*
X255140D01*
X255140Y170768D01*
X259140Y170768D01*
X260410Y170768D01*
X263320Y170768D01*
X264590Y170768D01*
X267410Y170768D01*
X267880Y169714D01*
X267898Y169663D01*
X268030Y168998D01*
X268417Y168419D01*
X271939Y164897D01*
Y162080D01*
X272025Y161873D01*
X271968Y161735D01*
Y158813D01*
X272285Y158048D01*
X273050Y157731D01*
X278130D01*
X278895Y158048D01*
X278969Y157994D01*
X279447Y157517D01*
X279855Y157348D01*
X280549Y157060D01*
X281743D01*
X282845Y157517D01*
X283689Y158361D01*
X284146Y159463D01*
Y160657D01*
X283689Y161759D01*
X282845Y162603D01*
X281743Y163060D01*
X280549D01*
X280511Y163044D01*
X279241Y163893D01*
Y165150D01*
X280962Y166872D01*
X286247D01*
X286285Y166813D01*
X286638Y165602D01*
X286003Y164963D01*
X286003Y164962D01*
X286001Y164962D01*
X285845Y164579D01*
X285688Y164197D01*
X285688Y164196D01*
X285688Y164195D01*
X285712Y158977D01*
X285754Y158876D01*
X285733Y158769D01*
X285910Y158506D01*
X285939Y158434D01*
X285717Y157897D01*
Y156555D01*
X286034Y155790D01*
X286173Y155732D01*
Y153261D01*
X286562Y152321D01*
X287503Y151931D01*
X290060D01*
Y144869D01*
X289844Y144348D01*
Y143552D01*
X290148Y142817D01*
X290186Y142780D01*
X290570Y141950D01*
X290186Y141120D01*
X290148Y141083D01*
X289844Y140348D01*
Y139552D01*
X290148Y138817D01*
X290711Y138254D01*
X291232Y138039D01*
X294385Y134885D01*
X294464Y134586D01*
X294479Y133862D01*
X294408Y133530D01*
X293195Y133122D01*
X285755Y140562D01*
X285628Y140869D01*
Y143031D01*
X285844Y143552D01*
Y144348D01*
X285539Y145083D01*
X284977Y145645D01*
X284500Y146926D01*
Y148219D01*
X284005Y149414D01*
X283091Y150328D01*
X281896Y150823D01*
X280604D01*
X280156Y151122D01*
Y151619D01*
X279662Y152814D01*
X278748Y153728D01*
X277553Y154223D01*
X276260D01*
X275066Y153728D01*
X274151Y152814D01*
X273657Y151619D01*
Y150343D01*
X272742Y149468D01*
X271290Y149676D01*
X270801Y150164D01*
X269699Y150621D01*
X268505D01*
X267939Y150999D01*
Y153726D01*
X267939Y153727D01*
X267939Y153727D01*
X267867Y154089D01*
X267803Y154409D01*
X267803Y154409D01*
X267803Y154409D01*
X267531Y154816D01*
X267417Y154988D01*
X267416Y154988D01*
X267416Y154988D01*
X265064Y157340D01*
X264704Y157581D01*
X264485Y157727D01*
X264485D01*
X264485Y157727D01*
X264122Y157799D01*
X263802Y157863D01*
X262589D01*
X261492Y158960D01*
X261597Y159213D01*
Y160505D01*
X261102Y161700D01*
X260188Y162614D01*
X258993Y163109D01*
X257701D01*
X257441Y163001D01*
X256416Y162768D01*
X255908Y163637D01*
X255786Y163932D01*
X254872Y164846D01*
X253677Y165341D01*
X252384D01*
X251190Y164846D01*
X250275Y163932D01*
X249781Y162737D01*
Y161915D01*
X248227Y160361D01*
X244729D01*
X244046Y160225D01*
X243467Y159838D01*
X239451Y155822D01*
X239064Y155243D01*
X238929Y154560D01*
Y147081D01*
X239064Y146398D01*
X239451Y145820D01*
X241933Y143338D01*
X242148Y142817D01*
X242186Y142780D01*
X242258Y142625D01*
X242172Y142333D01*
X241250Y141756D01*
X240977Y141645D01*
X240242Y141950D01*
X239446D01*
X238711Y141645D01*
X238148Y141083D01*
X237844Y140348D01*
Y139552D01*
X238148Y138817D01*
X238186Y138780D01*
X237644Y137914D01*
X236977Y137646D01*
X236242Y137950D01*
X236206D01*
X235435Y138721D01*
X234240Y139216D01*
X232947D01*
X232110Y140228D01*
X232069Y140615D01*
X232303Y140849D01*
X232690Y141428D01*
X232826Y142111D01*
Y142692D01*
X234096Y142944D01*
X234149Y142817D01*
X234711Y142254D01*
X235446Y141950D01*
X236242D01*
X236977Y142254D01*
X237540Y142817D01*
X237844Y143552D01*
Y144348D01*
X237540Y145083D01*
X236977Y145646D01*
X236255Y145944D01*
X236241Y145951D01*
X235306Y146786D01*
X235250Y147123D01*
Y148129D01*
X234755Y149324D01*
X233841Y150238D01*
X232646Y150733D01*
X231465D01*
X231219Y151026D01*
X230824Y151888D01*
X231355Y152419D01*
X231850Y153614D01*
Y154907D01*
X231355Y156101D01*
X231047Y156410D01*
X230968Y157697D01*
X231165Y157951D01*
X232139Y158925D01*
X232775Y160459D01*
Y162120D01*
X232139Y163655D01*
X230965Y164829D01*
X229431Y165465D01*
X227770D01*
X226235Y164829D01*
X225061Y163655D01*
X224425Y162120D01*
Y160789D01*
X224089Y160406D01*
X223684Y160084D01*
X223289Y159883D01*
X222898Y159961D01*
X219570D01*
X218888Y159825D01*
X218356Y159471D01*
X216614D01*
X215931Y159335D01*
X215353Y158948D01*
X213596Y157192D01*
X213183D01*
X212282Y156819D01*
X212197Y156733D01*
X211191Y156369D01*
X210630Y156702D01*
X210297Y157263D01*
X210661Y158268D01*
X210747Y158354D01*
X211120Y159255D01*
Y159669D01*
X215102Y163650D01*
X215405Y163853D01*
X218231Y166679D01*
X218832D01*
X220027Y167174D01*
X220941Y168088D01*
X221436Y169283D01*
Y169609D01*
X221669Y170613D01*
X222626Y170768D01*
X225705D01*
Y170768D01*
X225884D01*
Y170768D01*
X229884D01*
Y175346D01*
X229918Y175518D01*
X229884Y175690D01*
Y175846D01*
X229918Y176018D01*
Y178279D01*
X230559Y178920D01*
X230946Y179499D01*
X230977Y179656D01*
X232756Y181434D01*
X232945Y181472D01*
X233307Y181714D01*
X233523Y181859D01*
X234852Y183187D01*
X236122Y182661D01*
D02*
G37*
G36*
X100906Y160249D02*
X101029Y160126D01*
X102224Y159631D01*
X103022D01*
X106352Y156301D01*
Y127968D01*
X106172Y127762D01*
X105508Y127319D01*
X105131Y127204D01*
X104437Y127492D01*
X103243D01*
X102141Y127035D01*
X101631Y126526D01*
X99203D01*
X96801Y128928D01*
X97051Y129913D01*
X97146Y130097D01*
X97243Y130222D01*
X97806Y130333D01*
X98385Y130720D01*
X98949Y131284D01*
X102273D01*
X103301Y131710D01*
X103727Y132738D01*
Y136624D01*
X103641Y136831D01*
X103698Y136969D01*
Y139890D01*
X103381Y140656D01*
X102616Y140973D01*
X97536D01*
X96771Y140656D01*
X96454Y139890D01*
Y136969D01*
X96511Y136831D01*
X96425Y136624D01*
Y133808D01*
X96384Y133766D01*
X93094D01*
Y137189D01*
X93265Y137604D01*
Y138896D01*
X92771Y140091D01*
X91856Y141005D01*
X90662Y141500D01*
X89369D01*
X88175Y141005D01*
X87260Y140091D01*
X86766Y138896D01*
Y138775D01*
X85866Y138458D01*
X85033Y139488D01*
X85070Y139677D01*
Y140944D01*
X85701Y141205D01*
X86615Y142119D01*
X87110Y143314D01*
Y144607D01*
X86615Y145801D01*
X85701Y146715D01*
X84507Y147210D01*
X83642D01*
X83046Y148411D01*
X85336Y150700D01*
X85723Y151279D01*
X85858Y151962D01*
Y153636D01*
X86271D01*
X87299Y154062D01*
X87725Y155090D01*
Y155249D01*
X91434D01*
X92117Y155385D01*
X92696Y155771D01*
X96579Y159655D01*
X96636Y159631D01*
X97928D01*
X99123Y160126D01*
X99246Y160249D01*
X100076Y161005D01*
X100906Y160249D01*
D02*
G37*
G36*
X292758Y165005D02*
X296644D01*
X296851Y165091D01*
X296989Y165034D01*
X299532D01*
X299974Y164592D01*
Y157988D01*
X297975D01*
Y158405D01*
X297658Y159170D01*
X296893Y159487D01*
X292895D01*
X292130Y159170D01*
X291562Y158662D01*
X290797Y158979D01*
X286799D01*
X286794Y158982D01*
X286770Y164200D01*
X287666Y165100D01*
X292529D01*
X292758Y165005D01*
D02*
G37*
G36*
X131967Y152980D02*
X132282Y152665D01*
X133183Y152292D01*
X134157D01*
X135058Y152665D01*
X135373Y152980D01*
X136170Y153224D01*
X136967Y152980D01*
X137282Y152665D01*
X138182Y152292D01*
X139157D01*
X140058Y152665D01*
X140143Y152751D01*
X141149Y153115D01*
X141787Y152735D01*
X142112Y152411D01*
X143123Y151992D01*
X144217D01*
X145228Y152411D01*
X145553Y152735D01*
X146192Y153115D01*
X147197Y152751D01*
X147282Y152665D01*
X148183Y152292D01*
X149158D01*
X150058Y152665D01*
X150144Y152751D01*
X151149Y153115D01*
X151788Y152735D01*
X152112Y152411D01*
X153123Y151992D01*
X154217D01*
X155228Y152411D01*
X156372Y151758D01*
X156572Y151323D01*
X156436Y150640D01*
Y148761D01*
X156379Y148737D01*
X155465Y147823D01*
X155050Y146822D01*
X154157Y147192D01*
X153397D01*
X152142Y148446D01*
X151956Y148570D01*
X151530Y149600D01*
X150616Y150514D01*
X149421Y151009D01*
X148128D01*
X146934Y150514D01*
X146020Y149600D01*
X145525Y148405D01*
Y148000D01*
X144255Y147151D01*
X144157Y147192D01*
X143183D01*
X142282Y146819D01*
X141593Y146130D01*
X141220Y145229D01*
Y144255D01*
X141593Y143354D01*
X141908Y143039D01*
X142153Y142242D01*
X141908Y141445D01*
X141593Y141130D01*
X141220Y140230D01*
Y139255D01*
X141593Y138354D01*
X141765Y138182D01*
X141717Y136848D01*
X141212Y136606D01*
X139963Y137263D01*
X139741Y138306D01*
Y139500D01*
X139284Y140602D01*
X138441Y141446D01*
X137338Y141903D01*
X136145D01*
X136054Y141866D01*
X135335Y142942D01*
X135747Y143354D01*
X136120Y144255D01*
Y145229D01*
X135747Y146130D01*
X135058Y146819D01*
X134157Y147192D01*
X133183D01*
X132282Y146819D01*
X131967Y146503D01*
X131170Y146259D01*
X130373Y146503D01*
X130058Y146819D01*
X129157Y147192D01*
X128182D01*
X127282Y146819D01*
X126593Y146130D01*
X126220Y145229D01*
Y144255D01*
X126593Y143354D01*
X127282Y142665D01*
X128182Y142292D01*
X129157D01*
X130058Y142665D01*
X130373Y142980D01*
X131170Y143224D01*
X131967Y142980D01*
X132282Y142665D01*
X133183Y142292D01*
X134092D01*
X134256Y142110D01*
X134765Y141169D01*
X134198Y140602D01*
X133741Y139500D01*
Y138306D01*
X133681Y138186D01*
X132880Y137066D01*
X132282Y136819D01*
X131967Y136503D01*
X131170Y136259D01*
X130373Y136503D01*
X130058Y136819D01*
X129157Y137192D01*
X128182D01*
X127282Y136819D01*
X126593Y136130D01*
X126220Y135229D01*
Y134255D01*
X126593Y133354D01*
X126965Y132982D01*
X126981Y132853D01*
X126763Y131729D01*
X126690Y131598D01*
X125921Y131279D01*
X125007Y130365D01*
X124512Y129171D01*
Y127878D01*
X125007Y126683D01*
X125921Y125769D01*
X126367Y125584D01*
X126220Y125229D01*
Y124255D01*
X125707Y123488D01*
X125502D01*
X124399Y123031D01*
X123555Y122187D01*
X123240Y121426D01*
X122119Y120961D01*
X121829Y120925D01*
X121001Y121300D01*
X120676Y121624D01*
X120296Y122263D01*
X120661Y123268D01*
X120747Y123354D01*
X121120Y124255D01*
Y125229D01*
X120747Y126130D01*
X120431Y126445D01*
X120187Y127242D01*
X120431Y128039D01*
X120747Y128354D01*
X121120Y129255D01*
Y130230D01*
X120747Y131130D01*
X120432Y131445D01*
X120187Y132242D01*
X120432Y133039D01*
X120747Y133354D01*
X121120Y134255D01*
Y135229D01*
X120747Y136130D01*
X120431Y136445D01*
X120187Y137242D01*
X120431Y138039D01*
X120747Y138354D01*
X121120Y139255D01*
Y140230D01*
X120747Y141130D01*
X120432Y141445D01*
X120187Y142242D01*
X120432Y143039D01*
X120747Y143354D01*
X121120Y144255D01*
Y145229D01*
X120747Y146130D01*
X120431Y146445D01*
X120187Y147242D01*
X120431Y148039D01*
X120747Y148354D01*
X121120Y149255D01*
Y150230D01*
X120747Y151130D01*
X120432Y151445D01*
X120315Y151825D01*
X120776Y152789D01*
X122111Y152837D01*
X122282Y152665D01*
X123183Y152292D01*
X124157D01*
X125058Y152665D01*
X125373Y152980D01*
X126170Y153224D01*
X126967Y152980D01*
X127282Y152665D01*
X128182Y152292D01*
X129157D01*
X130058Y152665D01*
X130373Y152980D01*
X131170Y153224D01*
X131967Y152980D01*
D02*
G37*
G36*
X192000Y152523D02*
X192112Y152411D01*
X193123Y151992D01*
X194217D01*
X195228Y152411D01*
X195340Y152523D01*
X196170Y153072D01*
X197000Y152523D01*
X197112Y152411D01*
X197964Y152058D01*
X197974Y152009D01*
X197479Y150815D01*
Y149522D01*
X197957Y148368D01*
X197959Y148357D01*
X197966Y148298D01*
X197568Y146937D01*
X197282Y146819D01*
X196967Y146503D01*
X196170Y146259D01*
X195373Y146503D01*
X195058Y146819D01*
X194157Y147192D01*
X193183D01*
X192282Y146819D01*
X191593Y146130D01*
X191220Y145229D01*
Y144255D01*
X191593Y143354D01*
X192282Y142665D01*
X193183Y142292D01*
X194157D01*
X195058Y142665D01*
X195373Y142980D01*
X196170Y143224D01*
X196967Y142980D01*
X197282Y142665D01*
X198034Y142353D01*
X198388Y141612D01*
X198567Y141022D01*
X198120Y139943D01*
Y138650D01*
X198198Y138462D01*
X198196Y138282D01*
X197502Y136910D01*
X197282Y136819D01*
X196967Y136503D01*
X196170Y136259D01*
X195373Y136503D01*
X195058Y136819D01*
X194157Y137192D01*
X193183D01*
X192282Y136819D01*
X191967Y136504D01*
X191170Y136259D01*
X190373Y136504D01*
X190058Y136819D01*
X189158Y137192D01*
X188183D01*
X187282Y136819D01*
X187216Y136752D01*
X185830Y136825D01*
X185530Y137614D01*
X185676Y137860D01*
X186001Y138184D01*
X186420Y139195D01*
Y140289D01*
X186001Y141300D01*
X185889Y141412D01*
X185339Y142242D01*
X185889Y143072D01*
X186001Y143184D01*
X186420Y144195D01*
Y145289D01*
X186001Y146300D01*
X185228Y147073D01*
X184217Y147492D01*
X183123D01*
X182112Y147073D01*
X181339Y146300D01*
X180920Y145289D01*
Y144195D01*
X181339Y143184D01*
X181451Y143072D01*
X182001Y142242D01*
X181451Y141412D01*
X181339Y141300D01*
X180920Y140289D01*
Y139195D01*
X181339Y138184D01*
X181663Y137860D01*
X181769Y137683D01*
X181329Y136465D01*
X179535D01*
X179041Y137659D01*
X178127Y138573D01*
X176932Y139068D01*
X176245D01*
X176120Y139255D01*
Y140230D01*
X175747Y141130D01*
X175432Y141445D01*
X175187Y142242D01*
X175432Y143039D01*
X175747Y143354D01*
X176120Y144255D01*
Y145229D01*
X175747Y146130D01*
X175058Y146819D01*
X174157Y147192D01*
X173183D01*
X172282Y146819D01*
X171593Y146130D01*
X171220Y145229D01*
Y144255D01*
X171593Y143354D01*
X171908Y143039D01*
X172153Y142242D01*
X171908Y141445D01*
X171593Y141130D01*
X171220Y140230D01*
Y139255D01*
X171593Y138354D01*
X171908Y138039D01*
X172015Y137691D01*
X171265Y136526D01*
X166075D01*
X165325Y137691D01*
X165431Y138039D01*
X165747Y138354D01*
X166120Y139255D01*
Y140230D01*
X165747Y141130D01*
X165432Y141445D01*
X165187Y142242D01*
X165432Y143039D01*
X165747Y143354D01*
X166120Y144255D01*
Y145229D01*
X165747Y146130D01*
X165058Y146819D01*
X164157Y147192D01*
X163183D01*
X162606Y146953D01*
X162233Y146846D01*
X161126Y147459D01*
X160975Y147823D01*
X160061Y148737D01*
X160004Y148761D01*
Y149961D01*
X160270Y150359D01*
X160406Y151042D01*
Y152370D01*
X161629Y152829D01*
X161788Y152735D01*
X162112Y152411D01*
X163123Y151992D01*
X164217D01*
X165228Y152411D01*
X165340Y152523D01*
X166170Y153072D01*
X167000Y152523D01*
X167113Y152411D01*
X168123Y151992D01*
X169217D01*
X170228Y152411D01*
X170340Y152523D01*
X171170Y153073D01*
X172000Y152523D01*
X172112Y152411D01*
X173123Y151992D01*
X174217D01*
X175228Y152411D01*
X175340Y152523D01*
X176170Y153072D01*
X177000Y152523D01*
X177113Y152411D01*
X178123Y151992D01*
X179217D01*
X180228Y152411D01*
X180340Y152523D01*
X181170Y153073D01*
X182000Y152523D01*
X182112Y152411D01*
X183123Y151992D01*
X184217D01*
X185228Y152411D01*
X185340Y152523D01*
X186170Y153072D01*
X187000Y152523D01*
X187113Y152411D01*
X188123Y151992D01*
X189217D01*
X190228Y152411D01*
X190340Y152523D01*
X191170Y153073D01*
X192000Y152523D01*
D02*
G37*
G36*
X206921Y136485D02*
X206909Y136445D01*
X206593Y136130D01*
X206220Y135229D01*
Y134255D01*
X206593Y133354D01*
X206679Y133268D01*
X207043Y132263D01*
X206663Y131624D01*
X206339Y131300D01*
X205920Y130289D01*
Y129195D01*
X206339Y128184D01*
X206451Y128072D01*
X207001Y127242D01*
X206451Y126412D01*
X206339Y126300D01*
X205920Y125289D01*
Y124195D01*
X206339Y123184D01*
X206663Y122860D01*
X207043Y122221D01*
X206679Y121216D01*
X206593Y121130D01*
X206220Y120230D01*
Y119255D01*
X206593Y118354D01*
X206679Y118268D01*
X207043Y117263D01*
X206664Y116624D01*
X206339Y116300D01*
X205920Y115289D01*
Y114195D01*
X206339Y113184D01*
X206451Y113072D01*
X206615Y112825D01*
X206539Y112578D01*
X205319Y111839D01*
X205102Y111823D01*
X204988Y111848D01*
X204157Y112192D01*
X203183D01*
X202282Y111819D01*
X201593Y111130D01*
X201220Y110230D01*
Y109255D01*
X201593Y108354D01*
X202282Y107665D01*
X203183Y107292D01*
X204157D01*
X204988Y107636D01*
X205101Y107662D01*
X205319Y107645D01*
X206539Y106906D01*
X206615Y106659D01*
X206451Y106412D01*
X206339Y106300D01*
X205920Y105289D01*
Y104195D01*
X206339Y103184D01*
X206451Y103072D01*
X206834Y102494D01*
X206516Y102174D01*
X205292Y102001D01*
X204190Y102457D01*
X202996D01*
X202133Y102100D01*
X201588Y102307D01*
X201574Y102330D01*
X201037Y103532D01*
X201378Y104355D01*
Y105449D01*
X200959Y106460D01*
X200186Y107233D01*
X199175Y107652D01*
X199092Y107777D01*
X199452Y108646D01*
Y109939D01*
X199003Y111022D01*
X199043Y111350D01*
X199466Y112420D01*
X200058Y112665D01*
X200747Y113354D01*
X201120Y114255D01*
Y115229D01*
X200747Y116130D01*
X200058Y116819D01*
X199158Y117192D01*
X198183D01*
X197282Y116819D01*
X196967Y116503D01*
X196170Y116259D01*
X195373Y116503D01*
X195058Y116819D01*
X194157Y117192D01*
X193183D01*
X192282Y116819D01*
X191967Y116504D01*
X191170Y116259D01*
X190373Y116504D01*
X190058Y116819D01*
X189158Y117192D01*
X188183D01*
X187282Y116819D01*
X187196Y116733D01*
X186191Y116369D01*
X185553Y116748D01*
X185228Y117073D01*
X184217Y117492D01*
X183123D01*
X182112Y117073D01*
X181339Y116300D01*
X180920Y115289D01*
Y114195D01*
X181339Y113184D01*
X181488Y113035D01*
X181799Y111941D01*
X181448Y111416D01*
X181064Y111032D01*
X180645Y110021D01*
Y108927D01*
X181064Y107916D01*
X181837Y107143D01*
X181409Y106370D01*
X181339Y106300D01*
X180920Y105289D01*
Y104195D01*
X180937Y104154D01*
X180492Y103568D01*
X179995Y103108D01*
X178851D01*
X177656Y102613D01*
X177288Y102245D01*
X175753Y102310D01*
X175373Y102846D01*
X175432Y103039D01*
X175747Y103354D01*
X176120Y104255D01*
Y105229D01*
X175747Y106130D01*
X175454Y106423D01*
Y108062D01*
X175747Y108354D01*
X176120Y109255D01*
Y110230D01*
X175747Y111130D01*
X175454Y111423D01*
Y113061D01*
X175747Y113354D01*
X176120Y114255D01*
Y115229D01*
X175747Y116130D01*
X175431Y116445D01*
X175187Y117242D01*
X175431Y118039D01*
X175747Y118354D01*
X176120Y119255D01*
Y120230D01*
X175747Y121130D01*
X175058Y121819D01*
X174157Y122192D01*
X173183D01*
X172282Y121819D01*
X172007Y121982D01*
X171413Y123184D01*
X171908Y124379D01*
Y125672D01*
X171413Y126866D01*
X172282Y127665D01*
X173183Y127292D01*
X174157D01*
X175058Y127665D01*
X175747Y128354D01*
X176120Y129255D01*
Y130230D01*
X175747Y131130D01*
X175536Y131341D01*
X175755Y132568D01*
X176932D01*
X177726Y132897D01*
X182050D01*
X182282Y132665D01*
X183183Y132292D01*
X184157D01*
X185058Y132665D01*
X185373Y132980D01*
X186170Y133224D01*
X186967Y132980D01*
X187282Y132665D01*
X188183Y132292D01*
X189158D01*
X190058Y132665D01*
X190373Y132980D01*
X191170Y133224D01*
X191967Y132980D01*
X192282Y132665D01*
X193183Y132292D01*
X194157D01*
X195058Y132665D01*
X195373Y132980D01*
X196170Y133224D01*
X196967Y132980D01*
X197282Y132665D01*
X198183Y132292D01*
X199158D01*
X200058Y132665D01*
X200747Y133354D01*
X201120Y134255D01*
Y135229D01*
X201667Y136047D01*
X202017D01*
X203211Y136542D01*
X204125Y137456D01*
X204241Y137735D01*
X206428D01*
X206921Y136485D01*
D02*
G37*
G36*
X141967Y132980D02*
X142282Y132665D01*
X143183Y132292D01*
X144157D01*
X145058Y132665D01*
X145351Y132958D01*
X151886D01*
Y131423D01*
X151593Y131130D01*
X151220Y130230D01*
Y129255D01*
X151593Y128354D01*
X152282Y127665D01*
X153183Y127292D01*
X154157D01*
X154371Y127150D01*
Y126645D01*
X154827Y125543D01*
X155671Y124699D01*
X156774Y124242D01*
X157967D01*
X159070Y124699D01*
X159914Y125543D01*
X160371Y126645D01*
Y127839D01*
X159914Y128941D01*
X159070Y129785D01*
X157967Y130242D01*
X156774D01*
X155747Y131130D01*
X155454Y131423D01*
Y132958D01*
X161265D01*
X162015Y131793D01*
X161908Y131445D01*
X161593Y131130D01*
X161220Y130230D01*
Y129255D01*
X161593Y128354D01*
X162282Y127665D01*
X163183Y127292D01*
X163732D01*
X165408Y125616D01*
Y124379D01*
X165902Y123184D01*
X165313Y121977D01*
X165058Y121819D01*
X164157Y122192D01*
X163183D01*
X162282Y121819D01*
X161989Y121526D01*
X155351D01*
X155058Y121819D01*
X154157Y122192D01*
X153183D01*
X152282Y121819D01*
X151747Y121284D01*
X151718Y121290D01*
X150804Y122204D01*
X149610Y122699D01*
X148317D01*
X147122Y122204D01*
X146208Y121290D01*
X145713Y120095D01*
Y118802D01*
X146208Y117608D01*
X147122Y116694D01*
X148317Y116199D01*
X149610D01*
X150379Y116517D01*
X151376Y115606D01*
X151220Y115229D01*
Y114255D01*
X151593Y113354D01*
X151886Y113061D01*
Y111423D01*
X151593Y111130D01*
X151220Y110230D01*
Y109255D01*
X151593Y108354D01*
X151886Y108062D01*
Y106423D01*
X151593Y106130D01*
X151220Y105229D01*
Y104255D01*
X151593Y103354D01*
X151886Y103061D01*
Y101423D01*
X151593Y101130D01*
X151220Y100230D01*
Y99255D01*
X151593Y98354D01*
X152282Y97665D01*
X153183Y97292D01*
X154157D01*
X155058Y97665D01*
X155747Y98354D01*
X156120Y99255D01*
Y100230D01*
X155747Y101130D01*
X155689Y101187D01*
X155790Y102554D01*
X156619Y103087D01*
X156967Y102980D01*
X157282Y102665D01*
X158183Y102292D01*
X159158D01*
X160058Y102665D01*
X160913Y101749D01*
X160939Y101688D01*
X160535Y101284D01*
X160040Y100089D01*
Y98796D01*
X160535Y97602D01*
X161449Y96687D01*
X162643Y96193D01*
X163936D01*
X164087Y96255D01*
X164259Y96200D01*
X165260Y95366D01*
Y94587D01*
X165474Y94069D01*
X163597Y92192D01*
X163183D01*
X162282Y91819D01*
X161593Y91130D01*
X161220Y90229D01*
Y89254D01*
X161593Y88354D01*
X162015Y87545D01*
X161100Y86631D01*
X160606Y85436D01*
Y84143D01*
X161100Y82949D01*
X162015Y82035D01*
X161593Y81130D01*
X161220Y80229D01*
Y79254D01*
X161593Y78354D01*
X161908Y78039D01*
X162038Y77616D01*
X161553Y76803D01*
X160450Y76621D01*
X159255Y77116D01*
X157962D01*
X156768Y76621D01*
X156510Y76710D01*
X156015Y77795D01*
X156001Y78184D01*
X156420Y79195D01*
Y80289D01*
X156001Y81299D01*
X156545Y82552D01*
X157017Y83024D01*
X157436Y84035D01*
Y85129D01*
X157017Y86140D01*
X156244Y86913D01*
X156001Y88184D01*
X156037Y88269D01*
X156420Y89195D01*
Y90289D01*
X156001Y91299D01*
X155228Y92073D01*
X154217Y92492D01*
X153123D01*
X152578Y92266D01*
X151369Y91867D01*
X150454Y92781D01*
X149260Y93276D01*
X147967D01*
X146877Y92825D01*
X146530Y93027D01*
X145883Y93683D01*
X146120Y94255D01*
Y95229D01*
X145747Y96130D01*
X145058Y96819D01*
X144157Y97192D01*
X144122D01*
X140449Y100866D01*
X139907Y101228D01*
X139860Y101454D01*
X139805Y102560D01*
X140058Y102665D01*
X140373Y102980D01*
X141170Y103225D01*
X141967Y102980D01*
X142282Y102665D01*
X143183Y102292D01*
X144157D01*
X145058Y102665D01*
X145747Y103354D01*
X146120Y104255D01*
Y105229D01*
X145747Y106130D01*
X145058Y106819D01*
X144157Y107192D01*
X143743D01*
X139766Y111170D01*
X139750Y111789D01*
X139947Y112619D01*
X140058Y112665D01*
X140373Y112980D01*
X141170Y113224D01*
X141967Y112980D01*
X142282Y112665D01*
X143183Y112292D01*
X144157D01*
X145058Y112665D01*
X145747Y113354D01*
X146120Y114255D01*
Y115229D01*
X145747Y116130D01*
X145058Y116819D01*
X144157Y117192D01*
X143743D01*
X139766Y121170D01*
X140023Y122651D01*
X140058Y122665D01*
X140373Y122980D01*
X141170Y123224D01*
X141967Y122980D01*
X142282Y122665D01*
X143183Y122292D01*
X144157D01*
X145058Y122665D01*
X145747Y123354D01*
X146120Y124255D01*
Y125229D01*
X145747Y126130D01*
X145058Y126819D01*
X144157Y127192D01*
X143183D01*
X142282Y126819D01*
X141967Y126503D01*
X141170Y126259D01*
X140373Y126503D01*
X140058Y126819D01*
X139157Y127192D01*
X138182D01*
X137282Y126819D01*
X136967Y126504D01*
X136170Y126259D01*
X135373Y126504D01*
X135058Y126819D01*
X134157Y127192D01*
X133183D01*
X132282Y126819D01*
X131006Y127250D01*
X130827Y127431D01*
X131012Y127878D01*
Y129171D01*
X130517Y130365D01*
X129728Y131154D01*
X129707Y131907D01*
X129817Y132565D01*
X130058Y132665D01*
X130373Y132980D01*
X131170Y133224D01*
X131967Y132980D01*
X132282Y132665D01*
X133183Y132292D01*
X134157D01*
X135058Y132665D01*
X135373Y132980D01*
X136170Y133224D01*
X136967Y132980D01*
X137282Y132665D01*
X138182Y132292D01*
X139157D01*
X140058Y132665D01*
X140373Y132980D01*
X141170Y133224D01*
X141967Y132980D01*
D02*
G37*
G36*
X26681Y134374D02*
X27260Y133988D01*
X27943Y133852D01*
X49022D01*
X49705Y133988D01*
X50001Y134185D01*
X51060Y133424D01*
X50921Y133089D01*
Y131796D01*
X51416Y130602D01*
X52330Y129687D01*
X52724Y129524D01*
X53484Y128554D01*
X53446Y127955D01*
X53413Y127789D01*
Y126834D01*
X52487Y125908D01*
X52431Y125932D01*
X51137D01*
X49943Y125437D01*
X49029Y124523D01*
X48534Y123329D01*
Y122036D01*
X49029Y120841D01*
X49943Y119927D01*
X51137Y119432D01*
X52431D01*
X53625Y119927D01*
X54539Y120841D01*
X55034Y122036D01*
Y123329D01*
X55010Y123385D01*
X56459Y124833D01*
X56845Y125412D01*
X56981Y126095D01*
Y127050D01*
X58775Y128843D01*
X64201D01*
X64687Y127670D01*
X60365Y123348D01*
X59978Y122769D01*
X59842Y122086D01*
Y121638D01*
X55730Y117527D01*
X55673Y117550D01*
X54381D01*
X53186Y117055D01*
X52272Y116141D01*
X52053Y115612D01*
X50604Y115265D01*
X45846Y120022D01*
X45846Y120022D01*
X45846Y120023D01*
X45638Y120109D01*
X45050Y120442D01*
X44699Y121609D01*
Y127091D01*
X44563Y127774D01*
X44176Y128352D01*
X41824Y130705D01*
X41245Y131092D01*
X40562Y131228D01*
X35006D01*
X34323Y131092D01*
X33744Y130705D01*
X28806Y125766D01*
X25094D01*
Y134302D01*
X26267Y134788D01*
X26681Y134374D01*
D02*
G37*
G36*
X10922Y118383D02*
X10379Y118158D01*
X9535Y117314D01*
X8086Y117136D01*
X6326Y118896D01*
X7073Y119643D01*
X7568Y120837D01*
Y122130D01*
X7340Y122682D01*
X8105Y123952D01*
X10922D01*
Y118383D01*
D02*
G37*
G36*
X304908Y122596D02*
X305683Y121451D01*
X305636Y121212D01*
X304721Y120297D01*
X304227Y119103D01*
Y117810D01*
X304721Y116615D01*
X305636Y115701D01*
X305892Y114376D01*
X304609Y114007D01*
X303414Y114502D01*
X302122D01*
X300927Y114007D01*
X300013Y113093D01*
X299518Y111898D01*
Y110605D01*
X300013Y109411D01*
X300927Y108497D01*
X302122Y108002D01*
X303414D01*
X304609Y108497D01*
X305523Y109411D01*
X305784Y110042D01*
X306748D01*
X307430Y110178D01*
X308009Y110564D01*
X311410Y113965D01*
X311446Y113950D01*
X312242D01*
X312977Y114255D01*
X313014Y114292D01*
X313415Y114477D01*
X313702Y114190D01*
X314148Y113083D01*
X313844Y112348D01*
Y111552D01*
X314148Y110817D01*
X314186Y110780D01*
X313774Y110020D01*
X313392Y109813D01*
X312977Y109646D01*
X312242Y109950D01*
X311446D01*
X310711Y109646D01*
X310704Y109639D01*
X309847D01*
X309164Y109503D01*
X308585Y109116D01*
X308021Y108552D01*
X307844D01*
X307161Y108416D01*
X306582Y108029D01*
X299982Y101429D01*
X299596Y100850D01*
X299460Y100167D01*
Y91358D01*
X298701Y90599D01*
X298244Y89497D01*
Y88303D01*
X298701Y87201D01*
X299460Y86442D01*
Y83778D01*
X299596Y83095D01*
X299982Y82516D01*
X303328Y79171D01*
X303342Y79017D01*
X302956Y77748D01*
X302922Y77733D01*
X302711Y77646D01*
X302694Y77629D01*
X301827Y77232D01*
X301014Y77608D01*
X300977Y77646D01*
X300242Y77950D01*
X299446D01*
X298711Y77646D01*
X298674Y77608D01*
X297844Y77224D01*
X297014Y77608D01*
X296977Y77646D01*
X296242Y77950D01*
X295446D01*
X294711Y77646D01*
X294674Y77608D01*
X293844Y77224D01*
X293014Y77608D01*
X292977Y77646D01*
X292242Y77950D01*
X291446D01*
X290711Y77646D01*
X290148Y77083D01*
X289844Y76348D01*
Y75552D01*
X290148Y74817D01*
X290186Y74780D01*
X290570Y73950D01*
X290186Y73120D01*
X290148Y73083D01*
X289844Y72348D01*
Y71552D01*
X290148Y70817D01*
X290711Y70255D01*
X291446Y69950D01*
X292242D01*
X292977Y70255D01*
X293014Y70292D01*
X293844Y70676D01*
X294674Y70292D01*
X294711Y70255D01*
X295446Y69950D01*
X296242D01*
X296837Y70196D01*
X297012Y70118D01*
X297272Y69380D01*
X297145Y68456D01*
X296689Y67353D01*
Y66160D01*
X297145Y65057D01*
X297989Y64213D01*
X299092Y63756D01*
X299122D01*
X299373Y62496D01*
X299368Y62484D01*
X299035Y62346D01*
X298609Y61318D01*
Y61159D01*
X296259D01*
Y61318D01*
X295833Y62346D01*
X294805Y62772D01*
X293260D01*
X292411Y64040D01*
Y65333D01*
X291916Y66528D01*
X291002Y67442D01*
X289807Y67937D01*
X288515D01*
X287874Y67671D01*
X287337Y68030D01*
X286655Y68166D01*
X286292D01*
X285628Y68829D01*
Y71031D01*
X285844Y71552D01*
Y72348D01*
X285628Y72869D01*
Y75031D01*
X285844Y75552D01*
Y76348D01*
X285766Y76536D01*
X285998Y76977D01*
X286617Y77665D01*
X287651D01*
X288846Y78160D01*
X289760Y79074D01*
X290255Y80268D01*
Y81561D01*
X289760Y82756D01*
X288846Y83670D01*
X287651Y84165D01*
X286358D01*
X285164Y83670D01*
X284249Y82756D01*
X283988Y82125D01*
X282818D01*
X282136Y81989D01*
X281909Y81838D01*
X281832Y81915D01*
X281253Y82302D01*
X280570Y82438D01*
X277074D01*
X276391Y82302D01*
X275812Y81915D01*
X274732Y80835D01*
X274383Y80762D01*
X274182Y80767D01*
X273238Y80959D01*
X273106Y81156D01*
X272905Y81357D01*
X272844Y81663D01*
X272458Y82242D01*
X269646Y85053D01*
Y94711D01*
X270240Y95306D01*
X270735Y96500D01*
Y97793D01*
X270240Y98987D01*
X269326Y99902D01*
X268131Y100396D01*
X266838D01*
X266064Y100076D01*
X264739Y100656D01*
X264608Y101270D01*
X265725Y102387D01*
X265828Y102344D01*
X267121D01*
X268315Y102839D01*
X269230Y103753D01*
X269259Y103823D01*
X270504Y104071D01*
X274697Y99878D01*
X275276Y99492D01*
X275958Y99356D01*
X279286D01*
X279968Y99492D01*
X280547Y99878D01*
X287673Y107004D01*
X289056Y106592D01*
X289303Y105997D01*
X290147Y105153D01*
X291249Y104696D01*
X292443D01*
X293545Y105153D01*
X294389Y105997D01*
X294846Y107099D01*
Y108293D01*
X294389Y109395D01*
X293545Y110239D01*
X292836Y110533D01*
X292333Y111021D01*
X292016Y111966D01*
X292045Y112116D01*
Y112879D01*
X301239Y122073D01*
X302312D01*
X303415Y122529D01*
X303704Y122819D01*
X304908Y122596D01*
D02*
G37*
G36*
X24384Y106934D02*
X22410D01*
X21378Y107982D01*
Y110198D01*
X24384D01*
Y106934D01*
D02*
G37*
G36*
X14224Y113284D02*
X16873D01*
X16997Y113212D01*
X17816Y112014D01*
X17810Y111982D01*
Y107982D01*
X16779Y106934D01*
X11430D01*
X10480Y107884D01*
Y109918D01*
X10423Y110057D01*
X10509Y110264D01*
Y111964D01*
X11481Y112614D01*
X12675D01*
X13777Y113071D01*
X14107Y113401D01*
X14224Y113284D01*
D02*
G37*
G36*
X337395Y117775D02*
X337396Y15497D01*
Y-4405D01*
X337329Y-5332D01*
X337299Y-5357D01*
X337133Y-5629D01*
X336307Y-6408D01*
X324273Y-14401D01*
X324144Y-14475D01*
X323067Y-15077D01*
X323067Y-15077D01*
X321996Y-15714D01*
X308731Y-22287D01*
X307579Y-22771D01*
X307471Y-22816D01*
X306329Y-23325D01*
X294292Y-27809D01*
X293102Y-28252D01*
X291968Y-28582D01*
X291052Y-28916D01*
X290773Y-29017D01*
X278437Y-32537D01*
X277267Y-32769D01*
X277266Y-32768D01*
X276353Y-33045D01*
X276048Y-33135D01*
X274806Y-33402D01*
X271861Y-34036D01*
X247055D01*
Y-19738D01*
X246738Y-18973D01*
X245973Y-18656D01*
X233472D01*
X232707Y-18973D01*
X232390Y-19738D01*
Y-34036D01*
X205653D01*
X204458Y-32574D01*
X204396Y-32523D01*
X204354Y-32455D01*
X204050Y-32237D01*
X203761Y-31999D01*
X203685Y-31976D01*
X203619Y-31929D01*
X198188Y-29473D01*
X198152Y-29464D01*
X198120Y-29443D01*
X197713Y-29362D01*
X197309Y-29268D01*
X197272Y-29274D01*
X197235Y-29267D01*
X139619D01*
X139186Y-29353D01*
X138751Y-29436D01*
X133220Y-31671D01*
X133133Y-31728D01*
X133033Y-31756D01*
X132758Y-31974D01*
X132465Y-32166D01*
X132407Y-32252D01*
X132325Y-32317D01*
X130862Y-34036D01*
X118152D01*
X117626Y-32766D01*
X117817Y-32575D01*
X118312Y-31381D01*
Y-30087D01*
X117817Y-28893D01*
X116903Y-27979D01*
X115709Y-27484D01*
X114416D01*
X113221Y-27979D01*
X112307Y-28893D01*
X111812Y-30087D01*
Y-31381D01*
X112307Y-32575D01*
X112498Y-32766D01*
X111972Y-34036D01*
X107549D01*
Y-19738D01*
X107232Y-18973D01*
X106466Y-18655D01*
X93966D01*
X93200Y-18973D01*
X92883Y-19738D01*
Y-34036D01*
X74943D01*
X56376Y-30333D01*
X56227Y-30294D01*
X55039Y-29960D01*
Y-29960D01*
X53836Y-29648D01*
X29447Y-21300D01*
X28479Y-20956D01*
X28449Y-20881D01*
X28282Y-20811D01*
X27171Y-20297D01*
X12484Y-12455D01*
X11453Y-11782D01*
X11267Y-11705D01*
X10263Y-11011D01*
X5886Y-7594D01*
X4998Y-6734D01*
X4971Y-6669D01*
X4880Y-6631D01*
X4084Y-5939D01*
X4046Y-5897D01*
X247Y-1661D01*
X177Y-1493D01*
X-0Y210D01*
X50Y1361D01*
X-1Y1483D01*
Y1483D01*
X-99Y1574D01*
X-95Y2402D01*
X333Y17073D01*
X315Y17180D01*
X329Y17287D01*
X-157Y24956D01*
X-205Y25136D01*
X-210Y25323D01*
X-1310Y30152D01*
X-1438Y31368D01*
X-1544Y31622D01*
X-1614Y32824D01*
Y64494D01*
X-1597Y65669D01*
X-1438Y66052D01*
X-1423Y66066D01*
X-512Y66888D01*
X159Y67038D01*
X281Y66915D01*
X1475Y66421D01*
X2192D01*
X2413Y66088D01*
Y64795D01*
X2908Y63601D01*
X3823Y62687D01*
X5017Y62192D01*
X5506D01*
X5758Y60922D01*
X5525Y60825D01*
X4611Y59911D01*
X4116Y58716D01*
Y57424D01*
X4611Y56229D01*
X5525Y55315D01*
X6719Y54820D01*
X8012D01*
X9207Y55315D01*
X9766Y55874D01*
X10353D01*
X11036Y56009D01*
X11615Y56396D01*
X13351Y58132D01*
X15345D01*
X15871Y56862D01*
X10831Y51822D01*
X9383D01*
X9359Y51879D01*
X8445Y52793D01*
X7250Y53288D01*
X5957D01*
X4763Y52793D01*
X3849Y51879D01*
X3354Y50684D01*
Y49391D01*
X3849Y48197D01*
X4763Y47283D01*
X5957Y46788D01*
X7250D01*
X8445Y47283D01*
X9359Y48197D01*
X9383Y48254D01*
X11570D01*
X12253Y48390D01*
X12832Y48776D01*
X17578Y53523D01*
X18270Y53348D01*
X18908Y53057D01*
X19343Y52007D01*
X20257Y51093D01*
X21451Y50598D01*
X21309Y49387D01*
X19998D01*
X18463Y48751D01*
X17289Y47577D01*
X16653Y46042D01*
Y44381D01*
X16894Y43801D01*
X12409Y39316D01*
X11813Y39563D01*
X10520D01*
X9326Y39068D01*
X8412Y38154D01*
X7917Y36959D01*
Y35666D01*
X8412Y34472D01*
X9326Y33558D01*
X10520Y33063D01*
X11813D01*
X13008Y33558D01*
X13922Y34472D01*
X14417Y35666D01*
Y36277D01*
X19417Y41277D01*
X19998Y41037D01*
X21658D01*
X23193Y41673D01*
X24367Y42847D01*
X25003Y44381D01*
Y46042D01*
X24367Y47577D01*
X24359Y47585D01*
X24397Y47870D01*
X25146Y49016D01*
X32933D01*
X33459Y47746D01*
X33037Y47323D01*
X32401Y45788D01*
Y44127D01*
X32641Y43547D01*
X19327Y30232D01*
X14463D01*
X14439Y30289D01*
X13525Y31203D01*
X12330Y31698D01*
X11037D01*
X9843Y31203D01*
X8929Y30289D01*
X8434Y29095D01*
Y27801D01*
X8929Y26607D01*
X9843Y25693D01*
X11037Y25198D01*
X12330D01*
X13525Y25693D01*
X14439Y26607D01*
X14463Y26664D01*
X20066D01*
X20749Y26799D01*
X21328Y27186D01*
X35165Y41024D01*
X35745Y40783D01*
X37406D01*
X38941Y41419D01*
X40115Y42593D01*
X40751Y44127D01*
Y45788D01*
X40115Y47323D01*
X38941Y48497D01*
X38156Y48822D01*
X37844Y50306D01*
X40856Y53318D01*
X41242Y53897D01*
X41378Y54580D01*
Y65546D01*
X42648Y66072D01*
X42798Y65923D01*
X43900Y65466D01*
X45094D01*
X46197Y65923D01*
X47041Y66767D01*
X47497Y67869D01*
Y69063D01*
X48363Y70292D01*
X52578D01*
X53038Y70482D01*
X56516D01*
X56615Y70333D01*
Y69040D01*
X57110Y67846D01*
X58024Y66932D01*
X59219Y66437D01*
X60512D01*
X61706Y66932D01*
X62621Y67846D01*
X63115Y69040D01*
Y70333D01*
X63215Y70482D01*
X65810D01*
Y65732D01*
X65643Y65566D01*
X62319D01*
X61291Y65140D01*
X60865Y64112D01*
Y60226D01*
X60951Y60019D01*
X60894Y59880D01*
Y56960D01*
X60951Y56821D01*
X60865Y56614D01*
Y53747D01*
X60581Y53322D01*
X60446Y52639D01*
Y46452D01*
X59865Y46211D01*
X58691Y45037D01*
X58055Y43502D01*
Y41842D01*
X58691Y40307D01*
X59865Y39133D01*
X61399Y38497D01*
X63060D01*
X63641Y38737D01*
X64839Y37539D01*
Y36371D01*
X64975Y35688D01*
X65362Y35109D01*
X72777Y27694D01*
X73356Y27308D01*
X74039Y27172D01*
X102631D01*
X102655Y27115D01*
X103569Y26201D01*
X104763Y25706D01*
X106056D01*
X107251Y26201D01*
X108165Y27115D01*
X108660Y28310D01*
Y29602D01*
X108529Y29918D01*
X109378Y31188D01*
X115168D01*
X115851Y31323D01*
X116430Y31710D01*
X117843Y33124D01*
X119665D01*
X120208Y32311D01*
Y31018D01*
X120702Y29824D01*
X121617Y28909D01*
X122811Y28415D01*
X124104D01*
X125038Y28801D01*
X126309Y29051D01*
X127223Y28137D01*
X128206Y27730D01*
X128544Y26932D01*
X128644Y26372D01*
X127689Y25417D01*
X126140D01*
X126116Y25474D01*
X125202Y26388D01*
X124008Y26883D01*
X122715D01*
X121520Y26388D01*
X120408Y27072D01*
X120344Y27227D01*
X119429Y28142D01*
X118235Y28636D01*
X116942D01*
X115747Y28142D01*
X114833Y27227D01*
X114338Y26033D01*
Y24740D01*
X114833Y23545D01*
X115747Y22631D01*
X116378Y22370D01*
Y21360D01*
X116514Y20677D01*
X116901Y20098D01*
X120682Y16317D01*
Y8762D01*
X119966D01*
Y-7238D01*
X128696D01*
X129966Y-7238D01*
Y-7238D01*
X129966D01*
Y-7238D01*
X138696D01*
X139966Y-7238D01*
X141236Y-7238D01*
X148696D01*
X149966Y-7238D01*
X151236Y-7238D01*
X158696D01*
X159966Y-7238D01*
X161948Y-7238D01*
X161954Y-7247D01*
X168989Y-14282D01*
X169567Y-14669D01*
X170250Y-14804D01*
X214682D01*
X215364Y-14669D01*
X215943Y-14282D01*
X221994Y-8231D01*
X222381Y-7652D01*
X222456Y-7271D01*
X222489Y-7238D01*
X224966D01*
Y8762D01*
X226048Y9216D01*
X245108D01*
X245149Y9117D01*
X246063Y8203D01*
X247257Y7708D01*
X248550D01*
X249745Y8203D01*
X250659Y9117D01*
X251154Y10312D01*
Y11604D01*
X250659Y12799D01*
X249745Y13713D01*
X249681Y13869D01*
X249970Y14567D01*
Y18961D01*
X249544Y19989D01*
X248516Y20415D01*
X248357D01*
Y22921D01*
X248221Y23604D01*
X247835Y24183D01*
X244862Y27155D01*
Y38577D01*
X248066Y41782D01*
X257796D01*
X258717Y41965D01*
X259499Y42487D01*
X260069Y42543D01*
X261317Y41294D01*
X261294Y41238D01*
Y39945D01*
X261789Y38750D01*
X262703Y37836D01*
X263897Y37341D01*
X264663D01*
X265751Y36304D01*
X265730Y35726D01*
X264618Y35265D01*
X264541Y35294D01*
X264515Y35320D01*
X263321Y35814D01*
X262027D01*
X260833Y35320D01*
X259919Y34405D01*
X259424Y33211D01*
Y31918D01*
X259919Y30724D01*
X260833Y29809D01*
X262027Y29314D01*
X263321D01*
X264515Y29809D01*
X264531Y29825D01*
X266323Y29821D01*
X266349Y29795D01*
X267544Y29300D01*
X268836D01*
X270031Y29795D01*
X270945Y30710D01*
X271440Y31904D01*
Y33197D01*
X270945Y34391D01*
X270031Y35306D01*
X269496Y35527D01*
X269495Y36731D01*
X270657Y37155D01*
X271313Y36499D01*
X272507Y36004D01*
X273800D01*
X274995Y36499D01*
X275725Y37229D01*
X275930Y37413D01*
X277007Y37395D01*
X277945Y36640D01*
Y35347D01*
X278440Y34152D01*
X279354Y33238D01*
X280548Y32743D01*
X281841D01*
X283036Y33238D01*
X283950Y34152D01*
X284311Y35024D01*
X285299Y35394D01*
X285715Y35417D01*
X285829Y35303D01*
X286931Y34846D01*
X288125D01*
X289227Y35303D01*
X290071Y36147D01*
X290528Y37249D01*
Y38443D01*
X290071Y39545D01*
X289227Y40389D01*
X288125Y40846D01*
X286931D01*
X285829Y40389D01*
X284985Y39545D01*
X284706Y38874D01*
X283538Y38490D01*
X283282Y38502D01*
X283036Y38749D01*
X281841Y39243D01*
X280548D01*
X279673Y40060D01*
Y40111D01*
X279537Y40794D01*
X279150Y41373D01*
X278608Y41915D01*
X278432Y42179D01*
X278057Y42554D01*
X278305Y44032D01*
X279149Y44876D01*
X279606Y45978D01*
Y47172D01*
X279149Y48274D01*
X278305Y49118D01*
X277203Y49575D01*
X276009D01*
X274907Y49118D01*
X274718Y48930D01*
X273022Y48829D01*
X270802Y51049D01*
X270874Y52308D01*
X272034Y53083D01*
X277114D01*
X277879Y53400D01*
X278196Y54166D01*
Y56221D01*
X279019Y56695D01*
X279842Y56221D01*
Y54166D01*
X280159Y53400D01*
X280924Y53083D01*
X286004D01*
X286769Y53400D01*
X287086Y54166D01*
Y56626D01*
X288036Y57167D01*
X288986Y56626D01*
Y54166D01*
X289303Y53400D01*
X290068Y53083D01*
X295148D01*
X295913Y53400D01*
X296230Y54166D01*
Y57087D01*
X297396Y57591D01*
X297472D01*
X298638Y57087D01*
Y54166D01*
X298955Y53400D01*
X299720Y53083D01*
X304800D01*
X305565Y53400D01*
X305882Y54166D01*
Y57087D01*
X305825Y57225D01*
X305911Y57432D01*
Y59863D01*
X306835Y60688D01*
X307379Y60223D01*
Y57633D01*
X307769Y56692D01*
X308709Y56303D01*
X311180D01*
X311238Y56164D01*
X312003Y55847D01*
X313345D01*
X314110Y56164D01*
X314168Y56303D01*
X316639D01*
X317579Y56692D01*
X317969Y57633D01*
Y60223D01*
X317579Y61164D01*
X317128Y61351D01*
Y62813D01*
X316992Y63495D01*
X316669Y63978D01*
X316940Y64632D01*
Y65925D01*
X316445Y67119D01*
X315531Y68033D01*
X314336Y68528D01*
X313043D01*
X311849Y68033D01*
X311394Y67578D01*
X310572Y67260D01*
X309750Y67578D01*
X309296Y68033D01*
X308101Y68528D01*
X306808D01*
X305614Y68033D01*
X304699Y67119D01*
X304642Y66981D01*
X303137Y66471D01*
X302932Y66595D01*
X302689Y66972D01*
Y67353D01*
X302232Y68456D01*
X302187Y68501D01*
X302337Y70090D01*
X302663Y70297D01*
X302674Y70292D01*
X302711Y70255D01*
X303446Y69950D01*
X304242D01*
X304977Y70255D01*
X305539Y70817D01*
X305844Y71552D01*
Y72348D01*
X305539Y73083D01*
X305502Y73120D01*
X305118Y73950D01*
X305502Y74780D01*
X305539Y74817D01*
X305844Y75552D01*
Y75729D01*
X306140Y76501D01*
X306977Y76932D01*
X308339D01*
X309933Y75338D01*
X310148Y74817D01*
X310711Y74254D01*
X311446Y73950D01*
X312242D01*
X312977Y74254D01*
X313540Y74817D01*
X313844Y75552D01*
Y76348D01*
X313540Y77083D01*
X313502Y77120D01*
X313430Y77275D01*
X313516Y77567D01*
X314438Y78144D01*
X314711Y78254D01*
X315446Y77950D01*
X316242D01*
X316666Y78126D01*
X316689Y78110D01*
X317184Y76915D01*
X318098Y76001D01*
X319293Y75506D01*
X320586D01*
X321780Y76001D01*
X322695Y76915D01*
X322956Y77546D01*
X324237D01*
X324919Y77682D01*
X325498Y78069D01*
X327565Y80135D01*
X327567Y80136D01*
X329919Y82489D01*
X330306Y83068D01*
X330442Y83751D01*
Y87078D01*
X330441Y87082D01*
Y96487D01*
X330305Y97169D01*
X329918Y97748D01*
X325003Y102664D01*
X324868Y103577D01*
X325059Y104038D01*
X325363Y104771D01*
Y106065D01*
X325232Y106380D01*
X326081Y107650D01*
X329090D01*
X329407Y107333D01*
Y106376D01*
X329126Y106095D01*
X328669Y104993D01*
Y103799D01*
X329126Y102697D01*
X329970Y101853D01*
X331073Y101396D01*
X332266D01*
X333369Y101853D01*
X334213Y102697D01*
X334669Y103799D01*
Y104993D01*
X334213Y106095D01*
X333369Y106939D01*
X332975Y107102D01*
Y108072D01*
X332840Y108755D01*
X332453Y109334D01*
X331091Y110696D01*
X330512Y111082D01*
X329829Y111218D01*
X328890D01*
X328405Y112392D01*
X334162Y118149D01*
X335559D01*
X336125Y118384D01*
X337395Y117775D01*
D02*
G37*
G36*
X217348Y114154D02*
Y113677D01*
X217805Y112575D01*
X218649Y111731D01*
X219751Y111274D01*
X220945D01*
X222048Y111731D01*
X222892Y112575D01*
X222990Y112811D01*
X224609D01*
X224916Y112407D01*
X225281Y111541D01*
X224890Y110597D01*
Y109304D01*
X225385Y108109D01*
X226299Y107195D01*
X227494Y106700D01*
X228787D01*
X229981Y107195D01*
X230895Y108109D01*
X231390Y109304D01*
Y110597D01*
X231121Y111246D01*
X231133Y111298D01*
X231773Y112427D01*
X232796Y112475D01*
X233933Y111338D01*
X234149Y110817D01*
X234186Y110780D01*
X234570Y109950D01*
X234186Y109120D01*
X234149Y109083D01*
X233844Y108348D01*
Y107552D01*
X234149Y106817D01*
X234186Y106780D01*
X234570Y105950D01*
X234186Y105120D01*
X234149Y105083D01*
X233844Y104348D01*
Y103552D01*
X234149Y102817D01*
X234711Y102254D01*
X235446Y101950D01*
X236242D01*
X236977Y102254D01*
X237014Y102292D01*
X237774Y101880D01*
X237981Y101498D01*
X238148Y101083D01*
X237844Y100348D01*
Y99552D01*
X238148Y98817D01*
X238186Y98780D01*
X237774Y98020D01*
X237392Y97813D01*
X236977Y97646D01*
X236456Y97861D01*
X232520Y101798D01*
X231941Y102184D01*
X231258Y102320D01*
X222509D01*
X222046Y102228D01*
X221155Y102598D01*
X219862D01*
X218668Y102103D01*
X217753Y101188D01*
X217373Y100270D01*
X216457Y100240D01*
X216085Y100313D01*
X215747Y101130D01*
X215661Y101216D01*
X215296Y102221D01*
X215677Y102860D01*
X216001Y103184D01*
X216420Y104195D01*
Y105289D01*
X216001Y106300D01*
X215889Y106412D01*
X215339Y107242D01*
X215889Y108072D01*
X216001Y108184D01*
X216420Y109195D01*
Y110289D01*
X216001Y111300D01*
X215677Y111624D01*
X215296Y112263D01*
X215661Y113269D01*
X215747Y113354D01*
X216120Y114255D01*
X217348Y114154D01*
D02*
G37*
G36*
X80772Y109982D02*
X86360D01*
D01*
X96774D01*
X97015Y109741D01*
Y109147D01*
X97509Y107953D01*
X98424Y107038D01*
X99618Y106544D01*
X100212D01*
X103378Y103378D01*
Y96015D01*
X98298D01*
Y98298D01*
X97790Y98806D01*
X80264D01*
X71829Y107241D01*
X71437Y108454D01*
X72351Y109368D01*
X72694Y110195D01*
X80772Y109982D01*
D02*
G37*
G36*
X66665Y122806D02*
X66893Y122255D01*
X67807Y121341D01*
X69002Y120846D01*
X70295D01*
X70352Y120869D01*
X71649Y119573D01*
X72227Y119186D01*
X72228Y119186D01*
X72601Y119111D01*
X72910Y119050D01*
X72964Y117816D01*
X72874Y117630D01*
X72296Y117244D01*
X69511Y114459D01*
X68949D01*
X67755Y113964D01*
X66841Y113050D01*
X66346Y111855D01*
Y110562D01*
X66841Y109368D01*
X67755Y108454D01*
X68949Y107959D01*
X70242D01*
X70497Y107841D01*
X70799Y106908D01*
X70965Y106713D01*
X71063Y106476D01*
X75479Y102060D01*
X74953Y100790D01*
X74841D01*
X73739Y100333D01*
X72895Y99489D01*
X72438Y98387D01*
Y97193D01*
X72895Y96091D01*
X73739Y95247D01*
X74841Y94790D01*
X76035D01*
X77137Y95247D01*
X77981Y96091D01*
X78438Y97193D01*
Y97305D01*
X78909Y97632D01*
X79708Y97954D01*
X80264Y97724D01*
X82094D01*
Y93544D01*
X81648D01*
X80965Y93408D01*
X80387Y93021D01*
X79902Y92536D01*
X79608Y92658D01*
X78316D01*
X77121Y92163D01*
X76207Y91249D01*
X75712Y90055D01*
Y88762D01*
X76207Y87567D01*
X77121Y86653D01*
X78316Y86158D01*
X79608D01*
X80803Y86653D01*
X80824Y86674D01*
X82094Y86148D01*
Y85982D01*
X93094D01*
Y86198D01*
X94717D01*
X100228Y80687D01*
Y79170D01*
X99825Y78767D01*
X99331Y77572D01*
Y76280D01*
X99441Y76012D01*
X98593Y74742D01*
X97092D01*
X96953Y74685D01*
X96746Y74771D01*
X92860D01*
X91832Y74345D01*
X91406Y73317D01*
Y70618D01*
X81594D01*
Y81482D01*
X65378D01*
Y85259D01*
X65609Y85490D01*
X65995Y86068D01*
X66053Y86359D01*
X66762Y86653D01*
X67676Y87567D01*
X68171Y88762D01*
Y90055D01*
X67676Y91249D01*
X66762Y92163D01*
X65567Y92658D01*
X64274D01*
X63080Y92163D01*
X62166Y91249D01*
X61671Y90055D01*
Y88762D01*
X62166Y87567D01*
X62403Y87330D01*
X62332Y87260D01*
X61946Y86681D01*
X61810Y85998D01*
Y81482D01*
X53660D01*
X53660Y110078D01*
X54930Y111050D01*
X55673D01*
X56868Y111545D01*
X57782Y112459D01*
X58277Y113653D01*
Y114946D01*
X58254Y115003D01*
X62888Y119637D01*
X63275Y120216D01*
X63411Y120899D01*
Y121347D01*
X65225Y123162D01*
X66665Y122806D01*
D02*
G37*
G36*
X126145Y97612D02*
X126226Y97531D01*
X126593Y96130D01*
X126220Y95229D01*
Y94255D01*
X125807Y93637D01*
X125427D01*
X124325Y93180D01*
X123481Y92336D01*
X123024Y91234D01*
Y90040D01*
X123481Y88937D01*
X124325Y88093D01*
X125427Y87637D01*
X126304D01*
X126864Y86704D01*
X126926Y86463D01*
X126593Y86130D01*
X126220Y85229D01*
Y84255D01*
X126593Y83354D01*
X127282Y82665D01*
X128182Y82292D01*
X129157D01*
X130058Y82665D01*
X130373Y82981D01*
X131170Y83225D01*
X131967Y82981D01*
X132282Y82665D01*
X133183Y82292D01*
X134157D01*
X135058Y82665D01*
X135373Y82980D01*
X136170Y83224D01*
X136967Y82980D01*
X137282Y82665D01*
X138182Y82292D01*
X139157D01*
X140058Y82665D01*
X140143Y82751D01*
X141149Y83115D01*
X141710Y82782D01*
X142043Y82221D01*
X141679Y81215D01*
X141593Y81130D01*
X141220Y80229D01*
Y79254D01*
X141593Y78354D01*
X141908Y78039D01*
X142153Y77242D01*
X141908Y76445D01*
X141593Y76130D01*
X141220Y75229D01*
Y74255D01*
X141593Y73354D01*
X142282Y72665D01*
X143183Y72292D01*
X144157D01*
X145058Y72665D01*
X145747Y73354D01*
X146120Y74255D01*
Y75229D01*
X145747Y76130D01*
X145432Y76445D01*
X145188Y77242D01*
X145432Y78039D01*
X145747Y78354D01*
X146120Y79254D01*
Y80229D01*
X145747Y81130D01*
X145661Y81215D01*
X145297Y82221D01*
X145676Y82859D01*
X146001Y83184D01*
X146420Y84195D01*
X147618Y84020D01*
Y69010D01*
X147677Y68708D01*
X147753Y68327D01*
X147753Y68326D01*
X147240Y67209D01*
X147113Y67073D01*
X147000Y66961D01*
X146170Y66412D01*
X145340Y66961D01*
X145228Y67073D01*
X144217Y67492D01*
X143123D01*
X142112Y67073D01*
X141787Y66748D01*
X141149Y66369D01*
X140143Y66733D01*
X140058Y66819D01*
X139157Y67192D01*
X138182D01*
X137282Y66819D01*
X136967Y66504D01*
X136170Y66259D01*
X135373Y66504D01*
X135058Y66819D01*
X134157Y67192D01*
X133183D01*
X132282Y66819D01*
X131967Y66504D01*
X131170Y66259D01*
X130373Y66504D01*
X130058Y66819D01*
X129157Y67192D01*
X128182D01*
X128026Y67127D01*
X127097Y68117D01*
X127408Y68868D01*
Y70161D01*
X126913Y71356D01*
X126585Y71684D01*
X127282Y72665D01*
X127692Y72495D01*
X128182Y72292D01*
X129157D01*
X130058Y72665D01*
X130373Y72981D01*
X131170Y73225D01*
X131967Y72981D01*
X132282Y72665D01*
X133183Y72292D01*
X134157D01*
X135058Y72665D01*
X135747Y73354D01*
X136120Y74255D01*
Y75229D01*
X135747Y76130D01*
X135058Y76819D01*
X134157Y77192D01*
X133183D01*
X132282Y76819D01*
X131967Y76504D01*
X131170Y76259D01*
X130373Y76504D01*
X130058Y76819D01*
X129157Y77192D01*
X128182D01*
X127282Y76819D01*
X126593Y76130D01*
X126220Y75229D01*
Y74255D01*
X126506Y73563D01*
X126593Y73354D01*
X126601Y73328D01*
X125806Y72350D01*
X125570Y72448D01*
X124804Y72765D01*
X123511D01*
X122317Y72270D01*
X122030Y71983D01*
X121024Y72125D01*
X120621Y72324D01*
X120367Y72829D01*
X120431Y73039D01*
X120747Y73354D01*
X121120Y74255D01*
Y75229D01*
X120747Y76130D01*
X120432Y76445D01*
X120187Y77242D01*
X120432Y78039D01*
X120747Y78354D01*
X121120Y79254D01*
Y80229D01*
X120747Y81130D01*
X120431Y81445D01*
X120187Y82242D01*
X120431Y83039D01*
X120747Y83354D01*
X121120Y84255D01*
Y85229D01*
X120747Y86130D01*
X120432Y86445D01*
X120187Y87242D01*
X120432Y88039D01*
X120747Y88354D01*
X121120Y89254D01*
Y90229D01*
X120747Y91130D01*
X120431Y91445D01*
X120187Y92242D01*
X120431Y93039D01*
X120747Y93354D01*
X121120Y94255D01*
Y95143D01*
X123132Y97155D01*
X123450Y97631D01*
X123488Y97669D01*
X126121D01*
X126145Y97612D01*
D02*
G37*
G36*
X180723Y84300D02*
X180755Y84298D01*
X181267Y84141D01*
X181593Y83354D01*
X181679Y83268D01*
X182043Y82263D01*
X181663Y81624D01*
X181339Y81299D01*
X180920Y80289D01*
Y79195D01*
X181339Y78184D01*
X181451Y78072D01*
X182001Y77242D01*
X181451Y76412D01*
X181339Y76300D01*
X180920Y75289D01*
Y74195D01*
X181339Y73184D01*
X182112Y72411D01*
X183123Y71992D01*
X184217D01*
X185228Y72411D01*
X186001Y73184D01*
X186420Y74195D01*
Y75289D01*
X186046Y76191D01*
X186071Y76259D01*
X187485Y76642D01*
X187592Y76535D01*
X188787Y76040D01*
X189856D01*
X190385Y75667D01*
X190920Y75014D01*
Y74195D01*
X191339Y73184D01*
X192112Y72411D01*
X193123Y71992D01*
X194217D01*
X195228Y72411D01*
X195553Y72736D01*
X196191Y73115D01*
X197196Y72751D01*
X197282Y72665D01*
X198183Y72292D01*
X199158D01*
X200058Y72665D01*
X200747Y73354D01*
X201120Y74255D01*
Y75229D01*
X200998Y75525D01*
X201055Y76439D01*
X201643Y77030D01*
X202272Y77290D01*
X202935Y77953D01*
X206220Y74669D01*
Y74255D01*
X206593Y73354D01*
X206679Y73268D01*
X207043Y72263D01*
X206664Y71624D01*
X206339Y71300D01*
X205920Y70289D01*
Y69195D01*
X206339Y68184D01*
X207112Y67410D01*
X208123Y66992D01*
X209217D01*
X210228Y67410D01*
X210553Y67735D01*
X210797Y67881D01*
X211586Y67582D01*
X211659Y66196D01*
X211593Y66130D01*
X211220Y65229D01*
Y64255D01*
X211593Y63354D01*
X212282Y62665D01*
X213183Y62292D01*
X213976D01*
X214471Y61796D01*
X214987Y61452D01*
Y61109D01*
X215481Y59914D01*
X216396Y59000D01*
X217168Y58680D01*
X216915Y57410D01*
X213525D01*
X211120Y59815D01*
Y60229D01*
X210747Y61130D01*
X210058Y61819D01*
X209158Y62192D01*
X208183D01*
X207282Y61819D01*
X207216Y61752D01*
X205830Y61825D01*
X205530Y62614D01*
X205676Y62860D01*
X206001Y63184D01*
X206420Y64195D01*
Y65289D01*
X206001Y66300D01*
X205228Y67073D01*
X204217Y67492D01*
X203123D01*
X202112Y67073D01*
X201788Y66749D01*
X201149Y66369D01*
X200144Y66733D01*
X200058Y66819D01*
X199158Y67192D01*
X198183D01*
X197282Y66819D01*
X196967Y66504D01*
X196170Y66259D01*
X195373Y66504D01*
X195058Y66819D01*
X194157Y67192D01*
X193183D01*
X192282Y66819D01*
X191967Y66504D01*
X191170Y66259D01*
X190373Y66504D01*
X190058Y66819D01*
X189158Y67192D01*
X188183D01*
X187282Y66819D01*
X187196Y66733D01*
X186191Y66369D01*
X185553Y66748D01*
X185228Y67073D01*
X184217Y67492D01*
X183123D01*
X182112Y67073D01*
X182000Y66961D01*
X181170Y66411D01*
X180340Y66961D01*
X180228Y67073D01*
X179217Y67492D01*
X178123D01*
X177113Y67073D01*
X176788Y66748D01*
X176149Y66369D01*
X175144Y66733D01*
X175058Y66819D01*
X174157Y67192D01*
X173183D01*
X172282Y66819D01*
X172197Y66733D01*
X171192Y66369D01*
X170553Y66749D01*
X170228Y67073D01*
X169217Y67492D01*
X168123D01*
X167113Y67073D01*
X167000Y66961D01*
X166170Y66412D01*
X165340Y66961D01*
X165228Y67073D01*
X164217Y67492D01*
X163123D01*
X162112Y67073D01*
X161788Y66749D01*
X161149Y66369D01*
X160144Y66733D01*
X160058Y66819D01*
X159158Y67192D01*
X158183D01*
X157282Y66819D01*
X156967Y66504D01*
X156170Y66259D01*
X155373Y66504D01*
X155058Y66819D01*
X154157Y67192D01*
X153743D01*
X151186Y69749D01*
Y71541D01*
X151475Y71812D01*
X152456Y72268D01*
X153123Y71992D01*
X154217D01*
X154452Y72090D01*
X155854Y72025D01*
X156768Y71111D01*
X157962Y70616D01*
X159255D01*
X160450Y71111D01*
X161364Y72025D01*
X162282Y72665D01*
X163183Y72292D01*
X164157D01*
X165058Y72665D01*
X165747Y73354D01*
X166120Y74255D01*
Y75229D01*
X165747Y76130D01*
X165432Y76445D01*
X165225Y77119D01*
X165897Y78226D01*
X165942D01*
X166625Y78362D01*
X167203Y78748D01*
X168267Y79812D01*
X168448Y79738D01*
X169741D01*
X169950Y79824D01*
X170872Y79411D01*
X171318Y79017D01*
X171593Y78354D01*
X172282Y77665D01*
X171942Y77100D01*
X171791Y76949D01*
X171296Y75754D01*
Y75413D01*
X171220Y75229D01*
Y74255D01*
X171593Y73354D01*
X172282Y72665D01*
X172471Y72587D01*
X172705Y72353D01*
X173900Y71858D01*
X175193D01*
X176387Y72353D01*
X177301Y73267D01*
X177796Y74461D01*
Y75754D01*
X177301Y76949D01*
X176387Y77863D01*
X176275Y77909D01*
X175747Y78354D01*
X176120Y79254D01*
Y80229D01*
X175747Y81130D01*
X175926Y82510D01*
X176528Y82952D01*
X176585Y82959D01*
X177878D01*
X179072Y83454D01*
X179950Y84332D01*
X180723Y84300D01*
D02*
G37*
G36*
X52578Y111760D02*
X52578Y71374D01*
X45316D01*
X45094Y71466D01*
X43900D01*
X42658Y72013D01*
X42422Y82642D01*
X42453Y82738D01*
X43549Y83816D01*
X44100D01*
X45294Y84310D01*
X46209Y85225D01*
X46703Y86419D01*
Y87712D01*
X46209Y88907D01*
X45294Y89821D01*
X44100Y90316D01*
X42807D01*
X42243Y90683D01*
X41910Y105664D01*
X32182D01*
X31869Y106369D01*
X31793Y106934D01*
X32515Y107657D01*
X32972Y108759D01*
Y109325D01*
X33646Y110296D01*
X34107Y110532D01*
X34444Y110599D01*
X35023Y110985D01*
X43293Y119256D01*
X45081Y119257D01*
X52578Y111760D01*
D02*
G37*
G36*
X116717Y62636D02*
X116765Y61301D01*
X116593Y61130D01*
X116220Y60229D01*
Y59254D01*
X116593Y58354D01*
X117282Y57665D01*
X117063Y56381D01*
X116888Y55958D01*
Y54765D01*
X117345Y53662D01*
X118189Y52818D01*
X119291Y52361D01*
X120485D01*
X121202Y52658D01*
X122232Y52159D01*
X122472Y51914D01*
Y44314D01*
X120194Y42036D01*
X118566D01*
X116722Y43880D01*
Y45329D01*
X117173Y45516D01*
X117563Y46457D01*
Y49047D01*
X117173Y49988D01*
X116233Y50377D01*
X113762D01*
X113704Y50516D01*
X113557Y50577D01*
X112839Y51898D01*
X112820Y52103D01*
X112888Y52267D01*
Y53560D01*
X112393Y54754D01*
X111479Y55669D01*
X110285Y56163D01*
X108992D01*
X108367Y55904D01*
X107892Y56380D01*
X107313Y56767D01*
X106630Y56902D01*
X103136D01*
X102949Y57354D01*
X102009Y57743D01*
X99538D01*
X99480Y57882D01*
X99394Y57918D01*
X99221Y59365D01*
X99796Y59859D01*
X102009D01*
X102949Y60248D01*
X103195Y60841D01*
X104487D01*
X105170Y60977D01*
X105749Y61364D01*
X107343Y62958D01*
X111989D01*
X112282Y62665D01*
X113183Y62292D01*
X114157D01*
X115058Y62665D01*
X115373Y62980D01*
X115753Y63097D01*
X116717Y62636D01*
D02*
G37*
G36*
X174499Y56487D02*
X174654Y56123D01*
Y52794D01*
X174790Y52111D01*
X175177Y51532D01*
X177331Y49378D01*
Y47981D01*
X177721Y47040D01*
X178661Y46651D01*
X181132D01*
X181190Y46512D01*
X181955Y46195D01*
X182687D01*
X182687Y46194D01*
X183458Y44992D01*
X183186Y44335D01*
Y43042D01*
X183188Y43037D01*
X182558Y41767D01*
X181023Y41131D01*
X179849Y39957D01*
X179213Y38423D01*
Y36762D01*
X179849Y35227D01*
X181023Y34053D01*
X182558Y33417D01*
X184219D01*
X185753Y34053D01*
X186927Y35227D01*
X187168Y35808D01*
X190767D01*
X191450Y35944D01*
X192028Y36330D01*
X196826Y41128D01*
X197903Y40409D01*
X197501Y39439D01*
Y37778D01*
X198137Y36243D01*
X199311Y35069D01*
X200846Y34433D01*
X202507D01*
X204041Y35069D01*
X205215Y36243D01*
X205851Y37778D01*
Y39439D01*
X205618Y40000D01*
X208876Y43257D01*
X209506Y42996D01*
X210799D01*
X211994Y43491D01*
X212034Y43531D01*
X213073Y44150D01*
X213987Y43236D01*
X215182Y42741D01*
X216475D01*
X217164Y43027D01*
X218437Y42863D01*
X219351Y41949D01*
X220545Y41454D01*
X221838D01*
X223033Y41949D01*
X223947Y42863D01*
X224442Y44057D01*
Y45350D01*
X223947Y46545D01*
X223033Y47459D01*
X223660Y48289D01*
X223735Y48375D01*
X223735Y48375D01*
X224230Y49569D01*
Y50862D01*
X223735Y52057D01*
X223220Y52572D01*
X223746Y53842D01*
X244355D01*
X245253Y52572D01*
X245212Y52365D01*
Y44190D01*
X245248Y44010D01*
X241816Y40578D01*
X241430Y39999D01*
X241294Y39317D01*
Y26416D01*
X241310Y26333D01*
X241076Y26150D01*
X240124Y25785D01*
X238404Y27505D01*
Y35566D01*
X238221Y36488D01*
X237699Y37269D01*
X236917Y37791D01*
X235995Y37975D01*
X235124D01*
X234725Y38140D01*
X233432D01*
X233032Y37975D01*
X225935D01*
X224293Y39616D01*
X223715Y40002D01*
X223032Y40138D01*
X218166D01*
X218136Y40211D01*
X217195Y40601D01*
X214605D01*
X213664Y40211D01*
X213275Y39271D01*
Y36800D01*
X213136Y36742D01*
X212819Y35977D01*
Y34635D01*
X213136Y33870D01*
X213901Y33553D01*
X217899D01*
X218664Y33870D01*
X218981Y34635D01*
Y35977D01*
X219378Y36570D01*
X222293D01*
X223412Y35451D01*
Y27391D01*
X223595Y26469D01*
X223925Y25974D01*
X223491Y24936D01*
X223334Y24747D01*
X222528D01*
X221334Y24253D01*
X220420Y23338D01*
X219925Y22144D01*
Y20851D01*
X220420Y19656D01*
X221334Y18742D01*
X222528Y18247D01*
X223821D01*
X225016Y18742D01*
X225930Y19656D01*
X226425Y20851D01*
Y22144D01*
X225930Y23338D01*
X225522Y23746D01*
X225668Y24352D01*
X226083Y24982D01*
X235881D01*
X237291Y23572D01*
Y20415D01*
X237132D01*
X236104Y19989D01*
X235678Y18961D01*
Y14567D01*
X235890Y14055D01*
X235199Y12785D01*
X223345D01*
X222662Y12649D01*
X222083Y12262D01*
X221204Y11384D01*
X220817Y10805D01*
X220682Y10122D01*
Y8762D01*
X219250D01*
Y12608D01*
X219115Y13291D01*
X218728Y13870D01*
X217873Y14725D01*
X218134Y15355D01*
Y16648D01*
X217639Y17843D01*
X216725Y18757D01*
X215530Y19252D01*
X214237D01*
X213591Y18984D01*
X212239Y19417D01*
X212057Y19567D01*
X211945Y19900D01*
X212093Y20048D01*
X212550Y21151D01*
Y22344D01*
X212093Y23447D01*
X211249Y24291D01*
X210147Y24747D01*
X209240D01*
X208497Y25456D01*
X208255Y25833D01*
Y29685D01*
X207938Y30450D01*
X207173Y30767D01*
X205831D01*
X205066Y30450D01*
X205008Y30311D01*
X202537D01*
X201597Y29922D01*
X201207Y28981D01*
Y26391D01*
X201597Y25450D01*
X201662Y25423D01*
Y22726D01*
X201360Y22601D01*
X200516Y21758D01*
X200060Y20655D01*
Y19696D01*
X199947Y19621D01*
X198654D01*
X197459Y19126D01*
X196545Y18212D01*
X196050Y17017D01*
Y15724D01*
X196545Y14530D01*
X196942Y14133D01*
Y13120D01*
X196204Y12383D01*
X195818Y11804D01*
X195682Y11121D01*
Y9735D01*
X194966Y8762D01*
X193696Y8762D01*
X189251D01*
Y13768D01*
X190385D01*
X191579Y14263D01*
X192493Y15177D01*
X192988Y16372D01*
Y17665D01*
X192493Y18859D01*
X191579Y19773D01*
X190385Y20268D01*
X189091D01*
X188135Y19872D01*
X186803Y19769D01*
X185889Y20683D01*
X184695Y21178D01*
X183402D01*
X183092Y21050D01*
X182612Y21211D01*
X181745Y21866D01*
X181687Y22158D01*
X181300Y22737D01*
X176051Y27986D01*
X175472Y28373D01*
X174789Y28509D01*
X141064D01*
X140215Y29779D01*
X140346Y30094D01*
Y31387D01*
X140153Y31854D01*
X140153Y31995D01*
X140832Y33258D01*
X140839Y33263D01*
X141414Y33646D01*
X149064Y41297D01*
X151173D01*
X152321Y40149D01*
X153855Y39513D01*
X155517D01*
X156935Y40101D01*
X157125Y40131D01*
X158425Y39823D01*
X159339Y38909D01*
X160534Y38414D01*
X161826D01*
X163021Y38909D01*
X163935Y39823D01*
X164430Y41017D01*
Y42310D01*
X163935Y43505D01*
X163021Y44419D01*
X161826Y44914D01*
X160534D01*
X159522Y44495D01*
X159272Y44544D01*
X158850D01*
X158225Y46053D01*
X157051Y47227D01*
X156578Y47423D01*
X156746Y48728D01*
X157309Y48807D01*
X158356Y47760D01*
X158934Y47373D01*
X159617Y47238D01*
X162950D01*
X164155Y46368D01*
X164195Y46289D01*
Y45977D01*
X164690Y44783D01*
X165604Y43868D01*
X166799Y43374D01*
X168092D01*
X169286Y43868D01*
X170201Y44783D01*
X170695Y45977D01*
Y47270D01*
X170201Y48465D01*
X169286Y49379D01*
X168092Y49874D01*
X167595Y51144D01*
X173384Y56933D01*
X174499Y56487D01*
D02*
G37*
G36*
X185682Y13712D02*
Y8762D01*
X184966D01*
Y-7238D01*
X193696D01*
X194966Y-7238D01*
X196236Y-7238D01*
X203696D01*
X204966Y-7238D01*
X206236Y-7238D01*
X213696D01*
X214966Y-7238D01*
Y-7238D01*
X214966D01*
Y-7238D01*
X216281D01*
X216767Y-8411D01*
X213943Y-11236D01*
X170989D01*
X168165Y-8411D01*
X168651Y-7238D01*
X169966Y-7238D01*
X171236Y-7238D01*
X173696D01*
X174966Y-7238D01*
Y-7238D01*
X174966D01*
Y-7238D01*
X179966D01*
Y8762D01*
X179966D01*
X180302Y9893D01*
X182480Y12071D01*
X182867Y12650D01*
X183003Y13333D01*
Y13654D01*
X184026Y14678D01*
X184695D01*
X185682Y13712D01*
D02*
G37*
%LPC*%
G36*
X52413Y248618D02*
X51219D01*
X50117Y248161D01*
X49273Y247317D01*
X48816Y246215D01*
Y245021D01*
X49273Y243919D01*
X50117Y243075D01*
X51219Y242618D01*
X52413D01*
X53515Y243075D01*
X54359Y243919D01*
X54816Y245021D01*
Y246215D01*
X54359Y247317D01*
X53515Y248161D01*
X52413Y248618D01*
D02*
G37*
G36*
X92928Y231854D02*
X91735D01*
X90632Y231397D01*
X89788Y230553D01*
X89332Y229451D01*
Y228257D01*
X89788Y227155D01*
X90632Y226311D01*
X91735Y225854D01*
X92928D01*
X94031Y226311D01*
X94875Y227155D01*
X95331Y228257D01*
Y229451D01*
X94875Y230553D01*
X94031Y231397D01*
X92928Y231854D01*
D02*
G37*
G36*
X56185Y222395D02*
X50495D01*
X49827Y222262D01*
X49261Y221884D01*
X48883Y221318D01*
X48751Y220650D01*
Y213690D01*
X48883Y213022D01*
X49261Y212456D01*
X49827Y212078D01*
X50495Y211945D01*
X53727D01*
X53845Y211661D01*
X54689Y210817D01*
X55791Y210360D01*
X56985D01*
X58087Y210817D01*
X58931Y211661D01*
X59388Y212763D01*
Y213957D01*
X58931Y215059D01*
X58087Y215903D01*
X57930Y215969D01*
Y220650D01*
X57797Y221318D01*
X57418Y221884D01*
X56852Y222262D01*
X56185Y222395D01*
D02*
G37*
G36*
X43185D02*
X37496D01*
X36828Y222262D01*
X36262Y221884D01*
X35884Y221318D01*
X35751Y220650D01*
Y216667D01*
X34485Y215816D01*
X33292D01*
X32189Y215360D01*
X31345Y214516D01*
X30889Y213413D01*
Y212220D01*
X31345Y211117D01*
X32189Y210273D01*
X33292Y209816D01*
X34485D01*
X35588Y210273D01*
X36432Y211117D01*
X36607Y211539D01*
X37148Y211646D01*
X37596Y211945D01*
X43185D01*
X43853Y212078D01*
X44419Y212456D01*
X44797Y213022D01*
X44930Y213690D01*
Y220650D01*
X44797Y221318D01*
X44419Y221884D01*
X43853Y222262D01*
X43185Y222395D01*
D02*
G37*
G36*
X152074Y242766D02*
X143074D01*
Y203766D01*
X152074D01*
Y207393D01*
X152812Y207791D01*
X153344Y207980D01*
X154343Y207566D01*
X155537D01*
X156639Y208023D01*
X157483Y208867D01*
X157940Y209969D01*
Y211163D01*
X157483Y212265D01*
X156639Y213109D01*
X156522Y213699D01*
X156633Y213810D01*
X157090Y214913D01*
Y216106D01*
X156633Y217209D01*
X155789Y218053D01*
X154687Y218509D01*
X153493D01*
X153344Y218448D01*
X152074Y219296D01*
Y242766D01*
D02*
G37*
G36*
X137074D02*
X128074D01*
Y203766D01*
X137074D01*
Y242766D01*
D02*
G37*
G36*
X19634Y214580D02*
X18950Y214422D01*
X18416Y214315D01*
X17674Y214168D01*
X17582Y214106D01*
X17471D01*
X16270Y213608D01*
X16191Y213530D01*
X16082Y213508D01*
X15428Y213071D01*
X15001Y212786D01*
X14406Y212404D01*
X14388Y212396D01*
X14388Y212396D01*
X14264Y212271D01*
X14139Y212147D01*
X14139Y212147D01*
X14130Y212126D01*
X13782Y211567D01*
X13472Y211103D01*
X13060Y210485D01*
X13038Y210377D01*
X12960Y210298D01*
X12462Y209097D01*
Y208986D01*
X12400Y208894D01*
X12253Y208153D01*
X12146Y207618D01*
X11988Y206943D01*
Y206455D01*
X12146Y205894D01*
X12274Y205254D01*
X12400Y204618D01*
X12462Y204526D01*
Y204415D01*
X12960Y203214D01*
X13038Y203135D01*
X13060Y203026D01*
X13782Y201945D01*
X14046Y201475D01*
X14059Y201445D01*
X14059Y201445D01*
X14321Y201184D01*
X14582Y200922D01*
X14582Y200922D01*
X14656Y200891D01*
X14983Y200735D01*
X15573Y200344D01*
X15931Y200105D01*
X16083Y200004D01*
X16191Y199982D01*
X16270Y199904D01*
X17471Y199406D01*
X17582D01*
X17674Y199344D01*
X18199Y199240D01*
X19068Y199045D01*
X19361Y198933D01*
X19362Y198932D01*
X19362Y198932D01*
X20245Y198932D01*
X20564Y199050D01*
X20587Y199055D01*
X21408Y199236D01*
X21950Y199344D01*
X22042Y199406D01*
X22153D01*
X23354Y199904D01*
X23433Y199982D01*
X23542Y200004D01*
X23722Y200124D01*
X24639Y200734D01*
X24996Y200910D01*
X25055Y200935D01*
X25055Y200935D01*
X25294Y201175D01*
X25535Y201414D01*
X25535Y201415D01*
X25545Y201440D01*
X25842Y201945D01*
X26564Y203027D01*
X26586Y203135D01*
X26664Y203214D01*
X27162Y204415D01*
Y204526D01*
X27224Y204618D01*
X27478Y205894D01*
X27636Y206499D01*
Y206900D01*
X27478Y207618D01*
X27378Y208120D01*
X27224Y208894D01*
X27162Y208986D01*
Y209097D01*
X26664Y210298D01*
X26586Y210377D01*
X26564Y210485D01*
X26129Y211137D01*
X25842Y211567D01*
X25463Y212158D01*
X25455Y212177D01*
X25455Y212177D01*
X25351Y212279D01*
X25249Y212383D01*
X25249Y212383D01*
X25231Y212391D01*
X24623Y212786D01*
X24210Y213062D01*
X23542Y213508D01*
X23433Y213530D01*
X23354Y213608D01*
X22153Y214106D01*
X22042D01*
X21950Y214168D01*
X21191Y214319D01*
X20674Y214422D01*
X19972Y214580D01*
X19634D01*
X19634D01*
D02*
G37*
G36*
X321310Y214569D02*
X320717Y214411D01*
X320099Y214288D01*
X319441Y214157D01*
X319349Y214096D01*
X319238D01*
X318036Y213598D01*
X317957Y213519D01*
X317849Y213498D01*
X316767Y212775D01*
X316242Y212459D01*
X316218Y212449D01*
X316218Y212449D01*
X316004Y212233D01*
X315788Y212019D01*
X315788Y212019D01*
X315771Y211978D01*
X315550Y211560D01*
X314982Y210708D01*
X314826Y210475D01*
X314804Y210366D01*
X314726Y210288D01*
X314228Y209086D01*
Y208975D01*
X314166Y208883D01*
X314044Y208268D01*
X313908Y207592D01*
X313796Y207231D01*
X313755Y207099D01*
X313755Y207099D01*
X313755Y206299D01*
X314019Y205313D01*
X314142Y204730D01*
X314166Y204608D01*
X314190Y204572D01*
X314227Y204408D01*
X314228Y204405D01*
X314386Y204024D01*
X314726Y203203D01*
X314804Y203125D01*
X314826Y203016D01*
X315124Y202570D01*
X315606Y201805D01*
X315667Y201670D01*
X315723Y201536D01*
X315723Y201536D01*
X316050Y201211D01*
X316376Y200884D01*
X316376Y200883D01*
X316556Y200809D01*
X316642Y200771D01*
X317411Y200285D01*
X317849Y199993D01*
X317957Y199971D01*
X318036Y199893D01*
X319238Y199395D01*
X319349D01*
X319441Y199333D01*
X319530Y199316D01*
X319982Y199224D01*
X320832Y199028D01*
X321089Y198922D01*
X321921D01*
X322397Y199067D01*
X323090Y199209D01*
X323716Y199333D01*
X323808Y199395D01*
X323919D01*
X325121Y199893D01*
X325199Y199971D01*
X325308Y199993D01*
X326389Y200716D01*
X326854Y200975D01*
X326885Y200988D01*
X326885Y200988D01*
X327034Y201138D01*
X327183Y201286D01*
X327184Y201287D01*
X327191Y201304D01*
X327608Y201934D01*
X327867Y202321D01*
X328330Y203016D01*
X328352Y203125D01*
X328431Y203203D01*
X328928Y204405D01*
Y204516D01*
X328990Y204608D01*
X329154Y205431D01*
X329244Y205884D01*
X329402Y206655D01*
Y206745D01*
X329244Y207607D01*
X329171Y207974D01*
X328990Y208883D01*
X328928Y208975D01*
Y209086D01*
X328431Y210288D01*
X328352Y210366D01*
X328330Y210475D01*
X327820Y211239D01*
X327608Y211556D01*
X327125Y212254D01*
X327119Y212269D01*
X327119Y212269D01*
X327080Y212306D01*
X327043Y212345D01*
X327043Y212345D01*
X327026Y212352D01*
X326389Y212775D01*
X326007Y213030D01*
X325308Y213498D01*
X325199Y213519D01*
X325121Y213598D01*
X323919Y214096D01*
X323808D01*
X323716Y214157D01*
X322921Y214315D01*
X322440Y214411D01*
X321700Y214569D01*
X321310D01*
X321310D01*
D02*
G37*
G36*
X92086Y196036D02*
X90794D01*
X89599Y195541D01*
X88685Y194627D01*
X88307Y193714D01*
X87382Y193351D01*
X86920Y193304D01*
X86693Y193531D01*
X85159Y194167D01*
X83497D01*
X81963Y193531D01*
X80789Y192357D01*
X80153Y190823D01*
Y189161D01*
X80789Y187627D01*
X81963Y186453D01*
X83497Y185817D01*
X85159D01*
X86693Y186453D01*
X87867Y187627D01*
X88492Y189136D01*
X88762D01*
X89445Y189272D01*
X90024Y189658D01*
X90163Y189797D01*
X90794Y189536D01*
X92086D01*
X93281Y190031D01*
X94195Y190945D01*
X94690Y192139D01*
Y193433D01*
X94195Y194627D01*
X93281Y195541D01*
X92086Y196036D01*
D02*
G37*
G36*
X206574Y214766D02*
X189574D01*
Y189766D01*
X206574D01*
Y214766D01*
D02*
G37*
G36*
X120574D02*
X103574D01*
Y189766D01*
X120574D01*
Y214766D01*
D02*
G37*
G36*
X103819Y181558D02*
X102526D01*
X101331Y181063D01*
X100417Y180149D01*
X99922Y178955D01*
Y177895D01*
X98072D01*
X97865Y177809D01*
X97726Y177866D01*
X94805D01*
X94667Y177809D01*
X94460Y177895D01*
X90574D01*
X89546Y177469D01*
X89120Y176441D01*
Y172047D01*
X89546Y171019D01*
X90574Y170593D01*
X94460D01*
X94667Y170679D01*
X94805Y170622D01*
X97726D01*
X97865Y170679D01*
X98072Y170593D01*
X101958D01*
X102986Y171019D01*
X103412Y172047D01*
Y175058D01*
X103819D01*
X105013Y175553D01*
X105927Y176467D01*
X106422Y177661D01*
Y178955D01*
X105927Y180149D01*
X105013Y181063D01*
X103819Y181558D01*
D02*
G37*
G36*
X316242Y145950D02*
X315446D01*
X314711Y145646D01*
X314148Y145083D01*
X313844Y144348D01*
Y143552D01*
X314148Y142817D01*
X314711Y142254D01*
X315446Y141950D01*
X316242D01*
X316977Y142254D01*
X317539Y142817D01*
X317844Y143552D01*
Y144348D01*
X317539Y145083D01*
X316977Y145646D01*
X316242Y145950D01*
D02*
G37*
G36*
X184033Y128040D02*
X182740D01*
X181545Y127545D01*
X180631Y126631D01*
X180136Y125436D01*
Y124143D01*
X180631Y122949D01*
X181545Y122035D01*
X182740Y121540D01*
X184033D01*
X185227Y122035D01*
X186141Y122949D01*
X187113Y122411D01*
X188123Y121992D01*
X189217D01*
X190228Y122411D01*
X190340Y122523D01*
X191170Y123073D01*
X192000Y122523D01*
X192112Y122411D01*
X193123Y121992D01*
X194217D01*
X195228Y122411D01*
X195340Y122523D01*
X196170Y123072D01*
X197000Y122523D01*
X197112Y122411D01*
X198123Y121992D01*
X199217D01*
X200228Y122411D01*
X201001Y123184D01*
X201420Y124195D01*
Y125289D01*
X201001Y126300D01*
X200228Y127073D01*
X199217Y127492D01*
X198123D01*
X197112Y127073D01*
X197000Y126961D01*
X196170Y126411D01*
X195340Y126961D01*
X195228Y127073D01*
X194217Y127492D01*
X193123D01*
X192112Y127073D01*
X192000Y126961D01*
X191170Y126411D01*
X190340Y126961D01*
X190228Y127073D01*
X189217Y127492D01*
X188123D01*
X187113Y127073D01*
X186141Y126631D01*
X185227Y127545D01*
X184033Y128040D01*
D02*
G37*
G36*
X278196Y96314D02*
X277003D01*
X275900Y95857D01*
X275056Y95013D01*
X274599Y93911D01*
Y92717D01*
X275056Y91614D01*
X275900Y90771D01*
X277003Y90314D01*
X278196D01*
X279299Y90771D01*
X280143Y91614D01*
X280599Y92717D01*
Y93911D01*
X280143Y95013D01*
X279299Y95857D01*
X278196Y96314D01*
D02*
G37*
G36*
X316242Y73950D02*
X315446D01*
X314711Y73646D01*
X314148Y73083D01*
X313844Y72348D01*
Y71552D01*
X314148Y70817D01*
X314711Y70255D01*
X315446Y69950D01*
X316242D01*
X316977Y70255D01*
X317539Y70817D01*
X317844Y71552D01*
Y72348D01*
X317539Y73083D01*
X316977Y73646D01*
X316242Y73950D01*
D02*
G37*
G36*
X304127Y43894D02*
X302933D01*
X301831Y43437D01*
X300987Y42593D01*
X300530Y41491D01*
Y40297D01*
X299636Y39138D01*
X295808D01*
X295111Y38999D01*
X294520Y38604D01*
X294125Y38012D01*
X293986Y37315D01*
Y30508D01*
X294125Y29811D01*
X294520Y29219D01*
X295111Y28824D01*
X295808Y28686D01*
X302108D01*
X302805Y28824D01*
X303396Y29219D01*
X303791Y29811D01*
X303930Y30508D01*
Y34781D01*
X305645D01*
X306328Y34917D01*
X306907Y35303D01*
X307919Y36316D01*
X309614D01*
X309801Y35864D01*
X310741Y35475D01*
X313212D01*
X313270Y35336D01*
X314035Y35019D01*
X315377D01*
X316142Y35336D01*
X316200Y35475D01*
X318671D01*
X319325Y35746D01*
X319648Y35612D01*
X320941D01*
X322135Y36107D01*
X323049Y37021D01*
X323544Y38215D01*
Y39509D01*
X323049Y40703D01*
X322135Y41617D01*
X320941Y42112D01*
X319648D01*
X318453Y41617D01*
X317561Y40725D01*
X316200D01*
X316142Y40864D01*
X315377Y41181D01*
X314035D01*
X313270Y40864D01*
X313212Y40725D01*
X310741D01*
X309801Y40336D01*
X309614Y39884D01*
X307703D01*
X307052Y40113D01*
X306530Y41050D01*
Y41491D01*
X306073Y42593D01*
X305229Y43437D01*
X304127Y43894D01*
D02*
G37*
G36*
X323028Y30486D02*
X315528D01*
Y22020D01*
X310622D01*
X310622Y22020D01*
X310621Y22020D01*
X310282Y21953D01*
X309939Y21885D01*
X309939Y21885D01*
X309939Y21885D01*
X309629Y21677D01*
X309360Y21498D01*
X309360Y21498D01*
X309360Y21498D01*
X308059Y20197D01*
X303930D01*
Y21816D01*
X303791Y22513D01*
X303396Y23105D01*
X302805Y23500D01*
X302108Y23639D01*
X295808D01*
X295111Y23500D01*
X294520Y23105D01*
X294125Y22513D01*
X293986Y21816D01*
Y15009D01*
X294125Y14311D01*
X294520Y13720D01*
X295111Y13325D01*
X295808Y13186D01*
X302108D01*
X302805Y13325D01*
X303396Y13720D01*
X303791Y14311D01*
X303930Y15009D01*
Y16628D01*
X308799D01*
X308799Y16628D01*
X308799Y16628D01*
X309138Y16696D01*
X309481Y16764D01*
X309481Y16764D01*
X309482Y16764D01*
X309792Y16971D01*
X310060Y17151D01*
X310060Y17151D01*
X310060Y17151D01*
X311361Y18452D01*
X317278D01*
X317450Y18486D01*
X323028D01*
Y30486D01*
D02*
G37*
G36*
X260947Y23828D02*
X259753D01*
X258651Y23371D01*
X257807Y22527D01*
X257350Y21425D01*
Y20231D01*
X257807Y19129D01*
X258651Y18285D01*
X259753Y17828D01*
X260947D01*
X262049Y18285D01*
X262893Y19129D01*
X263350Y20231D01*
Y21425D01*
X262893Y22527D01*
X262049Y23371D01*
X260947Y23828D01*
D02*
G37*
G36*
X59383Y30499D02*
X59121Y30391D01*
X58227Y30179D01*
X57770Y30088D01*
X57677Y30026D01*
X57567D01*
X56365Y29528D01*
X56286Y29450D01*
X56178Y29428D01*
X55748Y29141D01*
X54974Y28653D01*
X54712Y28545D01*
X54002Y27834D01*
X54002Y27834D01*
X53890Y27565D01*
X53411Y26789D01*
X53155Y26405D01*
X53133Y26297D01*
X53055Y26218D01*
X52557Y25016D01*
Y24906D01*
X52495Y24813D01*
X52405Y24359D01*
X52195Y23472D01*
X52084Y23202D01*
X52084Y22245D01*
X52354Y21210D01*
X52361Y21177D01*
X52495Y20538D01*
X52519Y20503D01*
X52555Y20343D01*
X52557Y20335D01*
X52739Y19895D01*
X53055Y19133D01*
X53133Y19055D01*
X53155Y18946D01*
X53251Y18802D01*
X53893Y17831D01*
X54023Y17552D01*
X54062Y17457D01*
X54062Y17457D01*
X54315Y17205D01*
X54566Y16952D01*
X54567Y16952D01*
X54593Y16941D01*
X55096Y16646D01*
X56178Y15924D01*
X56286Y15902D01*
X56365Y15823D01*
X57567Y15326D01*
X57677D01*
X57770Y15264D01*
X59046Y15010D01*
X59611Y14852D01*
X59991D01*
X60769Y15010D01*
X61215Y15099D01*
X62045Y15264D01*
X62137Y15326D01*
X62248D01*
X63450Y15823D01*
X63528Y15902D01*
X63637Y15924D01*
X64718Y16646D01*
X64780Y16738D01*
X64882Y16781D01*
X65802Y17701D01*
X65845Y17803D01*
X65937Y17865D01*
X66659Y18946D01*
X66681Y19055D01*
X66760Y19133D01*
X67257Y20335D01*
Y20446D01*
X67319Y20538D01*
X67573Y21814D01*
X67551Y21923D01*
X67594Y22025D01*
Y23326D01*
X67551Y23429D01*
X67573Y23537D01*
X67319Y24813D01*
X67257Y24906D01*
Y25016D01*
X66760Y26218D01*
X66681Y26297D01*
X66659Y26405D01*
X66156Y27159D01*
X65937Y27487D01*
X65465Y28174D01*
X65458Y28189D01*
X65458Y28189D01*
X65345Y28300D01*
X65234Y28413D01*
X65234Y28413D01*
X65206Y28425D01*
X64718Y28705D01*
X64183Y29063D01*
X63637Y29428D01*
X63528Y29450D01*
X63450Y29528D01*
X62586Y29886D01*
X62248Y30026D01*
X62244Y30027D01*
X62081Y30063D01*
X62045Y30088D01*
X61683Y30160D01*
X61362Y30224D01*
X60222Y30499D01*
X59383Y30499D01*
X59383Y30499D01*
D02*
G37*
G36*
X280362Y27452D02*
X280102Y27343D01*
X279207Y27131D01*
X278750Y27040D01*
X278657Y26978D01*
X278547D01*
X277345Y26480D01*
X277266Y26402D01*
X277158Y26380D01*
X276728Y26093D01*
X275954Y25605D01*
X275692Y25497D01*
X274982Y24786D01*
X274982Y24786D01*
X274870Y24517D01*
X274391Y23741D01*
X274135Y23357D01*
X274113Y23249D01*
X274035Y23170D01*
X273537Y21968D01*
Y21858D01*
X273475Y21765D01*
X273385Y21311D01*
X273175Y20424D01*
X273064Y20154D01*
X273064Y19197D01*
X273334Y18162D01*
X273341Y18130D01*
X273475Y17490D01*
X273499Y17455D01*
X273535Y17295D01*
X273537Y17287D01*
X273719Y16847D01*
X274035Y16085D01*
X274113Y16007D01*
X274135Y15898D01*
X274231Y15754D01*
X274873Y14784D01*
X275003Y14504D01*
X275042Y14409D01*
X275042Y14409D01*
X275295Y14157D01*
X275546Y13904D01*
X275547Y13904D01*
X275573Y13893D01*
X276076Y13598D01*
X277158Y12875D01*
X277266Y12854D01*
X277345Y12775D01*
X278547Y12278D01*
X278657D01*
X278750Y12216D01*
X280026Y11962D01*
X280591Y11804D01*
X280970D01*
X281749Y11962D01*
X282195Y12051D01*
X283025Y12216D01*
X283117Y12278D01*
X283228D01*
X284429Y12775D01*
X284508Y12854D01*
X284617Y12875D01*
X285698Y13598D01*
X285760Y13690D01*
X285862Y13733D01*
X286782Y14653D01*
X286825Y14755D01*
X286917Y14817D01*
X287640Y15898D01*
X287661Y16007D01*
X287740Y16085D01*
X288237Y17287D01*
Y17398D01*
X288299Y17490D01*
X288553Y18766D01*
X288531Y18875D01*
X288574Y18977D01*
Y20278D01*
X288531Y20381D01*
X288553Y20489D01*
X288299Y21765D01*
X288237Y21858D01*
Y21968D01*
X287740Y23170D01*
X287661Y23249D01*
X287640Y23357D01*
X287136Y24111D01*
X286917Y24439D01*
X286445Y25126D01*
X286438Y25141D01*
X286438Y25141D01*
X286325Y25252D01*
X286214Y25365D01*
X286214Y25365D01*
X286186Y25377D01*
X285698Y25657D01*
X285163Y26015D01*
X284617Y26380D01*
X284508Y26402D01*
X284429Y26480D01*
X283566Y26838D01*
X283228Y26978D01*
X283224Y26979D01*
X283061Y27015D01*
X283025Y27040D01*
X282663Y27112D01*
X282342Y27176D01*
X281202Y27452D01*
X280363Y27451D01*
X280362Y27452D01*
D02*
G37*
G36*
X11244Y22971D02*
X9584D01*
X8049Y22335D01*
X6875Y21161D01*
X6239Y19626D01*
Y17966D01*
X6875Y16431D01*
X8049Y15257D01*
X9584Y14621D01*
X11244D01*
X11825Y14862D01*
X15653Y11034D01*
X16041Y10097D01*
X16955Y9183D01*
X18149Y8688D01*
X19442D01*
X20637Y9183D01*
X21551Y10097D01*
X22046Y11292D01*
Y12585D01*
X21551Y13779D01*
X20637Y14693D01*
X19442Y15188D01*
X18149D01*
X17015Y14718D01*
X14348Y17385D01*
X14589Y17966D01*
Y19626D01*
X13953Y21161D01*
X12779Y22335D01*
X11244Y22971D01*
D02*
G37*
G36*
X316528Y11486D02*
X309028D01*
Y7270D01*
X303109D01*
X303085Y7327D01*
X302171Y8241D01*
X300977Y8736D01*
X299684D01*
X298489Y8241D01*
X297575Y7327D01*
X297080Y6132D01*
Y4839D01*
X297575Y3645D01*
X298489Y2731D01*
X299684Y2236D01*
X300977D01*
X302171Y2731D01*
X303085Y3645D01*
X303109Y3702D01*
X309028D01*
Y-514D01*
X316528D01*
Y11486D01*
D02*
G37*
G36*
X70332Y5796D02*
X68352D01*
X68250Y5754D01*
X68141Y5776D01*
X66200Y5390D01*
X66108Y5328D01*
X65997D01*
X64168Y4570D01*
X64090Y4492D01*
X63981Y4470D01*
X62335Y3371D01*
X62274Y3279D01*
X62171Y3236D01*
X60772Y1837D01*
X60729Y1734D01*
X60637Y1673D01*
X59538Y27D01*
X59516Y-82D01*
X59437Y-160D01*
X58680Y-1989D01*
Y-2100D01*
X58618Y-2192D01*
X58232Y-4133D01*
X58254Y-4242D01*
X58211Y-4344D01*
Y-6324D01*
X58254Y-6426D01*
X58232Y-6535D01*
X58618Y-8476D01*
X58680Y-8568D01*
Y-8679D01*
X59437Y-10508D01*
X59516Y-10586D01*
X59538Y-10695D01*
X60637Y-12341D01*
X60729Y-12402D01*
X60772Y-12505D01*
X62171Y-13904D01*
X62274Y-13947D01*
X62335Y-14039D01*
X63981Y-15138D01*
X64090Y-15160D01*
X64168Y-15238D01*
X65997Y-15996D01*
X66108D01*
X66200Y-16057D01*
X68141Y-16444D01*
X68250Y-16422D01*
X68352Y-16465D01*
X70332D01*
X70434Y-16422D01*
X70543Y-16444D01*
X72484Y-16057D01*
X72576Y-15996D01*
X72687D01*
X74516Y-15238D01*
X74594Y-15160D01*
X74703Y-15138D01*
X76349Y-14039D01*
X76410Y-13947D01*
X76513Y-13904D01*
X77912Y-12505D01*
X77955Y-12402D01*
X78047Y-12341D01*
X79146Y-10695D01*
X79168Y-10586D01*
X79247Y-10508D01*
X80004Y-8679D01*
Y-8568D01*
X80065Y-8476D01*
X80452Y-6535D01*
X80430Y-6426D01*
X80472Y-6324D01*
Y-4344D01*
X80430Y-4242D01*
X80452Y-4133D01*
X80065Y-2192D01*
X80004Y-2100D01*
Y-1989D01*
X79247Y-160D01*
X79168Y-82D01*
X79146Y27D01*
X78047Y1673D01*
X77955Y1734D01*
X77912Y1837D01*
X76513Y3236D01*
X76410Y3279D01*
X76349Y3371D01*
X74703Y4470D01*
X74594Y4492D01*
X74516Y4570D01*
X72687Y5328D01*
X72576D01*
X72484Y5390D01*
X70543Y5776D01*
X70434Y5754D01*
X70332Y5796D01*
D02*
G37*
G36*
X270484Y5034D02*
X268504D01*
X268402Y4992D01*
X268293Y5014D01*
X266352Y4627D01*
X266260Y4566D01*
X266149D01*
X264320Y3808D01*
X264242Y3730D01*
X264133Y3708D01*
X262487Y2609D01*
X262426Y2517D01*
X262323Y2474D01*
X260924Y1075D01*
X260881Y972D01*
X260789Y911D01*
X259690Y-735D01*
X259668Y-844D01*
X259590Y-922D01*
X258832Y-2751D01*
Y-2862D01*
X258771Y-2954D01*
X258384Y-4895D01*
X258406Y-5004D01*
X258363Y-5106D01*
Y-7086D01*
X258406Y-7188D01*
X258384Y-7297D01*
X258771Y-9238D01*
X258832Y-9330D01*
Y-9441D01*
X259590Y-11270D01*
X259668Y-11348D01*
X259690Y-11457D01*
X260789Y-13103D01*
X260881Y-13164D01*
X260924Y-13267D01*
X262323Y-14666D01*
X262426Y-14709D01*
X262487Y-14801D01*
X264133Y-15900D01*
X264242Y-15922D01*
X264320Y-16000D01*
X266149Y-16758D01*
X266260D01*
X266352Y-16819D01*
X268293Y-17206D01*
X268402Y-17184D01*
X268504Y-17227D01*
X270484D01*
X270586Y-17184D01*
X270695Y-17206D01*
X272636Y-16819D01*
X272728Y-16758D01*
X272839D01*
X274668Y-16000D01*
X274746Y-15922D01*
X274855Y-15900D01*
X276501Y-14801D01*
X276562Y-14709D01*
X276665Y-14666D01*
X278064Y-13267D01*
X278107Y-13164D01*
X278199Y-13103D01*
X279298Y-11457D01*
X279320Y-11348D01*
X279398Y-11270D01*
X280156Y-9441D01*
Y-9330D01*
X280217Y-9238D01*
X280576Y-7439D01*
X280604Y-7297D01*
X280762Y-6189D01*
Y-6096D01*
X280604Y-4895D01*
X280602Y-4890D01*
X280217Y-2954D01*
X280156Y-2862D01*
Y-2751D01*
X279398Y-922D01*
X279320Y-844D01*
X279298Y-735D01*
X278199Y911D01*
X278107Y972D01*
X278064Y1075D01*
X276665Y2474D01*
X276562Y2517D01*
X276501Y2609D01*
X274855Y3708D01*
X274746Y3730D01*
X274668Y3808D01*
X272839Y4566D01*
X272728D01*
X272636Y4627D01*
X270695Y5014D01*
X270586Y4992D01*
X270484Y5034D01*
D02*
G37*
G36*
X41795Y9854D02*
X40501D01*
X39307Y9359D01*
X38393Y8445D01*
X37898Y7250D01*
Y5957D01*
X37922Y5901D01*
X35837Y3816D01*
X32736D01*
X32495Y4397D01*
X31321Y5571D01*
X29787Y6207D01*
X28126D01*
X26591Y5571D01*
X25417Y4397D01*
X24781Y2862D01*
Y1201D01*
X25417Y-333D01*
X26591Y-1507D01*
X28126Y-2143D01*
X29787D01*
X31321Y-1507D01*
X32495Y-333D01*
X32736Y248D01*
X36576D01*
X37259Y384D01*
X37838Y770D01*
X40445Y3377D01*
X40501Y3354D01*
X41795D01*
X42989Y3849D01*
X43903Y4763D01*
X44398Y5957D01*
Y7250D01*
X43903Y8445D01*
X42989Y9359D01*
X41795Y9854D01*
D02*
G37*
G36*
X88633Y2501D02*
X87340D01*
X86145Y2007D01*
X85231Y1092D01*
X84736Y-102D01*
Y-1395D01*
X85231Y-2590D01*
X86145Y-3504D01*
X87340Y-3999D01*
X88633D01*
X89827Y-3504D01*
X90178Y-3153D01*
X91665Y-3426D01*
X91733Y-3588D01*
X92647Y-4502D01*
X93841Y-4997D01*
X95134D01*
X96329Y-4502D01*
X97243Y-3588D01*
X97738Y-2394D01*
Y-1101D01*
X97243Y94D01*
X96329Y1008D01*
X95134Y1503D01*
X93841D01*
X92647Y1008D01*
X92296Y658D01*
X90809Y930D01*
X90742Y1092D01*
X89827Y2007D01*
X88633Y2501D01*
D02*
G37*
G36*
X114966Y8762D02*
X109966D01*
Y-7238D01*
X114966D01*
Y8762D01*
D02*
G37*
G36*
X174073Y44649D02*
X172879D01*
X171777Y44192D01*
X170933Y43348D01*
X170476Y42246D01*
Y41052D01*
X170933Y39950D01*
X171777Y39106D01*
X172879Y38649D01*
X174073D01*
X175175Y39106D01*
X176019Y39950D01*
X176476Y41052D01*
Y42246D01*
X176019Y43348D01*
X175175Y44192D01*
X174073Y44649D01*
D02*
G37*
G36*
X196735Y27342D02*
X195441D01*
X194247Y26847D01*
X193333Y25933D01*
X192838Y24738D01*
Y23445D01*
X193333Y22251D01*
X194247Y21337D01*
X195441Y20842D01*
X196735D01*
X197929Y21337D01*
X198843Y22251D01*
X199338Y23445D01*
Y24738D01*
X198843Y25933D01*
X197929Y26847D01*
X196735Y27342D01*
D02*
G37*
%LPD*%
D11*
X14139Y87982D02*
X19594D01*
X11382Y90739D02*
X14139Y87982D01*
X5842Y90739D02*
X11382D01*
X2812Y81230D02*
X4588Y83007D01*
X2600Y73562D02*
X2812Y73773D01*
X2600Y70149D02*
Y73562D01*
X2812Y73773D02*
Y81230D01*
X2122Y69671D02*
X2600Y70149D01*
X4588Y89485D02*
X5842Y90739D01*
X4588Y83007D02*
Y89485D01*
D17*
X36465Y213295D02*
X36899Y213729D01*
X40340Y216535D02*
Y217170D01*
X37534Y213729D02*
X40340Y216535D01*
X36899Y213729D02*
X37534D01*
X34367Y213295D02*
X36465D01*
X33889Y212816D02*
X34367Y213295D01*
X235204Y59690D02*
X243758Y68244D01*
X249007Y55626D02*
X251356Y57976D01*
X212786Y55626D02*
X249007D01*
X251590Y49396D02*
Y57976D01*
X298958Y33911D02*
X301612Y36565D01*
X305645D02*
X307180Y38100D01*
X312036D01*
X301612Y36565D02*
X305645D01*
X249310Y135014D02*
X249656Y134668D01*
X254032D01*
X248780Y135014D02*
X249310D01*
X248222Y131572D02*
X256952D01*
X254378Y135014D02*
X258381D01*
X239844Y139950D02*
X248222Y131572D01*
X258381Y135014D02*
X258785Y135418D01*
X254032Y134668D02*
X254378Y135014D01*
X239844Y127950D02*
X246500Y121294D01*
X248412Y127382D02*
X258942D01*
X247984Y123810D02*
X248278D01*
X246500Y121294D02*
X247236D01*
X249179Y119351D01*
X248721Y123367D02*
X262882D01*
X248278Y123810D02*
X248721Y123367D01*
X249179Y119351D02*
X259099D01*
X239844Y131950D02*
X247984Y123810D01*
X239844Y135950D02*
X248412Y127382D01*
X245458Y118778D02*
X246194D01*
X248546Y116426D01*
X244286Y119950D02*
X245458Y118778D01*
X201593Y139520D02*
X208447D01*
X201370Y139297D02*
X201593Y139520D01*
X208447D02*
X208670Y139742D01*
X231475Y92319D02*
X235844Y87950D01*
X286655Y66381D02*
X288349Y64687D01*
X289161D01*
X283844Y71950D02*
Y75950D01*
X285552Y66381D02*
X286655D01*
X283844Y68090D02*
X285552Y66381D01*
X283844Y68090D02*
Y71950D01*
X275690Y66171D02*
X275982Y65880D01*
X272932Y66171D02*
X275690D01*
X282818Y80341D02*
X286431D01*
X287005Y80915D01*
X274828Y59375D02*
X276364Y60911D01*
X280611Y63992D02*
Y71048D01*
X277530Y60911D02*
X280611Y63992D01*
X276364Y60911D02*
X277530D01*
X279844Y71815D02*
X280611Y71048D01*
X279844Y71815D02*
Y75950D01*
X271940Y71501D02*
X272053Y71388D01*
X271940Y71501D02*
Y71854D01*
X271844Y71950D02*
X271940Y71854D01*
X266446Y49324D02*
Y61214D01*
X272784Y60911D02*
Y62784D01*
X272053Y67050D02*
X272932Y66171D01*
X272053Y67050D02*
Y71388D01*
X259844Y67816D02*
X266446Y61214D01*
X267844Y67724D02*
Y71950D01*
X263440Y48772D02*
Y60354D01*
X263844Y68134D02*
X268986Y62992D01*
Y50342D02*
Y62992D01*
X267844Y67724D02*
X272784Y62784D01*
X251844Y71950D02*
X263440Y60354D01*
X272784Y60911D02*
X274320Y59375D01*
X263844Y68134D02*
Y71950D01*
X247844D02*
X247844D01*
X249589Y70205D02*
X249628D01*
X247844Y71950D02*
X249589Y70205D01*
X260924Y44211D02*
Y58909D01*
X249628Y70205D02*
X260924Y58909D01*
X260565Y84582D02*
X261112D01*
X259612Y77950D02*
X259748Y77814D01*
X255844Y79815D02*
Y79950D01*
X255596Y76333D02*
Y79567D01*
X255933Y79950D02*
X260565Y84582D01*
X255596Y76333D02*
X255844Y76085D01*
X259748Y76046D02*
Y77814D01*
X255596Y79567D02*
X255844Y79815D01*
Y79950D02*
X255933D01*
X174415Y75108D02*
X174546D01*
X173670Y74742D02*
X174049D01*
X174415Y75108D01*
X168919Y82988D02*
X169094D01*
X163938Y80010D02*
X165942D01*
X163670Y79742D02*
X163938Y80010D01*
X165942D02*
X168919Y82988D01*
X163718Y84790D02*
X163855D01*
X163670Y84742D02*
X163718Y84790D01*
X133670Y69742D02*
X143670D01*
X193670D02*
X198670D01*
X183670D02*
X193670D01*
X173670D02*
X183670D01*
X163670D02*
X173670D01*
X153670D02*
X163670D01*
X198670D02*
X203670Y74742D01*
X108217Y105660D02*
X109135Y104742D01*
X113670D01*
X108045Y77699D02*
Y84093D01*
X108028Y77683D02*
X108045Y77699D01*
X107405Y105660D02*
X108217D01*
X100264Y109794D02*
X100316Y109742D01*
X113670D01*
X129619Y110039D02*
X129619Y110039D01*
X138373D01*
X163805Y129742D02*
X168522Y125025D01*
X168658D01*
X163670Y129742D02*
X163805D01*
X163670Y115226D02*
X163703D01*
X113670Y59445D02*
X116138Y56977D01*
X124256Y55328D02*
X128670Y59742D01*
X117827Y40252D02*
X120933D01*
X114937Y43141D02*
Y47752D01*
X120933Y40252D02*
X124256Y43575D01*
X113670Y59445D02*
Y59742D01*
X119380Y44002D02*
Y49166D01*
X124256Y43575D02*
Y55328D01*
X116138Y52408D02*
Y56977D01*
Y52408D02*
X119380Y49166D01*
X114937Y43141D02*
X117827Y40252D01*
X109464Y47618D02*
X109599Y47752D01*
X95623Y52394D02*
X100400Y47618D01*
X95623Y52394D02*
Y54869D01*
X100400Y47618D02*
X109464D01*
X95374Y55118D02*
X95623Y54869D01*
X123800Y69515D02*
X124158D01*
X118670Y64742D02*
X119028D01*
X123800Y69515D01*
X123670Y74742D02*
X126870Y77942D01*
X133670Y69742D02*
X136870Y72942D01*
Y76068D01*
X134995Y77942D02*
X136870Y76068D01*
X126870Y77942D02*
X134995D01*
X123670Y74742D02*
Y84742D01*
X123402Y85010D02*
Y87955D01*
X122274Y89083D02*
X123402Y87955D01*
X123670Y94363D02*
Y94742D01*
X123402Y85010D02*
X123670Y84742D01*
X122274Y89083D02*
Y92967D01*
X123670Y94363D01*
X122748Y99453D02*
X128900D01*
X119370Y95821D02*
Y95917D01*
X118670Y95121D02*
X119370Y95821D01*
X121870Y98575D02*
X122748Y99453D01*
X121870Y98417D02*
Y98575D01*
X118670Y94742D02*
Y95121D01*
X119370Y95917D02*
X121870Y98417D01*
X108835Y52913D02*
X109638D01*
X133664Y55725D02*
X134653D01*
X138670Y59742D01*
X130446Y52507D02*
X133664Y55725D01*
X277888Y39300D02*
X281195Y35993D01*
X299689Y66483D02*
X302260Y63911D01*
Y59375D02*
Y63911D01*
X299689Y66483D02*
Y66757D01*
X259748Y76046D02*
X259844Y75950D01*
X248983Y84950D02*
X252076D01*
X242594Y83165D02*
X244852Y85422D01*
X257193Y96855D02*
X257561Y97223D01*
X245920Y85422D02*
X247948Y87450D01*
X254693Y94638D02*
Y97891D01*
X245440Y77871D02*
X250019Y82450D01*
X245440Y77681D02*
Y77871D01*
X251041Y87450D02*
X257193Y93602D01*
X247948Y87450D02*
X251041D01*
X255045Y98243D02*
Y102733D01*
X244852Y85422D02*
X245920D01*
X246912Y89950D02*
X250005D01*
X244884Y87922D02*
X246912Y89950D01*
X243844Y75950D02*
Y76085D01*
X239844Y83950D02*
X243816Y87922D01*
X257561Y97223D02*
Y99570D01*
X259693Y95210D02*
X261933Y97451D01*
X259693Y92567D02*
Y95210D01*
X252076Y84950D02*
X259693Y92567D01*
X250353Y79248D02*
X251054Y79950D01*
X257193Y93602D02*
Y96855D01*
X246956Y82922D02*
X248983Y84950D01*
X251054Y79950D02*
X255844D01*
X243816Y87922D02*
X244884D01*
X239844Y91950D02*
X239858Y91936D01*
X250019Y82450D02*
X253301D01*
X250005Y89950D02*
X254693Y94638D01*
Y97891D02*
X255045Y98243D01*
X239858Y91936D02*
X243214D01*
X246816Y82922D02*
X246956D01*
X239844Y75950D02*
X246816Y82922D01*
X243214Y91936D02*
X243228Y91922D01*
X243844Y76085D02*
X245440Y77681D01*
X247940Y76046D02*
Y76807D01*
X247844Y75950D02*
X247940Y76046D01*
X239844Y80071D02*
X240973Y81200D01*
X240983D02*
X242594Y82811D01*
X239844Y79950D02*
Y80071D01*
X242594Y82811D02*
Y83165D01*
X240973Y81200D02*
X240983D01*
X239844Y95950D02*
X245537D01*
X247537Y93950D02*
X248349D01*
X245537Y95950D02*
X247537Y93950D01*
X265248Y78546D02*
X267844Y75950D01*
X265248Y78546D02*
Y79567D01*
X264674Y80141D02*
X265248Y79567D01*
X253301Y82450D02*
X263846Y92995D01*
X299417Y102244D02*
X306440Y109267D01*
X295792Y102244D02*
X299417D01*
X288290Y94742D02*
X295792Y102244D01*
X306440Y109267D02*
X307724D01*
X308811Y110354D01*
X310113D02*
X311709Y111950D01*
X311844D01*
X301244Y100167D02*
X307844Y106767D01*
X308811Y110354D02*
X310113D01*
X309847Y107854D02*
X311837D01*
X308760Y106767D02*
X309847Y107854D01*
X307844Y106767D02*
X308760D01*
X306748Y111826D02*
X310776Y115854D01*
X302768Y111252D02*
X303342Y111826D01*
X306748D01*
X310776Y115854D02*
X311748D01*
X311844Y115950D01*
X301244Y88900D02*
Y100167D01*
Y83778D02*
Y88900D01*
Y83778D02*
X306306Y78716D01*
X311837Y107854D02*
X311932Y107950D01*
X315844Y103950D02*
X317328Y102466D01*
X173670Y124742D02*
X178670D01*
X192278Y183971D02*
Y184648D01*
X190350Y175514D02*
Y182043D01*
X192278Y183971D01*
X208882Y181681D02*
Y183174D01*
X212771Y187064D01*
X216089D02*
X216339Y187314D01*
X203350Y175514D02*
Y176149D01*
X208882Y181681D01*
X212771Y187064D02*
X216089D01*
X115062Y246634D02*
X115874D01*
X117788Y248548D01*
X179106D01*
X189520Y238134D01*
Y237868D02*
Y238134D01*
Y237868D02*
X199934Y227454D01*
X203708D01*
X272868Y146934D02*
X276907Y150973D01*
X271844Y143950D02*
X271940Y144046D01*
Y145133D01*
X272868Y146061D01*
Y146934D01*
X275590Y156525D02*
X277126Y154989D01*
X279513D01*
X285331Y149171D01*
Y146463D02*
Y149171D01*
Y146463D02*
X287844Y143950D01*
X259932Y139950D02*
X266812Y133070D01*
X176286Y134681D02*
X183609D01*
X173670Y134742D02*
X173938Y135010D01*
X173670Y129742D02*
Y134742D01*
X207466Y11283D02*
X208237Y12054D01*
Y15959D02*
X208811Y16533D01*
X208237Y12054D02*
Y15959D01*
X207466Y762D02*
Y11283D01*
X203060Y20058D02*
X203446Y20445D01*
Y27300D02*
X203832Y27686D01*
X203446Y20445D02*
Y27300D01*
X227721Y75254D02*
X228600Y74376D01*
X214049Y69742D02*
X219561Y75254D01*
X218683Y84898D02*
X218985D01*
X228600Y62021D02*
Y74376D01*
X218985Y84898D02*
X222808Y81074D01*
X218565Y79270D02*
X218933D01*
X214037Y74742D02*
X218565Y79270D01*
X213670Y74742D02*
X214037D01*
X226816Y59642D02*
Y60237D01*
X228600Y62021D01*
X219561Y75254D02*
X227721D01*
X220509Y99347D02*
X221320D01*
X222509Y100536D01*
X231258D01*
X182784Y53041D02*
X184028D01*
X185063Y52007D01*
Y49509D02*
Y52007D01*
X180881Y54944D02*
X182784Y53041D01*
X185063Y49509D02*
X185296Y49276D01*
X187812Y52171D02*
Y52816D01*
X180205Y54944D02*
X180881D01*
X184426Y55557D02*
X185070D01*
X187812Y52816D01*
X183938Y56045D02*
X184426Y55557D01*
X187812Y52171D02*
X188585Y51397D01*
X128402Y125010D02*
X128670Y124742D01*
X127762Y128524D02*
X128402Y127884D01*
Y125010D02*
Y127884D01*
X90266Y146212D02*
X94298Y142179D01*
X100076D01*
X87594Y135982D02*
X89766D01*
X90016Y136232D02*
Y138250D01*
X89766Y135982D02*
X90016Y136232D01*
X19594Y73756D02*
Y83982D01*
X17022Y71184D02*
X19594Y73756D01*
X15152Y74950D02*
X15462D01*
X16889Y71184D02*
X17022D01*
X8128Y78356D02*
X11746D01*
X15152Y74950D01*
X14732Y69027D02*
X16889Y71184D01*
X19550Y96026D02*
X19594Y95982D01*
X10422Y99560D02*
Y101145D01*
X8140Y103427D02*
X10422Y101145D01*
X6350Y105217D02*
X6604D01*
X8140Y103427D02*
Y103681D01*
X13956Y96026D02*
X19550D01*
X10422Y99560D02*
X13956Y96026D01*
X6604Y105217D02*
X8140Y103681D01*
X301459Y160403D02*
X303235Y162179D01*
X294894Y160403D02*
X301459D01*
X303235Y162179D02*
X303911D01*
X302199Y168402D02*
X303735Y166866D01*
X302199Y168402D02*
Y168656D01*
X303989Y166866D02*
X305054Y165801D01*
X314452D01*
X303735Y166866D02*
X303989D01*
X199953Y232794D02*
X203708D01*
X194462Y238284D02*
X199953Y232794D01*
X125894Y34908D02*
X140152D01*
X121794Y35681D02*
X125121D01*
X125894Y34908D01*
X121022D02*
X121794Y35681D01*
X117104Y34908D02*
X121022D01*
X233594Y135966D02*
X233602Y135958D01*
X235836D02*
X235844Y135950D01*
X233602Y135958D02*
X235836D01*
X106574Y71677D02*
X107131Y72233D01*
X102858Y71677D02*
X102858Y71677D01*
X106574D01*
X308263Y94372D02*
X309746Y95854D01*
X311748Y99854D02*
X311844Y99950D01*
X308638Y99759D02*
X308734Y99854D01*
X309746Y95854D02*
X311748D01*
X308734Y99854D02*
X311748D01*
X307451Y94372D02*
X308263D01*
X150880Y147185D02*
X153323Y144742D01*
X148775Y147759D02*
X149349Y147185D01*
X153323Y144742D02*
X153670D01*
X149349Y147185D02*
X150880D01*
X247844Y139950D02*
X247932D01*
X235204Y151662D02*
Y153162D01*
X236016Y147778D02*
Y150850D01*
X231041Y145940D02*
X232000Y146898D01*
Y147483D01*
X236016Y147778D02*
X239844Y143950D01*
X235204Y151662D02*
X236016Y150850D01*
X263115Y114633D02*
Y123134D01*
X270490Y106608D02*
Y107257D01*
X275958Y101140D02*
X279286D01*
X290261Y112116D01*
Y113618D01*
X272756Y108550D02*
X274228D01*
X270490Y106608D02*
X275958Y101140D01*
X274228Y108550D02*
X277622Y105156D01*
X290261Y113618D02*
X301715Y125072D01*
X269936Y111370D02*
Y113690D01*
X263115Y114633D02*
X270490Y107257D01*
X269936Y111370D02*
X272756Y108550D01*
X262926Y123323D02*
X263115Y123134D01*
X268732Y114894D02*
Y125726D01*
Y114894D02*
X269936Y113690D01*
X311748Y95854D02*
X311844Y95950D01*
Y83950D02*
X315844D01*
X307844Y71950D02*
X311844D01*
X307844D02*
Y75950D01*
X308087Y88545D02*
X308586Y88046D01*
X311748D02*
X311844Y87950D01*
X308586Y88046D02*
X311748D01*
X320626Y83610D02*
Y84141D01*
X316905Y87466D02*
X317300D01*
X321806Y81135D02*
Y82430D01*
X320513Y79843D02*
X321806Y81135D01*
X315940Y87854D02*
X316517D01*
X315844Y91950D02*
X315979D01*
X320626Y83610D02*
X321806Y82430D01*
X326304Y81398D02*
X326305D01*
X328657Y87079D02*
X328658Y87078D01*
X326305Y81398D02*
X328658Y83751D01*
X320513Y79330D02*
Y79843D01*
X316517Y87854D02*
X316905Y87466D01*
X317947Y89982D02*
X320074D01*
X328658Y83751D02*
Y87078D01*
X324237Y79330D02*
X326304Y81398D01*
X315979Y91950D02*
X317947Y89982D01*
X328657Y87079D02*
Y96487D01*
X315844Y87950D02*
X315940Y87854D01*
X320074Y89982D02*
X324642Y85414D01*
X317300Y87466D02*
X320626Y84141D01*
X319939Y78756D02*
X320513Y79330D01*
X79594Y147482D02*
X84074Y151962D01*
X79594Y143982D02*
Y147482D01*
X75594Y143982D02*
Y156490D01*
X83286Y139677D02*
Y143386D01*
X75594Y156490D02*
X75946Y156842D01*
X83286Y143386D02*
X83860Y143960D01*
X73557Y115982D02*
X87594D01*
X69596Y112021D02*
X73557Y115982D01*
X69596Y111209D02*
Y112021D01*
X72910Y120834D02*
X73812D01*
X69648Y124096D02*
X72910Y120834D01*
X74664Y119982D02*
X87594D01*
X73812Y120834D02*
X74664Y119982D01*
X95223Y127982D02*
X100076Y123129D01*
X87594Y127982D02*
X95223D01*
X100076Y123129D02*
X100330D01*
X99822Y134681D02*
X100076D01*
X87594Y131982D02*
X97123D01*
X99822Y134681D01*
X80870Y131982D02*
X87594D01*
X149187Y87331D02*
Y89452D01*
X148613Y90026D02*
X149187Y89452D01*
Y87331D02*
X149402Y87116D01*
X101092Y89723D02*
X103469Y87346D01*
X100838Y89723D02*
X101092D01*
X103469Y87346D02*
X104455D01*
X104934Y86868D01*
X108700Y84748D02*
Y89771D01*
X108045Y84093D02*
X108700Y84748D01*
Y89771D02*
X113670Y94742D01*
X23977Y80368D02*
X25860Y82251D01*
X31519Y63924D02*
X31750Y63693D01*
X25860Y83673D02*
X27686Y85499D01*
Y90678D01*
X23977Y66906D02*
Y80368D01*
X25860Y82251D02*
Y83673D01*
X26960Y63924D02*
X31519D01*
X23977Y66906D02*
X26960Y63924D01*
X248546Y115690D02*
X250397Y113839D01*
X248546Y115690D02*
Y116426D01*
X271565Y41654D02*
Y42732D01*
X267638Y33103D02*
X268190Y32550D01*
X277170Y40830D02*
X277888Y40111D01*
X271565Y41654D02*
X273154Y40066D01*
X267638Y33103D02*
Y37808D01*
X269049Y39220D01*
X277888Y39300D02*
Y40111D01*
X273154Y39254D02*
Y40066D01*
X281320Y79904D02*
X282381D01*
X282818Y80341D01*
X210243Y258866D02*
X210841D01*
X214437Y255270D01*
X84074Y151962D02*
Y156779D01*
X75594Y134738D02*
Y143982D01*
X83820Y157033D02*
X84074Y156779D01*
X328207Y129882D02*
X330912Y132588D01*
X331724D01*
X326318Y129882D02*
X328207D01*
X327622Y123214D02*
X330356Y125948D01*
X334098D02*
X334264Y126114D01*
X330356Y125948D02*
X334098D01*
X327079Y123214D02*
X327622D01*
X140152Y34908D02*
X148325Y43081D01*
X160368Y41664D02*
X161180D01*
X159272Y42760D02*
X160368Y41664D01*
X148325Y43081D02*
X154079D01*
X155614Y42760D02*
X159272D01*
X154079Y43081D02*
X154686Y43688D01*
X176439Y52794D02*
X179956Y49276D01*
X178670Y59363D02*
Y59742D01*
X176439Y52794D02*
Y57131D01*
X178670Y59363D01*
X183670Y59742D02*
X183938Y59474D01*
X188585Y46649D02*
Y51397D01*
X183938Y56045D02*
Y59474D01*
X184200Y-6970D02*
Y-6472D01*
Y-6970D02*
X185235Y-8004D01*
X182466Y-4738D02*
Y762D01*
Y-4738D02*
X184200Y-6472D01*
X185235Y-8004D02*
X185776D01*
X187026Y-9254D01*
X187702D01*
X220732Y-6970D02*
Y-6472D01*
X222466Y-4738D02*
Y10122D01*
X163216Y-5986D02*
X170250Y-13020D01*
X163216Y-5986D02*
Y-5488D01*
X214682Y-13020D02*
X220732Y-6970D01*
X170250Y-13020D02*
X214682D01*
X220732Y-6472D02*
X222466Y-4738D01*
X162466D02*
X163216Y-5488D01*
X184048Y17223D02*
Y17928D01*
X187466Y762D02*
Y14746D01*
X189738Y17018D01*
X181219Y14393D02*
X184048Y17223D01*
X181219Y13333D02*
Y14393D01*
X177466Y9580D02*
X181219Y13333D01*
X66670Y159975D02*
X70313D01*
X65402Y156210D02*
X65635Y156443D01*
Y158940D01*
X66670Y159975D01*
X70313D02*
X72519Y162181D01*
X75946D01*
X61626Y122086D02*
X67651Y128111D01*
X68968D01*
X58036Y130628D02*
X67926D01*
X55027Y114300D02*
X61626Y120899D01*
X55197Y127789D02*
X58036Y130628D01*
X51784Y122682D02*
X55197Y126095D01*
Y127789D01*
X54171Y137117D02*
X55344Y138289D01*
X61626Y120899D02*
Y122086D01*
X54171Y132443D02*
Y137117D01*
X67926Y130628D02*
X71594Y134296D01*
X78852Y134000D02*
Y135243D01*
X83286Y139677D01*
X78852Y134000D02*
X80870Y131982D01*
X55344Y143732D02*
X55594Y143982D01*
X55344Y138289D02*
Y143732D01*
X67594Y136787D02*
Y143982D01*
X66982Y135363D02*
Y136175D01*
X67594Y136787D01*
X29295Y109356D02*
X29972D01*
X19594Y111982D02*
X26670D01*
X29295Y109356D01*
X33761Y112247D02*
X42915Y121401D01*
X19594Y107982D02*
Y111982D01*
X29545Y123982D02*
X35006Y129443D01*
X33286Y119982D02*
X38731Y125427D01*
X38899D01*
X35006Y129443D02*
X40562D01*
X42915Y121401D02*
Y127091D01*
X40562Y129443D02*
X42915Y127091D01*
X19594Y119982D02*
X33286D01*
X8509Y155067D02*
X13460D01*
X13841Y155448D01*
X8128Y154686D02*
X8509Y155067D01*
X167005Y189357D02*
X169188D01*
X153670Y164112D02*
X155956Y166398D01*
Y167074D01*
X153670Y159742D02*
Y164112D01*
X329829Y109434D02*
X331191Y108072D01*
Y104874D02*
X331669Y104396D01*
X320449Y109434D02*
X329829D01*
X331191Y104874D02*
Y108072D01*
X325439Y111950D02*
X334264Y120774D01*
X324641Y111950D02*
X325439D01*
X319061Y108046D02*
X320449Y109434D01*
X315940Y108046D02*
X319061D01*
X318439Y99854D02*
X319603Y98690D01*
X315940Y99854D02*
X318439D01*
X320449Y101402D02*
X323742D01*
X319385Y102466D02*
X320449Y101402D01*
X323742D02*
X328657Y96487D01*
X315844Y107950D02*
X315940Y108046D01*
X317328Y102466D02*
X319385D01*
X315844Y99950D02*
X315940Y99854D01*
X324641Y94823D02*
Y94840D01*
X320791Y98690D02*
X324641Y94840D01*
X319603Y98690D02*
X320791D01*
X294610Y129184D02*
X300481D01*
X301715Y127950D02*
X311844D01*
X283844Y139950D02*
X294610Y129184D01*
X301715Y125072D02*
Y127950D01*
X275844Y139815D02*
Y139950D01*
X300481Y129184D02*
X301715Y127950D01*
X308128Y123934D02*
X308136Y123942D01*
X311836D02*
X311844Y123950D01*
X275844Y139815D02*
X279828Y135831D01*
X308136Y123942D02*
X311836D01*
X279828Y135496D02*
Y135831D01*
X176276Y14386D02*
X180038Y18148D01*
X131520Y26725D02*
X174789D01*
X123361Y23633D02*
X128428D01*
X174789Y26725D02*
X180038Y21476D01*
X176276Y13716D02*
Y14386D01*
X180038Y18148D02*
Y21476D01*
X128428Y23633D02*
X131520Y26725D01*
X176022Y19812D02*
X176022D01*
X177466Y762D02*
Y9580D01*
X172466Y762D02*
Y16256D01*
X176022Y19812D01*
X162466Y-4738D02*
Y762D01*
X125822Y120488D02*
X126099D01*
X138373Y110039D02*
X143670Y104742D01*
X124394Y119060D02*
X125822Y120488D01*
X131108Y120860D02*
X131517Y120451D01*
X137961D01*
X230163Y220645D02*
Y220647D01*
X225881Y224929D02*
X230163Y220647D01*
X246380Y211818D02*
Y212630D01*
X244602Y214408D02*
Y236474D01*
Y214408D02*
X246380Y212630D01*
X227028Y215440D02*
X232094D01*
X232156Y215502D01*
X260924Y44211D02*
X264544Y40591D01*
X279674Y113518D02*
X280162Y114006D01*
Y121412D01*
X246164Y99200D02*
X250498D01*
X250693Y99006D01*
X255045Y102733D02*
X255480Y103168D01*
X243296Y108498D02*
X258421D01*
X239844Y103950D02*
X249504D01*
X257561Y99570D02*
X260436Y102445D01*
X249504Y103950D02*
X250037Y104482D01*
X239844Y111950D02*
X243296Y108498D01*
X258421D02*
X258589Y108331D01*
X158220Y145982D02*
Y150640D01*
X158622Y154693D02*
X158670Y154742D01*
X158622Y151042D02*
Y154693D01*
X158220Y150640D02*
X158622Y151042D01*
X163670Y159742D02*
X170368Y166440D01*
X165659Y167110D02*
Y167833D01*
X170368Y166440D02*
Y168844D01*
X158670Y160121D02*
X165659Y167110D01*
X170368Y168844D02*
X170942Y169418D01*
X134414Y99604D02*
X139187D01*
X122988Y119060D02*
X124394D01*
X153575Y172750D02*
X155918D01*
X156396Y173228D01*
X143670Y159742D02*
Y159742D01*
X141145Y170589D02*
Y172901D01*
X137670Y165743D02*
Y170025D01*
X142269Y174025D02*
Y174307D01*
X131363Y176331D02*
X137670Y170025D01*
X141145Y172901D02*
X142269Y174025D01*
X153630Y188976D02*
X163678D01*
X151514Y170688D02*
X153575Y172750D01*
X19594Y127982D02*
Y131982D01*
Y123982D02*
Y127982D01*
Y123982D02*
X29545D01*
X266446Y49324D02*
X269724Y46046D01*
Y46046D02*
X270324Y45446D01*
X272840Y45015D02*
Y46488D01*
X270324Y43973D02*
Y45446D01*
X272840Y45015D02*
X275046Y42809D01*
X268986Y50342D02*
X272840Y46488D01*
X275046Y42809D02*
X275278D01*
X277170Y40918D01*
X267208Y43607D02*
X267808Y43007D01*
X269049Y39220D02*
Y41689D01*
X267808Y42931D02*
X269049Y41689D01*
X270324Y43973D02*
X271565Y42732D01*
X277170Y40830D02*
Y40918D01*
X267208Y43607D02*
Y45004D01*
X267808Y42931D02*
Y43007D01*
X269724Y46046D02*
Y46046D01*
X274320Y113490D02*
Y123696D01*
X274161Y113331D02*
X274320Y113490D01*
X17399Y187960D02*
X23787Y194348D01*
X16764Y187960D02*
X17399D01*
X23787Y194348D02*
X24422D01*
X188214Y260919D02*
Y261414D01*
Y260919D02*
X193101Y256032D01*
X15718Y180186D02*
X18867D01*
X22301Y174244D02*
X24334Y176278D01*
X25146D01*
X18867Y180186D02*
X18975Y180294D01*
X16764Y174244D02*
X22301D01*
X78740Y240792D02*
X79502Y241554D01*
X66294Y228854D02*
Y231015D01*
X70991Y235712D01*
X78883Y242173D02*
X79502Y241554D01*
Y240939D02*
X80126Y240316D01*
X79502Y240939D02*
Y241554D01*
X108966Y240538D02*
X115062Y246634D01*
X80126Y240316D02*
X84296D01*
X307455Y64655D02*
X310005Y62105D01*
X307455Y64655D02*
Y65278D01*
X313690Y64466D02*
X315343Y62813D01*
Y58928D02*
Y62813D01*
X313690Y64466D02*
Y65278D01*
X163678Y189331D02*
X166068D01*
X255844Y75950D02*
Y76085D01*
X267485Y97146D02*
X267862Y96770D01*
Y84314D02*
X271196Y80980D01*
X267862Y84314D02*
Y96770D01*
X280570Y80654D02*
X281320Y79904D01*
X277074Y80654D02*
X280570D01*
X243758Y71864D02*
X243844Y71950D01*
X243758Y68244D02*
Y71864D01*
X137961Y120451D02*
X143670Y114742D01*
X220445Y124824D02*
X222567Y122703D01*
X220445Y124824D02*
Y128619D01*
X217005Y120010D02*
X218551Y121556D01*
X222567Y120090D02*
Y122703D01*
X219871Y129193D02*
X220445Y128619D01*
X218551Y121556D02*
X218741D01*
X200431Y80045D02*
X203366Y80045D01*
X87594Y103982D02*
Y107982D01*
Y99982D02*
Y103982D01*
X96048Y97221D02*
X100838D01*
X93537Y99732D02*
X96048Y97221D01*
X87844Y99732D02*
X93537D01*
X87594Y99982D02*
X87844Y99732D01*
X99808Y33528D02*
X100364Y32972D01*
X115168D01*
X84328Y33528D02*
X99808D01*
X72136Y37846D02*
X100160D01*
X100910Y37096D01*
X105302D02*
X105410Y36988D01*
X100910Y37096D02*
X105302D01*
X115168Y32972D02*
X117104Y34908D01*
X182082Y89408D02*
X203336D01*
X181869Y89195D02*
X182082Y89408D01*
X163370Y99443D02*
X163670Y99742D01*
X163290Y99443D02*
X163370D01*
X168380Y95104D02*
X168510Y95233D01*
X168380Y92942D02*
Y95104D01*
X183670Y94742D02*
Y95121D01*
X179497Y99294D02*
X183670Y95121D01*
X179497Y99294D02*
Y99858D01*
X137670Y165743D02*
X143670Y159742D01*
X124009Y176331D02*
X131363D01*
X183434Y124742D02*
X183670D01*
X183386Y124790D02*
X183434Y124742D01*
X228600Y154260D02*
Y154260D01*
X131346Y47727D02*
X134425Y50807D01*
X128830Y47727D02*
X131346D01*
X128256Y47153D02*
X128830Y47727D01*
X95374Y55118D02*
Y62484D01*
X134425Y51530D02*
X136320Y53424D01*
X134425Y50807D02*
Y51530D01*
X136320Y53424D02*
X137353D01*
X158609Y73866D02*
X159421D01*
X160029Y74474D01*
X163402D01*
X163670Y74742D01*
X175198Y224118D02*
X177574Y221742D01*
X173360Y224118D02*
X175198D01*
X177574Y195354D02*
Y221742D01*
Y223266D01*
X176286Y134681D02*
Y135818D01*
X183528Y257949D02*
X192847Y248630D01*
X183528Y257949D02*
Y258366D01*
X166068Y189331D02*
X166423Y189685D01*
X169188Y189357D02*
Y191853D01*
X140242Y168170D02*
Y169686D01*
X141145Y170589D01*
X140242Y168170D02*
X148670Y159742D01*
X169188Y189357D02*
X171577D01*
X227884Y175768D02*
X228134Y175518D01*
X315844Y111950D02*
X324641D01*
X315844Y115950D02*
X315939Y116046D01*
X319452D02*
X319951Y116544D01*
X315939Y116046D02*
X319452D01*
X21613Y163746D02*
X24415Y166548D01*
X11019Y163746D02*
X21613D01*
X21130Y155448D02*
Y159731D01*
X31206Y99982D02*
X32498Y101274D01*
X33310D01*
X19594Y99982D02*
X31206D01*
X8055Y160782D02*
X11019Y163746D01*
X7620Y160782D02*
X8055D01*
X21130Y155448D02*
X23459D01*
X19180D02*
X21130D01*
X19059Y147732D02*
X27344D01*
X14074Y152718D02*
Y155215D01*
Y152718D02*
X19059Y147732D01*
X13841Y155448D02*
X14074Y155215D01*
X27344Y147732D02*
X27594Y147482D01*
Y143982D02*
Y147482D01*
X78295Y164531D02*
X84074D01*
X75946Y162181D02*
X78295Y164531D01*
X63594Y151067D02*
X64963Y152436D01*
X63594Y143982D02*
Y151067D01*
X64963Y152436D02*
Y155771D01*
X65402Y156210D01*
X257601Y147652D02*
X258175Y148226D01*
X251844Y143950D02*
X255546Y147652D01*
X257601D01*
X157413Y18465D02*
X157466D01*
X162211Y1017D02*
Y20573D01*
X154736Y21142D02*
X157413Y18465D01*
X162211Y1017D02*
X162466Y762D01*
X153924Y21142D02*
X154736D01*
X161956Y20828D02*
X162211Y20573D01*
X214884Y15190D02*
Y16002D01*
Y15190D02*
X217466Y12608D01*
X197466Y11121D02*
X198726Y12381D01*
Y15797D01*
X199300Y16371D01*
X171577Y189357D02*
X177574Y195354D01*
X100015Y174498D02*
X103172Y177655D01*
Y178308D01*
X235204Y257749D02*
X242631D01*
X243078Y257302D01*
X235204Y153162D02*
Y161674D01*
X232064Y164814D02*
Y175768D01*
Y164814D02*
X235204Y161674D01*
X261112Y168148D02*
X268097Y161163D01*
X269060D01*
X250190Y168148D02*
X261112D01*
X269060Y161163D02*
X269634Y160589D01*
X235204Y153162D02*
X250190Y168148D01*
X251844Y139950D02*
X255844Y143950D01*
X287844Y139950D02*
Y143950D01*
X311844Y139950D02*
Y143950D01*
X315844Y135950D02*
Y139950D01*
X311844D02*
X315844D01*
X325978Y146716D02*
X326390Y146304D01*
X314610Y146716D02*
X325978D01*
X311844Y143950D02*
X314610Y146716D01*
X307844Y143950D02*
X311844D01*
X326390Y139502D02*
Y146304D01*
X323802Y136914D02*
X326390Y139502D01*
X323802Y130925D02*
Y136914D01*
X321450Y128572D02*
X323802Y130925D01*
X320908Y128572D02*
X321450D01*
X320286Y127950D02*
X320908Y128572D01*
X315844Y127950D02*
X320286D01*
X321950Y126056D02*
X322492D01*
X326318Y129882D01*
X315844Y119950D02*
X321950Y126056D01*
X311844Y131950D02*
X315844Y127950D01*
Y123950D02*
Y127950D01*
X231041Y142111D02*
Y145940D01*
X229569Y140639D02*
X231041Y142111D01*
X213670Y69742D02*
X214049D01*
X194917Y79314D02*
Y79883D01*
X198670Y74742D02*
Y75121D01*
X196856Y76935D02*
X198670Y75121D01*
X196856Y76935D02*
Y77375D01*
X203366Y80045D02*
X208670Y74742D01*
X194917Y79314D02*
X196856Y77375D01*
X189150Y79290D02*
X189433D01*
X198692Y59742D02*
X203401Y55032D01*
X198670Y59742D02*
X198692D01*
X203401Y55032D02*
X203423D01*
X229908Y31478D02*
X230908D01*
X231908D01*
X239075Y24311D01*
X154686Y43688D02*
X155614Y42760D01*
X183388Y37592D02*
X190767D01*
X202313Y49139D01*
X201819Y38725D02*
X209341Y46246D01*
X201819Y38725D02*
X201819D01*
X186436Y44500D02*
X188585Y46649D01*
X209341Y46246D02*
X210153D01*
X92680Y43779D02*
X100082D01*
X100714Y55118D02*
X106630D01*
X108835Y52913D01*
X100082Y43779D02*
X100297Y43564D01*
X81788Y54671D02*
X92680Y43779D01*
X93013Y69330D02*
X93267D01*
X94803Y70866D02*
Y71120D01*
X93267Y69330D02*
X94803Y70866D01*
X80473Y68834D02*
X92517D01*
X93013Y69330D01*
X79594Y69713D02*
X80473Y68834D01*
X136288Y46990D02*
X136360Y47063D01*
X140788D01*
X228531Y123229D02*
X229252Y123950D01*
X227719Y123229D02*
X228531D01*
X229252Y123950D02*
X235844D01*
X291889Y159895D02*
X292164Y160171D01*
X294661D01*
X294894Y160403D01*
X288798Y159895D02*
X291889D01*
X270303Y204032D02*
X276791D01*
X268986Y205349D02*
X270303Y204032D01*
X268986Y205349D02*
Y216262D01*
X273791Y220749D02*
X276791D01*
X272403Y219362D02*
X273791Y220749D01*
X272086Y219362D02*
X272403D01*
X268986Y216262D02*
X272086Y219362D01*
X197466Y762D02*
Y11121D01*
X176420Y86209D02*
X177231D01*
X175220Y85010D02*
X176420Y86209D01*
X173938Y85010D02*
X175220D01*
X185928Y97484D02*
Y99568D01*
X158670Y104742D02*
X163670D01*
Y113946D01*
X167466Y20812D02*
X167990Y21336D01*
X167466Y762D02*
Y20812D01*
X217466Y762D02*
Y12608D01*
X28312Y95982D02*
X33185Y91108D01*
X5578Y71716D02*
Y75806D01*
X5663Y65442D02*
X6138Y65916D01*
X5578Y71716D02*
X6138Y71156D01*
X5578Y75806D02*
X8128Y78356D01*
X6138Y65916D02*
Y71156D01*
X175723Y135244D02*
X176286Y134681D01*
X174900Y135244D02*
X175723D01*
X174666Y135010D02*
X174900Y135244D01*
X173938Y135010D02*
X174666D01*
X163670Y114742D02*
Y119742D01*
Y113946D02*
Y114742D01*
X166848Y99833D02*
X166939Y99924D01*
X163670Y99742D02*
X163761Y99833D01*
X166848D01*
X23459Y155448D02*
X27178D01*
X27163Y166548D02*
X27686Y167071D01*
X24415Y166548D02*
X27163D01*
X49022Y135636D02*
X51594Y138208D01*
Y143982D01*
X27943Y135636D02*
X49022D01*
X162950Y49022D02*
X173670Y59742D01*
X159617Y49022D02*
X162950D01*
X157848Y50791D02*
X159617Y49022D01*
X149402Y69010D02*
Y87116D01*
X168336Y92898D02*
X168380Y92942D01*
X166826Y92898D02*
X168336D01*
X167168Y99742D02*
X173670D01*
X2552Y167020D02*
X15718Y180186D01*
X2552Y129578D02*
Y167020D01*
Y129578D02*
X5287Y126843D01*
X5624D01*
X9003Y127417D02*
X11683Y130097D01*
Y132068D01*
X5624Y126843D02*
X6198Y127417D01*
X9003D01*
X15844Y135732D02*
X19344D01*
X2552Y115024D02*
X4318Y116790D01*
X19344Y135732D02*
X19594Y135982D01*
X4318Y116790D02*
Y121484D01*
X14860Y134748D02*
X15844Y135732D01*
X11683Y132068D02*
X14363Y134748D01*
X14860D01*
X78883Y242173D02*
Y248806D01*
X79280Y249203D01*
X84296Y240316D02*
X84392Y240220D01*
X85256Y190920D02*
X88762D01*
X84328Y189992D02*
X85256Y190920D01*
X88762D02*
X90628Y192786D01*
X91440D01*
X229334Y83950D02*
X235844D01*
X226458Y81074D02*
X229334Y83950D01*
X222808Y81074D02*
X226458D01*
X215733Y63058D02*
X216122D01*
X217425Y61755D02*
X218237D01*
X216122Y63058D02*
X217425Y61755D01*
X231258Y100536D02*
X235844Y95950D01*
X233198Y114596D02*
X235844Y111950D01*
X220348Y114274D02*
X220670Y114596D01*
X233198D01*
X279844Y139950D02*
Y143950D01*
X183609Y134681D02*
X183670Y134742D01*
X163670D02*
X173670D01*
X251590Y57976D02*
Y60706D01*
X83820Y157033D02*
X91434D01*
X75096Y220130D02*
X77216Y222250D01*
X55594Y75982D02*
X59844D01*
X274320Y59375D02*
X274828D01*
X91434Y157033D02*
X97282Y162881D01*
X68968Y128111D02*
X75594Y134738D01*
X71594Y134296D02*
Y143982D01*
X285496Y191516D02*
Y199136D01*
X285750Y199390D01*
X285242Y191262D02*
X285496Y191516D01*
X223455Y179018D02*
X223705Y178768D01*
Y175768D02*
Y178768D01*
X240173Y175518D02*
X240423Y175768D01*
X180806Y184362D02*
X183551D01*
X184125Y184936D01*
X179029Y182585D02*
X180806Y184362D01*
X179029Y177609D02*
Y182585D01*
X176934Y175514D02*
X179029Y177609D01*
X263260Y102445D02*
X266409Y105594D01*
X266474D01*
X260436Y102445D02*
X263260D01*
X245414Y99950D02*
X246164Y99200D01*
X239844Y99950D02*
X245414D01*
X195508Y109292D02*
X196202D01*
X193758Y111042D02*
X195508Y109292D01*
X222567Y120090D02*
X223966Y118690D01*
X229463D01*
X324641Y111950D02*
Y113641D01*
X320513Y79330D02*
X324237D01*
X306306Y78716D02*
X309078D01*
X311844Y75950D01*
X173670Y84742D02*
X173938Y85010D01*
X140788Y47063D02*
X153467Y59742D01*
X139187Y99604D02*
X143670Y95121D01*
X214437Y255016D02*
Y255270D01*
X226671Y149028D02*
X226718Y149075D01*
X186436Y43688D02*
Y44500D01*
X163670Y89742D02*
X166826Y92898D01*
X300330Y5486D02*
X312778D01*
X300228Y5588D02*
X300330Y5486D01*
X214049Y64742D02*
X215733Y63058D01*
X217597Y38354D02*
X223032D01*
X229908Y31478D01*
X198084Y99445D02*
Y99734D01*
X193670Y94742D02*
Y95031D01*
X198084Y99445D01*
X198670Y94742D02*
X198774D01*
X203489Y99457D01*
X203593D01*
X163670Y119742D02*
X173670D01*
X213938Y120010D02*
X217005D01*
X203336Y89408D02*
X208670Y94742D01*
X213670D02*
X219195D01*
X220195Y140706D02*
X221006D01*
X219230Y139742D02*
X220195Y140706D01*
X213670Y139742D02*
X219230D01*
X225293Y128183D02*
X225527Y127950D01*
X235844D01*
X221206Y146129D02*
X222017D01*
X143670Y94742D02*
Y95121D01*
X217737Y149742D02*
X219044Y151048D01*
X219570Y158177D02*
X222898D01*
X223388Y157686D02*
X225174D01*
X222898Y158177D02*
X223388Y157686D01*
X219080D02*
X219570Y158177D01*
X219044Y151048D02*
Y151158D01*
X221234Y153349D02*
Y154161D01*
X216614Y157686D02*
X219080D01*
X219044Y151158D02*
X221234Y153349D01*
X123361Y23197D02*
Y23633D01*
Y23197D02*
X127466Y19092D01*
X240713Y154560D02*
X244729Y158576D01*
X248966D02*
X252480Y162091D01*
X244729Y158576D02*
X248966D01*
X252480Y162091D02*
X253031D01*
X258347Y159582D02*
X261850Y156078D01*
X258347Y159582D02*
Y159859D01*
X223345Y11001D02*
X247861D01*
X247904Y10958D01*
X118162Y21360D02*
Y24812D01*
Y21360D02*
X122466Y17056D01*
X117588Y25386D02*
X118162Y24812D01*
X134112Y22302D02*
Y22709D01*
X102870Y162306D02*
Y162881D01*
Y162306D02*
X108136Y157040D01*
X127466Y762D02*
Y19092D01*
X222466Y10122D02*
X223345Y11001D01*
X157466Y762D02*
Y18465D01*
X132466Y762D02*
Y20656D01*
X134112Y22302D01*
X122466Y762D02*
Y17056D01*
X213670Y64742D02*
X214049D01*
X208672Y171078D02*
Y172679D01*
X218186Y169157D02*
Y169929D01*
X208672Y172679D02*
X210343Y174350D01*
X214143Y165115D02*
X218186Y169157D01*
X203328Y162958D02*
X208464Y168094D01*
Y170870D01*
X210343Y174350D02*
X210695D01*
X214043Y165115D02*
X214143D01*
X208670Y159742D02*
X214043Y165115D01*
X208464Y170870D02*
X208672Y171078D01*
X203670Y159742D02*
X212480Y168552D01*
Y169130D01*
X64347Y88834D02*
X64921Y89408D01*
X64347Y86751D02*
Y88834D01*
X63594Y85998D02*
X64347Y86751D01*
X63594Y75982D02*
Y85998D01*
X79297Y89408D02*
X81648Y91760D01*
X87371D01*
X78962Y89408D02*
X79297D01*
X87371Y91760D02*
X87594Y91982D01*
X249910Y195302D02*
X258032D01*
X258045Y195315D01*
X284988Y183134D02*
X286512Y181610D01*
X202254Y167564D02*
X202747Y168057D01*
X202254Y165474D02*
Y167564D01*
X229569Y137621D02*
Y140639D01*
X229593Y131966D02*
X229609Y131950D01*
X225157Y133209D02*
X229569Y137621D01*
X218207Y133209D02*
X225157D01*
X229609Y131950D02*
X235844D01*
X226060Y139600D02*
Y143256D01*
X226671Y143867D02*
Y149028D01*
X226060Y143256D02*
X226671Y143867D01*
X213670Y149742D02*
X217737D01*
X225174Y157686D02*
X228600Y154260D01*
X213670Y154742D02*
X216614Y157686D01*
X244602Y236474D02*
X248781D01*
X2552Y101892D02*
X4052Y100393D01*
Y99773D02*
Y100393D01*
Y99773D02*
X5588Y98237D01*
X2552Y101892D02*
Y115024D01*
X102301Y71120D02*
X102858Y71677D01*
X11167Y36313D02*
X11929D01*
X7366Y58070D02*
X7778Y57658D01*
X10353D01*
X11929Y36313D02*
X20828Y45212D01*
X6604Y50038D02*
X11570D01*
X59730Y75868D02*
X59844Y75982D01*
X59730Y69823D02*
X59865Y69687D01*
X59730Y69823D02*
Y75868D01*
X19397Y57864D02*
X24363D01*
X22098Y53848D02*
X25146Y50800D01*
X11570Y50038D02*
X19397Y57864D01*
X24363D02*
X26032Y56195D01*
X20066Y28448D02*
X36576Y44958D01*
X11684Y28448D02*
X20066D01*
X183698Y84742D02*
X189150Y79290D01*
X183670Y84742D02*
X183698D01*
X240713Y147081D02*
Y154560D01*
X193167Y167346D02*
Y168057D01*
X189053Y163231D02*
X193167Y167346D01*
X216450Y135010D02*
X217165Y135725D01*
X222185D02*
X226060Y139600D01*
X216422Y132494D02*
X217493D01*
X213938Y135010D02*
X216450D01*
X217493Y132494D02*
X218207Y133209D01*
X217165Y135725D02*
X222185D01*
X173804Y159742D02*
X182118Y168057D01*
X182176D01*
X184870Y164079D02*
X187672Y166881D01*
Y167581D01*
X187610Y163231D02*
X189053D01*
X100015Y174244D02*
Y174498D01*
X108136Y127576D02*
Y157040D01*
X226564Y187710D02*
X229804D01*
X230378Y187136D01*
X222781Y191493D02*
X226564Y187710D01*
X231918Y183120D02*
X232262D01*
X236108Y186966D01*
Y187452D01*
X237490Y194056D02*
X241451Y198017D01*
X222917Y195672D02*
X227438Y191152D01*
X226563Y211333D02*
X227624D01*
X230725Y208232D01*
X226742Y200232D02*
X228260D01*
X241451Y198017D02*
X241794D01*
X228480Y193668D02*
X233283D01*
X227438Y191152D02*
X234325D01*
X234641Y191468D01*
X228260Y200232D02*
X230807Y197684D01*
X234641Y191468D02*
X240924D01*
X247530Y198074D01*
X227884Y175768D02*
X228134Y176018D01*
X230725Y208232D02*
X230886D01*
X233283Y193668D02*
X233671Y194056D01*
X237490D01*
X222296Y199852D02*
X228480Y193668D01*
X228134Y176018D02*
Y179018D01*
X230807Y197684D02*
X231619D01*
X247530Y198074D02*
Y198537D01*
X228134Y179018D02*
X229298Y180182D01*
Y180499D02*
X231918Y183120D01*
X233268Y203660D02*
X236728Y200200D01*
X222943Y204032D02*
X226742Y200232D01*
X227378Y203660D02*
X233268D01*
X225506Y212390D02*
X226563Y211333D01*
X229298Y180182D02*
Y180499D01*
X216339Y212390D02*
X225506D01*
X216339Y208211D02*
X222827D01*
X227378Y203660D01*
X239845Y214699D02*
X240423Y215277D01*
X239268Y214122D02*
X239845Y214699D01*
X251534Y188435D02*
X252346D01*
X250127Y187290D02*
X250389D01*
X251534Y188435D01*
X200152Y184739D02*
Y184936D01*
X118670Y114742D02*
X122988Y119060D01*
X150016Y50041D02*
X153852D01*
X149637Y49662D02*
X150016Y50041D01*
X153852D02*
X154602Y50791D01*
X197184Y181770D02*
X200152Y184739D01*
X176276Y167621D02*
Y167894D01*
X168670Y160015D02*
X176276Y167621D01*
X213670Y119742D02*
X213938Y120010D01*
X261933Y97451D02*
Y98262D01*
X317135Y95855D02*
X318315Y94674D01*
X315844Y95950D02*
X315939Y95855D01*
X318315Y94674D02*
X319127D01*
X315939Y95855D02*
X317135D01*
X154602Y50791D02*
X157848D01*
X137353Y53424D02*
X143670Y59742D01*
X153467D02*
X153670D01*
X275844Y79424D02*
X277074Y80654D01*
X275844Y75950D02*
Y79424D01*
X271196Y80543D02*
Y80980D01*
Y80543D02*
X271844Y79895D01*
Y75950D02*
Y79895D01*
X263802Y156078D02*
X266155Y153726D01*
X265086Y149284D02*
X266155Y150353D01*
Y153726D01*
X263844Y144085D02*
X265086Y145327D01*
Y149284D01*
X267939Y144045D02*
Y145647D01*
X263844Y143950D02*
Y144085D01*
X267844Y143950D02*
X267939Y144045D01*
X261850Y156078D02*
X263802D01*
X262570Y146676D02*
Y151631D01*
X262139Y152063D02*
X262570Y151631D01*
X257125Y131399D02*
X262727D01*
X262796Y131329D01*
X259844Y143950D02*
X262570Y146676D01*
X216339Y191493D02*
X222781D01*
X298196Y149302D02*
Y150114D01*
X295940Y147046D02*
X298196Y149302D01*
X252961Y182095D02*
X254000Y183134D01*
X252961Y175768D02*
Y182095D01*
X183007Y164079D02*
X184870D01*
X201296Y165474D02*
X202254D01*
X199646Y163825D02*
X201296Y165474D01*
X213670Y134742D02*
X213938Y135010D01*
X213670Y129742D02*
X216422Y132494D01*
X229463Y118690D02*
X230723Y119950D01*
X235844D01*
X184164Y110236D02*
X188670Y114742D01*
X183395Y109474D02*
X184164Y110236D01*
X108136Y127576D02*
X110970Y124742D01*
X113670D01*
X5588Y98237D02*
X5842D01*
X77216Y222250D02*
X82421D01*
X75096Y213272D02*
Y220130D01*
X74168Y212344D02*
X75096Y213272D01*
X112522Y254762D02*
X115824Y258064D01*
X105156Y254762D02*
X112522D01*
X108966Y239522D02*
Y240538D01*
X192847Y243840D02*
Y248630D01*
X193101Y255778D02*
Y256032D01*
X310005Y58928D02*
Y62105D01*
X298958Y18412D02*
X308799D01*
X317278Y20236D02*
X319278Y22236D01*
X310622Y20236D02*
X317278D01*
X319278Y22236D02*
Y24486D01*
X308799Y18412D02*
X310622Y20236D01*
X81534Y54671D02*
X81788D01*
X74039Y28956D02*
X105410D01*
X62230Y42672D02*
X66624Y38278D01*
Y36371D02*
Y38278D01*
Y36371D02*
X74039Y28956D01*
X26032Y56195D02*
X31750D01*
X10353Y57658D02*
X14224Y61529D01*
X14478D01*
X36576Y2032D02*
X41148Y6604D01*
X28956Y2032D02*
X36576D01*
X10414Y18796D02*
X17272Y11938D01*
X18796D01*
X244602Y181765D02*
X250127Y187290D01*
X237907Y183299D02*
X249910Y195302D01*
X237907Y180749D02*
Y183299D01*
X240423Y182257D02*
X250650Y192484D01*
X240423Y175768D02*
Y182257D01*
X250650Y192484D02*
X253977D01*
X259148Y187314D02*
X276791D01*
X253977Y192484D02*
X259148Y187314D01*
X237657Y180499D02*
X237907Y180749D01*
X236493Y176018D02*
Y179018D01*
X237657Y180182D01*
X236243Y175768D02*
X236493Y176018D01*
X237657Y180182D02*
Y180499D01*
X244602Y175768D02*
Y181765D01*
X223705Y175768D02*
X227884D01*
X216339Y195672D02*
X222917D01*
X216339Y199852D02*
X222296D01*
X216339Y204032D02*
X222943D01*
X221719Y220749D02*
X227028Y215440D01*
X216339Y224929D02*
X225881D01*
X216339Y220749D02*
X221719D01*
X214884Y229358D02*
Y235712D01*
X215134Y229108D02*
X216339D01*
X214884Y229358D02*
X215134Y229108D01*
X240423Y215277D02*
Y236474D01*
X265499D02*
Y244671D01*
X266954Y246126D01*
X265938Y223012D02*
X269679Y226753D01*
Y236474D01*
X282956Y229108D02*
X284463Y227601D01*
Y222912D02*
Y227601D01*
X282550Y220999D02*
X284463Y222912D01*
X277041Y220999D02*
X282550D01*
X276791Y229108D02*
X282956D01*
X276791Y220749D02*
X277041Y220999D01*
X286096Y216569D02*
X287020Y215646D01*
X276791Y216569D02*
X286096D01*
X276791Y212390D02*
Y216569D01*
X285057Y208211D02*
X287274Y205994D01*
X276791Y208211D02*
X285057D01*
X276791Y204032D02*
Y208211D01*
X285288Y199852D02*
X285750Y199390D01*
X276791Y199852D02*
X285288D01*
X285011Y191493D02*
X285242Y191262D01*
X276791Y191493D02*
X285011D01*
X276791Y183134D02*
X284988D01*
X276791D02*
Y187314D01*
X193670Y114742D02*
X193758Y114654D01*
Y111042D02*
Y114654D01*
X185928Y97484D02*
X188670Y94742D01*
X149402Y69010D02*
X153670Y64742D01*
X148670D02*
Y65121D01*
X153670Y134742D02*
X163670D01*
Y99742D02*
Y104742D01*
X153670D02*
Y109742D01*
X168670Y114742D02*
X173670D01*
X153670Y119742D02*
X163670D01*
X153670Y114742D02*
X158670D01*
X173670Y109742D02*
Y114742D01*
Y104742D02*
Y109742D01*
X163670Y114742D02*
X168670D01*
Y104742D02*
X173670D01*
X153670Y114742D02*
Y119742D01*
Y109742D02*
Y114742D01*
Y99742D02*
Y104742D01*
Y129742D02*
Y134742D01*
X143670D02*
X153670D01*
X107227Y95570D02*
X109498D01*
X113670Y99742D01*
X106653Y94996D02*
X107227Y95570D01*
X213670Y144742D02*
X219819D01*
X221206Y146129D01*
X202338Y162958D02*
X203328D01*
X193839Y163017D02*
X197184Y166362D01*
Y181770D01*
X200616Y161309D02*
X200689D01*
X199049Y159742D02*
X200616Y161309D01*
X198670Y159742D02*
X199049D01*
X198205Y163825D02*
X199646D01*
X200689Y161309D02*
X202338Y162958D01*
X194049Y159742D02*
X194808Y160501D01*
X193670Y159742D02*
X194049D01*
X194881Y160501D02*
X198205Y163825D01*
X192397Y163017D02*
X193839D01*
X194808Y160501D02*
X194881D01*
X190095Y160715D02*
X192397Y163017D01*
X190021Y160715D02*
X190095D01*
X189049Y159742D02*
X190021Y160715D01*
X188670Y159742D02*
X189049D01*
X185870Y161563D02*
X185943D01*
X184049Y159742D02*
X185870Y161563D01*
X183670Y159742D02*
X184049D01*
X185943Y161563D02*
X187610Y163231D01*
X178670Y159742D02*
X183007Y164079D01*
X173670Y159742D02*
X173804D01*
X168670D02*
Y160015D01*
X158670Y159742D02*
Y160121D01*
X125098Y171196D02*
X129510Y166784D01*
Y163902D02*
Y166784D01*
X263440Y48772D02*
X267208Y45004D01*
X259844Y67816D02*
Y71950D01*
X208670Y59742D02*
X212786Y55626D01*
X271844Y129730D02*
Y139950D01*
Y129730D02*
X280162Y121412D01*
X267844Y135596D02*
X269328Y134113D01*
Y128688D02*
Y134113D01*
Y128688D02*
X274320Y123696D01*
X266812Y127646D02*
Y133070D01*
Y127646D02*
X268732Y125726D01*
X262882Y123367D02*
X262926Y123323D01*
X250397Y113839D02*
X258879D01*
X267844Y135596D02*
Y139950D01*
X259844D02*
X259932D01*
X256952Y131572D02*
X257125Y131399D01*
X250699Y137184D02*
X253078D01*
X255844Y139950D01*
X247932D02*
X250699Y137184D01*
X239844Y115950D02*
X239940Y115855D01*
X241890D01*
X239844Y119950D02*
X244286D01*
X255844Y139950D02*
X255940Y139854D01*
X295904Y135890D02*
X306070D01*
X291844Y139950D02*
X295904Y135890D01*
X307844Y139950D02*
X311844Y135950D01*
X295844Y143950D02*
X295940Y144045D01*
Y147046D01*
X308254Y82446D02*
X309348D01*
X311844Y79950D01*
X307680Y83020D02*
X308254Y82446D01*
X240713Y147081D02*
X243844Y143950D01*
X307477Y118456D02*
X308288D01*
X309686Y119854D01*
X311748D01*
X311844Y119950D01*
Y135950D02*
X315844Y131950D01*
X319148D01*
X319786Y132588D01*
X283844Y139950D02*
Y143950D01*
X280223Y168656D02*
X294701D01*
X275590Y164023D02*
X280223Y168656D01*
X275336Y164023D02*
X275590D01*
X28376Y82630D02*
X32154Y86408D01*
X28376Y81208D02*
Y82630D01*
X32154Y86408D02*
X35464D01*
X31615Y76003D02*
Y81643D01*
X33865Y83892D02*
X40263D01*
X31594Y75982D02*
X31615Y76003D01*
Y81643D02*
X33865Y83892D01*
X27844Y80676D02*
X28376Y81208D01*
X27844Y76232D02*
Y80676D01*
X19594Y95982D02*
X28312D01*
X19844Y91732D02*
X25820D01*
X26874Y90678D01*
X27686D01*
X19594Y91982D02*
X19844Y91732D01*
X43436Y87066D02*
X43453D01*
X40263Y83892D02*
X43436Y87066D01*
X35464Y86408D02*
X37241Y88184D01*
X38052D01*
X27594Y75982D02*
X27844Y76232D01*
X27160Y104114D02*
X27292Y104247D01*
X19594Y103982D02*
X19726Y104114D01*
X27160D01*
X35814Y50800D02*
X39594Y54580D01*
X25146Y50800D02*
X35814D01*
X39594Y54580D02*
Y75982D01*
X35594D02*
X39594D01*
X55594D02*
X59594D01*
X102013Y77494D02*
Y81426D01*
Y77494D02*
X102580Y76926D01*
X95456Y87982D02*
X102013Y81426D01*
X87594Y87982D02*
X95456D01*
X87594Y91982D02*
Y95982D01*
Y111982D02*
Y115982D01*
Y123982D02*
X87765Y123811D01*
X94996Y111387D02*
Y121920D01*
X87765Y123811D02*
X93105D01*
X94996Y121920D01*
X91841Y108232D02*
X94996Y111387D01*
X87594Y107982D02*
X87844Y108232D01*
X91841D01*
X47594Y150464D02*
X49972Y152842D01*
X59709Y154527D02*
X59825Y154643D01*
X59709Y144097D02*
Y154527D01*
X53873Y152842D02*
X54447Y153416D01*
X59594Y143982D02*
X59709Y144097D01*
X49972Y152842D02*
X53873D01*
X43594Y152814D02*
X53340Y162560D01*
X60696D01*
X43594Y143982D02*
Y152814D01*
X47594Y143982D02*
Y150464D01*
X19594Y115982D02*
Y119982D01*
X79280Y249203D02*
X99597D01*
X79026D02*
X79280D01*
X99597D02*
X105156Y254762D01*
X88392Y240220D02*
X88488Y240124D01*
X108364D01*
X82421Y222250D02*
X82437Y222266D01*
Y228552D02*
X82452Y228568D01*
X82437Y222266D02*
Y228552D01*
X84297Y232989D02*
Y236124D01*
X82686Y228801D02*
Y231378D01*
X82452Y228568D02*
X82686Y228801D01*
X84297Y236124D02*
X84392Y236220D01*
X82686Y231378D02*
X84297Y232989D01*
X76329Y235712D02*
X83749D01*
X104487Y62626D02*
X106604Y64742D01*
X113670D01*
X100714Y62484D02*
X100855Y62626D01*
X104487D01*
X129510Y163902D02*
X133670Y159742D01*
X64770Y171758D02*
Y191894D01*
Y171758D02*
X65332Y171196D01*
X40332Y188539D02*
X43942Y192148D01*
X40332Y171196D02*
Y188539D01*
X72390Y54417D02*
X72644Y54671D01*
X72136Y37846D02*
X72390Y38100D01*
Y54417D01*
X62230Y52639D02*
X64262Y54671D01*
X64516D01*
X62230Y42672D02*
Y52639D01*
X8128Y83695D02*
X8455Y84022D01*
X19554D01*
X79594Y69713D02*
Y75982D01*
X23686Y139893D02*
X27943Y135636D01*
X27178Y155448D02*
X31594Y151032D01*
Y143982D02*
Y151032D01*
X29476Y157783D02*
Y158037D01*
X35594Y143982D02*
Y151665D01*
X27686Y159573D02*
X27940D01*
X29476Y158037D01*
Y157783D02*
X35594Y151665D01*
X60696Y162560D02*
X65332Y167196D01*
Y171196D01*
X39594Y170458D02*
X40332Y171196D01*
X39594Y143982D02*
Y170458D01*
X6858Y139893D02*
X23686D01*
X274828Y59375D02*
X283464D01*
X292608D02*
X302260D01*
X283464D02*
X292608D01*
X243078Y39317D02*
X252040Y48278D01*
X243078Y26416D02*
Y39317D01*
Y26416D02*
X246573Y22921D01*
Y16764D02*
Y22921D01*
X252040Y48278D02*
X252708D01*
X251590Y49396D02*
X252708Y48278D01*
X239075Y16764D02*
Y24311D01*
X71594Y63219D02*
X72644Y62169D01*
X71594Y63219D02*
Y75982D01*
X75594Y67855D02*
X81280Y62169D01*
X75594Y67855D02*
Y75982D01*
X81280Y62169D02*
X81534D01*
X64770D02*
X67594Y64993D01*
Y75982D01*
X64516Y62169D02*
X64770D01*
X302199Y182479D02*
X303784Y184064D01*
X302199Y168656D02*
Y182479D01*
X269679Y169681D02*
X275336Y164023D01*
X269679Y169681D02*
Y175768D01*
X291844Y152014D02*
X294894Y155064D01*
X291844Y143950D02*
Y152014D01*
X203708Y222504D02*
Y227454D01*
X209643Y216569D02*
X216339D01*
X203708Y222504D02*
X209643Y216569D01*
X223689Y236490D02*
Y241640D01*
X200345Y243840D02*
X221488D01*
X223689Y236490D02*
X223705Y236474D01*
X221488Y243840D02*
X223689Y241640D01*
X223078Y247584D02*
X226497Y244165D01*
Y244149D02*
Y244165D01*
X227884Y236474D02*
Y242762D01*
X226497Y244149D02*
X227884Y242762D01*
X208540Y247584D02*
X223078D01*
X235993Y236724D02*
X236243Y236474D01*
X235993Y236724D02*
Y249462D01*
X235204Y250251D02*
X235993Y249462D01*
X232064Y236474D02*
Y244634D01*
X221935Y254762D02*
X232064Y244634D01*
X221935Y254762D02*
Y255016D01*
X200599Y255524D02*
X208540Y247584D01*
X200599Y255524D02*
Y255778D01*
X70742Y156210D02*
X71594Y155358D01*
Y143982D02*
Y155358D01*
X14478Y69027D02*
X14732D01*
D18*
X243844Y139679D02*
X244594Y138929D01*
X248184Y135014D02*
X248780D01*
X243844Y139679D02*
Y139950D01*
X244594Y138604D02*
Y138929D01*
Y138604D02*
X248184Y135014D01*
X201399Y149498D02*
X204834D01*
X208670Y144742D02*
Y145146D01*
X205420Y148396D02*
Y148913D01*
Y148396D02*
X208670Y145146D01*
X204834Y149498D02*
X205420Y148913D01*
X200729Y150168D02*
X201399Y149498D01*
X183670Y149742D02*
X193670D01*
X173670D02*
X183670D01*
X163670D02*
X173670D01*
X235844Y75950D02*
Y79950D01*
Y75950D02*
X239844Y71950D01*
X250353Y79220D02*
Y79248D01*
X247940Y76807D02*
X250353Y79220D01*
D21*
X84328Y189992D02*
D03*
X108966Y239522D02*
D03*
X105156Y254762D02*
D03*
X168148Y259080D02*
D03*
X228600Y161290D02*
D03*
X201676Y38608D02*
D03*
X183388Y37592D02*
D03*
X36576Y44958D02*
D03*
X28956Y2032D02*
D03*
X10414Y18796D02*
D03*
X20828Y45212D02*
D03*
X62230Y42672D02*
D03*
X72136Y37846D02*
D03*
X74168Y212344D02*
D03*
X154686Y43688D02*
D03*
X16764Y187960D02*
D03*
Y174244D02*
D03*
D22*
X43942Y197488D02*
D03*
Y192148D02*
D03*
X119759Y171196D02*
D03*
X125098D02*
D03*
X146174Y170688D02*
D03*
X151514D02*
D03*
X64770Y197234D02*
D03*
Y191894D02*
D03*
X75946Y162181D02*
D03*
Y156842D02*
D03*
X13841Y155448D02*
D03*
X19180D02*
D03*
X100714Y62484D02*
D03*
X95374D02*
D03*
X100714Y55118D02*
D03*
X95374D02*
D03*
X87760Y222250D02*
D03*
X82421D02*
D03*
X76329Y235712D02*
D03*
X70991D02*
D03*
X203708Y227454D02*
D03*
Y232794D02*
D03*
X310005Y58928D02*
D03*
X315343D02*
D03*
X312036Y38100D02*
D03*
X317376D02*
D03*
X215900Y32636D02*
D03*
Y37975D02*
D03*
X114937Y47752D02*
D03*
X109599D02*
D03*
D23*
X53340Y217170D02*
D03*
X40340D02*
D03*
X163934Y175514D02*
D03*
X176934D02*
D03*
X203350D02*
D03*
X190350D02*
D03*
D24*
X230908Y31478D02*
D03*
X252708Y48278D02*
D03*
X230908D02*
D03*
X252708Y31478D02*
D03*
D25*
X100015Y174244D02*
D03*
X92517D02*
D03*
X102301Y71120D02*
D03*
X94803D02*
D03*
X221935Y255016D02*
D03*
X214437D02*
D03*
X192847Y243840D02*
D03*
X200345D02*
D03*
X246573Y16764D02*
D03*
X239075D02*
D03*
X193101Y255778D02*
D03*
X200599D02*
D03*
D26*
X84074Y157033D02*
D03*
Y164531D02*
D03*
X100076Y134681D02*
D03*
Y142179D02*
D03*
X100838Y97221D02*
D03*
Y89723D02*
D03*
X79026Y249203D02*
D03*
Y256701D02*
D03*
X314452Y158303D02*
D03*
Y165801D02*
D03*
X275590Y156525D02*
D03*
Y164023D02*
D03*
X100330Y123129D02*
D03*
Y115631D02*
D03*
X302260Y59375D02*
D03*
Y51877D02*
D03*
X283464Y59375D02*
D03*
Y51877D02*
D03*
X274574Y59375D02*
D03*
Y51877D02*
D03*
X292608Y59375D02*
D03*
Y51877D02*
D03*
D27*
X65402Y156210D02*
D03*
X70742D02*
D03*
X87792Y228568D02*
D03*
X82452D02*
D03*
X294894Y160403D02*
D03*
Y155064D02*
D03*
X288798Y159895D02*
D03*
Y154557D02*
D03*
X246250Y60706D02*
D03*
X251590D02*
D03*
X8128Y83695D02*
D03*
Y78356D02*
D03*
X209172Y27686D02*
D03*
X203832D02*
D03*
X185296Y49276D02*
D03*
X179956D02*
D03*
X334264Y120774D02*
D03*
Y126114D02*
D03*
D28*
X39824Y172466D02*
D03*
X64824D02*
D03*
D29*
X27686Y167071D02*
D03*
Y159573D02*
D03*
X6858Y132395D02*
D03*
Y139893D02*
D03*
X14478Y61529D02*
D03*
Y69027D02*
D03*
X235204Y250251D02*
D03*
Y257749D02*
D03*
X72644Y54671D02*
D03*
Y62169D02*
D03*
X64516Y54671D02*
D03*
Y62169D02*
D03*
X31750Y56195D02*
D03*
Y63693D02*
D03*
X6858Y112207D02*
D03*
Y104709D02*
D03*
X5842Y98237D02*
D03*
Y90739D02*
D03*
X81534Y54671D02*
D03*
Y62169D02*
D03*
D30*
X79594Y143982D02*
D03*
X75594D02*
D03*
X71594D02*
D03*
X67594D02*
D03*
X63594D02*
D03*
X59594D02*
D03*
X55594D02*
D03*
X51594D02*
D03*
X47594D02*
D03*
X43594D02*
D03*
X39594D02*
D03*
X35594D02*
D03*
X31594D02*
D03*
X27594D02*
D03*
Y75982D02*
D03*
X31594D02*
D03*
X35594D02*
D03*
X39594D02*
D03*
X43594D02*
D03*
X47594D02*
D03*
X51594D02*
D03*
X55594D02*
D03*
X59594D02*
D03*
X63594D02*
D03*
X67594D02*
D03*
X71594D02*
D03*
X75594D02*
D03*
X79594D02*
D03*
D31*
X19594Y135982D02*
D03*
Y131982D02*
D03*
Y127982D02*
D03*
Y123982D02*
D03*
Y119982D02*
D03*
Y115982D02*
D03*
Y111982D02*
D03*
Y107982D02*
D03*
Y103982D02*
D03*
Y99982D02*
D03*
Y95982D02*
D03*
Y91982D02*
D03*
Y87982D02*
D03*
Y83982D02*
D03*
X87594D02*
D03*
Y87982D02*
D03*
Y91982D02*
D03*
Y95982D02*
D03*
Y99982D02*
D03*
Y103982D02*
D03*
Y107982D02*
D03*
Y111982D02*
D03*
Y115982D02*
D03*
Y119982D02*
D03*
Y123982D02*
D03*
Y127982D02*
D03*
Y131982D02*
D03*
Y135982D02*
D03*
D32*
X84392Y240220D02*
D03*
X88392D02*
D03*
X84392Y236220D02*
D03*
X88392D02*
D03*
X255844Y79950D02*
D03*
X307844Y131950D02*
D03*
X295844D02*
D03*
X299844D02*
D03*
X303844D02*
D03*
X235844Y135950D02*
D03*
Y107950D02*
D03*
Y115950D02*
D03*
Y127950D02*
D03*
Y139950D02*
D03*
Y143950D02*
D03*
X239844Y123950D02*
D03*
Y143950D02*
D03*
Y139950D02*
D03*
Y131950D02*
D03*
Y107950D02*
D03*
Y115950D02*
D03*
X247844Y143950D02*
D03*
Y139950D02*
D03*
X251844D02*
D03*
X255844Y143950D02*
D03*
Y139950D02*
D03*
X263844D02*
D03*
X235844Y71950D02*
D03*
Y99950D02*
D03*
Y91950D02*
D03*
Y87950D02*
D03*
Y83950D02*
D03*
Y79950D02*
D03*
Y75950D02*
D03*
X239844Y87950D02*
D03*
Y91950D02*
D03*
Y75950D02*
D03*
Y71950D02*
D03*
X247844D02*
D03*
Y75950D02*
D03*
X251844D02*
D03*
X255844Y71950D02*
D03*
Y75950D02*
D03*
X263844D02*
D03*
X267844Y71950D02*
D03*
Y143950D02*
D03*
X275844D02*
D03*
Y139950D02*
D03*
X279844Y143950D02*
D03*
Y139950D02*
D03*
X283844Y143950D02*
D03*
Y139950D02*
D03*
X287844Y143950D02*
D03*
Y139950D02*
D03*
X291844D02*
D03*
X295844D02*
D03*
X299844Y143950D02*
D03*
Y139950D02*
D03*
X303844Y143950D02*
D03*
Y139950D02*
D03*
X307844Y143950D02*
D03*
Y139950D02*
D03*
X311844Y143950D02*
D03*
Y139950D02*
D03*
Y135950D02*
D03*
Y131950D02*
D03*
Y127950D02*
D03*
X315844Y143950D02*
D03*
Y139950D02*
D03*
Y135950D02*
D03*
Y131950D02*
D03*
Y127950D02*
D03*
X275844Y71950D02*
D03*
Y75950D02*
D03*
X279844Y71950D02*
D03*
Y75950D02*
D03*
X283844D02*
D03*
Y71950D02*
D03*
X287844D02*
D03*
Y75950D02*
D03*
X291844D02*
D03*
Y71950D02*
D03*
X295844Y75950D02*
D03*
Y71950D02*
D03*
X299844D02*
D03*
Y75950D02*
D03*
X311844Y123950D02*
D03*
X315844D02*
D03*
Y115950D02*
D03*
X311844Y111950D02*
D03*
Y107950D02*
D03*
Y103950D02*
D03*
X315844D02*
D03*
Y95950D02*
D03*
X311844Y91950D02*
D03*
X315844Y87950D02*
D03*
X311844Y83950D02*
D03*
X315844D02*
D03*
X303844Y75950D02*
D03*
X307844D02*
D03*
X311844D02*
D03*
X315844D02*
D03*
X303844Y71950D02*
D03*
X307844D02*
D03*
X311844D02*
D03*
X315844D02*
D03*
Y79950D02*
D03*
X291844Y143950D02*
D03*
X295844D02*
D03*
X239844Y103950D02*
D03*
X311844Y79950D02*
D03*
Y87950D02*
D03*
Y95950D02*
D03*
Y99950D02*
D03*
Y115950D02*
D03*
Y119950D02*
D03*
X315844Y91950D02*
D03*
Y99950D02*
D03*
Y111950D02*
D03*
Y119950D02*
D03*
X259844Y143950D02*
D03*
Y139950D02*
D03*
Y71950D02*
D03*
Y75950D02*
D03*
X235844Y103950D02*
D03*
X239844Y99950D02*
D03*
X235844Y131950D02*
D03*
X239844Y135950D02*
D03*
X243844Y139950D02*
D03*
Y143950D02*
D03*
X263844D02*
D03*
X267844Y139950D02*
D03*
X271844D02*
D03*
Y143950D02*
D03*
X239844Y83950D02*
D03*
Y79950D02*
D03*
X243844Y75950D02*
D03*
Y71950D02*
D03*
X263844D02*
D03*
X267844Y75950D02*
D03*
X271844D02*
D03*
Y71950D02*
D03*
X251844Y143950D02*
D03*
Y71950D02*
D03*
X235844Y111950D02*
D03*
X239844D02*
D03*
Y127950D02*
D03*
X235844Y123950D02*
D03*
Y119950D02*
D03*
X239844D02*
D03*
Y95950D02*
D03*
X235844D02*
D03*
X315844Y107950D02*
D03*
D33*
X302199Y168656D02*
D03*
X294701D02*
D03*
D34*
X319278Y24486D02*
D03*
X325778Y5486D02*
D03*
X312778D02*
D03*
D35*
X157466Y762D02*
D03*
X152466D02*
D03*
X147466D02*
D03*
X142466D02*
D03*
X137466D02*
D03*
X132466D02*
D03*
X127466D02*
D03*
X122466D02*
D03*
X117466D02*
D03*
X112466D02*
D03*
X162466D02*
D03*
X167466D02*
D03*
X172466D02*
D03*
X177466D02*
D03*
X182466D02*
D03*
X187466D02*
D03*
X192466D02*
D03*
X197466D02*
D03*
X202466D02*
D03*
X207466D02*
D03*
X212466D02*
D03*
X217466D02*
D03*
X222466D02*
D03*
X227466D02*
D03*
D36*
X177574Y223266D02*
D03*
X162574D02*
D03*
X147574D02*
D03*
X132574D02*
D03*
D37*
X198074Y202266D02*
D03*
X112074D02*
D03*
D38*
X113670Y59742D02*
D03*
Y64742D02*
D03*
Y159742D02*
D03*
X118670Y59742D02*
D03*
Y64742D02*
D03*
X123670Y59742D02*
D03*
Y64742D02*
D03*
Y74742D02*
D03*
Y84742D02*
D03*
Y94742D02*
D03*
Y104742D02*
D03*
Y114742D02*
D03*
Y124742D02*
D03*
Y134742D02*
D03*
Y144742D02*
D03*
X128670Y59742D02*
D03*
Y64742D02*
D03*
X133670Y59742D02*
D03*
Y64742D02*
D03*
Y69742D02*
D03*
Y149742D02*
D03*
X138670Y59742D02*
D03*
Y64742D02*
D03*
Y154742D02*
D03*
Y159742D02*
D03*
X143670Y59742D02*
D03*
Y64742D02*
D03*
Y69742D02*
D03*
Y79742D02*
D03*
Y94742D02*
D03*
Y114742D02*
D03*
Y139742D02*
D03*
Y144742D02*
D03*
Y149742D02*
D03*
X148670Y64742D02*
D03*
Y94742D02*
D03*
Y104742D02*
D03*
Y114742D02*
D03*
Y124742D02*
D03*
Y154742D02*
D03*
X153670Y59742D02*
D03*
Y64742D02*
D03*
Y69742D02*
D03*
Y74742D02*
D03*
Y79742D02*
D03*
Y84742D02*
D03*
Y94742D02*
D03*
Y124742D02*
D03*
Y139742D02*
D03*
Y149742D02*
D03*
X158670Y59742D02*
D03*
Y64742D02*
D03*
Y109742D02*
D03*
X163670Y59742D02*
D03*
Y64742D02*
D03*
Y69742D02*
D03*
Y74742D02*
D03*
Y79742D02*
D03*
Y84742D02*
D03*
Y89742D02*
D03*
Y94742D02*
D03*
Y124742D02*
D03*
Y129742D02*
D03*
Y149742D02*
D03*
X168670Y59742D02*
D03*
Y64742D02*
D03*
Y109742D02*
D03*
X173670Y59742D02*
D03*
Y64742D02*
D03*
Y69742D02*
D03*
Y74742D02*
D03*
Y79742D02*
D03*
Y84742D02*
D03*
Y94742D02*
D03*
Y124742D02*
D03*
Y149742D02*
D03*
X178670Y64742D02*
D03*
Y94742D02*
D03*
Y104742D02*
D03*
Y114742D02*
D03*
Y124742D02*
D03*
X183670Y59742D02*
D03*
Y64742D02*
D03*
Y69742D02*
D03*
Y104742D02*
D03*
Y124742D02*
D03*
Y149742D02*
D03*
X193670Y69742D02*
D03*
Y149742D02*
D03*
X198670Y94742D02*
D03*
X203670Y74742D02*
D03*
Y84742D02*
D03*
Y94742D02*
D03*
Y104742D02*
D03*
Y114742D02*
D03*
Y124742D02*
D03*
Y134742D02*
D03*
Y144742D02*
D03*
X208670Y64742D02*
D03*
Y79742D02*
D03*
X213670Y59742D02*
D03*
Y79742D02*
D03*
Y159742D02*
D03*
X208670Y69742D02*
D03*
X213670Y64742D02*
D03*
X188670Y104742D02*
D03*
X198670Y114742D02*
D03*
X213670D02*
D03*
X188670Y134742D02*
D03*
X193670D02*
D03*
X208670D02*
D03*
X198670D02*
D03*
X203670Y109742D02*
D03*
X208670Y119742D02*
D03*
X198670Y84742D02*
D03*
X128670Y134742D02*
D03*
X133670D02*
D03*
X138670D02*
D03*
X113670Y129742D02*
D03*
X138670Y104742D02*
D03*
X123670Y109742D02*
D03*
X118670Y129742D02*
D03*
X113670Y144742D02*
D03*
X118670Y139742D02*
D03*
Y144742D02*
D03*
X113670Y134742D02*
D03*
X118670D02*
D03*
X113670Y139742D02*
D03*
Y104742D02*
D03*
X118670Y94742D02*
D03*
X113670Y99742D02*
D03*
X118670D02*
D03*
X113670Y94742D02*
D03*
Y89742D02*
D03*
X118670Y104742D02*
D03*
X128670Y124742D02*
D03*
X118670Y119742D02*
D03*
X163670Y144742D02*
D03*
X133670Y94742D02*
D03*
X128670Y104742D02*
D03*
X138670Y94742D02*
D03*
X133670Y104742D02*
D03*
X128670Y94742D02*
D03*
X193670D02*
D03*
X143670Y104742D02*
D03*
Y134742D02*
D03*
X153670Y129742D02*
D03*
Y134742D02*
D03*
X163670D02*
D03*
X173670Y129742D02*
D03*
Y134742D02*
D03*
X183670D02*
D03*
X213670Y84742D02*
D03*
X133670Y159742D02*
D03*
X198670Y104742D02*
D03*
X193670Y74742D02*
D03*
X198670Y64742D02*
D03*
X203670Y59742D02*
D03*
X198670D02*
D03*
Y74742D02*
D03*
X213670Y124742D02*
D03*
X208670D02*
D03*
X193670D02*
D03*
X188670D02*
D03*
X198670D02*
D03*
X188670Y114742D02*
D03*
X213670Y129742D02*
D03*
X208670D02*
D03*
X113670Y109742D02*
D03*
X118670Y114742D02*
D03*
X138670D02*
D03*
X133670D02*
D03*
X118670Y109742D02*
D03*
X113670Y114742D02*
D03*
Y119742D02*
D03*
X128670Y114742D02*
D03*
X133670Y124742D02*
D03*
X118670D02*
D03*
X138670D02*
D03*
X143670D02*
D03*
X118670Y69742D02*
D03*
Y79742D02*
D03*
X113670D02*
D03*
X128670Y74742D02*
D03*
X113670D02*
D03*
X133670D02*
D03*
Y84742D02*
D03*
X128670D02*
D03*
X113670D02*
D03*
X118670D02*
D03*
Y89742D02*
D03*
X113670Y69742D02*
D03*
X138670Y84742D02*
D03*
X118670Y74742D02*
D03*
X213670Y139742D02*
D03*
Y144742D02*
D03*
Y134742D02*
D03*
X208670Y139742D02*
D03*
X153670Y144742D02*
D03*
X128670Y154742D02*
D03*
X133670Y144742D02*
D03*
X128670Y159742D02*
D03*
X208670D02*
D03*
X203670Y154742D02*
D03*
X183670D02*
D03*
X188670Y159742D02*
D03*
X208670Y154742D02*
D03*
X178670D02*
D03*
X153670D02*
D03*
X173670Y144742D02*
D03*
Y139742D02*
D03*
X153670Y159742D02*
D03*
X148670D02*
D03*
X133670Y154742D02*
D03*
X183670Y139742D02*
D03*
X123670Y154742D02*
D03*
X128670Y144742D02*
D03*
X198670D02*
D03*
X183670D02*
D03*
X113670Y149742D02*
D03*
X143670Y159742D02*
D03*
Y154742D02*
D03*
X123670Y159742D02*
D03*
X193670Y144742D02*
D03*
X163670Y154742D02*
D03*
X158670D02*
D03*
X163670Y159742D02*
D03*
X158670D02*
D03*
X118670D02*
D03*
X163670Y139742D02*
D03*
X118670Y154742D02*
D03*
X113670D02*
D03*
X118670Y149742D02*
D03*
X208670Y89742D02*
D03*
Y94742D02*
D03*
Y104742D02*
D03*
Y109742D02*
D03*
X213670Y89742D02*
D03*
Y94742D02*
D03*
Y104742D02*
D03*
Y109742D02*
D03*
X208670Y99742D02*
D03*
X213670D02*
D03*
X188670Y59742D02*
D03*
X193670D02*
D03*
X188670Y64742D02*
D03*
X193670D02*
D03*
Y104742D02*
D03*
X208670Y114742D02*
D03*
X183670Y79742D02*
D03*
X188670Y84742D02*
D03*
X183670Y74742D02*
D03*
Y84742D02*
D03*
X153670Y99742D02*
D03*
Y104742D02*
D03*
Y109742D02*
D03*
Y114742D02*
D03*
Y119742D02*
D03*
X158670Y104742D02*
D03*
Y114742D02*
D03*
X163670Y99742D02*
D03*
Y104742D02*
D03*
Y114742D02*
D03*
Y119742D02*
D03*
X168670Y104742D02*
D03*
Y114742D02*
D03*
X173670Y99742D02*
D03*
Y104742D02*
D03*
Y109742D02*
D03*
Y114742D02*
D03*
Y119742D02*
D03*
X143670Y84742D02*
D03*
X153670Y89742D02*
D03*
X183670Y114742D02*
D03*
X188670Y94742D02*
D03*
X193670Y84742D02*
D03*
X208670Y74742D02*
D03*
X113670Y124742D02*
D03*
X213670Y69742D02*
D03*
Y74742D02*
D03*
X143670D02*
D03*
X173670Y89742D02*
D03*
X208670Y84742D02*
D03*
X193670Y114742D02*
D03*
X213670Y119742D02*
D03*
X183670Y94742D02*
D03*
X178670Y59742D02*
D03*
X203670Y64742D02*
D03*
X208670Y59742D02*
D03*
X193670Y159742D02*
D03*
X188670Y154742D02*
D03*
X168670D02*
D03*
Y159742D02*
D03*
X173670Y154742D02*
D03*
Y159742D02*
D03*
X178670D02*
D03*
X183670D02*
D03*
X198670Y154742D02*
D03*
X203670Y159742D02*
D03*
X198670D02*
D03*
X193670Y154742D02*
D03*
X208670Y144742D02*
D03*
X213670Y149742D02*
D03*
Y154742D02*
D03*
X208670Y149742D02*
D03*
X148670Y59742D02*
D03*
D39*
X303784Y184064D02*
D03*
Y205064D02*
D03*
D40*
X276791Y229108D02*
D03*
Y183134D02*
D03*
Y187314D02*
D03*
Y191493D02*
D03*
Y195672D02*
D03*
Y199852D02*
D03*
Y204032D02*
D03*
Y208211D02*
D03*
Y212390D02*
D03*
Y216569D02*
D03*
Y220749D02*
D03*
Y224929D02*
D03*
X216339Y183134D02*
D03*
Y229108D02*
D03*
Y224929D02*
D03*
Y220749D02*
D03*
Y216569D02*
D03*
Y212390D02*
D03*
Y208211D02*
D03*
Y204032D02*
D03*
Y199852D02*
D03*
Y195672D02*
D03*
Y191493D02*
D03*
Y187314D02*
D03*
D41*
X223705Y236474D02*
D03*
X269679D02*
D03*
X265499D02*
D03*
X261320D02*
D03*
X257141D02*
D03*
X252961D02*
D03*
X248781D02*
D03*
X244602D02*
D03*
X240423D02*
D03*
X236243D02*
D03*
X232064D02*
D03*
X227884D02*
D03*
X269679Y175768D02*
D03*
X223705D02*
D03*
X227884D02*
D03*
X232064D02*
D03*
X236243D02*
D03*
X240423D02*
D03*
X244602D02*
D03*
X248781D02*
D03*
X252961D02*
D03*
X257141D02*
D03*
X261320D02*
D03*
X265499D02*
D03*
D42*
X298958Y33911D02*
D03*
Y18412D02*
D03*
D68*
X259386Y-49200D02*
D03*
X85386D02*
D03*
D69*
X276098Y70934D02*
D03*
X183670Y64742D02*
D03*
Y74742D02*
D03*
X123416Y104742D02*
D03*
X251844Y75950D02*
D03*
X275844Y143950D02*
D03*
X183670Y114742D02*
D03*
X123670Y124742D02*
D03*
Y114742D02*
D03*
X247844Y139950D02*
D03*
X311844Y103950D02*
D03*
Y71950D02*
D03*
X315844Y83950D02*
D03*
X311844Y91950D02*
D03*
X203670Y64742D02*
D03*
X173670Y89742D02*
D03*
X208670Y99742D02*
D03*
X198628Y104902D02*
D03*
X208670Y109742D02*
D03*
Y104742D02*
D03*
X213670D02*
D03*
Y109742D02*
D03*
X153670Y74742D02*
D03*
X183670Y144742D02*
D03*
X143670Y64742D02*
D03*
Y84742D02*
D03*
X118670Y119742D02*
D03*
X113670Y129742D02*
D03*
X143670Y154742D02*
D03*
X183670Y104742D02*
D03*
X153670Y79742D02*
D03*
X154686Y84582D02*
D03*
X153670Y89742D02*
D03*
X208670Y114742D02*
D03*
Y129742D02*
D03*
X213670Y124742D02*
D03*
X208670D02*
D03*
X198670D02*
D03*
X193670D02*
D03*
X188670D02*
D03*
X183670Y139742D02*
D03*
X208670Y149742D02*
D03*
Y154742D02*
D03*
X203670D02*
D03*
X198670D02*
D03*
X173670D02*
D03*
X193670D02*
D03*
X188670D02*
D03*
X183670D02*
D03*
X178670D02*
D03*
X168670D02*
D03*
X163670D02*
D03*
X153670D02*
D03*
X208670Y69742D02*
D03*
X213670Y79742D02*
D03*
X208670D02*
D03*
X213670Y84742D02*
D03*
X208670D02*
D03*
X188670Y104742D02*
D03*
X198670Y84742D02*
D03*
X188670D02*
D03*
X193670D02*
D03*
Y74742D02*
D03*
X178670Y64742D02*
D03*
X183670Y79742D02*
D03*
X168670Y64742D02*
D03*
X163670D02*
D03*
X148670D02*
D03*
X40894Y111136D02*
D03*
X33761Y112247D02*
D03*
X36068Y109869D02*
D03*
X153630Y188976D02*
D03*
X78740Y108204D02*
D03*
X74168D02*
D03*
X218741Y121556D02*
D03*
X166423Y189685D02*
D03*
X169188Y191853D02*
D03*
X183395Y109474D02*
D03*
D70*
X196088Y24092D02*
D03*
X235204Y59690D02*
D03*
X234078Y34890D02*
D03*
X201370Y139297D02*
D03*
X235243Y66333D02*
D03*
X289161Y64687D02*
D03*
X275982Y65880D02*
D03*
X287005Y80915D02*
D03*
X259612Y77950D02*
D03*
X174546Y75108D02*
D03*
X169094Y82988D02*
D03*
X163855Y84790D02*
D03*
X108028Y77683D02*
D03*
X107405Y105660D02*
D03*
X100264Y109794D02*
D03*
X129619Y110039D02*
D03*
X168658Y125025D02*
D03*
X163703Y115226D02*
D03*
X124158Y69515D02*
D03*
X109638Y52913D02*
D03*
X130446Y52507D02*
D03*
X281195Y35993D02*
D03*
X243228Y91922D02*
D03*
X264674Y80141D02*
D03*
X248349Y93950D02*
D03*
X302768Y111252D02*
D03*
X176286Y135818D02*
D03*
X208811Y16533D02*
D03*
X218683Y84898D02*
D03*
X218933Y79270D02*
D03*
X220509Y99347D02*
D03*
X127762Y128524D02*
D03*
X90016Y138250D02*
D03*
X169820Y253866D02*
D03*
X123458Y31665D02*
D03*
X258785Y135418D02*
D03*
X233594Y135966D02*
D03*
X107131Y72233D02*
D03*
X307451Y94372D02*
D03*
X308638Y99759D02*
D03*
X148775Y147759D02*
D03*
X232000Y147483D02*
D03*
X308087Y88545D02*
D03*
X324642Y85414D02*
D03*
X83860Y143960D02*
D03*
X148613Y90026D02*
D03*
X273154Y39254D02*
D03*
X268190Y32550D02*
D03*
X210243Y258866D02*
D03*
X331724Y132588D02*
D03*
X161180Y41664D02*
D03*
X189738Y17018D02*
D03*
X184048Y17928D02*
D03*
X54171Y132443D02*
D03*
X55027Y114300D02*
D03*
X58950Y136216D02*
D03*
X66982Y135363D02*
D03*
X38899Y125427D02*
D03*
X163678Y188976D02*
D03*
X322113Y105418D02*
D03*
X308128Y123934D02*
D03*
X279828Y135496D02*
D03*
X167446Y46624D02*
D03*
X176022Y19812D02*
D03*
X230163Y220645D02*
D03*
X246380Y211818D02*
D03*
X281250Y147573D02*
D03*
X276907Y150973D02*
D03*
X232156Y215502D02*
D03*
X264544Y40591D02*
D03*
X279674Y113518D02*
D03*
X255480Y103168D02*
D03*
X250693Y99006D02*
D03*
X226434Y96520D02*
D03*
X250037Y104482D02*
D03*
X158220Y145982D02*
D03*
X170942Y169418D02*
D03*
X165659Y167833D02*
D03*
X134414Y99604D02*
D03*
X128900Y99453D02*
D03*
X142269Y174307D02*
D03*
X262674Y32564D02*
D03*
X274161Y113331D02*
D03*
X24422Y194348D02*
D03*
X69596Y111209D02*
D03*
X188214Y261414D02*
D03*
X25146Y176278D02*
D03*
X18975Y180294D02*
D03*
X78740Y240792D02*
D03*
X66294Y228854D02*
D03*
X115062Y246634D02*
D03*
X307455Y65278D02*
D03*
X313690D02*
D03*
X261112Y84582D02*
D03*
X267485Y97146D02*
D03*
X263846Y92995D02*
D03*
X148963Y119449D02*
D03*
X105410Y36988D02*
D03*
X181869Y89195D02*
D03*
X163290Y99443D02*
D03*
X168510Y95233D02*
D03*
X179497Y99858D02*
D03*
X183386Y124790D02*
D03*
X246918Y146908D02*
D03*
X228600Y154260D02*
D03*
X128256Y47153D02*
D03*
X158609Y73866D02*
D03*
X200729Y150168D02*
D03*
X183528Y258366D02*
D03*
X184125Y184936D02*
D03*
X319951Y116544D02*
D03*
X21130Y159731D02*
D03*
X33310Y101274D02*
D03*
X258175Y148226D02*
D03*
X161956Y20828D02*
D03*
X153924Y21142D02*
D03*
X214884Y16002D02*
D03*
X199300Y16371D02*
D03*
X103172Y178308D02*
D03*
X124009Y176331D02*
D03*
X243078Y257302D02*
D03*
X269634Y160589D02*
D03*
X326390Y146304D02*
D03*
X226816Y59642D02*
D03*
X228140Y109950D02*
D03*
X224218Y85344D02*
D03*
X194917Y79883D02*
D03*
X200431Y80045D02*
D03*
X189433Y79290D02*
D03*
X203423Y55032D02*
D03*
X192952Y46561D02*
D03*
X210153Y46246D02*
D03*
X100297Y43564D02*
D03*
X87986Y-749D02*
D03*
X92916Y63452D02*
D03*
X136288Y46990D02*
D03*
X227719Y123229D02*
D03*
X177231Y86209D02*
D03*
X185928Y99568D02*
D03*
X167990Y21336D02*
D03*
X223175Y21497D02*
D03*
X33185Y91108D02*
D03*
X27686Y90678D02*
D03*
X2122Y69671D02*
D03*
X9594Y73379D02*
D03*
X5663Y65442D02*
D03*
X212948Y51308D02*
D03*
X220980Y50216D02*
D03*
X4318Y121484D02*
D03*
X5624Y126843D02*
D03*
X217669Y67242D02*
D03*
X218237Y61755D02*
D03*
X91440Y192786D02*
D03*
X94488Y-1747D02*
D03*
X115062Y-30734D02*
D03*
X69648Y124096D02*
D03*
X51784Y122682D02*
D03*
X97282Y162881D02*
D03*
X266474Y105594D02*
D03*
X196202Y109292D02*
D03*
X324641Y113641D02*
D03*
X149637Y49662D02*
D03*
X226718Y149075D02*
D03*
X129064Y30892D02*
D03*
X186436Y43688D02*
D03*
X215828Y45991D02*
D03*
X300330Y5486D02*
D03*
X202313Y49139D02*
D03*
X221192Y44704D02*
D03*
X198084Y99734D02*
D03*
X220724Y93836D02*
D03*
X221006Y140706D02*
D03*
X222017Y146129D02*
D03*
X225293Y128183D02*
D03*
X219871Y129193D02*
D03*
X221234Y154161D02*
D03*
X123361Y23633D02*
D03*
X137096Y30741D02*
D03*
X253031Y162091D02*
D03*
X258347Y159859D02*
D03*
X247904Y10958D02*
D03*
X117588Y25386D02*
D03*
X134112Y22709D02*
D03*
X102870Y162881D02*
D03*
X212480Y169130D02*
D03*
X258589Y108331D02*
D03*
X218186Y169929D02*
D03*
X64921Y89408D02*
D03*
X78962D02*
D03*
X258045Y195315D02*
D03*
X286512Y181610D02*
D03*
X202747Y168057D02*
D03*
X229593Y131966D02*
D03*
X11167Y36313D02*
D03*
X7366Y58070D02*
D03*
X6604Y50038D02*
D03*
X59865Y69687D02*
D03*
X22098Y53848D02*
D03*
X11684Y28448D02*
D03*
X193167Y168057D02*
D03*
X182176D02*
D03*
X187672Y167581D02*
D03*
X230378Y187136D02*
D03*
X236108Y187452D02*
D03*
X230886Y208232D02*
D03*
X231619Y197684D02*
D03*
X236728Y200200D02*
D03*
X241794Y198017D02*
D03*
X252346Y188435D02*
D03*
X200152Y184936D02*
D03*
X176276Y167894D02*
D03*
X261933Y98262D02*
D03*
X319939Y78756D02*
D03*
X324641Y94823D02*
D03*
X319127Y94674D02*
D03*
X262139Y152063D02*
D03*
X277622Y105156D02*
D03*
X262796Y131329D02*
D03*
X258942Y127382D02*
D03*
X210695Y174350D02*
D03*
X298196Y150114D02*
D03*
X254000Y183134D02*
D03*
X7620Y160782D02*
D03*
X76156Y221190D02*
D03*
X115824Y258064D02*
D03*
X320294Y38862D02*
D03*
X105410Y28956D02*
D03*
X41148Y6604D02*
D03*
X18796Y11938D02*
D03*
X247530Y198537D02*
D03*
X214884Y235712D02*
D03*
X239845Y214699D02*
D03*
X266954Y246126D02*
D03*
X265938Y223012D02*
D03*
X287020Y215646D02*
D03*
X287274Y205994D02*
D03*
X285750Y199390D02*
D03*
X285242Y191262D02*
D03*
X106653Y94996D02*
D03*
X259099Y119351D02*
D03*
X262926Y123323D02*
D03*
X258879Y113839D02*
D03*
X306070Y135890D02*
D03*
X307680Y83020D02*
D03*
X307477Y118456D02*
D03*
X319786Y132588D02*
D03*
X43453Y87066D02*
D03*
X38052Y88184D02*
D03*
X27292Y104247D02*
D03*
X102580Y76926D02*
D03*
X59825Y154643D02*
D03*
X54447Y153416D02*
D03*
D71*
X33889Y212816D02*
D03*
X56388Y213360D02*
D03*
X246828Y35610D02*
D03*
X303530Y40894D02*
D03*
X277599Y93314D02*
D03*
X248052Y66300D02*
D03*
X40894Y103886D02*
D03*
X119380Y44002D02*
D03*
X119888Y55361D02*
D03*
X123670Y74742D02*
D03*
X126024Y90637D02*
D03*
X299689Y66757D02*
D03*
X287528Y37846D02*
D03*
X288290Y94742D02*
D03*
X301244Y88900D02*
D03*
X203309Y115672D02*
D03*
X178119Y109839D02*
D03*
X192278Y184648D02*
D03*
X209323Y225298D02*
D03*
X177546Y244782D02*
D03*
X209550Y21747D02*
D03*
X203060Y20058D02*
D03*
X136741Y138903D02*
D03*
X143670Y149742D02*
D03*
X90266Y146212D02*
D03*
X15462Y79966D02*
D03*
Y74950D02*
D03*
X303911Y162179D02*
D03*
X194462Y238284D02*
D03*
X79360Y152866D02*
D03*
X83601Y107966D02*
D03*
X157371Y127242D02*
D03*
X127254Y258572D02*
D03*
X104934Y86868D02*
D03*
X86709Y81788D02*
D03*
X99060Y114903D02*
D03*
X75438Y97790D02*
D03*
X44497Y68466D02*
D03*
X27743D02*
D03*
X260350Y20828D02*
D03*
X327079Y123214D02*
D03*
X148372Y37802D02*
D03*
X180205Y54944D02*
D03*
X165974Y39116D02*
D03*
X187702Y-9254D02*
D03*
X59182Y126448D02*
D03*
X76896Y130630D02*
D03*
X77594Y83328D02*
D03*
X57404Y91948D02*
D03*
X29972Y109356D02*
D03*
X12078Y115614D02*
D03*
X8128Y154686D02*
D03*
X155956Y167074D02*
D03*
X331669Y104396D02*
D03*
X301715Y125072D02*
D03*
X173476Y41649D02*
D03*
X176276Y13716D02*
D03*
X126099Y120488D02*
D03*
X131108Y120860D02*
D03*
X291846Y107696D02*
D03*
X92331Y228854D02*
D03*
X146304Y186436D02*
D03*
X156396Y173228D02*
D03*
X152626Y201930D02*
D03*
X101558Y202184D02*
D03*
X154090Y215509D02*
D03*
X276606Y46575D02*
D03*
X51816Y245618D02*
D03*
X103840Y124492D02*
D03*
X84328Y33528D02*
D03*
X130410Y171958D02*
D03*
X281146Y160060D02*
D03*
X173360Y224118D02*
D03*
X154090Y215509D02*
D03*
X154940Y210566D02*
D03*
X75438Y204978D02*
D03*
X220348Y114274D02*
D03*
X203593Y99457D02*
D03*
X269102Y147621D02*
D03*
M02*
