G04*
G04 #@! TF.GenerationSoftware,Altium Limited,Altium Designer,24.6.1 (21)*
G04*
G04 Layer_Color=2752767*
%FSLAX44Y44*%
%MOMM*%
G71*
G04*
G04 #@! TF.SameCoordinates,46D9000B-954F-446C-B998-76B77EA3697B*
G04*
G04*
G04 #@! TF.FilePolarity,Positive*
G04*
G01*
G75*
%ADD13C,0.1270*%
%ADD92C,0.1693*%
D13*
X276098Y65854D02*
X271018Y76014D01*
X281178D01*
X276098Y65854D01*
X183670Y59662D02*
X178590Y69822D01*
X188750D01*
X183670Y59662D01*
Y69662D02*
X178590Y79822D01*
X188750D01*
X183670Y69662D01*
X123416Y99662D02*
X118336Y109822D01*
X128496D01*
X123416Y99662D01*
X251844Y70870D02*
X246764Y81030D01*
X256924D01*
X251844Y70870D01*
X275844Y138870D02*
X270764Y149030D01*
X280924D01*
X275844Y138870D01*
X183670Y109662D02*
X178590Y119822D01*
X188750D01*
X183670Y109662D01*
X123670Y119662D02*
X118590Y129822D01*
X128750D01*
X123670Y119662D01*
Y109662D02*
X118590Y119822D01*
X128750D01*
X123670Y109662D01*
X247844Y134870D02*
X242764Y145030D01*
X252924D01*
X247844Y134870D01*
X311844Y98870D02*
X306764Y109030D01*
X316924D01*
X311844Y98870D01*
Y66870D02*
X306764Y77030D01*
X316924D01*
X311844Y66870D01*
X315844Y78870D02*
X310764Y89030D01*
X320924D01*
X315844Y78870D01*
X311844Y86870D02*
X306764Y97030D01*
X316924D01*
X311844Y86870D01*
X203670Y59662D02*
X198590Y69822D01*
X208750D01*
X203670Y59662D01*
X173670Y84662D02*
X168590Y94822D01*
X178750D01*
X173670Y84662D01*
X208670Y94662D02*
X203590Y104822D01*
X213750D01*
X208670Y94662D01*
X198628Y99822D02*
X193548Y109982D01*
X203708D01*
X198628Y99822D01*
X208670Y104662D02*
X203590Y114822D01*
X213750D01*
X208670Y104662D01*
Y99662D02*
X203590Y109822D01*
X213750D01*
X208670Y99662D01*
X213670D02*
X208590Y109822D01*
X218750D01*
X213670Y99662D01*
Y104662D02*
X208590Y114822D01*
X218750D01*
X213670Y104662D01*
X153670Y69662D02*
X148590Y79822D01*
X158750D01*
X153670Y69662D01*
X183670Y139662D02*
X178590Y149822D01*
X188750D01*
X183670Y139662D01*
X143670Y59662D02*
X138590Y69822D01*
X148750D01*
X143670Y59662D01*
Y79662D02*
X138590Y89822D01*
X148750D01*
X143670Y79662D01*
X118670Y114662D02*
X113590Y124822D01*
X123750D01*
X118670Y114662D01*
X113670Y124662D02*
X108590Y134822D01*
X118750D01*
X113670Y124662D01*
X143670Y149662D02*
X138590Y159822D01*
X148750D01*
X143670Y149662D01*
X183670Y99662D02*
X178590Y109822D01*
X188750D01*
X183670Y99662D01*
X153670Y74662D02*
X148590Y84822D01*
X158750D01*
X153670Y74662D01*
X154686Y79502D02*
X149606Y89662D01*
X159766D01*
X154686Y79502D01*
X153670Y84662D02*
X148590Y94822D01*
X158750D01*
X153670Y84662D01*
X208670Y109662D02*
X203590Y119822D01*
X213750D01*
X208670Y109662D01*
Y124662D02*
X203590Y134822D01*
X213750D01*
X208670Y124662D01*
X213670Y119662D02*
X208590Y129822D01*
X218750D01*
X213670Y119662D01*
X208670D02*
X203590Y129822D01*
X213750D01*
X208670Y119662D01*
X198670D02*
X193590Y129822D01*
X203750D01*
X198670Y119662D01*
X193670D02*
X188590Y129822D01*
X198750D01*
X193670Y119662D01*
X188670D02*
X183590Y129822D01*
X193750D01*
X188670Y119662D01*
X183670Y134662D02*
X178590Y144822D01*
X188750D01*
X183670Y134662D01*
X208670Y144662D02*
X203590Y154822D01*
X213750D01*
X208670Y144662D01*
Y149662D02*
X203590Y159822D01*
X213750D01*
X208670Y149662D01*
X203670D02*
X198590Y159822D01*
X208750D01*
X203670Y149662D01*
X198670D02*
X193590Y159822D01*
X203750D01*
X198670Y149662D01*
X173670D02*
X168590Y159822D01*
X178750D01*
X173670Y149662D01*
X193670D02*
X188590Y159822D01*
X198750D01*
X193670Y149662D01*
X188670D02*
X183590Y159822D01*
X193750D01*
X188670Y149662D01*
X183670D02*
X178590Y159822D01*
X188750D01*
X183670Y149662D01*
X178670D02*
X173590Y159822D01*
X183750D01*
X178670Y149662D01*
X168670D02*
X163590Y159822D01*
X173750D01*
X168670Y149662D01*
X163670D02*
X158590Y159822D01*
X168750D01*
X163670Y149662D01*
X153670D02*
X148590Y159822D01*
X158750D01*
X153670Y149662D01*
X208670Y64662D02*
X203590Y74822D01*
X213750D01*
X208670Y64662D01*
X213670Y74662D02*
X208590Y84822D01*
X218750D01*
X213670Y74662D01*
X208670D02*
X203590Y84822D01*
X213750D01*
X208670Y74662D01*
X213670Y79662D02*
X208590Y89822D01*
X218750D01*
X213670Y79662D01*
X208670D02*
X203590Y89822D01*
X213750D01*
X208670Y79662D01*
X188670Y99662D02*
X183590Y109822D01*
X193750D01*
X188670Y99662D01*
X198670Y79662D02*
X193590Y89822D01*
X203750D01*
X198670Y79662D01*
X188670D02*
X183590Y89822D01*
X193750D01*
X188670Y79662D01*
X193670D02*
X188590Y89822D01*
X198750D01*
X193670Y79662D01*
Y69662D02*
X188590Y79822D01*
X198750D01*
X193670Y69662D01*
X178670Y59662D02*
X173590Y69822D01*
X183750D01*
X178670Y59662D01*
X183670Y74662D02*
X178590Y84822D01*
X188750D01*
X183670Y74662D01*
X168670Y59662D02*
X163590Y69822D01*
X173750D01*
X168670Y59662D01*
X163670D02*
X158590Y69822D01*
X168750D01*
X163670Y59662D01*
X148670D02*
X143590Y69822D01*
X153750D01*
X148670Y59662D01*
X196088Y19012D02*
X198628Y21552D01*
X201168D01*
X198628Y24092D01*
X201168Y26632D01*
X198628D01*
X196088Y29172D01*
X193548Y26632D01*
X191008D01*
X193548Y24092D01*
X191008Y21552D01*
X193548D01*
X196088Y19012D01*
X28809Y207736D02*
Y217896D01*
X38969D01*
Y207736D01*
X28809D01*
X51308Y208280D02*
Y218440D01*
X61468D01*
Y208280D01*
X51308D01*
X230124Y54610D02*
Y64770D01*
X240284D01*
Y54610D01*
X230124D01*
X234078Y29810D02*
X236618Y32350D01*
X239158D01*
X236618Y34890D01*
X239158Y37430D01*
X236618D01*
X234078Y39970D01*
X231538Y37430D01*
X228998D01*
X231538Y34890D01*
X228998Y32350D01*
X231538D01*
X234078Y29810D01*
X241748Y30531D02*
Y40690D01*
X251908D01*
Y30531D01*
X241748D01*
X298450Y35814D02*
Y45974D01*
X308610D01*
Y35814D01*
X298450D01*
X201370Y134217D02*
X203910Y136757D01*
X206450D01*
X203910Y139297D01*
X206450Y141837D01*
X203910D01*
X201370Y144377D01*
X198830Y141837D01*
X196290D01*
X198830Y139297D01*
X196290Y136757D01*
X198830D01*
X201370Y134217D01*
X235243Y61253D02*
X237783Y63793D01*
X240323D01*
X237783Y66333D01*
X240323Y68873D01*
X237783D01*
X235243Y71413D01*
X232703Y68873D01*
X230163D01*
X232703Y66333D01*
X230163Y63793D01*
X232703D01*
X235243Y61253D01*
X284081Y59607D02*
Y69767D01*
X294241D01*
Y59607D01*
X284081D01*
X270902Y60800D02*
Y70960D01*
X281062D01*
Y60800D01*
X270902D01*
X272519Y88234D02*
Y98394D01*
X282679D01*
Y88234D01*
X272519D01*
X281925Y75835D02*
Y85995D01*
X292085D01*
Y75835D01*
X281925D01*
X242972Y61220D02*
Y71380D01*
X253132D01*
Y61220D01*
X242972D01*
X254532Y72870D02*
Y83030D01*
X264692D01*
Y72870D01*
X254532D01*
X169466Y70028D02*
Y80188D01*
X179626D01*
Y70028D01*
X169466D01*
X164014Y77908D02*
Y88068D01*
X174174D01*
Y77908D01*
X164014D01*
X158776Y79710D02*
Y89870D01*
X168936D01*
Y79710D01*
X158776D01*
X35814Y98806D02*
Y108966D01*
X45974D01*
Y98806D01*
X35814D01*
Y106056D02*
Y116216D01*
X45974D01*
Y106056D01*
X35814D01*
X102948Y72603D02*
Y82763D01*
X113108D01*
Y72603D01*
X102948D01*
X102325Y100580D02*
Y110740D01*
X112485D01*
Y100580D01*
X102325D01*
X95184Y104713D02*
Y114874D01*
X105344D01*
Y104713D01*
X95184D01*
X124539Y104959D02*
Y115119D01*
X134699D01*
Y104959D01*
X124539D01*
X163578Y119945D02*
Y130105D01*
X173738D01*
Y119945D01*
X163578D01*
X158623Y110146D02*
Y120306D01*
X168783D01*
Y110146D01*
X158623D01*
X114300Y38922D02*
Y49082D01*
X124460D01*
Y38922D01*
X114300D01*
X114808Y50281D02*
Y60441D01*
X124968D01*
Y50281D01*
X114808D01*
X118590Y69662D02*
Y79822D01*
X128750D01*
Y69662D01*
X118590D01*
X119078Y64435D02*
Y74595D01*
X129238D01*
Y64435D01*
X119078D01*
X120944Y85557D02*
Y95717D01*
X131104D01*
Y85557D01*
X120944D01*
X104558Y47833D02*
Y57993D01*
X114718D01*
Y47833D01*
X104558D01*
X125366Y47427D02*
Y57587D01*
X135526D01*
Y47427D01*
X125366D01*
X276115Y30913D02*
Y41073D01*
X286275D01*
Y30913D01*
X276115D01*
X294609Y61677D02*
Y71837D01*
X304769D01*
Y61677D01*
X294609D01*
X282448Y32766D02*
Y42926D01*
X292608D01*
Y32766D01*
X282448D01*
X238148Y86842D02*
Y97002D01*
X248308D01*
Y86842D01*
X238148D01*
X259594Y75061D02*
Y85221D01*
X269754D01*
Y75061D01*
X259594D01*
X243269Y88870D02*
Y99030D01*
X253428D01*
Y88870D01*
X243269D01*
X283210Y89662D02*
Y99822D01*
X293370D01*
Y89662D01*
X283210D01*
X297688Y106172D02*
Y116332D01*
X307848D01*
Y106172D01*
X297688D01*
X296164Y83820D02*
Y93980D01*
X306324D01*
Y83820D01*
X296164D01*
X198229Y110592D02*
Y120752D01*
X208389D01*
Y110592D01*
X198229D01*
X173039Y104760D02*
Y114920D01*
X183199D01*
Y104760D01*
X173039D01*
X176286Y130738D02*
X178826Y133278D01*
X181366D01*
X178826Y135818D01*
X181366Y138358D01*
X178826D01*
X176286Y140898D01*
X173746Y138358D01*
X171206D01*
X173746Y135818D01*
X171206Y133278D01*
X173746D01*
X176286Y130738D01*
X187198Y179568D02*
Y189728D01*
X197358D01*
Y179568D01*
X187198D01*
X204243Y220218D02*
Y230378D01*
X214403D01*
Y220218D01*
X204243D01*
X172466Y239702D02*
Y249862D01*
X182626D01*
Y239702D01*
X172466D01*
X208811Y11453D02*
X211351Y13993D01*
X213891D01*
X211351Y16533D01*
X213891Y19073D01*
X211351D01*
X208811Y21613D01*
X206271Y19073D01*
X203731D01*
X206271Y16533D01*
X203731Y13993D01*
X206271D01*
X208811Y11453D01*
X204470Y16667D02*
Y26827D01*
X214630D01*
Y16667D01*
X204470D01*
X197980Y14978D02*
Y25138D01*
X208140D01*
Y14978D01*
X197980D01*
X213603Y79818D02*
Y89978D01*
X223763D01*
Y79818D01*
X213603D01*
X213853Y74190D02*
Y84350D01*
X224013D01*
Y74190D01*
X213853D01*
X215429Y94268D02*
Y104427D01*
X225589D01*
Y94268D01*
X215429D01*
X131661Y133823D02*
Y143983D01*
X141821D01*
Y133823D01*
X131661D01*
X122682Y123444D02*
Y133604D01*
X132842D01*
Y123444D01*
X122682D01*
X138590Y144662D02*
Y154822D01*
X148750D01*
Y144662D01*
X138590D01*
X84936Y133170D02*
Y143330D01*
X95096D01*
Y133170D01*
X84936D01*
X85185Y141132D02*
Y151292D01*
X95345D01*
Y141132D01*
X85185D01*
X10382Y74886D02*
Y85046D01*
X20542D01*
Y74886D01*
X10382D01*
Y69870D02*
Y80030D01*
X20542D01*
Y69870D01*
X10382D01*
X298831Y157099D02*
Y167259D01*
X308991D01*
Y157099D01*
X298831D01*
X189382Y233204D02*
Y243364D01*
X199542D01*
Y233204D01*
X189382D01*
X169820Y248786D02*
X172360Y251326D01*
X174900D01*
X172360Y253866D01*
X174900Y256406D01*
X172360D01*
X169820Y258946D01*
X167280Y256406D01*
X164740D01*
X167280Y253866D01*
X164740Y251326D01*
X167280D01*
X169820Y248786D01*
X123458Y26585D02*
X125998Y29125D01*
X128538D01*
X125998Y31665D01*
X128538Y34205D01*
X125998D01*
X123458Y36745D01*
X120918Y34205D01*
X118378D01*
X120918Y31665D01*
X118378Y29125D01*
X120918D01*
X123458Y26585D01*
X253705Y130338D02*
Y140498D01*
X263865D01*
Y130338D01*
X253705D01*
X228514Y130886D02*
Y141046D01*
X238674D01*
Y130886D01*
X228514D01*
X102051Y67153D02*
Y77313D01*
X112211D01*
Y67153D01*
X102051D01*
X302371Y89292D02*
Y99452D01*
X312531D01*
Y89292D01*
X302371D01*
X303558Y94679D02*
Y104839D01*
X313718D01*
Y94679D01*
X303558D01*
X143695Y142679D02*
Y152839D01*
X153855D01*
Y142679D01*
X143695D01*
X226920Y142403D02*
Y152563D01*
X237080D01*
Y142403D01*
X226920D01*
X303007Y83465D02*
Y93625D01*
X313167D01*
Y83465D01*
X303007D01*
X319562Y80334D02*
Y90494D01*
X329722D01*
Y80334D01*
X319562D01*
X78780Y138880D02*
Y149040D01*
X88940D01*
Y138880D01*
X78780D01*
X74280Y147786D02*
Y157946D01*
X84440D01*
Y147786D01*
X74280D01*
X78521Y102886D02*
Y113046D01*
X88681D01*
Y102886D01*
X78521D01*
X152291Y122162D02*
Y132322D01*
X162451D01*
Y122162D01*
X152291D01*
X143533Y84946D02*
Y95106D01*
X153693D01*
Y84946D01*
X143533D01*
X122174Y253492D02*
Y263652D01*
X132334D01*
Y253492D01*
X122174D01*
X99853Y81788D02*
Y91948D01*
X110014D01*
Y81788D01*
X99853D01*
X81629Y76708D02*
Y86868D01*
X91790D01*
Y76708D01*
X81629D01*
X93980Y109824D02*
Y119984D01*
X104140D01*
Y109824D01*
X93980D01*
X70358Y92710D02*
Y102870D01*
X80518D01*
Y92710D01*
X70358D01*
X39417Y63386D02*
Y73546D01*
X49577D01*
Y63386D01*
X39417D01*
X22664D02*
Y73546D01*
X32824D01*
Y63386D01*
X22664D01*
X255270Y15748D02*
Y25908D01*
X265430D01*
Y15748D01*
X255270D01*
X268074Y34174D02*
Y44334D01*
X278234D01*
Y34174D01*
X268074D01*
X263110Y27471D02*
Y37631D01*
X273270D01*
Y27471D01*
X263110D01*
X210243Y253786D02*
X212783Y256326D01*
X215323D01*
X212783Y258866D01*
X215323Y261406D01*
X212783D01*
X210243Y263946D01*
X207703Y261406D01*
X205163D01*
X207703Y258866D01*
X205163Y256326D01*
X207703D01*
X210243Y253786D01*
X326644Y127508D02*
Y137668D01*
X336804D01*
Y127508D01*
X326644D01*
X321999Y118134D02*
Y128294D01*
X332159D01*
Y118134D01*
X321999D01*
X161180Y36584D02*
X163720Y39124D01*
X166260D01*
X163720Y41664D01*
X166260Y44204D01*
X163720D01*
X161180Y46744D01*
X158640Y44204D01*
X156100D01*
X158640Y41664D01*
X156100Y39124D01*
X158640D01*
X161180Y36584D01*
X143292Y32722D02*
Y42882D01*
X153452D01*
Y32722D01*
X143292D01*
X175125Y49864D02*
Y60024D01*
X185285D01*
Y49864D01*
X175125D01*
X160894Y34036D02*
Y44196D01*
X171054D01*
Y34036D01*
X160894D01*
X182622Y-14334D02*
Y-4174D01*
X192782D01*
Y-14334D01*
X182622D01*
X189738Y11938D02*
X192278Y14478D01*
X194818D01*
X192278Y17018D01*
X194818Y19558D01*
X192278D01*
X189738Y22098D01*
X187198Y19558D01*
X184658D01*
X187198Y17018D01*
X184658Y14478D01*
X187198D01*
X189738Y11938D01*
X184048Y12848D02*
X186588Y15388D01*
X189128D01*
X186588Y17928D01*
X189128Y20468D01*
X186588D01*
X184048Y23008D01*
X181508Y20468D01*
X178968D01*
X181508Y17928D01*
X178968Y15388D01*
X181508D01*
X184048Y12848D01*
X49091Y127363D02*
Y137523D01*
X59251D01*
Y127363D01*
X49091D01*
X54102Y121368D02*
Y131528D01*
X64262D01*
Y121368D01*
X54102D01*
X55027Y109220D02*
X57567Y111760D01*
X60107D01*
X57567Y114300D01*
X60107Y116840D01*
X57567D01*
X55027Y119380D01*
X52487Y116840D01*
X49947D01*
X52487Y114300D01*
X49947Y111760D01*
X52487D01*
X55027Y109220D01*
X71816Y125550D02*
Y135710D01*
X81976D01*
Y125550D01*
X71816D01*
X58950Y131136D02*
X61490Y133676D01*
X64030D01*
X61490Y136216D01*
X64030Y138756D01*
X61490D01*
X58950Y141296D01*
X56410Y138756D01*
X53870D01*
X56410Y136216D01*
X53870Y133676D01*
X56410D01*
X58950Y131136D01*
X61902Y130283D02*
Y140443D01*
X72062D01*
Y130283D01*
X61902D01*
X72514Y78247D02*
Y88407D01*
X82674D01*
Y78247D01*
X72514D01*
X52324Y86868D02*
Y97028D01*
X62484D01*
Y86868D01*
X52324D01*
X24892Y104276D02*
Y114436D01*
X35052D01*
Y104276D01*
X24892D01*
X28681Y107167D02*
Y117327D01*
X38841D01*
Y107167D01*
X28681D01*
X6998Y110534D02*
Y120694D01*
X17158D01*
Y110534D01*
X6998D01*
X38899Y120347D02*
X41439Y122887D01*
X43979D01*
X41439Y125427D01*
X43979Y127967D01*
X41439D01*
X38899Y130507D01*
X36359Y127967D01*
X33819D01*
X36359Y125427D01*
X33819Y122887D01*
X36359D01*
X38899Y120347D01*
X3048Y149606D02*
Y159766D01*
X13208D01*
Y149606D01*
X3048D01*
X163678Y183896D02*
X166218Y186436D01*
X168758D01*
X166218Y188976D01*
X168758Y191516D01*
X166218D01*
X163678Y194056D01*
X161138Y191516D01*
X158598D01*
X161138Y188976D01*
X158598Y186436D01*
X161138D01*
X163678Y183896D01*
X150876Y161994D02*
Y172154D01*
X161036D01*
Y161994D01*
X150876D01*
X326589Y99316D02*
Y109476D01*
X336749D01*
Y99316D01*
X326589D01*
X317033Y100338D02*
Y110498D01*
X327193D01*
Y100338D01*
X317033D01*
X303048Y118854D02*
Y129014D01*
X313208D01*
Y118854D01*
X303048D01*
X274748Y130416D02*
Y140576D01*
X284908D01*
Y130416D01*
X274748D01*
X296635Y119993D02*
Y130153D01*
X306795D01*
Y119993D01*
X296635D01*
X167446Y41544D02*
X169986Y44084D01*
X172526D01*
X169986Y46624D01*
X172526Y49164D01*
X169986D01*
X167446Y51704D01*
X164905Y49164D01*
X162365D01*
X164905Y46624D01*
X162365Y44084D01*
X164905D01*
X167446Y41544D01*
X168396Y36569D02*
Y46729D01*
X178556D01*
Y36569D01*
X168396D01*
X171196Y8636D02*
Y18796D01*
X181356D01*
Y8636D01*
X171196D01*
X176022Y14732D02*
X178562Y17272D01*
X181102D01*
X178562Y19812D01*
X181102Y22352D01*
X178562D01*
X176022Y24892D01*
X173482Y22352D01*
X170942D01*
X173482Y19812D01*
X170942Y17272D01*
X173482D01*
X176022Y14732D01*
X121019Y115408D02*
Y125568D01*
X131179D01*
Y115408D01*
X121019D01*
X126028Y115780D02*
Y125940D01*
X136188D01*
Y115780D01*
X126028D01*
X225083Y215565D02*
Y225725D01*
X235243D01*
Y215565D01*
X225083D01*
X241300Y206738D02*
Y216898D01*
X251460D01*
Y206738D01*
X241300D01*
X276170Y142493D02*
Y152653D01*
X286330D01*
Y142493D01*
X276170D01*
X271827Y145893D02*
Y156053D01*
X281987D01*
Y145893D01*
X271827D01*
X227076Y210422D02*
Y220582D01*
X237236D01*
Y210422D01*
X227076D01*
X259464Y35511D02*
Y45671D01*
X269624D01*
Y35511D01*
X259464D01*
X286766Y102616D02*
Y112776D01*
X296926D01*
Y102616D01*
X286766D01*
X274594Y108438D02*
Y118598D01*
X284754D01*
Y108438D01*
X274594D01*
X250400Y98088D02*
Y108248D01*
X260560D01*
Y98088D01*
X250400D01*
X245613Y93926D02*
Y104086D01*
X255773D01*
Y93926D01*
X245613D01*
X226434Y91440D02*
X228974Y93980D01*
X231514D01*
X228974Y96520D01*
X231514Y99060D01*
X228974D01*
X226434Y101600D01*
X223894Y99060D01*
X221354D01*
X223894Y96520D01*
X221354Y93980D01*
X223894D01*
X226434Y91440D01*
X244957Y99402D02*
Y109562D01*
X255117D01*
Y99402D01*
X244957D01*
X153140Y140902D02*
Y151062D01*
X163300D01*
Y140902D01*
X153140D01*
X165862Y164338D02*
Y174498D01*
X176022D01*
Y164338D01*
X165862D01*
X160579Y162753D02*
Y172913D01*
X170739D01*
Y162753D01*
X160579D01*
X30988Y104789D02*
Y114949D01*
X41148D01*
Y104789D01*
X30988D01*
X129334Y94524D02*
Y104684D01*
X139494D01*
Y94524D01*
X129334D01*
X123820Y94373D02*
Y104533D01*
X133980D01*
Y94373D01*
X123820D01*
X87252Y223774D02*
Y233934D01*
X97411D01*
Y223774D01*
X87252D01*
X141224Y181356D02*
Y191516D01*
X151384D01*
Y181356D01*
X141224D01*
X151316Y168148D02*
Y178308D01*
X161476D01*
Y168148D01*
X151316D01*
X137189Y169227D02*
Y179387D01*
X147349D01*
Y169227D01*
X137189D01*
X147546Y196850D02*
Y207010D01*
X157706D01*
Y196850D01*
X147546D01*
X148550Y183896D02*
Y194056D01*
X158710D01*
Y183896D01*
X148550D01*
X96478Y197104D02*
Y207264D01*
X106638D01*
Y197104D01*
X96478D01*
X262674Y27485D02*
X265214Y30024D01*
X267754D01*
X265214Y32564D01*
X267754Y35104D01*
X265214D01*
X262674Y37645D01*
X260134Y35104D01*
X257594D01*
X260134Y32564D01*
X257594Y30024D01*
X260134D01*
X262674Y27485D01*
X271526Y41495D02*
Y51655D01*
X281686D01*
Y41495D01*
X271526D01*
X269081Y108251D02*
Y118411D01*
X279241D01*
Y108251D01*
X269081D01*
X19342Y189268D02*
Y199428D01*
X29502D01*
Y189268D01*
X19342D01*
X64516Y106129D02*
Y116289D01*
X74676D01*
Y106129D01*
X64516D01*
X46736Y240538D02*
Y250698D01*
X56896D01*
Y240538D01*
X46736D01*
X183134Y256334D02*
Y266494D01*
X193294D01*
Y256334D01*
X183134D01*
X20066Y171198D02*
Y181358D01*
X30226D01*
Y171198D01*
X20066D01*
X18975Y175214D02*
X21515Y177754D01*
X24055D01*
X21515Y180294D01*
X24055Y182834D01*
X21515D01*
X18975Y185374D01*
X16435Y182834D01*
X13895D01*
X16435Y180294D01*
X13895Y177754D01*
X16435D01*
X18975Y175214D01*
X78740Y235712D02*
X81280Y238252D01*
X83820D01*
X81280Y240792D01*
X83820Y243332D01*
X81280D01*
X78740Y245872D01*
X76200Y243332D01*
X73660D01*
X76200Y240792D01*
X73660Y238252D01*
X76200D01*
X78740Y235712D01*
X61214Y223774D02*
Y233934D01*
X71374D01*
Y223774D01*
X61214D01*
X109982Y241554D02*
Y251714D01*
X120142D01*
Y241554D01*
X109982D01*
X302375Y60198D02*
Y70358D01*
X312535D01*
Y60198D01*
X302375D01*
X308610D02*
Y70358D01*
X318770D01*
Y60198D01*
X308610D01*
X73660Y103124D02*
Y113284D01*
X83820D01*
Y103124D01*
X73660D01*
X69088D02*
Y113284D01*
X79248D01*
Y103124D01*
X69088D01*
X256032Y79502D02*
Y89662D01*
X266192D01*
Y79502D01*
X256032D01*
X262405Y92066D02*
Y102226D01*
X272565D01*
Y92066D01*
X262405D01*
X258766Y87915D02*
Y98075D01*
X268926D01*
Y87915D01*
X258766D01*
X148963Y114369D02*
X151503Y116909D01*
X154043D01*
X151503Y119449D01*
X154043Y121989D01*
X151503D01*
X148963Y124529D01*
X146423Y121989D01*
X143883D01*
X146423Y119449D01*
X143883Y116909D01*
X146423D01*
X148963Y114369D01*
X218741Y116476D02*
X213661Y126636D01*
X223821D01*
X218741Y116476D01*
X98760Y119412D02*
Y129572D01*
X108920D01*
Y119412D01*
X98760D01*
X79248Y28448D02*
Y38608D01*
X89408D01*
Y28448D01*
X79248D01*
X100330Y31908D02*
Y42068D01*
X110490D01*
Y31908D01*
X100330D01*
X181869Y84115D02*
X184409Y86655D01*
X186949D01*
X184409Y89195D01*
X186949Y91735D01*
X184409D01*
X181869Y94275D01*
X179329Y91735D01*
X176789D01*
X179329Y89195D01*
X176789Y86655D01*
X179329D01*
X181869Y84115D01*
X158210Y94363D02*
Y104523D01*
X168370D01*
Y94363D01*
X158210D01*
X163430Y90154D02*
Y100314D01*
X173590D01*
Y90154D01*
X163430D01*
X174417Y94778D02*
Y104938D01*
X184577D01*
Y94778D01*
X174417D01*
X125330Y166878D02*
Y177038D01*
X135490D01*
Y166878D01*
X125330D01*
X178306Y119710D02*
Y129870D01*
X188466D01*
Y119710D01*
X178306D01*
X276066Y154980D02*
Y165140D01*
X286226D01*
Y154980D01*
X276066D01*
X241838Y141828D02*
Y151988D01*
X251998D01*
Y141828D01*
X241838D01*
X223520Y149180D02*
Y159340D01*
X233680D01*
Y149180D01*
X223520D01*
X123176Y42073D02*
Y52233D01*
X133336D01*
Y42073D01*
X123176D01*
X153529Y68786D02*
Y78946D01*
X163689D01*
Y68786D01*
X153529D01*
X168280Y219038D02*
Y229198D01*
X178440D01*
Y219038D01*
X168280D01*
X149010Y210429D02*
Y220589D01*
X159170D01*
Y210429D01*
X149010D01*
X149860Y205486D02*
Y215646D01*
X160020D01*
Y205486D01*
X149860D01*
X195649Y145088D02*
Y155248D01*
X205809D01*
Y145088D01*
X195649D01*
X178447Y253286D02*
Y263446D01*
X188608D01*
Y253286D01*
X178447D01*
X161343Y184605D02*
Y194765D01*
X171503D01*
Y184605D01*
X161343D01*
X164108Y186773D02*
Y196933D01*
X174268D01*
Y186773D01*
X164108D01*
X184125Y179856D02*
X186665Y182396D01*
X189205D01*
X186665Y184936D01*
X189205Y187476D01*
X186665D01*
X184125Y190016D01*
X181585Y187476D01*
X179045D01*
X181585Y184936D01*
X179045Y182396D01*
X181585D01*
X184125Y179856D01*
X314871Y111464D02*
Y121624D01*
X325031D01*
Y111464D01*
X314871D01*
X70358Y199898D02*
Y210058D01*
X80518D01*
Y199898D01*
X70358D01*
X21130Y154650D02*
X23670Y157191D01*
X26210D01*
X23670Y159731D01*
X26210Y162271D01*
X23670D01*
X21130Y164811D01*
X18590Y162271D01*
X16050D01*
X18590Y159731D01*
X16050Y157191D01*
X18590D01*
X21130Y154650D01*
X28230Y96194D02*
Y106354D01*
X38390D01*
Y96194D01*
X28230D01*
X253095Y143146D02*
Y153306D01*
X263255D01*
Y143146D01*
X253095D01*
X161956Y15748D02*
X164496Y18288D01*
X167036D01*
X164496Y20828D01*
X167036Y23368D01*
X164496D01*
X161956Y25908D01*
X159416Y23368D01*
X156876D01*
X159416Y20828D01*
X156876Y18288D01*
X159416D01*
X161956Y15748D01*
X153924Y16062D02*
X156464Y18602D01*
X159004D01*
X156464Y21142D01*
X159004Y23682D01*
X156464D01*
X153924Y26222D01*
X151384Y23682D01*
X148844D01*
X151384Y21142D01*
X148844Y18602D01*
X151384D01*
X153924Y16062D01*
X214884Y10922D02*
X217424Y13462D01*
X219964D01*
X217424Y16002D01*
X219964Y18542D01*
X217424D01*
X214884Y21082D01*
X212344Y18542D01*
X209804D01*
X212344Y16002D01*
X209804Y13462D01*
X212344D01*
X214884Y10922D01*
X199300Y11291D02*
X201840Y13831D01*
X204380D01*
X201840Y16371D01*
X204380Y18911D01*
X201840D01*
X199300Y21451D01*
X196760Y18911D01*
X194220D01*
X196760Y16371D01*
X194220Y13831D01*
X196760D01*
X199300Y11291D01*
X98092Y173228D02*
Y183388D01*
X108252D01*
Y173228D01*
X98092D01*
X118929Y171251D02*
Y181411D01*
X129089D01*
Y171251D01*
X118929D01*
X243078Y252222D02*
X245618Y254762D01*
X248158D01*
X245618Y257302D01*
X248158Y259842D01*
X245618D01*
X243078Y262382D01*
X240538Y259842D01*
X237998D01*
X240538Y257302D01*
X237998Y254762D01*
X240538D01*
X243078Y252222D01*
X269634Y155509D02*
X272174Y158049D01*
X274714D01*
X272174Y160589D01*
X274714Y163129D01*
X272174D01*
X269634Y165669D01*
X267094Y163129D01*
X264554D01*
X267094Y160589D01*
X264554Y158049D01*
X267094D01*
X269634Y155509D01*
X326390Y141224D02*
X328930Y143764D01*
X331470D01*
X328930Y146304D01*
X331470Y148844D01*
X328930D01*
X326390Y151384D01*
X323850Y148844D01*
X321310D01*
X323850Y146304D01*
X321310Y143764D01*
X323850D01*
X326390Y141224D01*
X221736Y54562D02*
Y64722D01*
X231896D01*
Y54562D01*
X221736D01*
X228140Y104870D02*
X230680Y107410D01*
X233220D01*
X230680Y109950D01*
X233220Y112490D01*
X230680D01*
X228140Y115030D01*
X225600Y112490D01*
X223060D01*
X225600Y109950D01*
X223060Y107410D01*
X225600D01*
X228140Y104870D01*
X224218Y80264D02*
X226758Y82804D01*
X229298D01*
X226758Y85344D01*
X229298Y87884D01*
X226758D01*
X224218Y90424D01*
X221678Y87884D01*
X219138D01*
X221678Y85344D01*
X219138Y82804D01*
X221678D01*
X224218Y80264D01*
X189837Y74804D02*
Y84964D01*
X199997D01*
Y74804D01*
X189837D01*
X195351Y74965D02*
Y85125D01*
X205511D01*
Y74965D01*
X195351D01*
X184353Y74210D02*
Y84370D01*
X194513D01*
Y74210D01*
X184353D01*
X198343Y49952D02*
Y60112D01*
X208503D01*
Y49952D01*
X198343D01*
X192952Y41480D02*
X195492Y44021D01*
X198032D01*
X195492Y46561D01*
X198032Y49100D01*
X195492D01*
X192952Y51641D01*
X190412Y49100D01*
X187872D01*
X190412Y46561D01*
X187872Y44021D01*
X190412D01*
X192952Y41480D01*
X210153Y41166D02*
X212693Y43706D01*
X215233D01*
X212693Y46246D01*
X215233Y48786D01*
X212693D01*
X210153Y51326D01*
X207613Y48786D01*
X205073D01*
X207613Y46246D01*
X205073Y43706D01*
X207613D01*
X210153Y41166D01*
X95217Y38484D02*
Y48644D01*
X105377D01*
Y38484D01*
X95217D01*
X87986Y-5829D02*
X90526Y-3289D01*
X93066D01*
X90526Y-749D01*
X93066Y1791D01*
X90526D01*
X87986Y4331D01*
X85446Y1791D01*
X82906D01*
X85446Y-749D01*
X82906Y-3289D01*
X85446D01*
X87986Y-5829D01*
X92916Y58372D02*
X95456Y60912D01*
X97996D01*
X95456Y63452D01*
X97996Y65992D01*
X95456D01*
X92916Y68532D01*
X90376Y65992D01*
X87836D01*
X90376Y63452D01*
X87836Y60912D01*
X90376D01*
X92916Y58372D01*
X131208Y41910D02*
Y52070D01*
X141368D01*
Y41910D01*
X131208D01*
X222640Y118149D02*
Y128309D01*
X232799D01*
Y118149D01*
X222640D01*
X172151Y81129D02*
Y91289D01*
X182311D01*
Y81129D01*
X172151D01*
X180848Y94488D02*
Y104648D01*
X191008D01*
Y94488D01*
X180848D01*
X167990Y16256D02*
X170530Y18796D01*
X173070D01*
X170530Y21336D01*
X173070Y23876D01*
X170530D01*
X167990Y26416D01*
X165450Y23876D01*
X162910D01*
X165450Y21336D01*
X162910Y18796D01*
X165450D01*
X167990Y16256D01*
X223175Y16417D02*
X225715Y18957D01*
X228255D01*
X225715Y21497D01*
X228255Y24037D01*
X225715D01*
X223175Y26577D01*
X220635Y24037D01*
X218095D01*
X220635Y21497D01*
X218095Y18957D01*
X220635D01*
X223175Y16417D01*
X28105Y86028D02*
Y96188D01*
X38265D01*
Y86028D01*
X28105D01*
X22606Y85598D02*
Y95758D01*
X32766D01*
Y85598D01*
X22606D01*
X-2958Y64591D02*
Y74750D01*
X7202D01*
Y64591D01*
X-2958D01*
X9594Y68299D02*
X12134Y70839D01*
X14674D01*
X12134Y73379D01*
X14674Y75919D01*
X12134D01*
X9594Y78459D01*
X7054Y75919D01*
X4514D01*
X7054Y73379D01*
X4514Y70839D01*
X7054D01*
X9594Y68299D01*
X584Y60362D02*
Y70522D01*
X10743D01*
Y60362D01*
X584D01*
X212948Y46228D02*
X215488Y48768D01*
X218028D01*
X215488Y51308D01*
X218028Y53848D01*
X215488D01*
X212948Y56388D01*
X210408Y53848D01*
X207868D01*
X210408Y51308D01*
X207868Y48768D01*
X210408D01*
X212948Y46228D01*
X220980Y45136D02*
X223520Y47676D01*
X226060D01*
X223520Y50216D01*
X226060Y52756D01*
X223520D01*
X220980Y55296D01*
X218440Y52756D01*
X215900D01*
X218440Y50216D01*
X215900Y47676D01*
X218440D01*
X220980Y45136D01*
X-762Y116404D02*
Y126564D01*
X9398D01*
Y116404D01*
X-762D01*
X5624Y121763D02*
X8164Y124303D01*
X10704D01*
X8164Y126843D01*
X10704Y129383D01*
X8164D01*
X5624Y131923D01*
X3084Y129383D01*
X544D01*
X3084Y126843D01*
X544Y124303D01*
X3084D01*
X5624Y121763D01*
X217669Y62162D02*
X220209Y64702D01*
X222749D01*
X220209Y67242D01*
X222749Y69782D01*
X220209D01*
X217669Y72322D01*
X215129Y69782D01*
X212589D01*
X215129Y67242D01*
X212589Y64702D01*
X215129D01*
X217669Y62162D01*
X213157Y56675D02*
Y66835D01*
X223317D01*
Y56675D01*
X213157D01*
X215268Y109194D02*
Y119354D01*
X225428D01*
Y109194D01*
X215268D01*
X91440Y187706D02*
X93980Y190246D01*
X96520D01*
X93980Y192786D01*
X96520Y195326D01*
X93980D01*
X91440Y197866D01*
X88900Y195326D01*
X86360D01*
X88900Y192786D01*
X86360Y190246D01*
X88900D01*
X91440Y187706D01*
X94488Y-6827D02*
X97028Y-4287D01*
X99568D01*
X97028Y-1747D01*
X99568Y793D01*
X97028D01*
X94488Y3333D01*
X91948Y793D01*
X89408D01*
X91948Y-1747D01*
X89408Y-4287D01*
X91948D01*
X94488Y-6827D01*
X115062Y-35814D02*
X117602Y-33274D01*
X120142D01*
X117602Y-30734D01*
X120142Y-28194D01*
X117602D01*
X115062Y-25654D01*
X112522Y-28194D01*
X109982D01*
X112522Y-30734D01*
X109982Y-33274D01*
X112522D01*
X115062Y-35814D01*
X64568Y119016D02*
Y129176D01*
X74728D01*
Y119016D01*
X64568D01*
X51784Y117602D02*
X54324Y120142D01*
X56864D01*
X54324Y122682D01*
X56864Y125222D01*
X54324D01*
X51784Y127762D01*
X49244Y125222D01*
X46704D01*
X49244Y122682D01*
X46704Y120142D01*
X49244D01*
X51784Y117602D01*
X97282Y157801D02*
X99822Y160341D01*
X102362D01*
X99822Y162881D01*
X102362Y165421D01*
X99822D01*
X97282Y167961D01*
X94742Y165421D01*
X92202D01*
X94742Y162881D01*
X92202Y160341D01*
X94742D01*
X97282Y157801D01*
X261394Y100514D02*
Y110674D01*
X271554D01*
Y100514D01*
X261394D01*
X191122Y104212D02*
Y114372D01*
X201282D01*
Y104212D01*
X191122D01*
X324641Y108561D02*
X327181Y111101D01*
X329721D01*
X327181Y113641D01*
X329721Y116181D01*
X327181D01*
X324641Y118721D01*
X322101Y116181D01*
X319561D01*
X322101Y113641D01*
X319561Y111101D01*
X322101D01*
X324641Y108561D01*
X144557Y44582D02*
Y54742D01*
X154717D01*
Y44582D01*
X144557D01*
X221638Y143995D02*
Y154155D01*
X231798D01*
Y143995D01*
X221638D01*
X129064Y25812D02*
X131604Y28352D01*
X134144D01*
X131604Y30892D01*
X134144Y33432D01*
X131604D01*
X129064Y35972D01*
X126524Y33432D01*
X123984D01*
X126524Y30892D01*
X123984Y28352D01*
X126524D01*
X129064Y25812D01*
X181356Y38608D02*
Y48768D01*
X191516D01*
Y38608D01*
X181356D01*
X215828Y40911D02*
X218368Y43451D01*
X220908D01*
X218368Y45991D01*
X220908Y48531D01*
X218368D01*
X215828Y51071D01*
X213288Y48531D01*
X210748D01*
X213288Y45991D01*
X210748Y43451D01*
X213288D01*
X215828Y40911D01*
X295250Y406D02*
Y10566D01*
X305410D01*
Y406D01*
X295250D01*
X202313Y44059D02*
X204853Y46599D01*
X207393D01*
X204853Y49139D01*
X207393Y51679D01*
X204853D01*
X202313Y54219D01*
X199774Y51679D01*
X197234D01*
X199774Y49139D01*
X197234Y46599D01*
X199774D01*
X202313Y44059D01*
X221192Y39624D02*
X223732Y42164D01*
X226272D01*
X223732Y44704D01*
X226272Y47244D01*
X223732D01*
X221192Y49784D01*
X218652Y47244D01*
X216112D01*
X218652Y44704D01*
X216112Y42164D01*
X218652D01*
X221192Y39624D01*
X193004Y94654D02*
Y104814D01*
X203164D01*
Y94654D01*
X193004D01*
X220724Y88756D02*
X223264Y91296D01*
X225804D01*
X223264Y93836D01*
X225804Y96376D01*
X223264D01*
X220724Y98916D01*
X218184Y96376D01*
X215644D01*
X218184Y93836D01*
X215644Y91296D01*
X218184D01*
X220724Y88756D01*
X198513Y94377D02*
Y104537D01*
X208673D01*
Y94377D01*
X198513D01*
X215926Y135626D02*
Y145786D01*
X226086D01*
Y135626D01*
X215926D01*
X216937Y141049D02*
Y151209D01*
X227097D01*
Y141049D01*
X216937D01*
X220213Y123103D02*
Y133263D01*
X230373D01*
Y123103D01*
X220213D01*
X214791Y124113D02*
Y134273D01*
X224951D01*
Y124113D01*
X214791D01*
X216154Y149081D02*
Y159241D01*
X226314D01*
Y149081D01*
X216154D01*
X123361Y18553D02*
X125901Y21093D01*
X128441D01*
X125901Y23633D01*
X128441Y26173D01*
X125901D01*
X123361Y28713D01*
X120821Y26173D01*
X118281D01*
X120821Y23633D01*
X118281Y21093D01*
X120821D01*
X123361Y18553D01*
X137096Y25661D02*
X139636Y28201D01*
X142176D01*
X139636Y30741D01*
X142176Y33281D01*
X139636D01*
X137096Y35821D01*
X134556Y33281D01*
X132016D01*
X134556Y30741D01*
X132016Y28201D01*
X134556D01*
X137096Y25661D01*
X247951Y157011D02*
Y167171D01*
X258111D01*
Y157011D01*
X247951D01*
X253267Y154779D02*
Y164939D01*
X263427D01*
Y154779D01*
X253267D01*
X247904Y5878D02*
X250444Y8418D01*
X252984D01*
X250444Y10958D01*
X252984Y13498D01*
X250444D01*
X247904Y16038D01*
X245364Y13498D01*
X242824D01*
X245364Y10958D01*
X242824Y8418D01*
X245364D01*
X247904Y5878D01*
X117588Y20306D02*
X120128Y22846D01*
X122668D01*
X120128Y25386D01*
X122668Y27926D01*
X120128D01*
X117588Y30466D01*
X115048Y27926D01*
X112508D01*
X115048Y25386D01*
X112508Y22846D01*
X115048D01*
X117588Y20306D01*
X134112Y17629D02*
X136652Y20169D01*
X139192D01*
X136652Y22709D01*
X139192Y25249D01*
X136652D01*
X134112Y27789D01*
X131572Y25249D01*
X129032D01*
X131572Y22709D01*
X129032Y20169D01*
X131572D01*
X134112Y17629D01*
X97790Y157801D02*
Y167961D01*
X107950D01*
Y157801D01*
X97790D01*
X207400Y164051D02*
Y174210D01*
X217560D01*
Y164051D01*
X207400D01*
X253509Y103251D02*
Y113411D01*
X263669D01*
Y103251D01*
X253509D01*
X213106Y164849D02*
Y175009D01*
X223266D01*
Y164849D01*
X213106D01*
X59841Y84328D02*
Y94488D01*
X70001D01*
Y84328D01*
X59841D01*
X73882D02*
Y94488D01*
X84042D01*
Y84328D01*
X73882D01*
X252965Y190235D02*
Y200395D01*
X263125D01*
Y190235D01*
X252965D01*
X281432Y176530D02*
Y186690D01*
X291592D01*
Y176530D01*
X281432D01*
X197667Y162977D02*
Y173137D01*
X207827D01*
Y162977D01*
X197667D01*
X264022Y142541D02*
Y152701D01*
X274182D01*
Y142541D01*
X264022D01*
X224513Y126886D02*
Y137046D01*
X234673D01*
Y126886D01*
X224513D01*
X6087Y31233D02*
Y41393D01*
X16247D01*
Y31233D01*
X6087D01*
X2286Y52990D02*
Y63150D01*
X12446D01*
Y52990D01*
X2286D01*
X1524Y44958D02*
Y55118D01*
X11684D01*
Y44958D01*
X1524D01*
X54785Y64607D02*
Y74767D01*
X64945D01*
Y64607D01*
X54785D01*
X17018Y48768D02*
Y58928D01*
X27178D01*
Y48768D01*
X17018D01*
X6604Y23368D02*
Y33528D01*
X16764D01*
Y23368D01*
X6604D01*
X188088Y162977D02*
Y173137D01*
X198248D01*
Y162977D01*
X188088D01*
X177096D02*
Y173137D01*
X187256D01*
Y162977D01*
X177096D01*
X182592Y162501D02*
Y172661D01*
X192752D01*
Y162501D01*
X182592D01*
X225298Y182056D02*
Y192216D01*
X235458D01*
Y182056D01*
X225298D01*
X231028Y182372D02*
Y192532D01*
X241188D01*
Y182372D01*
X231028D01*
X225806Y203152D02*
Y213312D01*
X235966D01*
Y203152D01*
X225806D01*
X226539Y192604D02*
Y202764D01*
X236699D01*
Y192604D01*
X226539D01*
X231648Y195120D02*
Y205280D01*
X241808D01*
Y195120D01*
X231648D01*
X236714Y192937D02*
Y203097D01*
X246874D01*
Y192937D01*
X236714D01*
X247266Y183356D02*
Y193515D01*
X257426D01*
Y183356D01*
X247266D01*
X195072Y179856D02*
Y190016D01*
X205232D01*
Y179856D01*
X195072D01*
X171196Y162814D02*
Y172974D01*
X181356D01*
Y162814D01*
X171196D01*
X256853Y93182D02*
Y103342D01*
X267013D01*
Y93182D01*
X256853D01*
X314859Y73676D02*
Y83836D01*
X325019D01*
Y73676D01*
X314859D01*
X319561Y89743D02*
Y99903D01*
X329721D01*
Y89743D01*
X319561D01*
X314047Y89594D02*
Y99754D01*
X324207D01*
Y89594D01*
X314047D01*
X257059Y146983D02*
Y157143D01*
X267219D01*
Y146983D01*
X257059D01*
X272542Y100076D02*
Y110236D01*
X282702D01*
Y100076D01*
X272542D01*
X257716Y126249D02*
Y136409D01*
X267876D01*
Y126249D01*
X257716D01*
X253862Y122303D02*
Y132463D01*
X264022D01*
Y122303D01*
X253862D01*
X205614Y169270D02*
Y179430D01*
X215774D01*
Y169270D01*
X205614D01*
X293116Y145034D02*
Y155194D01*
X303276D01*
Y145034D01*
X293116D01*
X248920Y178054D02*
Y188214D01*
X259080D01*
Y178054D01*
X248920D01*
X183395Y104394D02*
X178315Y114554D01*
X188475D01*
X183395Y104394D01*
X2540Y155702D02*
Y165862D01*
X12700D01*
Y155702D01*
X2540D01*
X71076Y216110D02*
Y226270D01*
X81236D01*
Y216110D01*
X71076D01*
X110744Y252984D02*
Y263144D01*
X120904D01*
Y252984D01*
X110744D01*
X315214Y33782D02*
Y43942D01*
X325374D01*
Y33782D01*
X315214D01*
X100330Y23876D02*
Y34036D01*
X110490D01*
Y23876D01*
X100330D01*
X36068Y1524D02*
Y11684D01*
X46228D01*
Y1524D01*
X36068D01*
X13716Y6858D02*
Y17018D01*
X23876D01*
Y6858D01*
X13716D01*
X242450Y193457D02*
Y203617D01*
X252610D01*
Y193457D01*
X242450D01*
X209804Y230632D02*
Y240792D01*
X219964D01*
Y230632D01*
X209804D01*
X234765Y209619D02*
Y219779D01*
X244925D01*
Y209619D01*
X234765D01*
X261874Y241046D02*
Y251206D01*
X272034D01*
Y241046D01*
X261874D01*
X260858Y217932D02*
Y228092D01*
X271018D01*
Y217932D01*
X260858D01*
X281940Y210566D02*
Y220726D01*
X292100D01*
Y210566D01*
X281940D01*
X282194Y200914D02*
Y211074D01*
X292354D01*
Y200914D01*
X282194D01*
X280670Y194310D02*
Y204470D01*
X290830D01*
Y194310D01*
X280670D01*
X280162Y186182D02*
Y196342D01*
X290322D01*
Y186182D01*
X280162D01*
X101573Y89916D02*
Y100076D01*
X111733D01*
Y89916D01*
X101573D01*
X254019Y114270D02*
Y124431D01*
X264179D01*
Y114270D01*
X254019D01*
X257846Y118243D02*
Y128403D01*
X268006D01*
Y118243D01*
X257846D01*
X253799Y108759D02*
Y118919D01*
X263959D01*
Y108759D01*
X253799D01*
X300990Y130810D02*
Y140970D01*
X311150D01*
Y130810D01*
X300990D01*
X302600Y77940D02*
Y88100D01*
X312760D01*
Y77940D01*
X302600D01*
X302397Y113377D02*
Y123537D01*
X312557D01*
Y113377D01*
X302397D01*
X314706Y127508D02*
Y137668D01*
X324866D01*
Y127508D01*
X314706D01*
X38373Y81986D02*
Y92146D01*
X48533D01*
Y81986D01*
X38373D01*
X32972Y83104D02*
Y93264D01*
X43132D01*
Y83104D01*
X32972D01*
X22212Y99167D02*
Y109327D01*
X32372D01*
Y99167D01*
X22212D01*
X97500Y71846D02*
Y82006D01*
X107660D01*
Y71846D01*
X97500D01*
X54745Y149563D02*
Y159723D01*
X64905D01*
Y149563D01*
X54745D01*
X49367Y148336D02*
Y158496D01*
X59527D01*
Y148336D01*
X49367D01*
D92*
X264466Y-49200D02*
G03*
X264466Y-49200I-5080J0D01*
G01*
X90466D02*
G03*
X90466Y-49200I-5080J0D01*
G01*
M02*
