G04*
G04 #@! TF.GenerationSoftware,Altium Limited,Altium Designer,24.6.1 (21)*
G04*
G04 Layer_Color=8421504*
%FSLAX44Y44*%
%MOMM*%
G71*
G04*
G04 #@! TF.SameCoordinates,46D9000B-954F-446C-B998-76B77EA3697B*
G04*
G04*
G04 #@! TF.FilePolarity,Positive*
G04*
G01*
G75*
%ADD21C,0.6350*%
G04:AMPARAMS|DCode=22|XSize=0.3048mm|YSize=0.3048mm|CornerRadius=0.0229mm|HoleSize=0mm|Usage=FLASHONLY|Rotation=180.000|XOffset=0mm|YOffset=0mm|HoleType=Round|Shape=RoundedRectangle|*
%AMROUNDEDRECTD22*
21,1,0.3048,0.2591,0,0,180.0*
21,1,0.2591,0.3048,0,0,180.0*
1,1,0.0457,-0.1295,0.1295*
1,1,0.0457,0.1295,0.1295*
1,1,0.0457,0.1295,-0.1295*
1,1,0.0457,-0.1295,-0.1295*
%
%ADD22ROUNDEDRECTD22*%
G04:AMPARAMS|DCode=23|XSize=0.8382mm|YSize=0.7112mm|CornerRadius=0.0711mm|HoleSize=0mm|Usage=FLASHONLY|Rotation=90.000|XOffset=0mm|YOffset=0mm|HoleType=Round|Shape=RoundedRectangle|*
%AMROUNDEDRECTD23*
21,1,0.8382,0.5690,0,0,90.0*
21,1,0.6960,0.7112,0,0,90.0*
1,1,0.1422,0.2845,0.3480*
1,1,0.1422,0.2845,-0.3480*
1,1,0.1422,-0.2845,-0.3480*
1,1,0.1422,-0.2845,0.3480*
%
%ADD23ROUNDEDRECTD23*%
G04:AMPARAMS|DCode=24|XSize=1.09mm|YSize=1.29mm|CornerRadius=0.1363mm|HoleSize=0mm|Usage=FLASHONLY|Rotation=90.000|XOffset=0mm|YOffset=0mm|HoleType=Round|Shape=RoundedRectangle|*
%AMROUNDEDRECTD24*
21,1,1.0900,1.0175,0,0,90.0*
21,1,0.8175,1.2900,0,0,90.0*
1,1,0.2725,0.5088,0.4088*
1,1,0.2725,0.5088,-0.4088*
1,1,0.2725,-0.5088,-0.4088*
1,1,0.2725,-0.5088,0.4088*
%
%ADD24ROUNDEDRECTD24*%
G04:AMPARAMS|DCode=25|XSize=0.4572mm|YSize=0.508mm|CornerRadius=0.0343mm|HoleSize=0mm|Usage=FLASHONLY|Rotation=180.000|XOffset=0mm|YOffset=0mm|HoleType=Round|Shape=RoundedRectangle|*
%AMROUNDEDRECTD25*
21,1,0.4572,0.4394,0,0,180.0*
21,1,0.3886,0.5080,0,0,180.0*
1,1,0.0686,-0.1943,0.2197*
1,1,0.0686,0.1943,0.2197*
1,1,0.0686,0.1943,-0.2197*
1,1,0.0686,-0.1943,-0.2197*
%
%ADD25ROUNDEDRECTD25*%
G04:AMPARAMS|DCode=26|XSize=0.508mm|YSize=0.4572mm|CornerRadius=0.0343mm|HoleSize=0mm|Usage=FLASHONLY|Rotation=180.000|XOffset=0mm|YOffset=0mm|HoleType=Round|Shape=RoundedRectangle|*
%AMROUNDEDRECTD26*
21,1,0.5080,0.3886,0,0,180.0*
21,1,0.4394,0.4572,0,0,180.0*
1,1,0.0686,-0.2197,0.1943*
1,1,0.0686,0.2197,0.1943*
1,1,0.0686,0.2197,-0.1943*
1,1,0.0686,-0.2197,-0.1943*
%
%ADD26ROUNDEDRECTD26*%
G04:AMPARAMS|DCode=27|XSize=0.3048mm|YSize=0.3048mm|CornerRadius=0.0229mm|HoleSize=0mm|Usage=FLASHONLY|Rotation=270.000|XOffset=0mm|YOffset=0mm|HoleType=Round|Shape=RoundedRectangle|*
%AMROUNDEDRECTD27*
21,1,0.3048,0.2591,0,0,270.0*
21,1,0.2591,0.3048,0,0,270.0*
1,1,0.0457,-0.1295,-0.1295*
1,1,0.0457,-0.1295,0.1295*
1,1,0.0457,0.1295,0.1295*
1,1,0.0457,0.1295,-0.1295*
%
%ADD27ROUNDEDRECTD27*%
%ADD28R,1.1000X1.9000*%
G04:AMPARAMS|DCode=29|XSize=0.4572mm|YSize=0.508mm|CornerRadius=0.0343mm|HoleSize=0mm|Usage=FLASHONLY|Rotation=270.000|XOffset=0mm|YOffset=0mm|HoleType=Round|Shape=RoundedRectangle|*
%AMROUNDEDRECTD29*
21,1,0.4572,0.4394,0,0,270.0*
21,1,0.3886,0.5080,0,0,270.0*
1,1,0.0686,-0.2197,-0.1943*
1,1,0.0686,-0.2197,0.1943*
1,1,0.0686,0.2197,0.1943*
1,1,0.0686,0.2197,-0.1943*
%
%ADD29ROUNDEDRECTD29*%
%ADD30R,0.2000X0.9000*%
%ADD31R,0.9000X0.2000*%
%ADD32C,0.2000*%
G04:AMPARAMS|DCode=33|XSize=0.508mm|YSize=0.4572mm|CornerRadius=0.0343mm|HoleSize=0mm|Usage=FLASHONLY|Rotation=90.000|XOffset=0mm|YOffset=0mm|HoleType=Round|Shape=RoundedRectangle|*
%AMROUNDEDRECTD33*
21,1,0.5080,0.3886,0,0,90.0*
21,1,0.4394,0.4572,0,0,90.0*
1,1,0.0686,0.1943,0.2197*
1,1,0.0686,0.1943,-0.2197*
1,1,0.0686,-0.1943,-0.2197*
1,1,0.0686,-0.1943,0.2197*
%
%ADD33ROUNDEDRECTD33*%
%ADD34R,0.5500X1.0000*%
%ADD35R,0.3000X1.4000*%
%ADD36R,0.7000X3.7000*%
%ADD37R,1.5000X2.3000*%
%ADD38C,0.2900*%
%ADD39R,1.7000X1.1000*%
%ADD40R,0.8000X0.2000*%
%ADD41R,0.2000X0.8000*%
G04:AMPARAMS|DCode=42|XSize=0.7874mm|YSize=0.8382mm|CornerRadius=0.0787mm|HoleSize=0mm|Usage=FLASHONLY|Rotation=0.000|XOffset=0mm|YOffset=0mm|HoleType=Round|Shape=RoundedRectangle|*
%AMROUNDEDRECTD42*
21,1,0.7874,0.6807,0,0,0.0*
21,1,0.6299,0.8382,0,0,0.0*
1,1,0.1575,0.3150,-0.3404*
1,1,0.1575,-0.3150,-0.3404*
1,1,0.1575,-0.3150,0.3404*
1,1,0.1575,0.3150,0.3404*
%
%ADD42ROUNDEDRECTD42*%
D21*
X84328Y189992D02*
D03*
X108966Y239522D02*
D03*
X105156Y254762D02*
D03*
X168148Y259080D02*
D03*
X228600Y161290D02*
D03*
X201676Y38608D02*
D03*
X183388Y37592D02*
D03*
X36576Y44958D02*
D03*
X28956Y2032D02*
D03*
X10414Y18796D02*
D03*
X20828Y45212D02*
D03*
X62230Y42672D02*
D03*
X72136Y37846D02*
D03*
X74168Y212344D02*
D03*
X154686Y43688D02*
D03*
X16764Y187960D02*
D03*
Y174244D02*
D03*
D22*
X43942Y197488D02*
D03*
Y192148D02*
D03*
X119759Y171196D02*
D03*
X125098D02*
D03*
X146174Y170688D02*
D03*
X151514D02*
D03*
X64770Y197234D02*
D03*
Y191894D02*
D03*
X75946Y162181D02*
D03*
Y156842D02*
D03*
X13841Y155448D02*
D03*
X19180D02*
D03*
X100714Y62484D02*
D03*
X95374D02*
D03*
X100714Y55118D02*
D03*
X95374D02*
D03*
X87760Y222250D02*
D03*
X82421D02*
D03*
X76329Y235712D02*
D03*
X70991D02*
D03*
X203708Y227454D02*
D03*
Y232794D02*
D03*
X310005Y58928D02*
D03*
X315343D02*
D03*
X312036Y38100D02*
D03*
X317376D02*
D03*
X215900Y32636D02*
D03*
Y37975D02*
D03*
X114937Y47752D02*
D03*
X109599D02*
D03*
D23*
X53340Y217170D02*
D03*
X40340D02*
D03*
X163934Y175514D02*
D03*
X176934D02*
D03*
X203350D02*
D03*
X190350D02*
D03*
D24*
X230908Y31478D02*
D03*
X252708Y48278D02*
D03*
X230908D02*
D03*
X252708Y31478D02*
D03*
D25*
X100015Y174244D02*
D03*
X92517D02*
D03*
X102301Y71120D02*
D03*
X94803D02*
D03*
X221935Y255016D02*
D03*
X214437D02*
D03*
X192847Y243840D02*
D03*
X200345D02*
D03*
X246573Y16764D02*
D03*
X239075D02*
D03*
X193101Y255778D02*
D03*
X200599D02*
D03*
D26*
X84074Y157033D02*
D03*
Y164531D02*
D03*
X100076Y134681D02*
D03*
Y142179D02*
D03*
X100838Y97221D02*
D03*
Y89723D02*
D03*
X79026Y249203D02*
D03*
Y256701D02*
D03*
X314452Y158303D02*
D03*
Y165801D02*
D03*
X275590Y156525D02*
D03*
Y164023D02*
D03*
X100330Y123129D02*
D03*
Y115631D02*
D03*
X302260Y59375D02*
D03*
Y51877D02*
D03*
X283464Y59375D02*
D03*
Y51877D02*
D03*
X274574Y59375D02*
D03*
Y51877D02*
D03*
X292608Y59375D02*
D03*
Y51877D02*
D03*
D27*
X65402Y156210D02*
D03*
X70742D02*
D03*
X87792Y228568D02*
D03*
X82452D02*
D03*
X294894Y160403D02*
D03*
Y155064D02*
D03*
X288798Y159895D02*
D03*
Y154557D02*
D03*
X246250Y60706D02*
D03*
X251590D02*
D03*
X8128Y83695D02*
D03*
Y78356D02*
D03*
X209172Y27686D02*
D03*
X203832D02*
D03*
X185296Y49276D02*
D03*
X179956D02*
D03*
X334264Y120774D02*
D03*
Y126114D02*
D03*
D28*
X39824Y172466D02*
D03*
X64824D02*
D03*
D29*
X27686Y167071D02*
D03*
Y159573D02*
D03*
X6858Y132395D02*
D03*
Y139893D02*
D03*
X14478Y61529D02*
D03*
Y69027D02*
D03*
X235204Y250251D02*
D03*
Y257749D02*
D03*
X72644Y54671D02*
D03*
Y62169D02*
D03*
X64516Y54671D02*
D03*
Y62169D02*
D03*
X31750Y56195D02*
D03*
Y63693D02*
D03*
X6858Y112207D02*
D03*
Y104709D02*
D03*
X5842Y98237D02*
D03*
Y90739D02*
D03*
X81534Y54671D02*
D03*
Y62169D02*
D03*
D30*
X79594Y143982D02*
D03*
X75594D02*
D03*
X71594D02*
D03*
X67594D02*
D03*
X63594D02*
D03*
X59594D02*
D03*
X55594D02*
D03*
X51594D02*
D03*
X47594D02*
D03*
X43594D02*
D03*
X39594D02*
D03*
X35594D02*
D03*
X31594D02*
D03*
X27594D02*
D03*
Y75982D02*
D03*
X31594D02*
D03*
X35594D02*
D03*
X39594D02*
D03*
X43594D02*
D03*
X47594D02*
D03*
X51594D02*
D03*
X55594D02*
D03*
X59594D02*
D03*
X63594D02*
D03*
X67594D02*
D03*
X71594D02*
D03*
X75594D02*
D03*
X79594D02*
D03*
D31*
X19594Y135982D02*
D03*
Y131982D02*
D03*
Y127982D02*
D03*
Y123982D02*
D03*
Y119982D02*
D03*
Y115982D02*
D03*
Y111982D02*
D03*
Y107982D02*
D03*
Y103982D02*
D03*
Y99982D02*
D03*
Y95982D02*
D03*
Y91982D02*
D03*
Y87982D02*
D03*
Y83982D02*
D03*
X87594D02*
D03*
Y87982D02*
D03*
Y91982D02*
D03*
Y95982D02*
D03*
Y99982D02*
D03*
Y103982D02*
D03*
Y107982D02*
D03*
Y111982D02*
D03*
Y115982D02*
D03*
Y119982D02*
D03*
Y123982D02*
D03*
Y127982D02*
D03*
Y131982D02*
D03*
Y135982D02*
D03*
D32*
X84392Y240220D02*
D03*
X88392D02*
D03*
X84392Y236220D02*
D03*
X88392D02*
D03*
X255844Y79950D02*
D03*
X307844Y131950D02*
D03*
X295844D02*
D03*
X299844D02*
D03*
X303844D02*
D03*
X235844Y135950D02*
D03*
Y107950D02*
D03*
Y115950D02*
D03*
Y127950D02*
D03*
Y139950D02*
D03*
Y143950D02*
D03*
X239844Y123950D02*
D03*
Y143950D02*
D03*
Y139950D02*
D03*
Y131950D02*
D03*
Y107950D02*
D03*
Y115950D02*
D03*
X247844Y143950D02*
D03*
Y139950D02*
D03*
X251844D02*
D03*
X255844Y143950D02*
D03*
Y139950D02*
D03*
X263844D02*
D03*
X235844Y71950D02*
D03*
Y99950D02*
D03*
Y91950D02*
D03*
Y87950D02*
D03*
Y83950D02*
D03*
Y79950D02*
D03*
Y75950D02*
D03*
X239844Y87950D02*
D03*
Y91950D02*
D03*
Y75950D02*
D03*
Y71950D02*
D03*
X247844D02*
D03*
Y75950D02*
D03*
X251844D02*
D03*
X255844Y71950D02*
D03*
Y75950D02*
D03*
X263844D02*
D03*
X267844Y71950D02*
D03*
Y143950D02*
D03*
X275844D02*
D03*
Y139950D02*
D03*
X279844Y143950D02*
D03*
Y139950D02*
D03*
X283844Y143950D02*
D03*
Y139950D02*
D03*
X287844Y143950D02*
D03*
Y139950D02*
D03*
X291844D02*
D03*
X295844D02*
D03*
X299844Y143950D02*
D03*
Y139950D02*
D03*
X303844Y143950D02*
D03*
Y139950D02*
D03*
X307844Y143950D02*
D03*
Y139950D02*
D03*
X311844Y143950D02*
D03*
Y139950D02*
D03*
Y135950D02*
D03*
Y131950D02*
D03*
Y127950D02*
D03*
X315844Y143950D02*
D03*
Y139950D02*
D03*
Y135950D02*
D03*
Y131950D02*
D03*
Y127950D02*
D03*
X275844Y71950D02*
D03*
Y75950D02*
D03*
X279844Y71950D02*
D03*
Y75950D02*
D03*
X283844D02*
D03*
Y71950D02*
D03*
X287844D02*
D03*
Y75950D02*
D03*
X291844D02*
D03*
Y71950D02*
D03*
X295844Y75950D02*
D03*
Y71950D02*
D03*
X299844D02*
D03*
Y75950D02*
D03*
X311844Y123950D02*
D03*
X315844D02*
D03*
Y115950D02*
D03*
X311844Y111950D02*
D03*
Y107950D02*
D03*
Y103950D02*
D03*
X315844D02*
D03*
Y95950D02*
D03*
X311844Y91950D02*
D03*
X315844Y87950D02*
D03*
X311844Y83950D02*
D03*
X315844D02*
D03*
X303844Y75950D02*
D03*
X307844D02*
D03*
X311844D02*
D03*
X315844D02*
D03*
X303844Y71950D02*
D03*
X307844D02*
D03*
X311844D02*
D03*
X315844D02*
D03*
Y79950D02*
D03*
X291844Y143950D02*
D03*
X295844D02*
D03*
X239844Y103950D02*
D03*
X311844Y79950D02*
D03*
Y87950D02*
D03*
Y95950D02*
D03*
Y99950D02*
D03*
Y115950D02*
D03*
Y119950D02*
D03*
X315844Y91950D02*
D03*
Y99950D02*
D03*
Y111950D02*
D03*
Y119950D02*
D03*
X259844Y143950D02*
D03*
Y139950D02*
D03*
Y71950D02*
D03*
Y75950D02*
D03*
X235844Y103950D02*
D03*
X239844Y99950D02*
D03*
X235844Y131950D02*
D03*
X239844Y135950D02*
D03*
X243844Y139950D02*
D03*
Y143950D02*
D03*
X263844D02*
D03*
X267844Y139950D02*
D03*
X271844D02*
D03*
Y143950D02*
D03*
X239844Y83950D02*
D03*
Y79950D02*
D03*
X243844Y75950D02*
D03*
Y71950D02*
D03*
X263844D02*
D03*
X267844Y75950D02*
D03*
X271844D02*
D03*
Y71950D02*
D03*
X251844Y143950D02*
D03*
Y71950D02*
D03*
X235844Y111950D02*
D03*
X239844D02*
D03*
Y127950D02*
D03*
X235844Y123950D02*
D03*
Y119950D02*
D03*
X239844D02*
D03*
Y95950D02*
D03*
X235844D02*
D03*
X315844Y107950D02*
D03*
D33*
X302199Y168656D02*
D03*
X294701D02*
D03*
D34*
X319278Y24486D02*
D03*
X325778Y5486D02*
D03*
X312778D02*
D03*
D35*
X157466Y762D02*
D03*
X152466D02*
D03*
X147466D02*
D03*
X142466D02*
D03*
X137466D02*
D03*
X132466D02*
D03*
X127466D02*
D03*
X122466D02*
D03*
X117466D02*
D03*
X112466D02*
D03*
X162466D02*
D03*
X167466D02*
D03*
X172466D02*
D03*
X177466D02*
D03*
X182466D02*
D03*
X187466D02*
D03*
X192466D02*
D03*
X197466D02*
D03*
X202466D02*
D03*
X207466D02*
D03*
X212466D02*
D03*
X217466D02*
D03*
X222466D02*
D03*
X227466D02*
D03*
D36*
X177574Y223266D02*
D03*
X162574D02*
D03*
X147574D02*
D03*
X132574D02*
D03*
D37*
X198074Y202266D02*
D03*
X112074D02*
D03*
D38*
X113670Y59742D02*
D03*
Y64742D02*
D03*
Y159742D02*
D03*
X118670Y59742D02*
D03*
Y64742D02*
D03*
X123670Y59742D02*
D03*
Y64742D02*
D03*
Y74742D02*
D03*
Y84742D02*
D03*
Y94742D02*
D03*
Y104742D02*
D03*
Y114742D02*
D03*
Y124742D02*
D03*
Y134742D02*
D03*
Y144742D02*
D03*
X128670Y59742D02*
D03*
Y64742D02*
D03*
X133670Y59742D02*
D03*
Y64742D02*
D03*
Y69742D02*
D03*
Y149742D02*
D03*
X138670Y59742D02*
D03*
Y64742D02*
D03*
Y154742D02*
D03*
Y159742D02*
D03*
X143670Y59742D02*
D03*
Y64742D02*
D03*
Y69742D02*
D03*
Y79742D02*
D03*
Y94742D02*
D03*
Y114742D02*
D03*
Y139742D02*
D03*
Y144742D02*
D03*
Y149742D02*
D03*
X148670Y64742D02*
D03*
Y94742D02*
D03*
Y104742D02*
D03*
Y114742D02*
D03*
Y124742D02*
D03*
Y154742D02*
D03*
X153670Y59742D02*
D03*
Y64742D02*
D03*
Y69742D02*
D03*
Y74742D02*
D03*
Y79742D02*
D03*
Y84742D02*
D03*
Y94742D02*
D03*
Y124742D02*
D03*
Y139742D02*
D03*
Y149742D02*
D03*
X158670Y59742D02*
D03*
Y64742D02*
D03*
Y109742D02*
D03*
X163670Y59742D02*
D03*
Y64742D02*
D03*
Y69742D02*
D03*
Y74742D02*
D03*
Y79742D02*
D03*
Y84742D02*
D03*
Y89742D02*
D03*
Y94742D02*
D03*
Y124742D02*
D03*
Y129742D02*
D03*
Y149742D02*
D03*
X168670Y59742D02*
D03*
Y64742D02*
D03*
Y109742D02*
D03*
X173670Y59742D02*
D03*
Y64742D02*
D03*
Y69742D02*
D03*
Y74742D02*
D03*
Y79742D02*
D03*
Y84742D02*
D03*
Y94742D02*
D03*
Y124742D02*
D03*
Y149742D02*
D03*
X178670Y64742D02*
D03*
Y94742D02*
D03*
Y104742D02*
D03*
Y114742D02*
D03*
Y124742D02*
D03*
X183670Y59742D02*
D03*
Y64742D02*
D03*
Y69742D02*
D03*
Y104742D02*
D03*
Y124742D02*
D03*
Y149742D02*
D03*
X193670Y69742D02*
D03*
Y149742D02*
D03*
X198670Y94742D02*
D03*
X203670Y74742D02*
D03*
Y84742D02*
D03*
Y94742D02*
D03*
Y104742D02*
D03*
Y114742D02*
D03*
Y124742D02*
D03*
Y134742D02*
D03*
Y144742D02*
D03*
X208670Y64742D02*
D03*
Y79742D02*
D03*
X213670Y59742D02*
D03*
Y79742D02*
D03*
Y159742D02*
D03*
X208670Y69742D02*
D03*
X213670Y64742D02*
D03*
X188670Y104742D02*
D03*
X198670Y114742D02*
D03*
X213670D02*
D03*
X188670Y134742D02*
D03*
X193670D02*
D03*
X208670D02*
D03*
X198670D02*
D03*
X203670Y109742D02*
D03*
X208670Y119742D02*
D03*
X198670Y84742D02*
D03*
X128670Y134742D02*
D03*
X133670D02*
D03*
X138670D02*
D03*
X113670Y129742D02*
D03*
X138670Y104742D02*
D03*
X123670Y109742D02*
D03*
X118670Y129742D02*
D03*
X113670Y144742D02*
D03*
X118670Y139742D02*
D03*
Y144742D02*
D03*
X113670Y134742D02*
D03*
X118670D02*
D03*
X113670Y139742D02*
D03*
Y104742D02*
D03*
X118670Y94742D02*
D03*
X113670Y99742D02*
D03*
X118670D02*
D03*
X113670Y94742D02*
D03*
Y89742D02*
D03*
X118670Y104742D02*
D03*
X128670Y124742D02*
D03*
X118670Y119742D02*
D03*
X163670Y144742D02*
D03*
X133670Y94742D02*
D03*
X128670Y104742D02*
D03*
X138670Y94742D02*
D03*
X133670Y104742D02*
D03*
X128670Y94742D02*
D03*
X193670D02*
D03*
X143670Y104742D02*
D03*
Y134742D02*
D03*
X153670Y129742D02*
D03*
Y134742D02*
D03*
X163670D02*
D03*
X173670Y129742D02*
D03*
Y134742D02*
D03*
X183670D02*
D03*
X213670Y84742D02*
D03*
X133670Y159742D02*
D03*
X198670Y104742D02*
D03*
X193670Y74742D02*
D03*
X198670Y64742D02*
D03*
X203670Y59742D02*
D03*
X198670D02*
D03*
Y74742D02*
D03*
X213670Y124742D02*
D03*
X208670D02*
D03*
X193670D02*
D03*
X188670D02*
D03*
X198670D02*
D03*
X188670Y114742D02*
D03*
X213670Y129742D02*
D03*
X208670D02*
D03*
X113670Y109742D02*
D03*
X118670Y114742D02*
D03*
X138670D02*
D03*
X133670D02*
D03*
X118670Y109742D02*
D03*
X113670Y114742D02*
D03*
Y119742D02*
D03*
X128670Y114742D02*
D03*
X133670Y124742D02*
D03*
X118670D02*
D03*
X138670D02*
D03*
X143670D02*
D03*
X118670Y69742D02*
D03*
Y79742D02*
D03*
X113670D02*
D03*
X128670Y74742D02*
D03*
X113670D02*
D03*
X133670D02*
D03*
Y84742D02*
D03*
X128670D02*
D03*
X113670D02*
D03*
X118670D02*
D03*
Y89742D02*
D03*
X113670Y69742D02*
D03*
X138670Y84742D02*
D03*
X118670Y74742D02*
D03*
X213670Y139742D02*
D03*
Y144742D02*
D03*
Y134742D02*
D03*
X208670Y139742D02*
D03*
X153670Y144742D02*
D03*
X128670Y154742D02*
D03*
X133670Y144742D02*
D03*
X128670Y159742D02*
D03*
X208670D02*
D03*
X203670Y154742D02*
D03*
X183670D02*
D03*
X188670Y159742D02*
D03*
X208670Y154742D02*
D03*
X178670D02*
D03*
X153670D02*
D03*
X173670Y144742D02*
D03*
Y139742D02*
D03*
X153670Y159742D02*
D03*
X148670D02*
D03*
X133670Y154742D02*
D03*
X183670Y139742D02*
D03*
X123670Y154742D02*
D03*
X128670Y144742D02*
D03*
X198670D02*
D03*
X183670D02*
D03*
X113670Y149742D02*
D03*
X143670Y159742D02*
D03*
Y154742D02*
D03*
X123670Y159742D02*
D03*
X193670Y144742D02*
D03*
X163670Y154742D02*
D03*
X158670D02*
D03*
X163670Y159742D02*
D03*
X158670D02*
D03*
X118670D02*
D03*
X163670Y139742D02*
D03*
X118670Y154742D02*
D03*
X113670D02*
D03*
X118670Y149742D02*
D03*
X208670Y89742D02*
D03*
Y94742D02*
D03*
Y104742D02*
D03*
Y109742D02*
D03*
X213670Y89742D02*
D03*
Y94742D02*
D03*
Y104742D02*
D03*
Y109742D02*
D03*
X208670Y99742D02*
D03*
X213670D02*
D03*
X188670Y59742D02*
D03*
X193670D02*
D03*
X188670Y64742D02*
D03*
X193670D02*
D03*
Y104742D02*
D03*
X208670Y114742D02*
D03*
X183670Y79742D02*
D03*
X188670Y84742D02*
D03*
X183670Y74742D02*
D03*
Y84742D02*
D03*
X153670Y99742D02*
D03*
Y104742D02*
D03*
Y109742D02*
D03*
Y114742D02*
D03*
Y119742D02*
D03*
X158670Y104742D02*
D03*
Y114742D02*
D03*
X163670Y99742D02*
D03*
Y104742D02*
D03*
Y114742D02*
D03*
Y119742D02*
D03*
X168670Y104742D02*
D03*
Y114742D02*
D03*
X173670Y99742D02*
D03*
Y104742D02*
D03*
Y109742D02*
D03*
Y114742D02*
D03*
Y119742D02*
D03*
X143670Y84742D02*
D03*
X153670Y89742D02*
D03*
X183670Y114742D02*
D03*
X188670Y94742D02*
D03*
X193670Y84742D02*
D03*
X208670Y74742D02*
D03*
X113670Y124742D02*
D03*
X213670Y69742D02*
D03*
Y74742D02*
D03*
X143670D02*
D03*
X173670Y89742D02*
D03*
X208670Y84742D02*
D03*
X193670Y114742D02*
D03*
X213670Y119742D02*
D03*
X183670Y94742D02*
D03*
X178670Y59742D02*
D03*
X203670Y64742D02*
D03*
X208670Y59742D02*
D03*
X193670Y159742D02*
D03*
X188670Y154742D02*
D03*
X168670D02*
D03*
Y159742D02*
D03*
X173670Y154742D02*
D03*
Y159742D02*
D03*
X178670D02*
D03*
X183670D02*
D03*
X198670Y154742D02*
D03*
X203670Y159742D02*
D03*
X198670D02*
D03*
X193670Y154742D02*
D03*
X208670Y144742D02*
D03*
X213670Y149742D02*
D03*
Y154742D02*
D03*
X208670Y149742D02*
D03*
X148670Y59742D02*
D03*
D39*
X303784Y184064D02*
D03*
Y205064D02*
D03*
D40*
X276791Y229108D02*
D03*
Y183134D02*
D03*
Y187314D02*
D03*
Y191493D02*
D03*
Y195672D02*
D03*
Y199852D02*
D03*
Y204032D02*
D03*
Y208211D02*
D03*
Y212390D02*
D03*
Y216569D02*
D03*
Y220749D02*
D03*
Y224929D02*
D03*
X216339Y183134D02*
D03*
Y229108D02*
D03*
Y224929D02*
D03*
Y220749D02*
D03*
Y216569D02*
D03*
Y212390D02*
D03*
Y208211D02*
D03*
Y204032D02*
D03*
Y199852D02*
D03*
Y195672D02*
D03*
Y191493D02*
D03*
Y187314D02*
D03*
D41*
X223705Y236474D02*
D03*
X269679D02*
D03*
X265499D02*
D03*
X261320D02*
D03*
X257141D02*
D03*
X252961D02*
D03*
X248781D02*
D03*
X244602D02*
D03*
X240423D02*
D03*
X236243D02*
D03*
X232064D02*
D03*
X227884D02*
D03*
X269679Y175768D02*
D03*
X223705D02*
D03*
X227884D02*
D03*
X232064D02*
D03*
X236243D02*
D03*
X240423D02*
D03*
X244602D02*
D03*
X248781D02*
D03*
X252961D02*
D03*
X257141D02*
D03*
X261320D02*
D03*
X265499D02*
D03*
D42*
X298958Y33911D02*
D03*
Y18412D02*
D03*
M02*
