G04*
G04 #@! TF.GenerationSoftware,Altium Limited,Altium Designer,24.6.1 (21)*
G04*
G04 Layer_Physical_Order=3*
G04 Layer_Color=8978557*
%FSLAX44Y44*%
%MOMM*%
G71*
G04*
G04 #@! TF.SameCoordinates,46D9000B-954F-446C-B998-76B77EA3697B*
G04*
G04*
G04 #@! TF.FilePolarity,Positive*
G04*
G01*
G75*
%ADD17C,0.1500*%
%ADD68C,1.5240*%
%ADD69C,0.3500*%
%ADD70C,0.4500*%
%ADD71C,0.4000*%
G36*
X166401Y270186D02*
X197581Y269160D01*
X198812Y268983D01*
X198876Y268957D01*
X200111Y269007D01*
X211446Y268012D01*
X211447Y268012D01*
X211449Y268012D01*
X234281Y266065D01*
X234376Y266049D01*
X235530Y265819D01*
X236776Y265679D01*
X279492Y256383D01*
X279622Y256346D01*
X280805Y255994D01*
D01*
X282025Y255695D01*
X293194Y252050D01*
X293249Y252032D01*
X294335Y251590D01*
X294335Y251590D01*
X294373Y251574D01*
X295546Y251237D01*
X296745Y250800D01*
X298459Y250175D01*
X298475Y250104D01*
Y250104D01*
X298683Y250017D01*
X299466Y249362D01*
X301584Y247250D01*
X301598Y247217D01*
X301875Y241250D01*
X301876Y241210D01*
X301756Y240037D01*
X301905Y239084D01*
X301943Y238804D01*
X301955Y237503D01*
X301982Y234625D01*
X301998Y234548D01*
X301989Y234470D01*
X302090Y234109D01*
X302167Y233741D01*
X302211Y233676D01*
X302232Y233601D01*
X304334Y229452D01*
X304384Y229389D01*
X304410Y229314D01*
X304661Y229036D01*
X304892Y228742D01*
X304961Y228703D01*
X305015Y228643D01*
X305353Y228482D01*
X305679Y228299D01*
X305758Y228289D01*
X305830Y228255D01*
X313071Y226421D01*
X313389Y226404D01*
X313704Y226351D01*
X326263Y226701D01*
X327472Y226566D01*
X328192Y226677D01*
X328696Y226751D01*
X330010Y226768D01*
X332604Y226800D01*
X333014Y226631D01*
X333030Y226637D01*
X333045Y226646D01*
X336648Y224693D01*
X337422Y220320D01*
X337292Y220165D01*
Y220165D01*
X337290Y220163D01*
X337374Y219961D01*
X337463Y218740D01*
X337395Y189733D01*
X337395Y189731D01*
X337395Y189730D01*
X337396Y15497D01*
Y-4405D01*
X337329Y-5332D01*
X337299Y-5357D01*
X337133Y-5629D01*
X336307Y-6408D01*
X324179Y-14463D01*
X324128Y-14492D01*
X323067Y-15077D01*
X323067Y-15077D01*
X321996Y-15714D01*
X320966Y-16224D01*
X307676Y-22810D01*
X307579Y-22771D01*
X307471Y-22816D01*
X306329Y-23325D01*
X294292Y-27809D01*
X293102Y-28252D01*
X291968Y-28582D01*
X291052Y-28916D01*
X290773Y-29017D01*
X278437Y-32537D01*
X277267Y-32769D01*
X277266Y-32768D01*
X276353Y-33045D01*
X276048Y-33135D01*
X274806Y-33402D01*
X271861Y-34036D01*
X247055D01*
Y-19738D01*
X246738Y-18973D01*
X245973Y-18656D01*
X233472D01*
X232707Y-18973D01*
X232390Y-19738D01*
Y-34036D01*
X205653D01*
X204458Y-32574D01*
X204396Y-32523D01*
X204354Y-32455D01*
X204050Y-32237D01*
X203761Y-31999D01*
X203685Y-31976D01*
X203619Y-31929D01*
X198188Y-29473D01*
X198152Y-29464D01*
X198120Y-29443D01*
X197713Y-29362D01*
X197309Y-29268D01*
X197272Y-29274D01*
X197235Y-29267D01*
X139619D01*
X139186Y-29353D01*
X138751Y-29436D01*
X133220Y-31671D01*
X133133Y-31728D01*
X133033Y-31756D01*
X132758Y-31974D01*
X132465Y-32166D01*
X132407Y-32252D01*
X132325Y-32317D01*
X130862Y-34036D01*
X118152D01*
X117626Y-32766D01*
X117817Y-32575D01*
X118312Y-31381D01*
Y-30087D01*
X117817Y-28893D01*
X116903Y-27979D01*
X115709Y-27484D01*
X114416D01*
X113221Y-27979D01*
X112307Y-28893D01*
X111812Y-30087D01*
Y-31381D01*
X112307Y-32575D01*
X112498Y-32766D01*
X111972Y-34036D01*
X107549D01*
Y-19738D01*
X107232Y-18973D01*
X106466Y-18655D01*
X93966D01*
X93200Y-18973D01*
X92883Y-19738D01*
Y-34036D01*
X74943D01*
X56376Y-30333D01*
X56227Y-30294D01*
X55039Y-29960D01*
Y-29960D01*
X53836Y-29648D01*
X29447Y-21300D01*
X28479Y-20956D01*
X28449Y-20881D01*
X28282Y-20811D01*
X27171Y-20297D01*
X12484Y-12455D01*
X11453Y-11782D01*
X11267Y-11705D01*
X10263Y-11011D01*
X5886Y-7594D01*
X4998Y-6734D01*
X4971Y-6669D01*
X4880Y-6631D01*
X4084Y-5939D01*
X4046Y-5897D01*
X247Y-1661D01*
X177Y-1493D01*
X-0Y210D01*
X50Y1361D01*
X-1Y1483D01*
Y1483D01*
X-99Y1574D01*
X-95Y2402D01*
X333Y17073D01*
X315Y17180D01*
X329Y17287D01*
X-157Y24956D01*
X-205Y25136D01*
X-210Y25323D01*
X-1310Y30152D01*
X-1438Y31368D01*
X-1544Y31622D01*
X-1614Y32824D01*
Y64494D01*
X-1597Y65669D01*
X-1438Y66052D01*
X-1423Y66066D01*
X-512Y66888D01*
X159Y67038D01*
X281Y66915D01*
X1475Y66421D01*
X2768D01*
X3963Y66915D01*
X4877Y67830D01*
X5372Y69024D01*
Y70317D01*
X4877Y71512D01*
X3963Y72426D01*
X2768Y72920D01*
X2284D01*
X1631Y73609D01*
X1334Y74132D01*
X1358Y74289D01*
X1441Y74620D01*
X1642Y78542D01*
X1633Y78604D01*
X1645Y78666D01*
X1542Y117867D01*
X1841Y118142D01*
X2810Y118590D01*
X3672Y118234D01*
X4965D01*
X5021Y118257D01*
X5921Y117358D01*
Y114661D01*
X6057Y113979D01*
X6443Y113400D01*
X23847Y95996D01*
X24426Y95609D01*
X25109Y95474D01*
X31913D01*
X32165Y94204D01*
X31344Y93863D01*
X30430Y92949D01*
X29567Y93393D01*
X29527Y93433D01*
X28333Y93928D01*
X27039D01*
X25845Y93433D01*
X24931Y92519D01*
X24436Y91325D01*
Y90031D01*
X24931Y88837D01*
X25845Y87923D01*
X27039Y87428D01*
X28333D01*
X29527Y87923D01*
X30441Y88837D01*
X31304Y88393D01*
X31344Y88353D01*
X32539Y87858D01*
X33832D01*
X34962Y87152D01*
X35297Y86343D01*
X36211Y85428D01*
X37406Y84934D01*
X38699D01*
X39335Y85197D01*
X40698Y85225D01*
X41612Y84310D01*
X42807Y83816D01*
X44100D01*
X45294Y84310D01*
X46209Y85225D01*
X46703Y86419D01*
Y87712D01*
X46209Y88907D01*
X45294Y89821D01*
X44385Y90197D01*
X44021Y91128D01*
X43977Y91586D01*
X44554Y92163D01*
X45349Y92958D01*
X54128D01*
X54404Y92545D01*
Y91351D01*
X54861Y90249D01*
X55705Y89405D01*
X56807Y88948D01*
X58001D01*
X59103Y89405D01*
X59947Y90249D01*
X60404Y91351D01*
Y92545D01*
X60356Y92660D01*
X61205Y93930D01*
X67040D01*
X68207Y92762D01*
X68786Y92375D01*
X69469Y92240D01*
X75402D01*
X75696Y91877D01*
X76091Y90970D01*
X75712Y90055D01*
Y88762D01*
X76207Y87567D01*
X76343Y87431D01*
X76045Y85933D01*
X75895Y85871D01*
X75051Y85027D01*
X74594Y83924D01*
Y82731D01*
X75051Y81628D01*
X75895Y80784D01*
X76997Y80328D01*
X78191D01*
X79293Y80784D01*
X80137Y81628D01*
X80594Y82731D01*
Y83924D01*
X80146Y85006D01*
X80138Y85029D01*
X80452Y86508D01*
X80803Y86653D01*
X81717Y87567D01*
X82212Y88762D01*
Y88896D01*
X82557Y89188D01*
X83482Y89520D01*
X83764Y89332D01*
X84447Y89196D01*
X101360D01*
X102125Y87926D01*
X101933Y87465D01*
Y86271D01*
X102390Y85169D01*
X103234Y84325D01*
X104337Y83868D01*
X105530D01*
X106633Y84325D01*
X107477Y85169D01*
X107934Y86271D01*
Y87465D01*
X107743Y87926D01*
X108108Y88734D01*
X108476Y89228D01*
X108999Y89332D01*
X109578Y89719D01*
X111914Y92055D01*
X112301Y92634D01*
X112437Y93317D01*
Y96653D01*
X112301Y97336D01*
X111914Y97914D01*
X111126Y98702D01*
X111612Y99876D01*
X114825D01*
X115508Y100012D01*
X116086Y100398D01*
X119493Y103805D01*
X120934Y103490D01*
X120977Y103445D01*
X121085Y103184D01*
X121858Y102411D01*
X121874Y102404D01*
X122172Y100906D01*
X120150Y98884D01*
X119763Y98305D01*
X119628Y97622D01*
Y95670D01*
X118464Y94507D01*
X118077Y93928D01*
X117942Y93245D01*
Y88780D01*
X110984Y81823D01*
X110682Y81371D01*
X110558Y81228D01*
X109238Y80700D01*
X108674Y80933D01*
X107382D01*
X106187Y80438D01*
X105273Y79524D01*
X104030Y79843D01*
X103227Y80176D01*
X101934D01*
X100739Y79681D01*
X99825Y78767D01*
X99331Y77572D01*
Y76280D01*
X99825Y75085D01*
X100739Y74171D01*
X101934Y73676D01*
X102836D01*
X103549Y73133D01*
X103881Y72572D01*
Y71587D01*
X104011Y71272D01*
X103163Y70002D01*
X98127D01*
X96883Y71246D01*
X96304Y71632D01*
X95622Y71768D01*
X80906D01*
X80223Y71632D01*
X79644Y71246D01*
X71651Y63252D01*
X23876D01*
X23193Y63116D01*
X22614Y62730D01*
X15723Y55838D01*
X11334D01*
X10486Y57108D01*
X10616Y57424D01*
Y58716D01*
X10121Y59911D01*
X9207Y60825D01*
X8012Y61320D01*
X6719D01*
X5525Y60825D01*
X4611Y59911D01*
X4116Y58716D01*
Y57424D01*
X4290Y57004D01*
X4262Y55883D01*
X3710Y55337D01*
X3679Y55316D01*
X3679Y55316D01*
X3679Y55316D01*
X1327Y52963D01*
X1086Y52603D01*
X940Y52385D01*
Y52385D01*
X940Y52384D01*
X868Y52021D01*
X804Y51702D01*
Y28146D01*
X940Y27463D01*
X1327Y26885D01*
X15569Y12641D01*
X15546Y12585D01*
Y11292D01*
X16041Y10097D01*
X16955Y9183D01*
X18149Y8688D01*
X19442D01*
X20637Y9183D01*
X21551Y10097D01*
X22046Y11292D01*
Y12585D01*
X21551Y13779D01*
X20637Y14693D01*
X19442Y15188D01*
X18149D01*
X18093Y15165D01*
X4372Y28885D01*
Y46070D01*
X5643Y46919D01*
X5957Y46788D01*
X7250D01*
X8445Y47283D01*
X9359Y48197D01*
X9383Y48254D01*
X18788D01*
X19314Y46984D01*
X11870Y39539D01*
X11813Y39563D01*
X10520D01*
X9326Y39068D01*
X8412Y38154D01*
X7917Y36959D01*
Y35666D01*
X8412Y34472D01*
X9326Y33558D01*
X10520Y33063D01*
X11580D01*
X11687Y32978D01*
X12018Y32556D01*
X12287Y31890D01*
X12122Y31698D01*
X11037D01*
X9843Y31203D01*
X8929Y30289D01*
X8434Y29095D01*
Y27801D01*
X8929Y26607D01*
X9843Y25693D01*
X11037Y25198D01*
X12330D01*
X13525Y25693D01*
X14439Y26607D01*
X14934Y27801D01*
Y28917D01*
X38153Y52136D01*
X75516D01*
X76199Y52272D01*
X76778Y52658D01*
X81771Y57652D01*
X83856D01*
X85849Y55658D01*
X86428Y55272D01*
X87111Y55136D01*
X97673D01*
X98356Y55272D01*
X98934Y55658D01*
X100928Y57652D01*
X108098D01*
X108103Y57649D01*
X108815Y56382D01*
X108579Y55992D01*
X107797Y55669D01*
X106883Y54754D01*
X106388Y53560D01*
Y52267D01*
X106883Y51072D01*
X107797Y50158D01*
X108992Y49663D01*
X110285D01*
X111479Y50158D01*
X112393Y51072D01*
X112888Y52267D01*
Y53560D01*
X112633Y54176D01*
X113690Y55234D01*
X114077Y55812D01*
X114213Y56495D01*
Y56817D01*
X123508Y66112D01*
X123610Y66265D01*
X124804D01*
X125999Y66760D01*
X126913Y67674D01*
X127408Y68868D01*
Y70161D01*
X126913Y71356D01*
X125999Y72270D01*
X126395Y73481D01*
X126670Y74145D01*
Y75339D01*
X126213Y76441D01*
X125369Y77285D01*
X125270Y77326D01*
X124972Y78824D01*
X128345Y82197D01*
X132169D01*
X132851Y82333D01*
X133430Y82720D01*
X142216Y91506D01*
X144807D01*
X145363Y90673D01*
Y89380D01*
X145858Y88185D01*
X146034Y88009D01*
X145228Y87073D01*
X145013Y87162D01*
X144217Y87492D01*
X143123D01*
X142112Y87073D01*
X141339Y86300D01*
X140920Y85289D01*
Y84195D01*
X141339Y83184D01*
X142112Y82411D01*
X143123Y81992D01*
X144217D01*
X145228Y82411D01*
X146001Y83184D01*
X146420Y84195D01*
Y85289D01*
X146053Y86175D01*
X146001Y86300D01*
X145982Y86353D01*
X146772Y87271D01*
X146995Y87179D01*
X147967Y86776D01*
X149260D01*
X150454Y87271D01*
X151369Y88185D01*
X151863Y89380D01*
Y90673D01*
X151369Y91867D01*
X151130Y92106D01*
X151568Y93416D01*
X152366Y93525D01*
X158011Y87880D01*
X157882Y86791D01*
X156661Y86496D01*
X156244Y86913D01*
X155233Y87332D01*
X154139D01*
X153128Y86913D01*
X152355Y86140D01*
X151936Y85129D01*
Y84035D01*
X152169Y83471D01*
X152112Y82073D01*
X151339Y81299D01*
X150920Y80289D01*
Y79195D01*
X151339Y78184D01*
X151451Y78072D01*
X152001Y77242D01*
X151451Y76412D01*
X151339Y76300D01*
X150920Y75289D01*
Y74195D01*
X151339Y73184D01*
X152112Y72411D01*
X152164Y71026D01*
X152091Y70872D01*
X143044D01*
X142361Y70736D01*
X141782Y70350D01*
X138892Y67460D01*
X138506Y66881D01*
X138370Y66199D01*
Y63286D01*
X138506Y62603D01*
X138892Y62024D01*
X146044Y54872D01*
X146623Y54486D01*
X147306Y54350D01*
X162875D01*
X166218Y51007D01*
X165920Y49509D01*
X165604Y49379D01*
X164690Y48465D01*
X164195Y47270D01*
Y45977D01*
X164690Y44783D01*
X165604Y43868D01*
X166494Y43500D01*
X166524Y43386D01*
X165582Y42116D01*
X165377D01*
X164151Y42983D01*
X163935Y43505D01*
X163021Y44419D01*
X161826Y44914D01*
X160534D01*
X159339Y44419D01*
X158425Y43505D01*
X157930Y42310D01*
Y41017D01*
X158425Y39823D01*
X159339Y38909D01*
X160534Y38414D01*
X161826D01*
X162632Y38748D01*
X162974Y38519D01*
X163431Y37417D01*
X164275Y36573D01*
X165377Y36116D01*
X166571D01*
X167673Y36573D01*
X168290Y37190D01*
X169736Y37539D01*
X180025Y27251D01*
X180604Y26864D01*
X181287Y26728D01*
X192469D01*
X193136Y25458D01*
X192838Y24738D01*
Y23445D01*
X193333Y22251D01*
X194247Y21337D01*
X195441Y20842D01*
X196735D01*
X197929Y21337D01*
X198843Y22251D01*
X199338Y23445D01*
Y24738D01*
X199040Y25458D01*
X199707Y26728D01*
X230833D01*
X230848Y26718D01*
X231530Y26583D01*
X236942D01*
X237624Y26718D01*
X237639Y26728D01*
X246600D01*
X257528Y15800D01*
X258107Y15414D01*
X258790Y15278D01*
X263367D01*
X264049Y15414D01*
X264628Y15800D01*
X272600Y23772D01*
X273991Y23367D01*
X274035Y23170D01*
X273537Y21968D01*
Y21858D01*
X273475Y21765D01*
X273385Y21311D01*
X273175Y20424D01*
X273064Y20154D01*
X273064Y19197D01*
X273334Y18162D01*
X273341Y18130D01*
X273475Y17490D01*
X273499Y17455D01*
X273535Y17295D01*
X273537Y17287D01*
X273719Y16847D01*
X274035Y16085D01*
X274113Y16007D01*
X274135Y15898D01*
X274231Y15754D01*
X274873Y14784D01*
X275003Y14504D01*
X275042Y14409D01*
X275042Y14409D01*
X275295Y14157D01*
X275546Y13904D01*
X275547Y13904D01*
X275573Y13893D01*
X276076Y13598D01*
X277158Y12875D01*
X277266Y12854D01*
X277345Y12775D01*
X278547Y12278D01*
X278657D01*
X278750Y12216D01*
X280026Y11962D01*
X280591Y11804D01*
X280970D01*
X281749Y11962D01*
X282195Y12051D01*
X283025Y12216D01*
X283117Y12278D01*
X283228D01*
X284429Y12775D01*
X284508Y12854D01*
X284617Y12875D01*
X285698Y13598D01*
X285760Y13690D01*
X285862Y13733D01*
X286782Y14653D01*
X286825Y14755D01*
X286917Y14817D01*
X287640Y15898D01*
X287661Y16007D01*
X287740Y16085D01*
X288237Y17287D01*
Y17398D01*
X288299Y17490D01*
X288553Y18766D01*
X288531Y18875D01*
X288574Y18977D01*
Y20278D01*
X288531Y20381D01*
X288553Y20489D01*
X288299Y21765D01*
X288237Y21858D01*
Y21968D01*
X287740Y23170D01*
X287661Y23249D01*
X287640Y23357D01*
X287136Y24111D01*
X286917Y24439D01*
X286445Y25126D01*
X286438Y25141D01*
X286438Y25141D01*
X286325Y25252D01*
X286214Y25365D01*
X286214Y25365D01*
X286186Y25377D01*
X285698Y25657D01*
X285224Y25975D01*
X285011Y27475D01*
X285018Y27494D01*
X285039Y27530D01*
X297194Y39685D01*
X297581Y40264D01*
X297717Y40947D01*
Y62951D01*
X298987Y63800D01*
X299092Y63756D01*
X300285D01*
X301388Y64213D01*
X302232Y65057D01*
X302689Y66160D01*
Y67353D01*
X302232Y68456D01*
X301388Y69300D01*
X300285Y69756D01*
X299092D01*
X298987Y69713D01*
X297717Y70562D01*
Y86510D01*
X298987Y86915D01*
X299545Y86357D01*
X300647Y85900D01*
X301841D01*
X302943Y86357D01*
X303200Y86614D01*
X304779Y86529D01*
X305247Y85942D01*
X305152Y85088D01*
X304925Y84861D01*
X304430Y83667D01*
Y82374D01*
X304925Y81179D01*
X305839Y80265D01*
X307034Y79770D01*
X308327D01*
X309521Y80265D01*
X310436Y81179D01*
X310930Y82374D01*
Y83667D01*
X310436Y84861D01*
X310615Y86478D01*
X310842Y86704D01*
X311337Y87899D01*
Y89192D01*
X311342Y89200D01*
X312391D01*
X313402Y89619D01*
X314175Y90392D01*
X314594Y91403D01*
Y92497D01*
X314175Y93508D01*
X313402Y94281D01*
X312391Y94700D01*
X311297D01*
X310454Y95665D01*
X310479Y97003D01*
X311393Y97918D01*
X311888Y99112D01*
Y100405D01*
X311877Y100431D01*
X312391Y101200D01*
X313402Y101619D01*
X314175Y102392D01*
X314594Y103403D01*
Y104497D01*
X314175Y105508D01*
X314080Y106691D01*
X314366Y106976D01*
X316103Y108714D01*
X319016D01*
X319542Y107444D01*
X319357Y107259D01*
X318863Y106065D01*
Y104771D01*
X319357Y103577D01*
X320272Y102663D01*
X321466Y102168D01*
X322759D01*
X323954Y102663D01*
X324868Y103577D01*
X325363Y104771D01*
Y106065D01*
X324868Y107259D01*
X323954Y108173D01*
X323905Y108193D01*
X323508Y109507D01*
X323550Y109583D01*
X324310Y110391D01*
X325287D01*
X326482Y110885D01*
X327396Y111800D01*
X327891Y112994D01*
Y114287D01*
X327396Y115482D01*
X326482Y116396D01*
X325287Y116891D01*
X323994D01*
X322937Y117827D01*
X322706Y118385D01*
X321792Y119300D01*
X320598Y119794D01*
X319305D01*
X318110Y119300D01*
X317196Y118385D01*
X316701Y117191D01*
Y115898D01*
X317196Y114703D01*
X318110Y113789D01*
X318682Y113552D01*
X318429Y112282D01*
X315364D01*
X314682Y112147D01*
X314103Y111760D01*
X312080Y109736D01*
X310874D01*
X310191Y109601D01*
X309612Y109214D01*
X307066Y106668D01*
X306679Y106089D01*
X306658Y105981D01*
X295094Y94418D01*
X293824Y94944D01*
Y99247D01*
X293689Y99930D01*
X293302Y100509D01*
X290598Y103212D01*
X290640Y103588D01*
X291249Y104696D01*
X292443D01*
X293545Y105153D01*
X294389Y105997D01*
X294846Y107099D01*
Y108293D01*
X294389Y109395D01*
X293545Y110239D01*
X292443Y110696D01*
X292082Y111451D01*
Y116869D01*
Y169444D01*
X291947Y170127D01*
X291560Y170706D01*
X284866Y177399D01*
X285585Y178476D01*
X285865Y178360D01*
X287159D01*
X288353Y178855D01*
X289267Y179769D01*
X289762Y180963D01*
Y182257D01*
X289267Y183451D01*
X288353Y184365D01*
X287159Y184860D01*
X285865D01*
X284671Y184365D01*
X283757Y183451D01*
X283262Y182257D01*
Y180963D01*
X283378Y180683D01*
X282301Y179964D01*
X277964Y184302D01*
Y186418D01*
X277828Y187101D01*
X277441Y187679D01*
X263845Y201275D01*
Y202506D01*
X263709Y203188D01*
X263323Y203767D01*
X254697Y212393D01*
Y214524D01*
X254561Y215206D01*
X254174Y215785D01*
X250347Y219612D01*
X249768Y219999D01*
X249086Y220135D01*
X246955D01*
X241167Y225923D01*
X240588Y226309D01*
X239905Y226445D01*
X236124D01*
X234130Y228439D01*
X233551Y228826D01*
X232868Y228962D01*
X227457D01*
X226774Y228826D01*
X226195Y228439D01*
X222369Y224613D01*
X221982Y224034D01*
X221846Y223351D01*
Y219796D01*
X221845Y219792D01*
Y208831D01*
X220069Y207054D01*
X219682Y206476D01*
X219546Y205793D01*
Y183388D01*
X219682Y182705D01*
X220069Y182126D01*
X221845Y180350D01*
Y176112D01*
X218889Y173155D01*
X218832Y173179D01*
X217540D01*
X216345Y172684D01*
X215832Y172171D01*
X214524Y171924D01*
X214213Y172208D01*
X213817Y173396D01*
X213944Y173703D01*
Y174996D01*
X213450Y176191D01*
X212535Y177105D01*
X211341Y177600D01*
X210048D01*
X208854Y177105D01*
X207939Y176191D01*
X207444Y174996D01*
Y173703D01*
X207939Y172509D01*
X208853Y171595D01*
X209357Y170084D01*
X209230Y169777D01*
Y168484D01*
X209724Y167290D01*
X210639Y166375D01*
X211833Y165881D01*
X213126D01*
X214321Y166375D01*
X214834Y166889D01*
X216345Y167174D01*
X217540Y166679D01*
X218832D01*
X219121Y166799D01*
X219841Y165722D01*
X215956Y161838D01*
X215569Y161259D01*
X215434Y160576D01*
Y154057D01*
X212464Y151087D01*
X211034Y151295D01*
X210420Y152363D01*
X210889Y153072D01*
X211001Y153184D01*
X211420Y154195D01*
Y155289D01*
X211001Y156300D01*
X210228Y157073D01*
X209217Y157492D01*
X208123D01*
X207112Y157073D01*
X207000Y156960D01*
X206170Y156411D01*
X205340Y156960D01*
X205228Y157073D01*
X204217Y157492D01*
X203123D01*
X202112Y157073D01*
X202000Y156961D01*
X201170Y156411D01*
X200340Y156961D01*
X200228Y157073D01*
X199217Y157492D01*
X198123D01*
X197112Y157073D01*
X197000Y156960D01*
X196170Y156411D01*
X195340Y156960D01*
X195228Y157073D01*
X194217Y157492D01*
X193123D01*
X192112Y157073D01*
X192000Y156961D01*
X191170Y156411D01*
X190340Y156961D01*
X190228Y157073D01*
X189217Y157492D01*
X188123D01*
X187113Y157073D01*
X187000Y156960D01*
X186170Y156411D01*
X185340Y156960D01*
X185228Y157073D01*
X184217Y157492D01*
X183123D01*
X182112Y157073D01*
X182000Y156961D01*
X181170Y156411D01*
X180340Y156961D01*
X180228Y157073D01*
X179217Y157492D01*
X178123D01*
X177113Y157073D01*
X177000Y156960D01*
X176170Y156411D01*
X175340Y156960D01*
X175228Y157073D01*
X174217Y157492D01*
X173123D01*
X172112Y157073D01*
X172000Y156961D01*
X171170Y156411D01*
X170340Y156961D01*
X170228Y157073D01*
X169217Y157492D01*
X168123D01*
X167113Y157073D01*
X167000Y156960D01*
X166291Y156491D01*
X165223Y157106D01*
X165015Y158536D01*
X171630Y165151D01*
X172016Y165729D01*
X173309Y166107D01*
X173521Y166053D01*
X174435Y165139D01*
X175630Y164644D01*
X176922D01*
X178117Y165139D01*
X178478Y165500D01*
X179137Y166000D01*
X180137Y165500D01*
X180336Y165302D01*
X181530Y164807D01*
X182823D01*
X184017Y165302D01*
X185584Y165072D01*
X185831Y164825D01*
X187026Y164331D01*
X188318D01*
X189513Y164825D01*
X189760Y165072D01*
X191327Y165302D01*
X192521Y164807D01*
X193814D01*
X195009Y165302D01*
X195923Y166216D01*
X196418Y167411D01*
Y168703D01*
X195923Y169898D01*
X195009Y170812D01*
X193814Y171307D01*
X192521D01*
X191327Y170812D01*
X191080Y170565D01*
X189513Y170336D01*
X188318Y170830D01*
X187026D01*
X185831Y170336D01*
X184264Y170565D01*
X184017Y170812D01*
X182823Y171307D01*
X181530D01*
X180336Y170812D01*
X179974Y170451D01*
X179315Y169951D01*
X178315Y170451D01*
X178117Y170649D01*
X176922Y171144D01*
X175630D01*
X175194Y170964D01*
X173697Y171259D01*
X172783Y172173D01*
X171588Y172668D01*
X170296D01*
X169101Y172173D01*
X168406Y171478D01*
X167500Y170588D01*
X166305Y171083D01*
X165012D01*
X163818Y170588D01*
X162904Y169674D01*
X162409Y168479D01*
Y167187D01*
X162432Y167130D01*
X156376Y161074D01*
X155990Y160495D01*
X155854Y159812D01*
Y158107D01*
X154584Y157340D01*
X154217Y157492D01*
X153123D01*
X152673Y157815D01*
X152578Y158983D01*
X152965Y159562D01*
X153101Y160245D01*
Y163891D01*
X153803Y164279D01*
X154371Y164484D01*
X155359Y164074D01*
X156553D01*
X157655Y164531D01*
X158499Y165375D01*
X158956Y166477D01*
Y167671D01*
X158931Y167732D01*
X158932Y167742D01*
X159139Y168360D01*
X159703Y168977D01*
X159873Y169136D01*
X160088Y169225D01*
X181710Y190847D01*
X181792Y191046D01*
X181945Y191199D01*
Y191414D01*
X182027Y191613D01*
X181945Y191812D01*
Y192027D01*
X181459Y193200D01*
X181306Y193352D01*
X181224Y193551D01*
X181025Y193634D01*
X180873Y193786D01*
X180658D01*
X180459Y193868D01*
X171062D01*
X170746Y194184D01*
X169735Y194603D01*
X168641D01*
X167630Y194184D01*
X167314Y193868D01*
X151854D01*
X151844Y193864D01*
X151718Y193932D01*
X151332Y194510D01*
X150645Y195198D01*
Y198129D01*
X151915Y198978D01*
X152029Y198930D01*
X153223D01*
X154326Y199387D01*
X155169Y200231D01*
X155626Y201333D01*
Y202527D01*
X155169Y203629D01*
X154326Y204473D01*
X153223Y204930D01*
X152029D01*
X151223Y205850D01*
X151144Y206828D01*
X152620Y208303D01*
X152960D01*
X153241Y208023D01*
X154343Y207566D01*
X155537D01*
X156639Y208023D01*
X157483Y208867D01*
X157940Y209969D01*
Y211163D01*
X157483Y212265D01*
X156639Y213109D01*
X156522Y213699D01*
X156633Y213810D01*
X157090Y214913D01*
Y216106D01*
X156633Y217209D01*
X155789Y218053D01*
X154687Y218509D01*
X153493D01*
X152391Y218053D01*
X151547Y217209D01*
X151090Y216106D01*
Y215378D01*
X147738Y212026D01*
X146564Y212512D01*
Y218463D01*
X165793Y237692D01*
X166914D01*
X167597Y237828D01*
X168176Y238215D01*
X173457Y243496D01*
X174955Y243198D01*
X175003Y243083D01*
X175847Y242239D01*
X176949Y241782D01*
X178143D01*
X179245Y242239D01*
X180089Y243083D01*
X180546Y244185D01*
Y245379D01*
X180089Y246481D01*
X180012Y246559D01*
X180538Y247829D01*
X182093D01*
X182776Y247965D01*
X183354Y248352D01*
X193492Y258489D01*
X193878Y259068D01*
X194014Y259750D01*
Y263078D01*
X193878Y263760D01*
X193492Y264339D01*
X191139Y266692D01*
X190560Y267078D01*
X189877Y267214D01*
X159266D01*
X158583Y267078D01*
X158005Y266692D01*
X121951Y230638D01*
X94790D01*
X94031Y231397D01*
X92928Y231854D01*
X91735D01*
X90632Y231397D01*
X89788Y230553D01*
X89332Y229451D01*
Y228257D01*
X89788Y227155D01*
X90632Y226311D01*
X91735Y225854D01*
X92928D01*
X94031Y226311D01*
X94790Y227070D01*
X122690D01*
X123373Y227206D01*
X123952Y227592D01*
X160005Y263646D01*
X178808D01*
X179334Y262376D01*
X173751Y256792D01*
X173531Y256464D01*
X172492Y256213D01*
X172069Y256213D01*
X171661Y256621D01*
X170466Y257116D01*
X169173D01*
X167979Y256621D01*
X167065Y255707D01*
X166570Y254513D01*
Y253220D01*
X167065Y252025D01*
X167979Y251111D01*
X168129Y250358D01*
X139708Y221938D01*
X139321Y221359D01*
X139186Y220676D01*
Y210590D01*
X134475Y205880D01*
X134088Y205301D01*
X133952Y204618D01*
Y174318D01*
X133937Y174308D01*
X132682Y173929D01*
X132110Y174501D01*
X131007Y174958D01*
X129814D01*
X128711Y174501D01*
X128709Y174499D01*
X128175Y174576D01*
X127259Y175685D01*
Y176978D01*
X126765Y178172D01*
X125850Y179087D01*
X124656Y179581D01*
X123363D01*
X122168Y179087D01*
X121254Y178172D01*
X120759Y176978D01*
Y175685D01*
X121038Y175012D01*
X120343Y173742D01*
X45697D01*
X36761Y182678D01*
Y183793D01*
X36625Y184476D01*
X36239Y185055D01*
X27649Y193645D01*
X27672Y193701D01*
Y194994D01*
X27177Y196189D01*
X26263Y197103D01*
X26210Y197125D01*
X25963Y198370D01*
X29434Y201842D01*
X30001D01*
X30684Y201977D01*
X31263Y202364D01*
X53078Y224179D01*
X53464Y224758D01*
X53600Y225440D01*
Y243160D01*
X54359Y243919D01*
X54816Y245021D01*
Y246215D01*
X54359Y247317D01*
X53515Y248161D01*
X52413Y248618D01*
X51219D01*
X50117Y248161D01*
X49273Y247317D01*
X48816Y246215D01*
Y245021D01*
X49273Y243919D01*
X50032Y243160D01*
Y226179D01*
X29262Y205410D01*
X28695D01*
X28675Y205406D01*
X28224Y205590D01*
X27873Y205926D01*
X27608Y206393D01*
X27636Y206499D01*
Y206900D01*
X27478Y207618D01*
X27378Y208120D01*
X27224Y208894D01*
X27162Y208986D01*
Y209097D01*
X26664Y210298D01*
X26586Y210377D01*
X26564Y210485D01*
X26129Y211137D01*
X25842Y211567D01*
X25463Y212158D01*
X25455Y212177D01*
X25455Y212177D01*
X25351Y212279D01*
X25249Y212383D01*
X25249Y212383D01*
X25231Y212391D01*
X24623Y212786D01*
X24210Y213062D01*
X23542Y213508D01*
X23433Y213530D01*
X23354Y213608D01*
X22153Y214106D01*
X22042D01*
X21950Y214168D01*
X21191Y214319D01*
X20674Y214422D01*
X19972Y214580D01*
X19634D01*
X18950Y214422D01*
X18416Y214315D01*
X17674Y214168D01*
X17582Y214106D01*
X17471D01*
X16270Y213608D01*
X16191Y213530D01*
X16082Y213508D01*
X15428Y213071D01*
X15001Y212786D01*
X14406Y212404D01*
X14388Y212396D01*
X14388Y212396D01*
X14264Y212271D01*
X14139Y212147D01*
X14139Y212147D01*
X14130Y212126D01*
X13782Y211567D01*
X13472Y211103D01*
X13060Y210485D01*
X13038Y210377D01*
X12960Y210298D01*
X12462Y209097D01*
Y208986D01*
X12400Y208894D01*
X12253Y208153D01*
X12146Y207618D01*
X11988Y206943D01*
Y206455D01*
X12146Y205894D01*
X12274Y205254D01*
X12400Y204618D01*
X12462Y204526D01*
Y204415D01*
X12960Y203214D01*
X13038Y203135D01*
X13060Y203026D01*
X13782Y201945D01*
X14046Y201475D01*
X14059Y201445D01*
X14059Y201445D01*
X14321Y201184D01*
X14582Y200922D01*
X14582Y200922D01*
X14656Y200891D01*
X14983Y200735D01*
X15573Y200344D01*
X15931Y200105D01*
X16083Y200004D01*
X16191Y199982D01*
X16270Y199904D01*
X17471Y199406D01*
X17582D01*
X17674Y199344D01*
X18199Y199240D01*
X19068Y199045D01*
X19131Y199021D01*
X19538Y198037D01*
X19592Y197698D01*
X19144Y197250D01*
X18758Y196672D01*
X18622Y195989D01*
Y186697D01*
X18758Y186014D01*
X19144Y185435D01*
X19863Y184717D01*
X19857Y184690D01*
X19240Y183544D01*
X18328D01*
X17134Y183049D01*
X16220Y182135D01*
X15725Y180940D01*
Y179647D01*
X16220Y178453D01*
X17134Y177539D01*
X18328Y177044D01*
X19621D01*
X20768Y177519D01*
X21216Y177311D01*
X21538Y177128D01*
X21896Y176823D01*
Y175631D01*
X22391Y174437D01*
X23305Y173522D01*
X24499Y173028D01*
X25793D01*
X26108Y173158D01*
X26326Y173135D01*
X27505Y172381D01*
X27513Y172339D01*
X27900Y171760D01*
X52744Y146916D01*
Y135369D01*
X52330Y135198D01*
X51416Y134284D01*
X50921Y133089D01*
Y131796D01*
X50476Y131130D01*
X36068D01*
X36068Y131130D01*
X35303Y130813D01*
X26159Y121669D01*
X25842Y120904D01*
Y112347D01*
X25924Y112148D01*
Y111933D01*
X26076Y111780D01*
X26159Y111581D01*
X26287Y111528D01*
X26421Y111435D01*
X26510Y111347D01*
X26608Y111306D01*
X27327Y110809D01*
X26972Y109953D01*
Y108759D01*
X26903Y108493D01*
X26197Y107311D01*
X25451Y107002D01*
X24537Y106088D01*
X24042Y104893D01*
Y103600D01*
X24537Y102406D01*
X25451Y101491D01*
X26646Y100997D01*
X27939D01*
X28109Y101067D01*
X29533Y100433D01*
X29618Y100198D01*
X28817Y99042D01*
X25848D01*
X13364Y111525D01*
X13662Y113023D01*
X13777Y113071D01*
X14621Y113915D01*
X15078Y115018D01*
Y116211D01*
X14621Y117314D01*
X13777Y118158D01*
X12675Y118614D01*
X11481D01*
X10726Y118302D01*
X9444Y118748D01*
X9294Y118869D01*
X8967Y119358D01*
X7545Y120781D01*
X7568Y120837D01*
Y122130D01*
X7073Y123325D01*
X7786Y124408D01*
X8379Y125002D01*
X8874Y126196D01*
Y127489D01*
X8379Y128684D01*
X7465Y129598D01*
X6270Y130093D01*
X4978D01*
X3783Y129598D01*
X2869Y128684D01*
X2809Y128541D01*
X1539Y128793D01*
X1540Y149569D01*
X1532Y149607D01*
X1539Y149646D01*
X1193Y160086D01*
X1096Y160502D01*
X1008Y160919D01*
X-249Y163861D01*
X-198Y163939D01*
X-198D01*
X-373Y164362D01*
Y197482D01*
X-240Y198697D01*
X-198Y198799D01*
X-42Y199560D01*
X174Y200002D01*
X176Y200005D01*
X213Y200094D01*
X796Y201122D01*
X1441Y202090D01*
X1608Y202496D01*
X1780Y202900D01*
X3013Y208797D01*
X3015Y209045D01*
X3062Y209290D01*
X2932Y224332D01*
X3007Y225330D01*
X3097Y225547D01*
X3092Y225558D01*
X3507Y226656D01*
X5126Y230327D01*
X8448Y230954D01*
X9381Y231047D01*
X9444Y230994D01*
X9459Y230988D01*
X10057Y231070D01*
X10480Y231123D01*
X10885Y231147D01*
X11977Y231134D01*
X27432Y230951D01*
X27439Y230952D01*
X27447Y230951D01*
X27471D01*
X27473Y230951D01*
X27475Y230951D01*
X33736Y230993D01*
X33933Y231033D01*
X34135Y231030D01*
X34371Y231124D01*
X34620Y231175D01*
X34787Y231288D01*
X34975Y231362D01*
X39424Y234231D01*
X39502Y234306D01*
X39597Y234354D01*
X39824Y234618D01*
X40073Y234859D01*
X40116Y234958D01*
X40186Y235039D01*
X40294Y235369D01*
X40432Y235688D01*
X40434Y235795D01*
X40468Y235897D01*
X40989Y240189D01*
X40978Y240330D01*
X41006Y240468D01*
Y244620D01*
X41020Y244750D01*
X41181Y245954D01*
X41181D01*
X41129Y246930D01*
X41287Y247745D01*
X41287Y247745D01*
X41506Y248948D01*
X42288Y251706D01*
X42312Y251716D01*
X42440Y252025D01*
X44914Y253939D01*
X45164Y254122D01*
X46201Y254778D01*
X47281Y255275D01*
X49535Y256144D01*
X49623Y256177D01*
X50665Y256497D01*
X50675Y256492D01*
X50675Y256492D01*
X50748Y256522D01*
X51843Y256943D01*
X51862Y256949D01*
X57951Y258820D01*
X59158Y259083D01*
X59159Y259083D01*
X60102Y259319D01*
X60522Y259411D01*
X61645Y259583D01*
X115256Y267825D01*
X116520Y267870D01*
D01*
X117725Y268064D01*
X117891Y268086D01*
X163947Y270170D01*
X163954Y270171D01*
X164333Y270138D01*
X165167Y270052D01*
X166003Y270149D01*
X166395Y270186D01*
X166401Y270186D01*
D02*
G37*
G36*
X180945Y191613D02*
X159322Y169990D01*
X159236Y170029D01*
X158939Y171529D01*
X159396Y172631D01*
Y173825D01*
X158939Y174927D01*
X158095Y175771D01*
X156993Y176228D01*
X155799D01*
X154697Y175771D01*
X154371Y175445D01*
X153101Y175972D01*
Y179394D01*
X152965Y180076D01*
X152578Y180655D01*
X151854Y181379D01*
Y192786D01*
X180459D01*
X180945Y191613D01*
D02*
G37*
G36*
X128711Y169415D02*
X129814Y168958D01*
X131007D01*
X132110Y169415D01*
X132682Y169987D01*
X133937Y169608D01*
X133952Y169598D01*
Y164974D01*
X128292Y159313D01*
X127905Y158735D01*
X127769Y158052D01*
Y138437D01*
X120076Y130744D01*
X118931Y131395D01*
X118834Y131881D01*
X118448Y132460D01*
X116388Y134520D01*
X115809Y134907D01*
X115126Y135042D01*
X98884D01*
X96696Y137230D01*
Y139213D01*
X96560Y139896D01*
X96174Y140475D01*
X94067Y142581D01*
X121660Y170174D01*
X127952D01*
X128711Y169415D01*
D02*
G37*
G36*
X93070Y137371D02*
X93128Y137284D01*
Y136491D01*
X93264Y135808D01*
X93650Y135229D01*
X96883Y131996D01*
X97462Y131610D01*
X98145Y131474D01*
X110036D01*
X110920Y130289D01*
Y129515D01*
X107394Y125990D01*
X106383Y126191D01*
X105539Y127035D01*
X104437Y127492D01*
X103243D01*
X102141Y127035D01*
X101297Y126191D01*
X100840Y125088D01*
Y123895D01*
X101297Y122792D01*
X101337Y122752D01*
X100811Y121482D01*
X98528D01*
X97845Y121346D01*
X97267Y120959D01*
X94032Y117725D01*
X93645Y117146D01*
X93510Y116463D01*
Y113344D01*
X93645Y112661D01*
X94032Y112082D01*
X94480Y111634D01*
Y107291D01*
X94602Y106680D01*
X94604Y106588D01*
X93890Y105410D01*
X85211D01*
X84826Y106680D01*
X84862Y106704D01*
X85249Y107283D01*
X85385Y107966D01*
Y114417D01*
X91277Y120309D01*
X91664Y120888D01*
X91800Y121571D01*
Y136649D01*
X92920Y137392D01*
X93070Y137371D01*
D02*
G37*
G36*
X52330Y129687D02*
X53525Y129193D01*
X54818D01*
X55813Y129605D01*
X56186Y129490D01*
X56639Y128147D01*
X56182Y127045D01*
Y125851D01*
X55435Y124872D01*
X54253Y124809D01*
X53625Y125437D01*
X52431Y125932D01*
X51137D01*
X49943Y125437D01*
X49029Y124523D01*
X48534Y123329D01*
Y122036D01*
X49029Y120841D01*
X49943Y119927D01*
X51137Y119432D01*
X52431D01*
X53625Y119927D01*
X54539Y120841D01*
X54563Y120898D01*
X64644D01*
X66723Y118818D01*
X67302Y118431D01*
X67985Y118295D01*
X82558D01*
X83044Y117122D01*
X82339Y116418D01*
X81952Y115839D01*
X81816Y115156D01*
Y107966D01*
X81952Y107283D01*
X82339Y106704D01*
X82375Y106680D01*
X81990Y105410D01*
X31603D01*
X31351Y106680D01*
X31671Y106813D01*
X32515Y107657D01*
X32972Y108759D01*
Y109953D01*
X32515Y111055D01*
X31671Y111899D01*
X30569Y112356D01*
X29375D01*
X28273Y111899D01*
X28194Y111821D01*
X26924Y112347D01*
Y120904D01*
X36068Y130048D01*
X51970D01*
X52330Y129687D01*
D02*
G37*
G36*
X247782Y126121D02*
X248361Y125734D01*
X249043Y125598D01*
X256163D01*
X256187Y125542D01*
X257101Y124627D01*
X258295Y124132D01*
X259588D01*
X260783Y124627D01*
X261697Y125542D01*
X262192Y126736D01*
Y128029D01*
X262225Y128079D01*
X263442D01*
X263888Y128264D01*
X265158Y127435D01*
Y121415D01*
X264197Y120455D01*
X264197Y120455D01*
X264197Y120455D01*
X264043Y120225D01*
X263810Y119876D01*
X263810Y119876D01*
X263810Y119876D01*
X263739Y119519D01*
X263674Y119193D01*
X263674Y119193D01*
X263674Y119193D01*
Y116204D01*
X262938Y115578D01*
X262394Y115621D01*
X261529Y115869D01*
X261056Y116711D01*
X261854Y117510D01*
X262349Y118704D01*
Y119997D01*
X261854Y121192D01*
X260940Y122106D01*
X259746Y122600D01*
X258453D01*
X257258Y122106D01*
X256344Y121192D01*
X256321Y121135D01*
X241407D01*
X240724Y120999D01*
X240145Y120612D01*
X239357Y119824D01*
X230707D01*
X230180Y121094D01*
X230475Y121388D01*
X230969Y122583D01*
Y123876D01*
X230475Y125070D01*
X229560Y125984D01*
X229317Y126085D01*
X228543Y127537D01*
Y127542D01*
X228947Y128716D01*
X230240Y128716D01*
X231434Y129211D01*
X232348Y130125D01*
X232843Y131319D01*
Y131543D01*
X232939Y132621D01*
X234016Y132716D01*
X234240D01*
X235435Y133211D01*
X236349Y134125D01*
X236844Y135319D01*
X238114Y135789D01*
X247782Y126121D01*
D02*
G37*
G36*
X294148Y90977D02*
Y41686D01*
X291610Y39148D01*
X290112Y39446D01*
X290071Y39545D01*
X289227Y40389D01*
X288125Y40846D01*
X286931D01*
X285829Y40389D01*
X284985Y39545D01*
X284706Y38874D01*
X283538Y38490D01*
X283282Y38502D01*
X283036Y38749D01*
X281841Y39243D01*
X280548D01*
X279354Y38749D01*
X278440Y37834D01*
X278369Y37664D01*
X277034D01*
X276404Y38607D01*
Y39900D01*
X275909Y41095D01*
X275261Y41743D01*
X275334Y42920D01*
X275436Y43192D01*
X276009Y43575D01*
X277203D01*
X278305Y44032D01*
X279149Y44876D01*
X279606Y45978D01*
Y47172D01*
X279149Y48274D01*
X278305Y49118D01*
X277203Y49575D01*
X276009D01*
X275894Y49527D01*
X274624Y50376D01*
Y56973D01*
X274489Y57656D01*
X274102Y58235D01*
X273766Y58570D01*
Y61905D01*
X275036Y62754D01*
X275335Y62630D01*
X276628D01*
X277823Y63125D01*
X278737Y64039D01*
X279232Y65234D01*
Y66526D01*
X278737Y67721D01*
X278653Y67804D01*
X278429Y69376D01*
X278848Y70387D01*
Y71481D01*
X278429Y72492D01*
X277656Y73265D01*
X276859Y73595D01*
X276520Y74398D01*
X276422Y74954D01*
X277242Y75774D01*
X277628Y76353D01*
X277764Y77036D01*
Y77353D01*
X282668Y82257D01*
X283713Y81588D01*
X283755Y81547D01*
Y80268D01*
X284249Y79074D01*
X285164Y78160D01*
X286358Y77665D01*
X287651D01*
X288846Y78160D01*
X289760Y79074D01*
X290255Y80268D01*
Y81561D01*
X289760Y82756D01*
X288846Y83670D01*
X287651Y84165D01*
X286372D01*
X286332Y84206D01*
X285663Y85252D01*
X288819Y88408D01*
X289043D01*
X289726Y88544D01*
X290305Y88931D01*
X292878Y91503D01*
X294148Y90977D01*
D02*
G37*
%LPC*%
G36*
X210889Y262116D02*
X209597D01*
X208402Y261621D01*
X207488Y260707D01*
X206993Y259512D01*
Y258220D01*
X207488Y257025D01*
X208402Y256111D01*
X209597Y255616D01*
X210889D01*
X212084Y256111D01*
X212998Y257025D01*
X213493Y258220D01*
Y259512D01*
X212998Y260707D01*
X212084Y261621D01*
X210889Y262116D01*
D02*
G37*
G36*
X127851Y261572D02*
X126657D01*
X125555Y261115D01*
X124711Y260271D01*
X124254Y259169D01*
Y257975D01*
X124711Y256873D01*
X125555Y256029D01*
X126657Y255572D01*
X127851D01*
X128953Y256029D01*
X129797Y256873D01*
X130254Y257975D01*
Y259169D01*
X129797Y260271D01*
X128953Y261115D01*
X127851Y261572D01*
D02*
G37*
G36*
X243724Y260552D02*
X242432D01*
X241237Y260057D01*
X240323Y259143D01*
X239828Y257948D01*
Y256656D01*
X240323Y255461D01*
X241237Y254547D01*
X242432Y254052D01*
X243724D01*
X244919Y254547D01*
X245833Y255461D01*
X246328Y256656D01*
Y257948D01*
X245833Y259143D01*
X244919Y260057D01*
X243724Y260552D01*
D02*
G37*
G36*
X115709Y249884D02*
X114416D01*
X113221Y249389D01*
X112307Y248475D01*
X111812Y247281D01*
Y245987D01*
X112307Y244793D01*
X113221Y243879D01*
X114416Y243384D01*
X115709D01*
X116903Y243879D01*
X117817Y244793D01*
X118312Y245987D01*
Y247281D01*
X117817Y248475D01*
X116903Y249389D01*
X115709Y249884D01*
D02*
G37*
G36*
X267600Y249376D02*
X266308D01*
X265113Y248881D01*
X264199Y247967D01*
X263704Y246772D01*
Y245480D01*
X264199Y244285D01*
X265113Y243371D01*
X266308Y242876D01*
X267600D01*
X268795Y243371D01*
X269709Y244285D01*
X270204Y245480D01*
Y246772D01*
X269709Y247967D01*
X268795Y248881D01*
X267600Y249376D01*
D02*
G37*
G36*
X195059Y241284D02*
X193866D01*
X192763Y240827D01*
X191919Y239983D01*
X191462Y238881D01*
Y237687D01*
X191919Y236585D01*
X192763Y235741D01*
X193866Y235284D01*
X195059D01*
X196162Y235741D01*
X197006Y236585D01*
X197462Y237687D01*
Y238881D01*
X197006Y239983D01*
X196162Y240827D01*
X195059Y241284D01*
D02*
G37*
G36*
X215530Y238962D02*
X214237D01*
X213043Y238467D01*
X212129Y237553D01*
X211634Y236359D01*
Y235065D01*
X212129Y233871D01*
X213043Y232957D01*
X214237Y232462D01*
X215530D01*
X216725Y232957D01*
X217639Y233871D01*
X218134Y235065D01*
Y236359D01*
X217639Y237553D01*
X216725Y238467D01*
X215530Y238962D01*
D02*
G37*
G36*
X66940Y232104D02*
X65648D01*
X64453Y231609D01*
X63539Y230695D01*
X63044Y229501D01*
Y228207D01*
X63539Y227013D01*
X64453Y226099D01*
X65648Y225604D01*
X66940D01*
X68135Y226099D01*
X69049Y227013D01*
X69544Y228207D01*
Y229501D01*
X69049Y230695D01*
X68135Y231609D01*
X66940Y232104D01*
D02*
G37*
G36*
X209920Y228298D02*
X208726D01*
X207624Y227841D01*
X206780Y226997D01*
X206323Y225895D01*
Y224701D01*
X206780Y223599D01*
X207624Y222755D01*
X208726Y222298D01*
X209920D01*
X211022Y222755D01*
X211866Y223599D01*
X212323Y224701D01*
Y225895D01*
X211866Y226997D01*
X211022Y227841D01*
X209920Y228298D01*
D02*
G37*
G36*
X173957Y227118D02*
X172763D01*
X171661Y226661D01*
X170817Y225818D01*
X170360Y224715D01*
Y223521D01*
X170817Y222419D01*
X171661Y221575D01*
X172763Y221118D01*
X173957D01*
X175059Y221575D01*
X175903Y222419D01*
X176360Y223521D01*
Y224715D01*
X175903Y225818D01*
X175059Y226661D01*
X173957Y227118D01*
D02*
G37*
G36*
X266584Y226262D02*
X265292D01*
X264097Y225767D01*
X263183Y224853D01*
X262688Y223659D01*
Y222365D01*
X263183Y221171D01*
X264097Y220257D01*
X265292Y219762D01*
X266584D01*
X267779Y220257D01*
X268693Y221171D01*
X269188Y222365D01*
Y223659D01*
X268693Y224853D01*
X267779Y225767D01*
X266584Y226262D01*
D02*
G37*
G36*
X76802Y224440D02*
X75509D01*
X74315Y223945D01*
X73401Y223031D01*
X72906Y221836D01*
Y220543D01*
X73401Y219349D01*
X74315Y218435D01*
X75509Y217940D01*
X76802D01*
X77997Y218435D01*
X78911Y219349D01*
X79406Y220543D01*
Y221836D01*
X78911Y223031D01*
X77997Y223945D01*
X76802Y224440D01*
D02*
G37*
G36*
X287666Y218896D02*
X286374D01*
X285179Y218401D01*
X284265Y217487D01*
X283770Y216292D01*
Y215000D01*
X284265Y213805D01*
X285179Y212891D01*
X286374Y212396D01*
X287666D01*
X288861Y212891D01*
X289775Y213805D01*
X290270Y215000D01*
Y216292D01*
X289775Y217487D01*
X288861Y218401D01*
X287666Y218896D01*
D02*
G37*
G36*
X56985Y216360D02*
X55791D01*
X54689Y215903D01*
X53845Y215059D01*
X53388Y213957D01*
Y212763D01*
X53845Y211661D01*
X54689Y210817D01*
X55791Y210360D01*
X56985D01*
X58087Y210817D01*
X58931Y211661D01*
X59388Y212763D01*
Y213957D01*
X58931Y215059D01*
X58087Y215903D01*
X56985Y216360D01*
D02*
G37*
G36*
X76035Y207978D02*
X74841D01*
X73739Y207521D01*
X72895Y206677D01*
X72438Y205575D01*
Y204381D01*
X72895Y203279D01*
X73739Y202435D01*
X74841Y201978D01*
X76035D01*
X77137Y202435D01*
X77981Y203279D01*
X78438Y204381D01*
Y205575D01*
X77981Y206677D01*
X77137Y207521D01*
X76035Y207978D01*
D02*
G37*
G36*
X102155Y205184D02*
X100961D01*
X99859Y204727D01*
X99015Y203883D01*
X98558Y202781D01*
Y201587D01*
X99015Y200485D01*
X99859Y199641D01*
X100961Y199184D01*
X102155D01*
X103257Y199641D01*
X104101Y200485D01*
X104558Y201587D01*
Y202781D01*
X104101Y203883D01*
X103257Y204727D01*
X102155Y205184D01*
D02*
G37*
G36*
X321310Y214569D02*
X320717Y214411D01*
X320099Y214288D01*
X319441Y214157D01*
X319349Y214096D01*
X319238D01*
X318036Y213598D01*
X317957Y213519D01*
X317849Y213498D01*
X316767Y212775D01*
X316242Y212459D01*
X316218Y212449D01*
X316218Y212449D01*
X316004Y212233D01*
X315788Y212019D01*
X315788Y212019D01*
X315771Y211978D01*
X315550Y211560D01*
X314982Y210708D01*
X314826Y210475D01*
X314804Y210366D01*
X314726Y210288D01*
X314228Y209086D01*
Y208975D01*
X314166Y208883D01*
X314044Y208268D01*
X313908Y207592D01*
X313796Y207231D01*
X313755Y207099D01*
X313755Y207099D01*
X313755Y206299D01*
X314033Y205247D01*
X314037Y205227D01*
X314166Y204608D01*
X314190Y204573D01*
X314227Y204410D01*
X314228Y204405D01*
X314416Y203952D01*
X314726Y203203D01*
X314804Y203125D01*
X314826Y203016D01*
X315124Y202570D01*
X315606Y201805D01*
X315667Y201670D01*
X315723Y201536D01*
X315723Y201536D01*
X316050Y201211D01*
X316376Y200884D01*
X316376Y200883D01*
X316556Y200809D01*
X316642Y200771D01*
X317411Y200285D01*
X317849Y199993D01*
X317957Y199971D01*
X318036Y199893D01*
X319238Y199395D01*
X319349D01*
X319441Y199333D01*
X319530Y199316D01*
X319982Y199224D01*
X320832Y199028D01*
X321089Y198922D01*
X321921D01*
X322397Y199067D01*
X323090Y199209D01*
X323716Y199333D01*
X323808Y199395D01*
X323919D01*
X325121Y199893D01*
X325199Y199971D01*
X325308Y199993D01*
X326389Y200716D01*
X326854Y200975D01*
X326885Y200988D01*
X326885Y200988D01*
X327034Y201138D01*
X327183Y201286D01*
X327184Y201287D01*
X327191Y201304D01*
X327608Y201934D01*
X327867Y202321D01*
X328330Y203016D01*
X328352Y203125D01*
X328431Y203203D01*
X328928Y204405D01*
Y204516D01*
X328990Y204608D01*
X329154Y205431D01*
X329244Y205884D01*
X329402Y206655D01*
Y206745D01*
X329244Y207607D01*
X329171Y207974D01*
X328990Y208883D01*
X328928Y208975D01*
Y209086D01*
X328431Y210288D01*
X328352Y210366D01*
X328330Y210475D01*
X327820Y211239D01*
X327608Y211556D01*
X327125Y212254D01*
X327119Y212269D01*
X327119Y212269D01*
X327080Y212306D01*
X327043Y212345D01*
X327043Y212345D01*
X327026Y212352D01*
X326389Y212775D01*
X326007Y213030D01*
X325308Y213498D01*
X325199Y213519D01*
X325121Y213598D01*
X323919Y214096D01*
X323808D01*
X323716Y214157D01*
X322921Y214315D01*
X322440Y214411D01*
X321700Y214569D01*
X321310D01*
X321310D01*
D02*
G37*
G36*
X287920Y209244D02*
X286628D01*
X285433Y208749D01*
X284519Y207835D01*
X284024Y206640D01*
Y205347D01*
X284519Y204153D01*
X284858Y203813D01*
X284490Y202386D01*
X283909Y202145D01*
X282995Y201231D01*
X282500Y200037D01*
Y198743D01*
X282995Y197549D01*
X283909Y196635D01*
X285103Y196140D01*
X286397D01*
X287591Y196635D01*
X288505Y197549D01*
X289000Y198743D01*
Y200037D01*
X288505Y201231D01*
X288165Y201571D01*
X288534Y202998D01*
X289115Y203239D01*
X290029Y204153D01*
X290524Y205347D01*
Y206640D01*
X290029Y207835D01*
X289115Y208749D01*
X287920Y209244D01*
D02*
G37*
G36*
X92086Y196036D02*
X90794D01*
X89599Y195541D01*
X88685Y194627D01*
X88190Y193433D01*
Y192139D01*
X88685Y190945D01*
X89599Y190031D01*
X90794Y189536D01*
X92086D01*
X93281Y190031D01*
X94195Y190945D01*
X94690Y192139D01*
Y193433D01*
X94195Y194627D01*
X93281Y195541D01*
X92086Y196036D01*
D02*
G37*
G36*
X285889Y194512D02*
X284596D01*
X283401Y194017D01*
X282487Y193103D01*
X281992Y191908D01*
Y190616D01*
X282487Y189421D01*
X283401Y188507D01*
X284596Y188012D01*
X285889D01*
X287083Y188507D01*
X287997Y189421D01*
X288492Y190616D01*
Y191908D01*
X287997Y193103D01*
X287083Y194017D01*
X285889Y194512D01*
D02*
G37*
G36*
X200798Y188186D02*
X199506D01*
X198311Y187691D01*
X197397Y186777D01*
X196902Y185582D01*
Y184289D01*
X197397Y183095D01*
X198311Y182181D01*
X199506Y181686D01*
X200798D01*
X201993Y182181D01*
X202907Y183095D01*
X203402Y184289D01*
Y185582D01*
X202907Y186777D01*
X201993Y187691D01*
X200798Y188186D01*
D02*
G37*
G36*
X184771D02*
X183478D01*
X182284Y187691D01*
X181369Y186777D01*
X180875Y185582D01*
Y184289D01*
X181369Y183095D01*
X182284Y182181D01*
X183478Y181686D01*
X184771D01*
X185966Y182181D01*
X186880Y183095D01*
X187375Y184289D01*
Y185582D01*
X186880Y186777D01*
X185966Y187691D01*
X184771Y188186D01*
D02*
G37*
G36*
X103819Y181558D02*
X102526D01*
X101331Y181063D01*
X100417Y180149D01*
X99922Y178955D01*
Y177661D01*
X100417Y176467D01*
X101331Y175553D01*
X102526Y175058D01*
X103819D01*
X105013Y175553D01*
X105927Y176467D01*
X106422Y177661D01*
Y178955D01*
X105927Y180149D01*
X105013Y181063D01*
X103819Y181558D01*
D02*
G37*
G36*
X203394Y171307D02*
X202101D01*
X200906Y170812D01*
X199992Y169898D01*
X199497Y168703D01*
Y167411D01*
X199992Y166216D01*
X200906Y165302D01*
X202101Y164807D01*
X203394D01*
X204588Y165302D01*
X205503Y166216D01*
X205997Y167411D01*
Y168703D01*
X205503Y169898D01*
X204588Y170812D01*
X203394Y171307D01*
D02*
G37*
G36*
X304508Y165179D02*
X303314D01*
X302212Y164722D01*
X301368Y163879D01*
X300911Y162776D01*
Y161583D01*
X301368Y160480D01*
X302212Y159636D01*
X303314Y159179D01*
X304508D01*
X305611Y159636D01*
X306455Y160480D01*
X306911Y161583D01*
Y162776D01*
X306455Y163879D01*
X305611Y164722D01*
X304508Y165179D01*
D02*
G37*
G36*
X8267Y164032D02*
X6974D01*
X5779Y163537D01*
X4865Y162623D01*
X4370Y161429D01*
Y160135D01*
X4865Y158941D01*
X5779Y158027D01*
X6974Y157532D01*
X8267D01*
X9461Y158027D01*
X10375Y158941D01*
X10870Y160135D01*
Y161429D01*
X10375Y162623D01*
X9461Y163537D01*
X8267Y164032D01*
D02*
G37*
G36*
X21776Y162980D02*
X20484D01*
X19289Y162486D01*
X18375Y161572D01*
X17880Y160377D01*
Y159084D01*
X18375Y157890D01*
X19289Y156975D01*
X20484Y156481D01*
X21776D01*
X22971Y156975D01*
X23885Y157890D01*
X24380Y159084D01*
Y160377D01*
X23885Y161572D01*
X22971Y162486D01*
X21776Y162980D01*
D02*
G37*
G36*
X298843Y153364D02*
X297549D01*
X296355Y152869D01*
X295441Y151955D01*
X294946Y150760D01*
Y149467D01*
X295441Y148273D01*
X296355Y147359D01*
X297549Y146864D01*
X298843D01*
X300037Y147359D01*
X300951Y148273D01*
X301446Y149467D01*
Y150760D01*
X300951Y151955D01*
X300037Y152869D01*
X298843Y153364D01*
D02*
G37*
G36*
X327037Y149554D02*
X325743D01*
X324549Y149059D01*
X323635Y148145D01*
X323140Y146951D01*
Y145658D01*
X323635Y144463D01*
X324549Y143549D01*
X325743Y143054D01*
X327037D01*
X328231Y143549D01*
X329145Y144463D01*
X329640Y145658D01*
Y146951D01*
X329145Y148145D01*
X328231Y149059D01*
X327037Y149554D01*
D02*
G37*
G36*
X306716Y139140D02*
X305424D01*
X304229Y138645D01*
X303315Y137731D01*
X302820Y136537D01*
Y135244D01*
X303315Y134049D01*
X304229Y133135D01*
X305424Y132640D01*
X306716D01*
X307911Y133135D01*
X308825Y134049D01*
X309320Y135244D01*
Y136537D01*
X308825Y137731D01*
X307911Y138645D01*
X306716Y139140D01*
D02*
G37*
G36*
X332370Y135838D02*
X331077D01*
X329883Y135343D01*
X328969Y134429D01*
X328474Y133235D01*
Y131941D01*
X328969Y130747D01*
X329883Y129833D01*
X331077Y129338D01*
X332370D01*
X333565Y129833D01*
X334479Y130747D01*
X334974Y131941D01*
Y133235D01*
X334479Y134429D01*
X333565Y135343D01*
X332370Y135838D01*
D02*
G37*
G36*
X320433D02*
X319139D01*
X317945Y135343D01*
X317031Y134429D01*
X316536Y133235D01*
Y131941D01*
X317031Y130747D01*
X317945Y129833D01*
X319139Y129338D01*
X320433D01*
X321627Y129833D01*
X322541Y130747D01*
X323036Y131941D01*
Y133235D01*
X322541Y134429D01*
X321627Y135343D01*
X320433Y135838D01*
D02*
G37*
G36*
X308774Y127184D02*
X307481D01*
X306287Y126689D01*
X305373Y125775D01*
X304878Y124580D01*
Y123287D01*
X305373Y122093D01*
X305738Y121727D01*
X305636Y121212D01*
X304721Y120297D01*
X304227Y119103D01*
Y117810D01*
X304721Y116615D01*
X305636Y115701D01*
X306830Y115206D01*
X308123D01*
X309318Y115701D01*
X310232Y116615D01*
X310727Y117810D01*
Y119103D01*
X310232Y120297D01*
X309866Y120663D01*
X309969Y121179D01*
X310883Y122093D01*
X311378Y123287D01*
Y124580D01*
X310883Y125775D01*
X309969Y126689D01*
X308774Y127184D01*
D02*
G37*
G36*
X303414Y114502D02*
X302122D01*
X300927Y114007D01*
X300013Y113093D01*
X299518Y111898D01*
Y110605D01*
X300013Y109411D01*
X300927Y108497D01*
X302122Y108002D01*
X303414D01*
X304609Y108497D01*
X305523Y109411D01*
X306018Y110605D01*
Y111898D01*
X305523Y113093D01*
X304609Y114007D01*
X303414Y114502D01*
D02*
G37*
G36*
X332266Y107396D02*
X331073D01*
X329970Y106939D01*
X329126Y106095D01*
X328669Y104993D01*
Y103799D01*
X329126Y102697D01*
X329970Y101853D01*
X331073Y101396D01*
X332266D01*
X333369Y101853D01*
X334213Y102697D01*
X334669Y103799D01*
Y104993D01*
X334213Y106095D01*
X333369Y106939D01*
X332266Y107396D01*
D02*
G37*
G36*
X325287Y98073D02*
X323994D01*
X322800Y97578D01*
X322687Y97465D01*
X320968Y97429D01*
X319774Y97924D01*
X318481D01*
X317286Y97429D01*
X316372Y96515D01*
X315877Y95320D01*
Y94028D01*
X316372Y92833D01*
X317286Y91919D01*
X318481Y91424D01*
X319774D01*
X320968Y91919D01*
X321082Y92032D01*
X322800Y92068D01*
X323994Y91573D01*
X325287D01*
X326482Y92068D01*
X327396Y92982D01*
X327891Y94176D01*
Y95469D01*
X327396Y96664D01*
X326482Y97578D01*
X325287Y98073D01*
D02*
G37*
G36*
X65567Y92658D02*
X64274D01*
X63080Y92163D01*
X62166Y91249D01*
X61671Y90055D01*
Y88762D01*
X62166Y87567D01*
X63080Y86653D01*
X64274Y86158D01*
X65567D01*
X66762Y86653D01*
X67676Y87567D01*
X68171Y88762D01*
Y90055D01*
X67676Y91249D01*
X66762Y92163D01*
X65567Y92658D01*
D02*
G37*
G36*
X325288Y88664D02*
X323995D01*
X322801Y88169D01*
X321886Y87255D01*
X321392Y86061D01*
Y84768D01*
X321886Y83573D01*
X322801Y82659D01*
X323995Y82164D01*
X325288D01*
X326483Y82659D01*
X327397Y83573D01*
X327892Y84768D01*
Y86061D01*
X327397Y87255D01*
X326483Y88169D01*
X325288Y88664D01*
D02*
G37*
G36*
X87306Y84788D02*
X86113D01*
X85010Y84331D01*
X84166Y83487D01*
X83709Y82385D01*
Y81191D01*
X84166Y80089D01*
X85010Y79245D01*
X86113Y78788D01*
X87306D01*
X88409Y79245D01*
X89253Y80089D01*
X89710Y81191D01*
Y82385D01*
X89253Y83487D01*
X88409Y84331D01*
X87306Y84788D01*
D02*
G37*
G36*
X16059Y82966D02*
X14865D01*
X13763Y82509D01*
X12919Y81665D01*
X12462Y80563D01*
Y79369D01*
X12919Y78267D01*
X13763Y77423D01*
X14865Y76966D01*
X16059D01*
X17161Y77423D01*
X18005Y78267D01*
X18462Y79369D01*
Y80563D01*
X18005Y81665D01*
X17161Y82509D01*
X16059Y82966D01*
D02*
G37*
G36*
X316391Y86700D02*
X315297D01*
X314286Y86281D01*
X313513Y85508D01*
X313094Y84497D01*
Y83403D01*
X313513Y82392D01*
X314286Y81619D01*
X315297Y81200D01*
X316128D01*
X316744Y80498D01*
X316963Y80062D01*
X316689Y79403D01*
Y78110D01*
X317184Y76915D01*
X318098Y76001D01*
X319293Y75506D01*
X320586D01*
X321780Y76001D01*
X322695Y76915D01*
X323189Y78110D01*
Y79403D01*
X322695Y80597D01*
X321780Y81511D01*
X320586Y82006D01*
X319293D01*
X318438Y83027D01*
X318594Y83403D01*
Y84497D01*
X318175Y85508D01*
X317402Y86281D01*
X316391Y86700D01*
D02*
G37*
G36*
X10240Y76629D02*
X8947D01*
X7753Y76135D01*
X6839Y75220D01*
X6344Y74026D01*
Y72733D01*
X6839Y71538D01*
X7753Y70624D01*
X8947Y70129D01*
X10240D01*
X11435Y70624D01*
X12349Y71538D01*
X12844Y72733D01*
Y74026D01*
X12349Y75220D01*
X11435Y76135D01*
X10240Y76629D01*
D02*
G37*
G36*
X60512Y72937D02*
X59219D01*
X58024Y72442D01*
X57110Y71528D01*
X56615Y70333D01*
Y69040D01*
X57110Y67846D01*
X58024Y66932D01*
X59219Y66437D01*
X60512D01*
X61706Y66932D01*
X62621Y67846D01*
X63115Y69040D01*
Y70333D01*
X62621Y71528D01*
X61706Y72442D01*
X60512Y72937D01*
D02*
G37*
G36*
X45094Y71466D02*
X43900D01*
X42798Y71009D01*
X41954Y70165D01*
X41497Y69063D01*
Y67869D01*
X41954Y66767D01*
X42798Y65923D01*
X43900Y65466D01*
X45094D01*
X46197Y65923D01*
X47041Y66767D01*
X47497Y67869D01*
Y69063D01*
X47041Y70165D01*
X46197Y71009D01*
X45094Y71466D01*
D02*
G37*
G36*
X312391Y74700D02*
X311297D01*
X310286Y74281D01*
X309513Y73508D01*
X309094Y72497D01*
Y71403D01*
X309513Y70392D01*
X310286Y69619D01*
X311297Y69200D01*
X311357D01*
X311691Y68408D01*
X311746Y67930D01*
X310935Y67119D01*
X310440Y65925D01*
Y64632D01*
X310935Y63437D01*
X311849Y62523D01*
X313043Y62028D01*
X314336D01*
X315531Y62523D01*
X316445Y63437D01*
X316940Y64632D01*
Y65925D01*
X316445Y67119D01*
X315531Y68033D01*
X314336Y68528D01*
X313970D01*
X313750Y68950D01*
X313581Y69798D01*
X314175Y70392D01*
X314594Y71403D01*
Y72497D01*
X314175Y73508D01*
X313402Y74281D01*
X312391Y74700D01*
D02*
G37*
G36*
X120485Y58361D02*
X119291D01*
X118189Y57905D01*
X117345Y57061D01*
X116888Y55958D01*
Y54765D01*
X117345Y53662D01*
X118189Y52818D01*
X119291Y52361D01*
X120485D01*
X121587Y52818D01*
X122431Y53662D01*
X122888Y54765D01*
Y55958D01*
X122431Y57061D01*
X121587Y57905D01*
X120485Y58361D01*
D02*
G37*
G36*
X150283Y52912D02*
X148990D01*
X147796Y52417D01*
X146882Y51503D01*
X146387Y50308D01*
Y49016D01*
X146882Y47821D01*
X147796Y46907D01*
X148990Y46412D01*
X150283D01*
X151478Y46907D01*
X152392Y47821D01*
X152887Y49016D01*
Y50308D01*
X152392Y51503D01*
X151478Y52417D01*
X150283Y52912D01*
D02*
G37*
G36*
X131093Y55757D02*
X129800D01*
X128605Y55262D01*
X127691Y54348D01*
X127196Y53154D01*
Y51861D01*
X127323Y51555D01*
X127564Y50585D01*
X126688Y50022D01*
X126415Y49908D01*
X125501Y48994D01*
X125006Y47800D01*
Y46507D01*
X125501Y45312D01*
X126415Y44398D01*
X127610Y43903D01*
X128903D01*
X130097Y44398D01*
X131011Y45312D01*
X131506Y46507D01*
Y47800D01*
X131379Y48106D01*
X131138Y49076D01*
X132014Y49639D01*
X132287Y49752D01*
X133201Y50666D01*
X133696Y51861D01*
Y53154D01*
X133201Y54348D01*
X132287Y55262D01*
X131093Y55757D01*
D02*
G37*
G36*
X136935Y50240D02*
X135642D01*
X134447Y49745D01*
X133533Y48831D01*
X133038Y47636D01*
Y46343D01*
X133533Y45149D01*
X134447Y44235D01*
X135642Y43740D01*
X136935D01*
X138129Y44235D01*
X139044Y45149D01*
X139538Y46343D01*
Y47636D01*
X139044Y48831D01*
X138129Y49745D01*
X136935Y50240D01*
D02*
G37*
G36*
X119977Y47002D02*
X118783D01*
X117681Y46545D01*
X116837Y45701D01*
X116380Y44599D01*
Y43405D01*
X116837Y42303D01*
X117681Y41459D01*
X118783Y41002D01*
X119977D01*
X121079Y41459D01*
X121923Y42303D01*
X122380Y43405D01*
Y44599D01*
X121923Y45701D01*
X121079Y46545D01*
X119977Y47002D01*
D02*
G37*
G36*
X100944Y46814D02*
X99651D01*
X98456Y46319D01*
X97542Y45405D01*
X97047Y44210D01*
Y42917D01*
X97542Y41723D01*
X98456Y40809D01*
X99651Y40314D01*
X100944D01*
X102138Y40809D01*
X103052Y41723D01*
X103547Y42917D01*
Y44210D01*
X103052Y45405D01*
X102138Y46319D01*
X100944Y46814D01*
D02*
G37*
G36*
X320941Y42112D02*
X319648D01*
X318453Y41617D01*
X317539Y40703D01*
X317044Y39509D01*
Y38215D01*
X317539Y37021D01*
X318453Y36107D01*
X319648Y35612D01*
X320941D01*
X322135Y36107D01*
X323049Y37021D01*
X323544Y38215D01*
Y39509D01*
X323049Y40703D01*
X322135Y41617D01*
X320941Y42112D01*
D02*
G37*
G36*
X148969Y40802D02*
X147775D01*
X146673Y40345D01*
X145829Y39501D01*
X145372Y38399D01*
Y37205D01*
X145829Y36103D01*
X146673Y35259D01*
X147775Y34802D01*
X148969D01*
X150071Y35259D01*
X150915Y36103D01*
X151372Y37205D01*
Y38399D01*
X150915Y39501D01*
X150071Y40345D01*
X148969Y40802D01*
D02*
G37*
G36*
X106056Y40238D02*
X104763D01*
X103569Y39743D01*
X102655Y38829D01*
X102160Y37634D01*
Y36342D01*
X102655Y35147D01*
X103569Y34233D01*
X104763Y33738D01*
X106056D01*
X107251Y34233D01*
X108165Y35147D01*
X108660Y36342D01*
Y37634D01*
X108165Y38829D01*
X107251Y39743D01*
X106056Y40238D01*
D02*
G37*
G36*
X84925Y36528D02*
X83731D01*
X82629Y36071D01*
X81785Y35227D01*
X81328Y34125D01*
Y32931D01*
X81785Y31829D01*
X82629Y30985D01*
X83731Y30528D01*
X84925D01*
X86027Y30985D01*
X86871Y31829D01*
X87328Y32931D01*
Y34125D01*
X86871Y35227D01*
X86027Y36071D01*
X84925Y36528D01*
D02*
G37*
G36*
X124104Y34915D02*
X122811D01*
X121617Y34420D01*
X120702Y33506D01*
X120208Y32311D01*
Y31018D01*
X120702Y29824D01*
X121617Y28909D01*
X122811Y28415D01*
X124104D01*
X125038Y28801D01*
X126309Y29051D01*
X127223Y28137D01*
X128418Y27642D01*
X129711D01*
X130905Y28137D01*
X131819Y29051D01*
X132314Y30245D01*
Y31538D01*
X131819Y32733D01*
X130905Y33647D01*
X129711Y34142D01*
X128418D01*
X127484Y33755D01*
X126213Y33506D01*
X125299Y34420D01*
X124104Y34915D01*
D02*
G37*
G36*
X137742Y33991D02*
X136449D01*
X135255Y33496D01*
X134341Y32582D01*
X133846Y31387D01*
Y30094D01*
X134341Y28900D01*
X135255Y27985D01*
X136449Y27491D01*
X137742D01*
X138937Y27985D01*
X139851Y28900D01*
X140346Y30094D01*
Y31387D01*
X139851Y32582D01*
X138937Y33496D01*
X137742Y33991D01*
D02*
G37*
G36*
X106056Y32206D02*
X104763D01*
X103569Y31711D01*
X102655Y30797D01*
X102160Y29602D01*
Y28310D01*
X102655Y27115D01*
X103569Y26201D01*
X104763Y25706D01*
X106056D01*
X107251Y26201D01*
X108165Y27115D01*
X108660Y28310D01*
Y29602D01*
X108165Y30797D01*
X107251Y31711D01*
X106056Y32206D01*
D02*
G37*
G36*
X210147Y24747D02*
X208953D01*
X207851Y24291D01*
X207007Y23447D01*
X206590Y22441D01*
X206068Y22244D01*
X205280Y22080D01*
X204759Y22601D01*
X203656Y23058D01*
X202463D01*
X201360Y22601D01*
X200516Y21758D01*
X200060Y20655D01*
Y19696D01*
X199947Y19621D01*
X198654D01*
X197459Y19126D01*
X196545Y18212D01*
X196050Y17017D01*
Y15724D01*
X196545Y14530D01*
X197459Y13615D01*
X198654Y13121D01*
X199947D01*
X201141Y13615D01*
X202056Y14530D01*
X202550Y15724D01*
Y17017D01*
X202578Y17058D01*
X203656D01*
X204362Y17350D01*
X205425Y16737D01*
X205561Y16577D01*
Y15887D01*
X206056Y14692D01*
X206970Y13778D01*
X208165Y13283D01*
X209458D01*
X210652Y13778D01*
X210837Y13962D01*
X212120Y14160D01*
X212412Y13878D01*
X213043Y13247D01*
X214237Y12752D01*
X215530D01*
X216725Y13247D01*
X217639Y14161D01*
X218134Y15355D01*
Y16648D01*
X217639Y17843D01*
X216725Y18757D01*
X215530Y19252D01*
X214237D01*
X213591Y18984D01*
X212239Y19417D01*
X212057Y19567D01*
X211945Y19900D01*
X212093Y20048D01*
X212550Y21151D01*
Y22344D01*
X212093Y23447D01*
X211249Y24291D01*
X210147Y24747D01*
D02*
G37*
G36*
X118235Y28636D02*
X116942D01*
X115747Y28142D01*
X114833Y27227D01*
X114338Y26033D01*
Y24740D01*
X114833Y23545D01*
X115747Y22631D01*
X116942Y22136D01*
X118235D01*
X119429Y22631D01*
X120541Y21947D01*
X120606Y21792D01*
X121520Y20877D01*
X122715Y20383D01*
X124008D01*
X125202Y20877D01*
X126116Y21792D01*
X126611Y22986D01*
Y24279D01*
X126116Y25474D01*
X125202Y26388D01*
X124008Y26883D01*
X122715D01*
X121520Y26388D01*
X120408Y27072D01*
X120344Y27227D01*
X119429Y28142D01*
X118235Y28636D01*
D02*
G37*
G36*
X134759Y25959D02*
X133465D01*
X132271Y25464D01*
X131357Y24550D01*
X130862Y23355D01*
Y22062D01*
X131357Y20868D01*
X132271Y19953D01*
X133465Y19459D01*
X134759D01*
X135953Y19953D01*
X136867Y20868D01*
X137362Y22062D01*
Y23355D01*
X136867Y24550D01*
X135953Y25464D01*
X134759Y25959D01*
D02*
G37*
G36*
X223821Y24747D02*
X222528D01*
X221334Y24253D01*
X220420Y23338D01*
X219925Y22144D01*
Y20851D01*
X220420Y19656D01*
X221334Y18742D01*
X222528Y18247D01*
X223821D01*
X225016Y18742D01*
X225930Y19656D01*
X226425Y20851D01*
Y22144D01*
X225930Y23338D01*
X225016Y24253D01*
X223821Y24747D01*
D02*
G37*
G36*
X168636Y24586D02*
X167344D01*
X166149Y24091D01*
X165235Y23177D01*
X164740Y21983D01*
Y20689D01*
X165235Y19495D01*
X166149Y18581D01*
X167344Y18086D01*
X168636D01*
X169831Y18581D01*
X170745Y19495D01*
X171240Y20689D01*
Y21983D01*
X170745Y23177D01*
X169831Y24091D01*
X168636Y24586D01*
D02*
G37*
G36*
X59383Y30499D02*
X59121Y30391D01*
X58227Y30179D01*
X57770Y30088D01*
X57677Y30026D01*
X57567D01*
X56365Y29528D01*
X56286Y29450D01*
X56178Y29428D01*
X55748Y29141D01*
X54974Y28653D01*
X54712Y28545D01*
X54002Y27834D01*
X54002Y27834D01*
X53890Y27565D01*
X53411Y26789D01*
X53155Y26405D01*
X53133Y26297D01*
X53055Y26218D01*
X52557Y25016D01*
Y24906D01*
X52495Y24813D01*
X52405Y24359D01*
X52195Y23472D01*
X52084Y23202D01*
X52084Y22245D01*
X52354Y21210D01*
X52361Y21177D01*
X52495Y20538D01*
X52519Y20503D01*
X52555Y20343D01*
X52557Y20335D01*
X52739Y19895D01*
X53055Y19133D01*
X53133Y19055D01*
X53155Y18946D01*
X53251Y18802D01*
X53893Y17831D01*
X54023Y17552D01*
X54062Y17457D01*
X54062Y17457D01*
X54315Y17205D01*
X54566Y16952D01*
X54567Y16952D01*
X54593Y16941D01*
X55096Y16646D01*
X56178Y15924D01*
X56286Y15902D01*
X56365Y15823D01*
X57567Y15326D01*
X57677D01*
X57770Y15264D01*
X59046Y15010D01*
X59611Y14852D01*
X59991D01*
X60769Y15010D01*
X61215Y15099D01*
X62045Y15264D01*
X62137Y15326D01*
X62248D01*
X63450Y15823D01*
X63528Y15902D01*
X63637Y15924D01*
X64718Y16646D01*
X64780Y16738D01*
X64882Y16781D01*
X65802Y17701D01*
X65845Y17803D01*
X65937Y17865D01*
X66659Y18946D01*
X66681Y19055D01*
X66760Y19133D01*
X67257Y20335D01*
Y20446D01*
X67319Y20538D01*
X67573Y21814D01*
X67551Y21923D01*
X67594Y22025D01*
Y23326D01*
X67551Y23429D01*
X67573Y23537D01*
X67319Y24813D01*
X67257Y24906D01*
Y25016D01*
X66760Y26218D01*
X66681Y26297D01*
X66659Y26405D01*
X66156Y27159D01*
X65937Y27487D01*
X65465Y28174D01*
X65458Y28189D01*
X65458Y28189D01*
X65345Y28300D01*
X65234Y28413D01*
X65234Y28413D01*
X65206Y28425D01*
X64718Y28705D01*
X64183Y29063D01*
X63637Y29428D01*
X63528Y29450D01*
X63450Y29528D01*
X62586Y29886D01*
X62248Y30026D01*
X62244Y30027D01*
X62081Y30063D01*
X62045Y30088D01*
X61683Y30160D01*
X61362Y30224D01*
X60222Y30499D01*
X59383Y30499D01*
X59383Y30499D01*
D02*
G37*
G36*
X184695Y21178D02*
X183402D01*
X182207Y20683D01*
X181293Y19769D01*
X180798Y18574D01*
Y17281D01*
X181293Y16087D01*
X182207Y15172D01*
X183402Y14678D01*
X184695D01*
X185651Y15074D01*
X186983Y15177D01*
X187897Y14263D01*
X189091Y13768D01*
X190385D01*
X191579Y14263D01*
X192493Y15177D01*
X192988Y16372D01*
Y17665D01*
X192493Y18859D01*
X191579Y19773D01*
X190385Y20268D01*
X189091D01*
X188135Y19872D01*
X186803Y19769D01*
X185889Y20683D01*
X184695Y21178D01*
D02*
G37*
G36*
X176669Y23062D02*
X175376D01*
X174181Y22567D01*
X173267Y21653D01*
X172772Y20459D01*
Y19166D01*
X173267Y17971D01*
X173948Y17290D01*
X174169Y16928D01*
X174053Y15735D01*
X173733Y15415D01*
X173276Y14313D01*
Y13119D01*
X173733Y12017D01*
X174577Y11173D01*
X175679Y10716D01*
X176873D01*
X177975Y11173D01*
X178819Y12017D01*
X179276Y13119D01*
Y14313D01*
X178819Y15415D01*
X178350Y15884D01*
X178061Y16581D01*
X178304Y17498D01*
X178778Y17971D01*
X179272Y19166D01*
Y20459D01*
X178778Y21653D01*
X177863Y22567D01*
X176669Y23062D01*
D02*
G37*
G36*
X70332Y5796D02*
X68352D01*
X68250Y5754D01*
X68141Y5776D01*
X66200Y5390D01*
X66108Y5328D01*
X65997D01*
X64168Y4570D01*
X64090Y4492D01*
X63981Y4470D01*
X62335Y3371D01*
X62274Y3279D01*
X62171Y3236D01*
X60772Y1837D01*
X60729Y1734D01*
X60637Y1673D01*
X59538Y27D01*
X59516Y-82D01*
X59437Y-160D01*
X58680Y-1989D01*
Y-2100D01*
X58618Y-2192D01*
X58232Y-4133D01*
X58254Y-4242D01*
X58211Y-4344D01*
Y-6324D01*
X58254Y-6426D01*
X58232Y-6535D01*
X58618Y-8476D01*
X58680Y-8568D01*
Y-8679D01*
X59437Y-10508D01*
X59516Y-10586D01*
X59538Y-10695D01*
X60637Y-12341D01*
X60729Y-12402D01*
X60772Y-12505D01*
X62171Y-13904D01*
X62274Y-13947D01*
X62335Y-14039D01*
X63981Y-15138D01*
X64090Y-15160D01*
X64168Y-15238D01*
X65997Y-15996D01*
X66108D01*
X66200Y-16057D01*
X68141Y-16444D01*
X68250Y-16422D01*
X68352Y-16465D01*
X70332D01*
X70434Y-16422D01*
X70543Y-16444D01*
X72484Y-16057D01*
X72576Y-15996D01*
X72687D01*
X74516Y-15238D01*
X74594Y-15160D01*
X74703Y-15138D01*
X76349Y-14039D01*
X76410Y-13947D01*
X76513Y-13904D01*
X77912Y-12505D01*
X77955Y-12402D01*
X78047Y-12341D01*
X79146Y-10695D01*
X79168Y-10586D01*
X79247Y-10508D01*
X80004Y-8679D01*
Y-8568D01*
X80065Y-8476D01*
X80452Y-6535D01*
X80430Y-6426D01*
X80472Y-6324D01*
Y-4344D01*
X80430Y-4242D01*
X80452Y-4133D01*
X80065Y-2192D01*
X80004Y-2100D01*
Y-1989D01*
X79247Y-160D01*
X79168Y-82D01*
X79146Y27D01*
X78047Y1673D01*
X77955Y1734D01*
X77912Y1837D01*
X76513Y3236D01*
X76410Y3279D01*
X76349Y3371D01*
X74703Y4470D01*
X74594Y4492D01*
X74516Y4570D01*
X72687Y5328D01*
X72576D01*
X72484Y5390D01*
X70543Y5776D01*
X70434Y5754D01*
X70332Y5796D01*
D02*
G37*
G36*
X270484Y5034D02*
X268504D01*
X268402Y4992D01*
X268293Y5014D01*
X266352Y4627D01*
X266260Y4566D01*
X266149D01*
X264320Y3808D01*
X264242Y3730D01*
X264133Y3708D01*
X262487Y2609D01*
X262426Y2517D01*
X262323Y2474D01*
X260924Y1075D01*
X260881Y972D01*
X260789Y911D01*
X259690Y-735D01*
X259668Y-844D01*
X259590Y-922D01*
X258832Y-2751D01*
Y-2862D01*
X258771Y-2954D01*
X258384Y-4895D01*
X258406Y-5004D01*
X258363Y-5106D01*
Y-7086D01*
X258406Y-7188D01*
X258384Y-7297D01*
X258771Y-9238D01*
X258832Y-9330D01*
Y-9441D01*
X259590Y-11270D01*
X259668Y-11348D01*
X259690Y-11457D01*
X260789Y-13103D01*
X260881Y-13164D01*
X260924Y-13267D01*
X262323Y-14666D01*
X262426Y-14709D01*
X262487Y-14801D01*
X264133Y-15900D01*
X264242Y-15922D01*
X264320Y-16000D01*
X266149Y-16758D01*
X266260D01*
X266352Y-16819D01*
X268293Y-17206D01*
X268402Y-17184D01*
X268504Y-17227D01*
X270484D01*
X270586Y-17184D01*
X270695Y-17206D01*
X272636Y-16819D01*
X272728Y-16758D01*
X272839D01*
X274668Y-16000D01*
X274746Y-15922D01*
X274855Y-15900D01*
X276501Y-14801D01*
X276562Y-14709D01*
X276665Y-14666D01*
X278064Y-13267D01*
X278107Y-13164D01*
X278199Y-13103D01*
X279298Y-11457D01*
X279320Y-11348D01*
X279398Y-11270D01*
X280156Y-9441D01*
Y-9330D01*
X280217Y-9238D01*
X280576Y-7439D01*
X280604Y-7297D01*
X280762Y-6189D01*
Y-6096D01*
X280604Y-4895D01*
X280602Y-4890D01*
X280217Y-2954D01*
X280156Y-2862D01*
Y-2751D01*
X279398Y-922D01*
X279320Y-844D01*
X279298Y-735D01*
X278199Y911D01*
X278107Y972D01*
X278064Y1075D01*
X276665Y2474D01*
X276562Y2517D01*
X276501Y2609D01*
X274855Y3708D01*
X274746Y3730D01*
X274668Y3808D01*
X272839Y4566D01*
X272728D01*
X272636Y4627D01*
X270695Y5014D01*
X270586Y4992D01*
X270484Y5034D01*
D02*
G37*
G36*
X41795Y9854D02*
X40501D01*
X39307Y9359D01*
X38393Y8445D01*
X37898Y7250D01*
Y5957D01*
X38393Y4763D01*
X39307Y3849D01*
X40501Y3354D01*
X41795D01*
X42989Y3849D01*
X43903Y4763D01*
X44398Y5957D01*
Y7250D01*
X43903Y8445D01*
X42989Y9359D01*
X41795Y9854D01*
D02*
G37*
G36*
X300977Y8736D02*
X299684D01*
X298489Y8241D01*
X297575Y7327D01*
X297080Y6132D01*
Y4839D01*
X297575Y3645D01*
X298489Y2731D01*
X299684Y2236D01*
X300977D01*
X302171Y2731D01*
X303085Y3645D01*
X303580Y4839D01*
Y6132D01*
X303085Y7327D01*
X302171Y8241D01*
X300977Y8736D01*
D02*
G37*
G36*
X88633Y2501D02*
X87340D01*
X86145Y2007D01*
X85231Y1092D01*
X84736Y-102D01*
Y-1395D01*
X85231Y-2590D01*
X86145Y-3504D01*
X87340Y-3999D01*
X88633D01*
X89827Y-3504D01*
X90178Y-3153D01*
X91665Y-3426D01*
X91733Y-3588D01*
X92647Y-4502D01*
X93841Y-4997D01*
X95134D01*
X96329Y-4502D01*
X97243Y-3588D01*
X97738Y-2394D01*
Y-1101D01*
X97243Y94D01*
X96329Y1008D01*
X95134Y1503D01*
X93841D01*
X92647Y1008D01*
X92296Y658D01*
X90809Y930D01*
X90742Y1092D01*
X89827Y2007D01*
X88633Y2501D01*
D02*
G37*
G36*
X188299Y-6254D02*
X187105D01*
X186003Y-6711D01*
X185159Y-7555D01*
X184702Y-8657D01*
Y-9851D01*
X185159Y-10953D01*
X186003Y-11797D01*
X187105Y-12254D01*
X188299D01*
X189401Y-11797D01*
X190245Y-10953D01*
X190702Y-9851D01*
Y-8657D01*
X190245Y-7555D01*
X189401Y-6711D01*
X188299Y-6254D01*
D02*
G37*
G36*
X39545Y128677D02*
X38252D01*
X37058Y128183D01*
X36143Y127268D01*
X35649Y126074D01*
Y124781D01*
X36143Y123586D01*
X37058Y122672D01*
X38252Y122177D01*
X39545D01*
X40739Y122672D01*
X41654Y123586D01*
X42149Y124781D01*
Y126074D01*
X41654Y127268D01*
X40739Y128183D01*
X39545Y128677D01*
D02*
G37*
G36*
X55673Y117550D02*
X54381D01*
X53186Y117055D01*
X52272Y116141D01*
X51777Y114946D01*
Y113653D01*
X52272Y112459D01*
X53186Y111545D01*
X54381Y111050D01*
X55673D01*
X56868Y111545D01*
X57782Y112459D01*
X58277Y113653D01*
Y114946D01*
X57782Y116141D01*
X56868Y117055D01*
X55673Y117550D01*
D02*
G37*
G36*
X70243Y114459D02*
X68949D01*
X67755Y113964D01*
X66841Y113050D01*
X66346Y111855D01*
Y110562D01*
X66841Y109368D01*
X67755Y108454D01*
X68949Y107959D01*
X70243D01*
X71437Y108454D01*
X72351Y109368D01*
X72846Y110562D01*
Y111855D01*
X72351Y113050D01*
X71437Y113964D01*
X70243Y114459D01*
D02*
G37*
%LPD*%
D17*
X20406Y186697D02*
Y195989D01*
X51816Y225440D02*
Y245618D01*
X22635Y198218D02*
X23287D01*
X28695Y203626D01*
X20406Y195989D02*
X22635Y198218D01*
X28695Y203626D02*
X30001D01*
X51816Y225440D01*
X271982Y73037D02*
X275980Y77036D01*
X271982Y57831D02*
X272840Y56973D01*
X271982Y57831D02*
Y73037D01*
X268980Y37748D02*
Y74922D01*
X275980Y77036D02*
Y78092D01*
X268980Y74922D02*
X284540Y90482D01*
X262128Y71628D02*
X282040Y91540D01*
X275980Y78092D02*
X288080Y90192D01*
X268980Y37748D02*
X271490Y35238D01*
X248052Y65885D02*
Y66300D01*
X222855Y40688D02*
X248052Y65885D01*
X248747Y70050D02*
X249606D01*
X249783Y72550D02*
X250641D01*
X248482Y70315D02*
X248747Y70050D01*
X251563Y71628D02*
X262128D01*
X242458Y70315D02*
X248482D01*
X250641Y72550D02*
X251563Y71628D01*
X247911Y74421D02*
X249783Y72550D01*
X254000Y42158D02*
Y65656D01*
X249606Y70050D02*
X254000Y65656D01*
X240868Y71905D02*
X242458Y70315D01*
X230685Y68742D02*
X233848Y71905D01*
X240868D01*
X232806Y74421D02*
X247911D01*
X186168Y58710D02*
X191136Y63678D01*
X159957Y82494D02*
X173741Y68710D01*
X197291Y71226D02*
X205424Y79359D01*
X199762Y63678D02*
X202213Y61226D01*
X198333Y68710D02*
X205397Y75774D01*
X190094Y66194D02*
X199375D01*
X178562Y74878D02*
X182214Y71226D01*
X191136Y63678D02*
X199762D01*
X182214Y71226D02*
X197291D01*
X185126Y61226D02*
X190094Y66194D01*
X177214Y61226D02*
X185126D01*
X199375Y66194D02*
X206439Y73258D01*
X173741Y68710D02*
X198333D01*
X171416Y58710D02*
X186168D01*
X168900Y61226D02*
X171416Y58710D01*
X178562Y74878D02*
Y76771D01*
X159957Y82494D02*
Y83010D01*
X173215Y82118D02*
X178562Y76771D01*
X153670Y79742D02*
X158510D01*
X173215Y82118D02*
Y84546D01*
X170182Y68258D02*
X177214Y61226D01*
X169994Y68258D02*
X170182D01*
X158510Y79742D02*
X169994Y68258D01*
X169060Y88701D02*
X173215Y84546D01*
X159957Y86571D02*
Y88457D01*
X165296Y88701D02*
X169060D01*
X159839Y86454D02*
X159957Y86571D01*
X164689Y88806D02*
X165192D01*
X159839Y83126D02*
X159957Y83010D01*
X158068Y95427D02*
X164689Y88806D01*
X165192D02*
X165296Y88701D01*
X159839Y83126D02*
Y86454D01*
X166339Y91217D02*
X170173D01*
X152876Y95538D02*
X159957Y88457D01*
X108217Y105660D02*
X110539Y107981D01*
X107405Y105660D02*
X108217D01*
X104713Y99160D02*
X105212D01*
X108316Y90980D02*
X110653Y93317D01*
X103406Y104003D02*
Y107278D01*
X104264Y115364D02*
X117186Y128286D01*
X105841Y94996D02*
X106653D01*
X112509Y107981D02*
X113025Y108498D01*
X103419Y96660D02*
X104177D01*
X80324Y98230D02*
X101849D01*
X102201Y101672D02*
X104713Y99160D01*
X101884Y101672D02*
X102201D01*
X103406Y104003D02*
X105749Y101660D01*
X101849Y98230D02*
X103419Y96660D01*
X108145Y99160D02*
X110653Y96653D01*
X103406Y107278D02*
X104264Y108137D01*
X105749Y101660D02*
X114825D01*
X105212Y99160D02*
X105212Y99160D01*
X104177Y96660D02*
X105841Y94996D01*
X104264Y108137D02*
Y115364D01*
X110653Y93317D02*
Y96653D01*
X110539Y107981D02*
X112509D01*
X105212Y99160D02*
X108145D01*
X113025Y108498D02*
X114086D01*
X115154Y109566D01*
X96264Y107291D02*
X101884Y101672D01*
X96264Y107291D02*
Y112373D01*
X114825Y101660D02*
X119294Y106129D01*
X95294Y113344D02*
X96264Y112373D01*
X127186Y113308D02*
Y113809D01*
X125120Y111242D02*
X127186Y113308D01*
X124619Y111242D02*
X125120D01*
X125546Y108455D02*
X127962Y106039D01*
X125546Y108455D02*
Y111668D01*
X119400Y106023D02*
X124619Y111242D01*
X127186Y113809D02*
X130471Y117094D01*
X129619Y110039D02*
X145232D01*
X153605Y125682D02*
X160061Y119226D01*
X174988Y118274D02*
X183395Y109867D01*
X161137Y126889D02*
Y129718D01*
X131634Y106039D02*
X133134Y107539D01*
X146268D02*
X149955Y111226D01*
X167346Y120776D02*
X175651D01*
X127962Y106039D02*
X131634D01*
X160061Y119226D02*
X165360D01*
X168129Y111226D02*
X179497Y99858D01*
X166312Y118274D02*
X174988D01*
X119294Y106129D02*
X119400Y106023D01*
X166396Y121726D02*
X167346Y120776D01*
X149955Y111226D02*
X168129D01*
X161137Y126889D02*
X166300Y121726D01*
X133134Y107539D02*
X146268D01*
X166300Y121726D02*
X166396D01*
X165360Y119226D02*
X166312Y118274D01*
X127297Y103507D02*
X132637D01*
X121412Y97622D02*
X127297Y103507D01*
X121412Y94931D02*
Y97622D01*
X75516Y53920D02*
X81032Y59436D01*
X97673Y56920D02*
X100189Y59436D01*
X81032D02*
X84595D01*
X100189D02*
X110597D01*
X87111Y56920D02*
X97673D01*
X84595Y59436D02*
X87111Y56920D01*
X100380Y63185D02*
X110810D01*
X132169Y83982D02*
X141477Y93290D01*
X131110Y86482D02*
X140435Y95806D01*
X123318Y86764D02*
Y88007D01*
X96346Y65701D02*
X109791D01*
X112246Y80561D02*
X119726Y88041D01*
X112246Y71692D02*
Y80561D01*
X126571Y86482D02*
X131110D01*
X122242Y89083D02*
X123318Y88007D01*
X117246Y77157D02*
X126571Y86482D01*
X114746Y70656D02*
Y78192D01*
X97388Y68217D02*
X108772D01*
X117246Y69621D02*
Y77157D01*
X114746Y78192D02*
X123318Y86764D01*
X119746Y76121D02*
X127606Y83982D01*
X119746Y68585D02*
Y76121D01*
X127606Y83982D02*
X132169D01*
X110810Y63185D02*
X117246Y69621D01*
X124158Y69480D02*
Y69515D01*
X108772Y68217D02*
X112246Y71692D01*
X110597Y59436D02*
X119746Y68585D01*
X109791Y65701D02*
X114746Y70656D01*
X130743Y95355D02*
X136426D01*
X126024Y90637D02*
X130743Y95355D01*
X109638Y53705D02*
X112429Y56495D01*
X109638Y52913D02*
Y53705D01*
X275945Y35880D02*
X281082D01*
X281195Y35993D01*
X295932Y40947D02*
Y92732D01*
X283159Y28173D02*
X295932Y40947D01*
Y92732D02*
X308328Y105128D01*
X274478Y28173D02*
X283159D01*
X285548Y110237D02*
X287750Y112439D01*
X288080Y90192D02*
X289043D01*
X287750Y112439D02*
Y168434D01*
X289043Y90192D02*
X292040Y93189D01*
Y99247D01*
X288096Y103191D02*
Y109249D01*
X290298Y111451D02*
Y116869D01*
X284540Y90482D02*
Y109192D01*
X283048Y111272D02*
X285250Y113474D01*
X284540Y109192D02*
X285548Y110200D01*
X285250Y113474D02*
Y161282D01*
X269671Y176861D02*
X285250Y161282D01*
X283048Y111235D02*
Y111272D01*
X288096Y109249D02*
X290298Y111451D01*
X288096Y103191D02*
X292040Y99247D01*
X285548Y110200D02*
Y110237D01*
X282040Y110227D02*
X283048Y111235D01*
X282040Y91540D02*
Y110227D01*
X262061Y194123D02*
X287750Y168434D01*
X183395Y109474D02*
Y109867D01*
X165054Y239476D02*
X166914D01*
X159266Y265430D02*
X189877D01*
X166914Y239476D02*
X177052Y249613D01*
X182093D01*
X192230Y259750D01*
Y263078D01*
X189877Y265430D02*
X192230Y263078D01*
X272891Y132477D02*
Y141931D01*
X272328Y142494D02*
Y145406D01*
Y142494D02*
X272891Y141931D01*
X272328Y145406D02*
X272891Y145969D01*
Y150995D01*
X270145Y129732D02*
X272891Y132477D01*
X139904Y148182D02*
X144344Y143743D01*
X145126Y158258D02*
X145517Y157868D01*
X147638Y158746D02*
Y160124D01*
X150037Y140817D02*
Y142864D01*
X146759Y157868D02*
X147638Y158746D01*
X142214Y158258D02*
X145126D01*
X144344Y143743D02*
X149158D01*
X139904Y155948D02*
X142214Y158258D01*
X132069Y148345D02*
Y155230D01*
X145517Y157868D02*
X146759D01*
X139904Y148182D02*
Y155948D01*
X129553Y136513D02*
Y158052D01*
X134585Y149387D02*
Y154188D01*
X150037Y140817D02*
X161137Y129718D01*
X149158Y143743D02*
X150037Y142864D01*
X129553Y158052D02*
X135737Y164235D01*
X146285Y165887D02*
Y175970D01*
X140219Y163379D02*
Y170677D01*
X134585Y154188D02*
X146285Y165887D01*
X132069Y155230D02*
X140219Y163379D01*
X143023Y140949D02*
X153605Y130367D01*
X134585Y149387D02*
X138526Y145446D01*
X139082D01*
X145232Y110039D02*
X152979Y117785D01*
X137484Y142930D02*
X138040D01*
X152979Y117785D02*
Y122750D01*
X139082Y145446D02*
X143023Y141505D01*
X153605Y125682D02*
Y130367D01*
X132069Y148345D02*
X137484Y142930D01*
X138040D02*
X140507Y140463D01*
X143023Y140949D02*
Y141505D01*
X140507Y135221D02*
X152979Y122750D01*
X140507Y135221D02*
Y140463D01*
X115154Y122113D02*
X129553Y136513D01*
X115154Y109566D02*
Y122113D01*
X90016Y121571D02*
Y138250D01*
X170144Y249850D02*
X171483D01*
X173836Y252202D01*
X140970Y220676D02*
X170144Y249850D01*
X173836Y252202D02*
Y253542D01*
X175012Y254718D01*
X231097Y143467D02*
X236517D01*
X249043Y127382D02*
X258942D01*
X236517Y143467D02*
X243550Y136434D01*
X249300D01*
X231465Y139982D02*
X236444D01*
X249043Y127382D01*
X260182Y139700D02*
X266942Y132940D01*
X249300Y136434D02*
X252567Y139700D01*
X260182D01*
X130471Y117094D02*
X135044D01*
X122246Y67568D02*
X124158Y69480D01*
X312819Y107952D02*
X315364Y110498D01*
X308328Y105406D02*
X310874Y107952D01*
X315364Y110498D02*
X321420D01*
X310874Y107952D02*
X312819D01*
X308328Y105128D02*
Y105406D01*
X152791Y145732D02*
Y149647D01*
X150154Y152283D02*
X152791Y149647D01*
Y145732D02*
X162874Y135649D01*
X224536Y136906D02*
X231097Y143467D01*
X83601Y107966D02*
Y115156D01*
X90016Y121571D01*
X94912Y136491D02*
X98145Y133258D01*
X86000Y121113D02*
Y140093D01*
X84966Y120080D02*
X86000Y121113D01*
Y140093D02*
X88352Y142446D01*
X94912Y136491D02*
Y139213D01*
X88352Y142446D02*
X91679D01*
X94912Y139213D01*
X67985Y120080D02*
X84966D01*
X65383Y122682D02*
X67985Y120080D01*
X98145Y133258D02*
X115126D01*
X51784Y122682D02*
X65383D01*
X119726Y93245D02*
X121412Y94931D01*
X122242Y89083D02*
Y92203D01*
X119726Y88041D02*
Y93245D01*
X122242Y92203D02*
X128900Y98861D01*
Y99453D01*
X98528Y119698D02*
X104372D01*
X107606Y122932D02*
Y123678D01*
X95294Y113344D02*
Y116463D01*
X104372Y119698D02*
X107606Y122932D01*
X95294Y116463D02*
X98528Y119698D01*
X76998Y101556D02*
X80324Y98230D01*
X67779Y95714D02*
X69469Y94024D01*
X25109Y97258D02*
X48904D01*
X55844Y95714D02*
X67779D01*
X69469Y94024D02*
X81403D01*
X7705Y114661D02*
X25109Y97258D01*
X48904D02*
X53202Y101556D01*
X76998D01*
X81403Y94024D02*
X84447Y90980D01*
X43292Y93424D02*
X44610Y94742D01*
X54872D02*
X55844Y95714D01*
X44610Y94742D02*
X54872D01*
X38052Y88184D02*
X43292Y93424D01*
X250149Y31029D02*
X260350Y20828D01*
X236045Y31029D02*
X250149D01*
X232572Y30883D02*
X235900D01*
X232427Y31029D02*
X232572Y30883D01*
X202313Y48406D02*
Y49139D01*
X263367Y17062D02*
X274478Y28173D01*
X237087Y28513D02*
X247339D01*
X236942Y28367D02*
X237087Y28513D01*
X247339D02*
X258790Y17062D01*
X231530Y28367D02*
X236942D01*
X231385Y28513D02*
X231530Y28367D01*
X219691Y31029D02*
X232427D01*
X181287Y28513D02*
X231385D01*
X258790Y17062D02*
X263367D01*
X202313Y48406D02*
X219691Y31029D01*
X235900Y30883D02*
X236045Y31029D01*
X275303Y35238D02*
X275945Y35880D01*
X273154Y39254D02*
X273188Y39288D01*
Y44667D01*
X169710Y40089D02*
X181287Y28513D01*
X186859Y55032D02*
X203423D01*
X173476Y41649D02*
X186859Y55032D01*
X54171Y132443D02*
X54528Y132800D01*
Y147655D01*
X84447Y90980D02*
X108316D01*
X4318Y121484D02*
X7705Y118097D01*
Y114661D02*
Y118097D01*
X168922Y103620D02*
X176990Y95552D01*
X132751Y103620D02*
X168922D01*
X132637Y103507D02*
X132751Y103620D01*
X135044Y117094D02*
X137399Y119449D01*
X210126Y146226D02*
X217218Y153318D01*
X204702Y123738D02*
X207214Y121226D01*
X210717D01*
X199722Y135242D02*
X203325D01*
X197370Y137595D02*
Y140732D01*
X188642Y139742D02*
X192338Y136046D01*
X207214Y146226D02*
X210126D01*
X199216Y132726D02*
X204702Y127240D01*
X202688Y143636D02*
X205130Y141194D01*
X197370Y137595D02*
X199722Y135242D01*
X202186Y122695D02*
Y126198D01*
X207010Y141194D02*
X214855Y133350D01*
X202186Y122695D02*
X206172Y118710D01*
X217218Y153318D02*
Y160576D01*
X206172Y143710D02*
X209702D01*
X201303Y149594D02*
X203846D01*
X217218Y160576D02*
X226568Y169926D01*
X206172Y118710D02*
X209674D01*
X194854Y136553D02*
X198680Y132726D01*
X209702Y143710D02*
X214122Y139290D01*
X203730Y146152D02*
X206172Y143710D01*
X192338Y135510D02*
Y136046D01*
X203325Y135242D02*
X204505Y136422D01*
X194854Y136553D02*
Y139690D01*
X199066Y146152D02*
X203730D01*
X205130Y141194D02*
X207010D01*
X192338Y135510D02*
X197638Y130210D01*
X198174D01*
X200729Y150168D02*
X201303Y149594D01*
X203846D02*
X207214Y146226D01*
X189844Y148258D02*
X197370Y140732D01*
X188801Y145742D02*
X194854Y139690D01*
X204702Y123738D02*
Y127240D01*
X204505Y136422D02*
X204505D01*
X198024Y143636D02*
X202688D01*
X198680Y132726D02*
X199216D01*
X198174Y130210D02*
X202186Y126198D01*
X204505Y136422D02*
X206962D01*
X214122Y139192D02*
X216624Y136690D01*
X206962Y136422D02*
X212186Y131199D01*
X214122Y139192D02*
Y139290D01*
X232868Y227177D02*
X235385Y224661D01*
X223846Y204751D02*
X226147Y207051D01*
Y222309D02*
X228499Y224661D01*
X226568Y169926D02*
Y181709D01*
X226147Y207051D02*
Y222309D01*
X221330Y183388D02*
Y205793D01*
X228499Y224661D02*
X231826D01*
X223846Y184430D02*
Y204751D01*
X223630Y219792D02*
X223631Y219793D01*
X221330Y183388D02*
X223630Y181089D01*
X234342Y222145D02*
X238506D01*
X235385Y224661D02*
X239905D01*
X227457Y227177D02*
X232868D01*
X231826Y224661D02*
X234342Y222145D01*
X223631Y219793D02*
Y223351D01*
X227457Y227177D01*
X223630Y208092D02*
Y219792D01*
Y175373D02*
Y181089D01*
X221330Y205793D02*
X223630Y208092D01*
X223846Y184430D02*
X226568Y181709D01*
X218186Y169929D02*
X223630Y175373D01*
X226362Y185472D02*
Y203708D01*
X230886Y208232D01*
X226362Y185472D02*
X243715Y168120D01*
X252912Y211654D02*
X262061Y202506D01*
X238506Y222145D02*
X244817Y215834D01*
X262061Y200536D02*
X276180Y186418D01*
X244817Y215834D02*
X248043D01*
X255766Y168120D02*
X272891Y150995D01*
X250396Y208643D02*
Y213482D01*
X276180Y183563D02*
Y186418D01*
X239905Y224661D02*
X239905D01*
X246380Y205367D02*
Y211818D01*
X252912Y211654D02*
Y214524D01*
X239905Y224661D02*
X246216Y218350D01*
X276180Y183563D02*
X290298Y169444D01*
X250396Y208643D02*
X262061Y196978D01*
Y194123D02*
Y196978D01*
X248043Y215834D02*
X250396Y213482D01*
X290298Y116869D02*
Y169444D01*
X246216Y218350D02*
X249086D01*
X262061Y200536D02*
Y202506D01*
X249086Y218350D02*
X252912Y214524D01*
X271490Y35238D02*
X275303D01*
X198670Y154201D02*
Y154742D01*
X197819Y152937D02*
Y153349D01*
X196713Y151832D02*
X197819Y152937D01*
X188670Y154742D02*
X194197Y149215D01*
X196713Y148505D02*
X199066Y146152D01*
X187642Y145742D02*
X188801D01*
X189782Y148258D02*
X189844D01*
X194197Y147463D02*
Y149215D01*
X197819Y153349D02*
X198670Y154201D01*
X196713Y148505D02*
Y151832D01*
X186814Y151226D02*
X189782Y148258D01*
X194197Y147463D02*
X198024Y143636D01*
X255480Y103168D02*
X256054Y103742D01*
X259910D01*
X157638Y159812D02*
X165659Y167833D01*
X170368Y168844D02*
X170942Y169418D01*
X170368Y166412D02*
Y168844D01*
X160154Y156198D02*
X170368Y166412D01*
X122690Y228854D02*
X159266Y265430D01*
X92331Y228854D02*
X122690D01*
X144780Y219202D02*
X165054Y239476D01*
X140970Y209851D02*
Y220676D01*
X135737Y204618D02*
X140970Y209851D01*
X138253Y172643D02*
Y203576D01*
X144780Y210103D02*
Y219202D01*
X138253Y172643D02*
X140219Y170677D01*
X138253Y203576D02*
X144780Y210103D01*
X135737Y164235D02*
Y204618D01*
X143486Y191744D02*
Y205251D01*
X153744Y215509D01*
X142538Y179717D02*
Y190796D01*
X143486Y191744D01*
X148860Y194459D02*
X150070Y193249D01*
X145288Y182025D02*
X145826Y182563D01*
X150070Y180640D02*
Y193249D01*
X145826Y185958D02*
X146304Y186436D01*
X145826Y182563D02*
Y185958D01*
X145288Y180525D02*
Y182025D01*
X142538Y179717D02*
X146285Y175970D01*
X148860Y207067D02*
X151881Y210088D01*
X148860Y194459D02*
Y207067D01*
X150070Y180640D02*
X151317Y179394D01*
X145288Y180525D02*
X148801Y177012D01*
X150154Y159082D02*
X151317Y160245D01*
Y179394D01*
X150154Y152283D02*
Y159082D01*
X147638Y160124D02*
X148801Y161287D01*
Y177012D01*
X154462Y210088D02*
X154940Y210566D01*
X151881Y210088D02*
X154462D01*
X157638Y152243D02*
Y159812D01*
X162213Y151226D02*
X186814D01*
X160154Y153285D02*
X162213Y151226D01*
X160154Y153285D02*
Y156198D01*
X175651Y120776D02*
X175653Y120774D01*
X182610D01*
X188670Y114714D01*
Y104742D02*
Y114714D01*
X162874Y135649D02*
X166220D01*
X153744Y215509D02*
X154090D01*
X272840Y45015D02*
Y56973D01*
X259421Y35817D02*
Y36736D01*
X254000Y42158D02*
X259421Y36736D01*
X272840Y45015D02*
X273188Y44667D01*
X259421Y35817D02*
X262674Y32564D01*
X255765Y168120D02*
X255766D01*
X270145Y111668D02*
X270491Y111322D01*
X270145Y111668D02*
Y129732D01*
X270491Y101365D02*
Y111322D01*
X169710Y43209D02*
X171462Y44960D01*
Y48287D01*
X163615Y56134D02*
X171462Y48287D01*
X169710Y40089D02*
Y43209D01*
X147306Y56134D02*
X163615D01*
X24422Y194348D02*
X34977Y183793D01*
X29162Y173022D02*
X54528Y147655D01*
X34977Y181939D02*
X44958Y171958D01*
X29162Y173022D02*
Y177941D01*
X34977Y181939D02*
Y183793D01*
X20406Y186697D02*
X29162Y177941D01*
X181864Y262382D02*
X185191D01*
X185585Y261988D01*
X187640D01*
X175012Y254718D02*
Y255530D01*
X181864Y262382D01*
X187640Y261988D02*
X188214Y261414D01*
X247787Y76937D02*
X259449Y88598D01*
X231763Y76937D02*
X247787D01*
X273981Y88598D02*
X274864Y89481D01*
X259449Y88598D02*
X273981D01*
X229643Y71258D02*
X232806Y74421D01*
X273094Y92493D02*
X274864Y90723D01*
Y89481D02*
Y90723D01*
X273094Y92493D02*
Y98762D01*
X270491Y101365D02*
X273094Y98762D01*
X137399Y119449D02*
X148963D01*
X136426Y95355D02*
X141641Y100570D01*
X156545Y95427D02*
X158068D01*
X161626D02*
X162129D01*
X184575Y95727D02*
X184750Y95552D01*
X178988D02*
X179163Y95727D01*
X180206Y93211D02*
X183533D01*
X162129Y95427D02*
X166339Y91217D01*
X141641Y100570D02*
X156483D01*
X170173Y91217D02*
X172214Y93258D01*
X184750Y95552D02*
X199684D01*
X156483Y100570D02*
X161626Y95427D01*
X200431Y80045D02*
Y80857D01*
X179163Y95727D02*
X184575D01*
X183533Y93211D02*
X183708Y93036D01*
X172214Y93258D02*
X175727D01*
X176990Y95552D02*
X178988D01*
X183708Y93036D02*
X195348D01*
X180030D02*
X180206Y93211D01*
X200431Y80857D02*
X202186Y82612D01*
Y86198D01*
X195348Y93036D02*
X202186Y86198D01*
X175948Y93036D02*
X180030D01*
X175727Y93258D02*
X175948Y93036D01*
X199684Y95552D02*
X203589Y99457D01*
X203593D01*
X209674Y118710D02*
X214302Y114082D01*
X216345Y118040D02*
X218788D01*
X214302Y114082D02*
X220156D01*
X213903Y118040D02*
X216345D01*
X220156Y114082D02*
X220348Y114274D01*
X210717Y121226D02*
X213903Y118040D01*
X216345D02*
X216345Y118040D01*
X222094Y123280D02*
X227669D01*
X218207Y125177D02*
X220197D01*
X222094Y123280D01*
X107606Y123678D02*
X113670Y129742D01*
X44958Y171958D02*
X130410D01*
X254029Y192432D02*
X269600Y176861D01*
X269671D01*
X141477Y93290D02*
X146197D01*
X140435Y95806D02*
X145155D01*
X112429Y57556D02*
X122246Y67373D01*
Y67568D01*
X146197Y93290D02*
X148445Y95538D01*
X152876D01*
X153831Y69088D02*
X158609Y73866D01*
X166220Y135649D02*
X170068Y131802D01*
X191610D02*
X198670Y124742D01*
X170068Y131802D02*
X191610D01*
X183670Y139742D02*
X188642D01*
X241407Y119351D02*
X259099D01*
X218788Y118040D02*
X240096D01*
X241407Y119351D01*
X185126Y148258D02*
X187642Y145742D01*
X157638Y152243D02*
X161624Y148258D01*
X185126D01*
X218788Y118040D02*
X218788Y118040D01*
X228600Y73774D02*
X231763Y76937D01*
X222253Y60758D02*
X230236Y68742D01*
X230685D01*
X213065Y71258D02*
X229643D01*
X222253Y60092D02*
Y60758D01*
X212023Y73774D02*
X228600D01*
X211507Y73258D02*
X212023Y73774D01*
X212186Y70379D02*
X213065Y71258D01*
X213469Y51308D02*
X222253Y60092D01*
X202213Y61226D02*
X205127D01*
X212186Y68285D01*
X205397Y75774D02*
X209702D01*
X206439Y73258D02*
X211507D01*
X205424Y79359D02*
X208288D01*
X209702Y75774D02*
X213670Y79742D01*
X212186Y68285D02*
Y70379D01*
X208288Y79359D02*
X208670Y79742D01*
X112429Y56495D02*
Y57556D01*
X88900Y61789D02*
X91252Y59436D01*
X87452Y67468D02*
X94579D01*
X96631Y59436D02*
X100380Y63185D01*
X85637Y61952D02*
X85801Y61789D01*
X80906Y69984D02*
X95622D01*
X97388Y68217D01*
X94579Y67468D02*
X96346Y65701D01*
X91252Y59436D02*
X96631D01*
X85801Y61789D02*
X88900D01*
X80290Y65810D02*
X85794D01*
X73432Y58952D02*
X80290Y65810D01*
X85794D02*
X87452Y67468D01*
X72390Y61468D02*
X80906Y69984D01*
X227669Y123280D02*
X227719Y123229D01*
X212948Y51308D02*
X213469D01*
X215828Y45991D02*
X216402Y45417D01*
Y43814D02*
Y45417D01*
Y43814D02*
X219528Y40688D01*
X222855D01*
X117186Y128286D02*
Y131199D01*
X115126Y133258D02*
X117186Y131199D01*
X77474Y59436D02*
X77474D01*
X74474Y56436D02*
X77474Y59436D01*
X79990Y61952D02*
X85637D01*
X77474Y59436D02*
X79990Y61952D01*
X147403Y98054D02*
X153918D01*
X156545Y95427D01*
X145155Y95806D02*
X147403Y98054D01*
X140154Y63286D02*
X147306Y56134D01*
X143044Y69088D02*
X153831D01*
X147186Y61226D02*
X168900D01*
X140154Y63286D02*
Y66199D01*
X321420Y110498D02*
X324562Y113641D01*
X324641D01*
X140154Y66199D02*
X143044Y69088D01*
X143670Y64742D02*
X147186Y61226D01*
X214855Y133350D02*
X224787D01*
X222885Y136906D02*
X224536D01*
X224787Y133350D02*
X230615Y139178D01*
X216624Y136690D02*
X222670D01*
X222885Y136906D01*
X212186Y131198D02*
Y131199D01*
X262459Y106291D02*
Y107258D01*
X259910Y103742D02*
X262459Y106291D01*
X262828Y107627D02*
Y112108D01*
X262459Y107258D02*
X262828Y107627D01*
X230661Y139178D02*
X231465Y139982D01*
X230615Y139178D02*
X230661D01*
X265458Y114739D02*
Y119193D01*
X266942Y120676D01*
X262828Y112108D02*
X265458Y114739D01*
X266942Y120676D02*
Y132940D01*
X23876Y61468D02*
X72390D01*
X36372Y56436D02*
X74474D01*
X11942Y28448D02*
X37414Y53920D01*
X35330Y58952D02*
X73432D01*
X26163Y49785D02*
X35330Y58952D01*
X27205Y47269D02*
X36372Y56436D01*
X37414Y53920D02*
X75516D01*
X16462Y54054D02*
X23876Y61468D01*
X4940Y54054D02*
X16462D01*
X2588Y28146D02*
Y51702D01*
Y28146D02*
X18796Y11938D01*
X2588Y51702D02*
X4940Y54054D01*
X11167Y36313D02*
X22123Y47269D01*
X6604Y50038D02*
X20828D01*
X21081Y49785D01*
X26163D01*
X11684Y28448D02*
X11942D01*
X22123Y47269D02*
X27205D01*
X254029Y192432D02*
Y197718D01*
X246380Y205367D02*
X254029Y197718D01*
X243715Y168120D02*
X255765D01*
X212186Y131198D02*
X218207Y125177D01*
D68*
X259386Y-49200D02*
D03*
X85386D02*
D03*
D69*
X276098Y70934D02*
D03*
X183670Y64742D02*
D03*
Y74742D02*
D03*
X123416Y104742D02*
D03*
X251844Y75950D02*
D03*
X275844Y143950D02*
D03*
X183670Y114742D02*
D03*
X123670Y124742D02*
D03*
Y114742D02*
D03*
X247844Y139950D02*
D03*
X311844Y103950D02*
D03*
Y71950D02*
D03*
X315844Y83950D02*
D03*
X311844Y91950D02*
D03*
X203670Y64742D02*
D03*
X173670Y89742D02*
D03*
X208670Y99742D02*
D03*
X198628Y104902D02*
D03*
X208670Y109742D02*
D03*
Y104742D02*
D03*
X213670D02*
D03*
Y109742D02*
D03*
X153670Y74742D02*
D03*
X183670Y144742D02*
D03*
X143670Y64742D02*
D03*
Y84742D02*
D03*
X118670Y119742D02*
D03*
X113670Y129742D02*
D03*
X143670Y154742D02*
D03*
X183670Y104742D02*
D03*
X153670Y79742D02*
D03*
X154686Y84582D02*
D03*
X153670Y89742D02*
D03*
X208670Y114742D02*
D03*
Y129742D02*
D03*
X213670Y124742D02*
D03*
X208670D02*
D03*
X198670D02*
D03*
X193670D02*
D03*
X188670D02*
D03*
X183670Y139742D02*
D03*
X208670Y149742D02*
D03*
Y154742D02*
D03*
X203670D02*
D03*
X198670D02*
D03*
X173670D02*
D03*
X193670D02*
D03*
X188670D02*
D03*
X183670D02*
D03*
X178670D02*
D03*
X168670D02*
D03*
X163670D02*
D03*
X153670D02*
D03*
X208670Y69742D02*
D03*
X213670Y79742D02*
D03*
X208670D02*
D03*
X213670Y84742D02*
D03*
X208670D02*
D03*
X188670Y104742D02*
D03*
X198670Y84742D02*
D03*
X188670D02*
D03*
X193670D02*
D03*
Y74742D02*
D03*
X178670Y64742D02*
D03*
X183670Y79742D02*
D03*
X168670Y64742D02*
D03*
X163670D02*
D03*
X148670D02*
D03*
X40894Y111136D02*
D03*
X33761Y112247D02*
D03*
X36068Y109869D02*
D03*
X153630Y188976D02*
D03*
X78740Y108204D02*
D03*
X74168D02*
D03*
X218741Y121556D02*
D03*
X166423Y189685D02*
D03*
X169188Y191853D02*
D03*
X183395Y109474D02*
D03*
D70*
X196088Y24092D02*
D03*
X235204Y59690D02*
D03*
X234078Y34890D02*
D03*
X201370Y139297D02*
D03*
X235243Y66333D02*
D03*
X289161Y64687D02*
D03*
X275982Y65880D02*
D03*
X287005Y80915D02*
D03*
X259612Y77950D02*
D03*
X174546Y75108D02*
D03*
X169094Y82988D02*
D03*
X163855Y84790D02*
D03*
X108028Y77683D02*
D03*
X107405Y105660D02*
D03*
X100264Y109794D02*
D03*
X129619Y110039D02*
D03*
X168658Y125025D02*
D03*
X163703Y115226D02*
D03*
X124158Y69515D02*
D03*
X109638Y52913D02*
D03*
X130446Y52507D02*
D03*
X281195Y35993D02*
D03*
X243228Y91922D02*
D03*
X264674Y80141D02*
D03*
X248349Y93950D02*
D03*
X302768Y111252D02*
D03*
X176286Y135818D02*
D03*
X208811Y16533D02*
D03*
X218683Y84898D02*
D03*
X218933Y79270D02*
D03*
X220509Y99347D02*
D03*
X127762Y128524D02*
D03*
X90016Y138250D02*
D03*
X169820Y253866D02*
D03*
X123458Y31665D02*
D03*
X258785Y135418D02*
D03*
X233594Y135966D02*
D03*
X107131Y72233D02*
D03*
X307451Y94372D02*
D03*
X308638Y99759D02*
D03*
X148775Y147759D02*
D03*
X232000Y147483D02*
D03*
X308087Y88545D02*
D03*
X324642Y85414D02*
D03*
X83860Y143960D02*
D03*
X148613Y90026D02*
D03*
X273154Y39254D02*
D03*
X268190Y32550D02*
D03*
X210243Y258866D02*
D03*
X331724Y132588D02*
D03*
X161180Y41664D02*
D03*
X189738Y17018D02*
D03*
X184048Y17928D02*
D03*
X54171Y132443D02*
D03*
X55027Y114300D02*
D03*
X58950Y136216D02*
D03*
X66982Y135363D02*
D03*
X38899Y125427D02*
D03*
X163678Y188976D02*
D03*
X322113Y105418D02*
D03*
X308128Y123934D02*
D03*
X279828Y135496D02*
D03*
X167446Y46624D02*
D03*
X176022Y19812D02*
D03*
X230163Y220645D02*
D03*
X246380Y211818D02*
D03*
X281250Y147573D02*
D03*
X276907Y150973D02*
D03*
X232156Y215502D02*
D03*
X264544Y40591D02*
D03*
X279674Y113518D02*
D03*
X255480Y103168D02*
D03*
X250693Y99006D02*
D03*
X226434Y96520D02*
D03*
X250037Y104482D02*
D03*
X158220Y145982D02*
D03*
X170942Y169418D02*
D03*
X165659Y167833D02*
D03*
X134414Y99604D02*
D03*
X128900Y99453D02*
D03*
X142269Y174307D02*
D03*
X262674Y32564D02*
D03*
X274161Y113331D02*
D03*
X24422Y194348D02*
D03*
X69596Y111209D02*
D03*
X188214Y261414D02*
D03*
X25146Y176278D02*
D03*
X18975Y180294D02*
D03*
X78740Y240792D02*
D03*
X66294Y228854D02*
D03*
X115062Y246634D02*
D03*
X307455Y65278D02*
D03*
X313690D02*
D03*
X261112Y84582D02*
D03*
X267485Y97146D02*
D03*
X263846Y92995D02*
D03*
X148963Y119449D02*
D03*
X105410Y36988D02*
D03*
X181869Y89195D02*
D03*
X163290Y99443D02*
D03*
X168510Y95233D02*
D03*
X179497Y99858D02*
D03*
X183386Y124790D02*
D03*
X246918Y146908D02*
D03*
X228600Y154260D02*
D03*
X128256Y47153D02*
D03*
X158609Y73866D02*
D03*
X200729Y150168D02*
D03*
X183528Y258366D02*
D03*
X184125Y184936D02*
D03*
X319951Y116544D02*
D03*
X21130Y159731D02*
D03*
X33310Y101274D02*
D03*
X258175Y148226D02*
D03*
X161956Y20828D02*
D03*
X153924Y21142D02*
D03*
X214884Y16002D02*
D03*
X199300Y16371D02*
D03*
X103172Y178308D02*
D03*
X124009Y176331D02*
D03*
X243078Y257302D02*
D03*
X269634Y160589D02*
D03*
X326390Y146304D02*
D03*
X226816Y59642D02*
D03*
X228140Y109950D02*
D03*
X224218Y85344D02*
D03*
X194917Y79883D02*
D03*
X200431Y80045D02*
D03*
X189433Y79290D02*
D03*
X203423Y55032D02*
D03*
X192952Y46561D02*
D03*
X210153Y46246D02*
D03*
X100297Y43564D02*
D03*
X87986Y-749D02*
D03*
X92916Y63452D02*
D03*
X136288Y46990D02*
D03*
X227719Y123229D02*
D03*
X177231Y86209D02*
D03*
X185928Y99568D02*
D03*
X167990Y21336D02*
D03*
X223175Y21497D02*
D03*
X33185Y91108D02*
D03*
X27686Y90678D02*
D03*
X2122Y69671D02*
D03*
X9594Y73379D02*
D03*
X5663Y65442D02*
D03*
X212948Y51308D02*
D03*
X220980Y50216D02*
D03*
X4318Y121484D02*
D03*
X5624Y126843D02*
D03*
X217669Y67242D02*
D03*
X218237Y61755D02*
D03*
X91440Y192786D02*
D03*
X94488Y-1747D02*
D03*
X115062Y-30734D02*
D03*
X69648Y124096D02*
D03*
X51784Y122682D02*
D03*
X97282Y162881D02*
D03*
X266474Y105594D02*
D03*
X196202Y109292D02*
D03*
X324641Y113641D02*
D03*
X149637Y49662D02*
D03*
X226718Y149075D02*
D03*
X129064Y30892D02*
D03*
X186436Y43688D02*
D03*
X215828Y45991D02*
D03*
X300330Y5486D02*
D03*
X202313Y49139D02*
D03*
X221192Y44704D02*
D03*
X198084Y99734D02*
D03*
X220724Y93836D02*
D03*
X221006Y140706D02*
D03*
X222017Y146129D02*
D03*
X225293Y128183D02*
D03*
X219871Y129193D02*
D03*
X221234Y154161D02*
D03*
X123361Y23633D02*
D03*
X137096Y30741D02*
D03*
X253031Y162091D02*
D03*
X258347Y159859D02*
D03*
X247904Y10958D02*
D03*
X117588Y25386D02*
D03*
X134112Y22709D02*
D03*
X102870Y162881D02*
D03*
X212480Y169130D02*
D03*
X258589Y108331D02*
D03*
X218186Y169929D02*
D03*
X64921Y89408D02*
D03*
X78962D02*
D03*
X258045Y195315D02*
D03*
X286512Y181610D02*
D03*
X202747Y168057D02*
D03*
X229593Y131966D02*
D03*
X11167Y36313D02*
D03*
X7366Y58070D02*
D03*
X6604Y50038D02*
D03*
X59865Y69687D02*
D03*
X22098Y53848D02*
D03*
X11684Y28448D02*
D03*
X193167Y168057D02*
D03*
X182176D02*
D03*
X187672Y167581D02*
D03*
X230378Y187136D02*
D03*
X236108Y187452D02*
D03*
X230886Y208232D02*
D03*
X231619Y197684D02*
D03*
X236728Y200200D02*
D03*
X241794Y198017D02*
D03*
X252346Y188435D02*
D03*
X200152Y184936D02*
D03*
X176276Y167894D02*
D03*
X261933Y98262D02*
D03*
X319939Y78756D02*
D03*
X324641Y94823D02*
D03*
X319127Y94674D02*
D03*
X262139Y152063D02*
D03*
X277622Y105156D02*
D03*
X262796Y131329D02*
D03*
X258942Y127382D02*
D03*
X210695Y174350D02*
D03*
X298196Y150114D02*
D03*
X254000Y183134D02*
D03*
X7620Y160782D02*
D03*
X76156Y221190D02*
D03*
X115824Y258064D02*
D03*
X320294Y38862D02*
D03*
X105410Y28956D02*
D03*
X41148Y6604D02*
D03*
X18796Y11938D02*
D03*
X247530Y198537D02*
D03*
X214884Y235712D02*
D03*
X239845Y214699D02*
D03*
X266954Y246126D02*
D03*
X265938Y223012D02*
D03*
X287020Y215646D02*
D03*
X287274Y205994D02*
D03*
X285750Y199390D02*
D03*
X285242Y191262D02*
D03*
X106653Y94996D02*
D03*
X259099Y119351D02*
D03*
X262926Y123323D02*
D03*
X258879Y113839D02*
D03*
X306070Y135890D02*
D03*
X307680Y83020D02*
D03*
X307477Y118456D02*
D03*
X319786Y132588D02*
D03*
X43453Y87066D02*
D03*
X38052Y88184D02*
D03*
X27292Y104247D02*
D03*
X102580Y76926D02*
D03*
X59825Y154643D02*
D03*
X54447Y153416D02*
D03*
D71*
X33889Y212816D02*
D03*
X56388Y213360D02*
D03*
X246828Y35610D02*
D03*
X303530Y40894D02*
D03*
X277599Y93314D02*
D03*
X248052Y66300D02*
D03*
X40894Y103886D02*
D03*
X119380Y44002D02*
D03*
X119888Y55361D02*
D03*
X123670Y74742D02*
D03*
X126024Y90637D02*
D03*
X299689Y66757D02*
D03*
X287528Y37846D02*
D03*
X288290Y94742D02*
D03*
X301244Y88900D02*
D03*
X203309Y115672D02*
D03*
X178119Y109839D02*
D03*
X192278Y184648D02*
D03*
X209323Y225298D02*
D03*
X177546Y244782D02*
D03*
X209550Y21747D02*
D03*
X203060Y20058D02*
D03*
X136741Y138903D02*
D03*
X143670Y149742D02*
D03*
X90266Y146212D02*
D03*
X15462Y79966D02*
D03*
Y74950D02*
D03*
X303911Y162179D02*
D03*
X194462Y238284D02*
D03*
X79360Y152866D02*
D03*
X83601Y107966D02*
D03*
X157371Y127242D02*
D03*
X127254Y258572D02*
D03*
X104934Y86868D02*
D03*
X86709Y81788D02*
D03*
X99060Y114903D02*
D03*
X75438Y97790D02*
D03*
X44497Y68466D02*
D03*
X27743D02*
D03*
X260350Y20828D02*
D03*
X327079Y123214D02*
D03*
X148372Y37802D02*
D03*
X180205Y54944D02*
D03*
X165974Y39116D02*
D03*
X187702Y-9254D02*
D03*
X59182Y126448D02*
D03*
X76896Y130630D02*
D03*
X77594Y83328D02*
D03*
X57404Y91948D02*
D03*
X29972Y109356D02*
D03*
X12078Y115614D02*
D03*
X8128Y154686D02*
D03*
X155956Y167074D02*
D03*
X331669Y104396D02*
D03*
X301715Y125072D02*
D03*
X173476Y41649D02*
D03*
X176276Y13716D02*
D03*
X126099Y120488D02*
D03*
X131108Y120860D02*
D03*
X291846Y107696D02*
D03*
X92331Y228854D02*
D03*
X146304Y186436D02*
D03*
X156396Y173228D02*
D03*
X152626Y201930D02*
D03*
X101558Y202184D02*
D03*
X154090Y215509D02*
D03*
X276606Y46575D02*
D03*
X51816Y245618D02*
D03*
X103840Y124492D02*
D03*
X84328Y33528D02*
D03*
X130410Y171958D02*
D03*
X281146Y160060D02*
D03*
X173360Y224118D02*
D03*
X154090Y215509D02*
D03*
X154940Y210566D02*
D03*
X75438Y204978D02*
D03*
X220348Y114274D02*
D03*
X203593Y99457D02*
D03*
X269102Y147621D02*
D03*
M02*
