G04*
G04 #@! TF.GenerationSoftware,Altium Limited,Altium Designer,24.6.1 (21)*
G04*
G04 Layer_Physical_Order=5*
G04 Layer_Color=16737945*
%FSLAX44Y44*%
%MOMM*%
G71*
G04*
G04 #@! TF.SameCoordinates,46D9000B-954F-446C-B998-76B77EA3697B*
G04*
G04*
G04 #@! TF.FilePolarity,Positive*
G04*
G01*
G75*
%ADD17C,0.1500*%
%ADD68C,1.5240*%
%ADD69C,0.3500*%
%ADD70C,0.4500*%
%ADD71C,0.4000*%
G36*
X166401Y270186D02*
X197581Y269160D01*
X198812Y268983D01*
X198876Y268957D01*
X200111Y269007D01*
X211446Y268012D01*
X211447Y268012D01*
X211449Y268012D01*
X234281Y266065D01*
X234376Y266049D01*
X235530Y265819D01*
X236776Y265679D01*
X279492Y256383D01*
X279622Y256346D01*
X280805Y255994D01*
D01*
X282025Y255695D01*
X293194Y252050D01*
X293249Y252032D01*
X294335Y251590D01*
X294335Y251590D01*
X294373Y251574D01*
X295546Y251237D01*
X296745Y250800D01*
X298459Y250175D01*
X298475Y250104D01*
Y250104D01*
X298683Y250017D01*
X299466Y249362D01*
X301584Y247250D01*
X301598Y247217D01*
X301875Y241250D01*
X301876Y241210D01*
X301756Y240037D01*
X301905Y239084D01*
X301943Y238804D01*
X301955Y237503D01*
X301982Y234625D01*
X301998Y234548D01*
X301989Y234470D01*
X302090Y234109D01*
X302167Y233741D01*
X302211Y233676D01*
X302232Y233601D01*
X304334Y229452D01*
X304384Y229389D01*
X304410Y229314D01*
X304661Y229036D01*
X304892Y228742D01*
X304961Y228703D01*
X305015Y228643D01*
X305353Y228482D01*
X305679Y228299D01*
X305758Y228289D01*
X305830Y228255D01*
X313071Y226421D01*
X313389Y226404D01*
X313704Y226351D01*
X326263Y226701D01*
X327472Y226566D01*
X328192Y226677D01*
X328696Y226751D01*
X330010Y226768D01*
X332604Y226800D01*
X333014Y226631D01*
X333030Y226637D01*
X333045Y226646D01*
X336648Y224693D01*
X337422Y220320D01*
X337292Y220165D01*
Y220165D01*
X337290Y220163D01*
X337374Y219961D01*
X337463Y218740D01*
X337395Y189733D01*
X337395Y189731D01*
X337395Y189730D01*
X337396Y15497D01*
Y-4405D01*
X337329Y-5332D01*
X337299Y-5357D01*
X337133Y-5629D01*
X336307Y-6408D01*
X324179Y-14463D01*
X324128Y-14492D01*
X323067Y-15077D01*
X323067Y-15077D01*
X321996Y-15714D01*
X320966Y-16224D01*
X308731Y-22287D01*
X307579Y-22771D01*
X307471Y-22816D01*
X306329Y-23325D01*
X294292Y-27809D01*
X293102Y-28252D01*
X291968Y-28582D01*
X291052Y-28916D01*
X290773Y-29017D01*
X278437Y-32537D01*
X277267Y-32769D01*
X277266Y-32768D01*
X276353Y-33045D01*
X276048Y-33135D01*
X274806Y-33402D01*
X265567Y-35391D01*
X264324Y-35543D01*
X264323Y-35543D01*
X263385Y-35785D01*
X263090Y-35858D01*
X257049Y-36830D01*
X247055D01*
Y-19738D01*
X246738Y-18973D01*
X245973Y-18656D01*
X233472D01*
X232707Y-18973D01*
X232390Y-19738D01*
Y-36830D01*
X213549D01*
X206918Y-35396D01*
X206685Y-35299D01*
X204458Y-32574D01*
X204396Y-32523D01*
X204354Y-32455D01*
X204050Y-32237D01*
X203761Y-31999D01*
X203685Y-31976D01*
X203619Y-31929D01*
X198188Y-29473D01*
X198152Y-29464D01*
X198120Y-29443D01*
X197713Y-29362D01*
X197309Y-29268D01*
X197272Y-29274D01*
X197235Y-29267D01*
X139619D01*
X139186Y-29353D01*
X138751Y-29436D01*
X133220Y-31671D01*
X133133Y-31728D01*
X133033Y-31756D01*
X132758Y-31974D01*
X132465Y-32166D01*
X132407Y-32252D01*
X132325Y-32317D01*
X131327Y-33490D01*
X130506Y-34354D01*
X130290Y-34444D01*
X130251Y-34539D01*
X130246Y-34625D01*
X129534Y-35142D01*
X128233Y-36026D01*
X127353Y-36518D01*
X126680Y-36694D01*
X125614Y-36749D01*
X125425Y-36827D01*
X124222Y-36830D01*
X107549D01*
Y-22505D01*
X108722Y-22019D01*
X113278Y-26575D01*
Y-27955D01*
X113221Y-27979D01*
X112307Y-28893D01*
X111812Y-30087D01*
Y-31381D01*
X112307Y-32575D01*
X113221Y-33489D01*
X114416Y-33984D01*
X115709D01*
X116903Y-33489D01*
X117817Y-32575D01*
X118312Y-31381D01*
Y-30087D01*
X117817Y-28893D01*
X116903Y-27979D01*
X116846Y-27955D01*
Y-25836D01*
X116711Y-25153D01*
X116324Y-24574D01*
X97120Y-5371D01*
X96365Y-4542D01*
X97144Y-3687D01*
X97243Y-3588D01*
X97738Y-2394D01*
Y-1101D01*
X97243Y94D01*
X96329Y1008D01*
X95134Y1503D01*
X93842D01*
X93224Y2578D01*
Y50124D01*
X110680Y67580D01*
X111854Y67094D01*
Y56888D01*
X110584Y56039D01*
X110285Y56163D01*
X108992D01*
X107797Y55669D01*
X106883Y54754D01*
X106388Y53560D01*
Y52267D01*
X106883Y51072D01*
X107797Y50158D01*
X108118Y50025D01*
X108282Y49793D01*
X108539Y48490D01*
X108474Y48392D01*
X108338Y47709D01*
Y40452D01*
X107815Y40111D01*
X107068Y39819D01*
X106056Y40238D01*
X104763D01*
X103963Y39906D01*
X102872Y40380D01*
X102630Y40601D01*
X102555Y41225D01*
X103052Y41723D01*
X103547Y42917D01*
Y44210D01*
X103052Y45405D01*
X102138Y46319D01*
X100944Y46814D01*
X99651D01*
X98456Y46319D01*
X97542Y45405D01*
X97047Y44210D01*
Y42917D01*
X97542Y41723D01*
X98456Y40809D01*
X98513Y40785D01*
Y26957D01*
X98649Y26274D01*
X99036Y25695D01*
X111744Y12986D01*
X112323Y12600D01*
X113006Y12464D01*
X131331D01*
X132014Y12600D01*
X132592Y12986D01*
X145280Y25673D01*
X145667Y26252D01*
X145802Y26935D01*
Y34349D01*
X146020Y34576D01*
X147072Y35093D01*
X147504Y34914D01*
X147997Y34161D01*
X148215Y33532D01*
X148124Y33076D01*
Y19478D01*
X148260Y18795D01*
X148647Y18217D01*
X159743Y7120D01*
X160322Y6733D01*
X161005Y6598D01*
X168429D01*
X174644Y382D01*
X175223Y-4D01*
X175906Y-140D01*
X230511D01*
X231194Y-4D01*
X231772Y382D01*
X235324Y3934D01*
X262184D01*
X262570Y2664D01*
X262487Y2609D01*
X262426Y2517D01*
X262323Y2474D01*
X260924Y1075D01*
X260881Y972D01*
X260789Y911D01*
X259690Y-735D01*
X259668Y-844D01*
X259590Y-922D01*
X258832Y-2751D01*
Y-2862D01*
X258771Y-2954D01*
X258384Y-4895D01*
X258406Y-5004D01*
X258363Y-5106D01*
Y-7086D01*
X258406Y-7188D01*
X258384Y-7297D01*
X258771Y-9238D01*
X258832Y-9330D01*
Y-9441D01*
X259590Y-11270D01*
X259668Y-11348D01*
X259690Y-11457D01*
X260789Y-13103D01*
X260881Y-13164D01*
X260924Y-13267D01*
X262323Y-14666D01*
X262426Y-14709D01*
X262487Y-14801D01*
X264133Y-15900D01*
X264242Y-15922D01*
X264320Y-16000D01*
X266149Y-16758D01*
X266260D01*
X266352Y-16819D01*
X268293Y-17206D01*
X268402Y-17184D01*
X268504Y-17227D01*
X270484D01*
X270586Y-17184D01*
X270695Y-17206D01*
X272636Y-16819D01*
X272728Y-16758D01*
X272839D01*
X274668Y-16000D01*
X274746Y-15922D01*
X274855Y-15900D01*
X276501Y-14801D01*
X276562Y-14709D01*
X276665Y-14666D01*
X278064Y-13267D01*
X278107Y-13164D01*
X278199Y-13103D01*
X279298Y-11457D01*
X279320Y-11348D01*
X279398Y-11270D01*
X280156Y-9441D01*
Y-9330D01*
X280217Y-9238D01*
X280576Y-7439D01*
X280604Y-7297D01*
X280762Y-6189D01*
Y-6096D01*
X280604Y-4895D01*
X280602Y-4890D01*
X280217Y-2954D01*
X280156Y-2862D01*
Y-2751D01*
X279398Y-922D01*
X279320Y-844D01*
X279298Y-735D01*
X278199Y911D01*
X278107Y972D01*
X278064Y1075D01*
X276665Y2474D01*
X276562Y2517D01*
X276501Y2609D01*
X276418Y2664D01*
X276804Y3934D01*
X297455D01*
X297575Y3645D01*
X298489Y2731D01*
X299684Y2236D01*
X300977D01*
X302171Y2731D01*
X303085Y3645D01*
X303580Y4839D01*
Y6132D01*
X303085Y7327D01*
X302171Y8241D01*
X300977Y8736D01*
X299684D01*
X298489Y8241D01*
X297750Y7502D01*
X250840D01*
X250314Y8772D01*
X250659Y9117D01*
X251154Y10312D01*
Y11604D01*
X250659Y12799D01*
X249745Y13713D01*
X248550Y14208D01*
X247257D01*
X246063Y13713D01*
X245149Y12799D01*
X244654Y11604D01*
Y10312D01*
X245149Y9117D01*
X245494Y8772D01*
X244967Y7502D01*
X236994D01*
X236508Y8676D01*
X255087Y27255D01*
X259149D01*
X259832Y27391D01*
X260410Y27777D01*
X261971Y29338D01*
X262027Y29314D01*
X263321D01*
X264515Y29809D01*
X264531Y29825D01*
X266323Y29821D01*
X266349Y29795D01*
X267544Y29300D01*
X268836D01*
X270031Y29795D01*
X270945Y30710D01*
X271440Y31904D01*
Y33197D01*
X270945Y34391D01*
X270421Y34916D01*
X270505Y35647D01*
X271822Y36288D01*
X272507Y36004D01*
X273800D01*
X274995Y36499D01*
X275909Y37413D01*
X276404Y38607D01*
Y39900D01*
X275909Y41095D01*
X274995Y42009D01*
X273800Y42504D01*
X272507D01*
X271339Y43386D01*
X271252Y44000D01*
X272524Y45273D01*
X274022Y44975D01*
X274063Y44876D01*
X274907Y44032D01*
X276009Y43575D01*
X277203D01*
X278305Y44032D01*
X279149Y44876D01*
X279606Y45978D01*
Y47172D01*
X279149Y48274D01*
X278305Y49118D01*
X278206Y49159D01*
X277908Y50657D01*
X280429Y53178D01*
X285094D01*
X285777Y53314D01*
X286355Y53701D01*
X296530Y63876D01*
X297989Y64213D01*
X299092Y63756D01*
X300285D01*
X301388Y64213D01*
X302232Y65057D01*
X302689Y66160D01*
Y67353D01*
X302232Y68456D01*
X301388Y69300D01*
X300285Y69756D01*
X299092D01*
X298666Y69580D01*
X297396Y70366D01*
Y132086D01*
X297260Y132769D01*
X296874Y133348D01*
X295964Y134257D01*
Y146146D01*
X297234Y146995D01*
X297549Y146864D01*
X298843D01*
X300037Y147359D01*
X300951Y148273D01*
X301446Y149467D01*
Y150760D01*
X300951Y151955D01*
X300037Y152869D01*
X299980Y152893D01*
Y156602D01*
X301154Y157088D01*
X310359Y147882D01*
Y137346D01*
X309090Y137093D01*
X308825Y137731D01*
X307911Y138645D01*
X306716Y139140D01*
X305424D01*
X304229Y138645D01*
X303315Y137731D01*
X302820Y136537D01*
Y135244D01*
X303315Y134049D01*
X304229Y133135D01*
X305424Y132640D01*
X306716D01*
X307911Y133135D01*
X308825Y134049D01*
X309090Y134687D01*
X310359Y134434D01*
Y121966D01*
X309921Y121649D01*
X309090Y121306D01*
X308123Y121706D01*
X306830D01*
X305636Y121212D01*
X304721Y120297D01*
X304227Y119103D01*
Y117810D01*
X304721Y116615D01*
X305636Y115701D01*
X306830Y115206D01*
X308123D01*
X309318Y115701D01*
X310232Y116615D01*
X311627Y116665D01*
X319388Y108905D01*
X319408Y107309D01*
X319357Y107259D01*
X318863Y106065D01*
Y104771D01*
X319357Y103577D01*
X320272Y102663D01*
X321466Y102168D01*
X322759D01*
X323954Y102663D01*
X324868Y103577D01*
X325363Y104771D01*
Y106065D01*
X325153Y106570D01*
X325183Y106639D01*
X326214Y107328D01*
X328669Y104873D01*
Y103799D01*
X329126Y102697D01*
X329970Y101853D01*
X331073Y101396D01*
X332266D01*
X333369Y101853D01*
X334213Y102697D01*
X334669Y103799D01*
Y104993D01*
X334213Y106095D01*
X333369Y106939D01*
X332266Y107396D01*
X331193D01*
X327702Y110886D01*
X327396Y111800D01*
X327891Y112994D01*
Y114287D01*
X327396Y115482D01*
X326482Y116396D01*
X325287Y116891D01*
X323994D01*
X322800Y116396D01*
X321886Y115482D01*
X321391Y114287D01*
Y113744D01*
X320121Y113218D01*
X313928Y119411D01*
Y148621D01*
X313792Y149304D01*
X313405Y149882D01*
X305198Y158090D01*
X305496Y159588D01*
X305611Y159636D01*
X306455Y160480D01*
X306911Y161583D01*
Y162776D01*
X306455Y163879D01*
X305611Y164722D01*
X304508Y165179D01*
X303314D01*
X302212Y164722D01*
X301368Y163879D01*
X301320Y163764D01*
X299822Y163466D01*
X281145Y182143D01*
X280566Y182530D01*
X279883Y182666D01*
X263686D01*
X263003Y182530D01*
X262424Y182143D01*
X261183Y180902D01*
X257968D01*
X257119Y182172D01*
X257250Y182488D01*
Y183780D01*
X256755Y184975D01*
X255841Y185889D01*
X255446Y187427D01*
X255596Y187789D01*
Y189082D01*
X255101Y190277D01*
X254187Y191191D01*
X252992Y191686D01*
X251700D01*
X250505Y191191D01*
X249591Y190277D01*
X249096Y189082D01*
Y187789D01*
X249591Y186595D01*
X250505Y185680D01*
X250900Y184142D01*
X250750Y183780D01*
Y182811D01*
X250573Y182666D01*
X231145D01*
X231024Y183886D01*
X232219Y184381D01*
X233133Y185295D01*
X233628Y186490D01*
Y187782D01*
X233133Y188977D01*
X232219Y189891D01*
X231024Y190386D01*
X229732D01*
X228537Y189891D01*
X227623Y188977D01*
X227128Y187782D01*
Y186490D01*
X227623Y185295D01*
X228537Y184381D01*
X229732Y183886D01*
X229611Y182666D01*
X204104D01*
X203256Y183936D01*
X203402Y184289D01*
Y185582D01*
X202907Y186777D01*
X201993Y187691D01*
X200798Y188186D01*
X199506D01*
X198311Y187691D01*
X197397Y186777D01*
X196902Y185582D01*
Y184988D01*
X195978Y183853D01*
X195278Y184051D01*
Y185244D01*
X194821Y186347D01*
X193977Y187191D01*
X192875Y187648D01*
X191681D01*
X190579Y187191D01*
X189735Y186347D01*
X189278Y185244D01*
Y184051D01*
X189326Y183936D01*
X188477Y182666D01*
X157260D01*
X156577Y182530D01*
X155998Y182143D01*
X146454Y172599D01*
X145377Y173318D01*
X145519Y173660D01*
Y174953D01*
X145024Y176148D01*
X144110Y177062D01*
X142915Y177557D01*
X141622D01*
X140428Y177062D01*
X139513Y176148D01*
X139019Y174953D01*
Y173660D01*
X139513Y172466D01*
X140428Y171551D01*
X141622Y171057D01*
X142915D01*
X143257Y171198D01*
X143976Y170122D01*
X137168Y163314D01*
X136782Y162735D01*
X136646Y162052D01*
Y149098D01*
X136782Y148415D01*
X137168Y147836D01*
X139110Y145895D01*
X138624Y144722D01*
X118335D01*
X117652Y144586D01*
X117073Y144199D01*
X106344Y133470D01*
X105958Y132891D01*
X105822Y132208D01*
Y128293D01*
X104552Y127444D01*
X104437Y127492D01*
X103243D01*
X102141Y127035D01*
X101297Y126191D01*
X100840Y125088D01*
Y123895D01*
X101297Y122792D01*
X102141Y121948D01*
X103243Y121492D01*
X104437D01*
X104551Y121539D01*
X105822Y120690D01*
Y115159D01*
X105822Y115158D01*
Y112268D01*
X105958Y111585D01*
X106344Y111006D01*
X107171Y110180D01*
X106759Y108910D01*
X105564Y108415D01*
X104650Y107501D01*
X104156Y106306D01*
Y105014D01*
X104650Y103819D01*
X105564Y102905D01*
X106759Y102410D01*
X108052D01*
X108974Y102792D01*
X109873Y102403D01*
X110244Y102106D01*
Y97797D01*
X108974Y97271D01*
X108493Y97751D01*
X107299Y98246D01*
X106006D01*
X104812Y97751D01*
X103897Y96837D01*
X103403Y95642D01*
Y94349D01*
X103897Y93155D01*
X104812Y92241D01*
X106006Y91746D01*
X107299D01*
X108493Y92241D01*
X108974Y92721D01*
X110244Y92195D01*
Y81657D01*
X108974Y80809D01*
X108674Y80933D01*
X107382D01*
X106187Y80438D01*
X105273Y79524D01*
X104030Y79843D01*
X103227Y80176D01*
X101934D01*
X100739Y79681D01*
X99825Y78767D01*
X99331Y77572D01*
Y76280D01*
X99825Y75085D01*
X100739Y74171D01*
X101934Y73676D01*
X102836D01*
X103549Y73133D01*
X103881Y72572D01*
Y71587D01*
X104375Y70392D01*
X105290Y69478D01*
X105605Y69348D01*
X105903Y67849D01*
X91858Y53804D01*
X90684Y54290D01*
Y59484D01*
X91954Y60333D01*
X92269Y60202D01*
X93562D01*
X94757Y60697D01*
X95671Y61611D01*
X96166Y62806D01*
Y64098D01*
X95671Y65293D01*
X94757Y66207D01*
X93562Y66702D01*
X92269D01*
X91954Y66571D01*
X90684Y67420D01*
Y77913D01*
X98006Y85236D01*
X98393Y85815D01*
X98529Y86497D01*
Y90029D01*
X101526Y93026D01*
X101913Y93604D01*
X102049Y94287D01*
Y107015D01*
X102105Y107038D01*
X103020Y107953D01*
X103514Y109147D01*
Y110440D01*
X103020Y111635D01*
X102425Y112229D01*
X102097Y112618D01*
X101931Y113996D01*
X102060Y114307D01*
Y115500D01*
X101603Y116603D01*
X100759Y117447D01*
X99657Y117903D01*
X98463D01*
X97361Y117447D01*
X96517Y116603D01*
X96060Y115500D01*
Y114307D01*
X96517Y113204D01*
X97361Y112360D01*
X97365Y112358D01*
X97509Y111635D01*
X97015Y110440D01*
Y109147D01*
X97509Y107953D01*
X98424Y107038D01*
X98480Y107015D01*
Y95026D01*
X95483Y92029D01*
X95096Y91451D01*
X94960Y90768D01*
Y87236D01*
X90799Y83074D01*
X89300Y83372D01*
X89253Y83487D01*
X88409Y84331D01*
X87306Y84788D01*
X86113D01*
X85010Y84331D01*
X84166Y83487D01*
X83709Y82385D01*
Y81191D01*
X84166Y80089D01*
X85010Y79245D01*
X86113Y78788D01*
X87005D01*
X87116Y78653D01*
Y36779D01*
X86590Y36437D01*
X85846Y36147D01*
X84925Y36528D01*
X83731D01*
X82629Y36071D01*
X81785Y35227D01*
X81328Y34125D01*
Y32931D01*
X81785Y31829D01*
X82629Y30985D01*
X83731Y30528D01*
X84925D01*
X85846Y30910D01*
X86590Y30619D01*
X87116Y30277D01*
Y7343D01*
X82709Y2936D01*
X82322Y2357D01*
X82186Y1674D01*
Y-2944D01*
X82322Y-3627D01*
X82709Y-4206D01*
X85606Y-7104D01*
X86185Y-7491D01*
X86868Y-7626D01*
X94329D01*
X104185Y-17482D01*
X103699Y-18655D01*
X93966D01*
X93200Y-18973D01*
X92883Y-19738D01*
Y-35700D01*
X91613Y-36724D01*
X85949Y-36049D01*
X85906Y-36044D01*
X85898Y-36043D01*
X84703Y-35774D01*
Y-35774D01*
X83477Y-35683D01*
X83375Y-35670D01*
X82895Y-35505D01*
X82895Y-35504D01*
X81653Y-35375D01*
X56376Y-30333D01*
X56227Y-30294D01*
X55039Y-29960D01*
Y-29960D01*
X53836Y-29648D01*
X29447Y-21300D01*
X28479Y-20956D01*
X28449Y-20881D01*
X28282Y-20811D01*
X27171Y-20297D01*
X12484Y-12455D01*
X11453Y-11782D01*
X11267Y-11705D01*
X10263Y-11011D01*
X5886Y-7594D01*
X4998Y-6734D01*
X4971Y-6669D01*
X4880Y-6631D01*
X4084Y-5939D01*
X4046Y-5897D01*
X247Y-1661D01*
X177Y-1493D01*
X-0Y210D01*
X50Y1361D01*
X-1Y1483D01*
Y1483D01*
X-99Y1574D01*
X-95Y2402D01*
X333Y17073D01*
X315Y17180D01*
X329Y17287D01*
X-157Y24956D01*
X-205Y25136D01*
X-210Y25323D01*
X-1310Y30152D01*
X-1438Y31368D01*
X-1544Y31622D01*
X-1614Y32824D01*
Y64494D01*
X-1597Y65669D01*
X-1438Y66052D01*
X-1423Y66066D01*
X-512Y66888D01*
X159Y67038D01*
X281Y66915D01*
X1475Y66421D01*
X2192D01*
X2413Y66088D01*
Y64795D01*
X2908Y63601D01*
X3823Y62687D01*
X5017Y62192D01*
X5506D01*
X5758Y60922D01*
X5525Y60825D01*
X4611Y59911D01*
X4116Y58716D01*
Y57424D01*
X4611Y56229D01*
X5525Y55315D01*
X6719Y54820D01*
X8012D01*
X9207Y55315D01*
X10121Y56229D01*
X10616Y57424D01*
Y58716D01*
X10121Y59911D01*
X9207Y60825D01*
X8012Y61320D01*
X7524D01*
X7271Y62590D01*
X7505Y62687D01*
X8419Y63601D01*
X8913Y64795D01*
Y66088D01*
X8419Y67283D01*
X7505Y68197D01*
X6310Y68692D01*
X5594D01*
X5372Y69024D01*
Y70317D01*
X4877Y71512D01*
X3963Y72426D01*
X2768Y72920D01*
X2284D01*
X1631Y73609D01*
X1334Y74132D01*
X1358Y74289D01*
X1441Y74620D01*
X1642Y78542D01*
X1633Y78604D01*
X1645Y78666D01*
X1542Y117867D01*
X1841Y118142D01*
X2810Y118590D01*
X3672Y118234D01*
X4965D01*
X6159Y118729D01*
X7073Y119643D01*
X7568Y120837D01*
Y122130D01*
X7073Y123325D01*
X7786Y124408D01*
X8379Y125002D01*
X8874Y126196D01*
Y127489D01*
X8379Y128684D01*
X7465Y129598D01*
X6270Y130093D01*
X4978D01*
X3783Y129598D01*
X2869Y128684D01*
X2809Y128541D01*
X1539Y128793D01*
X1540Y149569D01*
X1532Y149607D01*
X1539Y149646D01*
X1193Y160086D01*
X1096Y160502D01*
X1008Y160919D01*
X-249Y163861D01*
X-198Y163939D01*
X-198D01*
X-373Y164362D01*
Y197482D01*
X-240Y198697D01*
X-198Y198799D01*
X-42Y199560D01*
X174Y200002D01*
X176Y200005D01*
X213Y200094D01*
X796Y201122D01*
X1441Y202090D01*
X1608Y202496D01*
X1780Y202900D01*
X3013Y208797D01*
X3015Y209045D01*
X3062Y209290D01*
X2932Y224332D01*
X3007Y225330D01*
X3097Y225547D01*
X3092Y225558D01*
X3507Y226656D01*
X5126Y230327D01*
X9300Y231115D01*
X9444Y230994D01*
X9459Y230988D01*
X9672Y231077D01*
X10885Y231147D01*
X27432Y230951D01*
X27439Y230952D01*
X27447Y230951D01*
X27471D01*
X27473Y230951D01*
X27475Y230951D01*
X33736Y230993D01*
X33933Y231033D01*
X34135Y231030D01*
X34371Y231124D01*
X34620Y231175D01*
X34787Y231288D01*
X34975Y231362D01*
X39424Y234231D01*
X39502Y234306D01*
X39597Y234354D01*
X39824Y234618D01*
X40073Y234859D01*
X40116Y234958D01*
X40186Y235039D01*
X40294Y235369D01*
X40432Y235688D01*
X40434Y235795D01*
X40468Y235897D01*
X40989Y240189D01*
X40978Y240330D01*
X41006Y240468D01*
Y244620D01*
X41020Y244750D01*
X41181Y245954D01*
X41181D01*
X41129Y246930D01*
X41287Y247745D01*
X41287Y247745D01*
X41506Y248948D01*
X42288Y251706D01*
X42312Y251716D01*
X42440Y252025D01*
X44914Y253939D01*
X45164Y254122D01*
X46201Y254778D01*
X47281Y255275D01*
X49535Y256144D01*
X49623Y256177D01*
X50665Y256497D01*
X50675Y256492D01*
X50675Y256492D01*
X50748Y256522D01*
X51843Y256943D01*
X51862Y256949D01*
X57951Y258820D01*
X59158Y259083D01*
X59159Y259083D01*
X60102Y259319D01*
X60522Y259411D01*
X61645Y259583D01*
X115256Y267825D01*
X116520Y267870D01*
D01*
X117725Y268064D01*
X117891Y268086D01*
X163947Y270170D01*
X163954Y270171D01*
X164333Y270138D01*
X165167Y270052D01*
X166003Y270149D01*
X166395Y270186D01*
X166401Y270186D01*
D02*
G37*
G36*
X191886Y128593D02*
Y127212D01*
X190838Y126631D01*
X190340Y126961D01*
X190228Y127073D01*
X189217Y127492D01*
X188123D01*
X187113Y127073D01*
X186339Y126300D01*
X185920Y125289D01*
Y124195D01*
X186339Y123184D01*
X187113Y122411D01*
X188123Y121992D01*
X189217D01*
X190228Y122411D01*
X190340Y122523D01*
X191170Y123073D01*
X192000Y122523D01*
X192112Y122411D01*
X193123Y121992D01*
X194217D01*
X195228Y122411D01*
X195340Y122523D01*
X196029Y122979D01*
X196960Y122467D01*
X197170Y121194D01*
X196018Y120042D01*
X173695D01*
X173012Y119906D01*
X172433Y119520D01*
X168223Y115310D01*
X166953Y115836D01*
Y115872D01*
X166459Y117067D01*
X165544Y117981D01*
X164350Y118476D01*
X163057D01*
X161863Y117981D01*
X160948Y117067D01*
X160453Y115872D01*
Y114579D01*
X160948Y113385D01*
X161349Y112984D01*
X160823Y111714D01*
X157404D01*
X156721Y111579D01*
X156143Y111192D01*
X141388Y96437D01*
X140214Y96923D01*
Y107803D01*
X140078Y108486D01*
X139692Y109064D01*
X129030Y119726D01*
X129099Y119891D01*
Y121084D01*
X128642Y122187D01*
X127798Y123031D01*
X127384Y123203D01*
X126420Y124195D01*
X127116Y125274D01*
X128408D01*
X129603Y125769D01*
X130517Y126683D01*
X131012Y127878D01*
X131246Y128102D01*
X132282Y128515D01*
X132505Y128366D01*
X133188Y128230D01*
X140476D01*
X141159Y128366D01*
X141250Y128427D01*
X153978D01*
X154371Y127839D01*
Y126645D01*
X154827Y125543D01*
X155671Y124699D01*
X156774Y124242D01*
X157967D01*
X159070Y124699D01*
X159914Y125543D01*
X160371Y126645D01*
Y127839D01*
X160323Y127954D01*
X161172Y129224D01*
X166983D01*
X167236Y127954D01*
X166817Y127780D01*
X165902Y126866D01*
X165408Y125672D01*
Y124379D01*
X165902Y123184D01*
X166817Y122270D01*
X168011Y121775D01*
X169304D01*
X170499Y122270D01*
X171413Y123184D01*
X171908Y124379D01*
Y125672D01*
X171413Y126866D01*
X170499Y127780D01*
X170080Y127954D01*
X170332Y129224D01*
X191255D01*
X191886Y128593D01*
D02*
G37*
G36*
X197775Y115422D02*
Y113853D01*
X197844Y113504D01*
X197134Y112711D01*
X196848Y112542D01*
X195555D01*
X194361Y112047D01*
X193447Y111133D01*
X192952Y109939D01*
Y108646D01*
X193447Y107451D01*
X194361Y106537D01*
X194867Y106327D01*
X195878Y105449D01*
Y104355D01*
X196105Y103807D01*
X196243Y102489D01*
X195329Y101575D01*
X194834Y100381D01*
Y99088D01*
X195033Y98607D01*
X194226Y97337D01*
X183231D01*
X182497Y98607D01*
X182747Y99212D01*
Y100505D01*
X182613Y100829D01*
X182768Y101183D01*
X183506Y101992D01*
X184217D01*
X185228Y102411D01*
X185340Y102523D01*
X186170Y103073D01*
X187000Y102523D01*
X187113Y102411D01*
X188123Y101992D01*
X189217D01*
X190228Y102411D01*
X191001Y103184D01*
X191420Y104195D01*
Y105289D01*
X191001Y106300D01*
X190228Y107073D01*
X189217Y107492D01*
X188123D01*
X187113Y107073D01*
X187036Y106996D01*
X186918Y107006D01*
X185746Y107654D01*
X185726Y107916D01*
X186145Y108927D01*
Y110021D01*
X185726Y111032D01*
X185577Y111181D01*
X185266Y112275D01*
X185617Y112800D01*
X186001Y113184D01*
X186420Y114195D01*
Y115289D01*
X187304Y116474D01*
X196757D01*
X197775Y115422D01*
D02*
G37*
G36*
X199784Y76795D02*
X201077D01*
X201375Y76919D01*
X202094Y75842D01*
X194608Y68356D01*
X194222Y67777D01*
X194086Y67094D01*
Y52024D01*
X194222Y51341D01*
X194608Y50763D01*
X193882Y49693D01*
X193598Y49811D01*
X192305D01*
X191111Y49316D01*
X190196Y48401D01*
X189702Y47207D01*
Y46815D01*
X188432Y46289D01*
X188277Y46443D01*
X187083Y46938D01*
X185790D01*
X184595Y46443D01*
X183681Y45529D01*
X183186Y44335D01*
Y43042D01*
X183681Y41847D01*
X184595Y40933D01*
X185790Y40438D01*
X187083D01*
X188277Y40933D01*
X189191Y41847D01*
X189686Y43042D01*
Y43434D01*
X190956Y43960D01*
X191111Y43805D01*
X192305Y43310D01*
X193598D01*
X194078Y43509D01*
X195348Y42702D01*
Y27303D01*
X194247Y26847D01*
X193333Y25933D01*
X192838Y24738D01*
Y23445D01*
X193333Y22251D01*
X194247Y21337D01*
X195441Y20842D01*
X196735D01*
X197929Y21337D01*
X198843Y22251D01*
X199338Y23445D01*
Y24738D01*
X198891Y25818D01*
X198917Y25948D01*
Y46143D01*
X200187Y46669D01*
X200473Y46384D01*
X201667Y45889D01*
X202960D01*
X203082Y45940D01*
X204352Y45091D01*
Y43315D01*
X204488Y42632D01*
X204875Y42053D01*
X221391Y25538D01*
Y24276D01*
X221334Y24253D01*
X220420Y23338D01*
X219925Y22144D01*
Y21376D01*
X218655Y20850D01*
X218226Y21280D01*
X217647Y21667D01*
X216964Y21802D01*
X213221D01*
X213212Y21801D01*
X212550Y22344D01*
X212093Y23447D01*
X211249Y24291D01*
X210147Y24747D01*
X208953D01*
X207851Y24291D01*
X207007Y23447D01*
X206590Y22441D01*
X206068Y22244D01*
X205280Y22080D01*
X204759Y22601D01*
X203656Y23058D01*
X202463D01*
X201360Y22601D01*
X200516Y21758D01*
X200060Y20655D01*
Y19696D01*
X199947Y19621D01*
X198654D01*
X197459Y19126D01*
X196545Y18212D01*
X196050Y17017D01*
Y15724D01*
X196545Y14530D01*
X195647Y13633D01*
X192964Y16315D01*
X192988Y16372D01*
Y17665D01*
X192493Y18859D01*
X191579Y19773D01*
X190385Y20268D01*
X189091D01*
X188135Y19872D01*
X186803Y19769D01*
X185889Y20683D01*
X184695Y21178D01*
X183402D01*
X182207Y20683D01*
X181293Y19769D01*
X180798Y18574D01*
Y17281D01*
X181293Y16087D01*
X182207Y15172D01*
X183402Y14678D01*
X184695D01*
X185651Y15074D01*
X186983Y15177D01*
X187897Y14263D01*
X189091Y13768D01*
X190385D01*
X190441Y13792D01*
X194599Y9634D01*
X194113Y8460D01*
X178729D01*
X169865Y17325D01*
X169875Y18625D01*
X170745Y19495D01*
X171240Y20689D01*
Y21983D01*
X170745Y23177D01*
X169831Y24091D01*
X168636Y24586D01*
X167344D01*
X166149Y24091D01*
X165549Y23491D01*
X165230Y23178D01*
X163961Y23420D01*
X163797Y23583D01*
X162603Y24078D01*
X161310D01*
X160572Y25147D01*
X160508Y25800D01*
X171002Y36294D01*
X171388Y36873D01*
X171524Y37556D01*
Y37836D01*
X172794Y38684D01*
X172879Y38649D01*
X174073D01*
X175175Y39106D01*
X175508Y39438D01*
X176778Y38912D01*
Y23903D01*
X175937Y23062D01*
X175376D01*
X174181Y22567D01*
X173267Y21653D01*
X172772Y20459D01*
Y19166D01*
X173267Y17971D01*
X174181Y17057D01*
X175376Y16562D01*
X176669D01*
X177863Y17057D01*
X178778Y17971D01*
X179272Y19166D01*
Y20459D01*
X179011Y21089D01*
X179824Y21902D01*
X180210Y22481D01*
X180346Y23163D01*
Y42571D01*
X180210Y43254D01*
X179824Y43833D01*
X176938Y46718D01*
Y52172D01*
X178209Y52698D01*
X178505Y52401D01*
X179608Y51944D01*
X180801D01*
X181904Y52401D01*
X182748Y53245D01*
X183205Y54347D01*
Y55541D01*
X182748Y56643D01*
X181904Y57487D01*
X180801Y57944D01*
X179608D01*
X178505Y57487D01*
X178209Y57191D01*
X176938Y57717D01*
Y61108D01*
X178123Y61992D01*
X179217D01*
X180228Y62411D01*
X180340Y62523D01*
X181170Y63073D01*
X182000Y62523D01*
X182112Y62411D01*
X183123Y61992D01*
X184217D01*
X185228Y62411D01*
X186001Y63184D01*
X186420Y64195D01*
Y65289D01*
X186001Y66300D01*
X185228Y67073D01*
X184217Y67492D01*
X183123D01*
X182112Y67073D01*
X182000Y66961D01*
X181360Y66537D01*
X180219Y67100D01*
X180060Y67600D01*
X179965Y68557D01*
X180210Y68923D01*
X180346Y69606D01*
Y72514D01*
X181616Y72907D01*
X182112Y72411D01*
X183123Y71992D01*
X184217D01*
X185228Y72411D01*
X186001Y73184D01*
X186420Y74195D01*
Y75289D01*
X186046Y76191D01*
X186071Y76259D01*
X187485Y76642D01*
X187592Y76535D01*
X188787Y76040D01*
X189856D01*
X190385Y75667D01*
X190920Y75014D01*
Y74195D01*
X191339Y73184D01*
X192112Y72411D01*
X193123Y71992D01*
X194217D01*
X195228Y72411D01*
X196001Y73184D01*
X196420Y74195D01*
Y75289D01*
X196305Y75566D01*
X196758Y77128D01*
X196857Y77227D01*
X198590Y77290D01*
X199784Y76795D01*
D02*
G37*
%LPC*%
G36*
X210889Y262116D02*
X209597D01*
X208402Y261621D01*
X207488Y260707D01*
X206993Y259512D01*
Y258220D01*
X207488Y257025D01*
X208402Y256111D01*
X209597Y255616D01*
X210889D01*
X212084Y256111D01*
X212998Y257025D01*
X213493Y258220D01*
Y259512D01*
X212998Y260707D01*
X212084Y261621D01*
X210889Y262116D01*
D02*
G37*
G36*
X127851Y261572D02*
X126657D01*
X125555Y261115D01*
X124711Y260271D01*
X124254Y259169D01*
Y257975D01*
X124711Y256873D01*
X125555Y256029D01*
X126657Y255572D01*
X127851D01*
X128953Y256029D01*
X129797Y256873D01*
X130254Y257975D01*
Y259169D01*
X129797Y260271D01*
X128953Y261115D01*
X127851Y261572D01*
D02*
G37*
G36*
X188860Y264664D02*
X187568D01*
X186373Y264169D01*
X185459Y263255D01*
X185102Y262393D01*
X184174Y261616D01*
X182881D01*
X181686Y261121D01*
X180772Y260207D01*
X180278Y259013D01*
Y257720D01*
X180772Y256525D01*
X181686Y255611D01*
X182881Y255116D01*
X184174D01*
X185368Y255611D01*
X186283Y256525D01*
X186640Y257387D01*
X187568Y258164D01*
X188860D01*
X190055Y258659D01*
X190969Y259573D01*
X191464Y260768D01*
Y262061D01*
X190969Y263255D01*
X190055Y264169D01*
X188860Y264664D01*
D02*
G37*
G36*
X116470Y261314D02*
X115177D01*
X113983Y260819D01*
X113069Y259905D01*
X112574Y258710D01*
Y257418D01*
X113069Y256223D01*
X113983Y255309D01*
X115177Y254814D01*
X116470D01*
X117665Y255309D01*
X118579Y256223D01*
X119074Y257418D01*
Y258710D01*
X118579Y259905D01*
X117665Y260819D01*
X116470Y261314D01*
D02*
G37*
G36*
X243724Y260552D02*
X242432D01*
X241237Y260057D01*
X240323Y259143D01*
X239828Y257948D01*
Y256656D01*
X240323Y255461D01*
X241237Y254547D01*
X242432Y254052D01*
X243724D01*
X244919Y254547D01*
X245833Y255461D01*
X246328Y256656D01*
Y257948D01*
X245833Y259143D01*
X244919Y260057D01*
X243724Y260552D01*
D02*
G37*
G36*
X170466Y257116D02*
X169173D01*
X167979Y256621D01*
X167065Y255707D01*
X166570Y254513D01*
Y253220D01*
X167065Y252025D01*
X167979Y251111D01*
X169173Y250616D01*
X170466D01*
X171661Y251111D01*
X172575Y252025D01*
X173070Y253220D01*
Y254513D01*
X172575Y255707D01*
X171661Y256621D01*
X170466Y257116D01*
D02*
G37*
G36*
X115709Y249884D02*
X114416D01*
X113221Y249389D01*
X112307Y248475D01*
X111812Y247281D01*
Y245987D01*
X112307Y244793D01*
X113221Y243879D01*
X114416Y243384D01*
X115709D01*
X116903Y243879D01*
X117817Y244793D01*
X118312Y245987D01*
Y247281D01*
X117817Y248475D01*
X116903Y249389D01*
X115709Y249884D01*
D02*
G37*
G36*
X52413Y248618D02*
X51219D01*
X50117Y248161D01*
X49273Y247317D01*
X48816Y246215D01*
Y245021D01*
X49273Y243919D01*
X50117Y243075D01*
X51219Y242618D01*
X52413D01*
X53515Y243075D01*
X54359Y243919D01*
X54816Y245021D01*
Y246215D01*
X54359Y247317D01*
X53515Y248161D01*
X52413Y248618D01*
D02*
G37*
G36*
X178143Y247782D02*
X176949D01*
X175847Y247325D01*
X175003Y246481D01*
X174546Y245379D01*
Y244185D01*
X175003Y243083D01*
X175847Y242239D01*
X176949Y241782D01*
X178143D01*
X179245Y242239D01*
X180089Y243083D01*
X180546Y244185D01*
Y245379D01*
X180089Y246481D01*
X179245Y247325D01*
X178143Y247782D01*
D02*
G37*
G36*
X79387Y244042D02*
X78094D01*
X76899Y243547D01*
X75985Y242633D01*
X75490Y241439D01*
Y240145D01*
X75985Y238951D01*
X76899Y238037D01*
X78094Y237542D01*
X79387D01*
X80581Y238037D01*
X81495Y238951D01*
X81990Y240145D01*
Y241439D01*
X81495Y242633D01*
X80581Y243547D01*
X79387Y244042D01*
D02*
G37*
G36*
X195059Y241284D02*
X193866D01*
X192763Y240827D01*
X191919Y239983D01*
X191462Y238881D01*
Y237687D01*
X191919Y236585D01*
X192763Y235741D01*
X193866Y235284D01*
X195059D01*
X196162Y235741D01*
X197006Y236585D01*
X197462Y237687D01*
Y238881D01*
X197006Y239983D01*
X196162Y240827D01*
X195059Y241284D01*
D02*
G37*
G36*
X215530Y238962D02*
X214237D01*
X213043Y238467D01*
X212129Y237553D01*
X211634Y236359D01*
Y235065D01*
X212129Y233871D01*
X213043Y232957D01*
X214237Y232462D01*
X215530D01*
X216725Y232957D01*
X217639Y233871D01*
X218134Y235065D01*
Y236359D01*
X217639Y237553D01*
X216725Y238467D01*
X215530Y238962D01*
D02*
G37*
G36*
X92928Y231854D02*
X91735D01*
X90632Y231397D01*
X89788Y230553D01*
X89332Y229451D01*
Y228257D01*
X89788Y227155D01*
X90632Y226311D01*
X91735Y225854D01*
X92928D01*
X94031Y226311D01*
X94875Y227155D01*
X95331Y228257D01*
Y229451D01*
X94875Y230553D01*
X94031Y231397D01*
X92928Y231854D01*
D02*
G37*
G36*
X209920Y228298D02*
X208726D01*
X207624Y227841D01*
X206780Y226997D01*
X206323Y225895D01*
Y224701D01*
X206780Y223599D01*
X207624Y222755D01*
X208726Y222298D01*
X209920D01*
X211022Y222755D01*
X211866Y223599D01*
X212323Y224701D01*
Y225895D01*
X211866Y226997D01*
X211022Y227841D01*
X209920Y228298D01*
D02*
G37*
G36*
X173957Y227118D02*
X172763D01*
X171661Y226661D01*
X170817Y225818D01*
X170360Y224715D01*
Y223521D01*
X170817Y222419D01*
X171661Y221575D01*
X172763Y221118D01*
X173957D01*
X175059Y221575D01*
X175903Y222419D01*
X176360Y223521D01*
Y224715D01*
X175903Y225818D01*
X175059Y226661D01*
X173957Y227118D01*
D02*
G37*
G36*
X266584Y226262D02*
X265292D01*
X264097Y225767D01*
X263183Y224853D01*
X262688Y223659D01*
Y222365D01*
X262712Y222309D01*
X256783Y216380D01*
X256396Y215802D01*
X256260Y215119D01*
Y198093D01*
X256204Y198070D01*
X255289Y197156D01*
X254795Y195961D01*
Y194668D01*
X255289Y193474D01*
X256204Y192560D01*
X257398Y192065D01*
X258691D01*
X258748Y192088D01*
X260836Y190000D01*
X261415Y189613D01*
X262097Y189478D01*
X282463D01*
X282487Y189421D01*
X283401Y188507D01*
X284596Y188012D01*
X285889D01*
X287083Y188507D01*
X287997Y189421D01*
X288492Y190616D01*
Y191908D01*
X287997Y193103D01*
X287083Y194017D01*
X285889Y194512D01*
X284596D01*
X283401Y194017D01*
X282487Y193103D01*
X282463Y193046D01*
X262837D01*
X261271Y194612D01*
X261295Y194668D01*
Y195961D01*
X260800Y197156D01*
X259886Y198070D01*
X259829Y198093D01*
Y214380D01*
X265235Y219785D01*
X265292Y219762D01*
X266584D01*
X267779Y220257D01*
X268693Y221171D01*
X269188Y222365D01*
Y223659D01*
X268693Y224853D01*
X267779Y225767D01*
X266584Y226262D01*
D02*
G37*
G36*
X76802Y224440D02*
X75509D01*
X74315Y223945D01*
X73401Y223031D01*
X72906Y221836D01*
Y220543D01*
X73401Y219349D01*
X74315Y218435D01*
X75509Y217940D01*
X76802D01*
X77997Y218435D01*
X78911Y219349D01*
X79406Y220543D01*
Y221836D01*
X78911Y223031D01*
X77997Y223945D01*
X76802Y224440D01*
D02*
G37*
G36*
X287666Y218896D02*
X286374D01*
X285179Y218401D01*
X284265Y217487D01*
X283770Y216292D01*
Y215000D01*
X284265Y213805D01*
X285179Y212891D01*
X286374Y212396D01*
X287666D01*
X288861Y212891D01*
X289775Y213805D01*
X290270Y215000D01*
Y216292D01*
X289775Y217487D01*
X288861Y218401D01*
X287666Y218896D01*
D02*
G37*
G36*
X56985Y216360D02*
X55791D01*
X54689Y215903D01*
X53845Y215059D01*
X53388Y213957D01*
Y212763D01*
X53845Y211661D01*
X54689Y210817D01*
X55791Y210360D01*
X56985D01*
X58087Y210817D01*
X58931Y211661D01*
X59388Y212763D01*
Y213957D01*
X58931Y215059D01*
X58087Y215903D01*
X56985Y216360D01*
D02*
G37*
G36*
X34485Y215816D02*
X33292D01*
X32189Y215360D01*
X31345Y214516D01*
X30889Y213413D01*
Y212220D01*
X31345Y211117D01*
X32189Y210273D01*
X33292Y209816D01*
X34485D01*
X35588Y210273D01*
X36432Y211117D01*
X36889Y212220D01*
Y213413D01*
X36432Y214516D01*
X35588Y215360D01*
X34485Y215816D01*
D02*
G37*
G36*
X230809Y223895D02*
X229516D01*
X228322Y223400D01*
X227407Y222486D01*
X226913Y221292D01*
Y219999D01*
X227407Y218804D01*
X228322Y217890D01*
X228950Y216255D01*
X228906Y216149D01*
Y214856D01*
X229401Y213661D01*
X230310Y212752D01*
X230309Y212650D01*
X230258Y211795D01*
X230145Y211443D01*
X229045Y210987D01*
X228131Y210073D01*
X227636Y208879D01*
Y207586D01*
X228131Y206391D01*
X229045Y205477D01*
X230240Y204982D01*
X231532D01*
X232727Y205477D01*
X233641Y206391D01*
X234136Y207586D01*
Y208879D01*
X233641Y210073D01*
X232732Y210982D01*
X232733Y211085D01*
X232784Y211940D01*
X232897Y212292D01*
X233997Y212747D01*
X234911Y213661D01*
X235406Y214856D01*
X236595Y214660D01*
X236595Y214053D01*
X237090Y212858D01*
X238004Y211944D01*
X239199Y211449D01*
X240492D01*
X241686Y211944D01*
X241860Y212118D01*
X243130Y211592D01*
Y211172D01*
X243625Y209977D01*
X244539Y209063D01*
X245734Y208568D01*
X247027D01*
X248221Y209063D01*
X249135Y209977D01*
X249630Y211172D01*
Y212465D01*
X249135Y213659D01*
X248221Y214573D01*
X247027Y215068D01*
X245734D01*
X244539Y214573D01*
X244365Y214400D01*
X243095Y214925D01*
Y215345D01*
X242600Y216540D01*
X241686Y217454D01*
X240492Y217949D01*
X239199D01*
X238004Y217454D01*
X237090Y216540D01*
X236595Y215346D01*
X235406Y215541D01*
X235406Y216149D01*
X234911Y217343D01*
X233997Y218257D01*
X233368Y219892D01*
X233413Y219999D01*
Y221292D01*
X232918Y222486D01*
X232004Y223400D01*
X230809Y223895D01*
D02*
G37*
G36*
X154687Y218509D02*
X153493D01*
X152391Y218053D01*
X151547Y217209D01*
X151090Y216106D01*
Y214913D01*
X151547Y213810D01*
X152391Y212966D01*
X152508Y212377D01*
X152397Y212265D01*
X151940Y211163D01*
Y209969D01*
X152397Y208867D01*
X153241Y208023D01*
X154343Y207566D01*
X155537D01*
X156639Y208023D01*
X157483Y208867D01*
X157940Y209969D01*
Y211163D01*
X157483Y212265D01*
X156639Y213109D01*
X156522Y213699D01*
X156633Y213810D01*
X157090Y214913D01*
Y216106D01*
X156633Y217209D01*
X155789Y218053D01*
X154687Y218509D01*
D02*
G37*
G36*
X76035Y207978D02*
X74841D01*
X73739Y207521D01*
X72895Y206677D01*
X72438Y205575D01*
Y204381D01*
X72895Y203279D01*
X73739Y202435D01*
X74841Y201978D01*
X76035D01*
X77137Y202435D01*
X77981Y203279D01*
X78438Y204381D01*
Y205575D01*
X77981Y206677D01*
X77137Y207521D01*
X76035Y207978D01*
D02*
G37*
G36*
X237374Y203450D02*
X236082D01*
X234887Y202955D01*
X233973Y202041D01*
X233478Y200847D01*
X232265Y200934D01*
X230973D01*
X229778Y200439D01*
X228864Y199525D01*
X228369Y198331D01*
Y197038D01*
X228864Y195843D01*
X229778Y194929D01*
X230973Y194434D01*
X232265D01*
X233460Y194929D01*
X234374Y195843D01*
X234869Y197038D01*
X236082Y196950D01*
X237374D01*
X239007Y196252D01*
X239039Y196176D01*
X239953Y195262D01*
X241147Y194767D01*
X242440D01*
X243635Y195262D01*
X244549Y196176D01*
X245689Y195782D01*
X246884Y195287D01*
X248177D01*
X249371Y195782D01*
X250285Y196696D01*
X250780Y197891D01*
Y199184D01*
X250285Y200378D01*
X249371Y201292D01*
X248177Y201787D01*
X246884D01*
X245689Y201292D01*
X244775Y200378D01*
X243635Y200772D01*
X242440Y201267D01*
X241147D01*
X239515Y201965D01*
X239483Y202041D01*
X238569Y202955D01*
X237374Y203450D01*
D02*
G37*
G36*
X102155Y205184D02*
X100961D01*
X99859Y204727D01*
X99015Y203883D01*
X98558Y202781D01*
Y201587D01*
X99015Y200485D01*
X99859Y199641D01*
X100961Y199184D01*
X102155D01*
X103257Y199641D01*
X104101Y200485D01*
X104558Y201587D01*
Y202781D01*
X104101Y203883D01*
X103257Y204727D01*
X102155Y205184D01*
D02*
G37*
G36*
X19634Y214580D02*
X18950Y214422D01*
X18416Y214315D01*
X17674Y214168D01*
X17582Y214106D01*
X17471D01*
X16270Y213608D01*
X16191Y213530D01*
X16082Y213508D01*
X15428Y213071D01*
X15001Y212786D01*
X14406Y212404D01*
X14388Y212396D01*
X14388Y212396D01*
X14264Y212271D01*
X14139Y212147D01*
X14139Y212147D01*
X14130Y212126D01*
X13782Y211567D01*
X13472Y211103D01*
X13060Y210485D01*
X13038Y210377D01*
X12960Y210298D01*
X12462Y209097D01*
Y208986D01*
X12400Y208894D01*
X12253Y208153D01*
X12146Y207618D01*
X11988Y206943D01*
Y206455D01*
X12146Y205894D01*
X12274Y205254D01*
X12400Y204618D01*
X12462Y204526D01*
Y204415D01*
X12960Y203214D01*
X13038Y203135D01*
X13060Y203026D01*
X13782Y201945D01*
X14046Y201475D01*
X14059Y201445D01*
X14059Y201445D01*
X14321Y201184D01*
X14582Y200922D01*
X14582Y200922D01*
X14656Y200891D01*
X14983Y200735D01*
X15573Y200344D01*
X15931Y200105D01*
X16083Y200004D01*
X16191Y199982D01*
X16270Y199904D01*
X17471Y199406D01*
X17582D01*
X17674Y199344D01*
X18199Y199240D01*
X19068Y199045D01*
X19361Y198933D01*
X19362Y198932D01*
X19362Y198932D01*
X20245Y198932D01*
X20564Y199050D01*
X20587Y199055D01*
X21408Y199236D01*
X21950Y199344D01*
X22042Y199406D01*
X22153D01*
X23354Y199904D01*
X23433Y199982D01*
X23542Y200004D01*
X23722Y200124D01*
X24639Y200734D01*
X24996Y200910D01*
X25055Y200935D01*
X25055Y200935D01*
X25294Y201175D01*
X25535Y201414D01*
X25535Y201415D01*
X25545Y201440D01*
X25842Y201945D01*
X26564Y203027D01*
X26586Y203135D01*
X26664Y203214D01*
X27162Y204415D01*
Y204526D01*
X27224Y204618D01*
X27478Y205894D01*
X27636Y206499D01*
Y206900D01*
X27478Y207618D01*
X27378Y208120D01*
X27224Y208894D01*
X27162Y208986D01*
Y209097D01*
X26664Y210298D01*
X26586Y210377D01*
X26564Y210485D01*
X26129Y211137D01*
X25842Y211567D01*
X25463Y212158D01*
X25455Y212177D01*
X25455Y212177D01*
X25351Y212279D01*
X25249Y212383D01*
X25249Y212383D01*
X25231Y212391D01*
X24623Y212786D01*
X24210Y213062D01*
X23542Y213508D01*
X23433Y213530D01*
X23354Y213608D01*
X22153Y214106D01*
X22042D01*
X21950Y214168D01*
X21191Y214319D01*
X20674Y214422D01*
X19972Y214580D01*
X19634D01*
X19634D01*
D02*
G37*
G36*
X153223Y204930D02*
X152029D01*
X150927Y204473D01*
X150083Y203629D01*
X149626Y202527D01*
Y201333D01*
X150083Y200231D01*
X150927Y199387D01*
X152029Y198930D01*
X153223D01*
X154326Y199387D01*
X155169Y200231D01*
X155626Y201333D01*
Y202527D01*
X155169Y203629D01*
X154326Y204473D01*
X153223Y204930D01*
D02*
G37*
G36*
X321310Y214569D02*
X320717Y214411D01*
X320099Y214288D01*
X319441Y214157D01*
X319349Y214096D01*
X319238D01*
X318036Y213598D01*
X317957Y213519D01*
X317849Y213498D01*
X316767Y212775D01*
X316242Y212459D01*
X316218Y212449D01*
X316218Y212449D01*
X316004Y212233D01*
X315788Y212019D01*
X315788Y212019D01*
X315771Y211978D01*
X315550Y211560D01*
X314982Y210708D01*
X314826Y210475D01*
X314804Y210366D01*
X314726Y210288D01*
X314228Y209086D01*
Y208975D01*
X314166Y208883D01*
X314044Y208268D01*
X313908Y207592D01*
X313796Y207231D01*
X313755Y207099D01*
X313755Y207099D01*
X313755Y206299D01*
X314033Y205247D01*
X314037Y205227D01*
X314166Y204608D01*
X314190Y204573D01*
X314227Y204410D01*
X314228Y204405D01*
X314416Y203952D01*
X314726Y203203D01*
X314804Y203125D01*
X314826Y203016D01*
X315124Y202570D01*
X315606Y201805D01*
X315667Y201670D01*
X315723Y201536D01*
X315723Y201536D01*
X316050Y201211D01*
X316376Y200884D01*
X316376Y200883D01*
X316556Y200809D01*
X316642Y200771D01*
X317411Y200285D01*
X317849Y199993D01*
X317957Y199971D01*
X318036Y199893D01*
X319238Y199395D01*
X319349D01*
X319441Y199333D01*
X319530Y199316D01*
X319982Y199224D01*
X320832Y199028D01*
X321089Y198922D01*
X321921D01*
X322397Y199067D01*
X323090Y199209D01*
X323716Y199333D01*
X323808Y199395D01*
X323919D01*
X325121Y199893D01*
X325199Y199971D01*
X325308Y199993D01*
X326389Y200716D01*
X326854Y200975D01*
X326885Y200988D01*
X326885Y200988D01*
X327034Y201138D01*
X327183Y201286D01*
X327184Y201287D01*
X327191Y201304D01*
X327608Y201934D01*
X327867Y202321D01*
X328330Y203016D01*
X328352Y203125D01*
X328431Y203203D01*
X328928Y204405D01*
Y204516D01*
X328990Y204608D01*
X329154Y205431D01*
X329244Y205884D01*
X329402Y206655D01*
Y206745D01*
X329244Y207607D01*
X329171Y207974D01*
X328990Y208883D01*
X328928Y208975D01*
Y209086D01*
X328431Y210288D01*
X328352Y210366D01*
X328330Y210475D01*
X327820Y211239D01*
X327608Y211556D01*
X327125Y212254D01*
X327119Y212269D01*
X327119Y212269D01*
X327080Y212306D01*
X327043Y212345D01*
X327043Y212345D01*
X327026Y212352D01*
X326389Y212775D01*
X326007Y213030D01*
X325308Y213498D01*
X325199Y213519D01*
X325121Y213598D01*
X323919Y214096D01*
X323808D01*
X323716Y214157D01*
X322921Y214315D01*
X322440Y214411D01*
X321700Y214569D01*
X321310D01*
X321310D01*
D02*
G37*
G36*
X286397Y202640D02*
X285103D01*
X283909Y202145D01*
X282995Y201231D01*
X282500Y200037D01*
Y198743D01*
X282995Y197549D01*
X283909Y196635D01*
X285103Y196140D01*
X286397D01*
X287591Y196635D01*
X288505Y197549D01*
X289000Y198743D01*
Y200037D01*
X288505Y201231D01*
X287591Y202145D01*
X286397Y202640D01*
D02*
G37*
G36*
X169735Y194603D02*
X168641D01*
X167630Y194184D01*
X166857Y193411D01*
X166453Y192435D01*
X165876D01*
X164865Y192017D01*
X164855Y192006D01*
X164324Y192226D01*
X163032D01*
X161837Y191731D01*
X160923Y190817D01*
X160428Y189622D01*
Y188330D01*
X160923Y187135D01*
X161837Y186221D01*
X163032Y185726D01*
X164324D01*
X165519Y186221D01*
X166233Y186935D01*
X166970D01*
X167980Y187354D01*
X168754Y188127D01*
X169158Y189103D01*
X169735D01*
X170746Y189522D01*
X171519Y190295D01*
X171938Y191306D01*
Y192400D01*
X171519Y193411D01*
X170746Y194184D01*
X169735Y194603D01*
D02*
G37*
G36*
X25069Y197598D02*
X23776D01*
X22581Y197103D01*
X21667Y196189D01*
X21172Y194994D01*
Y193701D01*
X21667Y192507D01*
X22581Y191593D01*
X23776Y191098D01*
X25069D01*
X26263Y191593D01*
X27177Y192507D01*
X27672Y193701D01*
Y194994D01*
X27177Y196189D01*
X26263Y197103D01*
X25069Y197598D01*
D02*
G37*
G36*
X92086Y196036D02*
X90794D01*
X89599Y195541D01*
X88685Y194627D01*
X88190Y193433D01*
Y192139D01*
X88685Y190945D01*
X89599Y190031D01*
X90794Y189536D01*
X92086D01*
X93281Y190031D01*
X94195Y190945D01*
X94690Y192139D01*
Y193433D01*
X94195Y194627D01*
X93281Y195541D01*
X92086Y196036D01*
D02*
G37*
G36*
X154177Y191726D02*
X153083D01*
X152072Y191307D01*
X151299Y190534D01*
X150880Y189523D01*
Y188429D01*
X151299Y187418D01*
X152072Y186645D01*
X153083Y186226D01*
X154177D01*
X155188Y186645D01*
X155961Y187418D01*
X156380Y188429D01*
Y189523D01*
X155961Y190534D01*
X155188Y191307D01*
X154177Y191726D01*
D02*
G37*
G36*
X146901Y189436D02*
X145707D01*
X144605Y188979D01*
X143761Y188135D01*
X143304Y187033D01*
Y185839D01*
X143761Y184737D01*
X144605Y183893D01*
X145707Y183436D01*
X146901D01*
X148003Y183893D01*
X148847Y184737D01*
X149304Y185839D01*
Y187033D01*
X148847Y188135D01*
X148003Y188979D01*
X146901Y189436D01*
D02*
G37*
G36*
X103819Y181558D02*
X102526D01*
X101331Y181063D01*
X100417Y180149D01*
X99922Y178955D01*
Y177661D01*
X100417Y176467D01*
X101331Y175553D01*
X102526Y175058D01*
X103819D01*
X105013Y175553D01*
X105927Y176467D01*
X106422Y177661D01*
Y178955D01*
X105927Y180149D01*
X105013Y181063D01*
X103819Y181558D01*
D02*
G37*
G36*
X124656Y179581D02*
X123363D01*
X122168Y179087D01*
X121254Y178172D01*
X120759Y176978D01*
Y175685D01*
X121254Y174490D01*
X122168Y173576D01*
X123363Y173081D01*
X124656D01*
X125850Y173576D01*
X126765Y174490D01*
X127259Y175685D01*
Y176978D01*
X126765Y178172D01*
X125850Y179087D01*
X124656Y179581D01*
D02*
G37*
G36*
X19621Y183544D02*
X18328D01*
X17134Y183049D01*
X16220Y182135D01*
X15725Y180940D01*
Y179647D01*
X16220Y178453D01*
X17134Y177539D01*
X18328Y177044D01*
X19621D01*
X20768Y177519D01*
X21216Y177311D01*
X21538Y177128D01*
X21896Y176823D01*
Y175631D01*
X22391Y174437D01*
X23305Y173522D01*
X24499Y173028D01*
X25793D01*
X26987Y173522D01*
X27901Y174437D01*
X28396Y175631D01*
Y176924D01*
X27901Y178119D01*
X26987Y179033D01*
X25793Y179528D01*
X24499D01*
X23353Y179053D01*
X22905Y179261D01*
X22583Y179444D01*
X22225Y179749D01*
Y180940D01*
X21730Y182135D01*
X20816Y183049D01*
X19621Y183544D01*
D02*
G37*
G36*
X131007Y174958D02*
X129814D01*
X128711Y174501D01*
X127867Y173657D01*
X127410Y172555D01*
Y171361D01*
X127867Y170259D01*
X128711Y169415D01*
X129814Y168958D01*
X131007D01*
X132110Y169415D01*
X132954Y170259D01*
X133410Y171361D01*
Y172555D01*
X132954Y173657D01*
X132110Y174501D01*
X131007Y174958D01*
D02*
G37*
G36*
X103517Y166131D02*
X102224D01*
X101029Y165636D01*
X100906Y165513D01*
X100076Y164757D01*
X99246Y165513D01*
X99123Y165636D01*
X97928Y166131D01*
X96636D01*
X95441Y165636D01*
X94527Y164722D01*
X94032Y163528D01*
Y162235D01*
X94527Y161040D01*
X95441Y160126D01*
X96636Y159631D01*
X97928D01*
X99123Y160126D01*
X99246Y160249D01*
X100076Y161005D01*
X100906Y160249D01*
X101029Y160126D01*
X102224Y159631D01*
X103517D01*
X104711Y160126D01*
X105625Y161040D01*
X106120Y162235D01*
Y163528D01*
X105625Y164722D01*
X104711Y165636D01*
X103517Y166131D01*
D02*
G37*
G36*
X21776Y162980D02*
X20484D01*
X19289Y162486D01*
X18375Y161572D01*
X17880Y160377D01*
Y159084D01*
X18375Y157890D01*
X19289Y156975D01*
X20484Y156481D01*
X21776D01*
X22971Y156975D01*
X23885Y157890D01*
X24380Y159084D01*
Y160377D01*
X23885Y161572D01*
X22971Y162486D01*
X21776Y162980D01*
D02*
G37*
G36*
X60472Y157893D02*
X59179D01*
X57984Y157398D01*
X57070Y156484D01*
X55672Y156426D01*
X55093Y156666D01*
X53801D01*
X52606Y156171D01*
X51692Y155257D01*
X51197Y154062D01*
Y152769D01*
X51692Y151575D01*
X52606Y150661D01*
X53801Y150166D01*
X55093D01*
X56288Y150661D01*
X57202Y151575D01*
X58601Y151632D01*
X59179Y151393D01*
X60472D01*
X61666Y151888D01*
X62580Y152802D01*
X63075Y153996D01*
Y155289D01*
X62580Y156484D01*
X61666Y157398D01*
X60472Y157893D01*
D02*
G37*
G36*
X8725Y157686D02*
X7531D01*
X6429Y157229D01*
X5585Y156385D01*
X5128Y155283D01*
Y154089D01*
X5585Y152987D01*
X6429Y152143D01*
X7531Y151686D01*
X8725D01*
X9827Y152143D01*
X10671Y152987D01*
X11128Y154089D01*
Y155283D01*
X10671Y156385D01*
X9827Y157229D01*
X8725Y157686D01*
D02*
G37*
G36*
X79957Y155866D02*
X78763D01*
X77661Y155409D01*
X76817Y154565D01*
X76360Y153462D01*
Y152269D01*
X76817Y151166D01*
X77661Y150322D01*
X78763Y149866D01*
X79957D01*
X81059Y150322D01*
X81903Y151166D01*
X82360Y152269D01*
Y153462D01*
X81903Y154565D01*
X81059Y155409D01*
X79957Y155866D01*
D02*
G37*
G36*
X90862Y149212D02*
X89669D01*
X88566Y148755D01*
X87722Y147911D01*
X87306Y146906D01*
X86816Y146672D01*
X85996Y146421D01*
X85701Y146715D01*
X84507Y147210D01*
X83214D01*
X82019Y146715D01*
X81105Y145801D01*
X80610Y144607D01*
Y143314D01*
X81105Y142119D01*
X82019Y141205D01*
X83214Y140710D01*
X84507D01*
X85701Y141205D01*
X86615Y142119D01*
X87110Y143314D01*
Y143329D01*
X88380Y143855D01*
X88566Y143669D01*
X89669Y143212D01*
X90862D01*
X91965Y143669D01*
X92809Y144513D01*
X93265Y145615D01*
Y146809D01*
X92809Y147911D01*
X91965Y148755D01*
X90862Y149212D01*
D02*
G37*
G36*
X327037Y149554D02*
X325743D01*
X324549Y149059D01*
X323635Y148145D01*
X323140Y146951D01*
Y145658D01*
X323635Y144463D01*
X324549Y143549D01*
X325743Y143054D01*
X327037D01*
X328231Y143549D01*
X329145Y144463D01*
X329640Y145658D01*
Y146951D01*
X329145Y148145D01*
X328231Y149059D01*
X327037Y149554D01*
D02*
G37*
G36*
X90662Y141500D02*
X89369D01*
X88175Y141005D01*
X87260Y140091D01*
X86766Y138896D01*
Y137604D01*
X87260Y136409D01*
X88175Y135495D01*
X89369Y135000D01*
X90662D01*
X91856Y135495D01*
X92771Y136409D01*
X93265Y137604D01*
Y138896D01*
X92771Y140091D01*
X91856Y141005D01*
X90662Y141500D01*
D02*
G37*
G36*
X67628Y138613D02*
X66335D01*
X65141Y138118D01*
X64227Y137204D01*
X63732Y136010D01*
Y134717D01*
X64227Y133522D01*
X65141Y132608D01*
X66335Y132113D01*
X67628D01*
X68823Y132608D01*
X69737Y133522D01*
X70232Y134717D01*
Y136010D01*
X69737Y137204D01*
X68823Y138118D01*
X67628Y138613D01*
D02*
G37*
G36*
X332370Y135838D02*
X331077D01*
X329883Y135343D01*
X328969Y134429D01*
X328474Y133235D01*
Y131941D01*
X328969Y130747D01*
X329883Y129833D01*
X331077Y129338D01*
X332370D01*
X333565Y129833D01*
X334479Y130747D01*
X334974Y131941D01*
Y133235D01*
X334479Y134429D01*
X333565Y135343D01*
X332370Y135838D01*
D02*
G37*
G36*
X54818Y135693D02*
X53525D01*
X52330Y135198D01*
X51416Y134284D01*
X50921Y133089D01*
Y131796D01*
X51416Y130602D01*
X52330Y129687D01*
X53525Y129193D01*
X54818D01*
X56012Y129687D01*
X56926Y130602D01*
X57421Y131796D01*
Y133089D01*
X56926Y134284D01*
X56012Y135198D01*
X54818Y135693D01*
D02*
G37*
G36*
X77493Y133630D02*
X76300D01*
X75197Y133173D01*
X74353Y132329D01*
X73896Y131227D01*
Y130033D01*
X74353Y128930D01*
X75197Y128087D01*
X76300Y127630D01*
X77493D01*
X78596Y128087D01*
X79440Y128930D01*
X79896Y130033D01*
Y131227D01*
X79440Y132329D01*
X78596Y133173D01*
X77493Y133630D01*
D02*
G37*
G36*
X59779Y129448D02*
X58585D01*
X57483Y128991D01*
X56639Y128147D01*
X56182Y127045D01*
Y125851D01*
X56639Y124749D01*
X57483Y123905D01*
X58585Y123448D01*
X59779D01*
X60881Y123905D01*
X61725Y124749D01*
X62182Y125851D01*
Y127045D01*
X61725Y128147D01*
X60881Y128991D01*
X59779Y129448D01*
D02*
G37*
G36*
X39545Y128677D02*
X38252D01*
X37058Y128183D01*
X36143Y127268D01*
X35649Y126074D01*
Y124781D01*
X36143Y123586D01*
X37058Y122672D01*
X38252Y122177D01*
X39545D01*
X40739Y122672D01*
X41654Y123586D01*
X42149Y124781D01*
Y126074D01*
X41654Y127268D01*
X40739Y128183D01*
X39545Y128677D01*
D02*
G37*
G36*
X302312Y128073D02*
X301119D01*
X300016Y127616D01*
X299172Y126772D01*
X298715Y125669D01*
Y124476D01*
X299172Y123373D01*
X300016Y122529D01*
X301119Y122073D01*
X302312D01*
X303415Y122529D01*
X304259Y123373D01*
X304715Y124476D01*
Y125669D01*
X304259Y126772D01*
X303415Y127616D01*
X302312Y128073D01*
D02*
G37*
G36*
X70295Y127346D02*
X69002D01*
X67807Y126851D01*
X66893Y125937D01*
X66398Y124742D01*
Y123449D01*
X66893Y122255D01*
X67807Y121341D01*
X69002Y120846D01*
X70295D01*
X71489Y121341D01*
X72403Y122255D01*
X72898Y123449D01*
Y124742D01*
X72403Y125937D01*
X71489Y126851D01*
X70295Y127346D01*
D02*
G37*
G36*
X327676Y126214D02*
X326483D01*
X325380Y125757D01*
X324536Y124913D01*
X324079Y123811D01*
Y122617D01*
X324536Y121515D01*
X325380Y120671D01*
X326483Y120214D01*
X327676D01*
X328779Y120671D01*
X329623Y121515D01*
X330079Y122617D01*
Y123811D01*
X329623Y124913D01*
X328779Y125757D01*
X327676Y126214D01*
D02*
G37*
G36*
X52431Y125932D02*
X51137D01*
X49943Y125437D01*
X49029Y124523D01*
X48534Y123329D01*
Y122036D01*
X49029Y120841D01*
X49943Y119927D01*
X51137Y119432D01*
X52431D01*
X53625Y119927D01*
X54539Y120841D01*
X55034Y122036D01*
Y123329D01*
X54539Y124523D01*
X53625Y125437D01*
X52431Y125932D01*
D02*
G37*
G36*
X12675Y118614D02*
X11481D01*
X10379Y118158D01*
X9535Y117314D01*
X9078Y116211D01*
Y115018D01*
X9535Y113915D01*
X10379Y113071D01*
X11481Y112614D01*
X12675D01*
X13777Y113071D01*
X14621Y113915D01*
X15078Y115018D01*
Y116211D01*
X14621Y117314D01*
X13777Y118158D01*
X12675Y118614D01*
D02*
G37*
G36*
X55673Y117550D02*
X54381D01*
X53186Y117055D01*
X52272Y116141D01*
X51777Y114946D01*
Y113653D01*
X52272Y112459D01*
X53186Y111545D01*
X54381Y111050D01*
X55673D01*
X56868Y111545D01*
X57782Y112459D01*
X58277Y113653D01*
Y114946D01*
X57782Y116141D01*
X56868Y117055D01*
X55673Y117550D01*
D02*
G37*
G36*
X34308Y114997D02*
X33214D01*
X32203Y114578D01*
X31430Y113805D01*
X31011Y112794D01*
Y111700D01*
X31430Y110689D01*
X32203Y109916D01*
X33214Y109497D01*
X33318D01*
Y109322D01*
X33737Y108311D01*
X34510Y107538D01*
X35521Y107119D01*
X36615D01*
X37626Y107538D01*
X38399Y108311D01*
X39336Y108805D01*
X39795Y108615D01*
X40347Y108386D01*
X41441D01*
X42452Y108805D01*
X43225Y109578D01*
X43644Y110589D01*
Y111683D01*
X43225Y112694D01*
X42452Y113467D01*
X41441Y113886D01*
X40347D01*
X39336Y113467D01*
X38563Y112694D01*
X37626Y112200D01*
X37167Y112390D01*
X36615Y112619D01*
X36511D01*
Y112794D01*
X36092Y113805D01*
X35319Y114578D01*
X34308Y114997D01*
D02*
G37*
G36*
X303414Y114502D02*
X302122D01*
X300927Y114007D01*
X300013Y113093D01*
X299518Y111898D01*
Y110605D01*
X300013Y109411D01*
X300927Y108497D01*
X302122Y108002D01*
X303414D01*
X304609Y108497D01*
X305523Y109411D01*
X306018Y110605D01*
Y111898D01*
X305523Y113093D01*
X304609Y114007D01*
X303414Y114502D01*
D02*
G37*
G36*
X70243Y114459D02*
X68949D01*
X67755Y113964D01*
X66841Y113050D01*
X66346Y111855D01*
Y110562D01*
X66841Y109368D01*
X67755Y108454D01*
X68949Y107959D01*
X70243D01*
X70689Y108144D01*
X71418Y107657D01*
X71837Y106646D01*
X72610Y105873D01*
X73621Y105454D01*
X74715D01*
X75726Y105873D01*
X76454Y106601D01*
X77182Y105873D01*
X78193Y105454D01*
X79287D01*
X80298Y105873D01*
X80347Y105922D01*
X81057Y106267D01*
X81901Y105423D01*
X83004Y104966D01*
X84197D01*
X85300Y105423D01*
X86144Y106267D01*
X86601Y107369D01*
Y108563D01*
X86144Y109665D01*
X85300Y110509D01*
X84197Y110966D01*
X83004D01*
X81901Y110509D01*
X81140Y109748D01*
X81071Y109762D01*
X80298Y110535D01*
X79287Y110954D01*
X78193D01*
X77182Y110535D01*
X76454Y109807D01*
X75726Y110535D01*
X74715Y110954D01*
X73621D01*
X73543Y111006D01*
X72792Y111985D01*
X72351Y113050D01*
X71437Y113964D01*
X70243Y114459D01*
D02*
G37*
G36*
X41491Y106886D02*
X40297D01*
X39195Y106429D01*
X38351Y105585D01*
X37894Y104483D01*
Y103289D01*
X38351Y102187D01*
X39195Y101343D01*
X40297Y100886D01*
X41491D01*
X42593Y101343D01*
X43437Y102187D01*
X43894Y103289D01*
Y104483D01*
X43437Y105585D01*
X42593Y106429D01*
X41491Y106886D01*
D02*
G37*
G36*
X27939Y107497D02*
X26646D01*
X25451Y107002D01*
X24537Y106088D01*
X24042Y104893D01*
Y103600D01*
X24537Y102406D01*
X25451Y101491D01*
X26646Y100997D01*
X27939D01*
X28790Y101349D01*
X29779Y100890D01*
X30060Y100627D01*
X30555Y99433D01*
X31469Y98519D01*
X32664Y98024D01*
X33956D01*
X35151Y98519D01*
X36065Y99433D01*
X36560Y100627D01*
Y101920D01*
X36065Y103115D01*
X35151Y104029D01*
X33956Y104524D01*
X32664D01*
X31812Y104171D01*
X30824Y104631D01*
X30542Y104893D01*
X30048Y106088D01*
X29133Y107002D01*
X27939Y107497D01*
D02*
G37*
G36*
X76035Y100790D02*
X74841D01*
X73739Y100333D01*
X72895Y99489D01*
X72438Y98387D01*
Y97193D01*
X72895Y96091D01*
X73739Y95247D01*
X74841Y94790D01*
X76035D01*
X77137Y95247D01*
X77981Y96091D01*
X78438Y97193D01*
Y98387D01*
X77981Y99489D01*
X77137Y100333D01*
X76035Y100790D01*
D02*
G37*
G36*
X33832Y94358D02*
X32539D01*
X31344Y93863D01*
X30430Y92949D01*
X29567Y93393D01*
X29527Y93433D01*
X28333Y93928D01*
X27039D01*
X25845Y93433D01*
X24931Y92519D01*
X24436Y91325D01*
Y90031D01*
X24931Y88837D01*
X25845Y87923D01*
X27039Y87428D01*
X28333D01*
X29527Y87923D01*
X30441Y88837D01*
X31304Y88393D01*
X31344Y88353D01*
X32539Y87858D01*
X33832D01*
X34962Y87152D01*
X35297Y86343D01*
X36211Y85428D01*
X37406Y84934D01*
X38699D01*
X39335Y85197D01*
X40698Y85225D01*
X41612Y84310D01*
X42807Y83816D01*
X44100D01*
X45294Y84310D01*
X46209Y85225D01*
X46703Y86419D01*
Y87712D01*
X46209Y88907D01*
X45294Y89821D01*
X44100Y90316D01*
X42807D01*
X42171Y90052D01*
X40807Y90025D01*
X39893Y90939D01*
X38699Y91434D01*
X37406D01*
X36275Y92140D01*
X35940Y92949D01*
X35026Y93863D01*
X33832Y94358D01*
D02*
G37*
G36*
X325287Y98073D02*
X323994D01*
X322800Y97578D01*
X321886Y96664D01*
X321391Y95469D01*
Y94176D01*
X321886Y92982D01*
X322800Y92068D01*
X323994Y91573D01*
X325287D01*
X326482Y92068D01*
X327396Y92982D01*
X327891Y94176D01*
Y95469D01*
X327396Y96664D01*
X326482Y97578D01*
X325287Y98073D01*
D02*
G37*
G36*
X58001Y94948D02*
X56807D01*
X55705Y94491D01*
X54861Y93647D01*
X54404Y92545D01*
Y91351D01*
X54861Y90249D01*
X55705Y89405D01*
X56807Y88948D01*
X58001D01*
X59103Y89405D01*
X59947Y90249D01*
X60404Y91351D01*
Y92545D01*
X59947Y93647D01*
X59103Y94491D01*
X58001Y94948D01*
D02*
G37*
G36*
X65567Y92658D02*
X64274D01*
X63080Y92163D01*
X62166Y91249D01*
X61671Y90055D01*
Y88762D01*
X62166Y87567D01*
X63080Y86653D01*
X64274Y86158D01*
X65567D01*
X66762Y86653D01*
X67676Y87567D01*
X68171Y88762D01*
Y90055D01*
X67676Y91249D01*
X66762Y92163D01*
X65567Y92658D01*
D02*
G37*
G36*
X105530Y89868D02*
X104337D01*
X103234Y89411D01*
X102390Y88567D01*
X101933Y87465D01*
Y86271D01*
X102390Y85169D01*
X103234Y84325D01*
X104337Y83868D01*
X105530D01*
X106633Y84325D01*
X107477Y85169D01*
X107934Y86271D01*
Y87465D01*
X107477Y88567D01*
X106633Y89411D01*
X105530Y89868D01*
D02*
G37*
G36*
X325288Y88664D02*
X323995D01*
X322801Y88169D01*
X321886Y87255D01*
X321392Y86061D01*
Y84768D01*
X321886Y83573D01*
X322801Y82659D01*
X323995Y82164D01*
X325288D01*
X326483Y82659D01*
X327397Y83573D01*
X327892Y84768D01*
Y86061D01*
X327397Y87255D01*
X326483Y88169D01*
X325288Y88664D01*
D02*
G37*
G36*
X316391Y86700D02*
X315297D01*
X314286Y86281D01*
X313513Y85508D01*
X313094Y84497D01*
Y83403D01*
X313513Y82392D01*
X314286Y81619D01*
X315297Y81200D01*
X316391D01*
X317402Y81619D01*
X318175Y82392D01*
X318594Y83403D01*
Y84497D01*
X318175Y85508D01*
X317402Y86281D01*
X316391Y86700D01*
D02*
G37*
G36*
X79608Y92658D02*
X78316D01*
X77121Y92163D01*
X76207Y91249D01*
X75712Y90055D01*
Y88762D01*
X76207Y87567D01*
X76343Y87431D01*
X76045Y85933D01*
X75895Y85871D01*
X75051Y85027D01*
X74594Y83924D01*
Y82731D01*
X75051Y81628D01*
X75895Y80784D01*
X76997Y80328D01*
X78191D01*
X79293Y80784D01*
X80137Y81628D01*
X80594Y82731D01*
Y83924D01*
X80146Y85006D01*
X80138Y85029D01*
X80452Y86508D01*
X80803Y86653D01*
X81717Y87567D01*
X82212Y88762D01*
Y90055D01*
X81717Y91249D01*
X80803Y92163D01*
X79608Y92658D01*
D02*
G37*
G36*
X312391Y106700D02*
X311297D01*
X310286Y106281D01*
X309513Y105508D01*
X309094Y104497D01*
Y103403D01*
X308013Y103013D01*
X307992Y103008D01*
X307992D01*
X306797Y102514D01*
X305883Y101600D01*
X305388Y100405D01*
Y99112D01*
X305636Y98512D01*
X305610Y97127D01*
X304696Y96213D01*
X304201Y95018D01*
Y93725D01*
X304696Y92531D01*
X305257Y91970D01*
X305610Y91616D01*
X305334Y90397D01*
X305321Y90361D01*
X304837Y89192D01*
Y87899D01*
X305331Y86704D01*
X305152Y85088D01*
X304925Y84861D01*
X304430Y83667D01*
Y82374D01*
X304925Y81179D01*
X305839Y80265D01*
X307034Y79770D01*
X308327D01*
X309521Y80265D01*
X310436Y81179D01*
X310930Y82374D01*
Y83667D01*
X310436Y84861D01*
X310615Y86478D01*
X310842Y86704D01*
X311337Y87899D01*
Y89192D01*
X311342Y89200D01*
X312391D01*
X313402Y89619D01*
X314175Y90392D01*
X314594Y91403D01*
Y92497D01*
X314175Y93508D01*
X313402Y94281D01*
X312391Y94700D01*
X311297D01*
X310454Y95665D01*
X310479Y97003D01*
X311393Y97918D01*
X311888Y99112D01*
Y100405D01*
X311877Y100431D01*
X312391Y101200D01*
X313402Y101619D01*
X314175Y102392D01*
X314594Y103403D01*
Y104497D01*
X314175Y105508D01*
X313402Y106281D01*
X312391Y106700D01*
D02*
G37*
G36*
X16059Y82966D02*
X14865D01*
X13763Y82509D01*
X12919Y81665D01*
X12462Y80563D01*
Y79369D01*
X12919Y78267D01*
X13727Y77458D01*
X12919Y76649D01*
X12859Y76506D01*
X11435Y76135D01*
X10240Y76629D01*
X8947D01*
X7753Y76135D01*
X6839Y75220D01*
X6344Y74026D01*
Y72733D01*
X6839Y71538D01*
X7753Y70624D01*
X8947Y70129D01*
X10240D01*
X11435Y70624D01*
X12349Y71538D01*
X12491Y71882D01*
X13278Y72207D01*
X14017Y72301D01*
X14865Y71950D01*
X16059D01*
X17161Y72407D01*
X18005Y73251D01*
X18462Y74353D01*
Y75547D01*
X18005Y76649D01*
X17197Y77458D01*
X18005Y78267D01*
X18462Y79369D01*
Y80563D01*
X18005Y81665D01*
X17161Y82509D01*
X16059Y82966D01*
D02*
G37*
G36*
X312391Y74700D02*
X311297D01*
X310286Y74281D01*
X309513Y73508D01*
X309094Y72497D01*
Y71403D01*
X309513Y70392D01*
X310286Y69619D01*
X311297Y69200D01*
X311226Y67959D01*
X311011Y67430D01*
X310572Y67260D01*
X309750Y67578D01*
X309296Y68033D01*
X308101Y68528D01*
X306808D01*
X305614Y68033D01*
X304699Y67119D01*
X304205Y65925D01*
Y64632D01*
X304699Y63437D01*
X305614Y62523D01*
X306808Y62028D01*
X308101D01*
X309296Y62523D01*
X309750Y62978D01*
X310572Y63296D01*
X311394Y62978D01*
X311849Y62523D01*
X313043Y62028D01*
X314336D01*
X315531Y62523D01*
X316445Y63437D01*
X316940Y64632D01*
Y65925D01*
X316445Y67119D01*
X315531Y68033D01*
X314336Y68528D01*
X313970D01*
X313750Y68950D01*
X313581Y69798D01*
X314175Y70392D01*
X314594Y71403D01*
Y72497D01*
X314175Y73508D01*
X313402Y74281D01*
X312391Y74700D01*
D02*
G37*
G36*
X60512Y72937D02*
X59219D01*
X58024Y72442D01*
X57110Y71528D01*
X56615Y70333D01*
Y69040D01*
X57110Y67846D01*
X58024Y66932D01*
X59219Y66437D01*
X60512D01*
X61706Y66932D01*
X62621Y67846D01*
X63115Y69040D01*
Y70333D01*
X62621Y71528D01*
X61706Y72442D01*
X60512Y72937D01*
D02*
G37*
G36*
X28340Y71466D02*
X27147D01*
X26044Y71009D01*
X25200Y70165D01*
X24743Y69063D01*
Y67869D01*
X25200Y66767D01*
X26044Y65923D01*
X27147Y65466D01*
X28340D01*
X29443Y65923D01*
X30287Y66767D01*
X30744Y67869D01*
Y69063D01*
X30287Y70165D01*
X29443Y71009D01*
X28340Y71466D01*
D02*
G37*
G36*
X22745Y57098D02*
X21451D01*
X20257Y56603D01*
X19343Y55689D01*
X18848Y54495D01*
Y53201D01*
X19343Y52007D01*
X20257Y51093D01*
X21451Y50598D01*
X22745D01*
X23939Y51093D01*
X24853Y52007D01*
X25348Y53201D01*
Y54495D01*
X24853Y55689D01*
X23939Y56603D01*
X22745Y57098D01*
D02*
G37*
G36*
X7250Y53288D02*
X5957D01*
X4763Y52793D01*
X3849Y51879D01*
X3354Y50684D01*
Y49391D01*
X3849Y48197D01*
X4763Y47283D01*
X5957Y46788D01*
X7250D01*
X8445Y47283D01*
X9359Y48197D01*
X9854Y49391D01*
Y50684D01*
X9359Y51879D01*
X8445Y52793D01*
X7250Y53288D01*
D02*
G37*
G36*
X288125Y40846D02*
X286931D01*
X285829Y40389D01*
X284985Y39545D01*
X284706Y38874D01*
X283538Y38490D01*
X283282Y38502D01*
X283036Y38749D01*
X281841Y39243D01*
X280548D01*
X279354Y38749D01*
X278440Y37834D01*
X277945Y36640D01*
Y35347D01*
X278440Y34152D01*
X279354Y33238D01*
X280548Y32743D01*
X281841D01*
X283036Y33238D01*
X283950Y34152D01*
X284311Y35024D01*
X285299Y35394D01*
X285715Y35417D01*
X285829Y35303D01*
X286931Y34846D01*
X288125D01*
X289227Y35303D01*
X290071Y36147D01*
X290528Y37249D01*
Y38443D01*
X290071Y39545D01*
X289227Y40389D01*
X288125Y40846D01*
D02*
G37*
G36*
X304127Y43894D02*
X302933D01*
X301831Y43437D01*
X300987Y42593D01*
X300530Y41491D01*
Y40297D01*
X300987Y39195D01*
X301831Y38351D01*
X302933Y37894D01*
X304127D01*
X305229Y38351D01*
X306073Y39195D01*
X306530Y40297D01*
Y41491D01*
X306073Y42593D01*
X305229Y43437D01*
X304127Y43894D01*
D02*
G37*
G36*
X11813Y39563D02*
X10520D01*
X9326Y39068D01*
X8412Y38154D01*
X7917Y36959D01*
Y35666D01*
X8412Y34472D01*
X9326Y33558D01*
X10520Y33063D01*
X11813D01*
X13008Y33558D01*
X13922Y34472D01*
X14417Y35666D01*
Y36959D01*
X13922Y38154D01*
X13008Y39068D01*
X11813Y39563D01*
D02*
G37*
G36*
X12330Y31698D02*
X11037D01*
X9843Y31203D01*
X8929Y30289D01*
X8434Y29095D01*
Y27801D01*
X8929Y26607D01*
X9843Y25693D01*
X11037Y25198D01*
X12330D01*
X13525Y25693D01*
X14439Y26607D01*
X14934Y27801D01*
Y29095D01*
X14439Y30289D01*
X13525Y31203D01*
X12330Y31698D01*
D02*
G37*
G36*
X260947Y23828D02*
X259753D01*
X258651Y23371D01*
X257807Y22527D01*
X257350Y21425D01*
Y20231D01*
X257807Y19129D01*
X258651Y18285D01*
X259753Y17828D01*
X260947D01*
X262049Y18285D01*
X262893Y19129D01*
X263350Y20231D01*
Y21425D01*
X262893Y22527D01*
X262049Y23371D01*
X260947Y23828D01*
D02*
G37*
G36*
X59383Y30499D02*
X59121Y30391D01*
X58227Y30179D01*
X57770Y30088D01*
X57677Y30026D01*
X57567D01*
X56365Y29528D01*
X56286Y29450D01*
X56178Y29428D01*
X55748Y29141D01*
X54974Y28653D01*
X54712Y28545D01*
X54002Y27834D01*
X54002Y27834D01*
X53890Y27565D01*
X53411Y26789D01*
X53155Y26405D01*
X53133Y26297D01*
X53055Y26218D01*
X52557Y25016D01*
Y24906D01*
X52495Y24813D01*
X52405Y24359D01*
X52195Y23472D01*
X52084Y23202D01*
X52084Y22245D01*
X52354Y21210D01*
X52361Y21177D01*
X52495Y20538D01*
X52519Y20503D01*
X52555Y20343D01*
X52557Y20335D01*
X52739Y19895D01*
X53055Y19133D01*
X53133Y19055D01*
X53155Y18946D01*
X53251Y18802D01*
X53893Y17831D01*
X54023Y17552D01*
X54062Y17457D01*
X54062Y17457D01*
X54315Y17205D01*
X54566Y16952D01*
X54567Y16952D01*
X54593Y16941D01*
X55096Y16646D01*
X56178Y15924D01*
X56286Y15902D01*
X56365Y15823D01*
X57567Y15326D01*
X57677D01*
X57770Y15264D01*
X59046Y15010D01*
X59611Y14852D01*
X59991D01*
X60769Y15010D01*
X61215Y15099D01*
X62045Y15264D01*
X62137Y15326D01*
X62248D01*
X63450Y15823D01*
X63528Y15902D01*
X63637Y15924D01*
X64718Y16646D01*
X64780Y16738D01*
X64882Y16781D01*
X65802Y17701D01*
X65845Y17803D01*
X65937Y17865D01*
X66659Y18946D01*
X66681Y19055D01*
X66760Y19133D01*
X67257Y20335D01*
Y20446D01*
X67319Y20538D01*
X67573Y21814D01*
X67551Y21923D01*
X67594Y22025D01*
Y23326D01*
X67551Y23429D01*
X67573Y23537D01*
X67319Y24813D01*
X67257Y24906D01*
Y25016D01*
X66760Y26218D01*
X66681Y26297D01*
X66659Y26405D01*
X66156Y27159D01*
X65937Y27487D01*
X65465Y28174D01*
X65458Y28189D01*
X65458Y28189D01*
X65345Y28300D01*
X65234Y28413D01*
X65234Y28413D01*
X65206Y28425D01*
X64718Y28705D01*
X64183Y29063D01*
X63637Y29428D01*
X63528Y29450D01*
X63450Y29528D01*
X62586Y29886D01*
X62248Y30026D01*
X62244Y30027D01*
X62081Y30063D01*
X62045Y30088D01*
X61683Y30160D01*
X61362Y30224D01*
X60222Y30499D01*
X59383Y30499D01*
X59383Y30499D01*
D02*
G37*
G36*
X280362Y27452D02*
X280102Y27343D01*
X279207Y27131D01*
X278750Y27040D01*
X278657Y26978D01*
X278547D01*
X277345Y26480D01*
X277266Y26402D01*
X277158Y26380D01*
X276728Y26093D01*
X275954Y25605D01*
X275692Y25497D01*
X274982Y24786D01*
X274982Y24786D01*
X274870Y24517D01*
X274391Y23741D01*
X274135Y23357D01*
X274113Y23249D01*
X274035Y23170D01*
X273537Y21968D01*
Y21858D01*
X273475Y21765D01*
X273385Y21311D01*
X273175Y20424D01*
X273064Y20154D01*
X273064Y19197D01*
X273334Y18162D01*
X273341Y18130D01*
X273475Y17490D01*
X273499Y17455D01*
X273535Y17295D01*
X273537Y17287D01*
X273719Y16847D01*
X274035Y16085D01*
X274113Y16007D01*
X274135Y15898D01*
X274231Y15754D01*
X274873Y14784D01*
X275003Y14504D01*
X275042Y14409D01*
X275042Y14409D01*
X275295Y14157D01*
X275546Y13904D01*
X275547Y13904D01*
X275573Y13893D01*
X276076Y13598D01*
X277158Y12875D01*
X277266Y12854D01*
X277345Y12775D01*
X278547Y12278D01*
X278657D01*
X278750Y12216D01*
X280026Y11962D01*
X280591Y11804D01*
X280970D01*
X281749Y11962D01*
X282195Y12051D01*
X283025Y12216D01*
X283117Y12278D01*
X283228D01*
X284429Y12775D01*
X284508Y12854D01*
X284617Y12875D01*
X285698Y13598D01*
X285760Y13690D01*
X285862Y13733D01*
X286782Y14653D01*
X286825Y14755D01*
X286917Y14817D01*
X287640Y15898D01*
X287661Y16007D01*
X287740Y16085D01*
X288237Y17287D01*
Y17398D01*
X288299Y17490D01*
X288553Y18766D01*
X288531Y18875D01*
X288574Y18977D01*
Y20278D01*
X288531Y20381D01*
X288553Y20489D01*
X288299Y21765D01*
X288237Y21858D01*
Y21968D01*
X287740Y23170D01*
X287661Y23249D01*
X287640Y23357D01*
X287136Y24111D01*
X286917Y24439D01*
X286445Y25126D01*
X286438Y25141D01*
X286438Y25141D01*
X286325Y25252D01*
X286214Y25365D01*
X286214Y25365D01*
X286186Y25377D01*
X285698Y25657D01*
X285163Y26015D01*
X284617Y26380D01*
X284508Y26402D01*
X284429Y26480D01*
X283566Y26838D01*
X283228Y26978D01*
X283224Y26979D01*
X283061Y27015D01*
X283025Y27040D01*
X282663Y27112D01*
X282342Y27176D01*
X281202Y27452D01*
X280363Y27451D01*
X280362Y27452D01*
D02*
G37*
G36*
X19442Y15188D02*
X18149D01*
X16955Y14693D01*
X16041Y13779D01*
X15546Y12585D01*
Y11292D01*
X16041Y10097D01*
X16955Y9183D01*
X18149Y8688D01*
X19442D01*
X20637Y9183D01*
X21551Y10097D01*
X22046Y11292D01*
Y12585D01*
X21551Y13779D01*
X20637Y14693D01*
X19442Y15188D01*
D02*
G37*
G36*
X70332Y5796D02*
X68352D01*
X68250Y5754D01*
X68141Y5776D01*
X66200Y5390D01*
X66108Y5328D01*
X65997D01*
X64168Y4570D01*
X64090Y4492D01*
X63981Y4470D01*
X62335Y3371D01*
X62274Y3279D01*
X62171Y3236D01*
X60772Y1837D01*
X60729Y1734D01*
X60637Y1673D01*
X59538Y27D01*
X59516Y-82D01*
X59437Y-160D01*
X58680Y-1989D01*
Y-2100D01*
X58618Y-2192D01*
X58232Y-4133D01*
X58254Y-4242D01*
X58211Y-4344D01*
Y-6324D01*
X58254Y-6426D01*
X58232Y-6535D01*
X58618Y-8476D01*
X58680Y-8568D01*
Y-8679D01*
X59437Y-10508D01*
X59516Y-10586D01*
X59538Y-10695D01*
X60637Y-12341D01*
X60729Y-12402D01*
X60772Y-12505D01*
X62171Y-13904D01*
X62274Y-13947D01*
X62335Y-14039D01*
X63981Y-15138D01*
X64090Y-15160D01*
X64168Y-15238D01*
X65997Y-15996D01*
X66108D01*
X66200Y-16057D01*
X68141Y-16444D01*
X68250Y-16422D01*
X68352Y-16465D01*
X70332D01*
X70434Y-16422D01*
X70543Y-16444D01*
X72484Y-16057D01*
X72576Y-15996D01*
X72687D01*
X74516Y-15238D01*
X74594Y-15160D01*
X74703Y-15138D01*
X76349Y-14039D01*
X76410Y-13947D01*
X76513Y-13904D01*
X77912Y-12505D01*
X77955Y-12402D01*
X78047Y-12341D01*
X79146Y-10695D01*
X79168Y-10586D01*
X79247Y-10508D01*
X80004Y-8679D01*
Y-8568D01*
X80065Y-8476D01*
X80452Y-6535D01*
X80430Y-6426D01*
X80472Y-6324D01*
Y-4344D01*
X80430Y-4242D01*
X80452Y-4133D01*
X80065Y-2192D01*
X80004Y-2100D01*
Y-1989D01*
X79247Y-160D01*
X79168Y-82D01*
X79146Y27D01*
X78047Y1673D01*
X77955Y1734D01*
X77912Y1837D01*
X76513Y3236D01*
X76410Y3279D01*
X76349Y3371D01*
X74703Y4470D01*
X74594Y4492D01*
X74516Y4570D01*
X72687Y5328D01*
X72576D01*
X72484Y5390D01*
X70543Y5776D01*
X70434Y5754D01*
X70332Y5796D01*
D02*
G37*
G36*
X41795Y9854D02*
X40501D01*
X39307Y9359D01*
X38393Y8445D01*
X37898Y7250D01*
Y5957D01*
X38393Y4763D01*
X39307Y3849D01*
X40501Y3354D01*
X41795D01*
X42989Y3849D01*
X43903Y4763D01*
X44398Y5957D01*
Y7250D01*
X43903Y8445D01*
X42989Y9359D01*
X41795Y9854D01*
D02*
G37*
G36*
X188299Y-6254D02*
X187105D01*
X186003Y-6711D01*
X185159Y-7555D01*
X184702Y-8657D01*
Y-9851D01*
X185159Y-10953D01*
X186003Y-11797D01*
X187105Y-12254D01*
X188299D01*
X189401Y-11797D01*
X190245Y-10953D01*
X190702Y-9851D01*
Y-8657D01*
X190245Y-7555D01*
X189401Y-6711D01*
X188299Y-6254D01*
D02*
G37*
G36*
X149610Y122699D02*
X148317D01*
X147122Y122204D01*
X146208Y121290D01*
X145713Y120095D01*
Y118802D01*
X146208Y117608D01*
X147122Y116694D01*
X148317Y116199D01*
X149610D01*
X150804Y116694D01*
X151718Y117608D01*
X152213Y118802D01*
Y120095D01*
X151718Y121290D01*
X150804Y122204D01*
X149610Y122699D01*
D02*
G37*
%LPD*%
D17*
X229458Y62679D02*
X231188Y60949D01*
Y53292D02*
Y60949D01*
X234078Y34890D02*
X234236Y35048D01*
X238078Y30560D02*
Y46402D01*
X231188Y53292D02*
X238078Y46402D01*
X234236Y35048D02*
Y42639D01*
X243078Y28444D02*
Y61784D01*
X225300Y14224D02*
X240578Y29502D01*
X224999Y17481D02*
X238078Y30560D01*
X250578Y32386D02*
Y57842D01*
X226342Y11708D02*
X243078Y28444D01*
X239270Y62034D02*
X240578Y60726D01*
X241786Y63076D02*
X243078Y61784D01*
X227384Y9192D02*
X250578Y32386D01*
X240578Y29502D02*
Y60726D01*
X244302Y64118D02*
X250578Y57842D01*
X268786Y37801D02*
Y44058D01*
X279690Y54963D01*
X285094D02*
X295612Y65481D01*
X279690Y54963D02*
X285094D01*
X295612Y65481D02*
Y132086D01*
X272344Y69561D02*
X275982Y65923D01*
X272344Y69561D02*
Y73400D01*
X275982Y65880D02*
Y65923D01*
X274066Y75122D02*
Y80280D01*
X284540Y90754D01*
X272344Y73400D02*
X274066Y75122D01*
X255344Y73982D02*
Y77400D01*
X249876Y79450D02*
X253294D01*
X228426Y6676D02*
X257302Y35552D01*
X253294Y79450D02*
X255344Y77400D01*
Y73982D02*
X257302Y72024D01*
Y35552D02*
Y72024D01*
X254348Y29039D02*
X259149D01*
X262674Y32564D01*
X239228Y90099D02*
X249876Y79450D01*
X235782Y89986D02*
X244302Y81466D01*
X233266Y88944D02*
X241786Y80424D01*
X239270Y62034D02*
Y68008D01*
X244302Y64118D02*
Y81466D01*
X241786Y63076D02*
Y80424D01*
X230750Y76528D02*
X239270Y68008D01*
X178562Y69606D02*
Y79199D01*
X175154Y66198D02*
X178562Y69606D01*
X175568Y82193D02*
X178562Y79199D01*
X169094Y82871D02*
Y82988D01*
X162625Y76402D02*
X169094Y82871D01*
X115154Y118286D02*
X119730Y113710D01*
Y67142D02*
Y113710D01*
X112638Y115339D02*
X117230Y110747D01*
Y69582D02*
Y110747D01*
X110067Y108655D02*
X112028Y106694D01*
X113638Y74100D02*
X114528Y74991D01*
X111138Y70561D02*
Y75136D01*
X113638Y108620D02*
Y110781D01*
X91440Y50863D02*
X111138Y70561D01*
X114528Y74991D02*
Y107730D01*
X113638Y108620D02*
X114528Y107730D01*
X113638Y51225D02*
Y74100D01*
X111988Y112431D02*
X113638Y110781D01*
X111138Y75136D02*
X112028Y76026D01*
X110067Y108655D02*
Y109807D01*
X112028Y76026D02*
Y106694D01*
X96745Y90768D02*
X100264Y94287D01*
Y109794D01*
X117588Y25386D02*
Y34897D01*
X123914Y53840D02*
Y62958D01*
X113130Y24165D02*
X118015Y19280D01*
X113130Y47159D02*
X116138Y50167D01*
X115630Y45555D02*
X123914Y53840D01*
X115630Y36856D02*
Y45555D01*
Y36856D02*
X117588Y34897D01*
X113130Y24165D02*
Y47159D01*
X91440Y1301D02*
Y50863D01*
X116138Y50167D02*
Y68490D01*
X117230Y69582D01*
X110122Y47709D02*
X113638Y51225D01*
X119730Y67142D02*
X123914Y62958D01*
X294180Y133518D02*
X295612Y132086D01*
X294180Y133518D02*
Y159468D01*
X280722Y172926D02*
X294180Y159468D01*
X276039Y85811D02*
X282040Y91812D01*
X284540Y90754D02*
Y109192D01*
X279680Y170410D02*
X287750Y162340D01*
X278638Y167894D02*
X285250Y161282D01*
X282040Y91812D02*
Y110227D01*
X285250Y113437D01*
Y161282D01*
X287750Y112402D02*
Y162340D01*
X284540Y109192D02*
X287750Y112402D01*
X201835Y119422D02*
X208957D01*
X201155Y118742D02*
X201835Y119422D01*
X210309Y120774D02*
X212098D01*
X201076Y118742D02*
X201155D01*
X199741Y121242D02*
X200120D01*
X196757Y118258D02*
X199741Y121242D01*
X200120D02*
X200800Y121922D01*
X200850D02*
X208670Y129742D01*
X199559Y117225D02*
X201076Y118742D01*
X199559Y113853D02*
Y117225D01*
X208670Y109742D02*
Y109792D01*
X213242Y114364D02*
X214485D01*
X208670Y109792D02*
X213242Y114364D01*
X199559Y113853D02*
X208670Y104742D01*
X173695Y118258D02*
X196757D01*
X200800Y121922D02*
X200850D01*
X208957Y119422D02*
X210309Y120774D01*
X214485Y114364D02*
X218497Y110351D01*
X270504Y142889D02*
X271747D01*
X279360Y145470D02*
X280210Y146320D01*
X262796Y135180D02*
X270504Y142889D01*
X279360Y142308D02*
Y145470D01*
X271747Y142889D02*
X274388Y140248D01*
X277300D01*
X279360Y142308D01*
X262796Y131329D02*
Y135180D01*
X208811Y16533D02*
X209623D01*
X211071Y17981D02*
X211184D01*
X213221Y20018D01*
X209623Y16533D02*
X211071Y17981D01*
X213221Y20018D02*
X216964D01*
X218475Y79270D02*
X218933D01*
X217174Y77969D02*
X218475Y79270D01*
X138430Y149098D02*
Y162052D01*
Y149098D02*
X143970Y143558D01*
X138430Y162052D02*
X157260Y180882D01*
X132746Y137572D02*
X135272Y135046D01*
X124014Y137572D02*
X132746D01*
X121488Y135046D02*
X124014Y137572D01*
X114002Y135046D02*
X121488D01*
X110122Y131167D02*
X114002Y135046D01*
X140476Y130014D02*
X140673Y130211D01*
X130662Y132540D02*
X133188Y130014D01*
X140476D01*
X131704Y135056D02*
X134230Y132530D01*
X139434D01*
X139630Y132727D02*
X151347D01*
X125056Y135056D02*
X131704D01*
X138392Y135046D02*
X138588Y135243D01*
X140673Y130211D02*
X155014D01*
X135272Y135046D02*
X138392D01*
X126099Y132540D02*
X130662D01*
X138588Y135243D02*
X150305D01*
X139434Y132530D02*
X139630Y132727D01*
X118335Y142937D02*
X141033D01*
X193670Y124742D02*
Y129332D01*
X115154Y121595D02*
X126099Y132540D01*
X191994Y131008D02*
X193670Y129332D01*
X155811Y131008D02*
X191994D01*
X150305Y135243D02*
X153468Y138406D01*
X112638Y122638D02*
X125056Y135056D01*
X155014Y130211D02*
X155811Y131008D01*
X151347Y132727D02*
X154510Y135890D01*
X141033Y142937D02*
X142928Y141042D01*
X143970Y143558D02*
X150253D01*
X142928Y141042D02*
X166442D01*
X123458Y31665D02*
X124017D01*
X127400Y35048D01*
X107606Y112268D02*
X110067Y109807D01*
X107606Y112268D02*
Y115159D01*
X111001Y112431D02*
X111988D01*
X112638Y115339D02*
Y117243D01*
X110122Y113310D02*
X111001Y112431D01*
X153468Y138406D02*
X168360D01*
X148590Y147944D02*
Y166878D01*
X154510Y135890D02*
X169402D01*
X148590Y147944D02*
X148775Y147759D01*
X166442Y141042D02*
X176174Y150774D01*
X107606Y132208D02*
X118335Y142937D01*
X96745Y86497D02*
Y90768D01*
X88900Y78653D02*
X96745Y86497D01*
X88900Y6604D02*
Y78653D01*
X268190Y37205D02*
X268786Y37801D01*
X268190Y32550D02*
Y37205D01*
X189738Y17018D02*
X197564Y9192D01*
X177990Y6676D02*
X228426D01*
X197564Y9192D02*
X227384D01*
X175906Y1644D02*
X230511D01*
X176948Y4160D02*
X229469D01*
X199529Y16371D02*
X204192Y11708D01*
X199300Y16371D02*
X199529D01*
X197133Y25948D02*
Y50761D01*
X196088Y24092D02*
Y24904D01*
X197133Y25948D01*
X195870Y52024D02*
X197133Y50761D01*
X206137Y43315D02*
Y47283D01*
Y43315D02*
X223175Y26277D01*
X131331Y14248D02*
X144018Y26935D01*
Y59422D01*
X140304Y33949D02*
Y59578D01*
X137638Y62244D02*
X140304Y59578D01*
X137096Y30741D02*
X140304Y33949D01*
X140154Y63286D02*
X144018Y59422D01*
X149908Y19478D02*
Y33076D01*
X154657Y37825D02*
Y40956D01*
X149908Y33076D02*
X154657Y37825D01*
Y40956D02*
X159405Y45704D01*
X149908Y19478D02*
X161005Y8382D01*
X157940Y19164D02*
Y25756D01*
X169740Y37556D01*
X167446Y46624D02*
X168020Y46050D01*
X169740Y37556D02*
Y40676D01*
X168020Y42396D02*
Y46050D01*
Y42396D02*
X169740Y40676D01*
X230750Y76528D02*
Y88391D01*
X261922Y179118D02*
X263686Y180882D01*
X279883D02*
X312144Y148621D01*
Y118672D02*
Y148621D01*
Y118672D02*
X321191Y109625D01*
X326441D01*
X263686Y180882D02*
X279883D01*
X326441Y109625D02*
X331669Y104396D01*
X252337Y179118D02*
X261922D01*
X249531Y178366D02*
X251294Y176602D01*
X250573Y180882D02*
X252337Y179118D01*
X186556Y178366D02*
X249531D01*
X251294Y176602D02*
X262964D01*
X264728Y178366D02*
X278841D01*
X262964Y176602D02*
X264728Y178366D01*
X278841D02*
X298196Y159010D01*
X157260Y180882D02*
X250573D01*
X150253Y143558D02*
X153720Y147024D01*
Y147161D01*
X157186Y150627D02*
Y159227D01*
X155956Y160457D02*
X157186Y159227D01*
X155956Y160457D02*
Y167074D01*
X153720Y147161D02*
X157186Y150627D01*
X178562Y23163D02*
Y42571D01*
X167990Y16676D02*
X177990Y6676D01*
X176022Y19812D02*
Y20624D01*
X167990Y16676D02*
Y21336D01*
X169168Y8382D02*
X175906Y1644D01*
X169446Y11662D02*
X176948Y4160D01*
X161005Y8382D02*
X169168D01*
X165442Y11662D02*
X169446D01*
X176022Y20624D02*
X178562Y23163D01*
X126099Y120134D02*
Y120488D01*
Y120134D02*
X138430Y107803D01*
X203050Y135242D02*
X203237Y135430D01*
X198391Y136573D02*
X199722Y135242D01*
X185612Y136573D02*
X198391D01*
X199722Y135242D02*
X203050D01*
X203237Y135430D02*
X215730D01*
X138430Y88033D02*
Y107803D01*
X148590Y166878D02*
X152133Y170420D01*
X156396Y173434D02*
X181624D01*
X156001Y173228D02*
X156396D01*
X152133Y170420D02*
X153193D01*
X156001Y173228D01*
X270344Y85811D02*
X276039D01*
X264674Y80141D02*
X270344Y85811D01*
X218741Y121556D02*
X223713D01*
X83970Y1674D02*
X88900Y6604D01*
X91440Y1301D02*
X94488Y-1747D01*
X181869Y89195D02*
X182375Y89702D01*
X215202D01*
X225882D01*
X275862Y160060D02*
X281146D01*
X265176Y149374D02*
X275862Y160060D01*
X274346Y170410D02*
X279680D01*
X298196Y150114D02*
Y159010D01*
X208678Y154742D02*
X226862Y172926D01*
X280722D01*
X235458Y167894D02*
X278638D01*
X229338Y170410D02*
X274346D01*
X208670Y149742D02*
X229338Y170410D01*
X265176Y149352D02*
Y149374D01*
X255524Y139700D02*
X265176Y149352D01*
X255524Y139700D02*
X255732D01*
X235246Y119213D02*
X255732Y139700D01*
X226056Y119213D02*
X235246D01*
X223713Y121556D02*
X226056Y119213D01*
X239228Y90099D02*
Y104542D01*
X227072Y116697D02*
X239228Y104542D01*
X218788Y118040D02*
X223671D01*
X225014Y116697D01*
X227072D01*
X178606Y139834D02*
X182214Y136226D01*
X185265D02*
X185612Y136573D01*
X212098Y120774D02*
X214832Y118040D01*
X218788D01*
X221725Y154161D02*
X235458Y167894D01*
X162625Y68669D02*
Y76402D01*
X159405Y65449D02*
X162625Y68669D01*
X193711Y150774D02*
X198333Y146152D01*
X213587Y146129D02*
X213588D01*
X192139Y148258D02*
X192139D01*
X210052Y146152D02*
X212545Y148645D01*
X198333Y146152D02*
X210052D01*
X192139Y148258D02*
X196761Y143636D01*
X211094D02*
X213587Y146129D01*
X196761Y143636D02*
X211094D01*
X212545Y148645D02*
X212545D01*
X214045Y150145D01*
X173346Y139834D02*
X178606D01*
X181624Y173434D02*
X186556Y178366D01*
X258045Y195315D02*
X262097Y191262D01*
X285242D01*
X157940Y19164D02*
X165442Y11662D01*
X230511Y1644D02*
X234585Y5718D01*
X300098D01*
X216964Y20018D02*
X219501Y17481D01*
X224999D01*
X214884Y16002D02*
X215485D01*
X217263Y14224D01*
X225300D01*
X219136Y57739D02*
X234236Y42639D01*
X203670Y64742D02*
X210673Y57739D01*
X219136D01*
X216870Y77969D02*
X217174D01*
X198386Y66052D02*
X208560Y76226D01*
X195870Y67094D02*
X205154Y76378D01*
X195870Y52024D02*
Y67094D01*
X208560Y76226D02*
X215126D01*
X198386Y53066D02*
Y66052D01*
X215126Y76226D02*
X216870Y77969D01*
X205154Y76378D02*
Y81226D01*
X221298Y93262D02*
X224012D01*
X225057Y92218D01*
X226924D01*
X220724Y93836D02*
X221298Y93262D01*
X229458Y62679D02*
Y69083D01*
X228234Y70307D02*
Y87349D01*
Y70307D02*
X229458Y69083D01*
X229469Y4160D02*
X254348Y29039D01*
X159405Y45704D02*
Y65449D01*
X100297Y26957D02*
Y43564D01*
Y26957D02*
X113006Y14248D01*
X110122Y23615D02*
Y47709D01*
X118015Y19280D02*
X124688D01*
X83970Y-2944D02*
X86868Y-5842D01*
X83970Y-2944D02*
Y1674D01*
X113006Y14248D02*
X131331D01*
X140154Y63286D02*
Y66198D01*
X140946Y66990D01*
X140154Y83286D02*
X140946Y82494D01*
X140154Y86198D02*
X140946Y86990D01*
X140154Y83286D02*
Y86198D01*
X140946Y86990D02*
Y93472D01*
Y66990D02*
Y82494D01*
X138430Y68032D02*
Y81452D01*
X137638Y82243D02*
Y87240D01*
Y82243D02*
X138430Y81452D01*
X137638Y62244D02*
Y67241D01*
X138430Y68032D01*
X137638Y87240D02*
X138430Y88033D01*
X140946Y93472D02*
X157404Y109930D01*
X165367D01*
X173695Y118258D01*
X227120Y101732D02*
X227163D01*
X228163Y104248D02*
X228205D01*
X222059Y110351D02*
X228163Y104248D01*
X221017Y107835D02*
X227120Y101732D01*
X233266Y88944D02*
Y95628D01*
X217456Y107835D02*
X221017D01*
X218497Y110351D02*
X222059D01*
X228205Y104248D02*
X235782Y96671D01*
Y89986D02*
Y96671D01*
X227163Y101732D02*
X233266Y95628D01*
X205154Y81226D02*
X208670Y84742D01*
X198386Y53066D02*
X202313Y49139D01*
X204192Y11708D02*
X226342D01*
X170154Y91198D02*
X172214Y93258D01*
X176316D01*
X170154Y88285D02*
X173110Y85329D01*
Y84651D02*
Y85329D01*
X176316Y93258D02*
X178610Y95552D01*
X170154Y88285D02*
Y91198D01*
X175568Y82193D02*
X175568D01*
X173110Y84651D02*
X175568Y82193D01*
X175154Y45979D02*
Y66198D01*
Y45979D02*
X178562Y42571D01*
X178610Y95552D02*
X205014D01*
X223175Y21497D02*
Y26277D01*
X208670Y154742D02*
X208678D01*
X206137Y47283D02*
X206329Y47475D01*
X212374Y50734D02*
X212948Y51308D01*
X206329Y48102D02*
X208961Y50734D01*
X212374D01*
X206329Y47475D02*
Y48102D01*
X112638Y117244D02*
Y122638D01*
X115154Y118286D02*
Y121595D01*
X107606Y115159D02*
X107606Y115159D01*
X107606Y115159D02*
Y124325D01*
X107606Y124325D02*
Y132208D01*
X110122Y116202D02*
X110122Y116201D01*
X110122Y116202D02*
Y123283D01*
X110122Y113310D02*
Y116201D01*
X107606Y124325D02*
X107606Y124325D01*
X112638Y117244D02*
X112638Y117243D01*
X110122Y123283D02*
X110122Y123283D01*
Y131167D01*
X182214Y136226D02*
X185265D01*
X169402Y135890D02*
X173346Y139834D01*
X215730Y135430D02*
X221006Y140706D01*
X226924Y92218D02*
X230750Y88391D01*
X218788Y118040D02*
X218788Y118040D01*
X86868Y-5842D02*
X95068D01*
X115062Y-25836D01*
Y-30734D02*
Y-25836D01*
X223681Y150145D02*
X224177Y149649D01*
X226144D02*
X226718Y149075D01*
X224177Y149649D02*
X226144D01*
X128698Y26532D02*
Y30526D01*
X129064Y30892D01*
X214053Y109359D02*
X215931D01*
X213670Y109742D02*
X214053Y109359D01*
X215931D02*
X217456Y107835D01*
X300098Y5718D02*
X300330Y5486D01*
X225882Y89702D02*
X228234Y87349D01*
X205014Y95552D02*
X208670Y99208D01*
Y99742D01*
X262459Y107258D02*
X266942Y111741D01*
Y127183D01*
X262796Y131329D02*
X266942Y127183D01*
X176174Y150774D02*
X193711D01*
X178211Y148258D02*
X192139D01*
X168360Y138406D02*
X178211Y148258D01*
X213588Y146129D02*
X222017D01*
X110122Y23615D02*
X116973Y16764D01*
X125730D01*
X127400Y35048D02*
X130727D01*
X221234Y154161D02*
X221725D01*
X214045Y150145D02*
X223681D01*
X129893Y20927D02*
Y24169D01*
X127377Y21969D02*
Y25212D01*
X125730Y16764D02*
X129893Y20927D01*
X133080Y27356D02*
Y32695D01*
X129893Y24169D02*
X133080Y27356D01*
X127377Y25212D02*
X128698Y26532D01*
X124688Y19280D02*
X127377Y21969D01*
X130727Y35048D02*
X133080Y32695D01*
X261933Y98262D02*
X262459Y98788D01*
Y107258D01*
X258045Y195315D02*
Y215119D01*
X265938Y223012D01*
D68*
X259386Y-49200D02*
D03*
X85386D02*
D03*
D69*
X276098Y70934D02*
D03*
X183670Y64742D02*
D03*
Y74742D02*
D03*
X123416Y104742D02*
D03*
X251844Y75950D02*
D03*
X275844Y143950D02*
D03*
X183670Y114742D02*
D03*
X123670Y124742D02*
D03*
Y114742D02*
D03*
X247844Y139950D02*
D03*
X311844Y103950D02*
D03*
Y71950D02*
D03*
X315844Y83950D02*
D03*
X311844Y91950D02*
D03*
X203670Y64742D02*
D03*
X173670Y89742D02*
D03*
X208670Y99742D02*
D03*
X198628Y104902D02*
D03*
X208670Y109742D02*
D03*
Y104742D02*
D03*
X213670D02*
D03*
Y109742D02*
D03*
X153670Y74742D02*
D03*
X183670Y144742D02*
D03*
X143670Y64742D02*
D03*
Y84742D02*
D03*
X118670Y119742D02*
D03*
X113670Y129742D02*
D03*
X143670Y154742D02*
D03*
X183670Y104742D02*
D03*
X153670Y79742D02*
D03*
X154686Y84582D02*
D03*
X153670Y89742D02*
D03*
X208670Y114742D02*
D03*
Y129742D02*
D03*
X213670Y124742D02*
D03*
X208670D02*
D03*
X198670D02*
D03*
X193670D02*
D03*
X188670D02*
D03*
X183670Y139742D02*
D03*
X208670Y149742D02*
D03*
Y154742D02*
D03*
X203670D02*
D03*
X198670D02*
D03*
X173670D02*
D03*
X193670D02*
D03*
X188670D02*
D03*
X183670D02*
D03*
X178670D02*
D03*
X168670D02*
D03*
X163670D02*
D03*
X153670D02*
D03*
X208670Y69742D02*
D03*
X213670Y79742D02*
D03*
X208670D02*
D03*
X213670Y84742D02*
D03*
X208670D02*
D03*
X188670Y104742D02*
D03*
X198670Y84742D02*
D03*
X188670D02*
D03*
X193670D02*
D03*
Y74742D02*
D03*
X178670Y64742D02*
D03*
X183670Y79742D02*
D03*
X168670Y64742D02*
D03*
X163670D02*
D03*
X148670D02*
D03*
X40894Y111136D02*
D03*
X33761Y112247D02*
D03*
X36068Y109869D02*
D03*
X153630Y188976D02*
D03*
X78740Y108204D02*
D03*
X74168D02*
D03*
X218741Y121556D02*
D03*
X166423Y189685D02*
D03*
X169188Y191853D02*
D03*
X183395Y109474D02*
D03*
D70*
X196088Y24092D02*
D03*
X235204Y59690D02*
D03*
X234078Y34890D02*
D03*
X201370Y139297D02*
D03*
X235243Y66333D02*
D03*
X289161Y64687D02*
D03*
X275982Y65880D02*
D03*
X287005Y80915D02*
D03*
X259612Y77950D02*
D03*
X174546Y75108D02*
D03*
X169094Y82988D02*
D03*
X163855Y84790D02*
D03*
X108028Y77683D02*
D03*
X107405Y105660D02*
D03*
X100264Y109794D02*
D03*
X129619Y110039D02*
D03*
X168658Y125025D02*
D03*
X163703Y115226D02*
D03*
X124158Y69515D02*
D03*
X109638Y52913D02*
D03*
X130446Y52507D02*
D03*
X281195Y35993D02*
D03*
X243228Y91922D02*
D03*
X264674Y80141D02*
D03*
X248349Y93950D02*
D03*
X302768Y111252D02*
D03*
X176286Y135818D02*
D03*
X208811Y16533D02*
D03*
X218683Y84898D02*
D03*
X218933Y79270D02*
D03*
X220509Y99347D02*
D03*
X127762Y128524D02*
D03*
X90016Y138250D02*
D03*
X169820Y253866D02*
D03*
X123458Y31665D02*
D03*
X258785Y135418D02*
D03*
X233594Y135966D02*
D03*
X107131Y72233D02*
D03*
X307451Y94372D02*
D03*
X308638Y99759D02*
D03*
X148775Y147759D02*
D03*
X232000Y147483D02*
D03*
X308087Y88545D02*
D03*
X324642Y85414D02*
D03*
X83860Y143960D02*
D03*
X148613Y90026D02*
D03*
X273154Y39254D02*
D03*
X268190Y32550D02*
D03*
X210243Y258866D02*
D03*
X331724Y132588D02*
D03*
X161180Y41664D02*
D03*
X189738Y17018D02*
D03*
X184048Y17928D02*
D03*
X54171Y132443D02*
D03*
X55027Y114300D02*
D03*
X58950Y136216D02*
D03*
X66982Y135363D02*
D03*
X38899Y125427D02*
D03*
X163678Y188976D02*
D03*
X322113Y105418D02*
D03*
X308128Y123934D02*
D03*
X279828Y135496D02*
D03*
X167446Y46624D02*
D03*
X176022Y19812D02*
D03*
X230163Y220645D02*
D03*
X246380Y211818D02*
D03*
X281250Y147573D02*
D03*
X276907Y150973D02*
D03*
X232156Y215502D02*
D03*
X264544Y40591D02*
D03*
X279674Y113518D02*
D03*
X255480Y103168D02*
D03*
X250693Y99006D02*
D03*
X226434Y96520D02*
D03*
X250037Y104482D02*
D03*
X158220Y145982D02*
D03*
X170942Y169418D02*
D03*
X165659Y167833D02*
D03*
X134414Y99604D02*
D03*
X128900Y99453D02*
D03*
X142269Y174307D02*
D03*
X262674Y32564D02*
D03*
X274161Y113331D02*
D03*
X24422Y194348D02*
D03*
X69596Y111209D02*
D03*
X188214Y261414D02*
D03*
X25146Y176278D02*
D03*
X18975Y180294D02*
D03*
X78740Y240792D02*
D03*
X66294Y228854D02*
D03*
X115062Y246634D02*
D03*
X307455Y65278D02*
D03*
X313690D02*
D03*
X261112Y84582D02*
D03*
X267485Y97146D02*
D03*
X263846Y92995D02*
D03*
X148963Y119449D02*
D03*
X105410Y36988D02*
D03*
X181869Y89195D02*
D03*
X163290Y99443D02*
D03*
X168510Y95233D02*
D03*
X179497Y99858D02*
D03*
X183386Y124790D02*
D03*
X246918Y146908D02*
D03*
X228600Y154260D02*
D03*
X128256Y47153D02*
D03*
X158609Y73866D02*
D03*
X200729Y150168D02*
D03*
X183528Y258366D02*
D03*
X184125Y184936D02*
D03*
X319951Y116544D02*
D03*
X21130Y159731D02*
D03*
X33310Y101274D02*
D03*
X258175Y148226D02*
D03*
X161956Y20828D02*
D03*
X153924Y21142D02*
D03*
X214884Y16002D02*
D03*
X199300Y16371D02*
D03*
X103172Y178308D02*
D03*
X124009Y176331D02*
D03*
X243078Y257302D02*
D03*
X269634Y160589D02*
D03*
X326390Y146304D02*
D03*
X226816Y59642D02*
D03*
X228140Y109950D02*
D03*
X224218Y85344D02*
D03*
X194917Y79883D02*
D03*
X200431Y80045D02*
D03*
X189433Y79290D02*
D03*
X203423Y55032D02*
D03*
X192952Y46561D02*
D03*
X210153Y46246D02*
D03*
X100297Y43564D02*
D03*
X87986Y-749D02*
D03*
X92916Y63452D02*
D03*
X136288Y46990D02*
D03*
X227719Y123229D02*
D03*
X177231Y86209D02*
D03*
X185928Y99568D02*
D03*
X167990Y21336D02*
D03*
X223175Y21497D02*
D03*
X33185Y91108D02*
D03*
X27686Y90678D02*
D03*
X2122Y69671D02*
D03*
X9594Y73379D02*
D03*
X5663Y65442D02*
D03*
X212948Y51308D02*
D03*
X220980Y50216D02*
D03*
X4318Y121484D02*
D03*
X5624Y126843D02*
D03*
X217669Y67242D02*
D03*
X218237Y61755D02*
D03*
X91440Y192786D02*
D03*
X94488Y-1747D02*
D03*
X115062Y-30734D02*
D03*
X69648Y124096D02*
D03*
X51784Y122682D02*
D03*
X97282Y162881D02*
D03*
X266474Y105594D02*
D03*
X196202Y109292D02*
D03*
X324641Y113641D02*
D03*
X149637Y49662D02*
D03*
X226718Y149075D02*
D03*
X129064Y30892D02*
D03*
X186436Y43688D02*
D03*
X215828Y45991D02*
D03*
X300330Y5486D02*
D03*
X202313Y49139D02*
D03*
X221192Y44704D02*
D03*
X198084Y99734D02*
D03*
X220724Y93836D02*
D03*
X221006Y140706D02*
D03*
X222017Y146129D02*
D03*
X225293Y128183D02*
D03*
X219871Y129193D02*
D03*
X221234Y154161D02*
D03*
X123361Y23633D02*
D03*
X137096Y30741D02*
D03*
X253031Y162091D02*
D03*
X258347Y159859D02*
D03*
X247904Y10958D02*
D03*
X117588Y25386D02*
D03*
X134112Y22709D02*
D03*
X102870Y162881D02*
D03*
X212480Y169130D02*
D03*
X258589Y108331D02*
D03*
X218186Y169929D02*
D03*
X64921Y89408D02*
D03*
X78962D02*
D03*
X258045Y195315D02*
D03*
X286512Y181610D02*
D03*
X202747Y168057D02*
D03*
X229593Y131966D02*
D03*
X11167Y36313D02*
D03*
X7366Y58070D02*
D03*
X6604Y50038D02*
D03*
X59865Y69687D02*
D03*
X22098Y53848D02*
D03*
X11684Y28448D02*
D03*
X193167Y168057D02*
D03*
X182176D02*
D03*
X187672Y167581D02*
D03*
X230378Y187136D02*
D03*
X236108Y187452D02*
D03*
X230886Y208232D02*
D03*
X231619Y197684D02*
D03*
X236728Y200200D02*
D03*
X241794Y198017D02*
D03*
X252346Y188435D02*
D03*
X200152Y184936D02*
D03*
X176276Y167894D02*
D03*
X261933Y98262D02*
D03*
X319939Y78756D02*
D03*
X324641Y94823D02*
D03*
X319127Y94674D02*
D03*
X262139Y152063D02*
D03*
X277622Y105156D02*
D03*
X262796Y131329D02*
D03*
X258942Y127382D02*
D03*
X210695Y174350D02*
D03*
X298196Y150114D02*
D03*
X254000Y183134D02*
D03*
X7620Y160782D02*
D03*
X76156Y221190D02*
D03*
X115824Y258064D02*
D03*
X320294Y38862D02*
D03*
X105410Y28956D02*
D03*
X41148Y6604D02*
D03*
X18796Y11938D02*
D03*
X247530Y198537D02*
D03*
X214884Y235712D02*
D03*
X239845Y214699D02*
D03*
X266954Y246126D02*
D03*
X265938Y223012D02*
D03*
X287020Y215646D02*
D03*
X287274Y205994D02*
D03*
X285750Y199390D02*
D03*
X285242Y191262D02*
D03*
X106653Y94996D02*
D03*
X259099Y119351D02*
D03*
X262926Y123323D02*
D03*
X258879Y113839D02*
D03*
X306070Y135890D02*
D03*
X307680Y83020D02*
D03*
X307477Y118456D02*
D03*
X319786Y132588D02*
D03*
X43453Y87066D02*
D03*
X38052Y88184D02*
D03*
X27292Y104247D02*
D03*
X102580Y76926D02*
D03*
X59825Y154643D02*
D03*
X54447Y153416D02*
D03*
D71*
X33889Y212816D02*
D03*
X56388Y213360D02*
D03*
X246828Y35610D02*
D03*
X303530Y40894D02*
D03*
X277599Y93314D02*
D03*
X248052Y66300D02*
D03*
X40894Y103886D02*
D03*
X119380Y44002D02*
D03*
X119888Y55361D02*
D03*
X123670Y74742D02*
D03*
X126024Y90637D02*
D03*
X299689Y66757D02*
D03*
X287528Y37846D02*
D03*
X288290Y94742D02*
D03*
X301244Y88900D02*
D03*
X203309Y115672D02*
D03*
X178119Y109839D02*
D03*
X192278Y184648D02*
D03*
X209323Y225298D02*
D03*
X177546Y244782D02*
D03*
X209550Y21747D02*
D03*
X203060Y20058D02*
D03*
X136741Y138903D02*
D03*
X143670Y149742D02*
D03*
X90266Y146212D02*
D03*
X15462Y79966D02*
D03*
Y74950D02*
D03*
X303911Y162179D02*
D03*
X194462Y238284D02*
D03*
X79360Y152866D02*
D03*
X83601Y107966D02*
D03*
X157371Y127242D02*
D03*
X127254Y258572D02*
D03*
X104934Y86868D02*
D03*
X86709Y81788D02*
D03*
X99060Y114903D02*
D03*
X75438Y97790D02*
D03*
X44497Y68466D02*
D03*
X27743D02*
D03*
X260350Y20828D02*
D03*
X327079Y123214D02*
D03*
X148372Y37802D02*
D03*
X180205Y54944D02*
D03*
X165974Y39116D02*
D03*
X187702Y-9254D02*
D03*
X59182Y126448D02*
D03*
X76896Y130630D02*
D03*
X77594Y83328D02*
D03*
X57404Y91948D02*
D03*
X29972Y109356D02*
D03*
X12078Y115614D02*
D03*
X8128Y154686D02*
D03*
X155956Y167074D02*
D03*
X331669Y104396D02*
D03*
X301715Y125072D02*
D03*
X173476Y41649D02*
D03*
X176276Y13716D02*
D03*
X126099Y120488D02*
D03*
X131108Y120860D02*
D03*
X291846Y107696D02*
D03*
X92331Y228854D02*
D03*
X146304Y186436D02*
D03*
X156396Y173228D02*
D03*
X152626Y201930D02*
D03*
X101558Y202184D02*
D03*
X154090Y215509D02*
D03*
X276606Y46575D02*
D03*
X51816Y245618D02*
D03*
X103840Y124492D02*
D03*
X84328Y33528D02*
D03*
X130410Y171958D02*
D03*
X281146Y160060D02*
D03*
X173360Y224118D02*
D03*
X154090Y215509D02*
D03*
X154940Y210566D02*
D03*
X75438Y204978D02*
D03*
X220348Y114274D02*
D03*
X203593Y99457D02*
D03*
X269102Y147621D02*
D03*
M02*
