G04*
G04 #@! TF.GenerationSoftware,Altium Limited,Altium Designer,24.6.1 (21)*
G04*
G04 Layer_Color=16711935*
%FSLAX44Y44*%
%MOMM*%
G71*
G04*
G04 #@! TF.SameCoordinates,46D9000B-954F-446C-B998-76B77EA3697B*
G04*
G04*
G04 #@! TF.FilePolarity,Positive*
G04*
G01*
G75*
%ADD89C,0.2540*%
%ADD90C,0.2540*%
%ADD91R,1.2500X3.1000*%
D89*
X338840Y225592D02*
G03*
X338194Y226487I-1251J-221D01*
G01*
X338840Y225592D02*
G03*
X338191Y226489I-1251J-221D01*
G01*
X333623Y228965D02*
G03*
X332998Y229120I-608J-1115D01*
G01*
X333620Y228967D02*
G03*
X332998Y229120I-605J-1117D01*
G01*
X339780Y220163D02*
G03*
X339761Y220384I-1270J0D01*
G01*
X339780Y220159D02*
G03*
X339780Y220163I-1270J3D01*
G01*
Y220159D02*
G03*
X339780Y220163I-1270J3D01*
G01*
D02*
G03*
X339761Y220384I-1270J0D01*
G01*
X327440Y229049D02*
G03*
X327421Y229049I16J-1270D01*
G01*
X327440Y229049D02*
G03*
X327421Y229049I16J-1270D01*
G01*
X326912Y206744D02*
G03*
X326913Y206699I1270J0D01*
G01*
X326912Y206745D02*
Y206744D01*
X325283Y210584D02*
G03*
X325321Y210547I898J898D01*
G01*
D02*
G03*
X325363Y210504I935J860D01*
G01*
X321310Y212079D02*
G03*
X321505Y212094I0J1270D01*
G01*
D02*
G03*
X321700Y212079I195J1255D01*
G01*
X325278Y210588D02*
G03*
X325321Y210547I903J894D01*
G01*
X321310Y212079D02*
G03*
X321505Y212094I0J1270D01*
G01*
D02*
G03*
X321700Y212079I195J1255D01*
G01*
X325321Y210547D02*
G03*
X325358Y210508I935J860D01*
G01*
X317737Y210500D02*
G03*
X317983Y210693I-657J1087D01*
G01*
X326913Y206699D02*
G03*
X326912Y206655I1269J-45D01*
G01*
X326913Y206700D02*
X326913Y206699D01*
X326912Y206744D02*
G03*
X326913Y206699I1270J0D01*
G01*
X326912Y206744D02*
G03*
X326913Y206700I1270J1D01*
G01*
X326912Y206745D02*
Y206744D01*
X326913Y206699D02*
G03*
X326912Y206655I1269J-45D01*
G01*
X326913Y206700D02*
X326913Y206699D01*
X325427Y203051D02*
G03*
X325286Y202885I894J-903D01*
G01*
D02*
G03*
X325125Y202749I737J-1035D01*
G01*
X325423Y203047D02*
G03*
X325286Y202885I898J-898D01*
G01*
D02*
G03*
X325120Y202745I737J-1035D01*
G01*
X318141Y202640D02*
G03*
X317749Y202909I-903J-894D01*
G01*
X318136Y202644D02*
G03*
X317749Y202909I-898J-898D01*
G01*
X321921Y201412D02*
G03*
X321505Y201342I0J-1270D01*
G01*
D02*
G03*
X321089Y201412I-416J-1200D01*
G01*
X321921D02*
G03*
X321505Y201342I0J-1270D01*
G01*
D02*
G03*
X321089Y201412I-416J-1200D01*
G01*
X317737Y210500D02*
G03*
X317979Y210689I-657J1087D01*
G01*
X317544Y210254D02*
G03*
X317737Y210500I-894J903D01*
G01*
X317548Y210259D02*
G03*
X317737Y210500I-898J898D01*
G01*
X316244Y206299D02*
G03*
X316180Y206699I-1270J0D01*
G01*
D02*
G03*
X316244Y207099I-1206J400D01*
G01*
X316180Y206699D02*
G03*
X316244Y207099I-1206J400D01*
G01*
Y206299D02*
G03*
X316180Y206699I-1270J0D01*
G01*
X235901Y268238D02*
G03*
X235736Y268263I-273J-1241D01*
G01*
X281441Y258321D02*
G03*
X281314Y258355I-394J-1208D01*
G01*
X235738Y268263D02*
G03*
X235734Y268264I-110J-1266D01*
G01*
X235898Y268239D02*
G03*
X235738Y268263I-270J-1241D01*
G01*
X295160Y253842D02*
G03*
X295116Y253857I-439J-1192D01*
G01*
X295157Y253843D02*
G03*
X295113Y253858I-435J-1193D01*
G01*
X281443Y258320D02*
G03*
X281317Y258355I-397J-1207D01*
G01*
X199027Y271426D02*
G03*
X198958Y271430I-111J-1265D01*
G01*
X199027Y271426D02*
G03*
X198958Y271430I-111J-1265D01*
G01*
X165209Y272541D02*
G03*
X165110Y272540I-42J-1270D01*
G01*
X165209Y272541D02*
G03*
X165110Y272540I-42J-1270D01*
G01*
X304246Y240049D02*
G03*
X304245Y240096I-1270J-12D01*
G01*
X304246Y240037D02*
G03*
X304246Y240049I-1270J0D01*
G01*
D02*
G03*
X304245Y240102I-1270J-12D01*
G01*
X300233Y251866D02*
G03*
X299771Y252160I-897J-899D01*
G01*
X300233Y251866D02*
G03*
X299767Y252161I-897J-899D01*
G01*
X303891Y247743D02*
G03*
X303519Y248589I-1269J-53D01*
G01*
X303891Y247748D02*
G03*
X303519Y248589I-1269J-59D01*
G01*
X317749Y202909D02*
G03*
X317483Y203297I-1163J-510D01*
G01*
X317749Y202909D02*
G03*
X317479Y203301I-1163J-510D01*
G01*
X284573Y23500D02*
G03*
X284678Y23380I1003J779D01*
G01*
X284453Y23605D02*
G03*
X284573Y23500I898J898D01*
G01*
X284449Y23609D02*
G03*
X284573Y23500I903J894D01*
G01*
X280782Y25033D02*
G03*
X281202Y24962I420J1199D01*
G01*
X280782Y25033D02*
G03*
X281202Y24962I420J1199D01*
G01*
X280362D02*
G03*
X280782Y25033I0J1270D01*
G01*
X280362Y24962D02*
G03*
X280782Y25033I0J1270D01*
G01*
X277046Y23463D02*
G03*
X277457Y23740I-491J1171D01*
G01*
X277046Y23463D02*
G03*
X277452Y23736I-491J1171D01*
G01*
X277025Y23455D02*
G03*
X277046Y23463I-471J1180D01*
G01*
X277025Y23454D02*
X277025Y23455D01*
X284573Y23500D02*
G03*
X284682Y23376I1003J779D01*
G01*
X277312Y15660D02*
G03*
X277019Y15881I-903J-894D01*
G01*
X277019Y23439D02*
G03*
X277025Y23454I-1174J486D01*
G01*
X276744Y23028D02*
G03*
X277019Y23439I-899J897D01*
G01*
X276744Y23028D02*
G03*
X277019Y23439I-899J897D01*
G01*
X277019Y15881D02*
G03*
X276803Y16169I-1114J-610D01*
G01*
X277019Y15881D02*
G03*
X276798Y16173I-1114J-610D01*
G01*
X280970Y14294D02*
G03*
X280781Y14280I0J-1270D01*
G01*
D02*
G03*
X280591Y14294I-190J-1256D01*
G01*
X280781Y14280D02*
G03*
X280591Y14294I-190J-1256D01*
G01*
X280970D02*
G03*
X280781Y14280I0J-1270D01*
G01*
X277307Y15665D02*
G03*
X277019Y15881I-898J-898D01*
G01*
X339693Y-5756D02*
G03*
X339710Y-5547I-1253J209D01*
G01*
X339693Y-5756D02*
G03*
X339710Y-5547I-1253J209D01*
G01*
X339232Y-7083D02*
G03*
X339587Y-6394I-898J898D01*
G01*
X338647Y-7633D02*
G03*
X338847Y-7469I-703J1058D01*
G01*
X339227Y-7087D02*
G03*
X339587Y-6394I-894J903D01*
G01*
X338647Y-7633D02*
G03*
X338842Y-7473I-703J1058D01*
G01*
X324266Y-17172D02*
G03*
X324405Y-17092I-564J1138D01*
G01*
X324266Y-17172D02*
G03*
X324405Y-17092I-564J1138D01*
G01*
X308416Y-25018D02*
G03*
X308536Y-24966I-443J1190D01*
G01*
X308416Y-25018D02*
G03*
X308536Y-24966I-443J1190D01*
G01*
X292626Y-30895D02*
G03*
X292721Y-30864I-349J1221D01*
G01*
X292628Y-30894D02*
G03*
X292721Y-30864I-350J1221D01*
G01*
X292625Y-30895D02*
G03*
X292628Y-30894I-347J1222D01*
G01*
X278272Y-6150D02*
G03*
X278272Y-6189I1270J-39D01*
G01*
Y-6110D02*
G03*
X278272Y-6150I1270J0D01*
G01*
X278272Y-6103D02*
G03*
X278272Y-6110I1270J-7D01*
G01*
X278272Y-6096D02*
G03*
X278272Y-6103I1270J-14D01*
G01*
X278272Y-6110D02*
G03*
X278272Y-6150I1270J0D01*
G01*
X278272Y-6103D02*
G03*
X278272Y-6110I1270J7D01*
G01*
X278272Y-6096D02*
G03*
X278272Y-6103I1270J0D01*
G01*
X278272Y-6150D02*
G03*
X278272Y-6189I1270J-39D01*
G01*
X277852Y-35111D02*
G03*
X277854Y-35110I-347J1222D01*
G01*
X277772Y-35131D02*
G03*
X277852Y-35111I-267J1242D01*
G01*
X277769Y-35132D02*
G03*
X277853Y-35111I-264J1242D01*
G01*
X275553Y19197D02*
G03*
X275460Y19675I-1270J0D01*
G01*
X275553Y20153D02*
G03*
X275553Y20154I-1270J1D01*
G01*
X275460Y19675D02*
G03*
X275553Y20153I-1177J479D01*
G01*
D02*
G03*
X275553Y20154I-1270J1D01*
G01*
X275460Y19675D02*
G03*
X275553Y20153I-1177J479D01*
G01*
Y19197D02*
G03*
X275460Y19675I-1270J0D01*
G01*
X264704Y-37942D02*
G03*
X264773Y-37929I-202J1254D01*
G01*
X264699Y-37943D02*
G03*
X264770Y-37930I-196J1255D01*
G01*
X254308Y-39615D02*
G03*
X254359Y-39607I-150J1261D01*
G01*
X247431Y-40433D02*
G03*
X247470Y-40429I-111J1265D01*
G01*
X247429Y-40434D02*
G03*
X247431Y-40433I-109J1266D01*
G01*
X254308Y-39615D02*
G03*
X254365Y-39606I-150J1261D01*
G01*
X247430Y-40434D02*
G03*
X247470Y-40429I-110J1266D01*
G01*
X244984Y-40646D02*
G03*
X244987Y-40646I-109J1266D01*
G01*
X244905Y-40651D02*
G03*
X244984Y-40646I-30J1270D01*
G01*
X244899Y-40651D02*
G03*
X244986Y-40646I-24J1270D01*
G01*
X215875Y-39701D02*
G03*
X216099Y-39729I269J1242D01*
G01*
X205170Y-37102D02*
G03*
X205885Y-37540I984J804D01*
G01*
X205166Y-37098D02*
G03*
X205885Y-37540I987J800D01*
G01*
X243307Y-40686D02*
G03*
X243387Y-40686I45J1269D01*
G01*
X215875Y-39701D02*
G03*
X216102Y-39729I269J1242D01*
G01*
X243305Y-40685D02*
G03*
X243382Y-40686I47J1269D01*
G01*
X116408Y270336D02*
G03*
X116273Y270323I57J-1269D01*
G01*
X116408Y270336D02*
G03*
X116269Y270322I57J-1269D01*
G01*
X58798Y261487D02*
G03*
X58613Y261445I189J-1256D01*
G01*
X58793Y261486D02*
G03*
X58613Y261445I193J-1256D01*
G01*
X49969Y258788D02*
G03*
X49885Y258759I373J-1214D01*
G01*
X49886Y258760D02*
G03*
X49884Y258759I456J-1186D01*
G01*
X49969Y258788D02*
G03*
X49886Y258760I373J-1214D01*
G01*
X45026Y256885D02*
G03*
X44707Y256705I458J-1185D01*
G01*
X45028Y256886D02*
G03*
X45026Y256885I456J-1186D01*
G01*
X44709Y256707D02*
G03*
X44705Y256704I776J-1006D01*
G01*
X45027Y256886D02*
G03*
X44709Y256707I457J-1185D01*
G01*
X40670Y253582D02*
G03*
X40228Y252925I779J-1003D01*
G01*
X40674Y253585D02*
G03*
X40670Y253582I776J-1006D01*
G01*
X40672Y253583D02*
G03*
X40228Y252925I777J-1005D01*
G01*
X38881Y248178D02*
G03*
X38837Y247927I1222J-347D01*
G01*
X38881Y248178D02*
G03*
X38837Y247924I1222J-347D01*
G01*
X38695Y246052D02*
G03*
X38691Y245954I1266J-99D01*
G01*
X38695Y246049D02*
G03*
X38691Y245954I1267J-96D01*
G01*
X19803Y212101D02*
G03*
X19972Y212090I169J1259D01*
G01*
X23597Y210525D02*
G03*
X23699Y210412I995J789D01*
G01*
X25146Y206900D02*
G03*
X25162Y206699I1270J0D01*
G01*
X23489Y210623D02*
G03*
X23597Y210525I898J898D01*
G01*
D02*
G03*
X23694Y210417I995J789D01*
G01*
X23484Y210627D02*
G03*
X23597Y210525I903J894D01*
G01*
X59802Y28081D02*
G03*
X60222Y28010I420J1199D01*
G01*
X59383D02*
G03*
X59802Y28081I0J1270D01*
G01*
D02*
G03*
X60222Y28010I420J1199D01*
G01*
X59383D02*
G03*
X59802Y28081I0J1270D01*
G01*
X59382Y28010D02*
X59383D01*
X25162Y206699D02*
G03*
X25146Y206499I1254J-201D01*
G01*
Y206900D02*
G03*
X25162Y206699I1270J0D01*
G01*
D02*
G03*
X25146Y206499I1254J-201D01*
G01*
X23779Y203179D02*
G03*
X23567Y202903I894J-903D01*
G01*
D02*
G03*
X23294Y202695I626J-1106D01*
G01*
X23774Y203175D02*
G03*
X23567Y202903I898J-898D01*
G01*
D02*
G03*
X23290Y202691I626J-1106D01*
G01*
X20245Y201422D02*
G03*
X19803Y201343I0J-1270D01*
G01*
Y212101D02*
G03*
X19972Y212090I169J1259D01*
G01*
X19634D02*
G03*
X19803Y212101I0J1270D01*
G01*
X19634Y212090D02*
G03*
X19803Y212101I0J1270D01*
G01*
X15899Y210386D02*
G03*
X16015Y210520I-898J898D01*
G01*
D02*
G03*
X16152Y210640I-765J1014D01*
G01*
X14455Y206699D02*
G03*
X14478Y206943I-1247J244D01*
G01*
Y206455D02*
G03*
X14455Y206699I-1270J0D01*
G01*
X16015Y210520D02*
G03*
X16148Y210635I-765J1014D01*
G01*
X9474Y233478D02*
G03*
X9223Y233456I-15J-1270D01*
G01*
X15895Y210382D02*
G03*
X16015Y210520I-894J903D01*
G01*
X9474Y233478D02*
G03*
X9223Y233456I-15J-1270D01*
G01*
X4157Y232499D02*
G03*
X3230Y231764I236J-1248D01*
G01*
X4157Y232499D02*
G03*
X3229Y231761I236J-1248D01*
G01*
X716Y226063D02*
G03*
X607Y225536I1161J-515D01*
G01*
X715Y226060D02*
G03*
X607Y225534I1162J-512D01*
G01*
X14478Y206455D02*
G03*
X14455Y206699I-1270J0D01*
G01*
D02*
G03*
X14478Y206943I-1247J244D01*
G01*
X16347Y202678D02*
G03*
X16042Y202905I-903J-894D01*
G01*
X16342Y202682D02*
G03*
X16042Y202905I-898J-898D01*
G01*
D02*
G03*
X15815Y203210I-1121J-598D01*
G01*
X16042Y202905D02*
G03*
X15819Y203205I-1121J-598D01*
G01*
X19803Y201343D02*
G03*
X19362Y201422I-441J-1191D01*
G01*
X20245D02*
G03*
X19803Y201343I0J-1270D01*
G01*
D02*
G03*
X19362Y201422I-441J-1191D01*
G01*
X-1835Y201349D02*
G03*
X-1892Y201255I1055J-707D01*
G01*
X-1837Y201346D02*
G03*
X-1895Y201251I1057J-705D01*
G01*
X-2457Y200233D02*
G03*
X-2612Y199724I1110J-618D01*
G01*
X-2683Y198912D02*
G03*
X-2688Y198799I1265J-113D01*
G01*
X-2459Y200228D02*
G03*
X-2613Y199722I1112J-614D01*
G01*
X-2683Y198909D02*
G03*
X-2688Y198799I1266J-110D01*
G01*
Y163939D02*
G03*
X-2586Y163440I1270J0D01*
G01*
X-2688Y163939D02*
G03*
X-2584Y163435I1270J0D01*
G01*
X-775Y119052D02*
G03*
X-775Y119049I1270J0D01*
G01*
Y119052D02*
G03*
X-775Y119049I1270J0D01*
G01*
X-3853Y66484D02*
G03*
X-3928Y66052I1195J-432D01*
G01*
X-3853Y66484D02*
G03*
X-3928Y66052I1195J-432D01*
G01*
Y31368D02*
G03*
X-3897Y31086I1270J0D01*
G01*
X-3928Y31368D02*
G03*
X-3897Y31086I1270J0D01*
G01*
X63593Y26548D02*
G03*
X63702Y26424I1003J779D01*
G01*
X63593Y26548D02*
G03*
X63698Y26428I1003J779D01*
G01*
X63473Y26653D02*
G03*
X63593Y26548I898J898D01*
G01*
X63469Y26657D02*
G03*
X63593Y26548I903J894D01*
G01*
X131866Y-36358D02*
G03*
X132120Y-36130I-713J1051D01*
G01*
X131861Y-36360D02*
G03*
X132120Y-36130I-709J1054D01*
G01*
X128026Y-38829D02*
G03*
X128522Y-38626I-221J1251D01*
G01*
X128026Y-38829D02*
G03*
X128518Y-38629I-221J1251D01*
G01*
X125641Y-39234D02*
G03*
X125847Y-39214I-16J1270D01*
G01*
X125638Y-39234D02*
G03*
X125847Y-39214I-12J1270D01*
G01*
X84367Y-38191D02*
G03*
X84415Y-38197I198J1255D01*
G01*
X82474Y-37898D02*
G03*
X82529Y-37908I248J1246D01*
G01*
X82474Y-37898D02*
G03*
X82534Y-37909I248J1246D01*
G01*
X96084Y-39588D02*
G03*
X96253Y-39597I150J1261D01*
G01*
X96084Y-39588D02*
G03*
X96250Y-39597I150J1261D01*
G01*
X84372Y-38192D02*
G03*
X84415Y-38197I193J1256D01*
G01*
X56066Y26511D02*
G03*
X56477Y26788I-491J1171D01*
G01*
X56038Y26487D02*
G03*
X56045Y26502I-1174J486D01*
G01*
X55764Y26076D02*
G03*
X56038Y26487I-899J897D01*
G01*
X56332Y18708D02*
G03*
X56039Y18929I-903J-894D01*
G01*
X54573Y22245D02*
G03*
X54480Y22723I-1270J0D01*
G01*
X54573Y23201D02*
G03*
X54573Y23202I-1270J1D01*
G01*
X54480Y22723D02*
G03*
X54573Y23201I-1177J479D01*
G01*
X56039Y18929D02*
G03*
X55823Y19217I-1114J-610D01*
G01*
X56066Y26511D02*
G03*
X56472Y26784I-491J1171D01*
G01*
X56045Y26503D02*
G03*
X56066Y26511I-471J1180D01*
G01*
X56045Y26502D02*
X56045Y26503D01*
X55764Y26076D02*
G03*
X56038Y26487I-899J897D01*
G01*
X54573Y22245D02*
G03*
X54480Y22723I-1270J0D01*
G01*
X54573Y23201D02*
G03*
X54573Y23202I-1270J1D01*
G01*
X54480Y22723D02*
G03*
X54573Y23201I-1177J479D01*
G01*
X56327Y18713D02*
G03*
X56039Y18929I-898J-898D01*
G01*
D02*
G03*
X55818Y19222I-1114J-610D01*
G01*
X59991Y17342D02*
G03*
X59801Y17328I0J-1270D01*
G01*
D02*
G03*
X59611Y17342I-190J-1256D01*
G01*
X59991D02*
G03*
X59801Y17328I0J-1270D01*
G01*
D02*
G03*
X59611Y17342I-190J-1256D01*
G01*
X-2079Y-2171D02*
G03*
X-1759Y-2891I1263J132D01*
G01*
X-2079Y-2171D02*
G03*
X-1761Y-2888I1263J132D01*
G01*
X-2440Y1398D02*
G03*
X-2433Y1230I1270J-37D01*
G01*
X-2440Y1398D02*
G03*
X-2433Y1230I1270J-37D01*
G01*
X54403Y-32288D02*
G03*
X54566Y-32332I411J1202D01*
G01*
X54401Y-32287D02*
G03*
X54566Y-32332I414J1201D01*
G01*
X27318Y-23000D02*
G03*
X27507Y-23082I598J1120D01*
G01*
X3163Y-8379D02*
G03*
X3327Y-8532I946J848D01*
G01*
X3161Y-8377D02*
G03*
X3327Y-8532I948J845D01*
G01*
X27318Y-23000D02*
G03*
X27505Y-23081I598J1120D01*
G01*
X9952Y-13705D02*
G03*
X10135Y-13824I782J1001D01*
G01*
X9952Y-13705D02*
G03*
X10135Y-13824I782J1001D01*
G01*
X338191Y226489D02*
X338194Y226487D01*
X333623Y228965D02*
X338191Y226489D01*
X333620Y228967D02*
X333623Y228965D01*
X338840Y225592D02*
X339761Y220384D01*
X327440Y229050D02*
X332998Y229120D01*
X339709Y189727D02*
X339780Y220160D01*
X326707Y208301D02*
X326912Y207271D01*
X326305Y209272D02*
X326707Y208301D01*
X325358Y210508D02*
X325363Y210504D01*
X325721Y210145D01*
X326305Y209272D01*
X313639Y228664D02*
X327421Y229049D01*
X321700Y212079D02*
X322104D01*
X324978Y210888D02*
X325278Y210588D01*
X325283Y210584D01*
X323134Y211874D02*
X324104Y211472D01*
X322104Y212079D02*
X323134Y211874D01*
X324104Y211472D02*
X324978Y210888D01*
X321053Y212079D02*
X321310D01*
X320022Y211874D02*
X321053Y212079D01*
X319052Y211472D02*
X320022Y211874D01*
X318178Y210888D02*
X319052Y211472D01*
X317983Y210693D02*
X318178Y210888D01*
X317978Y210689D02*
X317983Y210693D01*
X326912Y206745D02*
Y207271D01*
Y206744D02*
Y206745D01*
Y206220D02*
Y206654D01*
Y206744D02*
Y206745D01*
X326707Y205189D02*
X326912Y206220D01*
X326305Y204219D02*
X326707Y205189D01*
X325721Y203345D02*
X326305Y204219D01*
X325427Y203052D02*
X325721Y203345D01*
X325423Y203047D02*
X325427Y203052D01*
X325121Y202744D02*
X325125Y202749D01*
X324978Y202603D02*
X325121Y202744D01*
X324104Y202018D02*
X324978Y202603D01*
X323134Y201617D02*
X324104Y202018D01*
X322104Y201412D02*
X323134Y201617D01*
X321921Y201412D02*
X322104D01*
X318137Y202644D02*
X318141Y202640D01*
X318178Y202603D01*
X319052Y202018D02*
X320022Y201617D01*
X318178Y202603D02*
X319052Y202018D01*
X321053Y201412D02*
X321089D01*
X320022Y201617D02*
X321053Y201412D01*
X317544Y210254D02*
X317548Y210259D01*
X317435Y210145D02*
X317544Y210254D01*
X316851Y209272D02*
X317435Y210145D01*
X316450Y208301D02*
X316851Y209272D01*
X316244Y207271D02*
X316450Y208301D01*
X316244Y207099D02*
Y207271D01*
Y206220D02*
X316450Y205189D01*
X316244Y206220D02*
Y206299D01*
X281314Y258355D02*
X281317Y258355D01*
X235901Y268238D02*
X281314Y258355D01*
X235898Y268239D02*
X235901Y268238D01*
X235736Y268264D02*
X235738Y268263D01*
X235734Y268264D02*
X235736D01*
X211646Y270318D02*
X235734Y268264D01*
X295113Y253858D02*
X295116Y253857D01*
X281443Y258320D02*
X295113Y253858D01*
X281441Y258321D02*
X281443Y258320D01*
X299767Y252162D02*
X299771Y252160D01*
X295160Y253841D02*
X299767Y252162D01*
X295157Y253843D02*
X295160Y253841D01*
X199027Y271425D02*
X211649Y270318D01*
X165209Y272541D02*
X198958Y271430D01*
X304246Y240049D02*
X304297Y234647D01*
X306399Y230498D01*
X313639Y228664D01*
X300233Y251866D02*
X303519Y248589D01*
X303891Y247743D02*
Y247749D01*
Y247743D02*
X304245Y240102D01*
Y240096D02*
Y240102D01*
X317435Y203345D02*
X317479Y203301D01*
X317483Y203297D01*
X316851Y204219D02*
X317435Y203345D01*
X316450Y205189D02*
X316851Y204219D01*
X284287Y23771D02*
X284449Y23609D01*
X284453Y23605D01*
X282443Y24757D02*
X283414Y24355D01*
X284287Y23771D01*
X280362Y24962D02*
X280363D01*
X281413D02*
X282443Y24757D01*
X281202Y24962D02*
X281413D01*
X279331Y24757D02*
X280362Y24962D01*
X278361Y24355D02*
X279331Y24757D01*
X277487Y23771D02*
X278361Y24355D01*
X277457Y23740D02*
X277487Y23771D01*
X277452Y23736D02*
X277457Y23740D01*
X277019Y23439D02*
X277025Y23454D01*
X277045Y23463D01*
X277025Y23454D02*
X277025D01*
X284678Y23381D02*
X284682Y23376D01*
X285030Y23028D01*
X286016Y21184D02*
X286221Y20153D01*
Y19628D02*
Y20153D01*
X286016Y18072D02*
X286221Y19102D01*
Y19628D01*
X285030Y23028D02*
X285614Y22154D01*
X286016Y21184D01*
X339709Y189727D02*
Y189730D01*
Y189727D02*
X339710Y15497D01*
Y-5547D02*
Y15497D01*
X285614Y17101D02*
X286016Y18072D01*
X285030Y16228D02*
X285614Y17101D01*
X284287Y15485D02*
X285030Y16228D01*
X283414Y14901D02*
X284287Y15485D01*
X277487D02*
X278361Y14901D01*
X282443Y14499D02*
X283414Y14901D01*
X277307Y15665D02*
X277312Y15660D01*
X277487Y15485D01*
X281413Y14294D02*
X282443Y14499D01*
X280971Y14294D02*
X281413D01*
X280362D02*
X280591D01*
X278361Y14901D02*
X279331Y14499D01*
X280362Y14294D01*
X276161Y22154D02*
X276744Y23028D01*
X276161Y17101D02*
X276744Y16228D01*
X276798Y16174D01*
X276803Y16169D01*
X339587Y-6394D02*
X339693Y-5756D01*
X339228Y-7088D02*
X339232Y-7083D01*
X338847Y-7469D02*
X339228Y-7088D01*
X338842Y-7473D02*
X338847Y-7469D01*
X324405Y-17092D02*
X338647Y-7633D01*
X308536Y-24966D02*
X324266Y-17172D01*
X292721Y-30864D02*
X308415Y-25018D01*
X278272Y-6096D02*
Y-5231D01*
Y-6110D02*
Y-6096D01*
X277273Y-1938D02*
X277934Y-3536D01*
X276312Y-500D02*
X277273Y-1938D01*
X277934Y-3536D02*
X278272Y-5231D01*
X292626Y-30895D02*
X292628Y-30894D01*
X292625Y-30896D02*
X292626Y-30895D01*
X277855Y-35110D02*
X292625Y-30896D01*
X277853Y-35111D02*
X277855Y-35110D01*
X277852Y-35111D02*
X277853Y-35111D01*
X277934Y-8656D02*
X278272Y-6961D01*
Y-6189D01*
X277273Y-10254D02*
X277934Y-8656D01*
X276312Y-11692D02*
X277273Y-10254D01*
X277769Y-35132D02*
X277772Y-35131D01*
X264773Y-37929D02*
X277769Y-35132D01*
X264770Y-37930D02*
X264773Y-37929D01*
X275758Y21184D02*
X276161Y22154D01*
X275553Y20153D02*
X275758Y21184D01*
X275553Y19102D02*
Y19197D01*
Y19102D02*
X275758Y18072D01*
X276161Y17101D01*
X275090Y722D02*
X276312Y-500D01*
X273652Y1683D02*
X275090Y722D01*
X270359Y2682D02*
X272054Y2344D01*
X273652Y1683D01*
X268629Y2682D02*
X270359D01*
X266934Y2344D02*
X268629Y2682D01*
X265336Y1683D02*
X266934Y2344D01*
X263898Y722D02*
X265336Y1683D01*
X262676Y-500D02*
X263898Y722D01*
X261715Y-1938D02*
X262676Y-500D01*
X261054Y-3536D02*
X261715Y-1938D01*
X260716Y-6961D02*
X261054Y-8656D01*
X260716Y-5231D02*
X261054Y-3536D01*
X260716Y-6096D02*
Y-5231D01*
Y-6961D02*
Y-6096D01*
X275090Y-12914D02*
X276312Y-11692D01*
X273652Y-13875D02*
X275090Y-12914D01*
X263898D02*
X265336Y-13875D01*
X262676Y-11692D02*
X263898Y-12914D01*
X272054Y-14536D02*
X273652Y-13875D01*
X268629Y-14874D02*
X270359D01*
X272054Y-14536D01*
X266934D02*
X268629Y-14874D01*
X265336Y-13875D02*
X266934Y-14536D01*
X261054Y-8656D02*
X261715Y-10254D01*
X262676Y-11692D01*
X264699Y-37943D02*
X264705Y-37942D01*
X254365Y-39606D02*
X264699Y-37943D01*
X254360Y-39607D02*
X254365Y-39606D01*
X197235Y-31581D02*
X202666Y-34038D01*
X164773Y-31581D02*
X197235D01*
X202666Y-34038D02*
X205166Y-37098D01*
X205170Y-37102D01*
X139619Y-31581D02*
X164773D01*
X134088Y-33816D02*
X139619Y-31581D01*
X132120Y-36130D02*
X134088Y-33816D01*
X247470Y-40429D02*
X254308Y-39614D01*
X247430Y-40434D02*
X247432Y-40433D01*
X247429Y-40434D02*
X247430D01*
X244987Y-40646D02*
X247429Y-40434D01*
X244986Y-40646D02*
X244987D01*
X244984D02*
X244986D01*
X244899Y-40651D02*
X244905D01*
X243387Y-40686D02*
X244899Y-40651D01*
X243382Y-40686D02*
X243387D01*
X205885Y-37540D02*
X215875Y-39701D01*
X243305Y-40685D02*
X243308Y-40686D01*
X216102Y-39729D02*
X243305Y-40685D01*
X216099Y-39729D02*
X216102D01*
X116408Y270336D02*
X165110Y272540D01*
X116269Y270322D02*
X116273Y270323D01*
X58798Y261487D02*
X116269Y270322D01*
X58793Y261486D02*
X58798Y261487D01*
X49969Y258788D02*
X58613Y261445D01*
X49885Y258759D02*
X49887Y258759D01*
X49884Y258758D02*
X49885Y258759D01*
X45029Y256887D02*
X49884Y258758D01*
X45027Y256886D02*
X45029Y256887D01*
X45026Y256885D02*
X45027Y256886D01*
X44707Y256705D02*
X44709Y256707D01*
X44704Y256704D02*
X44707Y256705D01*
X40674Y253585D02*
X44704Y256704D01*
X40672Y253583D02*
X40674Y253585D01*
X40670Y253582D02*
X40672Y253583D01*
X38881Y248178D02*
X40227Y252925D01*
X38837Y247924D02*
Y247927D01*
X38695Y246052D02*
X38837Y247924D01*
X38695Y246049D02*
Y246052D01*
X38691Y240468D02*
Y245954D01*
X38170Y236176D02*
X38691Y240468D01*
X33721Y233307D02*
X38170Y236176D01*
X27459Y233265D02*
X33721Y233307D01*
X27447Y233265D02*
X27459D01*
X27471D01*
X9474Y233478D02*
X27459Y233265D01*
X21368Y211885D02*
X22338Y211483D01*
X20337Y212090D02*
X21368Y211885D01*
X22338Y211483D02*
X23212Y210899D01*
X23955Y210156D02*
X24539Y209282D01*
X24941Y208312D02*
X25146Y207281D01*
X24539Y209282D02*
X24941Y208312D01*
X23212Y210899D02*
X23484Y210627D01*
X23488Y210622D01*
X23695Y210417D02*
X23699Y210413D01*
X23955Y210156D01*
X60222Y28010D02*
X60433D01*
X59382D02*
X59383D01*
X25146Y206900D02*
Y207281D01*
Y206231D02*
Y206498D01*
X24941Y205200D02*
X25146Y206231D01*
X24539Y204230D02*
X24941Y205200D01*
X23955Y203356D02*
X24539Y204230D01*
X23779Y203179D02*
X23955Y203356D01*
X23774Y203175D02*
X23779Y203179D01*
X22338Y202029D02*
X23212Y202613D01*
X23290Y202691D02*
X23294Y202695D01*
X23212Y202613D02*
X23290Y202691D01*
X21368Y201627D02*
X22338Y202029D01*
X20337Y201423D02*
X21368Y201627D01*
X19972Y212090D02*
X20337D01*
X19287D02*
X19634D01*
X18256Y211885D02*
X19287Y212090D01*
X17286Y211483D02*
X18256Y211885D01*
X16412Y210899D02*
X17286Y211483D01*
X16152Y210640D02*
X16412Y210899D01*
X16148Y210635D02*
X16152Y210640D01*
X15895Y210382D02*
X15899Y210386D01*
X15669Y210156D02*
X15895Y210382D01*
X15085Y209282D02*
X15669Y210156D01*
X14683Y208312D02*
X15085Y209282D01*
X14478Y207281D02*
X14683Y208312D01*
X14478Y206943D02*
Y207281D01*
Y206231D02*
X14683Y205200D01*
X14478Y206231D02*
Y206455D01*
X14683Y205200D02*
X15085Y204230D01*
X4157Y232499D02*
X9223Y233456D01*
X3229Y231761D02*
X3230Y231764D01*
X716Y226063D02*
X3229Y231761D01*
X715Y226060D02*
X716Y226063D01*
X607Y225534D02*
Y225536D01*
Y225534D02*
X747Y209270D01*
X-485Y203374D02*
X747Y209270D01*
X16412Y202613D02*
X17286Y202029D01*
X16342Y202682D02*
X16347Y202678D01*
X16412Y202613D01*
X20244Y201423D02*
X20337D01*
X19287D02*
X19362D01*
X18256Y201627D02*
X19287Y201423D01*
X17286Y202029D02*
X18256Y201627D01*
X15085Y204230D02*
X15669Y203356D01*
X15815Y203210D01*
X15820Y203206D01*
X-1835Y201349D02*
X-485Y203374D01*
X-1837Y201346D02*
X-1835Y201349D01*
X-1895Y201251D02*
X-1892Y201255D01*
X-2457Y200232D02*
X-1895Y201251D01*
X-2459Y200228D02*
X-2457Y200232D01*
X-2613Y199722D02*
X-2612Y199724D01*
X-2683Y198912D02*
X-2613Y199722D01*
X-2683Y198909D02*
X-2683Y198912D01*
X-2586Y163440D02*
X-2584Y163435D01*
X-1121Y160010D01*
X-2688Y163939D02*
Y198800D01*
X-775Y119049D02*
X-669Y78660D01*
X-775Y119052D02*
X-775Y149569D01*
X-870Y74738D02*
X-669Y78660D01*
X-1121Y160010D02*
X-775Y149569D01*
X-3853Y66484D02*
X-870Y74738D01*
X-3928Y31369D02*
Y66053D01*
X65241Y22150D02*
Y22676D01*
Y23201D01*
X73500Y2445D02*
X74938Y1484D01*
X71902Y3106D02*
X73500Y2445D01*
X74938Y1484D02*
X76160Y262D01*
X68477Y3444D02*
X70207D01*
X71902Y3106D01*
X66782D02*
X68477Y3444D01*
X64634Y25202D02*
X65036Y24232D01*
X64050Y26076D02*
X64634Y25202D01*
X65036Y21120D02*
X65241Y22150D01*
X65036Y24232D02*
X65241Y23201D01*
X63307Y26819D02*
X63469Y26657D01*
X63473Y26653D01*
X63698Y26429D02*
X63702Y26424D01*
X64050Y26076D01*
X65184Y2445D02*
X66782Y3106D01*
X63746Y1484D02*
X65184Y2445D01*
X64634Y20149D02*
X65036Y21120D01*
X64050Y19276D02*
X64634Y20149D01*
X63307Y18533D02*
X64050Y19276D01*
X78120Y-5334D02*
Y-4469D01*
X77782Y-2774D02*
X78120Y-4469D01*
Y-6199D02*
Y-5334D01*
X77782Y-7894D02*
X78120Y-6199D01*
X131861Y-36361D02*
X131866Y-36358D01*
X128522Y-38626D02*
X131861Y-36361D01*
X128518Y-38629D02*
X128522Y-38626D01*
X125847Y-39215D02*
X128026Y-38829D01*
X125638Y-39234D02*
X125641D01*
X96253Y-39597D02*
X125638Y-39234D01*
X96250Y-39597D02*
X96253D01*
X84367Y-38191D02*
X84372Y-38191D01*
X82534Y-37909D02*
X84367Y-38191D01*
X82530Y-37908D02*
X82534Y-37909D01*
X84415Y-38198D02*
X96084Y-39588D01*
X77121Y-1176D02*
X77782Y-2774D01*
X77121Y-9492D02*
X77782Y-7894D01*
X76160Y262D02*
X77121Y-1176D01*
X76160Y-10930D02*
X77121Y-9492D01*
X74938Y-12152D02*
X76160Y-10930D01*
X73500Y-13113D02*
X74938Y-12152D01*
X63746D02*
X65184Y-13113D01*
X62524Y-10930D02*
X63746Y-12152D01*
X62524Y262D02*
X63746Y1484D01*
X71902Y-13774D02*
X73500Y-13113D01*
X68477Y-14112D02*
X70207D01*
X71902Y-13774D01*
X65184Y-13113D02*
X66782Y-13774D01*
X68477Y-14112D01*
X54566Y-32332D02*
X82474Y-37898D01*
X60433Y28010D02*
X61463Y27805D01*
X62434Y27403D01*
X58351Y27805D02*
X59382Y28010D01*
X62434Y27403D02*
X63307Y26819D01*
X57381Y27403D02*
X58351Y27805D01*
X56507Y26819D02*
X57381Y27403D01*
X56477Y26788D02*
X56507Y26819D01*
X56472Y26784D02*
X56477Y26788D01*
X56038Y26487D02*
X56045Y26502D01*
X56065Y26511D01*
X56045Y26502D02*
X56045D01*
X55181Y25202D02*
X55764Y26076D01*
X54778Y24232D02*
X55181Y25202D01*
X54573Y23201D02*
X54778Y24232D01*
X62434Y17949D02*
X63307Y18533D01*
X56327Y18713D02*
X56332Y18708D01*
X56507Y18533D01*
X57381Y17949D01*
X61463Y17547D02*
X62434Y17949D01*
X60433Y17342D02*
X61463Y17547D01*
X57381Y17949D02*
X58351Y17547D01*
X54573Y22150D02*
Y22245D01*
X55181Y20149D02*
X55764Y19276D01*
X54778Y21120D02*
X55181Y20149D01*
X54573Y22150D02*
X54778Y21120D01*
X55764Y19276D02*
X55819Y19222D01*
X55823Y19217D01*
X-3896Y31087D02*
X-2467Y24809D01*
X-1981Y17140D01*
X59991Y17342D02*
X60433D01*
X59382D02*
X59611D01*
X61563Y-1176D02*
X62524Y262D01*
X60902Y-7894D02*
X61563Y-9492D01*
X60902Y-2774D02*
X61563Y-1176D01*
Y-9492D02*
X62524Y-10930D01*
X60564Y-4469D02*
X60902Y-2774D01*
X60564Y-6199D02*
Y-5334D01*
Y-4469D01*
Y-6199D02*
X60902Y-7894D01*
X58351Y17547D02*
X59382Y17342D01*
X-2440Y1398D02*
X-1981Y17140D01*
X-2433Y1230D02*
X-2079Y-2171D01*
X54401Y-32287D02*
X54403Y-32288D01*
X27508Y-23082D02*
X54401Y-32287D01*
X27505Y-23081D02*
X27508Y-23082D01*
X3327Y-8532D02*
X9952Y-13705D01*
X-1761Y-2888D02*
X-1759Y-2891D01*
X3161Y-8376D01*
X3163Y-8379D01*
X10135Y-13824D02*
X27318Y-23000D01*
D90*
X326912Y206745D02*
D03*
D03*
X280362Y24962D02*
D03*
X277025Y23454D02*
D03*
X56045Y26502D02*
D03*
D91*
X239722Y-35238D02*
D03*
X100216Y-35238D02*
D03*
M02*
