G04*
G04 #@! TF.GenerationSoftware,Altium Limited,Altium Designer,24.6.1 (21)*
G04*
G04 Layer_Color=128*
%FSLAX44Y44*%
%MOMM*%
G71*
G04*
G04 #@! TF.SameCoordinates,46D9000B-954F-446C-B998-76B77EA3697B*
G04*
G04*
G04 #@! TF.FilePolarity,Positive*
G04*
G01*
G75*
%ADD13C,0.1270*%
D13*
X255386Y-49200D02*
X263386D01*
X259386Y-53200D02*
Y-45200D01*
X81386Y-49200D02*
X89386D01*
X85386Y-53200D02*
Y-45200D01*
X275348Y70934D02*
X276848D01*
X276098Y70184D02*
Y71684D01*
X182920Y64742D02*
X184420D01*
X183670Y63992D02*
Y65492D01*
X182920Y74742D02*
X184420D01*
X183670Y73992D02*
Y75492D01*
X122666Y104742D02*
X124166D01*
X123416Y103992D02*
Y105492D01*
X251094Y75950D02*
X252594D01*
X251844Y75200D02*
Y76700D01*
X275094Y143950D02*
X276594D01*
X275844Y143200D02*
Y144700D01*
X182920Y114742D02*
X184420D01*
X183670Y113992D02*
Y115492D01*
X122920Y124742D02*
X124420D01*
X123670Y123992D02*
Y125492D01*
X122920Y114742D02*
X124420D01*
X123670Y113992D02*
Y115492D01*
X247094Y139950D02*
X248594D01*
X247844Y139200D02*
Y140700D01*
X311094Y103950D02*
X312594D01*
X311844Y103200D02*
Y104700D01*
X311094Y71950D02*
X312594D01*
X311844Y71200D02*
Y72700D01*
X315094Y83950D02*
X316594D01*
X315844Y83200D02*
Y84700D01*
X311094Y91950D02*
X312594D01*
X311844Y91200D02*
Y92700D01*
X202920Y64742D02*
X204420D01*
X203670Y63992D02*
Y65492D01*
X172920Y89742D02*
X174420D01*
X173670Y88992D02*
Y90492D01*
X207920Y99742D02*
X209420D01*
X208670Y98992D02*
Y100492D01*
X197878Y104902D02*
X199378D01*
X198628Y104152D02*
Y105652D01*
X207920Y109742D02*
X209420D01*
X208670Y108992D02*
Y110492D01*
X207920Y104742D02*
X209420D01*
X208670Y103992D02*
Y105492D01*
X212920Y104742D02*
X214420D01*
X213670Y103992D02*
Y105492D01*
X212920Y109742D02*
X214420D01*
X213670Y108992D02*
Y110492D01*
X152920Y74742D02*
X154420D01*
X153670Y73992D02*
Y75492D01*
X182920Y144742D02*
X184420D01*
X183670Y143992D02*
Y145492D01*
X142920Y64742D02*
X144420D01*
X143670Y63992D02*
Y65492D01*
X142920Y84742D02*
X144420D01*
X143670Y83992D02*
Y85492D01*
X117920Y119742D02*
X119420D01*
X118670Y118992D02*
Y120492D01*
X112920Y129742D02*
X114420D01*
X113670Y128992D02*
Y130492D01*
X142920Y154742D02*
X144420D01*
X143670Y153992D02*
Y155492D01*
X182920Y104742D02*
X184420D01*
X183670Y103992D02*
Y105492D01*
X152920Y79742D02*
X154420D01*
X153670Y78992D02*
Y80492D01*
X153936Y84582D02*
X155436D01*
X154686Y83832D02*
Y85332D01*
X152920Y89742D02*
X154420D01*
X153670Y88992D02*
Y90492D01*
X207920Y114742D02*
X209420D01*
X208670Y113992D02*
Y115492D01*
X207920Y129742D02*
X209420D01*
X208670Y128992D02*
Y130492D01*
X212920Y124742D02*
X214420D01*
X213670Y123992D02*
Y125492D01*
X207920Y124742D02*
X209420D01*
X208670Y123992D02*
Y125492D01*
X197920Y124742D02*
X199420D01*
X198670Y123992D02*
Y125492D01*
X192920Y124742D02*
X194420D01*
X193670Y123992D02*
Y125492D01*
X187920Y124742D02*
X189420D01*
X188670Y123992D02*
Y125492D01*
X182920Y139742D02*
X184420D01*
X183670Y138992D02*
Y140492D01*
X207920Y149742D02*
X209420D01*
X208670Y148992D02*
Y150492D01*
X207920Y154742D02*
X209420D01*
X208670Y153992D02*
Y155492D01*
X202920Y154742D02*
X204420D01*
X203670Y153992D02*
Y155492D01*
X197920Y154742D02*
X199420D01*
X198670Y153992D02*
Y155492D01*
X172920Y154742D02*
X174420D01*
X173670Y153992D02*
Y155492D01*
X192920Y154742D02*
X194420D01*
X193670Y153992D02*
Y155492D01*
X187920Y154742D02*
X189420D01*
X188670Y153992D02*
Y155492D01*
X182920Y154742D02*
X184420D01*
X183670Y153992D02*
Y155492D01*
X177920Y154742D02*
X179420D01*
X178670Y153992D02*
Y155492D01*
X167920Y154742D02*
X169420D01*
X168670Y153992D02*
Y155492D01*
X162920Y154742D02*
X164420D01*
X163670Y153992D02*
Y155492D01*
X152920Y154742D02*
X154420D01*
X153670Y153992D02*
Y155492D01*
X207920Y69742D02*
X209420D01*
X208670Y68992D02*
Y70492D01*
X212920Y79742D02*
X214420D01*
X213670Y78992D02*
Y80492D01*
X207920Y79742D02*
X209420D01*
X208670Y78992D02*
Y80492D01*
X212920Y84742D02*
X214420D01*
X213670Y83992D02*
Y85492D01*
X207920Y84742D02*
X209420D01*
X208670Y83992D02*
Y85492D01*
X187920Y104742D02*
X189420D01*
X188670Y103992D02*
Y105492D01*
X197920Y84742D02*
X199420D01*
X198670Y83992D02*
Y85492D01*
X187920Y84742D02*
X189420D01*
X188670Y83992D02*
Y85492D01*
X192920Y84742D02*
X194420D01*
X193670Y83992D02*
Y85492D01*
X192920Y74742D02*
X194420D01*
X193670Y73992D02*
Y75492D01*
X177920Y64742D02*
X179420D01*
X178670Y63992D02*
Y65492D01*
X182920Y79742D02*
X184420D01*
X183670Y78992D02*
Y80492D01*
X167920Y64742D02*
X169420D01*
X168670Y63992D02*
Y65492D01*
X162920Y64742D02*
X164420D01*
X163670Y63992D02*
Y65492D01*
X147920Y64742D02*
X149420D01*
X148670Y63992D02*
Y65492D01*
X194818Y24092D02*
X197358D01*
X196088Y22822D02*
Y25362D01*
X32989Y212816D02*
X34789D01*
X33889Y211916D02*
Y213716D01*
X55488Y213360D02*
X57288D01*
X56388Y212460D02*
Y214260D01*
X234304Y59690D02*
X236104D01*
X235204Y58790D02*
Y60590D01*
X232808Y34890D02*
X235348D01*
X234078Y33620D02*
Y36160D01*
X245928Y35610D02*
X247728D01*
X246828Y34711D02*
Y36511D01*
X302630Y40894D02*
X304430D01*
X303530Y39994D02*
Y41794D01*
X200100Y139297D02*
X202640D01*
X201370Y138027D02*
Y140567D01*
X233973Y66333D02*
X236513D01*
X235243Y65063D02*
Y67603D01*
X288261Y64687D02*
X290061D01*
X289161Y63787D02*
Y65587D01*
X275082Y65880D02*
X276882D01*
X275982Y64980D02*
Y66780D01*
X276699Y93314D02*
X278499D01*
X277599Y92414D02*
Y94214D01*
X286105Y80915D02*
X287905D01*
X287005Y80015D02*
Y81815D01*
X247152Y66300D02*
X248952D01*
X248052Y65400D02*
Y67200D01*
X258712Y77950D02*
X260512D01*
X259612Y77050D02*
Y78850D01*
X173646Y75108D02*
X175446D01*
X174546Y74208D02*
Y76008D01*
X168194Y82988D02*
X169994D01*
X169094Y82088D02*
Y83888D01*
X162955Y84790D02*
X164755D01*
X163855Y83890D02*
Y85690D01*
X39994Y103886D02*
X41794D01*
X40894Y102986D02*
Y104786D01*
X39994Y111136D02*
X41794D01*
X40894Y110236D02*
Y112036D01*
X107128Y77683D02*
X108928D01*
X108028Y76783D02*
Y78583D01*
X106505Y105660D02*
X108305D01*
X107405Y104760D02*
Y106560D01*
X99364Y109794D02*
X101164D01*
X100264Y108893D02*
Y110694D01*
X128719Y110039D02*
X130519D01*
X129619Y109139D02*
Y110939D01*
X167758Y125025D02*
X169558D01*
X168658Y124125D02*
Y125925D01*
X162803Y115226D02*
X164603D01*
X163703Y114326D02*
Y116126D01*
X118480Y44002D02*
X120280D01*
X119380Y43102D02*
Y44902D01*
X118988Y55361D02*
X120788D01*
X119888Y54461D02*
Y56261D01*
X122770Y74742D02*
X124570D01*
X123670Y73842D02*
Y75642D01*
X123258Y69515D02*
X125058D01*
X124158Y68615D02*
Y70415D01*
X125124Y90637D02*
X126924D01*
X126024Y89737D02*
Y91537D01*
X108738Y52913D02*
X110538D01*
X109638Y52013D02*
Y53813D01*
X129546Y52507D02*
X131346D01*
X130446Y51607D02*
Y53407D01*
X280295Y35993D02*
X282095D01*
X281195Y35093D02*
Y36893D01*
X298789Y66757D02*
X300589D01*
X299689Y65856D02*
Y67656D01*
X286628Y37846D02*
X288428D01*
X287528Y36946D02*
Y38746D01*
X242328Y91922D02*
X244128D01*
X243228Y91022D02*
Y92822D01*
X263774Y80141D02*
X265574D01*
X264674Y79241D02*
Y81041D01*
X247449Y93950D02*
X249249D01*
X248349Y93050D02*
Y94850D01*
X287390Y94742D02*
X289190D01*
X288290Y93842D02*
Y95642D01*
X301868Y111252D02*
X303668D01*
X302768Y110352D02*
Y112152D01*
X300344Y88900D02*
X302144D01*
X301244Y88000D02*
Y89800D01*
X202409Y115672D02*
X204209D01*
X203309Y114772D02*
Y116572D01*
X177219Y109839D02*
X179019D01*
X178119Y108940D02*
Y110739D01*
X175016Y135818D02*
X177556D01*
X176286Y134548D02*
Y137088D01*
X191378Y184648D02*
X193178D01*
X192278Y183748D02*
Y185548D01*
X208423Y225298D02*
X210223D01*
X209323Y224398D02*
Y226198D01*
X176646Y244782D02*
X178446D01*
X177546Y243882D02*
Y245682D01*
X207541Y16533D02*
X210081D01*
X208811Y15263D02*
Y17803D01*
X208650Y21747D02*
X210450D01*
X209550Y20847D02*
Y22647D01*
X202160Y20058D02*
X203960D01*
X203060Y19158D02*
Y20958D01*
X217783Y84898D02*
X219583D01*
X218683Y83998D02*
Y85798D01*
X218033Y79270D02*
X219833D01*
X218933Y78370D02*
Y80170D01*
X219609Y99347D02*
X221409D01*
X220509Y98448D02*
Y100247D01*
X135841Y138903D02*
X137641D01*
X136741Y138003D02*
Y139803D01*
X126862Y128524D02*
X128662D01*
X127762Y127624D02*
Y129424D01*
X142770Y149742D02*
X144570D01*
X143670Y148842D02*
Y150642D01*
X89116Y138250D02*
X90916D01*
X90016Y137350D02*
Y139150D01*
X89366Y146212D02*
X91166D01*
X90266Y145312D02*
Y147112D01*
X14562Y79966D02*
X16362D01*
X15462Y79066D02*
Y80866D01*
X14562Y74950D02*
X16362D01*
X15462Y74050D02*
Y75850D01*
X303011Y162179D02*
X304811D01*
X303911Y161279D02*
Y163079D01*
X193562Y238284D02*
X195362D01*
X194462Y237384D02*
Y239184D01*
X168550Y253866D02*
X171090D01*
X169820Y252596D02*
Y255136D01*
X122188Y31665D02*
X124728D01*
X123458Y30395D02*
Y32935D01*
X257885Y135418D02*
X259685D01*
X258785Y134518D02*
Y136318D01*
X232694Y135966D02*
X234494D01*
X233594Y135066D02*
Y136866D01*
X106231Y72233D02*
X108031D01*
X107131Y71333D02*
Y73133D01*
X306551Y94372D02*
X308351D01*
X307451Y93472D02*
Y95272D01*
X307738Y99759D02*
X309538D01*
X308638Y98859D02*
Y100659D01*
X147875Y147759D02*
X149675D01*
X148775Y146859D02*
Y148659D01*
X231100Y147483D02*
X232900D01*
X232000Y146583D02*
Y148383D01*
X307187Y88545D02*
X308987D01*
X308087Y87645D02*
Y89445D01*
X323742Y85414D02*
X325542D01*
X324642Y84514D02*
Y86314D01*
X82960Y143960D02*
X84760D01*
X83860Y143060D02*
Y144860D01*
X78460Y152866D02*
X80260D01*
X79360Y151966D02*
Y153766D01*
X82701Y107966D02*
X84501D01*
X83601Y107066D02*
Y108866D01*
X156471Y127242D02*
X158271D01*
X157371Y126342D02*
Y128142D01*
X147713Y90026D02*
X149513D01*
X148613Y89126D02*
Y90926D01*
X126354Y258572D02*
X128154D01*
X127254Y257672D02*
Y259472D01*
X104033Y86868D02*
X105834D01*
X104934Y85968D02*
Y87768D01*
X85809Y81788D02*
X87610D01*
X86709Y80888D02*
Y82688D01*
X98160Y114903D02*
X99960D01*
X99060Y114003D02*
Y115803D01*
X74538Y97790D02*
X76338D01*
X75438Y96890D02*
Y98690D01*
X43597Y68466D02*
X45397D01*
X44497Y67566D02*
Y69366D01*
X26844Y68466D02*
X28644D01*
X27743Y67566D02*
Y69366D01*
X259450Y20828D02*
X261250D01*
X260350Y19928D02*
Y21728D01*
X272254Y39254D02*
X274054D01*
X273154Y38354D02*
Y40154D01*
X267290Y32550D02*
X269090D01*
X268190Y31651D02*
Y33451D01*
X208973Y258866D02*
X211513D01*
X210243Y257596D02*
Y260136D01*
X330824Y132588D02*
X332624D01*
X331724Y131688D02*
Y133488D01*
X326179Y123214D02*
X327979D01*
X327079Y122314D02*
Y124114D01*
X159910Y41664D02*
X162450D01*
X161180Y40394D02*
Y42934D01*
X147472Y37802D02*
X149272D01*
X148372Y36902D02*
Y38702D01*
X179305Y54944D02*
X181105D01*
X180205Y54044D02*
Y55844D01*
X165074Y39116D02*
X166874D01*
X165974Y38216D02*
Y40016D01*
X186802Y-9254D02*
X188602D01*
X187702Y-10154D02*
Y-8354D01*
X188468Y17018D02*
X191008D01*
X189738Y15748D02*
Y18288D01*
X182778Y17928D02*
X185318D01*
X184048Y16658D02*
Y19198D01*
X53271Y132443D02*
X55071D01*
X54171Y131543D02*
Y133343D01*
X58282Y126448D02*
X60082D01*
X59182Y125548D02*
Y127348D01*
X53757Y114300D02*
X56297D01*
X55027Y113030D02*
Y115570D01*
X75996Y130630D02*
X77796D01*
X76896Y129730D02*
Y131530D01*
X57680Y136216D02*
X60220D01*
X58950Y134946D02*
Y137486D01*
X66082Y135363D02*
X67882D01*
X66982Y134463D02*
Y136263D01*
X76694Y83328D02*
X78494D01*
X77594Y82428D02*
Y84228D01*
X56504Y91948D02*
X58304D01*
X57404Y91048D02*
Y92848D01*
X29072Y109356D02*
X30872D01*
X29972Y108456D02*
Y110256D01*
X32861Y112247D02*
X34661D01*
X33761Y111347D02*
Y113147D01*
X11178Y115614D02*
X12978D01*
X12078Y114714D02*
Y116514D01*
X37629Y125427D02*
X40169D01*
X38899Y124157D02*
Y126697D01*
X7228Y154686D02*
X9028D01*
X8128Y153786D02*
Y155586D01*
X162408Y188976D02*
X164948D01*
X163678Y187706D02*
Y190246D01*
X155056Y167074D02*
X156856D01*
X155956Y166174D02*
Y167974D01*
X330769Y104396D02*
X332569D01*
X331669Y103496D02*
Y105296D01*
X321213Y105418D02*
X323013D01*
X322113Y104518D02*
Y106318D01*
X307228Y123934D02*
X309028D01*
X308128Y123034D02*
Y124834D01*
X278928Y135496D02*
X280728D01*
X279828Y134596D02*
Y136396D01*
X300815Y125072D02*
X302615D01*
X301715Y124172D02*
Y125972D01*
X166175Y46624D02*
X168715D01*
X167446Y45354D02*
Y47894D01*
X172576Y41649D02*
X174376D01*
X173476Y40749D02*
Y42549D01*
X175376Y13716D02*
X177176D01*
X176276Y12816D02*
Y14616D01*
X174752Y19812D02*
X177292D01*
X176022Y18542D02*
Y21082D01*
X125199Y120488D02*
X126999D01*
X126099Y119588D02*
Y121388D01*
X130208Y120860D02*
X132008D01*
X131108Y119960D02*
Y121760D01*
X229263Y220645D02*
X231063D01*
X230163Y219745D02*
Y221545D01*
X245480Y211818D02*
X247280D01*
X246380Y210918D02*
Y212718D01*
X280350Y147573D02*
X282150D01*
X281250Y146673D02*
Y148473D01*
X276007Y150973D02*
X277807D01*
X276907Y150073D02*
Y151873D01*
X231256Y215502D02*
X233056D01*
X232156Y214602D02*
Y216402D01*
X263644Y40591D02*
X265444D01*
X264544Y39691D02*
Y41491D01*
X290946Y107696D02*
X292746D01*
X291846Y106796D02*
Y108596D01*
X278774Y113518D02*
X280574D01*
X279674Y112618D02*
Y114418D01*
X254580Y103168D02*
X256380D01*
X255480Y102268D02*
Y104068D01*
X249793Y99006D02*
X251593D01*
X250693Y98106D02*
Y99906D01*
X225164Y96520D02*
X227704D01*
X226434Y95250D02*
Y97790D01*
X249137Y104482D02*
X250937D01*
X250037Y103582D02*
Y105382D01*
X157320Y145982D02*
X159120D01*
X158220Y145082D02*
Y146882D01*
X170042Y169418D02*
X171842D01*
X170942Y168518D02*
Y170318D01*
X164759Y167833D02*
X166559D01*
X165659Y166933D02*
Y168733D01*
X35168Y109869D02*
X36968D01*
X36068Y108969D02*
Y110769D01*
X133514Y99604D02*
X135314D01*
X134414Y98704D02*
Y100504D01*
X128000Y99453D02*
X129800D01*
X128900Y98553D02*
Y100353D01*
X91432Y228854D02*
X93231D01*
X92331Y227954D02*
Y229754D01*
X145404Y186436D02*
X147204D01*
X146304Y185536D02*
Y187336D01*
X155496Y173228D02*
X157296D01*
X156396Y172328D02*
Y174128D01*
X141369Y174307D02*
X143169D01*
X142269Y173407D02*
Y175207D01*
X151726Y201930D02*
X153526D01*
X152626Y201030D02*
Y202830D01*
X152730Y188976D02*
X154530D01*
X153630Y188076D02*
Y189876D01*
X100658Y202184D02*
X102458D01*
X101558Y201284D02*
Y203084D01*
X153190Y215509D02*
X154990D01*
X154090Y214610D02*
Y216409D01*
X261404Y32564D02*
X263944D01*
X262674Y31295D02*
Y33835D01*
X275706Y46575D02*
X277506D01*
X276606Y45675D02*
Y47475D01*
X273261Y113331D02*
X275061D01*
X274161Y112431D02*
Y114231D01*
X23522Y194348D02*
X25322D01*
X24422Y193448D02*
Y195248D01*
X68696Y111209D02*
X70496D01*
X69596Y110309D02*
Y112109D01*
X50916Y245618D02*
X52716D01*
X51816Y244718D02*
Y246518D01*
X187314Y261414D02*
X189114D01*
X188214Y260514D02*
Y262314D01*
X24246Y176278D02*
X26046D01*
X25146Y175378D02*
Y177178D01*
X17705Y180294D02*
X20245D01*
X18975Y179024D02*
Y181564D01*
X77470Y240792D02*
X80010D01*
X78740Y239522D02*
Y242062D01*
X65394Y228854D02*
X67194D01*
X66294Y227954D02*
Y229754D01*
X114162Y246634D02*
X115962D01*
X115062Y245734D02*
Y247534D01*
X306555Y65278D02*
X308355D01*
X307455Y64378D02*
Y66178D01*
X312790Y65278D02*
X314590D01*
X313690Y64378D02*
Y66178D01*
X77840Y108204D02*
X79640D01*
X78740Y107304D02*
Y109104D01*
X73268Y108204D02*
X75068D01*
X74168Y107304D02*
Y109104D01*
X260212Y84582D02*
X262012D01*
X261112Y83682D02*
Y85482D01*
X266585Y97146D02*
X268385D01*
X267485Y96246D02*
Y98046D01*
X262946Y92995D02*
X264746D01*
X263846Y92095D02*
Y93895D01*
X147693Y119449D02*
X150233D01*
X148963Y118179D02*
Y120719D01*
X217991Y121556D02*
X219491D01*
X218741Y120806D02*
Y122306D01*
X102940Y124492D02*
X104740D01*
X103840Y123592D02*
Y125392D01*
X83428Y33528D02*
X85228D01*
X84328Y32628D02*
Y34428D01*
X104510Y36988D02*
X106310D01*
X105410Y36088D02*
Y37888D01*
X180599Y89195D02*
X183139D01*
X181869Y87925D02*
Y90465D01*
X162390Y99443D02*
X164190D01*
X163290Y98543D02*
Y100343D01*
X167610Y95233D02*
X169410D01*
X168510Y94333D02*
Y96133D01*
X178597Y99858D02*
X180397D01*
X179497Y98958D02*
Y100758D01*
X129510Y171958D02*
X131310D01*
X130410Y171058D02*
Y172858D01*
X182486Y124790D02*
X184286D01*
X183386Y123890D02*
Y125690D01*
X280246Y160060D02*
X282046D01*
X281146Y159160D02*
Y160960D01*
X246018Y146908D02*
X247818D01*
X246918Y146008D02*
Y147808D01*
X227700Y154260D02*
X229500D01*
X228600Y153360D02*
Y155160D01*
X127356Y47153D02*
X129156D01*
X128256Y46253D02*
Y48053D01*
X157709Y73866D02*
X159509D01*
X158609Y72966D02*
Y74766D01*
X172460Y224118D02*
X174260D01*
X173360Y223218D02*
Y225018D01*
X153190Y215509D02*
X154990D01*
X154090Y214610D02*
Y216409D01*
X154040Y210566D02*
X155840D01*
X154940Y209666D02*
Y211466D01*
X199829Y150168D02*
X201629D01*
X200729Y149268D02*
Y151068D01*
X182628Y258366D02*
X184428D01*
X183528Y257466D02*
Y259266D01*
X165523Y189685D02*
X167323D01*
X166423Y188785D02*
Y190585D01*
X168288Y191853D02*
X170088D01*
X169188Y190953D02*
Y192753D01*
X182855Y184936D02*
X185395D01*
X184125Y183666D02*
Y186206D01*
X319051Y116544D02*
X320851D01*
X319951Y115644D02*
Y117444D01*
X74538Y204978D02*
X76338D01*
X75438Y204078D02*
Y205878D01*
X19860Y159731D02*
X22400D01*
X21130Y158461D02*
Y161000D01*
X32410Y101274D02*
X34210D01*
X33310Y100374D02*
Y102174D01*
X257275Y148226D02*
X259075D01*
X258175Y147326D02*
Y149126D01*
X160686Y20828D02*
X163226D01*
X161956Y19558D02*
Y22098D01*
X152654Y21142D02*
X155194D01*
X153924Y19872D02*
Y22412D01*
X213614Y16002D02*
X216154D01*
X214884Y14732D02*
Y17272D01*
X198030Y16371D02*
X200570D01*
X199300Y15101D02*
Y17641D01*
X102272Y178308D02*
X104072D01*
X103172Y177408D02*
Y179208D01*
X123109Y176331D02*
X124909D01*
X124009Y175431D02*
Y177231D01*
X241808Y257302D02*
X244348D01*
X243078Y256032D02*
Y258572D01*
X268364Y160589D02*
X270904D01*
X269634Y159319D02*
Y161859D01*
X325120Y146304D02*
X327660D01*
X326390Y145034D02*
Y147574D01*
X225916Y59642D02*
X227716D01*
X226816Y58742D02*
Y60542D01*
X226870Y109950D02*
X229410D01*
X228140Y108680D02*
Y111220D01*
X222948Y85344D02*
X225488D01*
X224218Y84074D02*
Y86614D01*
X194017Y79883D02*
X195817D01*
X194917Y78983D02*
Y80784D01*
X199531Y80045D02*
X201331D01*
X200431Y79145D02*
Y80945D01*
X188533Y79290D02*
X190333D01*
X189433Y78390D02*
Y80190D01*
X202523Y55032D02*
X204323D01*
X203423Y54132D02*
Y55932D01*
X191682Y46561D02*
X194222D01*
X192952Y45290D02*
Y47831D01*
X208883Y46246D02*
X211423D01*
X210153Y44976D02*
Y47516D01*
X99397Y43564D02*
X101197D01*
X100297Y42664D02*
Y44464D01*
X86716Y-749D02*
X89256D01*
X87986Y-2019D02*
Y521D01*
X91646Y63452D02*
X94186D01*
X92916Y62182D02*
Y64722D01*
X135388Y46990D02*
X137188D01*
X136288Y46090D02*
Y47890D01*
X226819Y123229D02*
X228619D01*
X227719Y122329D02*
Y124129D01*
X176331Y86209D02*
X178131D01*
X177231Y85309D02*
Y87109D01*
X185028Y99568D02*
X186828D01*
X185928Y98668D02*
Y100468D01*
X166720Y21336D02*
X169260D01*
X167990Y20066D02*
Y22606D01*
X221905Y21497D02*
X224445D01*
X223175Y20227D02*
Y22767D01*
X32285Y91108D02*
X34085D01*
X33185Y90208D02*
Y92008D01*
X26786Y90678D02*
X28586D01*
X27686Y89778D02*
Y91578D01*
X1222Y69671D02*
X3022D01*
X2122Y68771D02*
Y70571D01*
X8324Y73379D02*
X10864D01*
X9594Y72109D02*
Y74649D01*
X4764Y65442D02*
X6564D01*
X5663Y64542D02*
Y66342D01*
X211678Y51308D02*
X214218D01*
X212948Y50038D02*
Y52578D01*
X219710Y50216D02*
X222250D01*
X220980Y48946D02*
Y51486D01*
X3418Y121484D02*
X5218D01*
X4318Y120584D02*
Y122384D01*
X4354Y126843D02*
X6894D01*
X5624Y125573D02*
Y128113D01*
X216399Y67242D02*
X218939D01*
X217669Y65972D02*
Y68512D01*
X217337Y61755D02*
X219137D01*
X218237Y60855D02*
Y62655D01*
X219448Y114274D02*
X221248D01*
X220348Y113374D02*
Y115174D01*
X90170Y192786D02*
X92710D01*
X91440Y191516D02*
Y194056D01*
X93218Y-1747D02*
X95758D01*
X94488Y-3017D02*
Y-477D01*
X113792Y-30734D02*
X116332D01*
X115062Y-32004D02*
Y-29464D01*
X68748Y124096D02*
X70548D01*
X69648Y123196D02*
Y124996D01*
X50514Y122682D02*
X53054D01*
X51784Y121412D02*
Y123952D01*
X96012Y162881D02*
X98552D01*
X97282Y161611D02*
Y164151D01*
X265574Y105594D02*
X267374D01*
X266474Y104694D02*
Y106494D01*
X195302Y109292D02*
X197102D01*
X196202Y108392D02*
Y110192D01*
X323371Y113641D02*
X325911D01*
X324641Y112371D02*
Y114911D01*
X148737Y49662D02*
X150537D01*
X149637Y48762D02*
Y50562D01*
X225818Y149075D02*
X227618D01*
X226718Y148175D02*
Y149975D01*
X127794Y30892D02*
X130334D01*
X129064Y29622D02*
Y32162D01*
X185536Y43688D02*
X187336D01*
X186436Y42788D02*
Y44588D01*
X214558Y45991D02*
X217098D01*
X215828Y44721D02*
Y47261D01*
X299430Y5486D02*
X301230D01*
X300330Y4586D02*
Y6386D01*
X201043Y49139D02*
X203584D01*
X202313Y47869D02*
Y50409D01*
X219922Y44704D02*
X222462D01*
X221192Y43434D02*
Y45974D01*
X197184Y99734D02*
X198984D01*
X198084Y98834D02*
Y100634D01*
X219454Y93836D02*
X221994D01*
X220724Y92566D02*
Y95106D01*
X202693Y99457D02*
X204493D01*
X203593Y98557D02*
Y100357D01*
X220106Y140706D02*
X221906D01*
X221006Y139806D02*
Y141606D01*
X221117Y146129D02*
X222917D01*
X222017Y145229D02*
Y147029D01*
X224393Y128183D02*
X226193D01*
X225293Y127283D02*
Y129083D01*
X218971Y129193D02*
X220771D01*
X219871Y128293D02*
Y130093D01*
X220334Y154161D02*
X222134D01*
X221234Y153261D02*
Y155061D01*
X122091Y23633D02*
X124631D01*
X123361Y22363D02*
Y24903D01*
X135826Y30741D02*
X138366D01*
X137096Y29471D02*
Y32011D01*
X252131Y162091D02*
X253931D01*
X253031Y161191D02*
Y162991D01*
X257447Y159859D02*
X259247D01*
X258347Y158959D02*
Y160759D01*
X246634Y10958D02*
X249174D01*
X247904Y9688D02*
Y12228D01*
X116318Y25386D02*
X118858D01*
X117588Y24116D02*
Y26656D01*
X132842Y22709D02*
X135382D01*
X134112Y21439D02*
Y23979D01*
X101970Y162881D02*
X103770D01*
X102870Y161981D02*
Y163781D01*
X211580Y169130D02*
X213380D01*
X212480Y168230D02*
Y170030D01*
X257689Y108331D02*
X259489D01*
X258589Y107431D02*
Y109231D01*
X217286Y169929D02*
X219086D01*
X218186Y169029D02*
Y170829D01*
X64021Y89408D02*
X65821D01*
X64921Y88508D02*
Y90308D01*
X78062Y89408D02*
X79862D01*
X78962Y88508D02*
Y90308D01*
X257145Y195315D02*
X258945D01*
X258045Y194415D02*
Y196215D01*
X285612Y181610D02*
X287412D01*
X286512Y180710D02*
Y182510D01*
X201847Y168057D02*
X203647D01*
X202747Y167157D02*
Y168957D01*
X268202Y147621D02*
X270002D01*
X269102Y146721D02*
Y148521D01*
X228693Y131966D02*
X230493D01*
X229593Y131066D02*
Y132866D01*
X10267Y36313D02*
X12067D01*
X11167Y35413D02*
Y37213D01*
X6466Y58070D02*
X8266D01*
X7366Y57170D02*
Y58970D01*
X5704Y50038D02*
X7504D01*
X6604Y49138D02*
Y50938D01*
X58965Y69687D02*
X60765D01*
X59865Y68787D02*
Y70587D01*
X21198Y53848D02*
X22998D01*
X22098Y52948D02*
Y54748D01*
X10784Y28448D02*
X12584D01*
X11684Y27548D02*
Y29348D01*
X192267Y168057D02*
X194067D01*
X193167Y167157D02*
Y168957D01*
X181276Y168057D02*
X183076D01*
X182176Y167157D02*
Y168957D01*
X186772Y167581D02*
X188572D01*
X187672Y166681D02*
Y168481D01*
X229478Y187136D02*
X231278D01*
X230378Y186236D02*
Y188036D01*
X235208Y187452D02*
X237008D01*
X236108Y186552D02*
Y188352D01*
X229986Y208232D02*
X231786D01*
X230886Y207332D02*
Y209132D01*
X230719Y197684D02*
X232519D01*
X231619Y196784D02*
Y198584D01*
X235828Y200200D02*
X237628D01*
X236728Y199300D02*
Y201100D01*
X240894Y198017D02*
X242694D01*
X241794Y197117D02*
Y198917D01*
X251446Y188435D02*
X253246D01*
X252346Y187535D02*
Y189335D01*
X199252Y184936D02*
X201052D01*
X200152Y184036D02*
Y185836D01*
X175376Y167894D02*
X177176D01*
X176276Y166994D02*
Y168794D01*
X261033Y98262D02*
X262833D01*
X261933Y97362D02*
Y99162D01*
X319039Y78756D02*
X320839D01*
X319939Y77856D02*
Y79656D01*
X323741Y94823D02*
X325541D01*
X324641Y93923D02*
Y95723D01*
X318227Y94674D02*
X320027D01*
X319127Y93774D02*
Y95574D01*
X261239Y152063D02*
X263039D01*
X262139Y151163D02*
Y152963D01*
X276722Y105156D02*
X278522D01*
X277622Y104256D02*
Y106056D01*
X261896Y131329D02*
X263696D01*
X262796Y130429D02*
Y132229D01*
X258042Y127382D02*
X259842D01*
X258942Y126482D02*
Y128282D01*
X209795Y174350D02*
X211595D01*
X210695Y173450D02*
Y175250D01*
X297296Y150114D02*
X299096D01*
X298196Y149214D02*
Y151014D01*
X253100Y183134D02*
X254900D01*
X254000Y182234D02*
Y184034D01*
X182645Y109474D02*
X184145D01*
X183395Y108724D02*
Y110224D01*
X6720Y160782D02*
X8520D01*
X7620Y159882D02*
Y161682D01*
X75256Y221190D02*
X77056D01*
X76156Y220290D02*
Y222090D01*
X114924Y258064D02*
X116724D01*
X115824Y257164D02*
Y258964D01*
X319394Y38862D02*
X321194D01*
X320294Y37962D02*
Y39762D01*
X104510Y28956D02*
X106310D01*
X105410Y28056D02*
Y29856D01*
X40248Y6604D02*
X42048D01*
X41148Y5704D02*
Y7504D01*
X17896Y11938D02*
X19696D01*
X18796Y11038D02*
Y12838D01*
X246630Y198537D02*
X248430D01*
X247530Y197637D02*
Y199437D01*
X213984Y235712D02*
X215784D01*
X214884Y234812D02*
Y236612D01*
X238945Y214699D02*
X240745D01*
X239845Y213799D02*
Y215599D01*
X266054Y246126D02*
X267854D01*
X266954Y245226D02*
Y247026D01*
X265038Y223012D02*
X266838D01*
X265938Y222112D02*
Y223912D01*
X286120Y215646D02*
X287920D01*
X287020Y214746D02*
Y216546D01*
X286374Y205994D02*
X288174D01*
X287274Y205094D02*
Y206894D01*
X284850Y199390D02*
X286650D01*
X285750Y198490D02*
Y200290D01*
X284342Y191262D02*
X286142D01*
X285242Y190362D02*
Y192162D01*
X105753Y94996D02*
X107553D01*
X106653Y94096D02*
Y95896D01*
X258199Y119351D02*
X259999D01*
X259099Y118450D02*
Y120251D01*
X262026Y123323D02*
X263826D01*
X262926Y122423D02*
Y124223D01*
X257979Y113839D02*
X259779D01*
X258879Y112939D02*
Y114739D01*
X305170Y135890D02*
X306970D01*
X306070Y134990D02*
Y136790D01*
X306780Y83020D02*
X308580D01*
X307680Y82120D02*
Y83920D01*
X306577Y118456D02*
X308377D01*
X307477Y117556D02*
Y119356D01*
X318886Y132588D02*
X320686D01*
X319786Y131688D02*
Y133488D01*
X42553Y87066D02*
X44353D01*
X43453Y86166D02*
Y87966D01*
X37152Y88184D02*
X38952D01*
X38052Y87284D02*
Y89084D01*
X26392Y104247D02*
X28192D01*
X27292Y103347D02*
Y105147D01*
X101680Y76926D02*
X103480D01*
X102580Y76026D02*
Y77826D01*
X58925Y154643D02*
X60725D01*
X59825Y153743D02*
Y155543D01*
X53547Y153416D02*
X55347D01*
X54447Y152516D02*
Y154316D01*
M02*
